<?xml version="1.0" encoding="UTF-8" standalone="no"?>
<svg xmlns:xlink="http://www.w3.org/1999/xlink" height="576.0px" width="767.95px" xmlns="http://www.w3.org/2000/svg">
  <g transform="matrix(1.0, 0.0, 0.0, 1.0, 383.95, 288.0)">
    <path d="M-80.0 0.0 L-80.0 0.2 Q-79.95 33.25 -56.1 56.7 -32.75 79.85 0.0 80.0 33.2 80.0 57.0 56.2 80.0 33.05 80.0 0.0 80.0 -33.0 56.8 -56.4 33.65 -79.55 0.0 -80.0 -25.2 -80.0 -45.0 -66.05 -50.95 -61.85 -56.4 -56.4 -80.0 -33.15 -80.0 0.0 M-383.95 -288.0 L-383.95 288.0 384.0 288.0 384.0 -288.0 -383.95 -288.0" fill="#ffffff" fill-rule="evenodd" stroke="none">
      <animate attributeName="fill" dur="2s" repeatCount="indefinite" values="#ffffff;#ffffff"/>
      <animate attributeName="fill-opacity" dur="2s" repeatCount="indefinite" values="1.0;1.0"/>
      <animate attributeName="d" dur="2s" repeatCount="indefinite" values="M-80.0 0.0 L-80.0 0.2 Q-79.95 33.25 -56.1 56.7 -32.75 79.85 0.0 80.0 33.2 80.0 57.0 56.2 80.0 33.05 80.0 0.0 80.0 -33.0 56.8 -56.4 33.65 -79.55 0.0 -80.0 -25.2 -80.0 -45.0 -66.05 -50.95 -61.85 -56.4 -56.4 -80.0 -33.15 -80.0 0.0 M-383.95 -288.0 L-383.95 288.0 384.0 288.0 384.0 -288.0 -383.95 -288.0;M-10.0 0.0 L-10.0 0.0 Q-10.0 4.15 -7.05 7.05 -4.1 10.0 0.1 10.0 4.2 9.95 7.1 7.05 10.0 4.15 10.0 0.0 10.0 -4.15 7.1 -7.05 4.15 -10.0 -0.1 -10.0 -3.1 -9.95 -5.5 -8.35 -6.3 -7.7 -7.05 -7.05 -10.0 -4.15 -10.0 0.0 M-383.95 -288.0 L-383.95 288.0 384.0 288.0 384.0 -288.0 -383.95 -288.0"/>
    </path>
    <path d="M-383.95 -288.0 L384.0 -288.0 384.0 288.0 -383.95 288.0 -383.95 -288.0 M-80.0 0.0 Q-80.0 -33.15 -56.4 -56.4 -50.95 -61.85 -45.0 -66.05 -25.2 -80.0 0.0 -80.0 33.65 -79.55 56.8 -56.4 80.0 -33.0 80.0 0.0 80.0 33.05 57.0 56.2 33.2 80.0 0.0 80.0 -32.75 79.85 -56.1 56.7 -79.95 33.25 -80.0 0.2 L-80.0 0.0" fill="none" stroke="#000000" stroke-linecap="round" stroke-linejoin="round" stroke-opacity="0.0" stroke-width="1.0">
      <animate attributeName="stroke" dur="2s" repeatCount="indefinite" values="#000000;#000001"/>
      <animate attributeName="stroke-width" dur="2s" repeatCount="indefinite" values="0.0;0.0"/>
      <animate attributeName="fill-opacity" dur="2s" repeatCount="indefinite" values="0.0;0.0"/>
      <animate attributeName="d" dur="2s" repeatCount="indefinite" values="M-383.95 -288.0 L384.0 -288.0 384.0 288.0 -383.95 288.0 -383.95 -288.0 M-80.0 0.0 Q-80.0 -33.15 -56.4 -56.4 -50.95 -61.85 -45.0 -66.05 -25.2 -80.0 0.0 -80.0 33.65 -79.55 56.8 -56.4 80.0 -33.0 80.0 0.0 80.0 33.05 57.0 56.2 33.2 80.0 0.0 80.0 -32.75 79.85 -56.1 56.7 -79.95 33.25 -80.0 0.2 L-80.0 0.0;M-383.95 -288.0 L384.0 -288.0 384.0 288.0 -383.95 288.0 -383.95 -288.0 M-10.0 0.0 Q-10.0 -4.15 -7.05 -7.05 -6.3 -7.7 -5.5 -8.35 -3.1 -9.95 -0.1 -10.0 4.15 -10.0 7.1 -7.05 10.0 -4.15 10.0 0.0 10.0 4.15 7.1 7.05 4.2 9.95 0.1 10.0 -4.1 10.0 -7.05 7.05 -10.0 4.15 -10.0 0.0 L-10.0 0.0"/>
    </path>
  </g>
</svg>
