<?xml version="1.0" encoding="UTF-8" standalone="no"?>
<svg xmlns:xlink="http://www.w3.org/1999/xlink" height="213.45px" width="452.3px" xmlns="http://www.w3.org/2000/svg">
  <g transform="matrix(1.0, 0.0, 0.0, 1.0, 132.3, 196.75)">
    <path d="M-20.45 -160.15 Q-17.55 -160.0 -15.2 -158.7 -12.95 -157.4 -11.25 -155.45 -9.65 -153.45 -8.65 -150.9 -7.65 -148.4 -7.4 -145.75 -7.1 -143.1 -8.1 -140.6 L-8.75 -139.2 -8.95 -138.5 Q-9.65 -136.25 -10.85 -134.7 L-11.0 -134.55 Q-13.65 -131.5 -18.75 -131.5 -21.65 -131.5 -24.25 -134.2 L-26.55 -135.0 Q-29.35 -136.1 -31.4 -137.7 -33.3 -139.35 -34.4 -141.6 -35.45 -143.85 -35.35 -147.0 -35.25 -149.75 -34.05 -152.25 -32.8 -154.7 -30.8 -156.55 -28.75 -158.3 -26.1 -159.3 -23.4 -160.3 -20.45 -160.15 M57.7 -18.0 L59.8 -19.6 61.45 -20.65 63.1 -21.45 65.4 -22.15 70.4 -23.1 Q73.05 -23.35 76.15 -22.5 L77.8 -22.1 79.0 -21.45 80.35 -20.05 81.0 -19.25 Q83.3 -18.55 84.55 -15.35 85.4 -13.25 85.55 -11.1 L85.3 -9.7 85.25 -7.6 71.65 -7.0 64.75 -6.75 63.05 -6.6 62.2 -6.5 62.15 -5.8 64.25 -1.65 64.65 -1.0 Q65.65 0.5 66.6 1.35 L67.75 1.35 Q69.25 1.25 71.1 0.4 72.55 -0.25 73.6 -1.0 L74.2 -1.5 Q75.35 -2.55 76.25 -4.45 L81.6 -3.95 83.55 0.15 83.45 0.25 Q84.45 0.6 85.05 1.1 85.8 1.7 85.8 2.9 85.8 3.3 79.85 5.35 L78.4 6.5 Q76.0 8.1 73.85 8.45 L68.8 8.8 64.6 8.2 64.5 8.45 Q63.8 9.55 62.5 9.55 61.0 9.55 60.3 8.45 L59.75 7.05 Q55.55 10.0 54.35 5.3 L54.05 0.15 53.35 -1.0 53.2 -1.3 Q51.9 -3.8 52.0 -7.45 52.2 -10.95 53.6 -13.4 55.0 -15.85 57.7 -18.0 M27.5 -30.15 Q28.7 -31.15 31.35 -31.15 35.15 -31.15 37.95 -29.05 40.75 -26.95 41.75 -23.6 44.0 -15.85 44.7 -8.7 L45.2 -1.0 45.15 5.5 39.5 6.0 33.4 2.65 32.6 -7.15 32.1 -11.6 Q31.75 -13.6 30.1 -15.5 29.15 -16.7 28.85 -15.6 28.7 -14.55 28.9 -11.65 L29.45 -4.25 29.65 -1.0 29.75 5.75 24.75 6.9 18.75 4.75 17.6 -6.4 Q17.15 -7.6 17.05 -8.55 L16.65 -10.2 16.1 -11.8 15.1 -13.45 Q14.05 -15.05 13.35 -14.8 12.65 -14.45 12.35 -12.9 11.9 -11.35 11.8 -8.95 L11.7 -3.65 11.75 -1.0 11.85 1.8 11.9 6.45 6.55 8.2 0.6 3.25 -1.15 -20.35 -3.1 -30.45 4.2 -32.7 8.45 -27.9 Q9.55 -30.15 11.65 -31.15 13.65 -32.1 16.3 -32.15 19.3 -32.2 21.15 -30.85 23.0 -29.45 24.85 -27.05 26.25 -29.15 27.5 -30.15 M76.05 -92.1 Q79.0 -89.7 80.2 -86.9 81.45 -84.15 82.05 -80.2 L68.35 -76.85 52.65 -73.95 53.45 -68.5 54.95 -66.15 57.25 -64.1 61.75 -64.5 Q63.75 -64.95 65.9 -66.5 68.15 -68.1 69.3 -69.7 70.55 -71.35 71.25 -73.95 L78.2 -74.65 81.7 -69.9 80.5 -67.3 79.55 -64.9 78.45 -62.65 Q77.85 -61.6 76.65 -60.5 74.0 -57.9 71.3 -56.9 68.7 -55.75 64.95 -55.2 60.25 -54.55 56.45 -55.3 52.7 -56.1 48.65 -58.8 44.8 -61.45 42.5 -64.35 40.25 -67.25 39.55 -71.9 38.9 -76.5 40.15 -79.9 41.3 -83.4 44.25 -86.75 L46.55 -89.35 48.35 -91.05 50.35 -92.5 53.05 -94.0 Q55.95 -95.4 59.3 -96.4 62.55 -97.4 66.75 -97.05 L68.95 -96.9 70.65 -96.4 72.7 -94.9 76.05 -92.1 M2.9 -101.85 Q7.0 -102.3 11.95 -100.95 L14.45 -100.3 16.35 -99.3 18.5 -97.1 21.8 -92.95 Q24.75 -89.45 25.55 -85.9 26.4 -82.35 26.2 -77.6 L23.2 -77.4 Q22.05 -75.75 20.0 -75.75 L18.2 -76.0 18.35 -76.6 Q18.25 -76.9 17.2 -77.1 L9.25 -76.65 0.1 -76.7 -6.0 -76.25 Q-7.05 -76.25 -7.65 -76.75 L-9.75 -76.8 -10.0 -76.5 -10.15 -73.4 Q-9.3 -68.5 -4.7 -64.75 L-3.15 -63.5 -1.3 -63.5 Q1.1 -63.7 4.0 -65.0 7.0 -66.35 8.8 -68.0 10.6 -69.65 12.05 -72.6 L20.45 -71.85 23.5 -65.4 21.5 -62.6 19.85 -60.0 18.0 -57.6 Q17.05 -56.45 15.45 -55.4 11.7 -52.95 8.25 -52.35 L8.0 -52.3 Q5.4 -51.5 2.5 -51.5 -2.75 -51.5 -6.85 -52.9 L-9.7 -53.85 Q-13.95 -55.6 -18.15 -59.7 -22.15 -63.75 -24.15 -67.7 -26.2 -71.65 -26.0 -77.3 -25.7 -82.85 -23.5 -86.7 -21.3 -90.55 -17.05 -93.85 L-13.8 -96.4 -11.2 -98.0 Q-10.0 -98.75 -8.6 -99.3 L-5.0 -100.45 2.9 -101.85 M15.65 -161.65 L20.15 -161.95 Q23.05 -161.6 24.55 -160.0 26.1 -158.4 27.5 -155.9 L30.45 -158.45 Q31.8 -159.2 34.25 -158.85 37.85 -158.3 40.2 -155.95 42.55 -153.55 43.05 -150.25 44.0 -142.65 43.7 -135.8 43.4 -129.0 42.1 -122.3 L36.7 -122.65 31.35 -126.6 32.0 -136.0 32.2 -140.3 Q32.15 -142.2 30.85 -144.25 30.1 -145.55 29.7 -144.55 29.4 -143.55 29.15 -140.75 L28.65 -133.75 Q28.35 -129.45 27.5 -124.2 L22.6 -123.85 17.25 -126.75 17.75 -137.4 17.55 -139.55 17.4 -141.2 17.1 -142.75 16.4 -144.45 Q15.65 -146.1 14.9 -145.95 14.25 -145.7 13.7 -144.3 13.1 -142.9 12.65 -140.65 L11.8 -135.7 11.15 -130.5 10.55 -126.1 5.25 -125.2 0.3 -130.75 1.0 -143.35 2.05 -153.25 1.65 -163.1 8.85 -164.15 12.15 -159.05 Q13.5 -161.05 15.65 -161.65 M90.85 -111.5 Q97.45 -113.7 102.85 -114.2 108.15 -114.7 112.45 -113.1 116.7 -111.55 120.2 -107.6 123.7 -103.6 126.75 -96.65 128.5 -92.65 128.35 -89.05 128.3 -85.45 126.85 -82.4 125.4 -79.3 122.75 -76.75 120.1 -74.2 116.8 -72.3 L120.4 -43.4 116.8 -42.1 Q116.1 -40.75 115.1 -40.3 112.7 -39.25 111.35 -41.0 L111.3 -41.15 Q110.5 -41.55 109.75 -42.05 108.35 -42.85 107.1 -43.7 L105.15 -45.25 104.25 -45.95 103.75 -49.2 102.25 -56.9 100.35 -67.15 98.15 -77.7 90.85 -111.5 M87.55 -155.2 L87.6 -151.9 75.55 -151.2 63.6 -151.3 Q62.8 -150.8 62.8 -150.0 62.8 -145.6 64.45 -144.0 L66.25 -141.95 68.1 -141.9 Q69.8 -142.0 71.85 -142.95 73.95 -143.9 75.25 -145.1 76.55 -146.25 77.55 -148.35 L83.5 -147.85 85.7 -143.25 84.25 -141.25 83.05 -139.4 81.8 -137.7 79.95 -136.15 Q78.7 -135.35 77.55 -134.8 73.8 -132.25 70.25 -132.25 65.0 -132.25 61.2 -135.45 58.65 -136.75 56.15 -139.2 53.3 -142.05 51.9 -144.9 50.45 -147.65 50.55 -151.7 50.8 -155.6 52.35 -158.35 53.9 -161.05 56.95 -163.4 L59.25 -165.2 61.05 -166.35 Q61.95 -166.9 62.9 -167.25 L65.45 -168.1 71.05 -169.1 Q73.95 -169.4 77.5 -168.45 L79.25 -168.0 80.6 -167.25 82.15 -165.75 84.5 -162.8 Q86.55 -160.3 87.15 -157.8 L87.4 -156.7 87.75 -156.0 87.55 -155.2 M-74.8 -196.0 Q-72.75 -198.3 -69.6 -193.75 L-69.25 -193.0 Q-67.2 -187.8 -67.05 -177.05 L-66.7 -168.8 -65.8 -168.9 -63.1 -170.05 -59.9 -170.3 -56.45 -170.05 Q-53.9 -169.95 -52.1 -168.8 -50.2 -167.65 -48.85 -165.85 -47.5 -164.05 -46.65 -161.85 -45.8 -159.65 -45.2 -157.2 L-44.15 -152.1 -43.8 -149.85 Q-42.75 -146.0 -42.75 -142.6 L-42.6 -140.1 -42.2 -137.1 -47.4 -134.65 -56.6 -137.75 -56.7 -139.9 -56.65 -141.6 Q-56.55 -142.45 -56.6 -143.25 L-57.1 -145.35 Q-57.9 -147.8 -58.8 -149.6 L-59.45 -150.7 Q-61.35 -147.15 -62.7 -140.95 L-63.45 -137.5 -63.1 -135.85 -62.4 -133.3 -64.75 -133.0 Q-65.85 -130.25 -67.5 -130.25 -68.75 -130.25 -70.0 -132.3 L-71.9 -132.05 -79.55 -136.8 -82.65 -170.8 -84.05 -193.95 -75.6 -196.7 -74.8 -196.0 M-18.3 -29.35 Q-15.75 -27.9 -13.9 -25.75 -12.1 -23.55 -11.0 -20.7 -9.9 -17.95 -9.6 -14.95 -9.3 -12.05 -10.4 -9.25 -11.5 -6.5 -13.55 -4.45 -15.65 -2.35 -18.3 -1.35 L-19.4 -1.0 Q-21.55 -0.5 -23.8 -1.0 -27.1 -1.7 -29.85 -2.7 -33.65 -3.6 -35.65 -5.6 L-36.25 -6.05 Q-38.4 -7.9 -39.55 -10.4 -40.75 -12.85 -40.65 -16.35 -40.55 -19.4 -39.2 -22.2 -37.85 -24.9 -35.55 -26.95 -33.3 -28.95 -30.35 -30.05 -27.4 -31.1 -24.1 -30.95 -20.85 -30.8 -18.3 -29.35 M-83.3 -19.2 L-84.05 -40.55 -81.45 -41.3 Q-80.3 -44.05 -78.0 -44.9 -76.3 -45.5 -75.05 -44.45 -73.75 -43.35 -73.75 -41.0 L-73.75 -40.6 -71.8 -38.75 -69.9 -15.05 Q-69.1 -16.45 -67.9 -17.05 -66.7 -17.8 -65.35 -18.05 L-62.4 -18.2 -59.3 -17.95 Q-56.9 -17.7 -55.25 -16.6 -53.55 -15.55 -52.35 -13.85 -51.2 -12.15 -50.45 -10.1 L-49.2 -5.75 -48.4 -1.05 -48.4 -1.0 -47.95 3.15 -47.5 7.6 -46.95 12.8 -51.8 14.95 -53.85 14.2 Q-54.9 15.5 -56.0 15.5 -57.95 15.5 -59.55 12.1 L-60.15 11.85 -60.25 10.4 -61.45 6.4 -63.0 -0.8 -63.15 -1.0 -64.7 -2.4 Q-65.5 -1.8 -65.9 -1.0 L-66.1 -0.65 Q-66.55 0.3 -66.65 1.5 L-66.8 3.95 -66.75 6.65 -66.8 9.15 -66.65 11.3 -66.2 13.4 -65.65 15.85 -74.4 16.7 -81.3 12.15 -83.3 -19.2 M-106.95 -114.05 L-99.15 -114.7 -93.75 -104.4 -94.55 -102.2 -94.5 -101.55 Q-94.5 -100.25 -95.55 -99.6 L-97.8 -93.8 Q-99.6 -95.0 -101.05 -96.2 -102.5 -97.4 -104.85 -97.4 L-106.7 -97.3 -107.2 -97.25 Q-109.45 -96.25 -110.45 -94.45 L-110.5 -94.15 Q-110.5 -93.1 -109.05 -92.3 -107.65 -91.5 -105.5 -90.55 L-100.85 -88.3 Q-98.3 -87.1 -96.15 -85.35 -94.0 -83.6 -92.6 -81.2 -91.2 -78.85 -91.2 -75.55 -91.2 -72.65 -92.55 -70.1 L-93.35 -68.75 Q-93.35 -65.65 -93.5 -65.2 -94.3 -62.45 -98.0 -62.45 L-101.7 -62.5 Q-104.1 -61.7 -106.65 -61.7 -108.5 -61.7 -111.45 -62.7 -114.4 -63.7 -117.55 -65.1 -120.75 -66.5 -123.5 -68.05 L-127.9 -70.75 -132.3 -79.3 -125.5 -85.9 -121.35 -82.45 -117.6 -79.75 Q-115.75 -78.6 -113.55 -78.1 -111.4 -77.4 -108.4 -77.4 -106.3 -77.4 -104.25 -78.1 L-104.1 -79.5 Q-103.75 -80.25 -102.8 -80.4 -104.3 -81.35 -106.1 -81.95 -108.85 -82.65 -111.1 -83.7 -114.25 -85.0 -116.0 -86.55 -117.8 -88.15 -118.7 -90.1 -119.6 -92.1 -119.75 -94.6 L-119.95 -100.25 Q-119.95 -105.6 -118.25 -108.4 -116.5 -111.15 -113.55 -112.4 -110.7 -113.7 -106.95 -114.05 M-74.0 -121.05 L-64.3 -122.9 -59.5 -117.4 -60.1 -88.75 Q-58.95 -90.3 -57.45 -90.9 -55.95 -91.65 -54.3 -91.75 L-50.75 -91.65 -47.05 -90.9 Q-44.2 -90.35 -42.4 -88.85 -40.45 -87.35 -39.25 -85.2 -38.0 -83.0 -37.4 -80.4 -36.75 -77.9 -36.45 -75.1 L-36.0 -69.35 -36.0 -64.3 -36.0 -58.85 -35.95 -52.6 -42.05 -50.6 -51.75 -55.3 -51.55 -57.7 -51.2 -59.6 Q-51.0 -60.5 -50.95 -61.4 -50.9 -62.35 -51.2 -63.75 -51.75 -66.55 -52.45 -68.7 -53.2 -70.85 -55.4 -72.95 L-57.3 -71.05 Q-57.95 -69.9 -58.25 -68.5 L-58.65 -65.6 -58.95 -62.35 -59.3 -59.4 -59.4 -56.75 -59.15 -54.15 -58.7 -51.2 -69.35 -51.2 -77.1 -57.45 -75.7 -95.35 -74.0 -121.05" fill="url(#gradient0)" fill-rule="evenodd" stroke="none"/>
    <path d="M320.0 -166.15 L320.0 5.3 Q304.75 6.0 282.5 6.0 L254.95 6.9 Q243.8 7.25 239.75 5.25 236.35 3.55 234.55 -1.0 233.8 -2.9 233.35 -5.3 232.0 -12.25 232.0 -31.1 232.0 -47.1 232.95 -53.05 234.05 -60.1 238.05 -65.9 240.15 -68.9 250.75 -81.1 263.1 -95.25 274.5 -110.25 L288.0 -128.85 Q300.55 -145.75 310.15 -156.3 315.55 -162.25 320.0 -166.15" fill="url(#gradient1)" fill-rule="evenodd" stroke="none"/>
  </g>
  <defs>
    <linearGradient gradientTransform="matrix(0.0, 0.293, -0.2841, 0.0, 0.0, 20.0)" gradientUnits="userSpaceOnUse" id="gradient0" spreadMethod="pad" x1="-819.2" x2="819.2">
      <stop offset="0.0" stop-color="#9fdfdf"/>
      <stop offset="1.0" stop-color="#ffffff"/>
    </linearGradient>
    <linearGradient gradientTransform="matrix(0.0, 0.293, -0.2841, 0.0, 0.0, -20.0)" gradientUnits="userSpaceOnUse" id="gradient1" spreadMethod="pad" x1="-819.2" x2="819.2">
      <stop offset="0.0" stop-color="#9fdfdf"/>
      <stop offset="1.0" stop-color="#ffffff"/>
    </linearGradient>
  </defs>
</svg>
