<?xml version="1.0" encoding="UTF-8" standalone="no"?>
<svg xmlns:xlink="http://www.w3.org/1999/xlink" height="213.5px" width="260.65px" xmlns="http://www.w3.org/2000/svg">
  <g transform="matrix(1.0, 0.0, 0.0, 1.0, 132.3, 106.8)">
    <path d="M-77.55 -97.15 Q-75.45 -112.2 -69.6 -103.75 -67.2 -98.6 -67.05 -87.05 -66.85 -74.6 -65.25 -69.6 L-64.5 -69.6 -65.3 -70.8 -65.75 -72.4 Q-65.75 -74.2 -64.75 -74.9 -63.5 -75.75 -60.0 -75.75 -50.1 -75.75 -45.5 -64.6 -42.75 -58.05 -42.75 -52.6 -42.45 -50.5 -42.75 -48.85 -43.25 -45.75 -46.0 -45.75 -52.6 -45.75 -53.5 -54.25 -54.0 -58.65 -53.25 -64.6 L-53.25 -65.0 -55.75 -65.0 Q-60.15 -62.65 -62.7 -50.95 -64.0 -45.05 -64.55 -43.5 -65.7 -40.25 -67.5 -40.25 -71.15 -40.25 -75.25 -58.25 -77.3 -67.25 -78.6 -76.25 -78.6 -89.7 -77.55 -97.15" fill="#ffffff" fill-rule="evenodd" stroke="none"/>
    <path d="M53.3 -62.1 Q53.3 -64.3 56.85 -67.95 60.3 -71.5 63.5 -72.85 70.95 -76.05 80.0 -71.8 83.1 -70.35 85.6 -68.35 87.75 -66.6 87.75 -66.0 87.75 -62.6 75.3 -62.55 L66.7 -62.3 Q62.8 -61.75 62.8 -60.0 62.8 -55.6 64.45 -54.0 67.2 -51.25 68.5 -48.0 71.6 -48.2 75.25 -51.75 78.85 -55.25 80.0 -55.25 82.3 -55.25 83.25 -53.7 83.75 -52.9 83.75 -52.0 83.75 -50.05 79.55 -46.4 74.8 -42.25 70.25 -42.25 61.15 -42.25 56.35 -52.0 53.9 -56.9 53.3 -62.1 M71.3 -70.45 Q70.3 -70.3 65.8 -67.5 L65.5 -66.5 65.5 -66.35 70.0 -66.95 77.25 -67.6 Q73.55 -70.8 71.3 -70.45" fill="#ffffff" fill-rule="evenodd" stroke="none"/>
    <path d="M-96.65 -9.15 L-101.65 -8.55 Q-109.4 -7.9 -111.0 -3.35 -97.5 4.75 -95.95 6.55 -94.7 7.95 -94.55 10.0 L-94.5 15.5 -93.9 18.1 Q-93.35 20.45 -93.35 20.85 -93.35 24.35 -93.5 24.8 -94.3 27.55 -98.0 27.55 -113.5 27.55 -122.15 22.55 -128.1 19.15 -128.1 16.35 -128.1 12.5 -125.0 12.5 -124.8 12.5 -111.75 19.3 -105.95 19.3 -102.75 15.55 -102.75 14.1 -103.5 13.25 L-104.25 12.0 -104.1 10.5 Q-103.65 9.45 -102.0 9.55 -106.5 6.1 -110.65 3.8 L-115.65 1.25 Q-117.45 0.25 -118.0 -1.0 -118.6 -2.25 -118.6 -5.55 -118.6 -11.55 -114.85 -14.65 -111.65 -17.2 -106.55 -17.3 -102.0 -17.35 -98.25 -15.6 -94.5 -13.8 -94.5 -11.55 -94.5 -9.75 -96.65 -9.15" fill="#ffffff" fill-rule="evenodd" stroke="none"/>
    <path d="M13.95 -4.4 L16.5 -5.0 Q19.8 -5.0 22.5 0.5 23.85 3.25 24.5 6.05 24.5 8.95 24.05 10.55 23.05 14.25 20.0 14.25 L18.2 14.0 18.35 13.4 Q18.0 12.5 8.75 12.5 L-6.0 13.75 Q-7.15 13.75 -7.8 13.1 L-8.75 12.05 -9.7 13.1 Q-10.35 13.85 -10.35 14.3 -10.35 20.65 -4.7 25.25 L-0.4 28.6 Q1.85 30.45 2.5 32.25 6.0 28.35 10.35 25.35 14.55 22.5 16.5 22.5 18.7 22.5 19.55 24.25 L20.0 26.05 Q20.0 28.5 15.8 32.8 10.25 38.5 2.5 38.5 -14.6 38.5 -19.35 23.8 -21.75 16.45 -20.75 8.8 -20.75 6.0 -14.7 -0.15 -7.8 -7.15 -2.0 -6.25 3.1 -6.55 4.2 -5.25 5.45 -3.85 11.35 -3.85 L13.95 -4.4 M2.65 3.8 Q-2.8 3.9 -5.35 7.05 L11.8 6.55 Q7.9 3.75 2.65 3.8" fill="#ffffff" fill-rule="evenodd" stroke="none"/>
    <path d="M106.45 -19.4 Q110.65 -21.1 115.55 -18.45 120.65 -15.7 123.2 -9.85 L124.45 -4.9 Q125.3 -0.15 125.2 3.8 124.95 15.95 115.95 15.85 117.65 23.2 118.15 33.95 118.8 48.05 115.1 49.7 112.7 50.75 111.35 49.0 L110.4 46.9 Q109.7 45.3 107.25 27.15 104.7 8.8 103.65 6.0 99.6 -4.75 100.85 -11.65 101.9 -17.6 106.45 -19.4 M111.05 -8.5 Q107.4 -8.85 109.8 -3.0 111.8 1.55 112.5 5.6 L113.9 8.85 Q116.55 6.75 116.55 0.85 116.6 -3.7 115.8 -5.5 115.35 -6.5 113.9 -7.45 112.4 -8.45 111.05 -8.5" fill="#ffffff" fill-rule="evenodd" stroke="none"/>
    <path d="M-27.55 -67.85 Q-24.55 -70.0 -19.7 -68.15 -15.45 -66.55 -11.9 -62.9 -8.35 -59.25 -8.35 -56.55 -8.35 -50.6 -8.95 -48.5 -11.05 -41.5 -18.75 -41.5 -23.65 -41.5 -27.85 -49.4 -31.1 -55.5 -31.1 -57.6 -31.1 -65.35 -27.55 -67.85" fill="#ffffff" fill-rule="evenodd" stroke="none"/>
    <path d="M85.55 78.9 Q85.55 80.35 84.8 80.8 L81.8 81.3 Q78.3 81.3 75.4 82.3 72.5 83.25 64.75 83.25 L63.05 83.4 61.8 83.55 64.25 88.35 Q66.8 92.55 69.25 92.55 70.45 92.55 73.15 91.05 75.8 89.55 77.5 89.55 83.2 89.55 85.05 91.1 85.8 91.7 85.8 92.9 85.8 93.35 78.5 95.8 71.25 98.25 70.25 98.25 L67.65 97.75 65.05 97.05 64.5 98.45 Q63.8 99.55 62.5 99.55 61.0 99.55 60.3 98.45 L59.75 97.05 Q55.55 100.0 54.35 95.3 L54.0 89.85 Q54.0 64.2 77.0 71.8 L77.6 70.95 Q77.95 70.5 79.5 70.5 82.9 70.5 84.55 74.65 85.4 76.75 85.55 78.9" fill="#ffffff" fill-rule="evenodd" stroke="none"/>
    <path d="M-75.05 45.55 Q-73.75 46.65 -73.75 49.0 -73.75 50.2 -75.55 52.85 -77.35 55.5 -77.35 58.0 -77.35 63.5 -76.25 70.4 L-74.25 83.0 Q-74.05 80.4 -72.25 77.95 -68.6 73.0 -60.0 73.0 -54.55 73.0 -53.0 78.25 -52.2 80.9 -52.5 83.65 -52.5 85.05 -52.65 85.4 -53.0 86.4 -54.6 87.5 L-52.3 92.55 Q-51.0 95.6 -51.0 97.35 -51.0 99.05 -52.5 102.05 -54.25 105.5 -56.0 105.5 -59.15 105.5 -61.45 96.4 -63.65 85.5 -65.0 82.0 -65.0 81.55 -66.0 81.5 -67.05 82.25 -69.55 87.95 -72.0 93.5 -72.0 94.75 -72.0 95.95 -71.25 98.65 -70.5 101.4 -70.5 102.35 -70.5 106.5 -73.5 106.5 -79.45 106.5 -81.75 86.0 -82.45 79.6 -82.7 71.9 L-82.85 65.5 -82.6 54.5 Q-82.25 46.65 -78.0 45.1 -76.3 44.5 -75.05 45.55" fill="#ffffff" fill-rule="evenodd" stroke="none"/>
    <path d="M-19.25 61.85 Q-19.25 62.45 -20.05 63.3 L-21.75 64.55 -21.0 63.5 -22.0 63.5 -22.0 65.75 -21.1 64.75 Q-20.6 64.25 -19.0 64.25 -15.45 64.25 -12.75 69.8 -10.75 74.0 -10.75 75.8 -10.75 78.15 -13.25 82.25 -16.8 88.05 -22.5 88.05 -33.6 88.05 -36.75 83.05 -37.75 81.45 -37.75 77.4 -37.75 71.2 -34.9 66.45 -30.25 58.65 -19.5 61.0 L-19.35 61.05 -19.25 61.85" fill="#ffffff" fill-rule="evenodd" stroke="none"/>
    <path d="M-72.2 -99.95 L-77.25 -98.3 -74.75 -70.55 -72.8 -55.35 -70.65 -43.9 -64.7 -44.5 -65.8 -54.25 Q-66.0 -56.0 -65.8 -57.95 -65.6 -59.85 -64.95 -61.45 -64.3 -63.05 -63.15 -64.25 -61.9 -65.4 -60.0 -65.85 L-56.5 -65.75 Q-54.9 -65.3 -53.55 -64.3 -52.2 -63.25 -51.25 -61.7 -50.35 -60.05 -49.95 -58.3 L-47.25 -46.4 -44.0 -47.85 -47.1 -68.4 Q-49.0 -71.2 -51.45 -72.15 -53.75 -73.2 -57.15 -73.4 -59.25 -73.55 -60.6 -72.95 L-63.1 -71.4 -65.55 -69.35 Q-66.8 -68.25 -68.65 -67.35 L-72.2 -99.95 M-84.05 -103.95 L-75.6 -106.7 -70.65 -102.35 -67.9 -76.7 Q-67.1 -78.2 -65.8 -78.9 L-63.1 -80.05 -59.9 -80.3 -56.45 -80.05 Q-53.9 -79.95 -52.1 -78.8 -50.2 -77.65 -48.85 -75.85 -47.5 -74.05 -46.65 -71.85 -45.8 -69.65 -45.2 -67.2 L-44.15 -62.1 -43.55 -57.55 -42.95 -52.7 -42.2 -47.1 Q-44.75 -45.85 -47.4 -44.65 L-56.6 -47.75 -56.7 -49.9 -56.65 -51.6 Q-56.55 -52.45 -56.6 -53.25 L-57.1 -55.35 Q-57.9 -57.8 -58.8 -59.6 -59.7 -61.45 -61.9 -63.05 -62.95 -62.25 -63.35 -61.15 L-63.95 -58.8 -64.0 -56.15 -63.9 -53.2 -63.85 -50.5 -63.6 -48.15 -63.1 -45.85 -62.4 -43.3 -71.9 -42.05 -79.55 -46.8 -82.65 -80.8 -84.05 -103.95" fill="#5b5546" fill-rule="evenodd" stroke="none"/>
    <path d="M-8.65 -55.1 Q-8.6 -57.85 -9.35 -59.8 -10.15 -61.7 -11.6 -62.95 -13.0 -64.25 -14.95 -65.05 L-19.25 -66.3 -23.25 -66.05 Q-25.15 -65.25 -26.6 -63.75 -28.05 -62.2 -29.05 -60.1 -29.95 -58.05 -30.05 -55.8 -30.15 -53.55 -29.25 -51.45 -28.35 -49.3 -26.85 -47.65 -25.25 -46.05 -23.2 -45.0 -21.1 -44.0 -18.85 -43.95 -16.6 -43.9 -14.7 -44.8 -12.9 -45.65 -11.5 -47.2 -10.15 -48.75 -9.45 -50.8 -8.65 -52.85 -8.65 -55.1 M-8.65 -60.9 Q-7.65 -58.4 -7.4 -55.75 -7.1 -53.1 -8.1 -50.6 -9.15 -48.15 -10.95 -46.25 -12.85 -44.4 -15.2 -43.5 L-20.15 -43.15 Q-23.7 -43.95 -26.55 -45.0 -29.35 -46.1 -31.4 -47.7 -33.3 -49.35 -34.4 -51.6 -35.45 -53.85 -35.35 -57.0 -35.25 -59.75 -34.05 -62.25 -32.8 -64.7 -30.8 -66.55 -28.75 -68.3 -26.1 -69.3 -23.4 -70.3 -20.45 -70.15 -17.55 -70.0 -15.2 -68.7 -12.95 -67.4 -11.25 -65.45 -9.65 -63.45 -8.65 -60.9" fill="#5b5546" fill-rule="evenodd" stroke="none"/>
    <path d="M72.65 -69.3 L72.1 -69.35 70.85 -69.45 69.45 -69.4 67.1 -68.6 72.8 -68.6 72.65 -69.3 M62.55 -65.25 Q63.0 -66.5 63.95 -67.5 L66.05 -69.25 Q67.2 -69.9 68.65 -70.35 L71.35 -70.7 Q74.05 -70.55 76.0 -69.2 78.0 -67.85 79.3 -65.55 L70.4 -65.1 62.55 -65.25 M66.95 -73.2 Q62.75 -72.25 60.15 -69.55 57.55 -66.75 56.5 -62.55 55.35 -58.1 56.55 -54.3 57.7 -50.5 61.35 -47.65 63.7 -45.95 65.85 -45.5 L70.85 -45.0 75.05 -45.5 Q76.8 -45.9 78.75 -47.25 L80.2 -48.35 81.3 -49.5 82.3 -50.7 83.5 -52.05 79.95 -52.6 Q76.4 -47.1 69.85 -47.65 67.05 -47.9 65.15 -49.1 63.3 -50.25 61.7 -52.6 60.8 -53.9 60.55 -55.05 L60.3 -57.4 60.5 -59.95 60.65 -62.75 72.7 -62.75 86.05 -63.55 Q85.9 -67.55 83.9 -70.05 81.85 -72.55 78.3 -73.0 L73.95 -73.6 71.3 -73.8 69.4 -73.7 66.95 -73.2 M62.9 -77.25 L65.45 -78.1 71.05 -79.1 Q73.95 -79.4 77.5 -78.45 L79.25 -78.0 80.6 -77.25 82.15 -75.75 84.5 -72.8 Q86.55 -70.3 87.15 -67.8 87.75 -65.25 87.6 -61.9 L75.55 -61.2 61.95 -61.35 61.7 -56.65 62.6 -54.4 64.25 -52.3 68.1 -51.9 Q69.8 -52.0 71.85 -52.95 73.95 -53.9 75.25 -55.1 76.55 -56.25 77.55 -58.35 L83.5 -57.85 85.7 -53.25 84.25 -51.25 83.05 -49.4 81.8 -47.7 79.95 -46.15 Q77.3 -44.4 74.85 -44.0 L69.25 -43.6 Q65.15 -43.8 62.15 -45.05 59.1 -46.3 56.15 -49.2 53.3 -52.05 51.9 -54.9 50.45 -57.65 50.55 -61.7 50.8 -65.6 52.35 -68.35 53.9 -71.05 56.95 -73.4 L59.25 -75.2 61.05 -76.35 Q61.95 -76.9 62.9 -77.25" fill="#5b5546" fill-rule="evenodd" stroke="none"/>
    <path d="M-98.3 -6.2 L-96.15 -13.7 -100.2 -15.6 Q-102.25 -16.45 -104.6 -16.45 -107.05 -16.45 -109.4 -15.55 -111.7 -14.6 -113.45 -12.9 -115.2 -11.25 -116.3 -9.05 -117.3 -6.85 -117.3 -4.35 -117.3 -0.6 -116.2 1.15 -115.05 2.85 -113.25 3.55 -111.4 4.35 -109.15 4.8 -107.0 5.35 -104.75 6.75 L-102.6 8.05 -100.3 9.8 -98.5 11.85 Q-97.8 12.95 -97.8 14.25 -97.8 15.8 -98.65 17.15 -99.35 18.5 -100.6 19.5 -101.8 20.6 -103.3 21.15 -104.85 21.7 -106.2 21.7 -108.2 21.7 -110.55 20.85 -112.9 20.05 -115.25 18.65 -117.6 17.35 -119.7 15.85 L-123.25 13.05 -124.75 18.45 Q-123.1 19.95 -120.8 21.25 -118.55 22.65 -116.05 23.65 -113.55 24.7 -111.0 25.25 L-106.1 25.85 -101.6 25.25 Q-99.3 24.65 -97.4 23.35 -95.6 22.15 -94.45 20.25 -93.4 18.3 -93.4 15.8 -93.4 11.9 -94.75 9.45 -96.1 6.9 -98.2 5.3 -100.3 3.65 -102.7 2.65 L-107.25 0.8 Q-109.35 -0.1 -110.75 -0.95 -112.05 -1.95 -112.05 -3.25 -112.05 -5.85 -110.05 -7.85 -108.1 -9.8 -105.55 -9.8 -103.45 -9.8 -101.7 -8.5 L-98.3 -6.2 M-106.95 -24.05 L-99.15 -24.7 -93.75 -14.4 -97.8 -3.8 Q-99.6 -5.0 -101.05 -6.2 -102.5 -7.4 -104.85 -7.4 L-106.7 -7.3 -108.5 -6.95 -109.9 -5.95 Q-110.5 -5.25 -110.5 -4.15 -110.5 -3.1 -109.05 -2.3 -107.65 -1.5 -105.5 -0.55 -103.3 0.5 -100.85 1.7 -98.3 2.9 -96.15 4.65 -94.0 6.4 -92.6 8.8 -91.2 11.15 -91.2 14.45 -91.2 17.35 -92.55 19.9 -93.95 22.45 -96.1 24.35 -98.3 26.2 -101.1 27.25 -103.8 28.3 -106.65 28.3 -108.5 28.3 -111.45 27.3 -114.4 26.3 -117.55 24.9 L-123.5 21.95 -127.9 19.25 -132.3 10.7 -125.5 4.1 -121.35 7.55 -117.6 10.25 Q-115.75 11.4 -113.55 11.9 L-108.4 12.6 Q-104.85 12.6 -101.5 10.55 -103.45 8.9 -106.1 8.05 -108.85 7.35 -111.1 6.3 -114.25 5.0 -116.0 3.45 -117.8 1.85 -118.7 -0.1 -119.6 -2.1 -119.75 -4.6 L-119.95 -10.25 Q-119.95 -15.6 -118.25 -18.4 -116.5 -21.15 -113.55 -22.4 -110.7 -23.7 -106.95 -24.05" fill="#5b5546" fill-rule="evenodd" stroke="none"/>
    <path d="M-61.5 -25.0 L-67.35 -23.85 -68.5 7.0 -68.5 24.05 -67.7 36.95 -61.15 37.1 -60.95 26.25 -60.4 22.15 Q-59.95 20.1 -58.95 18.45 -58.05 16.75 -56.55 15.6 -55.05 14.5 -52.9 14.25 -50.85 14.1 -49.1 14.9 -47.35 15.6 -46.0 16.95 -44.7 18.25 -43.9 20.1 -43.1 22.0 -42.95 24.05 L-41.6 37.45 -37.8 36.4 -38.35 13.25 Q-40.05 9.95 -42.6 8.55 -45.0 7.05 -48.7 6.4 -51.0 5.9 -52.6 6.4 -54.1 6.85 -55.55 7.7 L-58.55 9.65 Q-60.05 10.7 -62.2 11.45 L-61.5 -25.0 M-74.0 -31.05 L-64.3 -32.9 -59.5 -27.4 -60.1 1.25 Q-58.95 -0.3 -57.45 -0.9 -55.95 -1.65 -54.3 -1.75 L-50.75 -1.65 -47.05 -0.9 Q-44.2 -0.35 -42.4 1.15 -40.45 2.65 -39.25 4.8 -38.0 7.0 -37.4 9.6 -36.75 12.1 -36.45 14.9 L-36.0 20.65 -36.0 25.7 -36.0 31.15 -35.95 37.4 -42.05 39.4 -51.75 34.7 -51.55 32.3 -51.2 30.4 Q-51.0 29.5 -50.95 28.6 -50.9 27.65 -51.2 26.25 -51.75 23.45 -52.45 21.3 -53.2 19.15 -55.4 17.05 -56.6 17.85 -57.3 18.95 -57.95 20.1 -58.25 21.5 L-58.65 24.4 -58.95 27.65 -59.3 30.6 -59.4 33.25 -59.15 35.85 -58.7 38.8 -69.35 38.8 -77.1 32.55 -75.7 -5.35 -74.0 -31.05" fill="#5b5546" fill-rule="evenodd" stroke="none"/>
    <path d="M2.6 1.75 L0.6 1.8 Q-0.4 2.0 -2.7 2.95 L5.35 2.95 5.15 2.0 4.35 1.85 2.6 1.75 M3.3 0.0 Q7.1 0.2 9.85 2.1 12.65 4.05 14.55 7.25 L1.95 7.9 -9.15 7.65 Q-8.5 5.9 -7.15 4.5 L-4.2 2.05 Q-2.5 1.1 -0.55 0.5 L3.3 0.0 M24.05 10.05 Q23.8 4.4 21.0 0.9 18.1 -2.6 13.1 -3.25 L6.95 -4.1 3.25 -4.4 0.55 -4.2 -2.9 -3.55 Q-8.85 -2.25 -12.5 1.6 -16.15 5.55 -17.65 11.45 -19.25 17.75 -17.6 23.15 -15.95 28.5 -10.75 32.45 -7.5 34.9 -4.45 35.55 -1.45 36.35 2.6 36.2 L8.5 35.55 Q10.95 34.95 13.75 33.05 15.0 32.35 15.8 31.5 L17.3 29.9 18.75 28.2 20.45 26.25 15.45 25.5 Q10.45 33.25 1.15 32.45 -2.75 32.1 -5.4 30.4 -8.05 28.8 -10.3 25.5 -11.55 23.65 -11.9 22.05 -12.3 20.4 -12.3 18.75 L-12.05 15.2 Q-11.8 13.35 -11.8 11.2 L5.2 11.2 24.05 10.05 M2.9 -11.85 Q7.0 -12.3 11.95 -10.95 L14.45 -10.3 16.35 -9.3 18.5 -7.1 21.8 -2.95 Q24.75 0.55 25.55 4.1 26.4 7.65 26.2 12.4 L9.25 13.35 -10.0 13.2 -10.3 19.8 -9.05 22.95 -6.75 25.9 -1.3 26.5 Q1.1 26.3 4.0 25.0 7.0 23.65 8.8 22.0 10.6 20.35 12.05 17.4 L20.45 18.15 23.5 24.6 21.5 27.4 19.85 30.0 18.0 32.4 Q17.05 33.55 15.45 34.6 11.7 37.05 8.25 37.65 L0.35 38.2 Q-5.4 37.9 -9.7 36.15 -13.95 34.4 -18.15 30.3 -22.15 26.25 -24.15 22.3 -26.2 18.35 -26.0 12.7 -25.7 7.15 -23.5 3.3 -21.3 -0.55 -17.05 -3.85 L-13.8 -6.4 -11.2 -8.0 Q-10.0 -8.75 -8.6 -9.3 L-5.0 -10.45 2.9 -11.85" fill="#5b5546" fill-rule="evenodd" stroke="none"/>
    <path d="M115.0 -6.25 L113.75 -6.6 112.25 -6.6 Q111.5 -6.4 111.1 -6.05 L112.3 -0.8 114.45 -2.95 Q115.45 -4.3 115.5 -5.4 115.55 -6.0 115.0 -6.25 M112.1 -8.95 Q113.9 -9.0 115.65 -8.3 117.3 -7.7 118.55 -6.35 119.75 -5.05 120.3 -3.25 121.05 -0.85 120.4 1.15 119.8 3.15 118.55 4.6 117.2 6.0 115.65 6.8 114.1 7.7 112.65 7.8 L108.6 -8.05 Q110.25 -9.0 112.1 -8.95 M116.0 -17.6 L109.65 -17.85 Q106.2 -17.1 101.55 -14.35 L109.15 28.95 112.95 47.0 118.55 45.15 114.75 16.15 Q118.95 14.5 121.55 12.1 124.2 9.55 125.45 6.65 126.65 3.7 126.45 0.4 126.3 -2.95 124.9 -6.4 123.0 -10.9 120.9 -13.75 118.75 -16.65 116.0 -17.6 M90.85 -21.5 Q97.45 -23.7 102.85 -24.2 108.15 -24.7 112.45 -23.1 116.7 -21.55 120.2 -17.6 123.7 -13.6 126.75 -6.65 128.5 -2.65 128.35 0.95 128.3 4.55 126.85 7.6 125.4 10.7 122.75 13.25 120.1 15.8 116.8 17.7 L120.4 46.6 112.45 49.4 109.75 47.95 107.1 46.3 105.15 44.75 104.25 44.05 103.75 40.8 102.25 33.1 100.35 22.85 98.15 12.3 90.85 -21.5" fill="#5b5546" fill-rule="evenodd" stroke="none"/>
    <path d="M-24.35 67.85 L-20.85 68.5 Q-19.1 69.0 -17.7 69.95 -16.4 70.9 -15.55 72.35 -14.7 73.7 -14.7 75.55 -14.7 77.15 -15.35 78.4 -16.05 79.6 -17.1 80.5 -18.25 81.35 -19.7 81.85 L-22.75 82.55 -26.05 82.15 Q-27.65 81.6 -28.8 80.5 -29.95 79.45 -30.55 78.0 -31.15 76.5 -31.0 74.75 -30.9 73.4 -30.35 72.05 -29.8 70.8 -29.0 69.85 -28.1 68.85 -26.9 68.3 -25.7 67.75 -24.35 67.85 M-14.25 67.0 Q-15.8 65.6 -18.0 64.7 -20.15 63.85 -22.75 63.3 L-27.2 63.6 Q-29.3 64.45 -30.9 66.15 -32.55 67.85 -33.65 70.2 -34.65 72.5 -34.75 74.95 -34.9 77.45 -33.9 79.8 -32.9 82.2 -31.15 84.0 -29.45 85.85 -27.1 86.95 -24.8 88.1 -22.35 88.15 -19.8 88.2 -17.7 87.2 -15.65 86.25 -14.15 84.55 -12.65 82.8 -11.85 80.5 -11.0 78.25 -11.0 75.75 -10.9 72.65 -11.75 70.55 -12.65 68.45 -14.25 67.0 M-18.3 60.65 Q-15.75 62.1 -13.9 64.25 -12.1 66.45 -11.0 69.3 -9.9 72.05 -9.6 75.05 -9.3 77.95 -10.4 80.75 -11.5 83.5 -13.55 85.55 -15.65 87.65 -18.3 88.65 L-23.8 89.0 Q-27.7 88.15 -30.85 86.95 -34.0 85.75 -36.25 83.95 -38.4 82.1 -39.55 79.6 -40.75 77.15 -40.65 73.65 -40.55 70.6 -39.2 67.8 -37.85 65.1 -35.55 63.05 -33.3 61.05 -30.35 59.95 -27.4 58.9 -24.1 59.05 -20.85 59.2 -18.3 60.65" fill="#5b5546" fill-rule="evenodd" stroke="none"/>
    <path d="M9.15 69.7 L7.95 64.0 3.8 65.55 4.9 77.35 7.45 96.45 10.5 95.55 10.25 91.4 10.0 87.6 Q9.9 85.7 9.95 83.65 L10.3 79.15 Q10.45 77.65 10.9 76.25 11.35 74.85 12.1 73.75 12.8 72.65 13.95 71.9 15.0 71.1 16.45 70.85 18.3 70.6 19.5 71.7 20.65 72.7 21.5 74.45 L22.7 78.15 23.35 81.65 25.6 95.05 28.45 94.6 27.75 82.25 27.45 78.7 27.3 75.4 Q27.5 73.85 28.2 72.7 28.85 71.45 30.4 71.05 32.2 70.5 33.5 71.45 34.65 72.55 35.55 74.25 36.35 76.0 36.8 78.05 L37.5 81.55 39.55 94.25 43.85 93.75 43.7 90.3 43.6 87.2 43.3 84.15 42.85 80.75 42.45 78.15 42.1 75.85 41.75 73.5 41.2 70.9 Q40.7 68.6 39.95 67.3 39.25 66.0 38.25 65.4 37.3 64.7 36.15 64.55 L33.5 64.4 Q32.1 64.4 31.05 64.9 L29.05 66.25 27.35 68.05 25.6 70.0 Q25.0 66.65 22.6 65.4 20.25 64.15 17.25 64.2 15.85 64.15 14.75 64.65 13.75 65.15 12.85 65.9 11.9 66.65 11.05 67.7 L9.15 69.7 M4.2 57.3 L8.45 62.1 Q9.55 59.85 11.65 58.85 13.65 57.9 16.3 57.85 19.3 57.8 21.15 59.15 23.0 60.55 24.85 62.95 26.25 60.85 27.5 59.85 28.7 58.85 31.35 58.85 35.15 58.85 37.95 60.95 40.75 63.05 41.75 66.4 44.0 74.15 44.7 81.3 45.45 88.4 45.15 95.5 L39.5 96.0 33.4 92.65 32.6 82.85 32.1 78.4 Q31.75 76.4 30.1 74.5 29.15 73.3 28.85 74.4 28.7 75.45 28.9 78.35 L29.45 85.75 Q29.8 90.25 29.75 95.75 L24.75 96.9 18.75 94.75 17.6 83.6 Q17.15 82.4 17.05 81.45 L16.65 79.8 16.1 78.2 15.1 76.55 Q14.05 74.95 13.35 75.2 12.65 75.55 12.35 77.1 11.9 78.65 11.8 81.05 L11.7 86.35 11.85 91.8 11.9 96.45 6.55 98.2 0.6 93.25 -0.65 80.1 -1.15 69.65 -3.1 59.55 4.2 57.3" fill="#5b5546" fill-rule="evenodd" stroke="none"/>
    <path d="M73.0 71.85 L70.65 71.65 68.9 71.8 66.75 72.2 Q62.95 73.05 60.6 75.5 58.3 78.0 57.35 81.75 56.3 85.8 57.35 89.2 58.4 92.65 61.7 95.15 63.8 96.7 65.75 97.1 L70.2 97.55 74.0 97.1 Q75.55 96.75 77.35 95.55 L78.65 94.55 79.6 93.5 80.5 92.45 81.6 91.2 78.4 90.7 Q75.2 95.65 69.3 95.15 66.8 94.95 65.1 93.85 63.45 92.8 62.0 90.7 61.2 89.55 60.95 88.5 L60.75 86.4 60.9 84.15 61.05 81.6 71.85 81.6 83.9 80.9 Q83.75 77.3 81.95 75.05 80.1 72.8 76.9 72.4 L73.0 71.85 M80.35 69.95 L82.45 72.6 Q84.35 74.8 84.85 77.1 85.4 79.35 85.25 82.4 L74.45 83.0 62.2 82.9 62.0 87.1 62.8 89.1 64.25 91.0 67.75 91.35 Q69.25 91.25 71.1 90.4 L74.2 88.5 Q75.35 87.45 76.25 85.55 L81.6 86.05 83.55 90.15 82.3 91.95 81.2 93.6 80.05 95.1 78.4 96.5 Q76.0 98.1 73.85 98.45 L68.8 98.8 Q65.1 98.6 62.4 97.5 59.65 96.4 57.0 93.8 54.45 91.2 53.2 88.7 51.9 86.2 52.0 82.55 52.2 79.05 53.6 76.6 55.0 74.15 57.7 72.0 L59.8 70.4 61.45 69.35 Q62.2 68.9 63.1 68.55 L65.4 67.85 Q67.75 67.2 70.4 66.9 73.05 66.65 76.15 67.5 L77.8 67.9 79.0 68.55 80.35 69.95" fill="#5b5546" fill-rule="evenodd" stroke="none"/>
    <path d="M-82.65 52.35 L-81.6 76.15 -80.25 89.4 -79.65 101.3 -74.9 104.7 -77.1 89.05 -78.4 73.9 -79.35 54.95 -82.65 52.35 M-76.3 48.55 L-82.2 50.25 -78.8 53.55 -73.35 51.85 -76.3 48.55 M-61.25 87.75 L-60.3 89.45 Q-59.8 90.5 -59.45 91.75 L-58.85 94.05 -58.4 95.95 -58.3 97.45 -58.35 99.0 -58.2 100.9 -53.8 103.1 -53.95 100.05 -54.05 97.9 Q-54.15 96.85 -54.4 95.9 L-55.0 93.65 Q-55.8 91.2 -56.45 89.9 -57.25 88.65 -58.05 88.0 -58.85 87.35 -59.85 87.25 L-61.85 87.25 -61.25 87.75 M-59.3 72.05 Q-56.9 72.3 -55.25 73.4 -53.55 74.45 -52.35 76.15 -51.2 77.85 -50.45 79.9 -49.7 81.95 -49.2 84.25 L-48.4 88.95 -47.95 93.15 -47.5 97.6 -46.95 102.8 -51.8 104.95 -60.15 101.85 -60.2 99.85 -60.1 98.3 -60.05 96.8 Q-60.05 96.0 -60.4 94.85 -61.1 92.55 -61.9 90.85 -62.65 89.2 -64.7 87.6 -65.65 88.35 -66.1 89.35 -66.55 90.3 -66.65 91.5 L-66.8 93.95 -66.75 96.65 -66.8 99.15 -66.65 101.3 -66.2 103.4 -65.65 105.85 -74.4 106.7 -81.3 102.15 -83.3 70.8 -84.05 49.45 -76.2 47.1 -71.8 51.25 -69.9 74.95 Q-69.1 73.55 -67.9 72.95 -66.7 72.2 -65.35 71.95 L-62.4 71.8 -59.3 72.05 M-62.0 73.4 Q-64.3 73.35 -66.0 74.15 -67.7 74.95 -69.5 76.5 L-69.3 81.0 Q-67.9 79.3 -66.55 78.4 -65.15 77.55 -62.9 76.9 -60.1 76.25 -57.65 76.85 -55.2 77.45 -52.75 78.9 -55.7 73.5 -62.0 73.4" fill="#5b5546" fill-rule="evenodd" stroke="none"/>
    <path d="M72.7 16.95 L76.0 20.75 80.25 19.9 78.1 16.8 72.7 16.95 M67.25 24.6 L65.55 25.75 Q64.65 26.25 63.8 26.55 L61.85 27.15 Q61.0 27.45 59.9 27.9 L64.05 28.3 Q65.85 28.1 67.95 27.1 L69.8 25.95 71.3 24.5 72.55 23.0 74.15 21.4 71.95 18.4 Q71.2 20.5 70.1 21.8 69.1 23.2 67.25 24.6 M63.85 6.9 L55.65 8.1 54.6 8.9 54.6 9.65 65.75 7.8 63.85 6.9 M66.9 7.4 L70.0 6.85 67.85 5.25 65.3 4.65 65.4 6.1 66.9 7.4 M63.2 4.55 L62.6 4.55 61.15 4.75 Q60.15 4.85 59.55 5.1 58.7 5.4 57.0 6.55 L63.55 5.3 63.2 4.55 M47.75 1.6 Q45.25 3.8 43.5 7.9 41.95 11.3 41.55 14.1 41.15 17.0 42.25 20.6 43.3 24.15 44.95 26.25 46.75 28.45 50.0 30.35 L48.2 27.7 46.45 25.5 Q45.65 24.35 45.1 23.05 44.55 21.85 44.3 20.05 43.85 16.55 44.35 13.9 44.85 11.2 46.55 8.1 48.4 4.4 51.0 2.45 53.6 0.55 57.45 -0.7 L61.3 -1.7 64.85 -2.2 68.45 -2.25 72.55 -2.05 67.35 -5.5 63.7 -5.55 60.5 -5.15 57.35 -4.2 Q55.75 -3.6 54.1 -2.65 50.2 -0.65 47.75 1.6 M44.25 3.25 L46.55 0.65 48.35 -1.05 50.35 -2.5 53.05 -4.0 Q55.95 -5.4 59.3 -6.4 62.55 -7.4 66.75 -7.05 L68.95 -6.9 70.65 -6.4 72.7 -4.9 76.05 -2.1 Q79.0 0.3 80.2 3.1 81.45 5.85 82.05 9.8 L68.35 13.15 52.65 16.05 53.45 21.5 54.95 23.85 57.25 25.9 61.75 25.5 Q63.75 25.05 65.9 23.5 68.15 21.9 69.3 20.3 70.55 18.65 71.25 16.05 L78.2 15.35 81.7 20.1 80.5 22.7 79.55 25.1 78.45 27.35 Q77.85 28.4 76.65 29.5 74.0 32.1 71.3 33.1 68.7 34.25 64.95 34.8 60.25 35.45 56.45 34.7 52.7 33.9 48.65 31.2 44.8 28.55 42.5 25.65 40.25 22.75 39.55 18.1 38.9 13.5 40.15 10.1 41.3 6.6 44.25 3.25" fill="#5b5546" fill-rule="evenodd" stroke="none"/>
    <path d="M22.1 -51.2 L22.1 -53.55 21.7 -55.55 20.65 -57.0 Q18.2 -59.15 15.0 -57.1 L16.95 -55.55 Q17.7 -54.8 18.15 -53.35 18.7 -51.5 18.7 -50.05 L18.9 -46.75 18.5 -37.7 22.15 -35.5 21.9 -39.2 21.9 -42.3 21.9 -45.3 22.05 -48.75 22.1 -51.2 M35.45 -51.7 Q35.3 -53.65 34.1 -54.65 L33.45 -55.25 33.15 -55.4 32.75 -55.25 31.75 -55.15 Q32.7 -54.45 32.9 -53.65 L33.4 -51.65 Q33.9 -50.0 33.8 -48.75 L33.4 -45.85 32.9 -36.7 35.6 -35.1 35.4 -38.45 35.35 -41.45 35.4 -44.4 35.5 -47.65 35.45 -51.7 M32.6 -67.55 Q31.3 -67.3 30.5 -66.65 L28.55 -65.25 29.0 -62.6 31.15 -63.85 33.55 -64.4 35.15 -64.5 36.6 -64.35 38.05 -64.1 39.65 -63.85 Q38.65 -65.9 36.75 -66.9 34.9 -67.85 32.6 -67.55 M13.25 -68.3 L13.25 -64.4 Q14.5 -65.55 15.65 -66.05 L18.5 -66.8 22.1 -66.9 Q23.7 -66.6 25.55 -65.55 24.8 -68.0 22.9 -69.4 21.05 -70.75 18.5 -70.7 L15.6 -70.2 Q14.35 -69.6 13.25 -68.3 M3.05 -60.25 L1.8 -41.15 4.95 -37.85 6.25 -67.0 2.7 -70.65 3.05 -60.25 M4.8 -72.2 L3.15 -72.0 7.4 -67.95 10.75 -68.55 9.95 -70.0 9.1 -71.35 8.25 -72.65 7.65 -72.6 6.45 -72.45 4.8 -72.2 M2.05 -63.25 L1.65 -73.1 8.85 -74.15 12.15 -69.05 Q13.5 -71.05 15.65 -71.65 L20.15 -71.95 Q23.05 -71.6 24.55 -70.0 26.1 -68.4 27.5 -65.9 L30.45 -68.45 Q31.8 -69.2 34.25 -68.85 37.85 -68.3 40.2 -65.95 42.55 -63.55 43.05 -60.25 44.0 -52.65 43.7 -45.8 43.4 -39.0 42.1 -32.3 L36.7 -32.65 31.35 -36.6 32.0 -46.0 32.2 -50.3 Q32.15 -52.2 30.85 -54.25 30.1 -55.55 29.7 -54.55 29.4 -53.55 29.15 -50.75 L28.65 -43.75 Q28.35 -39.45 27.5 -34.2 L22.6 -33.85 17.25 -36.75 17.75 -47.4 17.55 -49.55 17.4 -51.2 17.1 -52.75 16.4 -54.45 Q15.65 -56.1 14.9 -55.95 14.25 -55.7 13.7 -54.3 13.1 -52.9 12.65 -50.65 L11.8 -45.7 11.15 -40.5 10.55 -36.1 5.25 -35.2 0.3 -40.75 1.0 -53.35 2.05 -63.25" fill="#5b5546" fill-rule="evenodd" stroke="none"/>
    <path d="M15.7 -2.5 L18.75 -4.75 Q18.1 -3.2 14.0 0.5 13.5 0.3 13.5 -0.35 13.5 -0.75 15.7 -2.5 M123.5 12.15 L123.55 12.2 Q122.25 12.3 121.05 11.2 120.0 10.3 119.55 9.25 119.2 8.45 119.7 8.1 L121.55 10.05 123.5 12.15 M123.85 8.2 L123.75 8.4 123.0 7.85 122.4 7.05 121.95 5.95 122.15 5.85 Q123.35 7.1 123.85 8.2 M118.15 10.75 Q119.35 11.9 119.95 13.25 L120.1 14.0 119.85 14.1 119.3 13.65 118.65 13.05 117.75 10.95 118.15 10.75 M18.75 62.0 Q19.6 62.8 19.6 66.15 L19.5 66.75 19.35 67.0 19.1 67.1 18.3 65.45 18.25 64.4 Q18.25 62.25 18.75 62.0 M16.4 64.55 Q16.4 66.15 16.0 67.5 15.5 66.3 15.5 64.6 L15.5 63.6 Q15.6 62.9 16.1 62.75 16.4 63.25 16.4 64.55 M74.1 74.15 Q74.6 72.6 74.9 72.35 L75.1 72.45 75.2 72.75 74.7 73.6 74.1 74.15 M79.85 71.55 L80.05 71.55 80.1 71.85 77.95 73.7 Q75.8 75.35 75.45 75.35 75.2 75.35 75.0 75.15 75.4 74.5 77.05 73.35 L79.85 71.55 M77.25 75.6 L77.15 75.55 77.1 75.3 78.75 74.4 Q80.5 73.5 81.0 73.35 78.45 75.65 77.65 75.65 L77.25 75.6 M-106.15 -19.75 Q-105.65 -14.9 -105.0 -13.4 L-105.0 -11.75 -105.5 -11.5 -106.25 -14.55 -106.55 -17.9 -106.3 -19.75 -106.15 -19.75 M-108.55 -19.4 L-107.7 -16.45 Q-107.0 -14.5 -107.0 -13.9 -107.0 -13.5 -107.15 -13.3 L-107.3 -13.0 Q-107.65 -13.25 -108.4 -15.05 L-109.15 -17.35 -108.9 -19.4 -108.55 -19.4 M-25.5 -51.55 L-25.1 -51.5 -25.0 -51.05 -26.0 -49.3 -27.5 -47.0 Q-28.0 -47.45 -28.0 -48.05 L-26.85 -49.85 -25.5 -51.55 M-22.65 -51.85 Q-22.65 -50.65 -23.45 -49.45 -24.3 -48.2 -25.4 -47.8 L-24.2 -50.3 -22.85 -52.3 -22.65 -52.25 -22.65 -51.85 M-10.1 -52.55 L-8.4 -50.1 -8.5 -50.0 -9.7 -50.9 Q-10.45 -51.7 -10.6 -52.3 L-10.1 -52.55 M-71.85 -58.2 L-69.65 -58.65 -69.5 -58.3 Q-70.85 -57.15 -73.05 -57.0 L-73.2 -56.9 Q-73.4 -56.9 -73.4 -57.3 -73.4 -57.7 -71.85 -58.2 M-74.05 -61.4 L-70.4 -61.6 Q-70.3 -61.7 -70.3 -61.05 L-70.4 -60.5 -72.45 -60.25 -74.55 -60.1 -75.1 -60.25 -75.9 -60.5 Q-75.6 -60.5 -74.05 -61.4 M-11.0 -44.5 Q-12.5 -47.65 -13.4 -50.35 -12.1 -49.65 -10.85 -44.6 L-11.0 -44.5 M-16.85 -46.8 L-16.1 -47.1 Q-15.85 -46.55 -15.85 -45.45 L-15.9 -44.2 Q-16.1 -43.35 -16.85 -43.25 -16.45 -45.0 -16.85 -46.8 M-21.25 -49.0 L-20.9 -48.95 -20.8 -48.5 -21.45 -47.3 -22.35 -46.0 -22.45 -46.25 -22.6 -46.85 -22.2 -47.9 Q-21.75 -48.85 -21.25 -49.0 M-15.5 18.0 L-15.4 18.4 Q-15.4 18.95 -16.2 19.2 L-19.4 19.75 -19.5 19.4 Q-19.5 18.8 -18.0 18.25 -16.5 17.65 -15.65 18.0 L-15.5 18.0 M-16.5 23.0 L-17.25 22.5 -15.85 21.4 Q-15.35 21.0 -14.0 21.75 L-15.35 22.45 -16.5 23.0 M-44.05 4.25 L-45.15 6.65 Q-46.25 8.95 -46.25 9.85 L-47.25 10.0 -47.4 9.9 -47.55 9.4 Q-47.55 8.55 -46.6 6.45 -45.5 4.0 -44.3 3.5 -44.05 3.75 -44.05 4.25 M-42.1 6.8 Q-42.0 6.85 -42.0 7.25 L-43.35 9.3 -45.0 11.5 Q-45.45 11.3 -45.5 10.5 -45.5 10.1 -44.35 8.6 L-42.5 6.75 -42.1 6.8 M-94.8 21.0 L-95.25 21.75 Q-96.35 21.2 -96.8 20.25 -95.35 20.25 -94.8 21.0 M-117.25 22.05 Q-117.25 22.45 -117.6 22.75 -118.15 23.15 -119.05 22.75 L-118.15 21.7 -117.55 21.25 Q-117.25 21.55 -117.25 22.05" fill="#5b5546" fill-rule="evenodd" stroke="none"/>
  </g>
</svg>
