<?xml version="1.0" encoding="UTF-8" standalone="no"?>
<svg xmlns:xlink="http://www.w3.org/1999/xlink" height="281.35px" width="128.65px" xmlns="http://www.w3.org/2000/svg">
  <g transform="matrix(1.0, 0.0, 0.0, 1.0, 67.0, 140.0)">
    <path d="M29.5 -138.75 L29.9 -138.1 Q30.25 -137.55 30.25 -136.1 30.25 -132.25 27.5 -128.6 24.75 -125.0 24.75 -121.5 24.75 -120.0 21.65 -114.7 18.75 -109.7 17.25 -108.25 L17.0 -108.0 Q20.55 -108.65 22.0 -106.45 22.75 -105.3 22.75 -103.85 22.75 -102.15 18.3 -98.6 L11.75 -93.75 Q14.3 -92.7 24.2 -89.75 27.25 -88.85 27.25 -86.0 27.25 -84.55 25.25 -83.45 21.55 -81.75 18.25 -79.75 L17.25 -79.25 Q23.45 -80.2 26.05 -78.0 27.5 -76.7 27.5 -74.85 27.5 -72.7 25.4 -71.5 21.75 -69.55 20.25 -68.0 L19.75 -67.5 Q22.65 -68.2 24.3 -65.95 25.5 -64.35 25.5 -62.85 25.5 -60.75 22.8 -57.2 19.5 -52.8 15.5 -52.75 L16.1 -50.85 Q16.5 -49.7 16.5 -48.25 L14.65 -45.7 Q12.75 -43.4 12.75 -42.25 12.75 -40.85 15.65 -37.9 18.5 -34.9 18.5 -31.75 18.5 -29.25 17.95 -28.55 17.25 -27.7 14.5 -27.2 3.2 -25.9 -11.5 -23.0 L-10.95 -22.35 Q-10.75 -21.95 -10.75 -20.35 -10.75 -18.65 -12.2 -17.35 -14.55 -15.15 -20.0 -15.25 -18.25 -14.3 -17.4 -13.0 -16.75 -12.0 -16.75 -11.1 -16.75 -9.7 -17.9 -8.1 -18.85 -6.85 -20.1 -6.25 L-19.55 -6.45 Q-17.45 -7.25 -16.0 -7.25 -12.85 -7.25 -11.5 -5.25 -10.75 -4.15 -10.75 -3.0 -10.75 -2.25 -14.0 0.75 -17.25 3.75 -17.25 4.5 -17.25 6.45 -14.85 8.6 -12.5 10.75 -12.5 13.1 -12.5 15.95 -16.3 17.5 -23.25 20.3 -25.75 22.0 L-26.0 22.25 Q-22.2 25.45 -15.85 27.45 -13.75 28.1 -13.0 28.85 -12.0 29.85 -12.0 32.0 -12.0 33.5 -13.7 35.8 -15.9 38.7 -19.0 39.0 L-13.9 48.3 Q-9.75 56.35 -9.75 60.0 -9.75 61.45 -11.75 63.0 L-17.5 67.0 Q-16.8 68.45 -13.55 72.7 -11.5 75.4 -11.5 78.25 -11.5 79.4 -13.85 82.4 -16.25 85.45 -16.25 86.1 -16.25 88.5 -12.85 91.2 -9.5 93.85 -9.5 96.75 -9.5 97.7 -10.7 99.55 -11.8 101.2 -13.0 102.35 -11.7 103.65 -11.2 104.6 -10.5 105.9 -10.5 107.6 -10.5 108.25 -13.05 114.6 -15.75 121.4 -17.0 122.6 L-11.6 129.25 Q-7.75 134.1 -7.75 135.75 -7.75 137.9 -9.95 139.6 -12.2 141.35 -15.0 141.35 -18.0 141.35 -20.6 137.85 -23.2 134.35 -26.85 134.35 -47.6 138.35 -49.0 138.35 -56.2 138.35 -59.05 133.2 -59.95 131.55 -60.3 129.55 L-60.5 127.75 Q-60.5 124.95 -59.5 123.6 -57.45 120.75 -51.0 120.1 L-52.6 117.5 Q-53.5 115.75 -53.5 114.1 L-52.3 112.45 Q-50.9 110.75 -50.0 108.1 -58.9 106.4 -61.3 104.4 -62.5 103.4 -62.5 100.85 -62.5 98.2 -62.2 97.5 -61.35 95.55 -57.75 94.1 -58.9 92.25 -61.45 86.85 -64.25 81.0 -64.25 80.0 -64.25 77.55 -62.6 75.9 -60.45 73.65 -59.5 70.75 L-59.25 70.25 Q-63.65 70.6 -65.65 68.5 -67.0 67.1 -67.0 65.0 -67.0 63.15 -65.7 61.75 L-60.0 57.0 Q-61.4 56.65 -64.15 51.2 -66.75 46.1 -66.75 44.85 -66.75 40.6 -62.0 38.75 -65.0 36.8 -65.95 35.35 -66.5 34.5 -66.5 33.1 -66.5 31.55 -63.35 25.15 -60.25 18.75 -60.25 17.1 L-59.25 8.1 Q-59.25 4.15 -54.5 1.75 -56.45 1.0 -59.0 -4.2 -61.25 -8.8 -61.25 -10.1 -61.25 -11.4 -59.7 -15.55 -58.15 -19.65 -57.5 -20.25 L-57.0 -20.75 Q-61.4 -20.3 -63.1 -22.55 -64.0 -23.75 -64.0 -25.25 -64.0 -25.65 -58.6 -32.3 -53.15 -39.0 -51.75 -40.25 -55.05 -40.1 -56.45 -42.35 -57.25 -43.6 -57.25 -45.0 -57.25 -48.4 -41.0 -63.7 -24.75 -78.95 -24.75 -82.85 -24.75 -84.35 -7.75 -101.75 9.95 -121.55 12.75 -134.25 15.7 -134.75 16.65 -134.2 L17.25 -133.5 Q18.45 -133.5 22.3 -136.35 25.95 -139.1 29.5 -138.75 M-21.1 -5.9 L-22.0 -5.75 -22.5 -5.5 Q-22.15 -5.55 -21.1 -5.9" fill="#5b5546" fill-opacity="0.3019608" fill-rule="evenodd" stroke="none"/>
    <path d="M30.0 -130.4 Q29.25 -129.25 29.25 -128.0 L13.05 -108.65 Q-4.85 -87.3 -11.0 -79.25 -19.05 -66.35 -27.5 -55.05 -44.2 -32.75 -52.0 -32.75 -55.2 -32.75 -56.05 -35.3 -56.45 -36.6 -56.25 -38.1 -34.5 -71.6 -12.75 -100.05 30.75 -156.95 30.75 -132.85 30.75 -131.6 30.0 -130.4" fill="#5b5546" fill-opacity="0.3019608" fill-rule="evenodd" stroke="none"/>
    <path d="M25.25 -125.15 L25.5 -123.0 Q25.5 -122.3 -8.25 -77.85 -42.3 -33.0 -44.0 -33.0 -47.35 -33.0 -48.0 -35.05 -48.35 -36.05 -48.0 -37.25 -48.0 -42.0 -32.1 -61.2 -23.95 -71.0 -13.0 -83.0 -10.9 -85.3 5.5 -106.35 16.6 -120.6 25.0 -126.0 L25.25 -125.15" fill="#5b5546" fill-opacity="0.3019608" fill-rule="evenodd" stroke="none"/>
    <path d="M16.45 -26.1 Q17.75 -25.35 18.0 -25.0 16.9 -24.6 17.3 -24.0 17.7 -23.5 17.05 -23.3 14.9 -22.75 -7.5 -22.75 -25.05 -22.75 -30.25 -26.2 -32.85 -28.0 -32.0 -30.0 L-31.8 -32.2 -31.0 -33.5 Q-25.25 -34.05 -26.25 -33.15 L-27.8 -32.0 Q-28.85 -31.2 -28.9 -30.6 -29.45 -26.45 15.25 -27.0 L16.45 -26.1" fill="#5b5546" fill-opacity="0.3019608" fill-rule="evenodd" stroke="none"/>
    <path d="M15.5 -36.0 Q15.05 -34.65 14.5 -34.2 13.7 -33.5 12.0 -33.5 11.4 -33.5 9.8 -34.3 7.8 -35.25 5.2 -35.85 -4.1 -37.9 -25.75 -36.5 L-26.0 -36.55 Q-26.25 -36.6 -26.25 -38.1 L-25.75 -39.25 11.0 -40.25 Q13.45 -39.0 15.5 -36.0" fill="#5b5546" fill-opacity="0.3019608" fill-rule="evenodd" stroke="none"/>
    <path d="M2.65 -55.1 L3.5 -54.0 3.6 -52.95 Q3.55 -52.5 2.0 -52.5 L-3.95 -53.3 -11.0 -55.0 Q-10.65 -55.5 -5.8 -55.9 L2.0 -56.25 Q2.0 -55.85 2.65 -55.1" fill="#5b5546" fill-opacity="0.3019608" fill-rule="evenodd" stroke="none"/>
    <path d="M-16.35 -16.05 L-16.5 -15.75 Q-16.5 -14.35 -14.35 -8.15 L-12.25 -1.85 Q-12.25 0.75 -13.5 1.25 L-21.5 1.75 Q-28.4 1.75 -30.25 0.45 -30.75 0.1 -30.75 -1.0 -30.75 -2.45 -29.35 -4.9 -26.35 -10.15 -18.0 -18.5 L-16.35 -16.05" fill="#5b5546" fill-opacity="0.3019608" fill-rule="evenodd" stroke="none"/>
    <path d="M-37.45 43.7 Q-32.0 44.6 -19.75 39.75 -19.05 38.15 -18.4 37.75 -17.35 37.15 -14.75 37.75 L-14.5 37.55 Q-14.25 37.7 -14.25 39.25 -14.25 39.9 -14.85 41.15 -15.5 42.4 -15.5 43.25 -15.5 44.85 -18.3 45.2 L-23.0 45.25 -39.25 45.0 -39.6 44.75 Q-40.0 44.5 -40.0 43.0 -40.0 42.65 -39.7 42.9 -38.85 43.5 -37.45 43.7" fill="#5b5546" fill-opacity="0.3019608" fill-rule="evenodd" stroke="none"/>
    <path d="M-27.85 81.7 Q-28.25 81.25 -28.25 79.75 L-28.0 78.1 Q-19.8 78.9 -19.15 76.05 L-18.7 74.4 -15.5 74.6 Q-15.25 74.35 -15.0 74.4 -14.5 74.55 -14.5 76.1 -14.5 77.55 -16.65 79.8 -18.7 82.0 -20.0 82.1 L-27.5 82.1 -27.85 81.7" fill="#5b5546" fill-opacity="0.3019608" fill-rule="evenodd" stroke="none"/>
    <path d="M-15.75 97.6 L-15.25 99.1 Q-18.4 103.85 -26.0 104.4 L-36.0 104.1 -40.25 103.85 Q-40.25 103.35 -41.0 102.6 -38.15 99.15 -27.2 98.0 L-15.75 97.6" fill="#5b5546" fill-opacity="0.3019608" fill-rule="evenodd" stroke="none"/>
    <path d="M-12.5 101.35 L-12.1 101.05 Q-11.75 101.05 -11.75 102.6 -11.75 104.8 -13.1 110.9 -14.5 117.0 -14.5 118.75 -14.5 120.0 -13.35 123.8 -12.25 127.6 -12.25 128.85 -12.25 129.85 -12.7 130.5 -13.2 131.3 -15.0 132.6 -17.25 131.35 -20.75 119.0 -20.75 113.05 -18.85 108.0 -16.55 101.85 -12.5 101.35" fill="#5b5546" fill-opacity="0.3019608" fill-rule="evenodd" stroke="none"/>
    <path d="M-14.5 -1.45 Q-14.25 -1.3 -14.25 0.25 -14.25 1.45 -17.05 4.3 -19.7 7.0 -20.5 7.0 L-24.5 6.3 Q-26.6 5.6 -27.0 5.0 -22.65 3.0 -20.25 -1.1 -19.55 -2.3 -18.7 -2.4 -17.6 -2.5 -14.75 -1.25 L-14.5 -1.45" fill="#5b5546" fill-opacity="0.3019608" fill-rule="evenodd" stroke="none"/>
    <path d="M-40.1 12.15 L-39.5 13.25 Q-41.4 14.5 -44.3 15.3 L-49.0 16.75 -56.25 16.75 -56.5 16.7 Q-56.75 16.6 -56.75 15.1 L-56.5 13.5 -48.2 12.1 -40.5 11.25 -40.1 12.15" fill="#5b5546" fill-opacity="0.3019608" fill-rule="evenodd" stroke="none"/>
    <path d="M-56.3 65.15 Q-59.75 64.75 -60.25 64.25 -60.5 65.25 -60.5 62.75 -60.5 61.4 -56.6 61.05 L-38.5 60.25 -38.25 56.5 Q-36.1 55.8 -34.35 57.75 -32.75 59.6 -32.75 62.0 -32.75 64.45 -36.0 65.0 L-51.0 65.5 -56.3 65.15" fill="#5b5546" fill-opacity="0.3019608" fill-rule="evenodd" stroke="none"/>
    <path d="M-10.15 -21.4 Q-11.0 -20.35 -11.0 -19.65 L-9.75 98.15 -9.75 115.5 Q-10.2 132.55 -12.5 132.55 -14.85 132.55 -15.3 115.5 L-15.25 98.15 Q-16.75 57.9 -17.05 31.15 -17.6 -19.45 -11.5 -24.6 -9.75 -22.55 -10.15 -21.4" fill="#857a50" fill-opacity="0.3019608" fill-rule="evenodd" stroke="none"/>
    <path d="M-10.1 96.0 Q-10.7 97.55 -12.5 97.55 -14.7 97.55 -15.1 95.5 L-15.1 93.75 Q-16.6 65.05 -17.0 39.15 -17.85 -11.55 -12.5 -24.5 -9.8 -30.95 -9.6 19.4 -9.45 46.45 -9.85 93.75 -9.85 95.3 -10.1 96.0" fill="#857a50" fill-opacity="0.3019608" fill-rule="evenodd" stroke="none"/>
    <path d="M27.0 -19.45 L20.0 -18.85 4.2 -19.05 -11.0 -19.6 -11.35 -20.0 -11.5 -21.1 Q-11.5 -23.35 8.05 -23.35 27.55 -23.4 27.55 -21.0 27.55 -19.75 27.0 -19.45" fill="#857a50" fill-opacity="0.3019608" fill-rule="evenodd" stroke="none"/>
    <path d="M26.4 -19.35 Q26.35 -18.7 25.25 -18.35 L9.25 -17.35 Q-10.15 -17.35 -16.0 -19.2 -17.9 -19.8 -18.25 -20.6 -18.45 -21.05 -18.25 -21.55 -18.25 -22.3 -11.3 -23.0 L4.0 -23.8 Q26.25 -24.15 26.25 -20.4 L26.4 -19.35" fill="#857a50" fill-opacity="0.3019608" fill-rule="evenodd" stroke="none"/>
    <path d="M36.75 -23.15 Q46.75 -22.45 46.75 -21.4 46.75 -20.9 45.8 -19.75 44.7 -18.35 43.5 -18.35 L42.35 -18.5 42.65 -18.85 32.0 -19.35 -8.0 -18.75 -10.7 -18.25 -13.5 -17.75 Q-16.45 -17.75 -17.1 -18.55 L-17.25 -19.5 Q-17.25 -23.5 14.75 -23.7 27.15 -23.8 36.75 -23.15" fill="#857a50" fill-opacity="0.3019608" fill-rule="evenodd" stroke="none"/>
    <path d="M-8.2 -23.9 L-8.1 -23.0 Q-8.1 -22.4 -9.4 -21.3 -10.75 -20.15 -10.75 -19.8 -9.0 33.25 -9.0 45.0 L-9.0 50.5 Q-9.4 55.0 -11.5 55.0 -13.35 55.0 -13.85 35.7 L-14.0 16.25 -13.6 -4.5 Q-13.45 -7.65 -14.5 -14.95 -14.35 -21.3 -8.35 -24.1 L-8.2 -23.9" fill="#857a50" fill-opacity="0.3019608" fill-rule="evenodd" stroke="none"/>
    <path d="M31.5 -25.5 Q32.25 -15.0 32.25 7.1 32.25 34.3 32.05 37.6 L28.25 80.25 28.25 93.75 29.55 93.7 32.0 93.25 Q33.25 94.5 35.0 100.1 35.0 107.5 23.65 114.6 12.95 121.25 7.0 119.85 6.6 122.8 2.7 128.15 -1.45 133.85 -4.0 133.85 -9.95 133.85 -11.05 127.55 -11.4 125.6 -11.25 123.15 L-11.0 121.0 Q-11.0 119.75 -10.0 114.25 -9.0 108.75 -9.0 107.5 L-10.0 98.2 -11.0 88.85 Q-11.0 85.0 -9.85 69.5 L-8.75 54.35 Q-11.0 5.1 -11.0 -1.85 -11.0 -5.35 -9.55 -12.0 -7.6 -20.75 -5.0 -20.75 -2.05 -20.75 -0.9 -18.3 -0.45 -17.25 -0.25 -15.0 L0.25 -15.0 Q0.55 -19.05 1.1 -19.85 2.7 -22.0 9.0 -22.0 15.05 -22.0 17.75 -18.6 19.45 -26.8 31.5 -25.5 M18.5 -0.25 L18.5 0.0 18.55 -0.45 18.5 -0.25 M3.75 13.75 L3.75 14.0 3.9 11.7 Q3.85 10.3 3.5 9.75 L3.5 10.0 Q3.5 12.25 3.75 13.75" fill="#cc6666" fill-opacity="0.3019608" fill-rule="evenodd" stroke="none"/>
    <path d="M8.05 -33.05 Q8.85 -34.25 12.0 -34.25 16.7 -34.25 18.45 -24.45 19.55 -13.35 20.25 -10.75 21.5 -11.65 24.15 -13.0 L27.0 -14.25 Q33.1 -14.25 34.3 -3.1 34.9 2.55 34.25 8.35 34.25 14.75 31.4 41.75 28.5 68.75 28.5 89.35 28.5 96.45 28.3 98.0 27.25 105.35 23.0 105.35 18.15 105.35 17.45 100.45 L17.75 95.25 Q17.75 94.5 17.25 94.0 16.75 94.4 14.55 99.4 12.85 103.25 9.0 103.25 5.2 103.25 3.9 99.35 2.95 96.3 3.3 89.8 L4.15 78.1 Q4.5 71.2 3.5 67.5 L3.25 67.0 2.75 88.35 Q2.75 95.75 -3.0 95.75 -6.75 95.75 -9.5 87.95 L-11.5 79.85 Q-11.5 32.0 -9.3 3.35 -4.9 -53.25 7.0 -31.0 7.65 -31.55 8.05 -33.05" fill="#cc6666" fill-opacity="0.3019608" fill-rule="evenodd" stroke="none"/>
    <path d="M-7.15 -21.8 Q-5.7 -20.0 -3.6 -8.9 1.5 18.6 1.5 43.25 1.5 69.5 2.0 121.5 L2.05 130.1 Q1.25 136.85 -3.0 136.85 -5.7 136.85 -7.5 62.25 -8.4 24.9 -8.75 -12.75 -8.75 -23.8 -7.15 -21.8" fill="#cc6666" fill-opacity="0.3019608" fill-rule="evenodd" stroke="none"/>
    <path d="M1.6 -19.95 Q4.75 -22.9 9.75 -15.75 21.1 -5.15 21.75 22.85 21.95 31.55 21.15 46.8 20.25 63.5 20.25 69.1 20.25 71.3 19.05 73.25 17.5 75.75 15.0 75.75 13.45 75.75 12.05 74.75 L10.75 73.75 Q11.25 80.5 11.55 92.65 L11.75 105.5 Q11.75 109.5 11.0 111.15 9.85 113.6 6.5 113.6 -1.25 113.6 -3.25 103.5 -3.9 100.3 -3.9 96.45 L-3.75 93.0 Q-3.75 87.05 -1.25 71.7 L1.25 55.5 Q1.25 51.95 -0.5 38.15 -2.25 24.35 -2.25 22.5 -0.75 -11.35 -0.75 -13.85 -0.75 -17.8 1.6 -19.95" fill="#cc6666" fill-opacity="0.3019608" fill-rule="evenodd" stroke="none"/>
    <path d="M-5.75 -3.5 Q-4.4 -4.0 -2.45 -1.95 -0.8 -0.2 -0.8 0.25 -0.8 0.7 -2.05 1.65 L-1.2 3.05 -0.3 4.6 Q5.5 2.85 6.75 2.85 8.15 2.85 8.65 3.75 L8.9 4.75 Q8.9 5.65 7.2 6.55 5.2 7.6 1.85 8.0 -2.7 8.6 -3.25 10.0 -3.7 11.05 -6.0 11.0 L-5.9 11.65 Q-5.9 12.1 -6.2 12.5 -6.7 13.1 -7.75 13.1 -9.05 13.1 -10.3 3.3 L-10.2 2.1 Q-9.8 1.4 -8.05 1.6 L-7.45 -1.1 Q-7.05 -3.0 -5.75 -3.5" fill="#5b5546" fill-opacity="0.3019608" fill-rule="evenodd" stroke="none"/>
    <path d="M7.1 4.0 Q8.8 4.0 9.4 4.75 L9.65 5.45 Q9.65 6.75 6.4 7.0 L6.85 8.25 Q6.85 9.1 6.35 9.25 L0.1 9.65 Q-1.3 9.65 -1.45 8.75 L-1.25 7.5 -1.9 7.5 -1.75 10.75 Q-1.75 11.4 -4.5 13.25 -5.65 13.25 -5.8 12.55 L-5.75 11.25 -8.15 10.5 Q-8.65 10.2 -8.65 9.45 -8.65 8.55 -6.95 7.8 -5.35 7.05 -5.55 5.25 L-5.55 3.2 -5.25 1.15 Q-3.15 -5.8 -1.9 4.5 L4.0 4.5 7.1 4.0" fill="#5b5546" fill-opacity="0.3019608" fill-rule="evenodd" stroke="none"/>
    <path d="M-5.95 98.45 Q-5.55 98.15 -5.25 98.15 -4.2 98.15 -3.9 104.25 L-3.8 110.45 Q-3.8 111.0 -5.2 111.85 -6.75 112.75 -8.0 112.75 -9.45 112.75 -9.75 109.25 L-9.8 105.7 Q-9.8 104.45 -9.2 101.9 -8.65 99.3 -8.65 97.75 -8.15 97.75 -7.4 98.25 L-6.5 98.9 -5.95 98.45" fill="#5b5546" fill-opacity="0.3019608" fill-rule="evenodd" stroke="none"/>
    <path d="M6.1 103.75 Q7.95 103.75 8.55 104.3 L8.75 104.95 Q8.75 105.5 7.65 106.85 6.4 108.35 5.6 108.35 3.05 108.35 2.6 107.85 2.15 107.35 1.5 107.35 L-2.55 108.0 Q-2.65 108.9 -1.8 111.35 -2.05 113.35 -8.0 113.35 -9.05 113.35 -9.4 112.7 L-9.55 112.0 Q-9.55 111.1 -7.4 110.2 -5.25 109.3 -5.25 107.9 L-5.25 103.6 Q-6.1 101.7 -5.6 100.8 -5.2 100.05 -3.95 100.3 -0.8 101.0 -0.5 104.25 0.55 103.7 3.35 103.65 L6.1 103.75" fill="#5b5546" fill-opacity="0.3019608" fill-rule="evenodd" stroke="none"/>
    <path d="M7.85 104.6 L7.65 105.05 6.65 105.75 7.75 107.15 Q7.75 108.1 3.15 109.55 -1.9 111.2 -4.9 110.15 -4.65 110.75 -4.65 111.45 -4.65 112.3 -4.8 112.6 -5.3 113.5 -7.0 113.5 L-11.0 105.65 Q-11.0 103.9 -9.75 103.9 -9.05 103.9 -8.65 104.4 L-8.25 105.0 Q-9.8 99.2 -6.35 100.05 -5.05 100.35 -3.95 101.6 -2.75 102.95 -2.75 104.35 L-0.3 103.55 Q1.8 102.9 2.75 102.9 3.55 102.9 4.05 103.55 L4.5 104.15 6.1 104.1 7.85 104.6 M6.25 105.5 L2.35 105.85 6.25 105.75 6.25 105.5 M-5.25 105.1 Q-5.05 104.9 -5.1 104.55 -5.1 104.25 -5.25 104.15 L-5.25 105.1" fill="#5b5546" fill-opacity="0.3019608" fill-rule="evenodd" stroke="none"/>
    <path d="M12.25 5.25 Q12.25 6.1 7.95 7.1 L-1.75 9.35 -1.8 10.6 Q-2.05 11.5 -3.0 11.5 -4.15 11.5 -4.3 10.6 L-4.25 9.25 -4.95 10.6 Q-5.55 11.5 -6.25 11.5 L-6.75 11.45 -7.15 11.25 -7.65 8.35 -8.05 5.25 Q-8.05 3.95 -7.2 2.3 -6.3 0.45 -5.05 0.0 -2.45 -1.0 -2.45 1.65 -2.4 4.6 -2.0 4.6 L-1.25 4.4 -0.55 4.1 10.6 3.9 Q12.4 3.9 12.25 5.25 M-5.4 3.4 L-5.2 2.65 Q-5.2 2.2 -5.4 2.1 L-5.4 3.4" fill="#5b5546" fill-opacity="0.3019608" fill-rule="evenodd" stroke="none"/>
    <path d="M33.55 -138.5 L33.05 -137.65 Q33.05 -135.45 22.3 -122.35 L9.9 -107.8 Q9.8 -107.4 9.8 -108.05 9.8 -108.75 14.85 -114.85 L22.2 -123.9 Q24.35 -126.7 27.55 -132.0 30.6 -136.5 34.05 -139.15 L33.55 -138.5 M57.8 -34.7 L16.4 -34.55 7.15 -34.55 4.8 -34.3 2.65 -34.55 -26.95 -34.65 -27.0 -34.65 -29.45 -33.65 Q-31.65 -32.9 -32.25 -32.25 L-31.95 -24.2 -30.55 -24.4 -30.7 -24.6 -30.45 -25.8 -28.0 -24.9 -27.6 -24.75 -27.85 -25.85 -27.15 -27.4 -25.85 -28.8 Q-25.6 -28.55 -25.6 -28.05 L-26.4 -26.7 -27.2 -24.9 -27.3 -24.65 -27.1 -24.6 -15.35 -24.75 -6.2 -24.8 8.9 -24.55 10.5 -24.3 33.8 -24.65 41.05 -24.65 41.65 -24.15 41.45 -23.55 37.4 -23.55 11.15 -23.9 9.85 -23.55 0.4 -23.3 -15.3 -23.45 -15.25 -22.9 -14.2 -22.55 -15.25 -22.1 -15.25 -22.0 -15.2 -22.05 Q-14.7 -21.4 -14.7 -20.3 -14.7 -19.5 -15.15 -18.7 L-14.95 -5.75 -14.95 -5.35 -14.9 -3.85 -14.8 -3.3 -14.9 -2.85 -14.8 21.7 -14.8 24.35 -14.35 24.2 Q-13.95 24.6 -13.95 25.1 -13.95 25.45 -14.85 25.95 L-15.0 32.8 -15.25 41.2 -15.2 41.1 Q-14.7 41.45 -14.6 42.25 L-14.6 43.7 -14.7 45.55 Q-14.95 46.65 -15.5 47.05 L-15.35 52.7 Q-15.35 53.85 -16.95 54.8 -18.5 55.7 -19.95 55.7 L-20.45 55.65 -21.1 55.45 Q-16.55 54.6 -16.1 51.4 L-16.15 47.2 -16.2 47.2 -20.1 46.55 Q-15.55 45.85 -15.55 44.1 L-15.8 42.6 -15.65 41.7 -15.75 38.95 Q-15.95 38.25 -16.25 37.8 -17.05 36.7 -20.45 36.7 L-21.85 37.0 -22.95 37.55 -23.2 37.45 Q-19.85 35.1 -17.35 35.85 -16.35 36.15 -15.85 36.75 L-15.95 32.8 -16.1 26.55 -16.85 26.7 -17.2 26.7 -19.7 27.2 -25.4 26.4 -25.95 26.45 -29.2 26.4 -27.5 26.0 -27.55 25.8 -26.15 25.55 -24.35 25.35 -21.1 25.8 -18.45 26.2 -17.95 26.15 -16.75 25.45 -16.15 24.8 -16.2 21.65 -16.15 9.4 Q-16.75 9.25 -17.05 8.7 L-17.6 7.55 Q-16.9 7.45 -16.4 8.1 L-16.15 8.5 -16.15 6.55 Q-16.65 7.05 -17.2 7.05 L-20.8 5.45 -20.7 5.2 -16.95 5.45 -16.2 4.55 -16.1 4.45 -16.05 -0.55 -16.8 -1.1 Q-18.3 -0.2 -19.95 -0.2 L-21.75 -0.45 -22.45 -0.9 -18.2 -2.8 -16.0 -3.65 -16.0 -3.9 Q-16.35 -3.65 -16.7 -3.65 L-15.95 -4.5 -15.65 -18.05 Q-16.65 -16.95 -18.45 -16.95 L-21.95 -17.2 Q-21.95 -16.75 -22.1 -16.8 L-24.1 -16.8 -27.55 -16.85 -29.2 -17.4 -23.3 -17.9 -22.6 -17.85 -22.95 -18.05 -22.45 -18.15 -21.6 -18.05 Q-16.05 -18.05 -15.6 -19.7 L-15.65 -21.05 -15.5 -21.8 -15.5 -22.0 -15.55 -21.95 -15.6 -21.8 Q-15.55 -21.55 -16.2 -21.55 -16.9 -21.55 -17.15 -22.15 -17.45 -23.0 -18.45 -23.45 L-24.1 -23.55 -26.2 -23.3 -28.4 -23.6 -29.95 -23.65 -31.95 -23.85 -31.95 -23.65 -32.45 -23.3 -32.85 -23.5 -32.95 -24.0 -32.7 -31.55 -32.85 -31.55 Q-33.15 -31.95 -34.6 -32.85 L-36.45 -34.3 Q-35.1 -34.45 -33.75 -33.85 L-32.9 -33.35 Q-32.45 -34.05 -30.45 -34.8 -28.6 -35.5 -27.5 -35.25 -27.1 -35.6 -26.55 -35.75 -27.9 -36.05 -28.5 -36.8 L-29.1 -38.8 -28.95 -39.15 Q-28.15 -39.1 -28.0 -38.65 L-27.7 -37.7 Q-26.7 -36.4 -19.95 -36.4 L-17.45 -36.95 -17.35 -36.8 Q-18.3 -36.25 -18.8 -36.1 L-21.6 -35.65 -5.0 -35.65 -3.85 -36.35 -2.45 -36.9 -2.35 -36.85 -3.2 -37.9 -3.4 -38.5 Q-2.15 -37.25 3.65 -36.55 L1.9 -36.3 1.1 -36.2 4.2 -35.65 57.8 -35.45 61.65 -35.05 57.8 -34.7 M19.45 -137.6 Q19.65 -137.25 19.3 -136.6 L3.2 -116.45 Q-12.3 -97.1 -12.5 -96.3 L-12.5 -96.25 -19.4 -87.65 -19.1 -87.75 -19.9 -85.85 -25.05 -79.2 -58.3 -37.7 -58.35 -36.3 -53.15 -35.6 Q-49.9 -34.95 -49.0 -34.25 L-48.95 -34.4 -48.45 -34.3 Q-47.8 -34.3 -44.95 -36.75 L-41.8 -39.4 -22.95 -64.15 -23.95 -63.15 -24.2 -63.3 Q-21.0 -70.25 -10.55 -81.05 -11.1 -81.15 -11.2 -81.3 -4.85 -87.15 1.35 -96.1 L10.8 -110.65 Q7.3 -102.1 2.95 -95.6 0.05 -91.25 -3.45 -87.5 L-3.45 -87.1 -3.55 -86.5 Q-3.15 -85.8 -2.45 -85.8 L5.4 -86.15 6.05 -86.55 8.05 -87.35 Q10.25 -87.75 11.4 -85.8 10.6 -85.35 6.7 -84.8 L0.55 -84.3 Q-3.2 -84.3 -4.3 -85.55 L-4.55 -86.35 Q-7.2 -83.65 -10.2 -81.25 L-10.45 -79.8 Q-10.45 -79.2 -15.6 -72.85 L-16.65 -71.5 -14.6 -71.3 -17.0 -71.05 -17.25 -70.75 -14.3 -71.0 -8.45 -70.7 -8.35 -70.55 -17.85 -69.95 -17.95 -69.95 -21.65 -65.6 -21.85 -65.25 Q-21.55 -64.75 -21.55 -64.3 L-18.45 -64.65 -15.95 -63.95 -15.85 -63.8 Q-16.35 -63.3 -19.1 -63.3 L-22.3 -63.6 Q-22.65 -61.45 -27.65 -54.9 L-26.55 -54.7 -21.2 -53.3 -23.25 -52.95 Q-23.5 -52.65 -25.2 -52.65 -27.1 -52.65 -28.25 -53.55 L-28.5 -53.8 -32.15 -49.35 -41.55 -38.6 -43.4 -36.4 Q-46.15 -33.3 -47.35 -33.3 L-48.85 -33.3 -49.7 -33.05 Q-50.45 -33.05 -53.5 -34.1 L-58.45 -35.9 Q-58.75 -34.75 -59.25 -34.55 L-58.3 -33.65 Q-58.15 -33.25 -58.85 -32.3 L-59.2 -32.4 -59.0 -30.95 -58.6 -25.8 Q-58.6 -25.45 -58.7 -25.5 L-58.85 -25.55 -58.55 -23.85 -58.6 -23.05 -57.45 -23.4 Q-57.8 -22.9 -59.1 -22.15 -60.35 -21.5 -60.6 -21.55 L-59.0 -22.9 -58.85 -22.95 Q-59.05 -23.8 -59.75 -25.05 -60.7 -26.6 -60.7 -27.3 L-60.6 -28.5 -60.7 -30.75 -60.4 -34.55 -60.4 -34.65 -60.25 -35.35 -60.35 -35.2 -60.8 -35.45 -55.8 -41.9 -49.6 -50.4 -39.85 -62.9 -39.15 -63.45 -30.35 -74.7 -21.4 -85.7 -21.55 -85.65 Q-21.65 -86.45 -21.35 -86.9 L-13.5 -97.0 18.25 -137.1 19.1 -137.75 19.45 -137.6 M-31.95 -57.8 L-31.95 -56.55 -32.2 -56.3 -33.45 -56.55 -33.35 -58.05 -32.1 -58.05 -31.95 -57.8 M-32.45 -56.95 L-32.45 -57.65 -33.1 -57.55 -33.1 -56.9 -32.45 -56.95 M-14.85 -79.85 Q-14.85 -79.3 -15.2 -78.8 -15.75 -78.05 -16.9 -78.05 -17.95 -78.05 -18.2 -78.55 L-18.3 -79.35 -18.2 -80.05 -17.2 -79.9 -17.7 -79.3 -17.55 -78.95 Q-17.35 -78.7 -16.95 -78.7 -15.45 -78.7 -15.6 -79.8 L-15.85 -80.05 -16.3 -80.8 -16.2 -81.05 Q-15.2 -81.15 -14.9 -80.6 L-14.85 -79.85 M14.05 -84.8 Q12.25 -84.8 12.05 -85.15 13.1 -85.9 14.45 -85.65 L16.4 -85.05 14.05 -84.8 M-0.3 -101.45 Q1.2 -101.4 1.2 -100.7 1.2 -100.15 0.05 -98.8 L-1.45 -97.3 -2.15 -97.25 -2.3 -97.65 -2.2 -98.65 -1.95 -99.05 -1.7 -97.95 Q-0.5 -98.15 -0.1 -98.95 L0.4 -100.3 0.1 -100.5 Q-0.1 -100.65 -0.1 -101.05 L-0.3 -101.45 M-5.45 -70.8 Q-3.4 -71.6 -2.75 -72.3 L-1.95 -72.9 -2.2 -72.35 -2.35 -71.6 Q-2.35 -71.2 -2.75 -70.8 -3.1 -70.45 -3.6 -70.45 L-4.7 -70.55 -5.45 -70.8 M5.4 -53.05 Q4.1 -52.1 3.05 -52.05 L2.8 -52.1 2.8 -52.05 -0.95 -51.95 -4.2 -52.0 Q-3.45 -51.65 -3.45 -51.15 -3.45 -50.75 -3.6 -50.5 L-3.95 -50.05 Q-4.75 -50.85 -7.5 -51.3 L-15.35 -52.2 -6.35 -52.5 -6.0 -52.45 -5.9 -52.65 -6.85 -52.95 -4.5 -52.8 2.4 -52.4 Q3.4 -52.7 5.05 -53.5 6.55 -54.3 6.9 -54.3 L5.4 -53.05 M-3.7 -41.7 L-3.45 -41.7 Q-3.35 -41.25 -3.6 -40.25 L-3.7 -39.5 -3.8 -39.75 -3.7 -41.7 M-2.4 -35.65 L0.45 -35.65 -0.05 -36.15 -0.2 -36.15 -1.75 -36.45 -2.4 -35.65 M-6.45 -26.55 L-6.6 -26.65 -6.6 -28.15 -6.45 -28.15 -6.35 -26.65 -6.45 -26.55 M-2.7 -13.4 Q-2.55 -10.15 -2.7 -7.05 L-2.85 -7.05 -2.85 -13.4 -2.7 -13.4 M-2.7 -17.05 L-2.8 -14.15 Q-2.95 -13.95 -3.2 -13.9 -3.6 -14.4 -3.65 -15.3 L-3.7 -17.0 -3.65 -18.15 -3.45 -18.45 -9.15 -18.55 -8.95 -2.3 -8.95 -1.75 -7.95 -1.7 Q-2.8 -2.15 -2.8 -1.05 -2.8 -0.65 -3.1 -0.55 L-5.7 -0.4 -8.25 -0.5 -8.95 -0.55 -8.95 10.05 -8.95 11.2 -8.2 11.3 -3.35 10.9 -3.2 10.85 -3.35 9.45 -3.3 8.2 -3.55 7.95 -3.3 7.85 -3.2 3.9 Q-3.0 -0.1 -2.6 -0.15 L-2.3 3.35 5.45 3.55 8.8 3.85 3.3 4.45 -2.25 4.45 -2.1 7.15 -1.65 7.1 3.25 7.35 2.65 6.85 3.3 7.0 4.1 7.1 6.35 6.2 Q8.6 5.3 9.65 5.1 10.05 5.65 10.05 6.2 10.05 6.85 9.45 7.35 8.7 8.05 7.15 8.05 L5.9 8.05 4.8 8.2 Q4.25 8.65 3.15 8.65 L0.65 8.55 -2.1 8.5 -2.1 10.35 -2.05 10.7 -2.1 10.95 -2.1 11.45 -2.7 11.8 -2.8 11.7 Q-3.55 12.2 -4.2 12.2 L-8.45 12.0 Q-8.4 11.7 -8.95 11.45 L-8.95 14.7 -9.0 42.7 Q-9.1 61.15 -9.7 75.3 L-9.8 76.15 -10.05 77.1 -9.75 98.25 -8.95 98.3 Q-3.8 97.85 -3.8 98.95 -3.8 99.35 -4.1 99.45 L-6.7 99.6 -9.25 99.5 -9.7 99.45 -9.5 111.25 -9.2 111.3 -4.35 110.9 -4.2 110.85 -4.35 109.45 -4.3 108.2 -4.55 107.95 -4.3 107.85 -4.25 105.75 -4.7 105.2 -4.7 104.15 -4.45 102.95 -4.15 103.3 -4.05 102.0 -4.45 101.55 -4.45 101.2 -4.0 101.4 Q-3.85 99.9 -3.6 99.85 L-3.4 101.95 -3.0 102.5 -2.6 103.35 2.8 103.45 2.7 98.4 2.8 91.8 3.05 91.8 3.3 98.45 3.25 103.5 4.45 103.55 7.8 103.85 3.2 104.4 3.15 105.7 2.9 105.7 2.85 104.45 2.3 104.45 -2.45 104.45 Q-2.5 105.9 -3.15 105.95 L-3.1 107.15 -2.65 107.1 2.25 107.35 1.65 106.85 2.3 107.0 3.1 107.1 3.15 106.1 3.3 106.1 3.35 107.05 5.35 106.2 Q7.6 105.3 8.65 105.1 9.05 105.65 9.05 106.2 9.05 106.85 8.45 107.35 7.7 108.05 6.15 108.05 L4.9 108.05 3.8 108.2 3.45 108.45 3.7 124.2 3.65 128.3 3.4 134.45 3.05 134.45 2.85 128.3 2.8 124.2 3.05 108.55 2.15 108.65 -0.35 108.55 -3.1 108.5 -3.1 110.35 -3.05 110.7 -3.1 110.95 -3.1 111.45 -3.7 111.8 -3.8 111.7 Q-4.55 112.2 -5.2 112.2 L-9.45 112.0 -9.5 111.75 -9.45 120.0 Q-9.45 136.8 -9.85 139.2 L-10.2 139.2 Q-10.75 125.9 -10.9 108.15 L-10.95 77.2 Q-10.95 75.2 -9.85 74.85 -10.35 60.8 -10.5 42.7 L-10.55 10.0 -10.4 -0.75 -10.7 -0.9 -10.4 -1.2 -10.3 -7.25 -10.1 -18.6 -10.55 -19.05 -10.5 -19.1 -10.7 -19.45 Q-10.7 -19.95 -10.05 -20.15 L-10.05 -21.05 -9.2 -20.9 -9.15 -19.7 -4.7 -19.8 17.75 -19.65 17.8 -19.8 18.2 -19.7 18.3 -19.65 22.15 -19.55 26.65 -19.05 22.15 -18.55 18.4 -18.5 18.3 -12.2 17.95 -1.05 17.8 -0.95 Q17.3 -8.35 17.3 -12.05 L17.5 -18.45 6.9 -18.3 3.4 -18.35 3.55 -12.0 3.4 -4.05 3.15 -4.05 2.95 -12.0 Q2.95 -15.95 3.1 -18.35 L-2.8 -18.45 -2.7 -17.05 M-47.35 -38.55 L-47.35 -39.15 Q-47.55 -39.5 -49.6 -39.95 L-49.6 -40.3 -46.8 -39.95 Q-46.6 -39.8 -46.6 -38.9 L-46.7 -37.8 Q-46.35 -37.7 -46.95 -37.7 L-48.8 -37.9 -49.3 -38.8 -48.95 -39.15 -47.95 -38.45 -47.35 -38.55 M-30.5 -13.85 L-31.05 -11.05 Q-31.05 -10.8 -31.2 -10.7 L-31.7 -12.9 Q-31.7 -13.95 -31.05 -14.95 -30.2 -16.4 -28.35 -16.65 L-28.1 -16.3 Q-29.9 -15.55 -30.5 -13.85 M-31.1 -16.75 L-33.45 -16.55 Q-34.35 -16.55 -39.2 -19.9 -38.05 -20.25 -36.05 -19.3 -32.85 -17.8 -29.1 -17.05 L-31.1 -16.75 M-13.85 -22.8 L-14.6 -22.8 -14.45 -22.95 -13.85 -22.8 M-15.6 -22.9 L-15.45 -22.9 -15.4 -23.45 -16.3 -23.45 -15.7 -22.9 -15.6 -22.9 M-19.1 -27.7 Q-18.95 -27.65 -18.95 -27.25 -18.95 -26.8 -19.3 -26.35 L-19.8 -25.45 -20.1 -25.4 Q-20.45 -25.9 -20.45 -26.35 L-20.2 -26.95 -19.45 -27.8 -19.1 -27.7 M-13.95 -17.15 L-14.7 -14.55 -14.85 -14.55 -15.1 -16.5 Q-15.1 -17.2 -14.7 -17.45 L-13.95 -17.15 M-23.45 -1.05 L-27.2 -0.9 -30.1 -1.3 Q-28.6 -1.95 -26.3 -1.85 L-23.45 -1.4 -23.45 -1.05 M-23.55 5.5 L-23.45 5.95 Q-23.45 6.75 -24.7 6.75 L-30.6 6.55 -30.7 6.35 Q-29.9 6.3 -29.75 6.1 L-29.65 5.7 -23.7 5.45 -23.55 5.5 M-43.3 -5.5 Q-43.3 -4.4 -44.75 -3.25 -46.65 -1.8 -49.85 -1.8 L-51.25 -1.95 -51.95 -2.05 -52.95 -2.05 Q-55.2 -2.05 -56.6 -2.6 L-56.85 -2.5 -59.2 -2.3 -59.65 -2.4 -59.7 -2.65 -60.05 -2.55 -59.75 -0.3 Q-59.45 0.75 -59.45 1.75 L-59.55 5.3 -59.6 5.35 -58.8 6.65 Q-58.2 7.5 -58.2 8.1 L-58.2 8.55 -57.2 8.7 -58.6 9.8 -59.7 10.6 -59.8 10.6 -59.95 11.2 Q-59.95 12.75 -56.85 13.8 L-55.95 13.7 -55.85 14.1 -51.7 14.85 -51.7 15.2 -54.35 15.55 -56.5 15.1 Q-57.25 15.7 -58.95 16.3 L-59.15 16.3 -59.05 18.5 -59.05 19.55 -58.55 20.95 -58.6 23.95 -59.2 24.2 -59.85 23.15 -60.3 21.65 -60.45 20.0 -60.45 19.85 -60.45 17.25 -60.3 15.7 -60.3 15.5 -60.25 15.45 Q-60.05 14.55 -59.7 14.35 L-59.45 14.95 -58.6 14.45 -58.25 14.3 -58.55 14.1 Q-60.7 12.85 -60.7 12.45 L-60.35 11.25 -59.9 10.55 -60.1 10.45 -60.2 9.95 Q-60.2 9.4 -59.2 8.9 L-59.1 8.85 -59.75 7.85 -60.45 6.4 -60.2 4.7 -59.95 4.7 Q-60.55 0.8 -60.55 -1.6 -60.55 -2.55 -60.2 -3.05 L-59.5 -2.85 -58.15 -3.45 -58.15 -3.75 -58.35 -4.2 -58.3 -5.8 -58.25 -5.8 -58.2 -6.7 -57.95 -6.7 -58.0 -5.8 -57.85 -5.8 -57.7 -5.7 -57.7 -5.25 -57.8 -3.95 Q-57.5 -3.8 -57.05 -3.6 L-55.35 -3.55 -55.65 -3.3 -50.95 -3.05 -48.45 -3.55 -49.3 -3.05 -46.65 -3.55 Q-43.6 -4.4 -43.95 -7.05 L-43.6 -7.05 Q-43.3 -6.25 -43.3 -5.5 M-43.5 13.3 Q-44.5 14.7 -45.7 14.7 L-53.35 14.3 Q-51.55 12.5 -48.7 13.35 -45.95 14.2 -44.35 12.45 L-43.8 11.2 Q-43.35 10.2 -43.1 10.1 -42.7 10.65 -42.7 11.45 -42.7 12.15 -43.5 13.3 M-33.75 25.95 L-34.7 25.7 Q-35.7 25.3 -35.7 24.4 L-35.45 21.35 -35.2 21.35 -35.1 22.65 -34.95 23.95 Q-34.45 25.2 -33.75 25.95 M-42.85 40.45 Q-42.85 42.15 -41.85 42.55 L-37.75 43.3 -36.35 43.3 -28.85 43.95 -30.35 44.2 -32.2 44.35 -37.45 44.1 -37.7 44.1 Q-39.85 44.1 -41.7 43.35 -43.35 42.7 -43.35 42.2 L-43.2 40.45 -42.85 40.45 M-45.8 40.45 Q-45.8 40.35 -46.35 40.2 -45.45 39.1 -44.9 37.85 L-43.95 36.6 Q-43.45 38.1 -43.45 38.95 L-44.45 40.7 -44.95 40.65 -45.8 40.45 M-25.15 41.15 L-24.95 41.95 Q-24.95 42.45 -25.6 43.2 -26.4 44.2 -27.45 44.2 L-27.85 44.2 -28.1 44.05 -28.2 43.85 Q-27.15 43.45 -26.25 42.2 -25.45 41.05 -25.6 40.6 L-25.45 40.6 -25.15 41.15 M16.55 15.85 Q16.8 37.3 16.55 58.95 L16.4 58.95 16.3 38.0 16.4 15.85 16.55 15.85 M2.3 12.55 L2.55 12.55 2.65 14.7 2.9 25.1 2.65 39.35 2.4 39.35 2.15 25.0 2.25 14.7 2.3 12.55 M-60.95 -21.65 Q-59.4 -20.35 -59.4 -16.15 -59.4 -14.05 -59.7 -11.8 L-59.2 -11.05 -58.15 -10.75 Q-56.25 -9.9 -55.35 -9.9 L-53.05 -10.2 -52.1 -10.55 Q-52.95 -8.8 -54.6 -8.8 L-57.2 -9.3 -57.75 -9.1 -57.2 -9.15 -57.1 -8.05 -57.2 -6.55 -57.45 -6.2 -58.0 -7.4 -58.35 -8.95 -58.0 -9.05 -58.45 -9.05 Q-59.9 -9.05 -60.2 -10.45 L-60.2 -10.55 -60.6 -10.8 -60.2 -10.95 -60.2 -11.9 -60.2 -12.1 Q-60.8 -13.45 -61.1 -15.8 L-61.3 -20.9 -60.95 -21.65 M-59.6 -11.05 L-59.55 -11.05 -59.65 -11.2 -59.6 -11.05 M-50.8 -15.3 L-50.7 -14.9 Q-50.7 -14.3 -51.05 -12.55 -51.45 -10.7 -51.7 -10.55 -52.05 -11.45 -52.05 -13.25 L-52.1 -14.5 Q-51.95 -15.25 -50.95 -15.3 L-50.8 -15.3 M-50.6 1.7 Q-50.3 3.7 -50.3 6.7 -50.3 7.2 -50.95 8.05 -51.8 9.1 -52.85 9.1 -54.75 9.1 -54.9 8.75 -55.15 8.3 -55.6 8.2 -50.95 7.85 -50.95 5.65 -51.7 2.95 -51.05 1.7 L-50.6 1.7 M-49.6 19.95 L-49.2 23.2 -50.25 23.8 -52.2 24.2 -53.65 24.15 -53.6 24.2 -53.85 24.15 -54.85 24.1 -56.45 24.5 -59.45 25.7 -59.1 28.45 Q-59.1 29.25 -59.8 31.25 L-59.35 32.55 -58.95 33.7 -59.0 34.25 -58.55 34.7 -56.8 35.8 Q-54.9 35.5 -54.35 32.55 -53.95 30.4 -53.05 29.8 L-54.1 26.5 -54.05 26.1 -53.95 25.95 -53.6 25.95 -52.3 28.9 -52.35 29.6 -52.2 29.6 -53.25 33.5 Q-53.9 35.55 -54.8 36.3 L-53.85 36.45 -56.7 36.95 Q-58.3 36.95 -59.1 36.4 L-59.95 38.0 -60.2 38.45 Q-59.9 39.9 -59.95 42.0 L-59.95 47.35 -59.95 47.5 -58.85 49.6 Q-58.45 50.3 -58.45 51.25 -58.45 52.45 -58.7 52.95 L-58.8 52.9 Q-58.4 54.05 -58.45 56.05 L-58.6 59.05 -57.7 59.1 -57.55 59.25 -57.55 59.2 -57.45 58.6 -56.6 59.3 -54.6 60.7 -54.35 60.6 -46.95 60.45 -43.65 60.45 -39.45 60.8 -39.35 60.95 Q-39.45 61.3 -40.45 61.45 L-49.1 61.7 -53.95 61.4 -53.95 61.45 -55.95 61.7 -57.55 61.3 Q-58.8 61.6 -59.05 61.9 L-59.5 62.35 Q-59.2 63.1 -59.2 64.5 -59.2 66.1 -60.2 68.05 L-60.5 67.95 -60.6 67.45 -60.9 64.95 Q-60.95 62.95 -60.0 62.3 L-60.1 61.75 Q-60.1 60.95 -59.05 60.75 L-58.55 60.7 -59.1 60.2 -58.85 59.7 -59.2 59.7 -59.55 54.95 Q-59.55 53.25 -58.9 52.9 L-59.85 52.7 -59.95 51.75 -59.7 51.4 -59.45 51.0 Q-59.45 50.65 -60.1 49.5 L-60.8 48.15 -60.6 47.75 -60.6 47.7 Q-61.3 47.7 -61.45 44.9 L-61.45 42.0 -61.4 39.45 Q-61.3 38.3 -60.7 36.95 L-60.45 37.55 -59.8 35.45 -59.75 35.45 -59.95 34.2 -59.85 33.7 -59.5 33.8 -60.3 31.9 Q-60.8 31.0 -60.8 29.85 L-60.4 27.7 -59.75 25.8 -59.85 25.45 Q-59.85 24.65 -57.65 24.05 L-57.7 23.6 -54.05 23.2 Q-50.35 22.9 -50.2 22.05 L-49.95 19.95 -49.6 19.95 M-57.6 23.95 L-57.6 24.05 -57.35 23.95 -57.6 23.95 M-56.85 53.6 Q-56.05 53.55 -55.35 53.15 L-48.05 54.25 Q-45.6 53.5 -42.45 51.6 L-42.25 51.9 Q-42.1 52.1 -42.1 52.45 -42.1 53.15 -42.95 53.85 -44.15 54.85 -46.2 54.85 L-47.6 54.75 -48.7 54.8 -55.95 54.3 Q-56.05 53.75 -56.85 53.6 M-57.55 59.65 L-57.2 59.7 -57.45 59.6 -57.55 59.65 M-51.15 69.45 Q-50.9 67.55 -50.45 67.2 -49.7 67.5 -49.7 67.7 L-50.05 71.6 -50.1 71.65 -50.1 71.95 -50.2 72.45 -57.1 72.85 -57.25 72.7 -57.35 72.2 -57.2 71.8 Q-52.6 72.05 -51.3 70.95 L-51.15 69.45 M-57.7 72.9 Q-57.5 73.35 -57.45 73.95 -57.3 74.2 -57.9 74.2 -58.6 74.2 -58.85 73.65 L-58.95 73.2 -59.1 73.2 Q-60.25 73.2 -61.05 71.8 L-61.6 70.3 -61.2 68.2 -60.85 68.2 Q-60.5 68.8 -60.05 70.6 -59.6 71.6 -58.65 72.15 L-58.45 72.1 -58.0 72.45 -57.45 72.6 -57.7 72.9 M-59.2 73.6 Q-57.95 74.3 -58.2 76.2 -58.2 76.75 -58.8 78.1 L-57.7 79.3 -57.7 79.45 -58.4 79.7 Q-57.05 79.95 -54.85 80.7 L-57.2 81.2 -58.0 80.95 -58.8 80.7 -58.8 80.6 -58.85 80.95 Q-59.6 80.45 -59.7 79.55 L-58.8 79.65 -59.55 78.8 -59.7 77.85 -59.35 76.1 Q-59.05 74.5 -59.35 73.6 L-59.2 73.6 M-58.45 80.85 L-59.1 81.9 -59.45 82.95 -58.95 83.85 -58.45 84.85 -58.45 85.1 Q-57.75 84.6 -56.4 84.55 L-48.7 84.7 -48.1 85.2 -50.25 85.55 -52.45 85.7 -55.75 85.55 -58.45 85.35 -58.45 85.55 -58.95 85.85 -59.05 85.75 -59.75 86.8 Q-59.5 88.35 -59.6 91.35 -59.4 93.95 -58.0 95.6 L-54.75 95.75 -50.45 95.85 -46.3 94.75 Q-42.9 93.9 -43.95 91.55 L-43.7 91.55 -43.4 92.2 -43.2 92.95 Q-43.2 94.45 -43.45 95.1 -43.95 96.45 -45.6 96.45 L-48.35 96.35 -50.7 96.15 -51.7 96.75 -55.1 96.95 -58.0 96.65 -58.15 96.5 -58.95 96.7 Q-59.9 96.7 -60.25 94.05 L-60.45 91.35 -60.35 87.3 -60.55 87.3 -60.6 86.55 -60.0 85.5 -59.6 85.0 -60.15 84.35 Q-60.7 83.5 -60.7 82.65 -60.7 82.3 -59.7 81.55 L-58.45 80.85 M-57.8 97.25 L-57.7 97.7 -58.5 98.3 Q-59.35 98.95 -59.65 99.8 -59.3 100.55 -59.3 100.95 L-59.35 102.25 -58.6 102.7 -51.15 103.3 -52.6 103.05 -48.6 102.85 -48.8 101.45 -48.8 98.7 -48.35 98.7 -47.85 102.5 -47.95 103.45 Q-47.6 103.55 -48.2 103.55 L-48.8 103.55 Q-50.85 104.45 -53.85 104.45 L-58.55 103.8 -58.55 104.3 Q-58.55 105.0 -59.1 106.15 L-59.7 107.3 -59.7 107.35 -58.85 107.95 -59.4 108.25 -59.35 108.4 -58.35 109.95 -58.5 110.2 Q-57.7 110.9 -56.35 111.3 L-53.45 111.85 -53.45 112.2 -56.7 112.45 -58.45 112.2 -58.55 113.8 -58.45 113.95 -58.55 114.0 -58.7 114.1 -59.7 115.0 -59.8 115.75 -59.6 116.25 -58.95 116.85 -58.95 116.45 -58.7 116.3 -58.4 116.15 Q-58.1 116.1 -58.1 116.45 L-58.2 116.75 -58.6 116.7 -55.45 117.2 Q-48.6 117.2 -47.65 116.5 -47.4 116.3 -47.45 115.8 -47.5 115.3 -47.2 115.05 -46.8 115.3 -46.8 115.95 -46.8 116.5 -48.2 117.2 -49.9 118.1 -52.2 118.1 L-57.2 118.05 -57.2 118.1 Q-57.2 118.75 -58.2 119.05 -59.7 119.5 -59.95 119.7 L-60.3 119.45 -60.35 118.85 -59.45 118.0 Q-59.0 117.75 -58.55 117.65 L-58.6 117.4 Q-58.9 117.6 -59.35 117.6 -60.45 117.6 -60.7 116.75 L-60.7 115.85 -60.55 114.55 -59.65 114.0 -60.2 113.6 -59.45 113.35 -59.7 111.8 -59.95 110.45 -59.95 110.2 -59.75 110.1 -60.55 109.3 -60.85 108.2 -60.65 107.6 -60.8 106.85 Q-60.8 104.6 -59.95 103.15 L-60.0 102.85 Q-60.6 102.25 -60.6 101.6 L-60.55 101.2 -60.8 100.1 Q-60.8 99.6 -60.4 99.2 L-60.45 98.85 -59.6 98.0 Q-58.65 97.25 -57.95 97.2 L-57.8 97.25 M-48.35 109.2 Q-47.1 112.75 -44.2 112.9 L-38.2 112.85 Q-38.45 113.4 -39.45 113.45 L-43.95 113.45 Q-46.45 113.45 -47.95 112.2 -48.95 111.4 -48.95 110.9 -48.95 109.3 -48.35 109.2 M-57.7 127.55 L-58.35 129.5 -58.2 130.25 -55.05 130.5 Q-54.15 129.8 -49.95 129.8 L-48.45 129.95 -47.85 130.2 Q-48.9 130.95 -52.8 130.95 L-56.15 130.7 -58.15 130.35 -57.85 130.95 Q-57.85 131.3 -58.45 131.3 L-58.2 133.5 Q-58.15 137.2 -59.95 138.6 L-60.7 137.9 Q-60.7 136.4 -60.0 134.35 L-59.05 131.2 -59.6 130.5 -59.6 129.7 -59.3 128.85 -59.05 127.95 -59.45 127.1 -59.7 126.55 Q-60.4 126.35 -60.55 125.3 L-60.55 124.0 -60.3 119.95 -59.6 119.95 Q-59.45 120.1 -59.7 120.55 L-59.25 123.0 -58.85 125.5 -58.35 126.1 -52.2 126.2 -51.8 126.7 -52.55 127.1 -56.1 127.3 -57.7 127.2 -57.7 127.55 M-49.1 126.45 Q-47.0 126.15 -46.7 124.7 L-46.85 122.45 -46.6 122.1 -46.25 121.7 -46.2 121.45 -45.85 121.45 Q-45.15 123.5 -40.5 124.0 L-35.45 124.2 -36.7 124.55 -40.95 124.7 -45.8 124.15 -45.8 124.4 Q-45.8 125.65 -45.95 125.95 -46.4 126.7 -48.2 126.7 L-48.55 126.65 -49.1 126.45 M2.05 57.5 L1.9 54.35 Q1.9 51.3 2.8 50.35 2.35 56.5 2.4 69.85 L2.3 69.95 2.1 62.45 2.05 57.5 M-19.8 46.7 L-23.15 46.6 Q-24.7 46.45 -24.7 45.6 L-24.5 44.25 -24.1 43.35 Q-23.9 43.9 -23.8 45.6 -22.0 45.45 -21.25 45.95 L-19.8 46.7 M-27.7 52.0 L-27.8 51.0 Q-27.8 49.5 -26.8 48.85 -24.35 47.2 -16.85 48.45 -24.05 48.4 -26.2 49.35 -27.2 49.85 -27.2 51.1 L-27.15 51.95 -26.2 52.8 -26.2 52.95 -27.7 52.0 M-16.35 54.9 Q-16.25 54.4 -15.95 54.2 -15.45 54.5 -15.45 55.45 L-15.65 57.2 -15.35 58.8 -15.2 49.0 -15.15 60.0 -14.85 62.3 Q-14.85 63.85 -15.1 65.1 L-15.15 65.3 -15.1 72.9 -15.0 73.15 -14.7 74.2 -15.1 75.35 -15.1 75.4 -14.95 75.7 -15.1 75.8 -15.1 77.3 -14.55 77.95 -14.95 78.35 -15.1 78.3 -15.05 93.9 -14.85 96.85 -14.95 96.95 -15.05 96.75 -15.05 100.3 -14.7 100.95 -15.05 100.8 -14.95 126.95 Q-14.95 133.8 -15.45 136.7 -16.05 132.35 -16.05 126.85 L-16.0 119.95 -16.4 120.6 Q-17.85 122.5 -20.35 122.45 L-16.4 118.95 -15.95 118.15 -15.8 100.45 -16.8 99.9 Q-17.95 100.7 -20.35 100.7 L-21.5 100.5 -21.55 100.5 -26.85 100.95 Q-29.25 100.95 -30.1 99.2 L-30.45 97.35 -30.4 95.9 -29.6 94.85 Q-28.55 95.8 -29.75 97.95 -29.45 99.75 -21.8 100.4 L-22.3 100.2 Q-21.85 99.85 -19.35 99.35 -17.05 98.95 -16.85 98.45 L-16.45 97.4 -15.95 96.8 -15.8 96.75 -15.75 96.8 -15.7 94.1 -15.85 93.55 -15.85 93.45 -17.05 93.65 -17.7 93.85 -18.8 93.7 -19.45 93.45 -18.05 92.75 -15.7 92.4 -15.65 85.2 Q-16.05 85.55 -16.95 85.95 -18.55 86.7 -19.95 86.7 L-21.0 86.55 -21.7 86.3 -21.85 86.1 Q-16.9 85.5 -16.2 83.95 -16.25 81.95 -15.85 80.85 L-15.7 80.85 -15.6 81.7 -15.6 77.95 -16.75 76.9 -17.2 76.95 -17.65 76.9 -20.85 77.05 -23.1 76.8 -23.7 76.85 Q-25.55 76.85 -26.55 75.45 -27.2 74.45 -27.2 73.45 -27.2 72.5 -26.7 72.2 -26.3 72.65 -25.85 74.5 -25.25 75.65 -23.9 76.15 L-24.45 75.55 Q-23.85 74.8 -23.5 75.1 -22.65 75.8 -21.2 75.8 L-17.55 75.65 -17.2 75.4 Q-17.15 74.7 -16.7 74.45 L-16.15 74.75 -15.7 74.1 -15.95 73.0 -16.2 71.9 Q-16.2 71.05 -15.7 70.7 L-15.5 71.05 -15.45 66.85 -15.85 68.7 -16.1 68.7 -15.85 64.95 -15.85 64.85 -15.85 64.35 -15.8 64.35 -15.6 62.25 Q-15.6 61.4 -16.05 59.55 L-16.55 56.75 -16.45 56.2 -16.4 56.2 -16.45 55.4 -16.35 54.9 M-38.45 55.35 L-38.1 55.4 Q-37.85 55.5 -37.85 55.9 L-38.1 60.35 Q-39.05 60.55 -39.45 60.35 -38.8 59.6 -38.85 57.7 -38.9 55.8 -38.45 55.35 M-32.55 79.05 L-29.2 79.35 -29.1 79.45 Q-31.0 80.85 -33.95 81.0 L-35.45 81.85 -35.7 81.7 -35.45 80.95 -37.7 80.7 Q-43.5 79.75 -44.7 80.55 L-45.4 80.55 -45.55 80.1 Q-45.55 79.8 -43.65 79.45 L-35.2 79.05 -32.55 79.05 M-15.6 69.8 Q-16.05 71.55 -18.7 71.55 -19.7 71.55 -19.95 71.2 -16.35 70.4 -15.6 68.8 L-15.6 69.8 M-15.8 76.2 L-15.9 76.35 -15.55 76.75 -15.55 76.1 -15.8 76.2 M-21.3 71.75 L-26.2 72.2 Q-27.0 72.2 -27.2 71.85 -25.85 70.9 -23.8 70.95 L-20.7 71.2 -20.1 71.45 -21.3 71.75 M-15.75 99.15 L-15.75 98.15 -16.0 98.9 -15.9 99.0 -15.75 99.15 M-27.65 112.55 L-29.45 113.2 -33.45 113.0 -37.6 112.55 -25.7 110.85 Q-26.15 111.75 -27.65 112.55 M-34.05 101.85 L-33.5 102.75 -40.1 102.7 -40.2 102.2 -34.05 101.85 M-44.05 129.7 Q-44.05 130.15 -45.95 131.05 L-46.2 130.95 -45.1 130.0 Q-44.4 129.45 -44.35 128.85 L-44.2 128.85 Q-44.05 129.15 -44.05 129.7 M-3.3 103.05 L-3.3 103.35 -3.15 103.35 -3.3 103.05 M-3.25 104.45 L-3.2 104.85 -3.0 104.45 -3.25 104.45 M-2.7 110.35 Q-3.0 114.05 -2.95 121.15 -2.9 128.9 -3.1 131.95 L-3.35 131.95 -3.55 122.45 -3.3 115.95 Q-3.05 110.95 -2.7 110.35 M1.65 114.7 L1.25 114.7 1.3 112.55 1.55 112.55 1.65 114.7" fill="#5b5546" fill-rule="evenodd" stroke="none"/>
  </g>
</svg>
