<?xml version="1.0" encoding="UTF-8" standalone="no"?>
<svg xmlns:xlink="http://www.w3.org/1999/xlink" height="25.8px" width="51.7px" xmlns="http://www.w3.org/2000/svg">
  <g transform="matrix(1.0, 0.0, 0.0, 1.0, 0.25, 1.2)">
    <path d="M45.9 8.15 L34.15 8.5 Q23.55 8.5 14.5 12.85 5.4 17.2 2.85 22.2 L1.4 24.35 0.75 24.6 Q-0.1 24.6 -0.25 23.25 0.75 19.95 4.75 16.45 8.7 12.9 16.0 10.3 32.15 4.65 47.95 7.3 L49.25 7.65 51.45 8.15 50.2 8.7 47.1 8.75 45.15 8.7 44.4 8.85 45.9 8.15 M39.1 0.65 L35.8 0.8 33.85 -0.3 Q31.95 -2.5 39.1 0.65" fill="#5b5546" fill-rule="evenodd" stroke="none"/>
  </g>
</svg>
