<?xml version="1.0" encoding="UTF-8" standalone="no"?>
<svg xmlns:xlink="http://www.w3.org/1999/xlink" height="25.8px" width="53.25px" xmlns="http://www.w3.org/2000/svg">
  <g transform="matrix(1.0, 0.0, 0.0, 1.0, 0.25, 1.2)">
    <path d="M52.95 6.95 L53.0 7.4 Q44.25 11.45 42.5 12.5 L35.5 17.85 Q34.65 17.85 34.4 17.2 L34.35 16.5 Q34.35 14.5 41.7 10.3 44.0 9.0 45.9 8.15 L34.15 8.5 Q23.55 8.5 14.5 12.85 5.4 17.2 2.85 22.2 L1.4 24.35 0.75 24.6 Q-0.1 24.6 -0.25 23.25 0.75 19.95 4.75 16.45 8.7 12.9 16.0 10.3 32.2 4.65 48.05 7.3 L48.5 7.15 Q37.9 2.1 33.85 -0.3 31.7 -2.8 41.3 1.65 50.15 5.75 51.15 6.65 L52.85 6.75 52.95 6.95" fill="#5b5546" fill-rule="evenodd" stroke="none"/>
  </g>
</svg>
