<?xml version="1.0" encoding="UTF-8" standalone="no"?>
<svg xmlns:xlink="http://www.w3.org/1999/xlink" height="115.35px" width="210.0px" xmlns="http://www.w3.org/2000/svg">
  <g transform="matrix(1.0, 0.0, 0.0, 1.0, 102.25, 59.6)">
    <path d="M10.9 -51.5 Q13.25 -47.0 13.75 -46.5 15.0 -47.8 16.9 -51.95 19.35 -55.5 24.5 -55.5 30.35 -55.5 32.05 -51.15 32.6 -49.75 32.6 -48.05 L32.5 -46.5 32.5 -45.25 Q37.25 -46.5 41.35 -48.9 44.0 -50.5 48.5 -50.5 54.65 -50.5 56.4 -47.5 57.3 -45.85 57.5 -43.0 69.1 -45.35 72.25 -40.05 73.3 -38.35 73.35 -35.85 L73.25 -33.0 Q78.85 -34.0 83.4 -30.55 87.75 -27.25 87.75 -22.75 96.75 -22.75 107.75 -5.85 107.75 -3.1 105.25 -0.15 102.75 2.75 102.75 3.5 102.75 4.75 103.75 5.95 104.75 7.1 104.75 8.35 104.75 9.7 96.05 18.75 87.4 27.75 86.5 27.75 85.05 27.75 82.65 26.8 L79.0 25.5 77.65 34.0 Q75.75 39.75 71.0 39.75 69.45 39.75 67.7 38.7 L65.75 37.25 Q63.9 40.35 61.1 42.45 56.4 45.95 53.0 42.0 52.55 42.65 52.45 47.35 51.4 51.75 46.0 51.75 42.1 51.75 40.2 49.55 L38.0 46.25 Q34.25 48.55 33.3 48.4 28.95 47.5 26.25 47.5 25.35 48.8 23.65 50.15 20.25 52.75 13.5 52.75 L8.0 51.75 2.5 50.75 Q2.2 50.75 -0.85 53.25 -4.35 55.75 -7.0 55.75 -11.1 55.75 -12.75 50.75 L-14.65 51.25 -17.5 51.75 Q-30.9 51.75 -34.0 44.0 -41.1 46.5 -45.0 46.5 -53.35 46.5 -54.2 42.5 -54.5 41.25 -54.05 39.35 L-53.5 37.0 -58.8 37.75 -65.0 38.5 Q-68.75 38.5 -100.25 15.0 -100.25 13.1 -99.55 10.3 -98.7 7.05 -97.5 5.25 L-97.5 -1.5 Q-102.25 -3.65 -102.25 -5.6 -102.25 -6.9 -98.9 -10.35 -95.15 -14.15 -92.0 -14.5 -93.9 -15.55 -94.65 -16.75 -95.25 -17.7 -95.25 -19.0 -95.25 -20.1 -73.5 -38.75 -71.25 -38.75 -66.25 -36.75 -65.65 -41.15 -64.4 -43.05 -62.55 -45.75 -58.5 -45.75 -55.0 -45.75 -51.55 -43.55 -48.55 -41.25 -47.75 -41.0 -46.9 -41.65 -46.05 -43.5 L-44.45 -46.75 Q-41.95 -50.75 -35.5 -50.75 L-30.7 -49.9 -25.75 -48.5 Q-23.95 -62.7 -14.9 -58.75 -12.45 -57.7 -8.1 -54.5 -4.4 -51.75 -3.5 -51.75 L-1.15 -53.75 Q1.35 -55.75 3.5 -55.75 7.9 -55.75 10.9 -51.5 M68.6 -18.55 L68.75 -18.0 69.25 -18.75 68.6 -18.55 M54.25 -26.25 L54.15 -26.25 54.25 -25.5 54.25 -26.25" fill="#ffffff" fill-rule="evenodd" stroke="none"/>
  </g>
</svg>
