<?xml version="1.0" encoding="UTF-8" standalone="no"?>
<svg xmlns:xlink="http://www.w3.org/1999/xlink" height="118.75px" width="214.85px" xmlns="http://www.w3.org/2000/svg">
  <g transform="matrix(1.0, 0.0, 0.0, 1.0, 108.0, 59.35)">
    <path d="M10.0 -54.25 Q13.95 -54.25 14.45 -50.0 L14.25 -44.75 Q14.65 -44.75 18.5 -48.0 22.35 -51.25 24.5 -51.25 28.95 -51.25 29.45 -46.95 L29.0 -41.75 Q30.05 -42.75 31.9 -47.1 34.1 -51.0 38.0 -51.0 40.35 -51.0 41.5 -48.55 42.35 -46.7 42.25 -44.75 L42.7 -45.0 45.0 -45.25 Q47.8 -45.25 49.05 -43.2 L50.5 -40.0 Q51.75 -41.25 53.9 -45.05 56.35 -48.25 60.5 -48.25 64.9 -48.25 66.0 -44.55 L66.25 -40.6 66.0 -36.95 Q65.4 -35.45 62.0 -32.0 L61.5 -31.5 72.5 -35.25 Q77.45 -35.25 88.0 -30.2 99.25 -24.85 99.25 -21.0 99.25 -19.95 98.15 -18.7 97.1 -17.5 95.5 -16.75 L95.0 -16.5 Q99.2 -17.2 101.25 -14.95 102.5 -13.55 102.5 -11.85 102.5 -10.3 99.95 -9.0 94.6 -6.25 93.5 -5.5 99.85 -2.9 101.65 -1.6 103.5 -0.2 103.5 2.1 103.5 4.05 99.0 6.75 101.3 8.25 102.6 10.1 103.75 11.8 103.75 13.1 103.75 15.45 101.4 17.0 98.45 18.95 93.75 16.75 L95.15 18.45 Q95.75 19.3 95.75 20.85 95.75 23.8 93.55 25.0 91.8 26.0 88.0 26.0 L83.0 25.05 78.0 23.75 78.6 24.75 Q79.0 25.55 79.0 27.1 L66.15 38.2 53.0 49.0 Q49.4 49.0 46.65 46.9 L44.6 44.75 Q44.3 44.75 32.75 48.5 21.2 52.25 19.0 52.25 13.55 52.25 11.4 48.05 10.15 43.5 9.75 42.75 L4.7 48.1 Q2.15 50.25 -2.0 50.25 -7.7 50.25 -9.8 47.05 -10.9 43.65 -11.5 43.25 -12.8 44.05 -15.7 47.85 -19.0 51.25 -23.5 51.25 -28.15 51.25 -29.55 48.85 -30.05 46.4 -30.25 46.25 -30.65 46.4 -32.45 47.85 -34.4 49.25 -36.0 49.25 -41.8 49.25 -41.95 44.35 -41.0 38.8 -41.0 37.5 L-45.05 41.05 Q-48.75 44.0 -51.5 44.0 -52.75 44.0 -53.85 43.0 -55.0 42.0 -56.25 42.0 -57.5 42.0 -58.6 43.15 -59.75 44.25 -61.0 44.25 -66.5 44.25 -66.8 39.75 -66.95 37.6 -65.5 33.25 L-65.0 31.75 Q-67.8 33.8 -72.3 35.15 -76.1 36.25 -78.5 36.25 -85.9 36.25 -86.05 31.95 -86.1 30.35 -84.0 25.5 -98.8 21.8 -100.15 18.85 -100.65 17.85 -99.9 16.0 -99.0 13.65 -99.0 12.5 -99.0 11.25 -100.1 10.8 -101.25 10.35 -101.25 9.1 -101.25 8.15 -100.55 7.3 -99.4 5.9 -96.75 5.0 L-99.2 2.6 -99.75 1.6 Q-99.75 0.4 -98.6 -0.8 -97.5 -2.0 -97.5 -3.25 -97.5 -4.65 -98.2 -5.8 -98.85 -6.75 -98.75 -7.0 L-104.7 -7.8 Q-107.65 -8.45 -108.0 -9.0 -91.35 -11.05 -89.25 -11.75 -88.55 -12.55 -84.0 -13.75 -87.1 -15.3 -90.95 -16.75 -93.25 -17.7 -93.25 -19.0 -93.25 -20.45 -85.5 -23.9 -77.75 -27.35 -77.75 -30.85 -77.75 -35.0 -76.0 -38.0 -73.7 -42.0 -69.0 -42.0 -66.75 -42.0 -56.25 -39.75 L-56.45 -43.55 Q-55.95 -46.25 -52.0 -46.25 -49.45 -46.25 -48.3 -43.85 -47.0 -41.15 -46.5 -41.0 -45.8 -42.4 -46.25 -48.05 -45.95 -53.0 -41.5 -53.0 -37.45 -53.0 -35.8 -47.9 L-34.5 -41.25 -34.25 -41.25 -33.95 -45.05 Q-33.1 -48.0 -29.5 -48.0 -28.2 -48.0 -26.45 -46.7 L-24.0 -45.0 Q-25.05 -48.75 -24.65 -50.8 -24.0 -54.0 -20.0 -54.0 -17.75 -54.0 -13.1 -51.45 -8.6 -48.8 -7.75 -48.5 -5.7 -57.35 -2.35 -54.85 0.3 -52.8 3.0 -44.5 L3.25 -44.25 Q4.4 -46.5 4.8 -50.95 5.65 -54.25 10.0 -54.25 M24.25 -30.5 L21.75 -31.5 20.75 -31.75 20.5 -29.5 20.75 -29.25 21.95 -29.6 24.25 -30.5 M33.5 -34.0 L33.0 -33.75 Q36.4 -34.7 36.0 -35.5 L36.0 -35.75 35.15 -35.15 33.5 -34.0 M19.05 -36.9 L18.25 -35.75 19.5 -34.75 19.75 -36.2 Q19.85 -37.25 20.0 -37.25 L20.0 -37.5 Q19.65 -37.5 19.05 -36.9 M68.0 -19.25 L68.5 -17.25 71.75 -17.5 Q71.75 -20.0 71.25 -20.25 L68.0 -19.25 M81.25 4.0 L82.3 4.4 84.5 4.75 83.55 3.7 82.75 3.0 81.25 4.0 M71.0 10.75 L70.25 11.25 73.15 10.2 Q75.1 9.25 75.25 8.75 L75.25 8.25 Q74.95 8.25 73.9 8.95 L71.0 10.75 M-58.7 -31.55 L-61.0 -32.25 -60.75 -32.0 Q-59.75 -31.25 -59.15 -30.95 L-57.0 -30.5 Q-57.35 -31.0 -58.7 -31.55 M-15.75 -34.75 L-15.5 -34.25 Q-13.95 -34.45 -12.7 -34.95 -11.45 -35.45 -11.25 -36.0 -12.85 -36.7 -14.4 -38.1 L-15.75 -39.5 -15.75 -34.75 M-17.0 34.25 L-17.0 34.5 -15.0 33.0 Q-13.5 31.65 -15.0 31.5 -16.3 32.15 -17.0 34.25 M-53.25 20.5 Q-51.75 22.75 -51.75 24.75 L-49.85 23.8 Q-48.45 23.0 -47.0 23.0 -45.55 23.0 -43.95 24.0 -42.3 25.0 -42.0 25.0 L-39.75 23.5 Q-44.85 23.8 -46.65 20.75 -47.5 19.35 -47.5 17.25 L-50.7 18.65 Q-52.95 19.75 -53.25 20.5 M-78.35 5.65 Q-80.9 6.95 -82.5 7.5 -77.5 8.8 -75.85 6.9 L-74.75 4.0 Q-75.8 4.35 -78.35 5.65" fill="#ffcc33" fill-opacity="0.3019608" fill-rule="evenodd" stroke="none"/>
    <path d="M33.7 -38.6 L33.75 -35.25 34.0 -35.0 39.6 -44.2 Q45.0 -51.75 50.0 -51.75 57.2 -51.75 57.55 -44.6 57.7 -42.35 57.1 -39.35 L56.5 -36.25 56.5 -35.5 60.25 -37.05 Q64.0 -38.5 67.0 -38.5 77.0 -38.5 78.7 -33.45 79.25 -31.85 78.95 -29.55 L78.5 -26.75 Q89.4 -29.25 92.3 -24.7 93.25 -23.25 93.3 -21.05 L93.25 -18.5 Q99.5 -18.35 101.8 -15.65 103.25 -13.95 103.25 -11.0 103.25 -10.4 100.25 -7.35 97.25 -4.3 97.25 -2.75 97.25 -1.7 98.75 3.65 L100.25 9.6 99.05 12.7 Q97.55 16.0 95.65 18.6 89.75 26.7 83.0 24.5 L82.9 27.3 Q82.95 29.2 81.9 30.15 78.65 33.0 62.5 30.25 62.2 31.25 62.4 34.15 L62.45 38.75 Q61.6 44.25 53.5 44.25 48.55 44.25 44.9 40.45 41.75 37.15 41.75 34.0 41.45 34.0 41.0 33.55 L40.25 32.75 Q40.25 36.45 38.5 41.65 35.95 49.25 31.5 49.25 27.95 49.25 26.55 46.8 25.7 44.2 25.25 43.75 26.1 46.1 24.55 49.8 22.65 54.25 18.5 54.25 13.85 54.25 12.55 51.0 L12.0 47.0 Q7.55 50.0 6.5 50.0 2.2 50.0 -0.05 45.55 L-2.25 39.0 Q-3.25 40.0 -4.4 42.65 -5.8 44.75 -9.0 44.75 -12.85 44.75 -13.75 40.9 -14.5 37.8 -13.75 36.75 -13.75 36.0 -14.0 35.5 L-19.25 43.4 Q-24.5 49.75 -31.0 49.75 -36.15 49.75 -39.65 47.5 -43.7 44.85 -41.75 40.75 L-42.25 40.25 -47.55 44.45 Q-50.05 46.5 -52.5 46.5 L-55.6 45.9 Q-59.05 45.0 -61.65 43.6 -69.75 39.15 -65.75 31.25 L-67.05 31.2 -70.0 31.5 Q-73.75 31.5 -79.0 26.5 -81.6 24.0 -83.5 21.5 -83.5 19.85 -82.85 18.5 L-81.5 16.25 -81.0 15.75 -87.05 17.2 -92.5 18.25 Q-97.75 18.25 -99.0 15.9 -99.65 14.7 -99.25 13.25 -99.25 11.25 -97.9 9.9 -96.1 8.05 -91.5 6.5 L-90.75 5.75 Q-91.45 5.5 -95.8 0.6 -100.25 -4.5 -100.25 -5.5 -100.25 -8.35 -98.5 -9.5 L-94.6 -10.95 Q-89.0 -13.05 -89.0 -22.25 -89.0 -29.0 -83.0 -29.0 -81.55 -29.0 -79.65 -27.95 -77.55 -26.8 -77.25 -26.75 -79.0 -30.25 -79.0 -33.6 -79.0 -36.8 -78.0 -38.5 -76.6 -41.0 -73.0 -41.0 -71.6 -41.0 -66.95 -38.7 -63.25 -36.85 -62.0 -36.0 L-62.4 -39.0 Q-62.75 -41.25 -62.55 -42.6 -62.0 -47.0 -56.0 -47.0 -54.5 -47.0 -52.75 -46.0 L-51.0 -45.0 Q-50.7 -46.35 -49.85 -47.6 -48.15 -50.0 -44.5 -50.0 -40.1 -50.0 -38.2 -48.0 -35.2 -44.85 -34.0 -44.25 -33.65 -44.85 -33.8 -50.1 -32.95 -55.0 -27.5 -55.0 -22.15 -55.0 -19.95 -52.85 -18.0 -50.0 -16.0 -48.5 -15.5 -49.35 -14.8 -52.4 -13.4 -55.0 -8.5 -55.0 -3.7 -55.0 -1.4 -51.85 0.45 -48.1 1.75 -47.0 3.65 -56.45 9.65 -56.15 15.65 -55.9 19.0 -46.0 21.75 -50.0 26.0 -50.0 31.85 -50.0 33.25 -43.55 33.65 -41.6 33.7 -38.6 M3.0 -26.0 Q-5.8 -26.35 -16.65 -18.05 -22.65 -13.45 -32.75 -4.25 L-32.75 -4.0 Q-24.75 -6.8 -15.8 -14.15 -6.35 -21.9 2.5 -25.5 L3.0 -26.0 M21.5 -19.0 Q8.0 -13.0 -2.2 -6.85 -16.25 1.75 -17.25 7.1 L-16.75 7.75 Q-12.8 4.4 -0.35 -3.85 L21.0 -18.25 21.5 -19.0 M24.15 -5.85 Q19.25 0.4 15.75 3.0 L15.25 3.5 Q21.6 1.6 28.55 -4.25 36.6 -11.05 38.0 -11.75 29.35 -11.0 24.15 -5.85 M61.5 -25.0 L62.6 -23.95 Q63.1 -23.5 64.6 -23.5 65.55 -23.5 66.5 -24.95 L67.5 -27.0 67.5 -27.25 64.7 -26.3 61.5 -25.0 M16.5 30.5 Q16.75 28.0 17.25 26.75 L17.25 26.5 Q16.0 26.5 15.0 27.0 L16.5 30.5 M-80.5 -2.25 L-83.0 -1.75 -77.0 -2.5 -80.5 -2.25 M-36.0 21.5 Q-36.0 22.25 -36.5 23.75 L-36.75 24.25 Q-36.0 24.0 -34.0 22.5 -34.15 22.0 -35.0 21.65 L-36.0 21.5" fill="#ffcc33" fill-opacity="0.3019608" fill-rule="evenodd" stroke="none"/>
    <path d="M16.95 -52.65 Q18.6 -48.2 19.3 -48.2 20.25 -48.2 23.65 -50.65 L28.0 -53.75 31.15 -56.9 Q32.9 -58.6 33.7 -56.65 34.8 -55.15 35.35 -51.35 36.0 -47.15 36.8 -45.45 L39.85 -47.65 Q41.95 -49.1 44.4 -49.1 45.9 -49.1 46.3 -46.1 46.7 -43.15 47.05 -43.15 48.25 -43.15 51.1 -44.6 L55.9 -47.1 62.05 -51.25 Q62.9 -51.25 63.6 -46.0 L64.5 -37.55 70.3 -38.35 74.95 -38.9 Q75.9 -38.9 75.9 -38.05 74.55 -31.6 74.4 -31.6 L73.9 -31.7 73.55 -31.9 Q73.4 -34.05 73.8 -36.6 L73.8 -36.95 Q67.9 -35.8 64.85 -35.8 62.65 -35.8 62.0 -40.7 61.7 -42.8 61.7 -48.45 L61.6 -48.6 Q58.1 -46.35 54.5 -44.3 48.25 -40.7 46.7 -40.7 45.4 -40.7 44.85 -43.65 L44.5 -46.65 44.4 -47.25 Q44.85 -47.35 44.25 -47.35 42.75 -47.35 39.35 -45.0 L36.1 -42.75 Q35.25 -42.75 35.1 -43.6 L35.2 -44.55 34.05 -49.25 Q32.9 -53.85 32.75 -55.35 L32.75 -55.45 32.45 -55.55 25.85 -50.75 18.9 -46.05 Q17.9 -46.05 16.55 -49.65 L14.4 -55.2 10.95 -51.25 Q7.85 -47.85 6.6 -47.85 5.6 -47.85 5.3 -48.2 L5.2 -48.3 5.15 -48.2 5.0 -47.95 Q5.2 -47.8 4.65 -47.8 4.4 -47.8 -2.35 -57.3 -3.65 -55.5 -4.6 -53.3 L-6.65 -47.75 -6.75 -47.7 Q-6.75 -47.15 -7.25 -46.85 L-20.0 -56.75 Q-20.0 -53.7 -20.45 -50.3 -20.85 -47.15 -21.4 -46.25 L-21.4 -45.9 -21.9 -45.8 Q-23.3 -45.8 -28.6 -48.75 L-35.15 -52.55 -35.35 -47.15 Q-35.6 -43.85 -36.55 -43.85 L-36.85 -43.9 Q-37.05 -43.45 -37.6 -43.45 -38.2 -43.45 -42.7 -45.85 L-48.5 -48.85 -48.4 -42.25 Q-48.4 -41.2 -50.0 -41.2 -50.55 -41.2 -55.35 -43.8 -60.05 -46.4 -60.95 -47.15 L-60.95 -46.55 Q-59.1 -38.35 -59.1 -37.35 -59.1 -35.9 -60.05 -35.9 L-60.6 -36.85 Q-60.7 -35.9 -62.35 -35.9 -63.8 -35.9 -68.9 -37.05 L-75.5 -38.55 -74.25 -35.3 Q-73.15 -32.1 -73.15 -31.45 -73.15 -30.4 -74.0 -30.4 L-74.25 -31.05 -74.5 -30.8 -74.9 -30.55 -79.5 -30.8 -85.15 -31.3 -85.15 -29.85 -83.95 -26.65 Q-82.8 -23.7 -82.8 -23.05 -82.8 -22.3 -83.35 -22.25 L-87.8 -22.25 -93.4 -21.8 -95.4 -21.25 -93.15 -18.05 Q-91.2 -15.05 -91.2 -14.35 L-91.4 -13.6 -92.1 -13.15 -92.4 -13.25 -92.25 -13.05 Q-93.4 -12.0 -97.65 -10.5 L-104.05 -8.2 -98.7 -5.7 Q-94.9 -3.9 -94.9 -3.3 -94.9 -2.7 -100.35 6.1 L-100.5 6.3 -97.45 5.95 Q-95.25 5.95 -94.0 6.7 L-93.95 6.75 -93.75 6.45 -93.05 7.15 -93.15 7.35 -93.05 7.7 -93.25 8.4 Q-93.5 8.85 -94.0 8.85 L-94.15 8.85 -96.25 14.05 -99.25 21.05 -95.1 19.75 Q-91.5 18.7 -89.55 18.6 -89.5 17.5 -89.15 18.55 L-89.0 18.55 Q-87.8 18.55 -87.8 19.4 L-88.8 19.8 -88.7 20.15 Q-87.85 23.75 -87.0 30.05 L-82.0 28.45 Q-77.75 27.15 -76.55 27.15 -75.05 27.15 -75.15 28.15 L-75.35 28.35 Q-74.25 29.85 -74.05 32.7 -73.95 34.85 -74.0 38.85 -71.15 38.2 -65.3 35.7 -60.05 33.55 -59.25 33.55 -57.65 33.55 -57.8 34.65 -57.8 35.6 -60.3 36.85 -59.15 39.2 -60.05 44.25 L-60.1 44.4 -54.05 41.75 Q-48.6 39.45 -47.25 39.45 -44.65 39.45 -43.3 43.85 -42.25 47.15 -42.25 50.95 L-37.4 46.55 -34.0 43.35 Q-33.35 43.35 -31.2 47.7 -29.1 52.0 -28.4 52.0 -27.6 52.0 -24.05 48.9 -21.4 46.55 -20.3 45.95 -20.1 43.85 -18.45 46.6 -14.75 52.65 -13.65 53.85 L-9.5 49.4 Q-6.55 46.6 -5.3 46.4 -5.0 43.7 -2.05 46.1 0.7 48.5 3.85 53.35 L7.65 49.6 9.65 47.65 9.95 47.4 10.9 46.85 11.3 46.9 11.45 47.1 11.6 47.25 11.4 47.5 Q13.0 48.05 14.0 50.5 L15.25 55.55 Q21.15 47.65 22.3 45.4 22.75 45.7 22.75 46.6 16.3 59.4 14.95 59.4 13.9 59.4 13.35 57.15 L12.85 53.85 Q12.55 52.1 11.0 50.05 L10.2 49.05 7.9 51.9 Q4.7 55.8 3.55 55.8 L-0.95 50.95 -4.75 47.25 -9.45 52.4 Q-13.05 56.35 -13.65 56.35 -15.2 56.35 -17.95 51.4 L-19.9 47.45 Q-20.95 48.6 -23.55 50.7 -28.05 54.35 -29.0 54.35 -29.85 54.35 -31.65 51.15 L-34.2 46.1 -38.7 50.85 Q-42.25 54.2 -43.3 54.2 -43.65 54.2 -44.9 48.0 -46.2 41.75 -47.5 41.75 -48.7 41.75 -55.0 44.6 -61.35 47.4 -61.8 47.4 -62.7 47.4 -62.9 46.9 L-62.95 46.3 -62.05 41.15 -62.4 39.05 -62.7 37.85 -66.0 38.95 -74.2 41.15 Q-75.1 41.15 -75.85 34.55 L-76.35 28.8 -87.7 32.8 Q-89.15 32.8 -89.15 31.65 L-88.85 30.45 -89.45 20.0 -100.05 23.25 Q-101.1 23.25 -101.1 22.35 -101.1 21.6 -98.25 15.2 L-95.05 8.5 -95.15 8.45 Q-95.95 8.0 -97.5 8.0 L-100.8 8.45 -102.6 8.85 Q-103.5 8.85 -103.7 8.35 L-103.75 7.7 Q-103.75 7.15 -101.55 3.5 L-97.8 -2.75 -103.25 -5.3 Q-106.85 -7.15 -106.85 -8.55 -106.85 -9.3 -100.05 -11.5 -93.55 -13.55 -92.55 -13.4 -93.8 -14.6 -97.25 -21.6 -97.25 -22.95 -95.65 -23.4 L-85.05 -24.4 -86.45 -28.5 Q-86.75 -29.7 -86.75 -32.05 -86.75 -33.25 -82.05 -32.8 L-74.6 -31.75 -77.85 -39.5 Q-77.85 -41.0 -69.6 -39.4 L-60.85 -37.4 -60.7 -37.35 -61.9 -42.3 -63.05 -48.9 Q-63.05 -50.15 -62.05 -50.15 L-50.35 -43.35 -50.55 -47.4 Q-50.65 -50.05 -49.65 -50.85 -48.75 -51.65 -42.7 -48.15 L-37.45 -45.0 -37.45 -46.15 -37.1 -50.45 -36.75 -52.9 Q-36.75 -53.2 -37.05 -53.35 L-37.35 -53.8 Q-37.35 -55.7 -29.5 -51.25 -26.2 -49.4 -22.8 -47.2 L-22.65 -53.15 Q-22.2 -56.95 -20.65 -58.45 -20.1 -58.9 -13.4 -53.4 L-7.6 -48.55 Q-7.5 -49.7 -5.9 -53.25 -4.4 -56.6 -2.75 -57.95 L-3.6 -59.1 -3.5 -59.35 -2.2 -58.35 -1.4 -58.75 -1.3 -58.6 -1.8 -58.05 Q1.0 -55.4 4.75 -49.4 L5.35 -49.65 5.9 -49.4 6.4 -49.2 Q7.0 -49.2 10.6 -53.15 14.1 -57.15 14.65 -57.15 15.3 -57.15 16.95 -52.65 M74.95 -30.9 L74.75 -31.3 Q75.75 -32.3 81.95 -33.95 88.25 -35.6 88.25 -34.4 L87.75 -30.35 Q87.2 -26.3 87.2 -25.5 L87.45 -24.0 87.7 -23.0 96.6 -22.05 Q102.2 -21.05 102.2 -20.4 102.2 -19.85 95.2 -12.75 94.15 -12.75 94.15 -13.6 94.15 -14.0 96.3 -16.6 L98.8 -19.55 99.05 -19.75 87.75 -22.05 87.65 -21.85 Q87.5 -21.5 86.95 -21.5 86.1 -21.5 85.8 -23.5 L85.7 -25.55 Q85.7 -27.1 86.1 -29.5 L86.75 -33.6 86.6 -33.7 Q85.7 -32.85 82.8 -31.8 79.55 -30.7 76.95 -30.7 L74.95 -30.9 M95.25 -12.25 Q99.5 -11.55 106.85 -4.2 L102.55 -1.65 98.2 0.8 100.95 3.5 Q104.15 7.0 104.15 7.4 104.15 8.55 99.8 8.65 95.4 8.75 95.4 9.65 L95.45 15.0 Q95.45 16.05 95.85 17.7 L96.15 20.15 95.95 21.35 Q95.6 21.85 94.65 21.85 93.35 21.85 90.45 20.2 L89.5 19.65 89.35 23.05 89.15 29.4 Q89.15 29.95 88.75 30.15 L87.05 30.3 Q85.55 30.3 80.2 28.9 L76.05 27.75 76.05 27.95 Q73.45 39.5 72.65 39.5 72.1 39.5 69.95 38.3 L67.2 36.85 Q66.5 39.45 65.0 43.2 63.5 46.95 63.25 46.95 61.4 46.95 56.05 43.25 L52.6 40.9 50.2 46.2 Q48.15 51.05 45.55 51.05 44.15 51.05 41.05 48.9 L37.5 46.6 35.1 51.0 Q33.05 54.2 31.45 54.2 L21.95 44.65 Q21.95 44.2 22.3 43.85 22.65 43.55 23.1 43.55 25.6 43.55 31.35 51.7 L34.1 47.7 Q36.45 44.25 37.5 44.25 38.7 44.25 41.65 46.55 44.6 48.75 45.3 48.75 47.05 48.75 49.95 42.1 L51.1 39.7 51.0 39.55 Q51.0 39.15 51.3 38.85 51.55 38.5 52.0 38.45 52.5 38.2 52.9 38.9 L56.35 40.85 62.3 43.95 64.7 38.2 Q66.3 34.25 66.75 34.25 67.4 34.25 69.6 35.7 L72.15 37.4 73.45 32.2 Q74.35 29.0 75.5 27.6 L75.1 27.4 Q75.1 26.85 75.4 26.7 L77.5 26.5 Q80.1 26.5 83.5 27.4 L87.4 28.35 Q87.15 22.2 88.75 19.25 L87.75 18.5 Q87.75 18.1 88.1 17.8 88.5 17.45 89.05 17.45 89.8 17.45 91.6 18.3 93.15 19.0 93.45 19.25 93.1 14.0 93.1 9.35 93.1 8.15 94.1 7.45 95.85 6.3 100.75 6.45 L97.7 2.9 Q95.55 0.3 95.55 -0.05 L95.65 -0.55 96.75 -0.2 99.15 -1.75 Q101.9 -3.6 103.45 -5.25 L98.9 -8.45 Q95.1 -11.25 95.1 -11.8 L95.1 -12.15 95.25 -12.25" fill="#5b5546" fill-rule="evenodd" stroke="none"/>
  </g>
</svg>
