<?xml version="1.0" encoding="UTF-8" standalone="no"?>
<svg xmlns:xlink="http://www.w3.org/1999/xlink" height="118.1px" width="213.55px" xmlns="http://www.w3.org/2000/svg">
  <g transform="matrix(1.0, 0.0, 0.0, 1.0, 105.9, 59.6)">
    <path d="M11.5 -52.5 Q16.2 -52.5 17.5 -50.05 18.05 -47.3 18.5 -46.75 19.25 -47.25 20.6 -48.5 22.3 -49.5 26.0 -49.5 33.3 -49.5 34.1 -45.4 34.35 -44.1 33.95 -42.2 L33.5 -40.0 Q37.05 -41.2 39.55 -44.2 41.3 -46.25 46.5 -46.25 53.95 -46.25 54.75 -42.3 55.0 -41.0 54.55 -39.2 L54.0 -37.0 Q65.35 -38.55 68.65 -34.9 69.7 -33.7 69.95 -31.95 L70.0 -30.0 Q91.25 -22.4 93.3 -20.25 94.5 -19.0 94.15 -16.65 93.5 -11.85 93.5 -10.5 L95.15 -8.0 96.75 -5.6 Q96.75 -0.4 89.75 3.0 L95.2 8.25 Q98.0 11.3 98.0 13.5 98.0 13.9 90.4 21.0 82.8 28.0 82.5 28.0 80.0 28.0 73.0 24.5 72.3 25.55 72.15 26.75 72.0 27.55 72.0 29.75 72.0 34.35 71.5 35.5 70.05 38.85 64.0 39.75 L64.0 43.6 Q63.0 47.0 58.0 47.0 54.05 47.0 51.55 44.9 L48.25 41.25 Q47.6 44.05 46.0 45.9 44.1 48.0 41.5 48.0 36.6 48.0 35.0 44.0 34.0 39.25 33.0 37.75 L32.75 37.75 Q32.75 51.0 25.0 51.0 21.5 51.0 19.2 48.45 L17.0 45.0 16.75 45.0 Q17.15 46.7 16.35 48.8 15.2 51.75 12.0 51.75 8.5 51.75 5.75 45.85 L2.0 38.0 Q1.2 39.25 0.7 42.3 L-0.15 47.8 Q-1.6 54.5 -7.0 54.5 -11.4 54.5 -12.75 48.65 -13.25 46.5 -13.25 42.0 L-13.5 41.5 Q-14.55 42.1 -19.2 46.75 -22.75 50.25 -25.5 50.25 L-31.5 49.75 -35.5 49.25 Q-39.4 49.25 -40.65 46.5 -41.25 45.25 -41.25 42.75 L-45.05 44.3 Q-47.5 45.25 -49.0 45.25 -54.75 45.25 -54.55 41.55 -54.55 40.9 -52.75 36.5 L-53.0 36.0 -57.3 38.25 Q-60.15 39.75 -61.0 39.75 -64.2 39.75 -65.3 37.4 -65.75 36.35 -65.75 34.75 -65.75 33.75 -64.95 32.8 L-62.5 30.25 -66.9 31.9 Q-71.15 33.5 -72.5 33.5 -76.65 33.5 -77.45 31.35 L-77.5 28.85 Q-77.5 27.5 -76.9 26.5 -76.1 25.1 -73.5 22.5 L-73.75 22.0 -77.55 23.4 Q-79.95 24.25 -81.5 24.25 -85.55 24.25 -86.1 21.75 -86.0 18.75 -86.25 17.75 L-89.35 18.15 -94.0 18.75 Q-96.75 18.75 -100.5 7.25 L-99.05 6.0 Q-97.3 4.45 -96.25 1.25 L-98.4 -0.75 Q-99.25 -1.6 -99.25 -2.5 -99.25 -3.85 -97.7 -4.35 L-94.65 -5.5 Q-90.7 -7.95 -93.25 -19.75 -90.15 -22.85 -85.85 -25.2 -84.5 -26.0 -84.5 -29.75 L-84.25 -35.8 Q-83.2 -39.5 -78.5 -39.5 -75.7 -39.5 -71.75 -38.0 -67.8 -36.5 -65.5 -36.5 -61.35 -36.5 -59.15 -34.95 -56.55 -33.1 -54.25 -32.75 L-55.15 -34.7 Q-55.95 -36.9 -55.85 -38.7 -55.6 -44.5 -47.0 -44.5 L-41.05 -43.6 -34.5 -42.0 Q-33.8 -42.65 -33.3 -48.25 -31.8 -53.5 -26.0 -53.5 -21.65 -53.5 -18.45 -49.75 -14.75 -45.5 -14.0 -45.25 -13.2 -46.95 -10.3 -49.65 -7.2 -52.5 -4.1 -54.15 4.45 -58.65 5.25 -50.25 7.95 -52.5 11.5 -52.5 M31.25 -26.75 L31.4 -26.45 31.5 -24.85 Q31.5 -23.7 30.4 -21.85 29.2 -19.75 27.75 -19.25 L27.75 -19.0 32.75 -21.75 Q32.2 -22.9 32.05 -24.35 31.9 -25.9 32.25 -27.0 L31.25 -26.75 M12.0 -10.5 L15.75 -12.2 Q18.75 -13.7 20.0 -14.5 L19.25 -14.25 Q13.25 -11.25 12.0 -10.5 M26.5 -4.15 Q23.3 -1.7 15.5 6.0 L15.0 6.5 Q18.45 4.05 30.65 -3.5 41.6 -10.55 43.5 -13.5 33.95 -9.95 26.5 -4.15 M74.25 10.75 L73.75 11.25 75.1 11.4 77.75 11.5 75.5 9.75 74.25 10.75 M-92.0 -3.5 L-87.5 -2.75 Q-87.05 -3.2 -86.95 -3.8 -86.8 -4.5 -87.5 -4.5 L-91.5 -3.75 -92.0 -3.5 M-55.6 -16.9 L-63.5 -12.25 Q-62.8 -12.25 -56.15 -15.2 L-47.75 -19.0 Q-50.9 -19.65 -55.6 -16.9 M-34.8 -26.45 L-30.75 -28.25 Q-33.8 -28.25 -36.35 -26.9 L-40.5 -24.25 Q-39.1 -24.6 -34.8 -26.45 M-3.25 -1.75 Q-7.35 0.3 -12.65 3.3 -19.3 7.1 -21.25 8.75 -18.45 7.65 -11.25 3.5 -3.9 -0.7 -2.75 -2.0 L-3.25 -1.75 M-23.8 23.3 L-27.0 25.25 Q-26.4 26.45 -26.15 27.9 -25.9 29.45 -26.25 30.5 L-26.25 31.0 -21.0 31.0 -22.05 29.35 Q-22.5 28.25 -22.5 26.6 -22.5 25.0 -22.05 23.85 L-21.25 22.0 -23.8 23.3 M-36.25 1.75 Q-25.1 -3.3 -9.7 -12.7 -7.65 -13.95 13.5 -27.5 L-11.45 -13.55 Q-28.95 -3.8 -35.75 1.25 L-36.25 1.75 M-18.0 34.25 L-16.5 33.5 -18.65 32.85 -19.5 32.75 Q-19.0 34.25 -18.0 34.25 M-91.0 3.75 Q-90.55 4.2 -87.25 2.75 L-87.8 2.7 -89.5 3.0 -91.0 3.75 M-87.3 11.75 Q-86.1 11.3 -85.75 10.75 L-85.25 10.25 Q-85.85 10.25 -87.1 10.85 -88.45 11.45 -89.0 12.0 L-87.3 11.75" fill="#ffcc33" fill-opacity="0.3019608" fill-rule="evenodd" stroke="none"/>
    <path d="M13.95 -50.6 Q16.85 -46.25 17.25 -46.0 21.9 -55.7 28.2 -54.25 34.5 -52.8 34.5 -42.25 L34.5 -41.75 Q35.6 -42.25 38.5 -45.45 40.3 -47.5 45.0 -47.5 53.0 -47.5 56.75 -42.5 57.75 -41.15 60.25 -34.5 L63.5 -35.45 Q66.05 -36.25 67.5 -36.25 75.8 -36.25 77.7 -31.95 78.3 -30.6 78.2 -28.9 L78.0 -27.25 Q89.65 -28.7 93.0 -25.1 94.65 -23.25 94.0 -20.85 94.0 -19.15 93.4 -17.65 L92.0 -15.25 Q95.7 -14.5 96.7 -11.5 97.0 -10.6 97.0 -8.1 97.0 -4.55 96.05 -3.2 94.3 -0.75 88.25 0.75 96.0 2.65 99.0 5.25 101.0 7.0 101.0 9.35 101.0 12.05 99.45 13.25 96.9 15.15 89.25 15.5 L92.4 20.0 Q94.0 22.6 94.0 24.5 94.0 26.8 92.75 28.3 91.3 30.0 88.5 30.0 84.75 30.0 83.0 28.45 81.5 26.5 80.25 25.75 80.15 28.8 79.15 30.95 77.2 35.0 70.5 35.0 66.05 35.0 64.7 33.95 L62.75 31.5 Q61.85 33.3 61.85 36.85 L61.6 42.1 Q60.4 47.45 49.75 45.25 L49.9 46.1 50.0 48.25 Q50.0 50.2 48.25 52.75 46.15 55.75 43.5 55.75 38.5 55.75 36.25 50.95 L34.25 44.25 Q33.95 44.75 33.25 49.4 31.85 53.75 28.0 53.75 24.2 53.75 21.85 48.55 20.0 42.95 19.25 42.0 18.5 43.9 19.15 49.3 19.0 53.75 14.0 53.75 9.8 53.75 7.85 49.6 6.5 45.05 6.0 44.25 L4.4 45.65 Q3.1 46.5 1.5 46.5 -4.25 46.5 -4.4 40.8 -3.6 33.75 -4.5 31.0 L-10.7 38.05 Q-16.8 44.5 -20.0 44.5 -26.1 44.5 -26.3 40.05 -26.35 38.65 -25.8 36.6 L-25.25 34.25 -25.5 33.5 -32.55 39.15 Q-39.9 44.5 -43.0 44.5 -48.3 44.5 -49.75 42.25 -50.25 41.5 -50.25 39.25 -50.25 37.45 -50.05 37.0 -49.55 35.75 -47.25 34.75 L-46.75 34.0 Q-50.75 36.0 -56.55 39.5 -61.2 42.0 -65.0 42.0 -68.75 42.0 -69.75 39.65 L-70.0 37.0 Q-70.0 32.8 -67.25 30.5 -71.1 31.9 -74.1 29.25 -76.6 27.0 -76.75 24.5 -84.8 25.6 -87.35 23.65 -88.5 22.75 -88.5 20.6 -88.5 18.2 -85.85 15.7 -83.4 13.3 -80.25 12.25 L-79.25 12.0 Q-93.35 13.85 -97.65 11.95 -99.75 11.05 -99.75 8.1 -99.75 5.2 -97.2 0.75 -93.8 -5.05 -88.25 -7.5 L-91.85 -13.15 Q-95.25 -18.45 -95.25 -19.85 -95.25 -20.95 -92.75 -23.95 -90.25 -26.95 -90.25 -28.1 -90.25 -30.95 -89.25 -32.25 -87.75 -34.25 -83.5 -34.25 -78.15 -34.25 -74.35 -32.35 -70.55 -30.5 -67.5 -30.5 L-64.0 -31.0 Q-64.35 -32.85 -66.05 -35.15 -67.5 -37.15 -67.5 -38.85 -67.5 -41.4 -65.75 -43.0 -64.1 -44.5 -61.5 -44.5 -60.8 -44.5 -53.35 -41.05 L-45.5 -37.5 Q-45.5 -38.75 -46.0 -42.5 L-46.5 -47.5 Q-46.5 -50.6 -45.75 -52.05 -44.45 -54.5 -40.5 -54.5 -38.05 -54.5 -33.25 -50.7 L-28.25 -46.5 -24.6 -51.1 Q-22.2 -53.5 -19.0 -53.5 -14.15 -53.5 -9.95 -49.45 L-5.75 -44.5 Q-4.0 -45.4 -1.1 -49.8 2.3 -53.75 8.0 -53.75 11.85 -53.75 13.95 -50.6 M2.0 -36.25 L1.5 -35.5 Q5.75 -35.5 8.25 -36.75 7.55 -38.8 6.25 -41.0 L4.45 -39.0 2.0 -36.25 M29.15 -18.6 Q31.45 -20.45 32.0 -21.25 31.25 -20.9 28.85 -18.85 26.15 -16.65 24.75 -15.75 L24.75 -15.5 Q26.65 -16.55 29.15 -18.6 M53.25 -9.75 L52.5 -9.0 Q53.1 -9.0 62.75 -14.0 59.95 -16.4 57.95 -14.2 54.3 -10.2 53.25 -9.75 M35.25 4.25 Q31.15 6.5 23.5 12.65 14.05 20.25 12.75 24.0 19.0 21.75 25.4 15.15 L35.25 4.25 M-72.75 -17.25 Q-71.9 -17.25 -70.55 -18.1 -69.5 -18.75 -68.75 -19.5 -69.4 -20.0 -71.7 -20.55 L-75.25 -21.25 -75.0 -21.0 -72.75 -17.25 M-59.5 -11.75 Q-55.5 -13.55 -48.0 -18.35 -41.15 -22.7 -38.0 -25.25 L-37.75 -25.5 Q-44.55 -24.3 -51.0 -19.4 -54.5 -16.7 -59.0 -12.25 L-59.5 -11.75 M-33.5 -36.25 Q-33.5 -31.0 -34.0 -28.75 L-31.9 -30.9 -29.75 -33.25 -32.3 -35.6 Q-34.2 -37.15 -33.5 -36.25 M-18.75 -18.5 Q-22.65 -16.75 -30.8 -8.95 L-43.25 2.75 Q-38.9 -0.2 -31.35 -7.1 L-18.75 -18.5 M-1.0 3.5 L-8.6 9.35 -17.25 15.5 -17.75 16.25 Q-14.15 14.25 -8.05 9.85 -1.2 4.85 -0.5 3.25 L-1.0 3.5 M-38.25 17.5 L-38.5 18.0 Q-32.95 15.35 -26.4 8.9 -23.6 6.15 -18.25 0.0 -24.35 2.05 -31.15 8.0 -37.95 13.95 -38.25 17.5 M-15.75 30.0 L-13.95 27.55 Q-12.45 25.55 -10.75 24.75 -14.7 24.75 -15.75 29.5 L-15.75 30.0 M-60.1 15.55 Q-61.25 18.75 -64.4 20.35 -63.4 19.9 -61.75 19.05 -57.45 16.9 -53.0 16.25 L-51.0 16.0 Q-53.8 15.45 -55.05 13.9 -55.7 13.15 -55.75 12.5 -58.0 12.4 -58.95 13.3 -59.5 13.85 -60.1 15.55 M-80.7 5.0 L-86.5 5.75 -90.25 7.0 -82.7 6.65 -76.25 5.75 Q-76.95 4.9 -80.7 5.0" fill="#ffcc33" fill-opacity="0.3019608" fill-rule="evenodd" stroke="none"/>
    <path d="M9.2 -50.05 Q5.2 -46.4 5.0 -46.4 L2.65 -50.6 Q0.1 -55.15 -1.25 -56.55 L-6.5 -47.9 -6.75 -47.45 -7.0 -47.05 -7.2 -47.25 -7.5 -47.25 Q-10.45 -47.25 -19.9 -56.2 -21.05 -48.45 -22.3 -45.85 L-22.25 -45.5 Q-22.25 -44.5 -23.35 -44.5 L-34.75 -51.9 -34.75 -47.55 Q-34.7 -44.8 -35.9 -43.3 L-36.25 -43.25 -36.85 -43.15 Q-37.6 -43.15 -41.6 -45.85 L-46.75 -49.4 -48.05 -49.4 -48.25 -46.2 Q-48.25 -44.8 -47.6 -43.5 -47.0 -42.25 -47.0 -40.25 -47.0 -39.25 -48.25 -39.25 -49.6 -39.25 -54.35 -42.05 L-60.05 -45.5 -59.4 -35.75 -59.5 -35.25 -59.85 -35.1 -60.1 -35.0 -60.15 -35.0 Q-60.55 -34.65 -61.75 -34.65 -64.15 -34.65 -70.05 -37.5 -73.05 -38.9 -76.05 -40.55 L-76.15 -40.3 Q-76.15 -39.0 -74.9 -33.95 L-73.65 -29.15 Q-73.65 -27.9 -75.25 -27.9 -77.1 -27.9 -81.4 -30.05 -83.6 -31.15 -85.9 -32.5 -85.6 -30.7 -84.15 -26.8 -82.9 -23.35 -82.9 -22.5 -82.9 -21.4 -84.25 -21.4 L-89.5 -21.9 -95.0 -21.8 Q-94.15 -20.65 -92.55 -17.35 -91.0 -14.25 -91.0 -13.8 -91.0 -11.45 -96.15 -10.5 L-102.65 -9.4 -100.05 -7.4 -95.15 -2.65 Q-95.15 -0.95 -97.75 2.15 L-101.75 6.75 Q-100.7 7.8 -98.6 7.5 L-95.5 6.9 Q-94.8 6.9 -94.5 7.6 L-94.4 8.3 Q-94.4 10.3 -98.05 20.0 L-98.15 20.1 -92.65 18.7 -89.1 17.65 Q-87.2 17.65 -86.75 24.5 -86.55 27.6 -86.6 30.8 L-83.6 29.65 -78.15 27.75 Q-75.15 26.45 -74.75 31.25 -74.75 32.8 -75.2 36.2 -75.3 38.05 -74.9 39.45 -73.0 38.55 -68.15 36.9 -60.3 34.3 -60.3 35.05 L-60.8 40.5 -60.5 45.5 -54.1 41.7 Q-48.55 38.5 -47.0 38.5 -45.4 38.5 -44.3 44.25 -43.25 49.65 -42.0 51.85 -41.75 51.0 -38.4 47.55 -34.55 43.55 -33.0 43.75 -30.1 44.05 -27.9 52.25 -24.2 49.4 -20.45 45.95 -20.25 45.35 -19.35 45.35 -18.95 45.35 -17.1 48.5 L-14.5 53.35 -10.0 48.1 Q-7.9 45.45 -5.0 44.75 -4.9 42.65 -2.4 46.05 -0.85 48.1 2.6 53.5 L5.65 50.2 Q8.3 47.5 10.0 47.5 L11.0 47.75 11.1 48.15 11.05 48.25 13.05 50.9 15.75 55.25 19.1 50.9 Q21.05 48.2 22.0 46.25 23.45 43.05 26.5 46.95 30.25 51.75 30.8 51.75 L32.85 48.5 34.6 46.0 33.6 45.05 33.75 44.25 33.95 44.2 34.5 44.1 38.85 46.95 Q43.55 49.75 45.35 49.75 45.8 49.75 47.8 45.15 49.75 40.7 52.1 39.55 L52.0 39.5 Q52.0 39.05 52.35 38.65 52.8 38.25 53.5 38.25 55.65 38.25 58.25 40.4 L61.5 43.15 64.7 37.1 67.0 32.85 Q67.7 32.85 69.4 34.05 71.25 35.3 72.25 35.5 L75.15 28.7 75.2 28.6 73.4 27.9 Q73.4 27.35 73.9 26.95 74.4 26.6 75.0 26.6 75.9 26.6 81.05 27.9 L87.85 29.6 87.9 28.75 87.6 24.0 87.3 19.45 Q86.35 18.8 86.35 18.75 86.35 18.25 86.75 17.9 87.0 17.7 87.3 17.65 87.35 16.75 87.7 17.6 88.5 17.65 90.25 18.65 92.0 19.65 93.1 19.5 L92.6 15.8 Q92.6 7.25 98.0 7.25 L102.0 7.15 98.75 4.25 Q97.0 2.55 96.65 1.6 L96.25 1.25 96.15 0.7 99.3 -1.6 103.75 -4.9 99.9 -9.15 Q97.5 -11.45 94.25 -12.75 L94.25 -13.15 93.85 -13.6 93.75 -14.3 Q93.75 -15.4 96.35 -17.2 L99.9 -20.0 Q86.9 -23.1 86.9 -23.8 86.9 -25.4 95.1 -23.3 103.25 -21.2 103.25 -20.65 99.25 -15.5 96.9 -13.8 L100.8 -11.15 Q104.2 -8.4 107.65 -4.9 107.65 -4.75 98.3 1.3 100.4 2.9 104.9 7.8 104.9 8.85 104.0 8.95 L97.4 9.0 95.6 9.0 94.85 15.9 95.35 19.6 95.35 21.0 Q95.15 22.1 93.85 22.1 91.6 22.1 88.75 20.45 L88.5 20.3 88.65 20.95 Q90.0 26.65 90.0 29.1 L89.95 30.95 Q89.65 32.35 88.5 32.35 86.85 32.35 80.0 30.15 L76.3 28.95 75.35 33.15 Q74.05 38.0 72.35 38.0 L69.75 37.1 67.75 36.1 65.05 41.95 Q63.0 45.9 61.6 45.9 61.25 45.9 52.7 40.0 L49.5 46.1 Q46.15 52.1 45.5 52.1 43.5 52.1 38.35 48.6 L36.35 47.25 Q32.45 54.4 31.25 54.4 29.7 54.4 26.95 51.6 L23.75 48.0 19.2 54.3 Q16.3 58.5 15.5 58.5 15.15 58.5 13.05 54.45 L10.3 49.05 2.25 56.0 Q1.2 56.0 -4.8 45.3 L-9.4 51.25 Q-13.25 56.35 -14.75 56.35 -15.55 56.35 -20.05 47.75 L-23.2 51.0 Q-27.25 55.0 -28.75 55.0 L-30.6 51.7 -33.5 46.6 -37.6 50.35 -40.85 53.35 -41.65 53.15 -42.25 53.45 -43.25 53.75 Q-43.95 53.75 -45.1 48.7 L-46.55 41.0 -46.65 40.9 -47.15 40.75 Q-47.45 40.75 -54.8 44.95 -62.15 49.1 -62.25 49.1 -63.85 49.1 -63.55 47.95 L-62.8 45.5 -63.05 37.9 -63.05 37.75 Q-65.05 38.7 -74.6 41.6 L-74.9 41.6 -75.25 41.75 Q-76.3 41.75 -76.3 38.0 L-76.15 34.15 -76.3 32.15 -76.75 29.6 -76.7 29.55 -77.15 29.5 -86.1 32.5 -87.05 32.4 -87.25 32.5 -87.35 32.25 Q-87.85 32.0 -87.75 31.4 L-87.7 31.35 Q-88.35 29.4 -88.6 26.6 -89.0 22.05 -89.5 20.25 L-99.85 22.75 Q-100.75 22.75 -100.95 22.1 L-101.0 21.3 -96.8 9.4 -96.8 9.35 -100.0 9.5 -105.0 9.15 Q-105.5 8.95 -105.5 8.05 L-102.25 4.25 Q-98.75 0.3 -98.0 -1.55 -104.5 -6.65 -104.95 -9.05 L-105.25 -9.0 -105.9 -9.75 -104.85 -9.95 Q-104.65 -10.3 -104.0 -10.1 L-102.05 -10.5 Q-97.25 -11.45 -93.4 -14.0 -98.0 -22.5 -98.0 -23.35 -98.0 -24.5 -97.0 -24.5 L-96.4 -24.25 -96.15 -24.0 -89.0 -23.8 -86.3 -23.5 -86.15 -23.4 Q-86.0 -23.4 -86.0 -23.8 L-87.0 -26.85 Q-88.0 -29.85 -88.0 -32.4 -88.0 -34.75 -85.85 -34.75 -85.0 -34.75 -81.25 -32.75 L-76.65 -30.4 -76.55 -30.3 -76.5 -30.65 -77.35 -35.1 Q-78.25 -39.75 -78.25 -41.05 -78.25 -43.75 -72.1 -41.0 -63.7 -37.25 -61.0 -37.25 L-60.85 -37.25 -62.4 -47.0 Q-62.4 -47.9 -61.25 -47.9 -59.5 -47.9 -55.15 -45.25 L-50.0 -42.05 -50.25 -48.1 Q-50.25 -50.9 -49.9 -51.7 -48.9 -54.2 -45.4 -51.0 -38.7 -46.95 -36.6 -45.3 L-36.4 -46.25 Q-36.05 -47.85 -36.05 -48.75 L-36.25 -53.5 Q-34.15 -53.65 -28.25 -50.4 -24.55 -48.35 -23.1 -46.95 L-22.95 -47.85 -22.75 -49.05 Q-22.75 -50.55 -21.25 -55.65 L-20.8 -57.05 -21.15 -57.4 Q-21.15 -57.8 -20.55 -57.7 -19.75 -59.85 -19.75 -57.45 -17.95 -56.65 -13.8 -53.7 L-7.2 -48.85 -4.0 -55.25 Q-0.4 -61.8 -0.4 -58.5 -0.4 -58.15 1.8 -54.95 L5.6 -49.75 9.3 -53.05 Q12.7 -56.0 13.6 -56.0 14.65 -56.0 17.0 -51.55 L18.9 -47.5 Q19.7 -48.35 21.25 -49.5 L25.65 -52.55 29.6 -56.6 Q32.05 -59.1 33.25 -58.55 35.35 -57.6 35.6 -53.55 L35.5 -47.15 35.6 -47.0 39.85 -49.5 Q43.95 -51.8 45.0 -51.8 45.95 -51.8 48.25 -43.2 L54.25 -46.0 Q55.8 -46.5 58.8 -48.85 61.35 -50.35 62.75 -47.75 L64.25 -42.65 65.25 -38.65 Q65.25 -37.15 64.0 -37.15 62.95 -37.15 62.05 -41.95 61.1 -46.75 59.35 -46.75 58.65 -46.75 54.25 -44.45 50.7 -42.55 48.65 -41.7 L48.65 -41.6 Q48.65 -40.25 47.5 -40.25 46.25 -40.25 45.35 -43.6 44.6 -46.4 44.6 -48.8 44.9 -49.15 44.25 -49.15 L39.8 -46.7 35.35 -44.3 Q33.2 -44.3 33.0 -48.45 L32.85 -55.15 32.75 -55.3 Q29.7 -53.5 19.0 -46.4 18.75 -45.8 18.0 -45.8 16.45 -45.8 15.3 -48.9 14.65 -50.6 13.9 -53.5 L13.55 -53.75 Q13.15 -53.75 9.2 -50.05 M73.75 -37.55 L71.05 -36.75 Q68.0 -36.0 64.25 -36.0 63.55 -36.0 63.1 -36.55 L68.05 -38.0 73.35 -39.1 Q79.0 -39.55 76.1 -32.55 L76.1 -32.5 Q84.15 -35.0 85.85 -35.0 87.75 -35.0 88.25 -34.25 L88.4 -33.3 88.0 -26.4 Q88.0 -24.5 86.75 -24.5 85.55 -24.5 85.5 -27.9 L85.75 -31.4 85.65 -32.4 80.35 -30.85 Q76.05 -29.5 74.85 -29.5 74.0 -29.5 73.85 -33.25 L73.9 -37.0 73.9 -37.5 73.75 -37.55" fill="#5b5546" fill-rule="evenodd" stroke="none"/>
  </g>
</svg>
