<?xml version="1.0" encoding="UTF-8" standalone="no"?>
<svg xmlns:xlink="http://www.w3.org/1999/xlink" height="116.4px" width="215.35px" xmlns="http://www.w3.org/2000/svg">
  <g transform="matrix(1.0, 0.0, 0.0, 1.0, 108.25, 58.25)">
    <path d="M24.25 -56.75 Q27.5 -58.6 29.9 -56.55 32.8 -54.05 36.5 -44.75 L40.8 -45.95 45.5 -46.75 Q54.55 -46.75 56.95 -41.6 57.75 -40.0 57.75 -35.0 L68.9 -33.55 Q75.25 -32.05 75.75 -27.75 89.2 -33.25 97.75 -16.25 100.55 -10.7 102.4 -3.6 103.75 1.7 103.75 3.35 103.75 5.95 102.2 7.6 99.5 10.5 92.5 10.25 92.5 15.95 88.25 22.9 83.6 30.5 78.5 30.5 73.55 30.5 71.55 27.3 L70.25 23.5 Q69.95 24.5 69.7 32.25 68.4 39.5 62.5 39.5 58.85 39.5 55.8 37.95 53.75 36.9 50.75 34.25 51.5 38.0 51.5 40.0 51.5 42.95 50.8 44.5 49.45 47.5 45.5 47.5 41.65 47.5 36.15 43.0 L30.0 37.5 29.0 37.75 30.55 41.8 Q31.5 44.45 31.5 46.0 31.5 48.25 30.0 49.8 28.35 51.5 25.5 51.5 20.2 51.5 18.95 47.4 L18.5 42.0 18.25 41.5 Q17.65 42.25 14.65 48.95 11.05 55.25 6.5 55.25 -0.75 55.25 -1.55 48.55 -1.8 46.55 -1.5 43.15 -1.15 39.7 -1.25 39.0 L-2.0 38.25 -4.1 42.65 Q-6.9 47.0 -10.5 47.0 -14.25 47.0 -15.5 44.25 L-16.0 41.25 Q-16.0 40.3 -13.25 36.0 L-13.25 35.25 Q-15.25 37.3 -20.0 40.9 -26.65 46.0 -29.0 46.0 -33.6 46.0 -34.75 43.1 L-35.0 39.85 Q-35.0 37.65 -34.0 35.0 -32.75 32.05 -32.25 30.5 L-32.25 29.75 -41.9 36.15 Q-51.7 42.0 -56.5 42.0 L-58.85 42.1 -63.75 41.55 Q-70.85 39.7 -71.75 32.75 -75.25 31.4 -82.75 29.4 -88.5 27.1 -88.5 22.25 -94.5 18.25 -99.4 17.4 L-101.6 17.0 Q-102.25 16.75 -102.25 15.85 -102.25 13.55 -101.1 10.0 -99.65 5.7 -97.5 3.5 L-97.0 3.0 Q-100.5 1.25 -106.3 -0.9 -108.25 -1.65 -108.25 -3.1 -108.25 -6.3 -98.45 -11.4 -87.9 -16.8 -86.75 -19.75 -86.75 -20.65 -87.75 -24.45 -88.6 -27.7 -88.15 -29.4 -86.75 -34.7 -71.75 -32.75 -71.75 -39.85 -62.35 -41.95 L-53.1 -43.15 -43.0 -44.0 Q-43.65 -47.75 -42.4 -51.05 -40.55 -56.0 -35.0 -56.0 -30.1 -56.0 -27.0 -52.3 L-24.0 -47.25 -22.5 -47.25 -22.7 -47.5 -22.75 -49.1 Q-22.75 -51.7 -20.95 -53.25 -19.25 -54.75 -16.5 -54.75 -12.8 -54.75 -9.95 -52.85 -7.05 -51.0 -4.5 -51.0 L0.75 -50.0 6.0 -49.0 Q11.75 -49.0 17.1 -52.05 20.0 -53.7 24.25 -56.75 M21.25 -28.2 L22.75 -29.0 Q20.75 -30.15 20.15 -32.3 19.8 -33.4 19.75 -34.75 L19.75 -34.5 19.25 -34.7 Q18.75 -34.55 18.75 -33.0 18.75 -31.6 19.65 -30.05 L20.5 -28.0 21.25 -28.2 M67.0 -14.0 L61.5 -12.75 61.25 -10.5 61.25 -10.25 Q63.3 -11.0 65.35 -12.25 67.7 -13.65 67.0 -14.0 M56.75 24.0 L56.25 24.75 58.25 26.5 58.5 23.25 58.5 23.0 Q58.1 23.0 56.75 24.0 M42.25 19.5 L41.5 20.0 Q45.0 18.75 51.05 14.5 56.1 11.0 58.5 8.75 57.55 9.1 51.15 13.4 L42.25 19.5 M5.25 24.75 Q4.9 24.6 4.4 24.75 L2.75 25.5 2.5 26.25 4.15 27.3 5.25 27.75 5.25 24.75 M6.75 31.5 Q7.4 33.4 8.25 34.25 L8.75 34.0 Q8.75 33.45 8.05 32.55 L6.75 31.25 6.75 31.5 M16.75 -11.5 Q6.8 -8.25 -4.2 -0.05 -9.55 3.95 -19.0 12.5 -8.5 10.1 0.9 2.4 6.3 -1.95 16.75 -11.5 M-14.5 23.25 Q-15.3 23.45 -16.55 24.2 -17.9 24.95 -18.25 25.5 L-16.1 24.45 -14.5 23.25 M-31.75 9.25 L-45.5 14.25 -46.0 14.75 -44.35 16.7 Q-43.35 18.0 -42.75 18.0 -35.45 18.0 -35.15 15.8 L-34.75 13.15 Q-34.1 11.25 -31.75 9.5 L-31.75 9.25" fill="#ffcc33" fill-opacity="0.3019608" fill-rule="evenodd" stroke="none"/>
    <path d="M5.5 -56.1 Q7.95 -53.55 11.25 -42.0 11.25 -41.25 11.5 -41.0 L16.75 -48.3 Q20.2 -53.25 24.0 -53.25 29.15 -53.25 29.4 -48.1 29.5 -45.65 28.25 -41.5 L28.25 -40.75 Q28.6 -40.75 34.5 -44.0 40.4 -47.25 46.5 -47.25 54.95 -47.25 57.25 -43.05 57.95 -41.65 58.1 -39.7 L58.25 -37.25 Q60.15 -37.25 65.1 -39.75 70.05 -42.25 72.0 -42.25 76.6 -42.25 76.9 -38.0 77.05 -35.65 76.0 -32.75 86.0 -31.05 88.05 -27.0 88.7 -25.7 88.8 -23.55 88.85 -21.1 89.0 -20.5 95.3 -20.1 97.8 -17.9 99.25 -16.6 99.25 -14.85 99.25 -12.95 97.65 -11.1 96.9 -10.2 94.0 -7.75 L97.2 -3.25 Q98.25 -1.75 98.25 -0.6 98.25 4.55 92.0 5.75 L92.9 7.8 Q93.25 8.9 93.25 10.6 93.25 14.4 91.1 16.15 86.45 19.95 72.75 17.25 L75.8 24.25 Q78.25 30.0 78.25 31.85 78.25 34.15 76.5 36.0 74.3 38.25 70.5 38.25 65.7 38.25 62.55 36.3 L59.75 34.0 Q59.4 35.25 59.9 39.7 59.25 43.5 53.0 43.5 48.65 43.5 45.95 41.0 42.05 37.35 41.25 37.0 L41.5 43.35 Q41.5 46.9 39.75 49.0 37.7 51.5 33.5 51.5 28.45 51.5 27.3 50.15 L26.5 47.5 Q25.2 49.3 23.95 51.85 22.5 53.5 17.5 53.5 10.3 53.5 8.45 49.2 7.9 47.9 7.75 45.8 L7.5 43.25 2.0 48.4 Q-2.85 52.5 -5.0 52.5 -9.75 52.5 -11.55 46.65 -12.5 43.7 -12.5 40.0 L-12.75 39.5 -18.65 45.15 Q-25.1 50.75 -28.0 50.75 -32.95 50.75 -35.0 46.85 -36.7 43.6 -35.75 42.0 L-36.0 40.5 -40.2 42.7 Q-42.95 43.75 -47.0 43.75 -55.55 43.75 -56.4 39.65 -56.65 38.35 -56.15 36.45 L-55.5 34.25 -55.75 33.75 -60.95 38.7 Q-65.1 42.75 -68.0 42.75 -71.5 42.75 -72.95 40.0 -73.75 38.55 -73.75 37.0 -73.75 35.3 -71.3 30.95 L-68.0 25.75 -67.5 25.0 Q-70.8 25.55 -76.05 28.3 -80.8 30.75 -83.0 30.75 L-90.9 23.1 Q-98.5 15.4 -98.5 15.1 L-96.5 5.35 Q-96.5 4.6 -95.1 2.35 -93.75 0.1 -93.75 -1.0 -93.75 -1.75 -95.35 -4.8 -97.0 -7.8 -97.0 -8.5 -97.0 -11.75 -94.55 -13.8 -92.6 -15.4 -85.5 -18.75 L-86.65 -20.6 Q-87.25 -21.7 -87.25 -23.25 -87.25 -25.7 -86.3 -26.8 -84.3 -29.05 -78.5 -27.0 -77.75 -29.3 -76.7 -36.45 -75.2 -42.5 -71.0 -42.5 -69.8 -42.5 -68.3 -41.2 L-66.0 -39.5 Q-65.55 -40.35 -65.45 -43.8 -64.45 -46.75 -59.0 -46.75 -55.55 -46.75 -54.1 -45.55 -53.05 -44.1 -52.25 -43.75 L-50.6 -46.35 Q-49.0 -48.0 -46.0 -48.0 -40.65 -48.0 -37.75 -44.35 L-35.65 -41.45 Q-34.45 -39.85 -33.25 -39.25 -32.15 -40.1 -31.75 -42.15 L-31.2 -45.7 Q-30.15 -50.0 -23.5 -50.0 -20.6 -50.0 -14.85 -46.25 -9.05 -42.5 -7.25 -42.5 -4.8 -42.5 -2.3 -47.1 L1.45 -54.7 Q3.5 -58.15 5.5 -56.1 M31.5 -25.75 L30.0 -24.75 29.0 -24.0 30.15 -24.2 Q31.25 -24.55 31.25 -25.5 31.75 -25.5 31.5 -25.75 M39.5 -34.0 L36.5 -32.75 38.5 -33.05 Q40.5 -33.45 40.5 -34.25 L39.5 -34.25 39.5 -34.0 M15.0 -29.75 Q16.05 -29.95 17.0 -30.45 18.1 -30.95 18.25 -31.5 L18.25 -32.0 Q17.5 -32.0 16.5 -31.0 L15.0 -29.75 M13.5 -28.75 Q9.0 -30.25 -0.2 -24.45 L-13.0 -16.0 Q-8.6 -17.75 -0.3 -21.9 L13.0 -28.5 13.5 -28.75 M66.25 -18.75 L69.5 -20.25 63.25 -20.5 63.5 -20.25 64.6 -19.2 Q65.25 -18.75 66.25 -18.75 M71.5 5.0 L71.25 5.75 72.45 6.0 75.75 6.25 74.6 4.75 Q74.0 3.8 74.0 3.25 L72.85 3.85 Q71.85 4.5 71.5 5.0 M20.2 13.9 L25.75 8.5 Q21.45 9.35 17.25 12.75 L10.75 18.5 10.25 19.0 Q16.25 17.3 20.2 13.9 M7.25 3.25 L0.5 6.25 -1.5 7.25 5.55 4.85 13.25 1.75 13.5 1.5 Q11.5 1.5 7.25 3.25 M18.5 38.25 L20.55 36.05 22.25 34.0 20.3 34.45 17.75 35.25 Q18.5 37.5 18.5 38.25 M1.0 33.75 L-1.5 33.5 -1.5 36.0 -1.25 36.25 1.0 34.25 1.0 33.75 M-49.25 -28.75 L-49.25 -28.25 Q-47.75 -28.45 -40.25 -30.75 -40.25 -31.25 -41.5 -32.05 -42.65 -32.8 -43.5 -33.0 -44.0 -32.35 -45.85 -30.95 -47.85 -29.45 -49.25 -28.75 M-67.5 -28.25 L-68.7 -26.9 Q-69.5 -25.5 -69.5 -23.85 -69.5 -22.3 -69.2 -22.35 L-67.0 -22.5 -59.25 -23.0 -63.55 -25.75 -67.5 -28.25 M-71.75 -7.5 Q-71.1 -7.65 -70.35 -8.2 L-69.0 -9.25 -68.5 -9.75 -73.5 -9.75 -73.25 -9.5 Q-72.25 -8.5 -71.75 -7.5 M-15.3 -35.3 Q-19.95 -38.25 -21.75 -38.25 -22.0 -39.6 -22.0 -37.1 -22.0 -36.35 -19.85 -34.1 -17.75 -31.85 -17.75 -31.1 -17.75 -27.8 -20.5 -25.45 -22.4 -23.9 -27.3 -21.7 -39.8 -16.1 -44.5 -10.5 -34.6 -15.95 -28.45 -19.5 -17.1 -26.05 -9.75 -31.5 L-15.3 -35.3 M-14.9 24.25 L-24.75 27.25 Q-23.25 29.95 -23.25 34.0 -21.85 33.35 -20.45 31.85 L-17.9 29.1 Q-14.1 25.5 -6.25 24.25 L-5.75 21.75 Q-6.4 21.75 -14.9 24.25 M-10.0 11.0 L-10.25 11.25 Q-8.1 10.7 -5.05 9.2 L-2.25 7.75 -5.9 9.05 Q-9.05 10.25 -10.0 11.0 M-34.75 22.5 L-35.75 25.5 -35.25 25.75 -33.25 25.0 -34.75 22.25 -34.75 22.5 M-79.1 0.95 L-76.75 -0.5 -78.7 0.2 -82.0 2.0 Q-80.75 1.85 -79.1 0.95" fill="#ffcc33" fill-opacity="0.3019608" fill-rule="evenodd" stroke="none"/>
    <path d="M45.8 -51.25 L45.85 -51.25 Q47.3 -51.25 47.25 -50.25 L46.45 -49.55 48.3 -42.65 Q50.4 -43.9 54.25 -45.6 62.85 -49.35 63.15 -47.0 L64.65 -37.95 66.9 -38.75 Q71.1 -39.9 77.0 -40.15 78.15 -37.4 77.5 -32.05 L77.5 -32.0 Q78.35 -32.25 82.1 -33.85 85.65 -35.3 86.6 -35.3 87.6 -35.3 87.65 -34.1 L87.6 -27.8 87.25 -23.15 94.05 -22.65 Q102.35 -21.5 102.35 -20.6 102.35 -19.75 98.45 -15.7 L95.2 -12.4 Q96.9 -12.15 100.05 -10.75 107.1 -7.55 107.1 -6.0 107.1 -5.4 99.15 0.65 L100.3 1.8 Q103.4 5.3 103.4 7.1 103.4 8.3 99.25 9.35 L96.0 10.1 96.0 10.3 95.5 13.75 95.9 17.25 96.25 20.8 Q96.25 22.0 95.25 22.0 93.65 22.0 91.2 20.4 89.9 29.5 89.9 30.8 89.9 31.9 89.0 31.9 83.3 31.9 79.1 30.2 L76.5 29.15 Q76.5 31.25 76.15 33.1 75.75 34.95 75.75 36.25 L76.0 36.85 76.25 37.45 Q76.25 39.0 74.35 39.0 73.1 39.0 70.6 37.45 68.15 35.85 66.85 35.85 66.7 35.85 65.1 40.95 63.5 46.0 62.6 46.0 60.95 46.0 56.5 42.9 L52.9 40.1 Q50.55 47.25 49.25 49.6 L49.55 50.1 49.75 51.05 Q49.75 52.25 48.75 52.25 48.05 52.25 42.75 49.9 L37.5 47.5 Q37.05 47.5 34.3 51.2 31.55 54.9 30.6 54.9 29.3 54.9 26.7 51.3 25.25 49.25 24.5 47.8 17.45 58.15 16.0 58.15 14.75 58.15 9.85 50.0 L6.6 52.7 Q3.85 54.9 3.0 54.9 L-0.25 50.8 Q-3.75 46.5 -5.0 45.5 L-9.7 51.8 Q-13.7 56.75 -15.35 56.75 -16.55 56.75 -17.75 53.0 L-19.4 47.25 -22.85 50.95 Q-24.95 53.05 -27.1 54.4 -27.5 54.9 -28.25 54.9 -29.1 54.9 -31.5 51.15 L-34.9 45.75 Q-35.8 46.25 -38.65 49.6 -41.3 52.65 -42.0 52.65 L-42.45 52.55 -42.8 52.35 -44.45 46.7 -45.75 42.15 -52.25 45.4 Q-60.4 49.35 -62.35 49.35 -63.8 49.35 -63.55 48.2 -63.55 46.85 -62.6 42.05 L-61.45 37.25 -74.85 42.5 Q-75.8 42.5 -77.05 31.1 L-77.3 31.1 Q-77.65 31.1 -82.3 33.0 L-87.0 34.85 Q-88.25 34.85 -88.05 33.5 L-87.7 29.1 -87.4 24.55 -87.9 21.2 -89.25 21.45 -94.5 22.5 Q-97.15 23.25 -101.35 24.85 -102.8 24.85 -102.55 23.7 -102.55 22.3 -97.9 13.85 -95.7 9.85 -94.55 8.5 L-102.05 7.8 Q-103.9 7.35 -103.9 7.05 L-99.95 1.0 -98.6 -0.75 Q-101.5 -1.8 -107.5 -7.8 -107.5 -9.05 -100.15 -11.6 L-92.15 -14.05 -98.9 -22.3 Q-98.9 -23.35 -96.0 -23.7 L-84.3 -25.0 Q-84.7 -27.4 -86.5 -30.95 L-88.25 -34.25 Q-88.25 -35.1 -81.9 -32.65 -77.15 -30.75 -75.3 -29.45 -76.05 -31.0 -76.9 -34.5 L-78.25 -40.8 -78.2 -41.85 Q-78.0 -42.5 -77.25 -42.5 -75.75 -42.5 -69.2 -40.4 -62.85 -38.3 -60.55 -37.15 L-60.55 -38.25 Q-61.25 -41.95 -61.25 -47.0 -61.25 -50.55 -54.75 -46.6 -51.15 -44.45 -49.55 -42.8 L-49.75 -44.25 -50.05 -49.0 -50.05 -50.55 Q-49.9 -51.8 -48.75 -51.8 -46.85 -51.8 -42.15 -49.0 -37.45 -46.05 -36.5 -45.65 L-36.35 -50.25 Q-36.3 -52.85 -34.25 -53.9 -31.6 -53.4 -26.15 -50.05 L-22.5 -47.6 -22.5 -47.9 -21.85 -52.0 Q-21.3 -55.75 -21.3 -56.55 -21.3 -57.8 -13.9 -53.65 -8.7 -50.7 -7.15 -49.25 -6.25 -50.75 -4.9 -53.8 -3.35 -57.4 -1.3 -58.25 -0.7 -58.5 1.55 -55.15 L4.85 -49.5 9.2 -53.25 Q12.15 -55.75 13.5 -55.75 L18.3 -47.25 Q20.0 -49.05 25.5 -52.5 31.05 -56.0 32.75 -56.55 32.9 -59.65 34.75 -55.25 36.7 -50.55 36.75 -47.05 43.2 -50.5 45.2 -51.1 45.35 -52.05 45.8 -51.25 M8.9 -49.8 Q5.65 -47.15 5.0 -47.15 4.0 -47.15 1.75 -50.5 -0.2 -53.4 -1.25 -55.75 L-3.65 -51.85 Q-5.0 -49.85 -6.6 -48.6 L-6.55 -48.35 Q-6.55 -47.05 -8.0 -47.05 L-19.05 -54.3 Q-20.4 -52.95 -20.6 -50.05 L-20.85 -46.1 -20.75 -45.75 -20.8 -45.35 -20.9 -45.15 -21.0 -45.0 -21.5 -44.9 -21.95 -45.0 -22.2 -45.05 -22.35 -45.15 Q-23.85 -45.75 -27.65 -47.85 -33.05 -50.9 -34.0 -51.05 -34.0 -48.75 -34.25 -46.7 -34.65 -43.0 -35.75 -43.0 -36.1 -43.0 -41.2 -45.7 -46.6 -48.6 -47.8 -49.0 L-47.8 -47.5 -46.8 -41.05 Q-46.8 -39.55 -48.1 -39.55 -48.65 -39.55 -49.0 -40.6 -50.25 -42.05 -52.95 -43.9 -56.6 -46.35 -59.65 -47.3 L-58.5 -36.0 Q-58.5 -34.75 -60.1 -34.75 L-66.4 -37.05 Q-73.05 -39.45 -76.0 -39.8 L-74.3 -33.8 -73.25 -29.35 Q-73.25 -28.25 -74.25 -28.25 L-74.5 -28.3 Q-74.6 -28.15 -75.0 -28.15 L-84.9 -32.0 -83.35 -28.2 -82.3 -24.95 Q-82.3 -23.3 -84.3 -22.85 L-95.8 -21.5 Q-90.25 -14.8 -90.25 -14.25 -90.25 -13.0 -91.25 -13.0 L-91.4 -13.15 Q-92.6 -12.3 -97.45 -10.4 -100.7 -9.05 -104.3 -7.75 L-100.0 -4.8 -96.85 -2.5 Q-96.0 -3.0 -96.0 -1.75 L-96.05 -1.45 Q-96.1 -1.1 -96.3 -0.9 L-98.2 2.1 -100.75 5.75 -93.3 6.3 Q-92.05 6.4 -92.05 7.25 -92.05 7.9 -92.75 8.25 L-93.3 8.45 -93.3 8.75 Q-93.3 10.3 -96.3 15.75 L-99.65 21.6 -99.65 21.75 -93.45 20.15 Q-88.85 19.1 -87.85 19.1 L-87.7 19.1 -87.35 19.15 -86.7 19.65 Q-86.55 19.9 -86.55 20.25 -85.5 22.1 -85.5 24.9 -85.5 29.4 -85.9 31.65 -83.7 31.65 -80.1 30.1 L-77.3 28.8 Q-77.25 27.05 -76.5 28.5 -75.75 28.55 -75.4 29.25 -75.25 29.6 -75.25 30.0 -75.25 30.8 -75.5 30.95 L-75.5 31.0 Q-74.3 34.7 -74.15 39.15 L-74.0 39.35 Q-71.0 37.95 -66.0 36.45 -61.35 35.0 -60.25 35.0 -59.25 35.0 -58.9 35.55 -58.75 35.8 -58.75 36.15 L-60.0 36.65 -60.0 36.75 Q-60.0 38.4 -61.4 46.6 L-61.4 46.75 -53.75 43.25 Q-46.7 40.0 -45.75 40.0 -44.95 40.0 -44.65 40.65 -44.5 41.0 -44.5 41.4 L-44.85 41.7 -44.5 42.55 Q-43.6 44.6 -41.65 49.75 -40.65 48.2 -38.3 45.85 -35.5 43.0 -34.35 43.0 -34.0 43.0 -30.35 48.1 L-27.25 52.55 -19.1 44.85 Q-18.0 44.85 -16.8 48.55 L-14.75 53.85 -10.55 48.35 Q-8.3 45.1 -6.05 43.6 -4.45 42.5 -0.9 46.1 2.3 49.25 3.35 51.75 L6.95 49.05 Q9.75 46.85 10.5 46.85 L12.75 50.2 Q15.2 53.85 16.35 55.1 L19.55 49.8 Q22.4 45.35 24.1 45.35 25.45 45.35 25.35 46.5 L25.3 46.65 30.4 52.85 Q34.15 48.2 36.25 45.85 37.15 44.8 38.65 45.6 L41.6 47.15 45.55 49.05 47.4 49.15 Q50.35 40.95 52.25 38.85 L52.3 38.95 52.35 38.9 52.5 38.65 Q52.6 38.5 53.0 38.5 L60.9 43.5 Q62.1 43.5 63.6 38.5 65.15 33.5 66.75 33.5 68.2 33.5 70.6 34.9 L72.9 36.35 73.8 33.7 74.25 31.5 Q74.25 29.25 74.75 28.2 L74.75 27.95 Q74.75 27.5 75.4 27.25 L76.75 27.0 80.4 28.4 83.75 29.85 87.9 29.85 88.2 26.15 88.4 22.25 Q88.55 20.4 89.5 19.05 L88.75 18.45 89.0 17.9 Q89.3 17.5 89.75 17.5 90.3 17.5 91.75 18.2 L93.9 19.15 Q93.4 15.35 93.4 13.6 L93.6 10.15 93.35 10.1 93.25 9.55 Q93.25 9.25 93.75 8.95 93.95 8.3 94.8 8.45 L96.8 7.9 101.25 6.9 Q101.1 5.55 99.1 3.6 L97.15 1.8 Q97.15 0.15 97.85 0.05 L100.95 -2.7 Q104.15 -5.35 104.15 -5.9 104.15 -6.9 98.6 -9.15 L93.55 -11.05 93.5 -11.0 93.0 -11.3 92.9 -11.75 95.0 -13.85 Q97.7 -16.3 99.75 -19.9 89.85 -20.8 86.95 -21.75 L86.9 -21.55 86.5 -21.5 Q86.15 -21.5 85.95 -22.2 L85.75 -22.5 85.8 -22.7 Q85.55 -23.8 85.55 -26.05 L85.6 -33.0 Q84.95 -32.9 80.65 -30.85 76.45 -28.9 76.0 -28.9 74.9 -28.9 74.9 -30.35 L75.3 -32.35 Q75.65 -33.85 75.65 -35.25 L75.35 -37.8 Q68.85 -35.4 64.85 -35.15 L64.8 -35.1 Q64.6 -34.9 64.25 -34.9 64.05 -34.9 63.9 -35.15 63.2 -35.25 63.0 -35.85 L62.9 -36.4 63.15 -37.0 62.6 -39.35 61.1 -45.9 Q58.55 -45.2 52.85 -41.95 47.55 -38.9 47.0 -38.9 46.0 -38.9 45.75 -39.6 L45.65 -40.15 Q45.65 -40.65 46.4 -41.3 46.0 -42.5 45.7 -44.55 45.35 -46.65 45.15 -48.8 42.25 -47.15 35.35 -43.65 34.15 -43.65 33.9 -44.5 L33.9 -45.5 Q33.9 -46.2 34.35 -46.95 34.75 -47.65 34.75 -48.25 34.75 -50.25 33.75 -52.85 L32.95 -55.15 Q31.5 -53.2 26.4 -50.05 L19.15 -45.8 19.15 -45.75 18.85 -44.9 Q18.5 -44.5 18.0 -44.5 17.25 -44.5 15.4 -47.8 L12.5 -52.8 8.9 -49.8" fill="#5b5546" fill-rule="evenodd" stroke="none"/>
  </g>
</svg>
