<?xml version="1.0" encoding="UTF-8" standalone="no"?>
<svg xmlns:xlink="http://www.w3.org/1999/xlink" height="4.4px" width="178.85px" xmlns="http://www.w3.org/2000/svg">
  <g transform="matrix(1.0, 0.0, 0.0, 1.0, 87.25, -3.25)">
    <path d="M66.55 4.7 Q70.55 5.0 74.75 4.9 L89.2 3.95 Q90.45 3.6 90.7 3.25 91.7 3.25 91.6 4.05 91.65 4.8 88.35 5.45 L80.9 6.15 Q70.45 6.4 20.85 6.45 -28.8 6.45 -33.2 6.75 L-42.75 7.15 -48.3 7.3 -70.75 7.6 -86.85 7.5 -87.25 7.3 Q-83.6 5.55 -75.05 5.7 L-54.8 6.05 21.85 4.85 Q22.75 5.05 37.55 5.05 L57.4 4.7 Q62.5 4.4 66.55 4.7" fill="#5b5546" fill-rule="evenodd" stroke="none"/>
  </g>
</svg>
