<?xml version="1.0" encoding="UTF-8" standalone="no"?>
<svg xmlns:xlink="http://www.w3.org/1999/xlink" height="37.0px" width="129.3px" xmlns="http://www.w3.org/2000/svg">
  <g transform="matrix(1.0, 0.0, 0.0, 1.0, 63.8, 19.55)">
    <path d="M40.1 -17.3 Q42.6 -18.95 44.75 -18.95 47.3 -18.95 48.35 -17.35 L49.0 -15.65 53.2 -15.2 Q55.85 -14.6 56.5 -13.3 L58.6 -14.1 60.8 -14.55 Q63.45 -14.55 64.65 -12.85 65.35 -11.9 65.35 -10.9 65.35 -10.65 64.1 -9.75 62.55 -8.6 61.6 -6.65 L61.25 -6.25 64.15 -4.2 Q65.5 -3.1 65.5 -2.3 65.5 0.2 59.35 4.6 52.1 9.8 43.9 9.8 43.25 9.8 41.75 9.25 40.3 8.7 39.6 8.7 39.2 8.7 37.7 9.5 36.25 10.3 34.1 10.3 31.0 10.3 29.75 9.5 L28.8 8.7 Q28.3 8.7 24.65 10.55 21.0 12.35 18.2 12.35 15.85 12.35 14.35 11.15 13.25 9.9 12.95 9.9 12.4 9.9 7.65 11.95 2.85 14.0 1.65 14.0 -0.3 14.0 -2.9 11.75 -5.3 9.6 -5.8 7.8 -8.5 9.3 -14.1 11.55 -21.4 14.55 -24.25 14.55 -26.9 14.55 -27.95 13.55 L-29.0 12.5 Q-29.9 12.5 -33.25 14.3 -36.6 16.05 -37.6 16.05 -42.4 16.05 -43.45 14.15 L-43.75 11.4 -43.9 11.0 -45.0 11.25 -46.6 11.4 Q-53.55 11.4 -55.85 9.35 -56.95 8.4 -56.95 6.5 L-56.9 5.1 Q-56.65 3.9 -55.55 3.2 L-55.1 2.8 Q-58.65 2.5 -59.6 1.4 -60.0 0.9 -60.0 -0.45 -60.0 -1.6 -56.1 -6.1 -51.55 -11.4 -47.95 -11.4 -47.3 -11.4 -46.7 -10.8 -46.1 -10.2 -45.4 -10.2 -44.7 -10.2 -43.45 -10.9 -42.25 -11.65 -41.15 -11.65 -38.75 -11.65 -38.25 -10.7 L-37.8 -9.8 Q-36.6 -9.8 -32.95 -11.75 -29.3 -13.75 -28.35 -13.75 -26.75 -13.75 -26.05 -12.4 L-25.4 -10.75 Q-22.3 -11.1 -20.6 -12.05 -19.2 -12.9 -17.35 -12.9 -16.8 -12.9 -13.3 -15.25 -9.8 -17.6 -8.7 -17.6 -6.25 -17.6 -5.25 -15.95 -4.7 -15.05 -4.7 -13.85 -4.7 -11.7 -8.15 -8.9 L-8.15 -8.85 2.5 -14.1 Q12.8 -18.95 16.6 -18.95 20.15 -18.95 21.2 -17.45 21.8 -16.65 21.75 -15.5 26.0 -20.75 30.2 -19.2 31.9 -18.55 32.7 -17.0 33.55 -15.4 33.1 -13.6 36.35 -14.85 40.1 -17.3 M-26.35 3.1 L-25.05 1.95 Q-26.35 2.5 -28.15 3.75 L-28.45 4.05 Q-27.25 3.75 -26.35 3.1" fill="#ffffff" fill-opacity="0.3019608" fill-rule="evenodd" stroke="none"/>
    <path d="M29.75 -15.15 L35.15 -17.0 38.35 -17.25 Q39.35 -16.55 39.35 -13.45 39.35 -12.0 36.05 -9.4 L45.25 -12.65 55.05 -15.9 Q60.0 -15.9 60.0 -12.25 60.0 -9.95 52.0 -5.6 L40.6 0.05 40.45 0.2 50.65 -3.95 Q59.9 -7.75 60.25 -7.75 62.5 -7.75 63.4 -5.7 L63.8 -3.6 Q63.8 -2.25 59.9 1.25 55.9 4.85 54.2 4.85 53.55 4.85 52.45 4.25 51.4 3.6 50.7 3.6 45.6 5.7 39.9 7.8 28.45 11.95 24.75 11.95 20.45 11.95 19.05 10.3 L18.45 8.5 Q18.45 6.5 20.4 5.0 L20.55 4.6 9.95 8.7 Q-0.1 12.5 -3.1 12.5 -7.4 12.5 -8.15 10.05 -8.5 8.85 -8.0 7.6 L-8.0 7.1 -18.6 12.4 Q-29.1 17.45 -31.5 17.45 -34.5 17.45 -35.65 15.8 -36.2 14.95 -36.2 13.95 L-35.95 12.6 -35.45 11.75 -35.15 11.25 -41.15 14.25 Q-45.0 16.2 -48.15 16.2 -51.4 16.2 -52.45 14.55 L-52.9 12.7 Q-52.9 11.4 -52.3 10.7 L-49.8 8.45 -49.5 8.0 -54.2 8.4 Q-57.1 7.9 -57.7 5.25 -58.3 5.4 -59.8 6.2 L-61.5 6.9 Q-62.95 6.9 -63.5 5.8 L-63.8 4.6 -48.95 -5.7 Q-33.0 -15.9 -27.65 -15.9 -25.3 -15.9 -24.5 -14.5 -24.1 -13.85 -24.1 -12.95 -24.1 -11.0 -25.85 -9.7 L-30.15 -6.65 Q-25.25 -7.75 -6.05 -14.1 -2.2 -14.1 -1.5 -11.9 L-1.6 -9.6 Q0.1 -10.05 8.95 -13.2 15.4 -15.5 17.65 -15.5 18.9 -15.5 20.4 -14.75 L21.9 -14.0 Q25.75 -14.0 29.75 -15.15" fill="#ffffff" fill-rule="evenodd" stroke="none"/>
  </g>
</svg>
