<?xml version="1.0" encoding="UTF-8" standalone="no"?>
<svg xmlns:xlink="http://www.w3.org/1999/xlink" height="37.75px" width="128.0px" xmlns="http://www.w3.org/2000/svg">
  <g transform="matrix(1.0, 0.0, 0.0, 1.0, 62.05, 19.95)">
    <path d="M18.0 -19.35 Q19.75 -19.35 20.6 -18.35 L21.25 -17.1 Q25.95 -20.05 31.15 -19.35 33.3 -19.1 33.85 -18.15 34.5 -17.1 32.8 -15.6 L33.2 -15.3 34.15 -15.15 39.1 -17.55 Q44.3 -19.95 45.8 -19.95 56.1 -19.95 54.5 -15.7 58.25 -15.3 59.25 -13.45 60.8 -14.3 61.75 -14.3 64.3 -14.3 65.3 -12.7 65.85 -11.85 65.85 -10.8 65.85 -9.7 64.35 -8.95 61.4 -7.5 59.95 -6.4 61.1 -5.6 64.45 -3.8 65.95 -3.05 65.95 -1.85 65.95 0.6 60.75 4.95 54.25 10.4 46.15 10.4 44.3 10.4 42.65 9.55 L41.35 8.7 Q40.8 8.7 35.55 10.85 30.3 13.0 28.5 13.0 27.6 13.0 26.25 12.2 L24.8 11.4 Q24.15 11.4 22.2 12.75 20.25 14.05 17.75 14.05 14.9 14.05 14.15 12.4 L13.85 10.5 Q13.5 10.7 13.25 10.85 L12.15 11.05 Q11.35 11.05 10.05 10.35 L8.8 9.6 Q8.05 9.6 5.45 10.9 2.85 12.15 0.45 12.15 -2.5 12.15 -3.1 10.15 -3.45 8.95 -3.05 7.8 -19.3 15.05 -21.55 15.05 -23.4 15.05 -24.3 14.2 L-25.05 13.3 Q-26.4 13.3 -31.45 15.55 -36.5 17.8 -37.35 17.8 -40.9 17.8 -40.9 15.05 -40.9 14.4 -39.5 13.35 L-39.45 13.1 Q-44.75 12.15 -47.05 11.15 -50.45 9.7 -48.55 7.85 L-54.55 8.25 Q-57.8 8.25 -57.8 5.35 -57.8 4.65 -56.75 3.7 L-54.05 1.05 Q-54.75 0.9 -55.5 1.05 L-56.8 1.25 Q-58.75 1.25 -59.3 -0.1 -59.6 -0.75 -59.5 -1.45 L-47.75 -10.75 Q-47.25 -10.75 -46.85 -10.35 -46.5 -9.95 -46.0 -9.95 L-43.95 -10.7 -40.75 -11.45 -38.65 -10.85 -37.35 -10.25 Q-33.65 -10.25 -29.65 -12.2 -25.6 -14.15 -24.4 -14.15 -22.05 -14.15 -21.6 -12.8 -21.4 -12.3 -21.6 -11.2 L-21.7 -11.05 Q-18.5 -12.15 -14.55 -15.0 -11.95 -16.9 -7.45 -16.9 L-5.95 -17.3 -4.5 -17.75 Q-2.75 -17.75 -1.85 -16.85 -1.25 -16.25 -1.25 -15.55 -1.25 -14.45 -2.75 -13.6 L-7.15 -11.1 -7.55 -10.9 -5.3 -10.4 Q-4.0 -9.9 -3.55 -9.9 L6.35 -14.6 Q16.2 -19.35 18.0 -19.35" fill="#ffffff" fill-opacity="0.3019608" fill-rule="evenodd" stroke="none"/>
    <path d="M10.9 -14.0 L15.75 -16.0 Q18.6 -17.25 19.3 -17.25 21.9 -17.25 22.5 -15.5 23.0 -14.05 22.15 -13.15 24.4 -13.4 30.35 -15.75 L36.2 -18.0 Q38.9 -18.0 39.65 -15.8 L39.95 -13.1 Q39.95 -11.95 38.6 -11.45 36.6 -10.7 35.25 -8.8 L35.05 -8.3 Q36.7 -8.95 43.65 -12.3 50.45 -15.35 53.25 -15.35 59.6 -15.35 59.6 -12.75 59.6 -11.9 58.85 -11.05 L56.35 -8.75 60.25 -5.15 Q62.6 -2.95 62.6 -1.95 62.6 -0.55 56.25 3.7 49.1 8.5 43.65 8.5 41.75 8.5 40.75 7.65 39.75 6.75 39.4 6.75 L34.3 8.7 Q29.25 10.65 25.75 10.65 23.85 10.65 22.95 9.95 L22.0 8.85 20.05 10.3 15.1 10.85 Q13.75 10.85 12.7 10.2 L11.85 9.5 7.9 11.2 Q3.8 12.9 1.5 12.9 -1.8 12.9 -2.85 9.75 -3.35 8.15 -3.2 6.45 L-3.2 6.2 -15.6 11.6 Q-26.55 16.4 -28.5 16.4 -31.2 16.4 -32.7 14.95 -33.8 13.85 -33.85 12.7 L-33.95 12.4 Q-42.35 15.95 -49.9 15.95 -51.95 15.95 -52.75 14.75 -53.15 14.2 -53.15 13.55 -53.15 12.8 -52.35 10.95 L-51.0 8.45 -51.1 8.2 -52.0 7.95 Q-52.3 7.95 -53.4 8.65 -54.55 9.35 -55.85 9.35 -58.2 9.35 -58.65 7.85 -58.95 6.9 -58.5 5.95 -60.9 6.0 -61.65 5.3 -62.05 4.95 -62.05 4.2 L-61.15 3.1 -60.3 1.8 Q-50.7 -4.95 -41.15 -10.05 -22.0 -20.25 -22.0 -12.4 -22.0 -11.25 -24.35 -9.4 L-27.65 -7.05 -28.2 -6.75 -17.7 -10.65 Q-8.75 -13.95 -5.9 -13.95 -4.4 -13.95 -2.2 -11.75 L-0.2 -9.6 5.15 -11.6 10.9 -14.0" fill="#ffffff" fill-rule="evenodd" stroke="none"/>
  </g>
</svg>
