<?xml version="1.0" encoding="UTF-8" standalone="no"?>
<svg xmlns:xlink="http://www.w3.org/1999/xlink" height="38.25px" width="129.5px" xmlns="http://www.w3.org/2000/svg">
  <g transform="matrix(1.0, 0.0, 0.0, 1.0, 61.9, 20.7)">
    <path d="M2.5 -16.3 Q2.5 -14.5 -0.05 -13.25 -4.7 -11.0 -6.15 -9.9 L-6.3 -9.8 4.75 -15.55 Q14.25 -20.4 16.6 -20.4 19.25 -20.4 20.25 -19.5 20.9 -18.95 20.9 -17.9 L20.35 -17.15 19.6 -15.9 19.75 -15.55 Q21.4 -16.15 24.45 -17.7 L28.75 -17.85 Q29.25 -17.85 29.9 -18.2 30.55 -18.6 31.05 -18.6 33.6 -18.6 34.35 -16.75 34.95 -15.15 34.25 -14.45 36.6 -15.25 46.15 -20.7 51.8 -20.45 54.85 -18.5 L55.9 -17.85 55.0 -17.65 55.2 -16.1 Q55.2 -15.25 54.8 -14.9 L55.9 -15.35 57.45 -15.75 Q60.5 -15.75 61.2 -13.3 L62.25 -13.5 63.85 -13.75 Q66.0 -13.75 66.95 -12.6 67.6 -11.85 67.6 -11.0 67.6 -10.25 66.6 -9.45 L63.3 -7.15 Q66.1 -3.1 66.1 -2.65 66.1 -0.25 62.35 4.2 57.05 10.45 48.95 10.45 48.35 10.45 44.95 9.25 L41.6 8.0 29.0 12.85 Q27.15 12.85 25.55 11.95 24.3 11.05 24.15 11.05 23.55 11.05 21.25 12.75 19.0 14.45 15.05 14.45 12.9 14.45 12.05 13.25 11.65 12.65 11.65 11.9 11.65 11.25 11.9 10.85 L12.4 10.1 12.3 9.9 9.7 11.5 Q6.95 12.95 4.3 12.95 1.6 12.95 0.75 11.05 0.45 10.35 0.45 8.8 0.45 8.15 0.85 7.4 L1.5 6.15 1.75 5.9 -5.95 9.25 Q-13.05 12.35 -14.4 12.35 L-16.4 11.85 Q-17.4 11.3 -17.6 11.3 -18.25 11.3 -22.5 13.7 -27.95 16.1 -34.55 16.1 -36.95 16.1 -37.5 14.7 L-37.65 13.1 Q-40.5 13.0 -41.4 11.85 -41.85 11.15 -41.7 9.8 -44.5 10.1 -45.9 9.0 -47.05 8.1 -46.7 7.0 L-46.45 6.9 -46.95 6.8 Q-47.7 6.8 -48.85 7.45 L-56.95 8.05 Q-59.5 8.05 -60.1 5.95 -60.4 4.9 -60.2 3.65 -60.2 3.25 -59.2 2.2 L-57.6 0.65 Q-58.45 -0.6 -58.45 -1.75 -56.55 -4.45 -53.4 -7.15 -47.1 -12.55 -40.85 -12.55 -39.05 -12.55 -38.5 -11.0 -37.95 -9.45 -37.3 -9.45 -35.65 -9.45 -31.95 -11.95 -28.2 -14.5 -25.4 -14.5 -23.0 -14.5 -22.15 -12.6 -21.8 -11.75 -21.8 -10.5 L-12.35 -15.4 Q-6.4 -18.4 -1.7 -18.4 0.75 -18.4 1.85 -17.45 2.5 -16.9 2.5 -16.3" fill="#ffffff" fill-opacity="0.3019608" fill-rule="evenodd" stroke="none"/>
    <path d="M8.25 -13.55 Q16.0 -17.15 16.55 -17.15 19.45 -17.15 20.8 -14.7 21.45 -13.45 21.55 -12.1 23.2 -12.1 27.65 -14.0 32.1 -15.95 33.1 -15.95 36.2 -15.95 36.75 -13.3 L36.7 -9.35 36.85 -9.05 Q38.9 -9.75 45.85 -12.8 52.6 -15.45 56.3 -15.45 59.5 -15.45 60.3 -14.0 60.7 -13.3 60.5 -12.4 60.5 -10.35 55.3 -6.8 51.25 -4.0 49.0 -3.6 L60.15 -4.95 Q62.45 -4.95 63.1 -3.75 L63.35 -2.45 Q63.35 -0.7 57.6 3.45 51.25 7.95 46.45 7.95 43.15 7.95 42.6 6.95 L42.05 5.95 Q40.75 5.95 34.8 7.55 28.9 9.1 16.7 9.1 12.25 9.1 7.7 10.75 L2.6 12.4 Q-4.6 12.4 -5.45 10.75 -5.75 10.2 -5.4 9.25 L-4.85 7.8 -15.85 12.2 Q-22.0 14.7 -27.2 14.7 -31.05 14.7 -32.15 13.9 L-33.45 13.1 Q-35.25 13.1 -44.85 16.7 -53.6 19.2 -53.6 14.5 L-52.7 13.0 -51.8 11.65 Q-51.8 11.15 -52.1 10.1 -52.35 9.35 -52.1 8.7 L-52.1 8.45 Q-53.05 9.15 -54.25 9.65 -55.5 10.2 -56.2 10.2 -58.25 10.2 -60.3 7.3 -61.9 5.0 -61.9 4.3 -61.9 2.55 -48.9 -6.8 -34.95 -16.8 -29.0 -16.8 -26.3 -16.8 -23.75 -14.5 -21.0 -12.05 -22.0 -9.65 L-22.0 -9.55 Q-20.55 -10.35 -17.95 -11.05 -12.9 -12.4 -5.25 -12.4 -4.25 -12.4 -1.85 -11.2 L0.45 -10.0 8.25 -13.55" fill="#ffffff" fill-rule="evenodd" stroke="none"/>
  </g>
</svg>
