<?xml version="1.0" encoding="UTF-8" standalone="no"?>
<svg xmlns:xlink="http://www.w3.org/1999/xlink" height="44.5px" width="46.8px" xmlns="http://www.w3.org/2000/svg">
  <g transform="matrix(1.0, 0.0, 0.0, 1.0, 0.3, -1.45)">
    <path d="M41.35 7.2 Q41.95 9.15 41.55 11.9 L41.55 12.15 Q44.05 11.45 45.45 12.95 46.5 14.0 46.5 15.3 46.5 17.9 40.8 19.8 L42.1 21.5 Q42.5 22.3 42.5 22.9 42.5 23.35 41.75 24.4 41.0 25.45 41.0 26.15 41.0 26.8 41.55 27.55 42.05 28.3 42.05 28.9 42.05 30.1 41.0 30.85 L36.8 33.4 Q37.35 33.7 38.7 36.35 40.05 38.95 40.05 39.75 40.05 40.6 36.75 42.95 32.5 45.95 27.75 45.95 25.5 45.95 23.55 44.95 21.6 43.9 19.0 43.9 14.05 43.9 13.3 42.05 L13.4 39.45 Q9.25 39.35 8.4 37.9 L8.0 35.95 Q6.05 35.7 2.95 31.9 0.15 28.4 0.15 27.5 0.15 26.95 1.05 25.45 L1.9 23.4 Q1.9 22.45 1.1 18.2 0.25 14.0 0.25 13.15 0.25 7.15 6.3 5.3 10.35 4.05 21.8 4.05 L24.55 3.55 27.25 3.05 Q29.6 3.05 30.3 4.1 30.65 5.15 31.0 5.15 L33.1 4.5 Q34.9 3.8 36.5 3.8 40.3 3.8 41.35 7.2" fill="#ffffff" fill-opacity="0.3019608" fill-rule="evenodd" stroke="none"/>
    <path d="M43.2 14.9 Q43.2 15.3 41.25 18.15 39.2 21.1 38.5 21.4 L38.4 21.5 Q40.4 22.45 40.4 24.1 L40.15 25.15 38.8 26.4 38.4 26.5 Q42.1 25.85 43.65 27.25 44.5 28.05 44.5 29.2 44.5 30.45 42.5 30.8 38.95 31.35 35.4 33.7 35.95 33.95 36.4 34.75 36.8 35.5 36.8 36.1 36.8 37.4 33.4 40.0 30.0 42.6 28.2 42.6 26.75 42.6 26.0 41.4 25.4 40.45 25.6 39.7 L22.5 40.75 Q19.55 41.8 17.4 41.8 6.4 41.8 2.0 34.6 -0.3 30.85 -0.3 26.6 -0.3 26.1 1.1 23.05 2.5 20.0 2.5 19.1 L1.65 18.1 Q0.8 17.15 0.8 16.7 0.8 14.85 4.1 12.6 7.55 10.25 7.9 7.4 8.35 3.95 14.65 2.15 20.9 0.35 20.9 3.15 20.9 4.3 18.7 5.9 L22.45 5.45 26.4 5.0 30.65 5.05 Q34.5 5.6 35.0 8.2 37.65 7.75 40.7 11.2 43.2 14.05 43.2 14.9 M25.9 30.8 Q28.5 30.6 37.8 26.6 L26.6 30.5 25.9 30.8" fill="#ffffff" fill-rule="evenodd" stroke="none"/>
  </g>
</svg>
