<?xml version="1.0" encoding="UTF-8" standalone="no"?>
<svg xmlns:xlink="http://www.w3.org/1999/xlink" height="23.85px" width="27.65px" xmlns="http://www.w3.org/2000/svg">
  <g transform="matrix(1.0, 0.0, 0.0, 1.0, 2.65, 5.7)">
    <path d="M21.4 -1.7 Q24.35 -0.55 24.35 0.8 24.35 2.0 23.05 2.95 21.8 3.95 18.75 5.1 L20.35 4.8 22.1 4.5 Q23.8 4.5 24.55 5.65 L25.0 6.75 20.5 11.25 15.65 15.35 Q12.5 15.35 11.95 14.4 11.9 13.15 11.65 12.65 11.15 13.35 10.0 13.85 L8.6 14.25 Q6.6 14.25 0.0 8.15 0.0 4.2 2.35 1.05 5.45 -3.1 11.25 -3.1 L15.0 -5.3 Q18.4 -6.75 18.4 -3.25 18.4 -2.85 21.4 -1.7" fill="#ffffff" fill-opacity="0.3019608" fill-rule="evenodd" stroke="none"/>
    <path d="M10.65 12.3 Q10.65 13.7 9.3 15.2 7.4 17.25 4.0 17.25 2.2 17.25 1.55 16.25 1.25 15.75 1.25 15.05 1.85 10.65 2.9 7.55 5.0 1.4 7.5 6.65 L6.45 8.6 Q5.75 9.85 6.0 10.25 L6.5 10.1 7.75 9.85 Q9.8 9.85 10.4 11.0 L10.65 12.3" fill="#ffffff" fill-opacity="0.3019608" fill-rule="evenodd" stroke="none"/>
    <path d="M14.35 -1.25 L17.05 -1.95 19.25 -2.4 Q20.75 -2.4 21.35 -1.15 L21.65 0.25 21.1 1.5 Q20.45 2.45 19.65 2.65 L19.4 2.9 Q24.75 2.85 24.75 5.85 24.75 7.0 22.75 7.8 18.95 9.35 17.65 10.15 L18.25 11.2 18.5 12.5 Q18.5 12.75 14.5 15.45 10.45 18.15 9.9 18.15 5.95 18.15 5.55 16.0 5.2 13.85 2.25 13.85 -0.3 13.85 -1.2 12.6 L-1.55 11.25 -0.9 9.4 -0.25 7.6 -0.65 5.65 -1.05 3.75 -1.85 2.9 -2.65 2.05 Q-2.65 -1.5 6.8 -4.3 10.6 -5.4 13.3 -5.35 16.25 -5.3 16.25 -3.75 16.25 -2.55 14.65 -1.5 L14.35 -1.25 M18.5 3.5 Q16.4 3.1 12.5 5.75 L12.5 5.85 18.25 3.55 18.5 3.5" fill="#ffffff" fill-rule="evenodd" stroke="none"/>
    <path d="M9.6 8.55 L8.15 8.35 Q8.05 9.0 8.05 7.75 8.05 5.5 13.85 3.05 19.65 0.65 19.65 4.05 19.65 4.3 10.75 8.65 L9.6 8.55" fill="#ffffff" fill-rule="evenodd" stroke="none"/>
    <path d="M6.05 14.35 L0.85 7.65 Q0.85 6.85 2.4 6.85 3.35 6.85 4.5 8.4 L6.15 11.1 15.9 1.8 Q22.0 -3.95 22.0 -1.35 22.0 -0.65 14.9 6.75 7.6 14.35 6.05 14.35" fill="#5b5546" fill-rule="evenodd" stroke="none"/>
  </g>
</svg>
