<?xml version="1.0" encoding="UTF-8" standalone="no"?>
<svg xmlns:xlink="http://www.w3.org/1999/xlink" height="38.3px" width="41.0px" xmlns="http://www.w3.org/2000/svg">
  <g transform="matrix(1.0, 0.0, 0.0, 1.0, 7.75, 17.0)">
    <path d="M31.1 -1.35 Q30.65 1.4 30.65 2.8 30.65 3.3 31.95 5.6 33.25 7.85 33.25 8.85 33.25 13.1 30.25 16.45 25.85 21.3 16.55 21.3 -0.3 21.3 -5.6 15.25 -7.75 12.8 -7.75 8.05 -7.75 3.75 -5.5 -1.9 -3.35 -7.4 -0.25 -11.3 6.05 -19.45 19.0 -15.9 24.25 -14.45 27.8 -11.55 31.5 -8.5 31.5 -5.45 L31.1 -1.35" fill="#ffffff" fill-rule="evenodd" stroke="none"/>
    <path d="M7.25 -1.4 Q7.25 -9.45 13.55 -9.0 15.85 -8.85 17.9 -7.55 19.85 -6.25 19.85 -5.0 L19.6 -4.5 Q19.3 -4.35 19.3 -4.05 L19.65 -2.2 20.0 -0.75 Q20.0 0.2 19.0 0.65 18.15 -0.4 17.6 -2.0 L16.75 -4.45 Q15.65 -7.05 12.0 -7.05 11.1 -7.05 10.4 -2.95 9.7 1.1 8.85 1.1 8.2 1.1 7.65 -0.15 L7.25 -1.4" fill="#5b5546" fill-opacity="0.3019608" fill-rule="evenodd" stroke="none"/>
    <path d="M22.05 2.6 L22.4 4.25 22.3 11.7 Q22.3 12.15 20.5 13.75 18.65 15.35 18.05 15.35 17.0 15.35 16.6 14.5 16.15 13.65 15.45 13.65 15.15 13.65 14.7 14.1 14.3 14.5 13.75 14.5 L11.05 14.2 Q8.25 13.65 7.35 12.4 L6.8 12.9 Q6.3 13.25 6.0 13.25 L5.0 12.9 4.6 12.5 4.0 12.75 3.4 13.0 Q2.0 13.0 -0.05 10.25 -0.05 9.4 0.35 8.15 0.75 6.95 0.75 5.9 0.75 4.95 1.6 4.2 2.4 3.55 3.3 3.55 L4.65 2.75 Q5.0 2.75 5.35 3.15 5.75 3.5 6.05 3.5 L6.65 2.9 Q7.15 2.3 8.0 2.3 L8.7 2.7 9.25 3.25 Q10.4 2.4 12.9 2.0 14.3 2.0 14.45 3.1 L14.3 4.6 14.3 4.85 Q15.05 0.95 16.2 1.0 17.35 1.05 18.25 5.15 L18.3 5.15 Q18.3 4.15 18.7 2.95 19.3 1.05 20.5 1.05 21.55 1.05 22.05 2.6" fill="#5b5546" fill-opacity="0.3019608" fill-rule="evenodd" stroke="none"/>
    <path d="M22.35 11.15 Q23.75 11.15 24.1 13.8 24.1 15.75 22.4 15.75 20.7 15.75 18.4 14.6 L15.8 12.8 Q14.55 13.65 14.0 13.65 13.5 13.65 12.75 13.05 L12.35 13.75 Q12.05 14.15 11.05 14.15 10.4 14.15 9.9 13.5 L9.35 12.55 7.9 14.05 Q6.7 15.25 6.1 15.25 4.55 15.25 3.15 13.6 L2.05 11.9 Q3.25 4.75 4.65 4.75 6.15 4.75 5.9 6.1 6.6 5.75 7.0 5.75 8.45 5.75 8.4 7.2 L8.0 9.75 8.0 9.8 8.75 7.9 Q9.25 6.85 11.15 6.85 12.2 6.85 12.35 7.3 L12.5 8.5 14.75 6.3 Q16.4 5.25 18.25 8.25 L18.4 6.65 Q18.6 5.65 20.0 5.65 21.45 5.65 21.7 7.85 L21.55 11.25 22.35 11.15" fill="#5b5546" fill-opacity="0.3019608" fill-rule="evenodd" stroke="none"/>
    <path d="M9.25 -4.85 L9.85 -7.1 Q13.35 -10.35 16.15 -6.75 18.3 -4.0 18.3 -1.95 L18.2 -0.8 20.05 -0.9 20.05 -1.45 19.95 -1.4 19.25 -1.45 19.2 -1.65 20.05 -1.75 20.1 -2.4 20.0 -3.1 Q20.0 -4.2 17.95 -7.05 15.3 -10.7 12.05 -10.7 9.45 -10.7 7.85 -8.6 6.6 -6.9 6.6 -5.2 L6.45 -3.1 6.25 -1.0 6.25 -0.95 7.4 -0.8 7.4 -0.85 8.85 -0.8 9.0 -2.6 9.25 -4.4 9.05 -4.6 9.05 -4.95 9.25 -4.85 M10.05 -4.4 L10.7 -4.0 10.7 -3.85 10.3 -3.75 9.95 -3.85 Q9.75 -2.65 9.85 -1.25 L9.8 -0.6 9.9 -0.35 9.7 -0.1 9.7 0.0 12.2 -0.05 17.5 -0.05 17.35 -0.35 17.65 -0.6 17.7 -1.95 17.4 -2.85 17.25 -3.35 Q15.6 -7.6 13.15 -7.6 10.7 -7.6 10.05 -4.6 L10.05 -4.4 M5.1 -0.5 L5.3 -0.8 5.3 -0.85 Q5.3 -4.6 6.3 -7.2 8.15 -11.8 12.85 -11.5 16.3 -10.75 18.8 -7.45 20.85 -4.65 20.85 -2.6 L20.6 -0.75 20.45 -0.05 21.85 0.0 21.95 -0.35 Q23.05 -0.45 23.65 0.9 24.05 1.8 24.05 2.7 23.65 8.8 23.65 13.6 L24.85 13.9 Q24.85 14.3 23.4 14.45 L22.75 14.75 22.15 14.55 18.2 14.6 5.15 14.2 2.4 14.1 1.75 14.5 Q1.0 14.5 0.95 11.2 L0.85 6.05 0.65 3.55 0.95 0.4 2.05 0.25 2.35 0.25 5.4 0.1 5.3 -0.1 5.1 -0.5 M22.55 0.9 L22.4 0.6 22.2 1.4 22.0 1.4 21.9 0.75 16.3 0.95 11.0 1.2 9.85 1.3 9.3 1.8 Q8.9 1.8 8.75 1.5 L8.7 1.4 4.25 1.4 2.45 1.4 1.95 3.4 2.15 8.55 2.75 11.5 2.65 13.2 3.05 13.05 5.65 12.8 Q9.95 12.8 16.85 13.1 L21.65 13.4 22.75 2.7 22.6 1.85 22.55 0.9 M20.3 10.1 L19.55 9.85 19.55 9.65 Q20.15 9.65 20.3 10.0 L20.3 10.1 M20.4 12.0 L19.6 11.4 18.9 10.95 Q19.25 10.85 19.85 11.25 L20.5 11.85 20.4 12.0 M13.85 3.2 L14.15 3.6 14.15 4.95 13.65 5.65 12.85 6.0 13.6 9.6 10.3 9.6 11.65 6.0 Q10.65 6.0 10.55 5.2 L10.55 4.35 Q10.95 3.2 12.15 2.9 13.0 2.6 13.85 3.2 M18.4 11.55 L19.35 12.5 19.35 12.6 19.2 12.65 Q18.65 12.65 18.05 12.1 L17.45 11.3 Q17.85 11.15 18.4 11.55 M3.7 8.45 L4.5 8.35 4.05 8.75 Q3.75 9.0 3.85 9.35 L3.4 9.35 3.5 8.95 3.7 8.45 M3.1 12.05 Q3.3 11.1 5.1 9.6 L5.35 9.8 Q5.35 10.25 3.35 12.2 L3.1 12.05 M6.1 11.0 L5.75 11.6 5.6 11.55 5.55 11.4 5.8 10.9 6.45 10.35 6.1 11.0" fill="#5b5546" fill-rule="evenodd" stroke="none"/>
  </g>
</svg>
