<?xml version="1.0" encoding="UTF-8" standalone="no"?>
<svg xmlns:xlink="http://www.w3.org/1999/xlink" height="43.4px" width="47.05px" xmlns="http://www.w3.org/2000/svg">
  <g transform="matrix(1.0, 0.0, 0.0, 1.0, 24.5, 20.35)">
    <path d="M14.55 -18.9 L14.8 -17.3 Q14.8 -15.4 13.75 -13.5 15.95 -12.7 16.35 -11.35 16.55 -10.7 16.25 -9.25 L16.05 -9.1 Q19.55 -9.15 20.85 -7.6 21.5 -6.85 21.5 -5.9 21.5 -5.1 20.55 -3.9 19.5 -2.65 18.0 -1.75 20.9 -0.65 22.0 3.2 22.6 5.15 22.55 6.9 22.55 8.65 21.1 9.4 17.95 10.7 14.5 12.55 L15.25 13.6 15.55 15.0 14.55 19.65 Q14.55 21.35 13.8 22.0 12.5 23.05 8.25 23.05 3.6 23.05 2.75 22.3 2.75 21.5 2.05 21.5 L-0.6 22.3 Q-2.65 23.05 -6.25 23.05 -8.9 23.05 -13.15 21.75 -19.1 19.95 -19.6 17.05 -22.9 17.0 -24.0 15.6 -24.5 14.9 -24.5 13.5 -24.5 12.45 -23.0 10.5 L-21.5 8.5 Q-21.5 7.9 -22.6 3.45 L-23.75 -1.05 Q-23.75 -2.35 -23.15 -3.7 -22.4 -5.4 -21.0 -6.1 L-20.6 -6.5 Q-24.25 -6.4 -24.25 -9.05 -24.25 -13.8 -16.4 -16.75 -9.75 -19.25 -2.25 -19.25 L0.15 -19.8 2.5 -20.35 Q4.5 -20.35 5.65 -19.65 L6.55 -19.0 8.9 -19.65 11.25 -20.35 Q13.8 -20.35 14.55 -18.9" fill="#ffffff" fill-opacity="0.3019608" fill-rule="evenodd" stroke="none"/>
    <path d="M2.55 -16.5 Q3.55 -16.5 9.0 -18.6 10.6 -18.6 11.45 -17.15 11.95 -16.25 12.05 -15.25 18.0 -16.0 18.0 -11.35 L17.55 -10.05 Q17.05 -9.35 17.05 -8.75 17.05 -7.45 18.9 -6.25 20.75 -5.05 20.75 -3.55 20.75 -2.6 19.8 -1.45 L17.05 0.75 16.55 1.05 Q17.65 0.7 19.8 3.75 21.8 6.55 21.8 7.35 21.8 9.9 15.1 15.8 8.05 22.0 4.0 22.0 2.35 22.0 1.75 21.0 1.5 20.55 1.5 19.85 L2.1 18.9 3.75 16.8 3.75 16.5 Q2.55 16.5 -1.1 18.5 -4.75 20.5 -6.0 20.5 -8.4 20.5 -8.65 18.75 -8.75 18.0 -8.25 16.05 -9.55 17.25 -11.5 17.25 -18.35 17.25 -23.1 4.85 -23.1 2.85 -22.4 2.1 L-18.25 -1.25 -20.85 -3.75 -21.5 -4.55 Q-21.5 -6.0 -20.35 -6.8 -18.4 -7.9 -16.75 -9.25 L-17.35 -10.2 -17.6 -11.5 Q-17.6 -13.7 -14.55 -15.95 -11.8 -17.95 -7.8 -19.1 -3.8 -20.25 -0.95 -19.8 2.25 -19.3 2.55 -16.85 L2.55 -16.5 M-3.75 13.8 L-5.25 14.5 -4.05 14.05 Q-3.4 13.75 -3.75 13.75 L-3.75 13.8" fill="#ffffff" fill-rule="evenodd" stroke="none"/>
  </g>
</svg>
