<?xml version="1.0" encoding="UTF-8" standalone="no"?>
<svg xmlns:xlink="http://www.w3.org/1999/xlink" height="46.5px" width="51.25px" xmlns="http://www.w3.org/2000/svg">
  <g transform="matrix(1.0, 0.0, 0.0, 1.0, 26.0, 22.75)">
    <path d="M7.0 -18.9 L10.25 -18.5 Q14.2 -18.5 15.45 -15.15 16.3 -12.85 15.8 -9.75 19.5 -8.25 22.7 -3.45 25.25 0.35 25.25 1.6 25.25 3.2 23.55 4.1 20.0 5.9 18.05 7.5 19.25 8.8 19.25 10.5 L18.3 12.3 Q17.3 13.8 17.3 14.25 17.3 14.9 17.8 15.35 18.25 15.8 18.25 16.4 18.25 19.65 13.05 21.75 8.1 23.75 1.0 23.75 -6.45 23.75 -10.2 21.0 -12.6 19.25 -12.6 17.85 L-12.3 16.5 -11.6 15.5 -18.25 15.05 Q-23.35 14.45 -21.75 10.05 -24.5 10.1 -25.5 8.55 -26.0 7.85 -26.0 6.85 L-25.0 0.85 Q-25.0 -0.1 -22.65 -4.0 L-19.85 -8.25 Q-22.35 -8.1 -22.5 -10.6 -22.5 -17.8 -11.1 -19.25 L-2.3 -19.6 3.75 -19.35 7.0 -18.9" fill="#ffffff" fill-opacity="0.3019608" fill-rule="evenodd" stroke="none"/>
    <path d="M13.25 -14.55 Q15.3 -15.85 16.5 -15.85 19.25 -15.85 20.05 -14.3 20.45 -13.5 20.3 -12.6 20.3 -10.85 18.65 -8.75 L15.3 -4.6 Q18.35 -3.25 19.5 0.25 20.05 1.95 20.05 4.0 20.05 5.3 18.65 6.05 16.35 6.95 14.55 7.8 L15.65 9.45 16.05 10.4 Q16.05 11.65 12.25 15.75 8.3 20.05 6.5 20.05 4.95 20.05 3.3 17.8 L1.0 19.05 -2.5 19.55 Q-6.2 19.55 -7.15 18.55 -8.15 17.55 -10.0 17.55 -18.2 17.55 -19.15 13.55 -19.65 11.5 -18.75 8.75 -21.9 8.4 -22.75 7.6 -23.25 7.1 -23.25 5.4 -23.25 4.9 -20.7 0.0 -18.05 -5.2 -16.85 -6.5 -18.5 -8.3 -18.5 -8.9 -18.5 -10.95 -16.0 -12.85 L-16.5 -13.4 -16.75 -14.55 Q-16.75 -15.2 -15.1 -17.2 -13.3 -19.4 -11.35 -20.9 -5.7 -25.15 -4.5 -19.75 L-3.9 -19.65 -2.5 -19.85 Q-0.7 -19.85 -0.4 -18.15 -0.2 -17.0 -0.5 -16.25 L-0.75 -15.85 Q0.7 -16.05 2.8 -17.1 4.65 -18.1 6.5 -18.1 10.0 -18.1 10.1 -16.3 9.55 -14.25 9.55 -13.75 L9.45 -13.5 Q9.5 -13.25 10.3 -13.25 11.25 -13.25 13.25 -14.55" fill="#ffffff" fill-rule="evenodd" stroke="none"/>
  </g>
</svg>
