<?xml version="1.0" encoding="UTF-8" standalone="no"?>
<svg xmlns:xlink="http://www.w3.org/1999/xlink" height="40.0px" width="42.2px" xmlns="http://www.w3.org/2000/svg">
  <g transform="matrix(1.0, 0.0, 0.0, 1.0, 22.75, 19.3)">
    <path d="M4.45 -19.0 L8.05 -19.3 Q6.3 -18.15 5.2 -18.2 L3.2 -17.9 3.55 -17.75 2.5 -17.8 1.4 -17.25 Q-1.65 -17.65 -6.05 -16.0 -11.25 -14.2 -13.95 -11.7 -16.35 -10.15 -18.4 -7.05 -20.25 -4.2 -20.9 -1.6 -22.1 2.95 -20.7 7.55 -18.35 15.6 -8.2 17.85 13.6 22.65 17.25 8.85 19.05 1.95 17.45 -2.85 16.25 -6.6 13.05 -9.9 L13.75 -10.7 Q17.2 -7.3 18.6 -3.45 20.4 1.55 18.45 9.05 17.05 14.45 12.8 17.55 6.2 22.4 -5.55 19.8 -18.95 16.85 -21.95 7.75 -23.45 3.35 -22.1 -1.8 -20.65 -7.3 -16.05 -11.45 -10.4 -16.6 -1.15 -18.35 L3.3 -18.9 4.45 -19.0 M6.15 -16.3 L6.05 -16.3 5.95 -16.4 6.15 -16.3" fill="#5a493f" fill-rule="evenodd" stroke="none"/>
  </g>
</svg>
