<?xml version="1.0" encoding="UTF-8" standalone="no"?>
<svg xmlns:xlink="http://www.w3.org/1999/xlink" height="40.9px" width="42.2px" xmlns="http://www.w3.org/2000/svg">
  <g transform="matrix(1.0, 0.0, 0.0, 1.0, 22.75, 20.2)">
    <path d="M3.95 -16.5 Q0.4 -18.4 -6.05 -16.0 -11.25 -14.2 -13.95 -11.7 -16.35 -10.15 -18.4 -7.05 -20.25 -4.2 -20.9 -1.6 -22.1 2.95 -20.7 7.55 -18.35 15.6 -8.2 17.85 13.6 22.65 17.25 8.85 19.05 1.95 17.45 -2.85 14.95 -10.6 3.95 -16.5 M18.6 -3.45 Q20.4 1.55 18.45 9.05 17.05 14.45 12.8 17.55 6.2 22.4 -5.55 19.8 -18.95 16.85 -21.95 7.75 -23.45 3.35 -22.1 -1.8 -20.65 -7.3 -16.05 -11.45 -10.25 -16.7 -0.75 -18.45 L0.0 -18.5 -2.0 -19.1 Q-3.6 -19.6 -4.1 -20.0 L-4.0 -20.2 0.7 -18.85 4.45 -19.0 8.05 -19.3 Q6.3 -18.15 5.2 -18.2 L3.2 -17.9 Q15.65 -11.6 18.6 -3.45" fill="#5a493f" fill-rule="evenodd" stroke="none"/>
  </g>
</svg>
