<?xml version="1.0" encoding="UTF-8" standalone="no"?>
<svg xmlns:xlink="http://www.w3.org/1999/xlink" height="97.95px" width="84.95px" xmlns="http://www.w3.org/2000/svg">
  <g transform="matrix(1.0, 0.0, 0.0, 1.0, 157.7, 117.25)">
    <path d="M-137.2 -107.55 Q-134.35 -107.6 -132.1 -109.7 L-131.3 -109.7 -126.15 -112.15 Q-121.95 -113.3 -117.55 -113.65 -116.6 -112.65 -116.25 -112.65 L-113.9 -114.35 -109.45 -114.55 -108.65 -115.1 -107.05 -115.1 -106.25 -115.65 -101.4 -115.9 -100.85 -116.45 -95.75 -116.45 -94.4 -117.25 -89.65 -117.25 Q-88.8 -114.85 -88.75 -111.3 -72.75 -113.75 -72.75 -108.5 -72.75 -101.8 -100.95 -95.15 L-100.25 -94.2 Q-96.6 -93.95 -94.45 -92.1 -92.1 -90.1 -92.1 -87.5 -92.1 -86.35 -93.25 -84.5 -94.55 -82.4 -96.1 -81.9 -94.75 -80.15 -94.2 -78.8 -93.6 -77.3 -93.6 -75.5 -93.6 -73.8 -94.2 -72.3 L-95.6 -69.9 -90.45 -65.7 Q-88.35 -64.1 -88.35 -62.65 -88.35 -59.3 -91.5 -57.35 -94.55 -55.45 -104.6 -52.4 L-101.65 -48.0 Q-100.35 -45.9 -100.35 -44.55 -100.35 -39.4 -114.2 -33.55 -121.7 -30.35 -123.75 -29.2 -128.1 -26.75 -128.1 -24.4 -128.1 -21.65 -131.75 -19.3 L-136.15 -19.8 -136.95 -20.3 Q-144.3 -20.65 -150.95 -23.8 -150.75 -24.9 -152.0 -24.9 -152.2 -25.85 -153.1 -26.8 L-153.1 -27.85 Q-154.3 -30.7 -156.05 -32.7 L-156.15 -33.45 Q-160.5 -52.85 -152.8 -69.85 L-152.55 -70.0 -152.75 -69.95 -153.1 -69.85 -152.55 -71.5 -152.55 -74.7 -152.0 -75.25 Q-149.75 -80.6 -148.5 -86.3 L-148.0 -87.1 Q-148.45 -88.4 -147.45 -88.45 -145.4 -96.75 -140.95 -103.25 L-140.95 -104.6 Q-138.5 -105.85 -137.2 -107.55" fill="#ff0000" fill-rule="evenodd" stroke="none"/>
  </g>
</svg>
