<?xml version="1.0" encoding="UTF-8" standalone="no"?>
<svg xmlns:xlink="http://www.w3.org/1999/xlink" height="120.7px" width="157.55px" xmlns="http://www.w3.org/2000/svg">
  <g transform="matrix(1.0, 0.0, 0.0, 1.0, 158.55, 120.55)">
    <path d="M-49.05 0.15 L-49.05 -0.3 -48.8 0.15 -49.05 0.15" fill="#0000ff" fill-rule="evenodd" stroke="none"/>
    <path d="M-49.05 0.15 L-55.05 0.15 -55.9 -0.4 -57.05 -0.2 Q-58.1 -0.25 -58.05 -1.2 L-60.1 -1.55 Q-63.75 -2.65 -68.0 -3.1 L-68.55 -3.6 -69.05 -4.15 -69.9 -4.15 Q-71.05 -4.0 -72.05 -4.95 -74.4 -5.0 -76.6 -6.6 L-77.4 -6.6 -78.6 -7.45 Q-79.25 -7.75 -79.85 -8.2 L-84.6 -8.4 -87.1 -8.7 Q-92.2 -9.65 -96.8 -11.4 L-108.65 -11.95 Q-122.7 -19.05 -141.1 -19.3 L-146.35 -21.1 -146.9 -22.2 -148.0 -22.2 -153.9 -26.8 -154.7 -28.4 -154.7 -29.2 -155.8 -31.1 -156.6 -31.35 Q-158.75 -34.35 -158.5 -38.1 L-157.95 -38.9 Q-157.45 -42.55 -154.7 -45.35 L-154.7 -47.5 -155.25 -48.05 -155.25 -49.4 Q-156.75 -58.0 -153.35 -66.9 L-152.8 -67.45 -152.75 -68.25 Q-152.35 -72.45 -149.6 -76.05 -149.15 -79.75 -146.1 -81.7 -145.55 -83.8 -144.2 -85.5 L-143.95 -88.45 -143.4 -89.25 -143.4 -90.35 Q-143.4 -93.65 -142.85 -96.8 L-140.45 -101.35 Q-139.05 -110.3 -129.65 -111.6 L-129.1 -112.15 -115.4 -114.3 -114.85 -114.85 -106.25 -115.1 -105.7 -115.65 -98.7 -115.9 -98.15 -116.45 -88.2 -116.7 -87.65 -117.25 -79.55 -118.05 -78.75 -118.6 -73.1 -118.9 -72.3 -119.4 -64.2 -119.7 -63.35 -120.05 -57.75 -120.2 -57.3 -119.35 -56.95 -118.35 -56.35 -117.3 Q-55.95 -116.6 -55.35 -116.45 L-53.7 -116.45 Q-52.25 -116.15 -52.1 -117.0 L-35.45 -117.8 -23.25 -118.25 -22.35 -117.35 Q-9.7 -117.35 -8.3 -117.15 -5.4 -116.8 -4.5 -115.75 -3.75 -114.9 -3.75 -112.5 -3.75 -108.9 -7.15 -107.1 -8.8 -106.2 -13.45 -104.15 L-13.05 -103.15 Q-6.9 -103.8 -3.7 -101.65 -1.0 -99.75 -1.0 -96.5 -1.0 -92.8 -5.15 -91.15 -8.05 -89.95 -19.5 -86.15 L-20.25 -85.9 -14.7 -87.2 Q-11.15 -88.15 -9.75 -88.15 -4.65 -88.15 -2.75 -85.15 -1.75 -83.6 -1.75 -81.4 -1.75 -76.9 -8.65 -74.45 L-24.25 -70.65 Q-23.65 -68.8 -20.7 -65.05 -18.25 -62.0 -18.25 -58.9 -18.25 -54.7 -22.8 -51.45 -25.85 -49.25 -36.75 -42.65 L-37.0 -42.4 -29.15 -43.6 -22.25 -44.65 Q-15.95 -44.65 -13.55 -41.6 -12.25 -40.0 -12.25 -37.9 -12.25 -33.65 -16.1 -32.0 L-21.25 -30.4 Q-21.35 -29.5 -21.8 -28.55 L-17.75 -28.9 Q-6.0 -28.9 -6.0 -21.4 -6.0 -13.05 -26.95 -7.55 -37.7 -4.75 -51.25 -2.9 -50.15 -2.25 -49.05 -0.3 L-49.05 0.15" fill="#ff0000" fill-rule="evenodd" stroke="none"/>
  </g>
</svg>
