<?xml version="1.0" encoding="UTF-8" standalone="no"?>
<svg xmlns:xlink="http://www.w3.org/1999/xlink" height="128.05px" width="211.5px" xmlns="http://www.w3.org/2000/svg">
  <g transform="matrix(1.0, 0.0, 0.0, 1.0, 163.25, 125.05)">
    <path d="M20.9 -109.05 Q36.8 -111.95 43.8 -106.8 48.25 -103.55 48.25 -98.4 48.25 -95.15 41.0 -90.5 45.75 -90.25 45.75 -87.65 45.75 -86.3 42.5 -84.05 43.75 -82.8 43.75 -80.9 43.75 -77.7 35.0 -70.25 37.6 -68.9 39.2 -66.6 41.2 -63.75 41.25 -60.65 41.25 -55.45 38.8 -53.15 L38.3 -52.7 38.45 -52.6 Q40.5 -51.65 40.5 -49.8 40.5 -44.6 37.25 -43.4 L31.55 -42.55 Q42.55 -42.0 46.2 -36.8 48.3 -33.85 47.75 -30.4 47.75 -25.5 43.5 -21.85 39.65 -18.55 33.2 -17.7 L32.9 -17.7 33.25 -17.35 Q34.4 -16.05 34.0 -14.55 34.0 -12.15 29.3 -8.75 L22.75 -4.4 25.6 -0.2 Q26.2 1.15 26.25 2.8 22.7 2.55 16.4 2.55 L6.3 2.85 2.1 2.7 Q-6.4 3.4 -34.85 2.35 -30.2 2.0 -34.1 2.25 L-47.25 2.15 -49.95 2.1 Q-51.35 1.9 -52.95 0.9 L-56.35 0.6 Q-57.4 0.3 -58.0 -0.15 L-60.05 -1.0 -62.35 -1.6 Q-66.5 -2.15 -71.4 -4.15 L-78.25 -7.05 -89.3 -9.25 Q-99.6 -11.15 -101.05 -11.7 -111.25 -13.9 -116.4 -14.3 -118.2 -15.2 -121.3 -16.2 -128.35 -18.5 -133.75 -18.9 L-146.35 -19.8 Q-154.05 -21.2 -158.05 -26.7 -160.15 -29.65 -163.25 -32.9 L-162.5 -34.0 -162.0 -53.95 -159.85 -58.8 Q-158.0 -75.25 -150.15 -88.4 L-150.1 -89.5 Q-149.95 -91.45 -148.5 -92.2 L-148.3 -93.2 -147.45 -94.9 Q-146.75 -99.65 -144.75 -104.05 L-141.0 -108.9 -137.75 -111.55 -127.5 -115.35 -119.45 -115.9 -117.8 -116.95 -115.2 -117.25 Q-99.85 -120.0 -82.25 -119.1 L-80.65 -120.2 -74.2 -120.75 -74.05 -121.3 -60.75 -125.05 -59.75 -124.8 Q-57.1 -123.65 -55.9 -121.25 -55.5 -120.4 -53.9 -119.95 -50.3 -119.4 -48.35 -118.05 L-45.1 -118.05 Q-36.5 -117.3 -30.55 -119.1 L-5.25 -119.65 -3.65 -120.75 5.5 -120.65 36.75 -121.65 Q36.0 -114.15 20.75 -109.65 L18.75 -108.65 20.9 -109.05 M20.6 -42.2 L22.7 -42.4 20.45 -42.45 20.6 -42.2" fill="#ff0000" fill-rule="evenodd" stroke="none"/>
  </g>
</svg>
