<?xml version="1.0" encoding="UTF-8" standalone="no"?>
<svg xmlns:xlink="http://www.w3.org/1999/xlink" height="126.35px" width="284.45px" xmlns="http://www.w3.org/2000/svg">
  <g transform="matrix(1.0, 0.0, 0.0, 1.0, 158.2, 122.05)">
    <path d="M84.95 -119.3 L86.05 -119.0 89.1 -117.9 Q90.35 -117.9 95.2 -119.15 L101.25 -120.4 Q105.7 -120.4 107.05 -118.2 107.5 -117.45 107.5 -115.75 107.5 -113.45 105.65 -112.2 104.95 -111.7 97.75 -108.15 L97.75 -106.9 106.85 -108.55 114.75 -109.9 Q117.9 -109.9 119.25 -107.35 120.0 -105.95 120.0 -104.5 120.0 -102.6 117.95 -100.8 116.0 -99.05 114.25 -99.15 L112.5 -98.65 Q116.15 -96.2 123.3 -93.1 126.25 -91.8 126.25 -88.75 126.25 -85.65 123.5 -83.5 121.35 -81.75 116.15 -79.75 L105.45 -75.65 Q98.35 -72.75 92.75 -69.4 L92.0 -68.9 Q93.95 -69.05 102.4 -72.05 110.45 -74.9 113.25 -74.9 118.15 -74.9 120.05 -71.9 121.0 -70.4 121.0 -68.55 L98.65 -55.9 Q105.4 -56.8 109.45 -52.6 114.0 -47.85 114.0 -38.65 114.0 -35.25 110.8 -33.45 104.0 -30.35 96.75 -26.65 L105.15 -28.0 112.25 -29.15 Q117.35 -29.15 119.25 -26.15 120.25 -24.6 120.25 -22.4 120.25 -19.3 106.05 -11.85 L97.75 -7.75 Q98.25 -6.15 98.25 -4.4 98.25 -3.4 97.65 -2.3 L108.25 -4.4 Q113.2 -4.4 115.3 -1.4 116.5 0.35 116.5 2.35 L116.5 2.55 107.7 2.7 66.2 3.85 57.2 3.8 43.5 3.9 Q32.1 3.25 11.35 3.4 -8.25 3.55 -19.45 4.3 L-21.2 3.95 -38.75 3.3 -40.9 3.3 -56.25 0.05 -58.0 -0.15 -61.95 -2.2 Q-68.45 -5.65 -69.35 -5.65 -70.9 -5.65 -105.15 -13.7 -121.4 -17.15 -129.75 -17.8 L-133.85 -19.6 -143.6 -20.3 Q-145.0 -21.7 -146.7 -22.55 -150.15 -24.4 -153.9 -24.5 L-155.25 -28.1 -158.2 -35.5 -157.5 -36.75 Q-156.8 -37.8 -156.8 -38.25 -156.8 -41.35 -154.4 -42.8 -152.0 -44.25 -152.0 -45.8 -152.0 -47.25 -153.0 -48.0 -154.1 -48.8 -157.5 -49.9 -155.6 -56.55 -154.85 -60.0 -153.5 -66.1 -154.05 -70.3 -154.3 -72.15 -151.3 -75.15 -147.05 -79.45 -146.5 -80.25 -144.2 -83.7 -143.8 -85.8 L-143.75 -90.75 -143.75 -91.0 Q-142.75 -93.55 -142.35 -95.6 -141.35 -101.05 -140.1 -103.45 -137.85 -107.75 -132.45 -110.4 -127.5 -112.85 -104.65 -115.85 L-91.15 -116.95 Q-82.25 -117.8 -74.45 -119.35 L-56.95 -120.45 Q-55.85 -120.45 -56.05 -119.8 L-56.5 -118.4 Q-56.3 -116.4 -46.15 -116.4 L-21.35 -118.35 7.1 -120.35 Q23.7 -120.35 33.75 -120.7 41.5 -120.2 66.05 -120.2 75.8 -120.2 87.7 -122.05 L84.95 -119.3" fill="#ff0000" fill-rule="evenodd" stroke="none"/>
  </g>
</svg>
