<?xml version="1.0" encoding="UTF-8" standalone="no"?>
<svg xmlns:xlink="http://www.w3.org/1999/xlink" height="203.8px" width="382.65px" xmlns="http://www.w3.org/2000/svg">
  <g transform="matrix(1.0, 0.0, 0.0, 1.0, 158.2, 123.1)">
    <path d="M109.25 -122.95 Q110.85 -123.15 111.15 -122.55 111.55 -121.9 113.05 -121.9 L115.2 -122.2 123.55 -122.65 129.55 -122.95 145.5 -121.4 163.85 -119.9 176.95 -121.9 Q185.2 -121.9 195.45 -114.5 205.5 -107.3 205.5 -102.1 205.5 -101.85 204.7 -101.05 L203.9 -100.2 Q203.9 -99.5 212.1 -92.25 220.3 -85.05 220.3 -81.25 220.3 -80.75 216.85 -77.75 L212.45 -73.85 Q213.6 -72.7 219.35 -71.35 224.45 -70.15 224.45 -68.9 224.45 -68.45 222.65 -67.4 L218.65 -65.0 Q212.8 -61.05 212.8 -56.05 L212.8 -55.55 Q218.9 -55.15 219.55 -52.95 219.8 -52.05 218.6 -49.65 223.5 -50.15 223.5 -47.65 223.5 -46.1 199.55 -34.9 L166.1 -19.55 165.4 -19.4 Q167.4 -18.8 167.85 -17.95 L168.0 -16.4 167.65 -15.1 168.15 -15.1 168.95 -14.55 173.4 -14.35 175.75 -12.65 Q176.1 -12.65 177.05 -13.65 181.45 -13.3 185.65 -12.15 L190.8 -9.7 191.6 -9.7 Q193.85 -7.6 196.7 -7.55 198.0 -5.85 200.45 -4.6 L200.45 -3.25 Q204.9 3.25 206.95 11.55 207.95 11.6 207.5 12.9 L208.0 13.7 Q209.25 19.4 211.5 24.75 L212.05 25.3 212.05 28.5 212.6 30.15 212.05 30.0 212.3 30.15 Q220.0 47.15 215.65 66.55 L215.55 67.3 Q213.8 69.3 212.6 72.15 L212.6 73.2 Q211.7 74.15 211.5 75.1 210.25 75.1 210.45 76.2 203.8 79.35 196.45 79.7 L195.65 80.2 191.25 80.7 Q187.6 78.35 187.6 75.6 187.6 73.25 183.25 70.8 181.2 69.65 173.7 66.45 159.85 60.6 159.85 55.45 159.85 54.1 161.15 52.0 L164.1 47.6 Q154.05 44.55 151.0 42.65 147.85 40.7 147.85 37.35 147.85 35.9 149.95 34.3 L155.1 30.1 153.7 27.7 Q153.1 26.2 153.1 24.5 153.1 22.7 153.7 21.2 154.25 19.85 155.6 18.1 154.05 17.6 152.75 15.5 151.6 13.65 151.6 12.5 151.6 9.9 153.95 7.9 156.1 6.05 159.75 5.8 L160.45 4.85 Q147.5 1.8 140.5 -1.25 123.65 3.6 105.55 3.6 103.9 3.6 102.95 2.85 L66.2 3.85 57.2 3.8 43.5 3.9 Q32.1 3.25 11.35 3.4 -8.25 3.55 -19.45 4.3 L-21.2 3.95 -38.75 3.3 -40.9 3.3 -56.25 0.05 -58.0 -0.15 -61.95 -2.2 Q-68.45 -5.65 -69.35 -5.65 -70.9 -5.65 -105.15 -13.7 -121.4 -17.15 -129.75 -17.8 L-133.85 -19.6 -143.6 -20.3 Q-145.0 -21.7 -146.7 -22.55 -150.15 -24.4 -153.9 -24.5 L-155.25 -28.1 -158.2 -35.5 -157.5 -36.75 Q-156.8 -37.8 -156.8 -38.25 -156.8 -41.35 -154.4 -42.8 -152.0 -44.25 -152.0 -45.8 -152.0 -47.25 -153.0 -48.0 -154.1 -48.8 -157.5 -49.9 -155.6 -56.55 -154.85 -60.0 -153.5 -66.1 -154.05 -70.3 -154.3 -72.15 -151.3 -75.15 -147.05 -79.45 -146.5 -80.25 -144.2 -83.7 -143.8 -85.8 L-143.75 -90.75 -143.75 -91.0 Q-142.75 -93.55 -142.35 -95.6 -141.35 -101.05 -140.1 -103.45 -137.85 -107.75 -132.45 -110.4 -127.5 -112.85 -104.65 -115.85 L-91.15 -116.95 Q-82.25 -117.8 -74.45 -119.35 L-56.95 -120.45 Q-55.85 -120.45 -56.05 -119.8 L-56.5 -118.4 Q-56.3 -116.4 -46.15 -116.4 L-21.35 -118.35 7.1 -120.35 Q23.7 -120.35 33.75 -120.7 41.5 -120.2 66.05 -120.2 75.8 -120.2 87.7 -122.05 L86.75 -121.1 91.4 -121.9 Q102.55 -123.55 109.25 -122.95" fill="#ff0000" fill-rule="evenodd" stroke="none"/>
  </g>
</svg>
