<?xml version="1.0" encoding="UTF-8" standalone="no"?>
<svg xmlns:xlink="http://www.w3.org/1999/xlink" height="223.25px" width="382.65px" xmlns="http://www.w3.org/2000/svg">
  <g transform="matrix(1.0, 0.0, 0.0, 1.0, 158.2, 123.1)">
    <path d="M108.55 100.15 L108.3 100.15 108.55 99.7 108.55 100.15" fill="#0000ff" fill-rule="evenodd" stroke="none"/>
    <path d="M108.55 99.7 Q109.65 97.75 110.75 97.1 97.2 95.25 86.45 92.45 65.5 86.95 65.5 78.6 65.5 71.1 77.25 71.1 L81.3 71.45 Q80.85 70.5 80.75 69.6 L75.6 68.0 Q71.75 66.35 71.75 62.1 71.75 60.0 73.05 58.4 75.45 55.35 81.75 55.35 L88.65 56.4 96.5 57.6 96.25 57.35 82.3 48.55 Q77.75 45.3 77.75 41.1 77.75 38.0 80.2 34.95 83.15 31.2 83.75 29.35 L68.15 25.55 Q61.25 23.1 61.25 18.6 61.25 16.4 62.25 14.85 64.15 11.85 69.25 11.85 L74.2 12.8 79.75 14.1 79.0 13.85 Q67.55 10.05 64.65 8.85 60.65 7.25 60.5 3.8 L57.2 3.8 43.5 3.9 Q32.1 3.25 11.35 3.4 -8.25 3.55 -19.45 4.3 L-21.2 3.95 -38.75 3.3 -40.9 3.3 -56.25 0.05 -58.0 -0.15 -61.95 -2.2 Q-68.45 -5.65 -69.35 -5.65 -70.9 -5.65 -105.15 -13.7 -121.4 -17.15 -129.75 -17.8 L-133.85 -19.6 -143.6 -20.3 Q-145.0 -21.7 -146.7 -22.55 -150.15 -24.4 -153.9 -24.5 L-155.25 -28.1 -158.2 -35.5 -157.5 -36.75 Q-156.8 -37.8 -156.8 -38.25 -156.8 -41.35 -154.4 -42.8 -152.0 -44.25 -152.0 -45.8 -152.0 -47.25 -153.0 -48.0 -154.1 -48.8 -157.5 -49.9 -155.6 -56.55 -154.85 -60.0 -153.5 -66.1 -154.05 -70.3 -154.3 -72.15 -151.3 -75.15 -147.05 -79.45 -146.5 -80.25 -144.2 -83.7 -143.8 -85.8 L-143.75 -90.75 -143.75 -91.0 Q-142.75 -93.55 -142.35 -95.6 -141.35 -101.05 -140.1 -103.45 -137.85 -107.75 -132.45 -110.4 -127.5 -112.85 -104.65 -115.85 L-91.15 -116.95 Q-82.25 -117.8 -74.45 -119.35 L-56.95 -120.45 Q-55.85 -120.45 -56.05 -119.8 L-56.5 -118.4 Q-56.3 -116.4 -46.15 -116.4 L-21.35 -118.35 7.1 -120.35 Q23.7 -120.35 33.75 -120.7 41.5 -120.2 66.05 -120.2 75.8 -120.2 87.7 -122.05 L86.75 -121.1 91.4 -121.9 Q102.55 -123.55 109.25 -122.95 110.85 -123.15 111.15 -122.55 111.55 -121.9 113.05 -121.9 L115.2 -122.2 123.55 -122.65 129.55 -122.95 145.5 -121.4 163.85 -119.9 176.95 -121.9 Q185.2 -121.9 195.45 -114.5 205.5 -107.3 205.5 -102.1 205.5 -101.85 204.7 -101.05 L203.9 -100.2 Q203.9 -99.5 212.1 -92.25 220.3 -85.05 220.3 -81.25 220.3 -80.75 216.85 -77.75 L212.45 -73.85 Q213.6 -72.7 219.35 -71.35 224.45 -70.15 224.45 -68.9 224.45 -68.45 222.65 -67.4 L218.65 -65.0 Q212.8 -61.05 212.8 -56.05 L212.8 -55.55 Q218.9 -55.15 219.55 -52.95 219.8 -52.05 218.6 -49.65 223.5 -50.15 223.5 -47.65 223.5 -46.1 199.55 -34.9 L166.1 -19.55 165.4 -19.4 Q167.4 -18.8 167.85 -17.95 L168.0 -16.4 Q168.0 -15.75 167.6 -15.05 L174.35 -14.85 174.9 -14.3 188.6 -12.15 189.15 -11.6 Q198.55 -10.3 199.95 -1.35 L202.35 3.2 Q202.9 6.35 202.9 9.65 L202.9 10.75 203.45 11.55 203.7 14.5 Q205.05 16.2 205.6 18.3 208.65 20.25 209.1 23.95 211.85 27.55 212.25 31.75 L212.3 32.55 212.85 33.1 Q216.25 42.0 214.75 50.6 L214.75 51.95 214.2 52.5 214.2 54.65 Q216.95 57.45 217.45 61.1 L218.0 61.9 Q218.25 65.65 216.1 68.65 L215.3 68.9 214.2 70.8 214.2 71.6 213.4 73.2 207.5 77.8 206.4 77.8 205.85 78.9 200.6 80.7 Q182.2 80.95 168.15 88.05 L156.3 88.6 Q151.7 90.35 146.6 91.3 L144.1 91.6 139.35 91.8 138.1 92.55 136.9 93.4 136.1 93.4 Q133.9 95.0 131.55 95.05 130.55 96.0 129.4 95.85 L128.55 95.85 128.05 96.4 127.5 96.9 Q123.25 97.35 119.6 98.45 L117.55 98.8 Q117.6 99.75 116.55 99.8 L115.4 99.6 114.55 100.15 108.55 100.15 108.55 99.7" fill="#ff0000" fill-rule="evenodd" stroke="none"/>
  </g>
</svg>
