<?xml version="1.0" encoding="UTF-8" standalone="no"?>
<svg xmlns:xlink="http://www.w3.org/1999/xlink" height="226.1px" width="382.65px" xmlns="http://www.w3.org/2000/svg">
  <g transform="matrix(1.0, 0.0, 0.0, 1.0, 158.2, 123.1)">
    <path d="M86.75 -121.1 L87.75 -121.3 91.4 -121.9 Q102.55 -123.55 109.25 -122.95 110.85 -123.15 111.15 -122.55 111.55 -121.9 113.05 -121.9 L115.2 -122.2 123.55 -122.65 129.55 -122.95 145.5 -121.4 163.85 -119.9 176.95 -121.9 Q185.2 -121.9 195.45 -114.5 205.5 -107.3 205.5 -102.1 205.5 -101.85 204.7 -101.05 L203.9 -100.2 Q203.9 -99.5 212.1 -92.25 220.3 -85.05 220.3 -81.25 220.3 -80.75 216.85 -77.75 L212.45 -73.85 Q213.6 -72.7 219.35 -71.35 224.45 -70.15 224.45 -68.9 224.45 -68.45 222.65 -67.4 L218.65 -65.0 Q212.8 -61.05 212.8 -56.05 L212.8 -55.55 Q218.9 -55.15 219.55 -52.95 219.8 -52.05 218.6 -49.65 223.5 -50.15 223.5 -47.65 223.5 -46.1 199.55 -34.9 L166.1 -19.55 165.4 -19.4 166.05 -19.2 Q167.1 -18.8 167.6 -18.3 L174.7 -17.25 177.3 -16.95 178.95 -15.9 187.0 -15.35 197.25 -11.55 200.5 -8.9 204.25 -4.05 Q206.25 0.35 206.95 5.1 L207.8 6.8 208.0 7.8 Q209.45 8.55 209.6 10.5 L209.65 11.6 Q217.5 24.75 219.35 41.2 L221.5 46.05 222.0 66.0 222.75 67.1 Q219.65 70.35 217.55 73.3 213.55 78.8 205.85 80.2 L193.25 81.1 Q187.85 81.5 180.8 83.8 177.7 84.8 175.9 85.7 170.75 86.1 160.55 88.3 L148.8 90.75 137.75 92.95 130.9 95.85 Q126.0 97.85 121.85 98.4 L119.55 99.0 117.5 99.85 Q116.9 100.3 115.85 100.6 L112.45 100.9 Q110.85 101.9 109.45 102.1 L106.75 102.15 93.6 102.25 Q89.7 102.0 94.35 102.35 65.9 103.4 57.4 102.7 L53.2 102.85 43.1 102.55 Q36.8 102.55 33.25 102.8 33.3 101.15 33.9 99.8 34.55 98.45 36.75 95.6 L30.2 91.25 Q25.5 87.85 25.5 85.45 25.1 83.95 26.25 82.65 L26.6 82.3 26.3 82.3 Q19.85 81.45 16.0 78.15 11.75 74.5 11.75 69.6 11.2 66.15 13.3 63.2 16.95 58.0 27.95 57.45 L22.25 56.6 Q19.0 55.4 19.0 50.2 19.0 48.35 21.05 47.4 L21.2 47.3 20.7 46.85 Q18.25 44.55 18.25 39.35 18.3 36.25 20.3 33.4 21.9 31.1 24.5 29.75 15.75 22.3 15.75 19.1 15.75 17.2 17.0 15.95 13.75 13.7 13.75 12.35 13.75 9.75 18.5 9.5 13.15 6.05 11.75 3.4 L11.35 3.4 Q-8.25 3.55 -19.45 4.3 L-21.2 3.95 -38.75 3.3 -40.9 3.3 -56.25 0.05 -58.0 -0.15 -61.95 -2.2 Q-68.45 -5.65 -69.35 -5.65 -70.9 -5.65 -105.15 -13.7 -121.4 -17.15 -129.75 -17.8 L-133.85 -19.6 -143.6 -20.3 Q-145.0 -21.7 -146.7 -22.55 -150.15 -24.4 -153.9 -24.5 L-155.25 -28.1 -158.2 -35.5 -157.5 -36.75 Q-156.8 -37.8 -156.8 -38.25 -156.8 -41.35 -154.4 -42.8 -152.0 -44.25 -152.0 -45.8 -152.0 -47.25 -153.0 -48.0 -154.1 -48.8 -157.5 -49.9 -155.6 -56.55 -154.85 -60.0 -153.5 -66.1 -154.05 -70.3 -154.3 -72.15 -151.3 -75.15 -147.05 -79.45 -146.5 -80.25 -144.2 -83.7 -143.8 -85.8 L-143.75 -90.75 -143.75 -91.0 Q-142.75 -93.55 -142.35 -95.6 -141.35 -101.05 -140.1 -103.45 -137.85 -107.75 -132.45 -110.4 -127.5 -112.85 -104.65 -115.85 L-91.15 -116.95 Q-82.25 -117.8 -74.45 -119.35 L-56.95 -120.45 Q-55.85 -120.45 -56.05 -119.8 L-56.5 -118.4 Q-56.3 -116.4 -46.15 -116.4 L-21.35 -118.35 7.1 -120.35 Q23.7 -120.35 33.75 -120.7 41.5 -120.2 66.05 -120.2 75.8 -120.2 87.7 -122.05 L86.75 -121.1 M38.9 57.8 L39.05 57.55 36.8 57.6 38.9 57.8" fill="#ff0000" fill-rule="evenodd" stroke="none"/>
  </g>
</svg>
