<?xml version="1.0" encoding="UTF-8" standalone="no"?>
<svg xmlns:xlink="http://www.w3.org/1999/xlink" height="227.4px" width="382.65px" xmlns="http://www.w3.org/2000/svg">
  <g transform="matrix(1.0, 0.0, 0.0, 1.0, 158.2, 123.1)">
    <path d="M109.25 -122.95 Q110.85 -123.15 111.15 -122.55 111.55 -121.9 113.05 -121.9 L115.2 -122.2 123.55 -122.65 129.55 -122.95 145.5 -121.4 163.85 -119.9 176.95 -121.9 Q185.2 -121.9 195.45 -114.5 205.5 -107.3 205.5 -102.1 205.5 -101.85 204.7 -101.05 L203.9 -100.2 Q203.9 -99.5 212.1 -92.25 220.3 -85.05 220.3 -81.25 220.3 -80.75 216.85 -77.75 L212.45 -73.85 Q213.6 -72.7 219.35 -71.35 224.45 -70.15 224.45 -68.9 224.45 -68.45 222.65 -67.4 L218.65 -65.0 Q212.8 -61.05 212.8 -56.05 L212.8 -55.55 Q218.9 -55.15 219.55 -52.95 219.8 -52.05 218.6 -49.65 223.5 -50.15 223.5 -47.65 223.5 -46.1 199.55 -34.9 L166.1 -19.55 165.4 -19.4 Q167.4 -18.8 167.85 -17.95 L168.0 -16.4 167.75 -15.35 Q187.4 -12.65 191.95 -10.4 197.35 -7.75 199.6 -3.45 200.85 -1.05 201.85 4.4 202.25 6.45 203.25 9.0 L203.25 9.25 203.3 14.2 Q203.7 16.3 206.0 19.75 L210.8 24.85 Q213.8 27.85 213.55 29.7 213.0 33.9 214.35 40.0 215.1 43.45 217.0 50.1 213.6 51.2 212.5 52.0 211.5 52.75 211.5 54.2 211.5 55.75 213.9 57.2 216.3 58.65 216.3 61.75 216.3 62.2 217.0 63.25 L217.7 64.5 214.75 71.9 213.4 75.5 Q209.65 75.6 206.2 77.45 204.5 78.3 203.1 79.7 L193.35 80.4 189.25 82.2 Q180.9 82.85 164.65 86.3 130.4 94.35 128.85 94.35 127.95 94.35 121.45 97.8 L117.5 99.85 115.75 100.05 100.4 103.3 98.25 103.3 80.7 103.95 78.95 104.3 Q67.75 103.55 48.15 103.4 27.4 103.25 16.0 103.9 L2.3 103.8 -6.7 103.85 -48.2 102.7 -57.0 102.55 -57.0 102.35 Q-57.0 100.35 -55.8 98.6 -53.7 95.6 -48.75 95.6 L-38.15 97.7 -38.1 97.7 Q-38.75 96.6 -38.75 95.6 -38.75 93.85 -38.25 92.25 -42.0 90.35 -46.55 88.15 -60.75 80.7 -60.75 77.6 -60.75 75.4 -59.75 73.85 -57.85 70.85 -52.75 70.85 L-45.65 72.0 -37.25 73.35 Q-44.5 69.65 -51.3 66.55 -54.5 64.75 -54.5 61.35 -54.5 52.15 -49.95 47.4 -45.9 43.2 -39.15 44.1 L-61.5 31.45 Q-61.5 29.6 -60.55 28.1 -58.65 25.1 -53.75 25.1 -50.95 25.1 -42.9 27.95 -34.45 30.95 -32.5 31.1 L-33.25 30.6 Q-38.85 27.25 -45.95 24.35 L-56.65 20.25 Q-61.85 18.25 -64.0 16.5 -66.75 14.35 -66.75 11.25 -66.75 8.2 -63.8 6.9 -56.65 3.8 -53.0 1.35 L-54.75 0.85 Q-56.1 0.95 -57.6 -0.1 L-58.0 -0.15 -61.95 -2.2 Q-68.45 -5.65 -69.35 -5.65 -70.9 -5.65 -105.15 -13.7 -121.4 -17.15 -129.75 -17.8 L-133.85 -19.6 -143.6 -20.3 Q-145.0 -21.7 -146.7 -22.55 -150.15 -24.4 -153.9 -24.5 L-155.25 -28.1 -158.2 -35.5 -157.5 -36.75 Q-156.8 -37.8 -156.8 -38.25 -156.8 -41.35 -154.4 -42.8 -152.0 -44.25 -152.0 -45.8 -152.0 -47.25 -153.0 -48.0 -154.1 -48.8 -157.5 -49.9 -155.6 -56.55 -154.85 -60.0 -153.5 -66.1 -154.05 -70.3 -154.3 -72.15 -151.3 -75.15 -147.05 -79.45 -146.5 -80.25 -144.2 -83.7 -143.8 -85.8 L-143.75 -90.75 -143.75 -91.0 Q-142.75 -93.55 -142.35 -95.6 -141.35 -101.05 -140.1 -103.45 -137.85 -107.75 -132.45 -110.4 -127.5 -112.85 -104.65 -115.85 L-91.15 -116.95 Q-82.25 -117.8 -74.45 -119.35 L-56.95 -120.45 Q-55.85 -120.45 -56.05 -119.8 L-56.5 -118.4 Q-56.3 -116.4 -46.15 -116.4 L-21.35 -118.35 7.1 -120.35 Q23.7 -120.35 33.75 -120.7 41.5 -120.2 66.05 -120.2 75.8 -120.2 87.7 -122.05 L86.75 -121.1 91.4 -121.9 Q102.55 -123.55 109.25 -122.95" fill="#ff0000" fill-rule="evenodd" stroke="none"/>
  </g>
</svg>
