<?xml version="1.0" encoding="UTF-8" standalone="no"?>
<svg xmlns:xlink="http://www.w3.org/1999/xlink" height="278.7px" width="389.4px" xmlns="http://www.w3.org/2000/svg">
  <g transform="matrix(1.0, 0.0, 0.0, 1.0, 164.95, 123.1)">
    <path d="M113.05 -121.9 L115.2 -122.2 123.55 -122.65 129.55 -122.95 145.5 -121.4 163.85 -119.9 176.95 -121.9 Q185.2 -121.9 195.45 -114.5 205.5 -107.3 205.5 -102.1 205.5 -101.85 204.7 -101.05 L203.9 -100.2 Q203.9 -99.5 212.1 -92.25 220.3 -85.05 220.3 -81.25 220.3 -80.75 216.85 -77.75 L212.45 -73.85 Q213.6 -72.7 219.35 -71.35 224.45 -70.15 224.45 -68.9 224.45 -68.45 222.65 -67.4 L218.65 -65.0 Q212.8 -61.05 212.8 -56.05 L212.8 -55.55 Q218.9 -55.15 219.55 -52.95 219.8 -52.05 218.6 -49.65 223.5 -50.15 223.5 -47.65 223.5 -46.1 199.55 -34.9 L166.1 -19.55 165.4 -19.4 Q167.4 -18.8 167.85 -17.95 L168.0 -16.4 167.75 -15.35 Q187.4 -12.65 191.95 -10.4 197.35 -7.75 199.6 -3.45 200.85 -1.05 201.85 4.4 202.25 6.45 203.25 9.0 L203.25 9.25 203.3 14.2 Q203.7 16.3 206.0 19.75 L210.8 24.85 Q213.8 27.85 213.55 29.7 213.0 33.9 214.35 40.0 215.1 43.45 217.0 50.1 213.6 51.2 212.5 52.0 211.5 52.75 211.5 54.2 211.5 55.75 213.9 57.2 216.3 58.65 216.3 61.75 216.3 62.2 217.0 63.25 L217.7 64.5 214.75 71.9 213.4 75.5 Q209.65 75.6 206.2 77.45 204.5 78.3 203.1 79.7 L193.35 80.4 189.25 82.2 Q180.9 82.85 164.65 86.3 130.4 94.35 128.85 94.35 127.95 94.35 121.45 97.8 L117.5 99.85 115.75 100.05 100.4 103.3 98.25 103.3 80.7 103.95 78.95 104.3 Q67.75 103.55 48.15 103.4 27.4 103.25 16.0 103.9 L2.3 103.8 -6.7 103.85 -9.9 103.8 -9.75 105.0 Q-9.75 108.0 -12.9 113.2 -16.0 118.3 -20.75 123.35 -32.4 135.6 -41.25 135.6 L-54.8 142.85 -65.85 148.6 -67.3 150.35 Q-71.8 155.6 -76.0 155.6 L-81.45 155.35 Q-84.55 153.85 -93.0 151.6 -95.6 151.0 -97.25 148.85 L-98.6 146.85 Q-102.7 146.85 -105.75 148.25 -108.8 149.6 -112.85 149.6 L-117.15 149.65 -125.35 148.75 Q-136.9 146.15 -136.35 137.35 L-136.35 136.6 Q-139.95 138.1 -142.95 140.75 -144.75 142.35 -148.35 142.35 -153.05 142.35 -154.65 139.8 -155.35 138.7 -155.35 137.0 -155.35 134.25 -151.45 131.35 -146.15 127.8 -143.35 125.35 -144.5 124.2 -145.15 122.65 -145.8 121.0 -145.6 119.35 L-147.55 119.85 -150.85 120.35 Q-155.1 120.35 -156.15 118.75 -156.35 118.4 -156.35 116.85 -156.35 113.35 -115.4 100.65 -102.55 96.65 -93.75 94.25 -99.55 91.8 -103.5 89.15 -108.5 85.8 -108.5 83.6 L-108.35 82.05 Q-107.9 81.2 -105.9 80.6 L-106.6 80.45 -140.05 65.1 Q-164.0 53.9 -164.0 52.35 -164.0 49.85 -159.1 50.35 -160.3 47.95 -160.05 47.05 -159.4 44.85 -153.3 44.45 L-153.3 43.95 Q-153.3 38.95 -159.15 35.0 L-163.15 32.6 Q-164.95 31.55 -164.95 31.1 -164.95 29.85 -159.85 28.65 -154.1 27.3 -152.95 26.15 L-157.35 22.25 Q-160.8 19.25 -160.8 18.75 -160.8 14.95 -152.6 7.75 -144.4 0.5 -144.4 -0.2 L-145.2 -1.05 -146.0 -2.1 Q-146.0 -7.3 -135.95 -14.5 L-130.35 -18.05 -133.85 -19.6 -143.6 -20.3 Q-145.0 -21.7 -146.7 -22.55 -150.15 -24.4 -153.9 -24.5 L-155.25 -28.1 -158.2 -35.5 -157.5 -36.75 Q-156.8 -37.8 -156.8 -38.25 -156.8 -41.35 -154.4 -42.8 -152.0 -44.25 -152.0 -45.8 -152.0 -47.25 -153.0 -48.0 -154.1 -48.8 -157.5 -49.9 -155.6 -56.55 -154.85 -60.0 -153.5 -66.1 -154.05 -70.3 -154.3 -72.15 -151.3 -75.15 -147.05 -79.45 -146.5 -80.25 -144.2 -83.7 -143.8 -85.8 L-143.75 -90.75 -143.75 -91.0 Q-142.75 -93.55 -142.35 -95.6 -141.35 -101.05 -140.1 -103.45 -137.85 -107.75 -132.45 -110.4 -127.5 -112.85 -104.65 -115.85 L-91.15 -116.95 Q-82.25 -117.8 -74.45 -119.35 L-56.95 -120.45 Q-55.85 -120.45 -56.05 -119.8 L-56.5 -118.4 Q-56.3 -116.4 -46.15 -116.4 L-21.35 -118.35 7.1 -120.35 Q23.7 -120.35 33.75 -120.7 41.5 -120.2 66.05 -120.2 75.8 -120.2 87.7 -122.05 L86.75 -121.1 91.4 -121.9 Q102.55 -123.55 109.25 -122.95 110.85 -123.15 111.15 -122.55 111.55 -121.9 113.05 -121.9" fill="#ff0000" fill-rule="evenodd" stroke="none"/>
  </g>
</svg>
