<?xml version="1.0" encoding="UTF-8" standalone="no"?>
<svg xmlns:xlink="http://www.w3.org/1999/xlink" height="16.75px" width="17.75px" xmlns="http://www.w3.org/2000/svg">
  <g transform="matrix(1.0, 0.0, 0.0, 1.0, 0.0, 0.0)">
    <path d="M14.15 4.25 Q10.95 0.7 5.55 0.7 10.05 -1.0 13.05 1.35 16.05 3.7 16.9 5.7 17.75 7.65 17.75 9.45 17.75 11.25 16.0 14.05 14.25 16.85 8.45 16.75 2.65 16.65 1.25 13.6 -0.2 10.55 0.0 8.1 0.2 5.6 2.4 3.45 4.55 1.3 7.9 1.3 L9.5 1.4 10.05 1.8 Q6.4 1.55 3.9 3.5 1.35 5.45 1.3 7.95 1.25 10.45 2.55 13.05 3.8 15.65 8.7 15.5 13.6 15.3 15.15 13.1 16.7 10.85 16.65 8.9 16.6 6.9 14.15 4.25" fill="#5b5546" fill-rule="evenodd" stroke="none"/>
  </g>
</svg>
