<?xml version="1.0" encoding="UTF-8" standalone="no"?>
<svg xmlns:xlink="http://www.w3.org/1999/xlink" height="243.8px" width="177.2px" xmlns="http://www.w3.org/2000/svg">
  <g transform="matrix(1.0, 0.0, 0.0, 1.0, 19.5, 79.55)">
    <path d="M105.5 32.75 Q103.7 32.0 99.7 30.8 L95.3 29.5 99.65 31.05 105.5 32.75 M39.5 -28.85 Q39.5 -30.3 40.0 -31.3 41.05 -33.5 44.0 -33.5 46.75 -33.5 70.25 -22.75 72.4 -22.75 74.25 -25.75 75.75 -28.2 75.75 -29.5 75.75 -30.25 74.4 -31.75 73.0 -33.25 73.0 -34.0 73.0 -35.55 78.55 -40.4 84.15 -45.25 86.5 -45.75 L86.5 -48.35 Q87.3 -50.75 92.0 -50.75 93.5 -50.75 96.0 -49.75 L98.5 -48.75 Q98.75 -53.0 103.9 -55.3 108.45 -57.3 115.05 -57.2 121.45 -57.1 126.05 -55.0 131.0 -52.75 131.0 -49.25 131.0 -47.65 130.55 -47.1 L129.5 -46.25 134.55 -41.9 Q138.25 -38.45 138.25 -37.25 138.25 -35.3 134.4 -34.3 129.15 -32.9 126.25 -30.0 132.25 -25.8 132.25 -24.0 132.25 -21.2 128.05 -18.9 L119.25 -14.0 121.0 -13.25 Q125.95 -11.85 127.6 -9.85 128.5 -8.75 128.5 -6.85 128.5 -5.1 122.75 3.25 122.75 4.85 123.9 6.75 L125.45 9.6 Q126.35 12.7 118.25 16.5 122.2 20.45 126.35 22.35 128.75 23.45 128.75 25.1 128.75 30.85 121.75 29.75 L121.65 33.55 Q120.85 37.0 117.0 37.0 115.3 37.0 112.55 36.05 110.2 35.25 109.0 34.5 109.0 35.0 109.5 35.75 110.75 38.0 108.35 42.85 L104.5 50.0 Q113.45 53.85 116.7 56.45 119.75 58.9 119.75 62.0 119.95 63.6 119.05 65.0 117.2 67.75 111.5 67.75 110.25 67.75 106.2 66.55 102.4 65.4 101.5 65.5 104.3 67.9 111.0 72.3 113.5 73.9 113.5 76.75 113.7 78.35 112.7 79.75 110.8 82.5 105.0 82.5 L94.65 81.5 Q89.85 80.65 87.75 79.75 L88.75 80.5 99.85 85.95 Q101.75 87.1 101.75 89.25 101.75 90.3 99.75 93.2 97.35 96.8 94.05 99.4 84.35 107.2 73.0 102.25 80.2 106.45 87.9 110.2 92.0 112.7 92.0 116.85 L91.55 120.1 Q90.1 123.0 85.0 123.0 L77.65 121.95 69.5 120.5 69.75 121.25 Q70.1 125.55 69.9 126.45 69.05 130.75 64.0 130.75 60.2 130.75 50.8 121.25 42.0 112.4 42.0 111.1 41.9 109.3 43.05 107.75 45.4 104.65 52.0 104.75 L50.5 104.0 Q37.4 97.85 34.9 96.4 32.0 94.75 32.0 91.25 32.05 89.3 32.8 87.55 34.3 84.0 38.0 84.0 L43.05 84.9 50.75 85.75 49.25 85.0 Q46.2 83.0 44.95 81.7 43.25 79.9 43.25 77.85 43.25 76.3 43.95 75.05 L45.25 73.0 Q37.3 68.7 34.7 66.6 31.25 63.85 31.25 61.0 31.25 59.8 32.3 58.05 33.9 55.25 37.0 55.25 L51.5 57.25 Q47.5 53.9 40.45 51.1 38.3 50.2 37.5 49.35 36.5 48.15 36.5 45.85 36.5 43.25 37.65 42.25 38.55 41.5 40.85 41.15 47.85 40.15 51.5 37.5 L38.55 31.45 Q34.5 29.3 34.5 25.85 34.5 24.4 35.7 22.85 37.4 20.75 40.5 20.25 38.0 17.45 38.0 12.35 L37.9 9.4 Q38.0 7.3 39.05 6.1 42.25 2.55 54.5 5.25 L52.0 4.0 Q48.25 1.85 40.75 -0.65 37.25 -1.75 37.25 -4.85 37.25 -5.2 38.15 -6.9 L40.0 -9.75 Q38.55 -11.2 37.8 -12.95 37.25 -14.2 37.25 -15.0 37.25 -17.6 38.5 -19.1 L43.0 -23.25 41.0 -26.25 Q39.5 -28.2 39.5 -28.85" fill="#996600" fill-opacity="0.2" fill-rule="evenodd" stroke="none"/>
    <path d="M76.7 -33.4 Q76.0 -34.35 76.0 -36.0 76.0 -36.65 82.5 -42.25 89.45 -48.25 92.0 -48.25 93.25 -48.25 94.75 -47.25 96.25 -46.25 97.5 -46.25 L105.75 -48.1 Q114.25 -50.0 116.5 -50.0 L123.05 -49.65 Q128.15 -49.35 129.75 -49.5 L128.5 -50.25 Q127.0 -50.9 124.3 -50.95 L121.0 -50.75 120.75 -51.25 Q129.35 -55.3 132.05 -50.4 133.25 -48.2 133.25 -42.25 L133.0 -40.35 Q131.75 -38.75 126.5 -38.75 L117.15 -38.5 106.25 -38.0 106.75 -37.75 115.9 -30.5 Q121.25 -26.0 121.25 -23.75 121.25 -21.35 120.3 -20.3 118.3 -18.25 112.0 -18.5 L112.25 -18.25 115.9 -14.4 Q117.0 -12.75 117.0 -11.0 117.0 -9.15 116.5 -8.35 114.9 -6.0 109.5 -6.0 108.05 -6.0 105.1 -7.0 L102.0 -8.0 Q101.8 -7.45 102.1 -5.9 102.4 -4.6 101.75 -4.05 99.85 -2.3 86.25 -3.25 88.05 -0.45 87.75 2.05 87.2 7.0 77.0 7.0 L71.7 6.3 Q68.25 5.55 67.5 5.0 64.85 8.35 61.15 11.55 56.9 15.25 55.0 15.25 51.0 15.25 47.55 11.0 44.75 7.6 44.75 6.1 44.75 5.05 50.8 -1.15 57.3 -7.85 60.5 -8.25 L60.0 -8.75 Q56.2 -11.0 54.9 -12.1 52.75 -13.95 52.75 -15.85 52.75 -17.45 53.5 -18.7 54.95 -21.25 59.0 -21.25 61.55 -21.25 65.05 -18.85 68.25 -16.7 74.5 -17.25 L65.05 -22.2 Q61.0 -24.5 61.0 -27.0 61.0 -28.5 61.7 -29.65 63.25 -32.0 67.5 -32.0 L72.3 -31.45 Q75.9 -31.05 78.75 -31.5 L78.5 -31.75 Q76.95 -33.05 76.7 -33.4" fill="#996600" fill-opacity="0.2" fill-rule="evenodd" stroke="none"/>
    <path d="M113.1 9.35 Q120.4 12.65 121.25 24.5 120.85 26.45 119.55 26.95 L112.0 27.5 108.35 27.15 106.0 26.75 Q106.25 29.8 105.0 31.35 102.7 34.1 92.25 34.25 L92.5 34.5 Q92.45 35.65 93.75 39.8 94.25 43.85 90.0 46.0 80.1 51.2 78.0 50.55 L77.55 53.5 Q76.7 56.0 74.0 56.0 70.85 56.0 70.0 51.0 L69.75 45.75 Q69.75 42.55 72.25 39.65 75.85 35.4 82.5 37.5 L82.5 37.0 Q79.85 30.05 85.05 22.05 89.85 14.65 98.15 10.7 106.8 6.55 113.1 9.35" fill="#996600" fill-opacity="0.2" fill-rule="evenodd" stroke="none"/>
    <path d="M37.95 -69.85 Q38.4 -68.25 50.75 -68.25 L92.8 -70.3 125.05 -73.3 Q139.6 -74.3 145.7 -72.4 L157.7 -68.1 Q153.0 -65.95 149.5 -65.35 153.0 -61.35 137.5 -52.0 121.4 -42.25 116.5 -42.25 104.85 -42.25 103.75 -44.7 103.45 -45.4 103.9 -47.0 104.35 -48.55 104.0 -49.25 102.15 -48.1 95.75 -47.0 L96.8 -45.3 Q97.25 -44.4 97.25 -42.85 97.25 -39.5 94.55 -37.95 92.25 -36.55 86.65 -35.85 L63.4 -33.3 Q61.65 -34.9 60.5 -35.4 L56.5 -36.75 Q56.25 -37.5 53.0 -38.25 L44.2 -38.45 Q36.0 -38.55 36.0 -37.0 36.0 -35.45 41.4 -35.45 L46.75 -35.75 Q43.8 -35.1 46.4 -33.95 48.6 -33.0 51.25 -32.75 L55.55 -32.0 55.5 -32.0 55.95 -31.15 56.25 -29.0 Q56.25 -21.25 6.9 -16.05 L4.15 -15.75 4.0 -16.85 Q4.0 -21.0 0.45 -23.6 -0.1 -24.05 -11.75 -30.5 L-12.25 -30.75 Q-6.85 -30.6 -4.45 -34.35 -3.0 -36.55 -3.0 -38.85 -3.0 -42.65 -5.6 -44.75 -8.7 -47.25 -18.0 -50.25 L-17.3 -52.3 Q-17.0 -53.5 -17.0 -55.1 -17.0 -56.8 -17.8 -58.3 L-19.5 -60.75 Q-15.05 -63.15 -12.8 -67.0 -11.55 -69.2 -11.15 -71.45 L28.0 -71.5 Q37.55 -71.5 37.95 -69.85" fill="#9fd26c" fill-opacity="0.3019608" fill-rule="evenodd" stroke="none"/>
    <path d="M38.9 -69.05 L63.25 -70.0 83.7 -70.8 101.0 -71.25 Q131.55 -71.25 140.05 -69.25 143.65 -68.4 144.7 -66.9 145.25 -66.1 145.25 -63.85 145.25 -61.3 101.9 -52.75 82.0 -48.85 50.05 -51.9 42.2 -49.35 38.65 -47.25 L5.3 -49.65 -17.6 -51.3 -17.3 -52.3 Q-17.0 -53.5 -17.0 -55.1 -17.0 -56.8 -17.8 -58.3 L-19.5 -60.75 Q-15.05 -63.15 -12.8 -67.0 -12.05 -68.35 -11.6 -69.65 L-11.0 -69.55 17.75 -68.5 38.9 -69.05" fill="#9fd26c" fill-opacity="0.3019608" fill-rule="evenodd" stroke="none"/>
    <path d="M66.3 -70.75 L73.1 -69.75 94.15 -71.25 112.75 -73.55 Q121.85 -74.45 125.95 -73.45 131.0 -72.2 131.0 -67.75 131.0 -62.9 129.05 -62.55 L118.0 -62.75 105.35 -61.8 94.1 -59.75 Q75.2 -56.75 32.25 -56.75 L18.05 -57.35 Q10.15 -57.95 7.95 -53.05 5.8 -48.4 -11.8 -48.0 L-18.0 -50.25 -17.3 -52.3 Q-17.0 -53.5 -17.0 -55.1 -17.0 -56.8 -17.8 -58.3 L-19.5 -60.75 Q-15.05 -63.15 -12.8 -67.0 -11.0 -70.15 -11.0 -73.35 L-11.1 -74.9 0.8 -74.55 Q23.2 -73.3 25.05 -71.25 26.85 -69.25 42.55 -70.5 L59.5 -71.75 66.3 -70.75" fill="#9fd26c" fill-opacity="0.3019608" fill-rule="evenodd" stroke="none"/>
    <path d="M76.25 -71.1 L75.45 -71.4 73.35 -71.4 73.7 -70.6 74.2 -69.85 74.05 -69.4 Q74.35 -69.15 73.6 -69.15 73.1 -69.15 72.4 -70.25 L71.8 -71.45 Q71.8 -72.3 71.95 -72.4 L75.6 -72.75 78.2 -71.9 81.4 -71.1 82.9 -71.1 82.75 -72.45 82.6 -73.65 Q82.6 -76.35 83.85 -74.8 L87.3 -69.5 89.35 -71.85 Q90.95 -73.25 92.25 -71.5 92.45 -71.0 91.35 -71.0 90.8 -71.0 90.5 -71.3 L90.0 -71.75 88.55 -70.3 Q87.85 -69.55 87.3 -69.5 L87.7 -68.85 87.7 -68.7 Q88.0 -68.4 87.25 -68.4 86.25 -68.4 85.15 -70.7 L83.95 -73.5 84.15 -70.3 Q84.15 -69.8 83.5 -69.7 L82.3 -69.7 79.9 -70.1 78.55 -70.65 76.25 -71.1 M72.55 -68.55 Q72.85 -68.1 72.1 -68.1 71.75 -68.1 71.25 -68.4 L70.35 -68.7 Q70.0 -68.7 69.65 -68.3 69.3 -67.95 68.9 -67.95 L67.0 -68.15 Q66.45 -68.3 65.8 -68.75 41.0 -68.5 31.2 -67.9 L22.4 -67.35 20.85 -67.5 19.6 -67.8 19.45 -68.1 Q25.15 -68.5 26.5 -69.5 L37.9 -70.15 46.6 -69.95 65.1 -69.6 65.1 -70.0 68.2 -69.6 68.3 -69.7 68.4 -69.55 69.0 -69.45 72.45 -68.7 72.55 -68.55 M21.6 -75.8 L21.1 -70.65 Q20.5 -70.65 19.85 -70.25 L20.45 -72.9 Q20.15 -72.7 19.65 -71.3 L19.05 -70.15 19.65 -70.15 19.5 -70.1 18.25 -69.25 17.35 -69.25 17.35 -69.0 17.2 -68.8 16.8 -69.3 16.4 -69.3 13.05 -69.25 13.05 -69.7 13.0 -70.15 16.45 -70.2 16.45 -70.85 16.55 -71.95 16.7 -71.95 17.25 -70.15 17.95 -70.15 17.95 -70.35 18.2 -74.9 18.45 -75.05 18.7 -72.05 18.7 -71.9 19.75 -74.75 Q20.3 -76.4 21.2 -77.05 21.6 -76.65 21.6 -75.8 M15.7 -70.75 Q16.05 -70.5 15.45 -70.5 12.75 -70.5 11.8 -73.0 12.5 -73.25 13.4 -72.55 L15.7 -70.95 15.7 -70.75 M19.75 -68.85 Q19.6 -68.45 19.6 -69.2 19.6 -69.95 20.4 -70.15 21.95 -70.45 22.3 -70.65 L22.65 -70.5 22.8 -69.95 22.65 -68.7 22.45 -68.5 21.8 -68.9 21.0 -69.25 21.0 -68.85 Q20.95 -68.65 20.5 -68.65 L20.0 -68.7 19.75 -68.85 M11.35 -70.5 Q9.4 -70.5 9.2 -70.8 L9.1 -71.65 7.2 -71.55 7.15 -70.5 Q7.15 -70.2 8.95 -69.0 L8.95 -68.7 8.9 -68.25 8.55 -68.25 8.2 -68.35 4.75 -68.25 Q0.45 -68.25 -1.7 -68.95 L-1.7 -69.9 7.45 -68.65 6.55 -69.25 Q6.4 -69.45 6.4 -70.5 6.4 -72.1 7.55 -72.4 9.05 -72.8 12.15 -70.5 L11.35 -70.5 M25.25 -27.4 L25.65 -27.35 26.3 -27.65 29.2 -28.35 Q29.2 -28.2 29.65 -27.75 29.3 -27.05 27.7 -26.35 L27.25 -26.15 26.3 -24.2 25.05 -24.3 25.1 -24.45 25.4 -25.25 23.3 -24.3 22.9 -24.1 Q21.15 -23.85 19.75 -23.1 18.4 -23.2 17.95 -25.3 17.65 -26.75 17.8 -28.15 L17.85 -28.2 10.35 -28.15 7.6 -28.35 7.6 -28.9 -1.0 -28.4 -1.7 -28.3 -1.7 -29.7 Q5.0 -30.9 9.75 -29.3 L15.15 -29.55 19.3 -29.55 19.8 -29.4 19.9 -29.3 19.95 -28.75 19.5 -27.7 19.0 -26.55 Q19.0 -25.9 19.75 -24.9 L21.65 -26.15 Q23.75 -27.4 25.25 -27.4 M32.85 -27.55 L33.0 -27.1 32.8 -26.85 Q33.75 -25.55 33.6 -24.6 34.35 -24.6 35.5 -26.1 36.65 -27.55 37.35 -27.55 L37.95 -27.4 38.1 -27.45 38.25 -27.25 38.5 -27.3 Q37.2 -28.45 37.2 -28.85 37.2 -29.7 38.35 -30.2 L45.1 -30.45 45.15 -29.6 Q48.2 -30.6 48.5 -30.1 48.8 -29.65 48.1 -27.75 48.1 -27.2 48.6 -27.05 L53.3 -25.95 54.4 -26.05 Q56.65 -25.95 56.65 -24.05 56.65 -23.2 56.35 -22.8 55.9 -22.25 54.55 -21.85 L54.55 -21.65 Q54.7 -21.45 55.15 -21.45 61.1 -21.45 63.6 -22.8 64.9 -23.5 66.0 -24.55 L67.8 -24.55 67.95 -24.5 68.05 -24.0 68.0 -23.45 68.65 -23.55 Q69.55 -23.55 69.55 -21.55 L69.4 -18.45 69.4 -18.3 Q71.25 -20.1 70.95 -21.35 70.15 -22.75 70.15 -23.95 L70.2 -24.25 70.3 -24.25 70.3 -24.3 70.35 -24.75 70.45 -24.8 70.95 -24.9 72.55 -24.7 72.4 -24.4 Q72.25 -24.15 72.25 -23.7 72.25 -23.4 72.6 -23.05 73.1 -22.6 73.85 -22.6 L75.25 -22.75 76.85 -24.8 76.85 -24.9 Q76.4 -27.65 76.45 -28.65 L76.9 -28.65 77.35 -25.3 78.8 -26.55 78.1 -27.3 76.9 -28.8 Q76.9 -29.5 77.5 -29.55 L79.2 -27.75 79.3 -27.8 79.35 -28.35 Q79.35 -29.4 78.65 -31.0 L78.0 -32.15 77.35 -31.95 Q76.65 -32.2 76.5 -32.4 76.7 -32.65 77.05 -32.9 L76.4 -33.0 77.15 -33.0 80.2 -34.75 79.9 -35.1 77.35 -35.25 Q77.0 -34.9 76.45 -34.9 L75.45 -35.05 75.45 -35.3 74.5 -35.35 Q74.35 -35.55 74.35 -35.8 L75.45 -35.9 75.4 -36.8 Q75.4 -37.35 76.45 -39.9 77.45 -42.4 77.8 -42.7 79.6 -44.5 81.3 -44.35 85.1 -44.05 86.8 -44.25 L86.95 -43.45 Q86.95 -42.95 86.65 -42.8 L85.8 -42.75 84.1 -43.1 82.35 -43.45 Q79.8 -43.45 78.15 -40.8 76.9 -38.75 76.9 -37.0 L77.15 -36.05 Q79.85 -36.15 81.2 -35.55 L82.6 -34.2 Q81.9 -33.0 79.8 -32.5 L78.8 -32.3 79.5 -31.2 80.2 -27.85 80.2 -26.55 Q80.5 -26.1 79.75 -26.1 L79.05 -26.35 79.05 -26.2 75.45 -19.0 Q71.8 -11.3 71.8 -8.5 71.8 -7.55 71.0 -7.65 L69.0 -8.05 Q68.45 -8.05 67.7 -7.2 66.95 -6.4 66.15 -6.4 65.35 -6.4 65.1 -6.65 L64.75 -7.2 Q65.05 -8.15 67.0 -9.2 69.15 -10.4 70.75 -9.9 72.2 -15.65 73.25 -18.65 L74.55 -21.55 73.75 -21.45 Q72.75 -21.45 71.95 -22.05 L71.95 -21.05 Q71.95 -20.05 71.25 -18.4 70.3 -16.2 68.95 -16.2 L67.95 -16.35 67.8 -21.85 67.35 -21.85 66.7 -21.6 Q66.55 -21.2 66.55 -21.95 66.55 -22.4 67.05 -22.9 L67.15 -22.95 67.0 -23.25 63.75 -21.55 Q60.9 -20.1 56.95 -20.1 L54.5 -20.4 51.6 -20.7 51.55 -21.6 Q51.55 -22.35 52.25 -22.75 L54.4 -24.0 54.45 -24.25 Q53.5 -24.15 52.9 -23.55 L52.45 -23.85 Q52.15 -24.15 52.15 -24.6 L52.25 -25.05 51.85 -25.05 48.25 -24.9 Q47.35 -24.9 47.15 -26.4 L47.1 -28.3 43.5 -28.4 43.3 -28.95 44.35 -29.3 44.25 -29.4 44.25 -29.55 40.9 -29.55 38.35 -28.8 Q39.75 -27.95 39.75 -27.45 39.75 -27.0 39.4 -26.55 38.95 -25.95 38.05 -25.95 L37.65 -26.05 37.55 -26.2 Q34.2 -22.8 33.3 -22.8 32.15 -22.8 31.4 -24.45 L31.15 -25.1 29.3 -23.1 29.1 -23.25 Q29.15 -26.15 30.35 -27.15 31.0 -28.75 32.1 -27.65 L32.85 -27.55 M10.0 -9.1 L10.55 -8.5 11.25 -8.1 13.35 -8.1 13.75 -8.8 12.05 -9.15 Q10.7 -9.45 10.15 -9.85 12.25 -10.2 13.45 -9.8 14.5 -9.45 14.5 -8.75 14.5 -7.35 12.35 -7.35 11.25 -7.35 10.5 -7.7 L9.7 -8.25 Q9.7 -8.85 10.0 -9.1 M59.4 -7.15 Q60.7 -9.45 61.35 -9.85 L61.9 -9.4 62.05 -8.7 Q62.05 -8.25 60.45 -5.95 58.85 -3.65 58.2 -3.25 58.05 -2.85 58.05 -3.6 58.05 -4.7 59.4 -7.15 M143.65 -75.1 L142.7 -74.0 142.6 -73.9 142.4 -73.75 141.25 -72.55 146.8 -72.35 147.45 -71.2 147.1 -70.8 Q146.55 -70.05 146.5 -68.8 L144.85 -68.8 145.15 -67.6 Q145.1 -66.65 143.6 -66.35 L143.05 -66.0 141.75 -65.0 141.7 -64.95 Q143.05 -63.85 143.4 -63.0 L140.9 -63.7 142.05 -62.8 Q145.45 -59.85 145.45 -57.85 L145.35 -56.85 145.6 -56.65 145.2 -56.15 144.9 -54.9 144.7 -54.75 144.55 -55.95 144.4 -55.95 Q143.9 -55.95 143.55 -56.3 L142.6 -57.0 Q143.25 -56.0 143.25 -55.2 L142.65 -54.9 142.3 -55.2 142.3 -55.15 142.2 -54.1 141.55 -53.1 140.7 -53.2 140.9 -52.2 141.0 -50.0 140.8 -47.65 140.05 -47.55 Q139.45 -47.55 137.15 -50.75 L135.45 -52.95 135.25 -52.2 134.95 -46.5 134.65 -45.65 133.95 -44.7 Q133.6 -43.5 133.6 -42.9 133.6 -42.4 134.15 -41.4 L135.1 -39.4 135.1 -38.7 135.1 -38.6 Q135.6 -37.4 135.6 -34.5 135.6 -32.55 132.75 -25.8 L129.4 -18.3 Q128.3 -15.6 128.2 -10.35 L127.95 -6.0 128.1 -6.15 128.55 -6.05 128.7 -5.55 Q128.7 -2.7 126.1 3.15 123.5 8.9 122.3 8.9 121.1 8.9 120.75 8.5 L120.0 7.65 118.3 8.6 117.2 10.5 Q116.1 12.3 116.1 13.05 116.1 13.95 117.35 15.0 118.6 16.05 118.6 16.6 L118.3 17.6 Q118.7 17.6 119.6 19.45 121.3 23.15 121.3 24.15 121.3 24.7 119.55 25.6 117.5 26.7 116.65 28.95 115.9 30.8 115.65 33.75 115.35 37.6 110.35 42.6 L109.9 42.55 109.9 42.6 Q109.9 43.85 110.65 44.65 111.4 45.5 111.4 46.95 L110.15 53.55 109.0 59.0 109.0 59.1 108.95 59.35 108.85 60.2 108.3 60.6 108.1 60.2 108.05 60.25 Q107.05 61.05 107.05 61.5 L105.5 67.85 Q103.85 74.45 103.45 77.1 L102.85 77.1 102.7 74.0 Q102.7 70.25 104.2 65.6 105.75 60.9 107.85 59.2 L107.75 58.6 107.55 56.5 Q107.55 55.45 108.75 51.4 L109.9 47.2 Q109.9 46.35 109.4 45.75 108.85 45.2 108.85 44.55 108.85 43.4 109.15 42.3 L109.35 41.6 109.3 40.95 Q109.3 40.2 110.15 38.6 L108.9 40.05 Q106.25 43.15 105.15 43.4 105.95 41.85 107.75 39.65 109.65 37.4 111.1 36.3 L111.25 36.25 111.4 36.45 113.8 32.25 Q114.1 29.15 114.5 27.65 115.15 24.95 119.35 23.85 119.25 22.5 118.55 21.0 117.85 19.6 117.85 19.25 L117.9 18.65 117.1 19.55 Q116.7 19.55 114.55 13.2 114.55 12.25 115.15 10.95 L114.1 10.8 114.05 10.6 113.35 11.4 Q111.95 12.6 107.0 12.6 101.1 12.6 98.8 15.2 97.65 16.5 97.65 17.9 L97.2 18.15 Q96.7 18.15 96.45 17.15 L96.3 16.05 Q96.2 21.45 92.35 21.45 L91.3 21.25 91.15 21.7 91.15 22.35 Q91.15 23.5 90.2 26.5 88.95 30.55 87.3 31.25 L86.8 31.15 Q86.65 31.05 86.65 30.55 L87.4 28.2 Q88.15 25.9 88.15 24.3 88.55 22.35 89.7 21.0 L89.95 19.6 90.4 17.9 90.3 17.8 91.65 15.95 91.9 18.7 91.75 19.75 91.9 19.85 Q94.7 19.85 94.8 18.05 94.95 15.7 95.8 15.15 L96.15 15.25 96.3 15.75 96.3 15.95 Q96.35 14.3 98.05 12.8 99.95 11.1 102.75 10.8 L112.1 10.05 112.65 9.9 112.75 7.15 113.35 6.65 Q114.0 5.95 114.1 4.55 L114.5 6.05 114.55 7.85 114.5 8.6 115.4 7.95 Q116.0 7.5 116.65 7.6 L116.7 7.6 117.45 3.55 118.1 3.4 116.95 7.4 Q119.75 6.0 120.1 6.0 L120.5 6.05 120.4 5.55 Q120.4 4.55 121.1 2.45 121.85 0.3 122.2 0.2 L122.5 1.95 121.85 4.05 121.0 5.85 120.6 5.85 120.5 6.05 Q121.3 6.05 121.85 6.4 L123.0 7.25 Q124.3 5.55 125.2 0.45 125.7 -2.35 126.65 -4.15 L126.45 -5.45 126.4 -8.75 Q126.4 -14.0 126.75 -15.85 127.15 -17.9 129.3 -23.95 L132.1 -31.8 134.8 -38.55 134.55 -38.55 Q132.9 -38.55 132.55 -40.7 L132.55 -42.9 Q132.05 -45.65 132.05 -46.65 132.05 -47.65 133.2 -48.5 L133.45 -50.55 Q132.3 -48.4 130.55 -48.4 129.55 -48.4 129.25 -49.05 L128.95 -49.8 128.95 -52.15 126.6 -49.8 Q124.15 -47.8 122.95 -47.8 121.95 -47.8 121.75 -48.65 L121.75 -49.6 121.85 -50.15 Q121.4 -50.3 120.9 -50.7 L120.25 -48.85 Q119.25 -47.05 118.95 -46.05 L118.65 -46.05 119.25 -49.55 119.8 -51.65 118.45 -52.8 Q118.15 -52.5 117.4 -52.5 L117.05 -52.6 117.1 -52.05 Q117.1 -51.5 115.95 -49.65 L114.55 -47.25 114.25 -47.25 Q114.1 -47.9 114.1 -48.7 114.1 -51.4 116.2 -53.1 L115.45 -53.65 114.4 -53.6 114.4 -53.25 Q114.4 -52.6 111.3 -46.6 L111.1 -46.6 110.95 -46.85 Q110.8 -47.05 110.8 -47.5 L111.7 -50.3 Q112.55 -52.55 113.45 -53.45 L111.55 -52.7 110.25 -48.85 109.15 -45.45 109.15 -44.95 108.65 -43.8 108.45 -42.9 108.3 -42.55 108.2 -42.95 107.45 -41.65 107.8 -41.5 Q106.75 -39.05 104.2 -35.9 L103.4 -34.9 103.45 -34.5 Q103.45 -33.85 101.75 -33.05 L101.75 -33.0 99.65 -32.4 Q98.3 -31.8 97.1 -30.75 L97.0 -31.75 Q97.0 -32.2 98.6 -32.95 100.35 -33.75 100.6 -34.15 100.05 -34.4 100.05 -34.6 L103.0 -34.9 104.0 -35.85 103.8 -35.85 105.5 -41.25 106.3 -42.9 105.8 -42.85 Q104.8 -42.85 104.2 -44.25 103.8 -45.2 103.8 -45.85 L103.85 -46.35 102.25 -45.55 Q100.05 -44.55 99.55 -44.55 98.4 -44.55 98.1 -46.0 L98.05 -47.55 96.9 -47.25 Q96.75 -46.9 96.75 -47.65 L96.85 -47.95 95.0 -48.65 Q92.6 -49.5 88.45 -49.5 86.15 -49.5 85.05 -48.4 84.4 -47.75 84.4 -47.1 84.4 -46.75 85.15 -46.3 86.15 -45.65 86.65 -45.0 86.3 -44.25 85.5 -44.25 83.6 -44.25 83.15 -46.05 L83.05 -47.95 Q83.05 -50.65 86.9 -51.0 91.1 -51.45 97.45 -48.4 L97.9 -48.55 99.45 -48.75 99.55 -46.35 99.4 -46.15 Q99.4 -46.0 99.85 -46.0 L101.85 -46.6 104.2 -47.25 104.3 -47.2 104.5 -47.4 Q105.15 -46.9 105.1 -45.8 105.0 -44.7 105.85 -44.25 L106.4 -44.6 106.35 -45.0 Q106.35 -45.6 107.25 -47.85 108.35 -50.55 109.75 -52.4 113.45 -57.35 117.35 -53.95 118.95 -54.45 120.35 -53.05 L122.3 -51.05 122.85 -51.7 Q123.5 -51.35 123.45 -50.75 L123.25 -49.8 123.25 -49.5 126.05 -51.85 Q127.8 -53.5 128.95 -53.8 L129.6 -53.2 129.45 -52.9 129.55 -52.9 Q130.3 -52.9 130.35 -51.7 L130.2 -50.1 130.35 -49.95 Q130.45 -49.8 130.9 -49.8 131.75 -49.8 132.3 -50.5 L132.3 -51.75 132.55 -51.75 132.65 -51.1 133.2 -52.85 Q133.4 -54.0 133.8 -54.55 L133.75 -54.6 133.85 -54.65 Q134.4 -55.35 135.25 -55.05 L135.15 -54.9 Q136.4 -54.85 137.35 -53.45 L139.6 -50.25 139.75 -52.05 139.3 -52.7 138.85 -53.4 138.85 -53.95 139.0 -54.1 138.95 -54.2 138.25 -55.2 138.25 -55.35 138.85 -55.5 Q139.3 -55.5 140.05 -54.8 L141.1 -53.85 141.8 -54.65 Q142.15 -55.0 141.95 -55.6 L141.25 -56.65 Q140.35 -58.05 139.45 -58.45 L139.45 -59.1 Q140.35 -59.6 143.0 -58.25 L143.9 -57.75 Q143.3 -59.1 142.3 -60.35 140.1 -63.15 136.35 -65.0 L134.75 -65.7 135.9 -66.25 138.95 -65.0 139.35 -64.75 139.3 -65.0 139.3 -65.1 Q139.3 -65.95 141.2 -66.9 L142.35 -67.35 143.55 -67.95 143.95 -68.25 142.05 -68.8 139.1 -68.8 139.15 -69.1 139.1 -69.75 143.35 -70.05 144.55 -70.4 Q140.45 -70.55 139.3 -71.25 138.85 -71.55 138.95 -71.95 L139.15 -72.3 Q139.15 -72.65 140.35 -73.9 L141.45 -74.8 141.3 -74.95 Q140.6 -74.45 136.05 -72.75 L132.15 -71.35 131.3 -71.4 Q129.75 -71.35 128.9 -70.75 L128.4 -70.95 128.5 -72.15 128.5 -72.3 126.5 -71.3 126.15 -71.05 125.8 -71.0 124.1 -70.45 123.85 -70.5 124.15 -70.8 124.0 -70.8 Q123.6 -70.8 122.95 -71.1 L121.9 -71.55 121.5 -70.2 121.25 -69.45 122.3 -69.35 122.15 -69.65 122.8 -69.65 122.6 -69.5 122.45 -69.35 127.6 -68.95 127.75 -68.55 Q127.5 -68.25 127.0 -68.1 L123.15 -67.9 117.0 -68.15 Q111.65 -68.55 109.7 -69.15 L109.15 -69.1 Q108.3 -69.1 107.75 -70.15 107.35 -71.0 107.35 -71.55 L107.35 -71.8 Q104.35 -69.7 103.75 -69.7 L102.85 -69.9 106.65 -72.8 Q109.2 -74.65 109.95 -74.35 L110.05 -74.15 110.1 -73.6 109.6 -72.4 108.7 -71.1 109.8 -70.25 114.2 -70.1 119.95 -69.55 Q119.95 -72.4 121.15 -72.4 L123.55 -71.8 Q124.05 -71.8 124.3 -72.1 L124.6 -72.55 124.75 -72.45 124.75 -72.0 124.7 -71.2 126.15 -72.15 128.95 -73.8 Q129.45 -73.2 129.45 -71.4 133.8 -73.65 137.75 -75.0 142.1 -76.45 142.85 -75.45 L143.35 -75.55 143.65 -75.1 M95.15 -79.5 L95.15 -79.15 94.7 -75.85 Q94.25 -73.0 94.25 -70.75 L94.15 -70.25 93.5 -69.9 93.0 -70.35 92.9 -71.0 Q92.9 -75.6 95.0 -79.55 L95.15 -79.5 M96.4 -69.2 Q95.5 -69.85 95.5 -70.65 L95.6 -71.25 95.8 -71.4 Q95.9 -71.1 96.5 -70.7 L97.75 -69.85 99.5 -72.35 Q100.9 -74.3 101.65 -74.2 L101.65 -72.15 Q101.7 -70.8 102.55 -69.85 L102.45 -69.45 101.85 -69.25 Q100.6 -69.25 100.55 -70.45 L100.75 -72.45 99.5 -70.5 98.05 -68.4 96.4 -69.2 M90.25 -68.25 L90.9 -67.95 90.45 -67.9 Q90.05 -67.95 89.95 -68.1 90.25 -68.1 90.25 -68.25 M90.65 -55.85 L90.55 -56.45 91.8 -55.45 92.1 -55.15 Q90.85 -55.55 90.65 -55.85 M84.7 -53.2 Q84.6 -53.2 84.35 -53.35 L84.65 -53.75 84.9 -53.55 84.7 -53.2 M82.75 -50.65 L82.8 -50.4 82.2 -50.6 82.35 -50.8 82.75 -50.65 M109.2 -49.75 L108.3 -46.6 108.3 -46.45 109.25 -49.3 110.0 -51.25 109.2 -49.75 M94.35 -16.75 L95.8 -16.9 98.2 -16.95 98.25 -16.35 97.95 -15.7 Q97.6 -15.15 97.2 -15.15 96.0 -15.15 95.7 -15.7 L94.35 -16.75 M110.85 7.95 L110.05 9.75 109.35 9.8 109.3 9.3 109.3 9.1 110.85 7.95 M100.75 10.8 L100.6 10.8 101.05 10.45 100.75 10.8 M84.6 30.9 L84.7 31.5 Q84.7 32.0 83.25 33.6 L81.45 35.15 Q79.75 35.15 78.3 33.95 77.0 32.9 77.2 32.3 L77.35 32.0 Q77.5 31.8 77.95 31.8 78.65 31.8 79.2 32.8 79.8 33.75 80.3 33.75 L81.65 32.2 Q82.75 30.7 84.45 30.75 L84.6 30.9 M100.35 40.8 L100.6 40.95 100.45 41.1 100.05 40.95 100.1 40.7 100.35 40.8 M95.8 47.65 L95.95 48.15 95.85 48.6 95.7 48.8 Q95.25 48.8 95.25 48.6 94.45 49.05 94.05 50.05 L93.4 51.65 93.1 50.8 92.85 49.85 Q92.85 49.3 93.8 48.3 94.85 47.15 95.65 47.55 L95.8 47.65 M100.0 46.95 Q100.0 45.8 102.8 42.05 105.65 38.2 106.9 38.15 L107.0 38.25 107.05 38.7 104.4 42.45 Q101.5 46.15 100.2 47.25 100.0 47.7 100.0 46.95 M98.6 44.05 Q99.9 42.0 101.2 41.4 L99.15 44.55 Q97.8 46.6 96.55 47.25 L98.6 44.05 M107.85 35.1 L109.15 34.85 109.35 35.0 109.45 35.55 109.05 36.55 108.45 37.5 108.15 37.5 107.85 36.45 107.85 35.1 M97.5 83.05 Q100.2 80.05 100.75 78.55 L101.35 78.7 Q101.8 78.85 101.85 79.0 100.7 82.95 98.8 85.2 95.5 89.2 89.9 90.35 L89.7 91.5 89.25 93.75 90.0 96.3 Q90.75 98.6 90.75 99.75 L90.7 101.0 90.35 101.55 89.5 101.5 88.15 97.15 Q87.75 95.5 87.75 93.75 L87.85 91.95 Q88.05 91.4 88.8 90.55 L85.0 90.8 Q83.05 90.8 81.75 89.65 L79.75 87.55 Q79.85 87.35 80.7 87.2 L82.5 87.05 Q83.05 87.05 83.9 87.95 84.75 88.8 85.55 88.8 L89.6 88.3 Q90.75 87.7 94.25 87.5 94.8 86.05 97.5 83.05 M40.3 24.0 L40.35 25.35 40.15 26.65 Q39.85 27.6 39.25 27.6 36.5 27.6 35.95 27.05 L35.95 26.4 36.05 25.35 Q36.25 24.85 36.85 24.5 L37.65 24.8 36.9 25.25 Q36.55 25.45 36.55 25.7 36.55 26.45 36.7 26.6 L39.1 26.45 39.25 25.5 38.25 24.5 Q38.35 24.25 39.0 24.1 L40.3 24.0 M95.85 124.3 L96.25 124.3 97.75 129.6 Q99.1 134.35 99.1 135.4 99.1 135.9 97.75 137.75 L99.3 143.9 Q100.85 150.1 100.85 152.1 L100.35 158.55 99.5 164.25 99.15 163.8 99.1 163.55 Q99.35 157.45 97.85 149.6 96.25 141.25 96.25 138.05 96.25 137.6 97.05 136.35 L97.85 135.15 96.6 132.05 Q95.35 129.45 95.35 128.6 95.35 126.45 95.85 124.3 M89.75 109.55 L90.5 109.55 90.6 116.55 Q95.65 117.35 95.9 119.25 L95.8 120.95 Q95.75 122.05 96.35 122.8 L95.75 123.35 94.75 123.55 Q94.7 121.45 94.45 120.35 94.0 118.4 89.5 118.05 L89.35 117.7 89.35 116.85 Q89.35 113.15 89.75 109.55 M89.85 101.75 L90.35 101.8 89.9 106.75 89.35 111.5 88.65 111.3 88.35 111.05 Q88.0 109.35 88.65 106.4 L89.85 101.75 M58.35 61.95 L59.0 61.8 59.4 62.3 59.35 63.05 57.6 63.0 57.35 62.3 58.35 61.95 M73.35 72.8 L73.75 72.8 Q73.35 74.05 71.75 75.0 L70.2 75.65 71.25 75.8 71.25 76.25 71.7 76.3 Q73.85 76.7 74.35 77.0 74.65 77.95 76.05 79.5 L78.75 82.55 75.6 80.25 Q73.95 78.85 73.75 77.5 L71.4 78.05 70.1 78.0 69.25 78.05 69.7 77.85 Q68.85 77.55 68.1 76.8 L68.8 75.9 68.65 75.8 67.65 75.7 67.25 75.55 68.1 75.4 66.9 74.55 68.65 75.3 70.8 74.45 73.35 72.8 M67.8 71.3 L67.5 71.0 Q68.95 70.25 71.35 69.55 L71.5 70.0 70.75 71.35 69.0 71.55 67.8 71.3 M65.4 73.7 L65.25 73.55 Q66.45 73.45 67.9 72.75 69.65 71.85 69.85 71.8 69.1 72.75 66.5 73.8 L65.4 73.7 M61.25 66.55 Q61.25 65.75 61.5 65.7 L61.75 65.8 Q63.1 66.3 63.5 67.8 L64.1 70.9 64.7 72.4 63.9 71.5 Q61.25 68.2 61.25 66.55 M22.05 14.8 L22.05 14.85 21.75 16.55 21.4 18.25 21.45 19.3 21.1 19.55 19.35 19.8 Q15.65 19.8 13.8 18.55 L12.7 17.25 Q12.7 16.6 13.05 16.4 L14.45 16.2 Q15.45 16.2 15.75 17.1 16.1 18.0 20.2 18.0 L22.05 14.8" fill="#5b5546" fill-rule="evenodd" stroke="none"/>
  </g>
</svg>
