<?xml version="1.0" encoding="UTF-8" standalone="no"?>
<svg xmlns:xlink="http://www.w3.org/1999/xlink" height="20.7px" width="15.95px" xmlns="http://www.w3.org/2000/svg">
  <g transform="matrix(1.0, 0.0, 0.0, 1.0, 1.5, 1.05)">
    <path d="M10.95 9.15 L11.2 17.25 10.95 19.65 10.85 19.65 10.6 17.25 10.7 9.15 10.95 9.15 M2.05 10.55 L2.2 10.55 2.25 12.3 2.45 14.0 2.4 14.1 Q2.0 13.6 2.0 12.15 L2.05 10.55 M0.95 8.75 L1.1 11.15 Q1.05 12.8 1.25 13.6 L1.05 13.75 0.7 13.45 0.7 8.75 0.95 8.75 M9.2 10.4 L9.35 13.2 9.15 15.85 8.95 13.15 9.0 10.4 9.2 10.4 M8.3 11.65 Q8.15 11.85 8.15 12.4 L7.85 14.95 7.75 15.0 Q7.6 14.8 7.6 13.8 L7.75 12.9 7.85 11.65 8.3 11.65 M7.05 8.25 L7.2 9.15 6.95 15.0 6.85 15.1 Q6.5 14.6 6.5 12.7 L6.85 8.25 7.05 8.25" fill="#5b5546" fill-rule="evenodd" stroke="none"/>
    <path d="M12.25 -0.7 L13.25 -1.05 13.3 -1.05 Q13.95 -0.65 14.05 6.45 14.05 13.5 13.7 15.4 L13.05 17.8 12.8 18.55 12.35 18.95 12.0 18.85 Q11.75 18.5 11.6 18.5 L8.75 16.4 5.5 13.7 Q5.1 13.7 5.1 13.25 L5.1 12.95 5.05 12.9 5.1 12.9 5.25 6.95 5.3 4.3 5.2 3.75 6.05 2.95 6.1 2.8 6.6 2.55 9.15 1.05 11.8 -0.45 12.25 -0.7 M12.75 0.15 L6.1 4.0 6.05 7.0 Q5.75 12.7 6.05 12.7 L12.1 17.2 12.25 16.7 12.45 16.5 12.75 9.85 Q12.95 3.3 12.75 0.15 M4.3 4.4 L4.1 11.4 3.95 13.15 4.05 13.4 Q4.05 13.9 3.7 13.95 L3.6 14.05 Q3.25 14.05 3.15 13.8 L-0.9 13.7 -1.1 13.35 -1.05 5.95 Q-1.7 4.9 -1.4 4.6 L3.7 4.1 3.95 4.1 4.2 4.1 4.3 4.3 4.3 4.4 M2.6 5.0 L0.0 5.25 -0.25 12.85 3.15 13.0 Q2.95 11.85 3.15 8.9 L3.35 5.4 Q3.4 4.8 2.6 5.0" fill="#5b5546" fill-rule="evenodd" stroke="none"/>
    <path d="M2.7 5.95 Q2.8 4.85 3.45 4.85 4.65 4.85 4.35 6.45 L4.05 10.2 Q3.5 13.4 2.25 13.4 1.55 13.4 1.35 13.0 L1.35 12.45 0.7 12.75 0.0 12.95 Q-0.95 12.95 -1.2 11.2 L-1.25 9.4 Q-1.25 5.3 0.3 5.3 L0.9 4.4 Q1.55 3.85 2.45 5.4 L2.55 7.5 2.7 5.95" fill="#5b5546" fill-opacity="0.3019608" fill-rule="evenodd" stroke="none"/>
    <path d="M14.4 1.0 L14.4 2.05 13.8 10.05 Q13.0 17.85 12.05 17.85 11.65 17.85 11.05 17.05 L10.35 15.9 10.35 15.8 9.85 16.25 9.15 16.5 Q7.25 16.5 6.4 13.1 L5.85 9.5 Q5.85 7.35 6.2 5.35 6.75 1.95 8.1 1.95 L8.5 1.7 Q8.9 1.5 9.45 1.7 L9.6 1.15 Q9.8 0.65 10.5 0.65 L11.6 0.95 Q11.65 0.3 12.05 0.2 L13.1 0.15 Q14.2 0.15 14.4 1.0" fill="#5b5546" fill-opacity="0.3019608" fill-rule="evenodd" stroke="none"/>
    <path d="M3.55 12.3 Q3.4 12.95 2.7 12.95 2.2 12.95 1.9 12.55 L1.65 12.0 1.6 12.7 Q1.35 13.2 0.8 13.2 -0.75 13.2 -0.5 11.8 -0.5 6.7 1.55 8.25 3.6 9.75 3.6 11.55 L3.55 12.3" fill="#5b5546" fill-opacity="0.3019608" fill-rule="evenodd" stroke="none"/>
    <path d="M12.15 10.7 L11.95 13.1 11.75 15.45 12.35 16.25 12.0 17.55 Q11.5 18.65 10.9 18.65 9.95 18.65 9.4 17.3 9.0 16.3 9.0 15.3 8.15 14.55 7.5 14.55 6.2 14.55 5.9 11.7 L5.85 8.85 Q7.35 4.8 7.35 8.1 L7.65 7.65 Q8.0 7.2 8.45 7.2 9.6 7.2 9.3 8.7 9.75 8.25 10.2 8.25 12.15 8.25 12.15 10.7" fill="#5b5546" fill-opacity="0.3019608" fill-rule="evenodd" stroke="none"/>
  </g>
</svg>
