<?xml version="1.0" encoding="UTF-8" standalone="no"?>
<svg xmlns:xlink="http://www.w3.org/1999/xlink" height="62.4px" width="128.55px" xmlns="http://www.w3.org/2000/svg">
  <g transform="matrix(1.0, 0.0, 0.0, 1.0, 67.5, 28.15)">
    <path d="M25.65 -3.75 Q27.5 -0.9 25.25 2.0 36.4 2.0 45.9 11.1 50.7 15.65 53.25 20.35 53.25 23.4 52.55 24.5 50.75 27.25 44.5 27.25 39.75 27.25 37.3 25.5 34.9 23.75 34.0 23.75 L30.55 25.5 Q26.75 27.25 24.5 27.25 L7.05 26.75 0.0 26.25 Q-4.65 26.25 -7.6 24.15 -10.55 22.0 -15.85 22.0 -24.0 22.0 -35.55 25.4 -47.1 28.75 -56.5 28.75 -64.55 28.75 -66.8 26.5 -67.5 25.75 -67.5 23.85 -67.5 22.65 -60.95 19.2 L-46.3 11.5 Q-24.7 -0.6 -23.0 -11.0 -20.5 -19.8 -14.2 -24.45 -8.45 -28.7 -1.6 -28.1 5.25 -27.5 9.95 -22.25 15.05 -16.55 15.5 -7.25 23.4 -7.25 25.65 -3.75" fill="#669900" fill-opacity="0.3019608" fill-rule="evenodd" stroke="none"/>
    <path d="M15.55 -5.85 L18.0 -6.25 Q21.15 -6.25 22.5 -3.7 23.25 -2.3 23.25 -0.85 23.25 0.45 22.2 1.75 L20.25 4.0 20.25 4.75 26.45 7.7 Q28.15 8.65 28.25 9.75 L30.4 8.75 Q32.5 7.75 34.0 7.75 34.25 7.75 41.25 15.3 L48.25 23.1 Q48.25 28.25 41.0 28.25 38.35 28.25 32.45 26.25 L27.1 24.25 20.05 25.4 13.0 26.5 Q11.95 26.5 8.5 25.15 L5.0 23.75 Q3.75 23.75 1.0 24.9 -1.75 26.0 -3.0 26.0 -6.75 26.0 -8.3 22.75 -9.35 19.0 -10.0 18.0 -12.45 20.5 -14.4 23.3 -15.45 24.8 -16.3 24.9 L-35.5 24.0 Q-36.75 24.0 -37.25 25.0 -37.75 26.0 -39.0 26.0 L-44.1 25.55 Q-47.4 25.0 -47.75 24.5 -48.1 23.4 -47.8 22.8 -47.15 21.75 -42.0 22.0 L-44.45 19.9 -45.0 19.25 Q-45.0 13.25 -27.0 13.5 L-27.7 11.65 Q-28.25 10.45 -28.25 9.0 -28.25 7.55 -27.2 7.0 -25.35 6.0 -19.5 6.0 -19.5 0.05 -15.0 -10.6 -10.7 -20.75 -9.0 -20.75 -6.05 -20.75 -4.9 -18.35 -4.6 -17.75 -4.25 -15.5 -0.4 -26.35 6.75 -18.05 10.9 -13.2 14.25 -5.25 L15.55 -5.85" fill="#669900" fill-opacity="0.3019608" fill-rule="evenodd" stroke="none"/>
    <path d="M10.65 18.7 Q12.35 18.95 12.5 19.25 12.0 19.5 8.5 19.25 8.5 18.95 8.75 18.8 L9.0 18.5 10.65 18.7" fill="#669900" fill-opacity="0.3019608" fill-rule="evenodd" stroke="none"/>
    <path d="M8.65 2.15 Q9.0 2.65 9.0 4.1 9.0 5.65 8.05 6.45 L7.1 7.1 9.0 7.0 Q16.2 7.0 17.5 9.95 17.9 10.85 17.25 13.75 L17.25 14.25 Q22.6 14.25 26.95 19.4 30.25 23.35 30.25 24.85 30.25 27.85 28.75 29.75 26.55 32.5 21.5 32.5 15.9 32.5 14.3 30.05 13.7 27.3 13.25 26.75 L3.2 30.2 Q-5.05 33.0 -8.5 33.0 -15.2 33.0 -16.5 31.2 -16.75 29.0 -17.5 28.25 L-28.9 32.65 Q-33.85 34.25 -38.5 34.25 -43.35 34.25 -44.8 32.25 -45.25 31.6 -45.25 30.0 -45.25 27.6 -20.75 15.0 L-13.0 11.05 Q-13.85 10.95 -14.15 10.4 L-14.3 9.6 Q-14.3 8.15 -9.05 4.55 -3.75 0.95 -1.55 0.95 L1.2 0.4 Q2.3 0.2 2.3 2.05 2.3 2.8 -0.65 5.0 L-0.85 5.2 Q5.7 2.15 8.25 1.5 L8.65 2.15 M1.25 11.0 L1.0 11.25 3.7 9.7 5.5 8.5 4.2 9.2 1.25 11.0" fill="#669900" fill-opacity="0.3019608" fill-rule="evenodd" stroke="none"/>
    <path d="M10.8 -21.0 Q9.9 -21.0 8.5 -19.5 L6.8 -17.25 6.65 -17.25 7.05 -18.85 8.65 -20.45 Q10.35 -21.95 11.3 -22.0 L11.4 -21.9 11.45 -21.5 11.3 -20.9 10.8 -21.0 M5.85 -20.95 Q4.2 -18.5 3.9 -17.75 3.65 -17.65 3.55 -17.85 L4.65 -21.05 Q5.55 -23.1 6.8 -23.85 L7.15 -23.8 7.3 -23.35 5.85 -20.95 M18.65 -6.8 Q20.8 -5.95 20.8 -4.55 L20.55 -3.5 19.4 -2.55 Q20.75 -2.4 21.15 -1.95 L21.3 -0.5 21.1 0.5 20.8 1.5 20.05 2.0 19.65 1.9 19.55 1.45 19.95 0.55 20.3 -0.6 20.0 -0.95 Q19.4 -1.2 18.55 -2.1 L18.55 -2.65 18.8 -2.6 18.7 -3.1 19.2 -3.8 19.7 -4.6 19.45 -5.35 19.2 -5.9 17.05 -5.95 16.9 -5.5 16.65 -5.4 16.65 -6.0 Q16.45 -5.95 16.45 -6.6 L16.65 -7.05 Q16.5 -14.7 13.0 -19.95 9.2 -25.65 3.35 -25.65 -3.9 -25.65 -8.65 -24.55 -13.0 -23.55 -11.25 -23.25 L-11.45 -23.15 -12.1 -23.4 Q-9.4 -25.05 -7.2 -25.5 L2.05 -26.25 Q11.4 -26.2 15.1 -17.9 17.2 -13.3 17.2 -7.15 L18.65 -6.8 M44.45 16.65 L44.4 13.9 Q44.4 10.65 43.2 7.75 40.9 2.0 35.2 2.0 32.35 2.0 28.9 3.7 L26.05 5.4 25.2 5.3 Q25.9 6.5 25.9 8.35 25.9 12.2 24.8 13.0 24.15 12.45 24.15 12.15 L24.65 8.4 Q24.85 7.2 24.65 6.0 24.3 3.6 22.55 3.6 17.95 3.6 15.65 4.75 L14.05 6.0 13.9 5.3 Q13.9 4.35 15.8 3.6 17.65 2.85 19.9 2.9 23.6 3.0 25.05 5.05 36.6 -2.15 42.1 3.9 45.65 7.75 45.65 14.05 L45.35 16.4 46.9 16.8 Q49.55 17.9 49.55 20.1 55.2 20.75 57.15 21.9 58.35 22.65 61.05 24.75 L61.0 25.1 60.55 25.25 Q59.45 25.25 58.35 24.4 L56.35 22.65 Q53.35 20.3 48.15 21.25 47.95 21.3 47.95 20.65 L48.2 20.1 48.45 19.5 Q48.45 18.85 47.45 18.4 L44.3 18.15 44.2 17.4 Q44.2 16.85 44.45 16.65 M40.65 23.95 L40.15 25.5 39.8 25.5 39.65 24.4 39.9 23.9 40.4 23.4 40.6 23.5 40.65 23.95 M35.4 23.2 L35.3 24.35 33.8 25.75 Q33.7 26.05 33.7 25.4 L33.75 23.75 Q33.95 22.7 35.15 21.9 L35.4 23.2 M39.3 21.8 L38.35 23.9 Q37.4 25.75 36.8 26.15 36.55 26.55 36.55 25.9 L36.75 25.0 36.95 24.25 Q36.95 23.75 37.6 22.65 L38.8 21.15 39.15 21.3 39.3 21.8 M-26.25 -1.0 L-27.35 0.15 Q-27.35 0.85 -26.7 2.15 L-27.1 2.25 -27.5 0.3 -28.05 0.9 -28.2 2.45 -27.95 3.6 -27.7 5.0 -27.7 5.15 -28.2 5.25 -29.1 5.0 -30.0 4.75 Q-32.5 4.75 -33.15 5.35 -33.5 5.7 -33.35 6.05 L-32.9 6.95 Q-32.4 7.7 -32.45 8.1 L-32.5 8.2 -32.45 8.25 -32.2 8.5 Q-40.1 9.25 -43.4 12.1 L-42.45 12.85 -40.6 14.0 Q-40.95 14.5 -41.45 14.5 -42.15 14.5 -43.2 13.6 L-44.05 12.7 -44.4 13.1 Q-45.3 14.15 -46.25 16.35 L-47.85 19.3 -47.6 19.4 Q-47.8 19.85 -48.7 19.85 L-50.75 19.0 Q-54.25 19.0 -55.45 20.3 -56.05 20.95 -55.95 21.65 L-55.6 22.1 -55.2 22.25 -55.2 22.5 -55.7 22.65 Q-56.95 22.65 -56.95 21.8 -56.95 19.7 -55.5 18.65 -53.35 17.0 -48.45 19.05 -48.4 15.85 -44.7 11.95 -40.05 7.0 -33.35 8.0 -34.45 7.2 -34.45 6.15 -34.45 5.15 -34.0 4.7 -32.85 3.65 -29.2 3.65 -29.55 2.6 -28.85 0.85 -28.4 -0.35 -27.7 -0.85 L-27.7 -0.95 Q-27.7 -3.05 -24.1 -3.15 -22.15 -3.2 -20.25 -2.45 L-21.35 -4.85 -21.45 -7.2 Q-21.45 -11.55 -18.6 -16.3 -15.25 -21.75 -10.1 -23.6 -15.95 -18.7 -18.35 -14.25 -20.5 -10.2 -20.5 -4.9 L-19.7 -2.2 Q-18.3 -1.5 -16.95 -0.35 -17.05 -0.05 -17.45 0.15 L-19.0 -0.8 Q-20.15 -1.5 -20.75 -1.5 L-26.25 -1.0 M-39.75 13.5 L-38.75 14.5 Q-39.0 14.25 -40.2 13.85 -41.1 13.55 -41.1 13.0 -41.25 12.25 -40.5 11.9 -40.2 12.3 -40.2 12.8 L-39.75 13.5 M-24.0 19.65 L-25.5 16.85 Q-24.7 16.7 -24.15 17.55 -23.75 18.2 -23.75 18.75 -23.75 19.35 -24.0 19.65 M-55.1 23.15 Q-55.95 23.8 -57.45 24.0 -59.15 24.25 -60.45 25.0 -61.0 24.75 -61.0 23.9 L-60.95 23.25 -58.15 23.1 -55.1 23.15" fill="#5b5546" fill-rule="evenodd" stroke="none"/>
  </g>
</svg>
