<?xml version="1.0" encoding="UTF-8" standalone="no"?>
<svg xmlns:xlink="http://www.w3.org/1999/xlink" height="69.6px" width="70.5px" xmlns="http://www.w3.org/2000/svg">
  <g transform="matrix(1.0, 0.0, 0.0, 1.0, 37.75, 25.35)">
    <path d="M15.2 -12.35 Q18.15 -13.25 20.5 -13.25 25.8 -13.25 29.0 -11.85 31.8 -10.65 31.8 -9.0 31.8 -7.95 30.75 -5.4 29.3 -1.95 27.3 -1.25 L27.95 -0.35 28.25 0.9 Q28.25 2.2 27.3 3.2 26.2 4.3 24.5 4.5 L25.3 10.1 Q-2.6 20.25 -11.5 20.25 -21.1 20.25 -22.7 17.6 -23.5 16.2 -22.55 14.3 -26.8 11.65 -30.6 12.7 -34.0 13.65 -36.25 11.75 L-37.25 10.3 -37.75 8.85 Q-37.75 7.35 -36.35 6.45 -34.45 5.2 -29.3 4.5 L-31.2 1.45 Q-32.25 -0.55 -32.25 -1.5 -32.25 -4.3 -31.7 -5.9 -30.65 -8.8 -30.0 -12.0 -29.65 -13.8 -28.95 -14.35 L-25.0 -14.25 Q-19.4 -12.6 -9.05 -13.6 1.25 -14.6 6.75 -13.0 L8.65 -12.05 Q9.5 -11.5 10.25 -11.5 12.25 -11.5 15.2 -12.35" fill="#ffffff" fill-rule="evenodd" stroke="none"/>
    <path d="M1.75 -10.3 L1.25 -6.35 Q1.25 -5.05 3.0 -1.7 4.75 1.65 4.75 3.5 4.75 4.35 3.5 6.2 2.25 8.0 2.25 8.35 2.25 9.0 2.8 12.7 L3.35 17.0 Q3.6 22.95 3.25 28.45 2.5 39.3 -0.5 39.3 -6.85 39.3 -8.8 34.4 -9.55 32.55 -9.55 28.6 -9.55 23.15 -6.9 14.5 -4.25 5.9 -4.25 4.85 -4.25 1.0 -5.75 -2.5 -7.25 -5.95 -7.25 -12.55 -7.25 -18.25 -5.75 -21.8 -4.45 -25.0 -2.5 -25.3 -0.55 -25.65 0.75 -22.9 2.25 -19.85 2.25 -14.25 L1.75 -10.3" fill="#ffffff" fill-rule="evenodd" stroke="none"/>
    <path d="M3.0 13.85 Q3.0 17.75 1.5 24.25 L0.0 30.55 Q0.0 31.35 -0.3 32.05 -0.9 33.4 -2.5 33.4 -5.15 33.4 -6.75 26.5 -8.15 18.5 -9.0 16.3 L-25.0 19.75 Q-26.6 19.75 -27.1 18.45 L-27.25 17.0 Q-27.25 14.55 -24.1 13.3 -18.65 11.2 -3.5 11.55 L1.55 12.1 Q3.0 12.65 3.0 13.85" fill="#ffffff" fill-rule="evenodd" stroke="none"/>
    <path d="M27.5 -8.5 L27.9 -5.15 Q28.1 -2.8 26.75 -1.0 30.55 -1.55 32.0 0.6 32.75 1.7 32.75 3.1 32.75 5.05 29.85 7.6 25.9 11.1 19.75 10.25 L20.1 10.5 20.25 12.1 Q20.25 14.5 18.25 15.55 16.85 16.25 15.0 16.25 -20.1 16.25 -31.5 10.0 -35.3 7.95 -36.25 5.25 L-36.5 2.1 -36.45 0.65 -35.3 -0.05 Q-30.55 -1.2 -23.5 -3.5 -23.5 -5.5 -23.25 -5.5 L-23.0 -5.75 -26.3 -5.95 -31.5 -6.5 -31.75 -6.95 -32.0 -8.75 Q-32.0 -11.55 -28.15 -12.9 -21.7 -15.25 -4.0 -14.75 27.25 -14.75 27.75 -13.0 28.0 -11.5 27.5 -8.5" fill="#8d6d3f" fill-opacity="0.3019608" fill-rule="evenodd" stroke="none"/>
    <path d="M16.0 -5.85 Q17.45 -7.25 19.0 -7.25 23.4 -7.25 26.5 -1.25 28.75 3.1 28.75 5.1 28.75 7.4 22.75 12.25 16.15 17.5 11.0 17.5 6.25 17.5 5.75 15.75 5.25 14.0 2.25 14.0 1.15 14.0 -1.1 15.65 -3.3 17.25 -5.5 17.25 -9.5 17.25 -10.15 14.85 L-10.0 12.25 -10.55 11.2 Q-10.75 10.75 -12.25 10.75 -14.35 10.75 -17.3 12.5 -20.25 14.25 -22.0 14.25 -26.65 14.25 -28.75 9.0 -30.0 5.9 -30.0 3.0 L-29.85 0.75 Q-29.35 -0.5 -27.25 -1.5 L-30.55 -2.3 Q-32.6 -2.8 -32.75 -3.25 -27.05 -7.05 -23.6 -8.7 -18.9 -11.0 -15.5 -11.0 -12.9 -11.0 -11.7 -9.35 -11.0 -7.75 -10.75 -7.75 -9.55 -7.75 -7.45 -8.85 L-3.65 -10.9 Q1.35 -13.4 4.5 -11.0 5.8 -8.9 5.35 -6.2 5.9 -4.5 13.5 -4.5 14.55 -4.5 16.0 -5.85" fill="#8d6d3f" fill-opacity="0.3019608" fill-rule="evenodd" stroke="none"/>
    <path d="M19.25 11.5 L9.25 12.1 -1.1 11.75 -7.25 11.4 Q-7.4 11.65 -7.4 11.0 -7.4 10.3 8.45 9.5 24.25 8.75 24.25 10.2 24.25 10.9 19.25 11.5" fill="#8d6d3f" fill-opacity="0.3019608" fill-rule="evenodd" stroke="none"/>
    <path d="M29.15 -2.9 Q19.3 0.9 -5.75 0.9 L-6.2 0.8 -6.4 0.6 -12.65 0.25 -12.75 0.0 Q-12.75 -0.75 -9.2 -1.1 L11.85 -2.65 19.85 -3.75 29.0 -3.25 29.15 -2.9" fill="#8d6d3f" fill-opacity="0.3019608" fill-rule="evenodd" stroke="none"/>
    <path d="M24.1 -5.95 L22.6 -6.05 19.1 -6.45 16.6 -7.05 21.7 -7.85 Q25.9 -8.3 26.5 -7.05 25.7 -6.1 24.1 -5.95" fill="#8d6d3f" fill-opacity="0.3019608" fill-rule="evenodd" stroke="none"/>
    <path d="M-6.05 -9.95 L-0.5 -9.25 Q-4.95 -8.25 -15.35 -8.25 L-29.15 -8.55 -29.35 -8.7 -29.4 -9.15 Q-29.4 -9.8 -28.4 -9.9 L-17.5 -10.25 -6.05 -9.95" fill="#8d6d3f" fill-opacity="0.3019608" fill-rule="evenodd" stroke="none"/>
    <path d="M-11.4 0.8 Q-11.0 0.95 -11.0 1.4 -11.0 1.8 -17.95 2.65 L-26.75 3.5 Q-28.05 3.5 -27.8 1.55 -27.8 0.9 -26.95 0.75 -24.95 0.45 -16.25 0.5 L-11.4 0.8" fill="#8d6d3f" fill-opacity="0.3019608" fill-rule="evenodd" stroke="none"/>
    <path d="M-4.0 8.0 L-11.95 9.0 -24.25 9.5 Q-26.05 9.5 -26.9 8.8 L-27.4 8.05 Q-27.4 7.45 -25.5 7.35 -22.65 7.15 -10.0 7.15 L-4.15 7.5 -4.05 7.55 -4.0 8.0" fill="#8d6d3f" fill-opacity="0.3019608" fill-rule="evenodd" stroke="none"/>
    <path d="M2.75 36.75 Q2.55 38.0 1.5 38.0 0.05 38.0 -0.05 36.4 L0.15 34.35 0.1 34.25 -0.55 40.0 Q-1.3 44.25 -3.5 44.25 -4.55 44.25 -4.75 43.0 L-4.75 41.65 Q-4.75 32.9 -4.0 18.75 -0.5 11.8 1.45 21.6 2.75 28.2 2.75 35.25 L2.75 36.75 M-1.75 26.1 L-1.55 26.1 Q-1.45 23.8 -1.75 22.9 L-1.75 26.1" fill="#8d6d3f" fill-opacity="0.3019608" fill-rule="evenodd" stroke="none"/>
    <path d="M1.2 18.6 L0.25 19.5 Q2.0 21.3 1.95 25.55 L1.5 32.8 Q1.35 37.0 -0.25 37.0 -2.7 37.0 -3.15 34.5 L-3.15 31.5 -3.5 31.95 -4.5 32.15 Q-5.55 32.15 -5.8 31.35 L-5.9 30.45 Q-6.0 26.95 -5.75 23.6 -5.25 16.9 -3.5 16.9 -2.85 16.9 -2.45 17.4 L-1.65 17.85 0.25 16.85 Q1.75 16.2 1.75 17.65 1.75 18.15 1.2 18.6" fill="#8d6d3f" fill-opacity="0.3019608" fill-rule="evenodd" stroke="none"/>
    <path d="M2.1 17.1 L2.25 18.2 1.9 21.25 1.5 25.7 Q0.9 30.75 -0.5 30.75 -2.2 30.75 -2.25 29.15 L-2.0 27.0 Q-2.15 25.2 -3.6 25.35 -5.0 25.45 -5.0 24.05 -5.0 20.65 -4.35 17.9 -3.3 13.2 -0.9 17.65 L-0.9 17.75 -0.5 16.8 Q-0.15 16.0 0.75 16.0 1.8 16.0 2.1 17.1" fill="#8d6d3f" fill-opacity="0.3019608" fill-rule="evenodd" stroke="none"/>
    <path d="M3.0 -14.5 Q3.0 -13.15 1.75 -13.15 0.9 -13.15 0.3 -13.85 L-0.25 -14.9 Q-0.4 -15.15 -1.0 -15.15 L-2.1 -14.35 Q-3.2 -13.55 -3.5 -13.55 -3.95 -13.55 -4.9 -16.7 L-5.75 -19.9 -5.8 -21.1 Q-5.6 -22.1 -4.4 -22.05 -4.7 -25.35 -2.8 -24.05 -0.5 -22.0 0.0 -22.0 0.6 -22.0 3.0 -14.5" fill="#8d6d3f" fill-opacity="0.3019608" fill-rule="evenodd" stroke="none"/>
    <path d="M1.25 -13.15 L-1.05 -14.4 -1.35 -13.7 Q-1.8 -13.15 -2.75 -13.15 -4.1 -13.15 -4.75 -17.4 -2.9 -20.5 -1.05 -22.35 2.65 -26.05 2.65 -20.15 2.05 -13.15 1.25 -13.15" fill="#8d6d3f" fill-opacity="0.3019608" fill-rule="evenodd" stroke="none"/>
    <path d="M-4.35 -13.05 Q-5.8 -13.05 -5.55 -14.25 -5.55 -15.6 -1.9 -17.3 1.75 -18.95 1.75 -15.25 1.75 -14.85 -1.25 -13.9 L-4.35 -13.05" fill="#8d6d3f" fill-opacity="0.3019608" fill-rule="evenodd" stroke="none"/>
    <path d="M2.1 -23.25 L2.1 -23.2 1.7 -20.2 1.9 -20.2 2.2 -13.1 1.0 -13.15 1.1 -16.5 1.3 -18.45 0.9 -18.0 Q0.65 -18.35 0.45 -19.85 L0.3 -21.5 0.5 -22.4 Q-0.85 -22.25 -3.65 -22.45 L-4.85 -22.2 -4.7 -15.15 -4.5 -13.65 -5.95 -13.6 -5.9 -15.9 -5.8 -16.25 -6.35 -21.6 -6.3 -22.2 -6.1 -22.8 -6.3 -22.85 -6.3 -22.95 -6.35 -23.45 Q-6.3 -24.15 -4.2 -24.4 -1.95 -24.6 1.1 -23.6 L1.9 -23.95 Q2.1 -24.25 2.1 -23.6 L2.1 -23.25 M0.6 16.45 L-0.15 16.45 -0.95 16.5 0.6 16.7 0.6 16.45 M0.7 14.95 L2.25 14.9 1.75 41.25 1.75 41.6 1.65 41.75 1.1 41.9 Q1.3 22.9 0.35 19.9 L0.05 20.0 -1.75 19.95 Q-3.6 19.75 -4.1 19.1 L-4.1 18.35 -3.85 17.55 -3.65 17.5 -4.65 17.35 -4.8 23.95 Q-5.0 34.95 -5.3 39.85 L-5.5 40.9 -5.9 41.35 Q-6.2 41.5 -6.1 29.35 L-5.9 15.1 -4.6 15.1 -4.65 16.4 -2.4 16.2 0.6 16.25 0.7 14.95 M0.5 18.45 L-0.9 18.4 -1.5 18.6 0.3 19.05 0.4 19.1 0.5 18.45 M-5.75 -22.65 L-5.4 -20.45 -5.2 -22.6 -5.5 -22.65 -5.75 -22.65 M-4.5 -13.5 L-5.55 -13.55 -4.5 -13.55 -4.5 -13.5" fill="#5a493f" fill-rule="evenodd" stroke="none"/>
    <path d="M6.7 -13.15 Q-0.15 -13.15 -2.3 -13.35 L-4.25 -13.25 -13.75 -14.05 -28.4 -14.85 -28.7 -14.85 -28.65 -12.5 -27.15 -13.05 Q-25.7 -13.25 -19.05 -12.9 L-19.0 -12.7 -23.85 -12.4 -26.3 -12.05 -27.9 -12.1 -28.6 -12.15 -28.55 -10.9 Q-28.55 -8.85 -28.85 -7.55 L-29.1 -2.9 -28.4 1.3 -28.3 1.3 -27.8 1.5 -27.1 1.5 Q-25.25 1.6 -24.6 2.4 -23.4 2.3 -22.95 2.75 L-22.95 3.05 -25.15 3.55 -28.35 4.05 -28.3 8.0 Q-28.3 11.0 -27.7 12.95 L-27.7 13.25 -27.9 13.35 -28.5 13.25 -28.4 14.75 -22.15 14.45 -10.7 14.7 -5.5 14.85 -4.9 14.45 4.25 14.05 15.7 14.35 Q16.65 13.55 18.1 13.85 L21.85 14.0 22.4 13.9 Q22.6 12.8 23.85 10.35 L22.1 10.4 21.25 10.5 20.45 10.4 19.9 10.2 22.3 9.65 Q23.75 9.35 24.2 9.65 L25.9 6.55 29.15 0.95 27.0 -4.0 26.15 -3.95 23.6 -3.8 21.5 -3.9 19.4 -4.15 Q20.1 -4.2 20.3 -4.5 L26.9 -4.25 26.1 -6.15 25.0 -6.15 Q24.85 -6.1 24.85 -6.75 L24.9 -7.15 25.7 -7.1 25.1 -8.5 22.85 -13.45 21.85 -13.6 17.1 -13.75 15.7 -13.65 6.7 -13.15 M1.55 -15.25 Q2.75 -15.6 18.1 -15.55 L21.25 -15.2 21.55 -15.2 Q22.1 -18.25 25.9 -9.75 L27.15 -6.85 27.6 -6.65 27.3 -6.4 28.25 -4.15 28.4 -4.15 28.3 -4.1 29.35 -1.0 Q29.55 -1.15 29.7 -1.15 29.7 -0.45 30.1 0.6 L30.3 1.15 28.85 3.65 26.3 8.05 24.6 11.75 23.35 14.2 23.45 14.6 22.3 15.85 16.65 15.55 10.8 15.75 3.75 15.75 4.1 15.85 2.45 16.3 -6.65 16.65 -17.95 16.35 -29.9 15.65 -30.0 15.35 -29.7 15.1 -29.7 14.85 -29.5 12.15 -29.2 10.65 -29.2 9.7 Q-29.2 5.55 -28.9 4.0 L-29.25 3.95 -29.85 3.75 -28.8 3.45 -28.7 3.25 -28.4 3.25 -28.4 3.35 -27.9 3.2 -28.55 2.8 -29.7 1.9 -29.7 1.75 Q-30.15 1.3 -30.3 -0.25 L-30.3 -2.55 -30.25 -10.25 Q-29.95 -15.4 -29.05 -16.65 L-28.7 -16.55 -28.7 -16.05 -28.2 -16.25 -20.4 -16.45 -10.9 -15.25 0.9 -14.55 -0.4 -14.8 1.5 -14.95 1.55 -15.25 M29.55 -0.35 L29.6 0.15 29.7 0.05 29.7 -0.35 29.55 -0.35 M-24.5 -10.0 L-24.75 -10.25 Q-23.25 -10.9 -20.0 -10.8 -16.9 -10.65 -16.55 -10.25 L-20.75 -9.95 -24.5 -10.0" fill="#5a493f" fill-rule="evenodd" stroke="none"/>
    <path d="M10.55 -7.95 Q10.55 -9.7 14.65 -5.95 18.7 -2.25 18.7 -1.8 L18.55 -1.3 18.5 -1.1 Q19.1 -1.65 19.45 -1.65 L19.55 -1.6 19.55 -1.45 Q19.55 -1.15 18.95 -0.55 L18.55 -0.15 18.65 0.05 15.3 2.9 11.75 5.7 11.15 5.3 Q10.9 4.9 10.3 4.9 9.55 4.9 9.4 4.6 L9.35 4.25 Q9.35 3.75 10.3 3.05 L10.15 2.9 10.15 2.65 Q10.15 2.0 11.35 1.25 L11.6 1.15 10.45 1.25 4.75 2.35 -8.45 3.85 -8.9 4.5 -8.9 5.75 -8.9 6.45 Q-8.95 6.85 -9.25 6.85 -10.05 6.85 -10.0 5.45 -9.9 4.05 -10.45 4.05 L-10.75 4.15 -11.15 5.35 -10.9 7.0 -10.9 8.1 Q-11.05 8.95 -11.55 8.95 L-11.95 8.9 -11.9 5.75 -11.95 4.75 Q-12.0 4.2 -12.3 4.0 L-14.45 4.05 -17.2 3.6 -17.35 3.15 Q-17.35 2.75 -16.95 2.65 L-14.85 2.35 -15.75 2.25 -15.9 2.0 Q-15.2 1.15 -12.85 0.85 L-12.9 0.65 -20.8 0.4 -21.0 0.15 -21.05 -0.25 Q-21.05 -0.9 -18.55 -1.45 L-13.7 -1.95 -13.5 -2.05 Q-13.9 -2.5 -13.55 -3.05 L-19.6 -3.35 -20.05 -3.8 -20.15 -3.95 -19.1 -4.2 Q-16.15 -4.55 -5.9 -4.45 L11.5 -4.2 11.75 -4.2 11.6 -4.4 9.65 -6.95 Q9.65 -8.15 11.1 -7.15 L11.25 -7.3 10.55 -7.95 M-11.7 4.0 L-11.65 4.05 -11.6 4.0 -11.7 4.0" fill="#5a493f" fill-rule="evenodd" stroke="none"/>
  </g>
</svg>
