<?xml version="1.0" encoding="UTF-8" standalone="no"?>
<svg xmlns:xlink="http://www.w3.org/1999/xlink" height="73.7px" width="107.95px" xmlns="http://www.w3.org/2000/svg">
  <g transform="matrix(1.0, 0.0, 0.0, 1.0, 51.55, 35.6)">
    <path d="M17.6 -23.75 Q16.7 -23.0 14.25 -21.65 L17.5 -19.35 Q18.75 -18.45 18.75 -16.85 18.75 -14.75 8.25 -7.95 -2.4 -1.05 -6.2 -1.05 -8.45 -1.05 -9.15 -2.35 -9.5 -3.0 -9.45 -3.75 -9.45 -5.3 -7.65 -6.45 -6.0 -7.5 -0.9 -9.5 L-1.2 -11.4 Q-1.85 -11.3 -3.6 -11.85 -5.5 -12.45 -6.2 -12.45 -7.55 -12.45 -11.25 -8.9 -14.95 -5.4 -18.05 -5.4 -19.55 -5.4 -22.1 -6.65 -21.55 -0.6 -25.65 1.65 L-30.2 3.85 Q-33.4 5.5 -35.85 7.65 -31.75 9.2 -31.7 12.65 -31.7 14.55 -32.75 17.75 L-24.95 13.8 Q-17.85 10.1 -17.45 10.1 -14.7 10.1 -14.0 12.4 -13.65 13.55 -13.85 14.85 L-13.95 17.25 Q-14.25 18.35 -15.45 19.35 L-15.45 19.5 -0.85 10.7 Q11.2 3.3 13.1 3.3 15.75 3.3 17.1 5.85 17.7 6.95 18.3 9.8 L29.2 1.8 Q35.6 -3.15 42.6 -5.6 41.25 -7.45 41.25 -9.8 41.25 -12.1 41.7 -13.05 42.15 -13.95 44.55 -16.85 L35.95 -19.75 Q34.35 -20.6 34.35 -22.8 L34.95 -25.1 Q35.95 -27.3 38.1 -27.3 47.45 -27.3 52.5 -24.55 56.4 -22.4 56.4 -19.85 56.4 -17.9 55.1 -16.55 52.9 -14.7 51.2 -12.75 53.35 -11.75 54.1 -10.5 54.5 -9.8 54.5 -8.6 54.5 -4.1 45.5 1.6 35.0 7.4 32.0 9.65 25.45 14.7 15.0 20.95 2.05 28.7 -2.15 28.7 -4.8 28.7 -7.15 26.9 -9.5 25.1 -10.1 25.1 -10.5 25.1 -18.85 29.0 -27.15 32.9 -28.7 32.9 -31.95 32.9 -33.1 31.2 -33.6 30.45 -33.6 29.3 L-33.0 27.95 -31.8 26.1 -31.5 25.55 Q-33.15 25.85 -36.15 27.95 -38.8 29.85 -42.15 29.85 -46.75 29.85 -47.8 27.75 -48.3 26.7 -47.9 25.5 -47.9 23.6 -44.75 20.2 L-39.8 14.55 Q-42.6 11.3 -45.05 10.55 -46.65 10.05 -46.65 9.45 -46.65 6.1 -42.75 3.9 -44.8 2.95 -48.25 -1.5 -51.5 -5.7 -51.5 -6.8 -51.5 -9.0 -47.45 -17.3 -42.7 -27.15 -38.7 -27.15 -36.3 -27.15 -35.55 -25.2 L-35.25 -23.1 Q-35.25 -21.5 -38.3 -17.35 -41.4 -13.15 -41.4 -9.95 -41.4 -8.7 -30.3 -1.65 -29.45 -3.0 -26.95 -10.95 -24.8 -17.7 -22.1 -20.1 -20.95 -21.15 -14.55 -23.6 -7.45 -26.3 -0.55 -28.05 18.9 -33.1 18.9 -26.15 18.9 -24.9 17.6 -23.75" fill="#ffffff" fill-opacity="0.3019608" fill-rule="evenodd" stroke="none"/>
    <path d="M15.65 -29.55 Q25.6 -33.75 30.15 -30.9 31.65 -29.1 40.6 -27.35 48.3 -25.85 48.3 -22.4 48.3 -21.55 47.55 -20.5 46.65 -19.25 45.0 -18.45 L47.9 -14.15 Q49.2 -11.75 49.2 -9.95 49.2 -8.85 44.85 -4.4 40.15 0.4 34.05 5.1 17.4 18.05 6.9 18.05 5.45 18.05 -12.0 28.1 L-29.3 38.1 Q-30.55 38.1 -31.8 37.05 -33.0 36.1 -33.6 34.8 L-36.2 35.65 -38.7 36.2 Q-42.05 36.2 -43.2 34.05 -43.75 32.95 -43.7 31.7 -43.7 30.7 -43.35 30.0 L-42.45 28.7 Q-42.85 28.2 -47.6 24.05 -49.8 22.1 -49.8 19.5 -49.8 18.1 -48.75 16.25 -47.75 14.4 -47.75 12.9 L-49.6 10.9 -51.5 8.75 Q-51.5 6.85 -48.85 4.1 -46.25 1.45 -42.9 -0.3 -45.0 -1.2 -46.6 -5.25 -47.9 -8.55 -47.9 -10.35 -47.9 -12.0 -46.7 -15.3 -45.25 -19.35 -42.85 -22.8 -36.1 -32.6 -25.65 -32.6 -18.8 -32.6 -13.5 -31.0 -3.65 -28.15 -4.5 -20.9 L-4.5 -20.6 -1.85 -20.9 Q0.6 -20.9 2.5 -19.95 L5.6 -17.9 6.55 -18.7 7.35 -19.5 Q7.35 -20.25 6.8 -21.15 6.2 -22.05 6.2 -22.8 6.2 -23.9 9.0 -25.9 11.8 -27.9 15.65 -29.55 M1.05 1.5 Q0.7 1.35 -0.3 2.0 L-0.9 2.45 0.15 2.15 1.05 1.5" fill="#ffffff" fill-rule="evenodd" stroke="none"/>
    <path d="M15.5 -22.45 Q15.5 -22.1 13.5 -21.8 L11.1 -21.55 9.4 -21.7 9.35 -21.8 12.9 -22.3 15.4 -22.65 15.45 -22.7 15.5 -22.45 M18.9 -21.7 L9.55 -19.35 8.7 -19.4 8.05 -19.55 13.7 -21.1 18.8 -21.9 18.85 -21.9 18.9 -21.7 M13.85 -24.45 L14.0 -24.3 10.9 -23.9 10.0 -24.0 9.4 -24.1 Q10.4 -24.9 12.0 -24.8 L13.75 -24.55 13.85 -24.45 M12.45 -14.7 L11.95 -14.85 23.85 -18.0 24.1 -17.95 24.2 -17.65 Q24.2 -17.35 13.0 -14.65 L12.75 -14.65 12.45 -14.7 M14.6 -13.4 L21.1 -15.2 27.6 -16.6 27.65 -16.55 27.7 -16.35 27.25 -15.9 26.05 -15.5 26.6 -15.9 26.65 -15.95 21.5 -14.5 Q16.9 -13.2 15.4 -13.2 L14.6 -13.4 M9.15 -16.0 Q11.9 -17.2 14.5 -17.7 L21.45 -18.6 21.5 -18.65 21.55 -18.4 17.8 -17.75 Q13.05 -17.1 9.6 -15.9 L9.15 -16.0 M9.3 -17.6 Q12.05 -18.6 15.1 -19.3 L21.2 -20.55 21.25 -20.6 21.3 -20.35 Q21.3 -19.9 10.15 -17.5 L9.55 -17.5 9.3 -17.6 M18.7 -10.1 L22.35 -11.4 25.8 -12.2 25.9 -11.9 Q24.9 -11.1 22.8 -10.5 L19.55 -9.9 19.0 -9.95 18.7 -10.1 M19.5 -4.85 L22.75 -5.85 Q24.65 -6.5 26.85 -6.65 L26.9 -6.6 26.95 -6.4 26.85 -6.1 23.7 -5.3 20.6 -4.6 19.9 -4.7 19.5 -4.85 M18.25 -11.9 L17.85 -12.05 22.25 -13.4 26.3 -14.4 26.35 -14.45 26.4 -14.2 26.25 -13.7 26.05 -13.7 18.65 -11.8 18.25 -11.9 M26.95 -9.6 Q26.95 -9.2 21.15 -8.0 L20.6 -8.05 Q20.25 -8.1 20.2 -8.2 21.1 -9.35 22.95 -9.6 L26.85 -9.8 26.9 -9.8 26.95 -9.6 M22.95 -1.6 L23.05 -1.6 23.35 -1.55 25.35 -1.8 26.55 -2.0 26.65 -1.8 Q26.2 -1.7 25.7 -1.25 L23.85 -1.0 22.9 -1.05 22.85 -1.05 22.8 -1.25 22.85 -1.55 22.95 -1.6 M21.2 -3.2 L24.5 -3.85 26.85 -3.65 Q25.45 -2.9 23.3 -2.9 L22.3 -3.0 21.2 -3.2 M23.95 0.7 L24.0 0.45 24.05 0.4 24.7 0.5 25.6 0.75 25.2 0.9 24.0 0.85 23.95 0.7 M-44.8 -14.75 Q-41.5 -15.3 -36.15 -16.8 -31.3 -18.1 -27.5 -18.6 L-27.45 -18.55 -27.4 -18.3 -27.7 -18.0 -29.2 -17.75 -29.05 -17.9 -28.95 -17.95 -36.25 -16.25 -44.45 -14.65 -44.8 -14.75 M-43.1 -12.85 L-35.8 -15.0 -27.1 -16.15 -27.1 -16.1 -27.05 -15.9 Q-27.05 -15.5 -27.45 -15.35 L-28.6 -14.95 -28.7 -15.0 -27.85 -15.5 -27.65 -15.6 -35.95 -14.4 -43.05 -12.75 -43.1 -12.85 M-43.45 -20.95 L-40.4 -21.55 -37.8 -21.8 -40.3 -21.15 -42.6 -20.8 -43.45 -20.95 M-42.55 -22.45 Q-42.55 -22.85 -41.05 -23.1 L-39.0 -23.45 -38.7 -23.3 Q-38.9 -23.0 -40.35 -22.6 L-42.2 -22.25 -42.5 -22.3 Q-42.55 -22.1 -42.55 -22.45 M-42.9 -20.0 L-39.05 -20.75 -35.45 -21.3 -35.3 -21.25 -35.05 -21.15 -38.4 -20.45 -42.2 -19.85 -42.9 -20.0 M-44.3 -18.2 L-38.6 -19.5 -33.3 -20.35 -42.95 -18.05 -44.3 -18.2 M-45.75 -10.05 Q-41.5 -10.65 -35.6 -12.15 L-27.1 -13.7 -27.1 -13.6 -35.6 -11.65 -45.2 -9.95 -45.75 -10.05 M-42.0 -8.5 L-33.45 -11.2 -25.8 -13.0 -25.6 -12.95 -25.5 -12.7 Q-25.5 -12.3 -31.8 -10.8 L-41.35 -8.4 -42.0 -8.5 M-42.8 -6.25 L-43.1 -6.4 -34.35 -9.15 -25.3 -11.4 -25.45 -10.7 -25.5 -10.65 Q-26.05 -10.35 -26.6 -10.2 L-26.7 -10.3 -25.85 -10.7 -25.8 -10.8 -35.5 -8.05 -42.3 -6.15 -42.8 -6.25 M-32.85 -18.75 L-32.6 -18.95 -37.35 -17.85 -42.9 -16.8 -37.5 -18.35 Q-34.45 -19.25 -31.4 -19.3 L-31.4 -19.2 -32.85 -18.75 M-40.1 -5.2 L-40.5 -5.3 -33.2 -7.55 -25.55 -9.3 -25.55 -8.85 Q-26.05 -8.5 -27.85 -8.1 L-32.8 -7.0 Q-38.7 -5.15 -39.45 -5.15 L-40.1 -5.2 M-40.15 -3.7 L-33.65 -5.45 Q-30.25 -6.4 -27.9 -6.4 L-28.0 -6.15 -33.6 -4.8 -39.8 -3.6 -40.15 -3.7 M-14.8 -8.95 L-16.2 -8.65 -17.6 -8.7 -17.7 -8.85 Q-16.65 -9.7 -15.7 -9.8 L-13.85 -9.45 -13.8 -9.35 -14.8 -8.95 M-19.3 -1.65 L-11.5 -3.2 -4.6 -4.6 -4.3 -4.35 -11.65 -2.7 -17.9 -1.5 -18.7 -1.5 -19.3 -1.65 M-18.35 -6.15 L-15.6 -7.4 -12.0 -7.9 Q-13.25 -7.0 -15.5 -6.4 L-17.6 -6.0 -18.35 -6.15 M-18.35 -4.55 L-14.4 -5.9 Q-11.35 -6.8 -9.85 -6.6 L-9.8 -6.5 Q-16.9 -4.45 -18.0 -4.45 L-18.35 -4.55 M-19.5 -2.7 L-14.8 -4.05 -9.4 -5.45 -9.35 -5.5 -9.35 -5.3 Q-9.35 -5.05 -14.4 -3.75 L-19.75 -2.5 -19.7 -2.75 -19.5 -2.7 M-13.65 -0.8 L-8.7 -1.9 -3.75 -2.65 -3.7 -2.7 -3.7 -2.45 -12.1 -0.55 -13.65 -0.8 M-1.3 -1.1 L-1.3 -0.9 Q-1.3 -0.5 -4.75 0.0 -9.6 0.6 -12.4 1.4 L-13.4 1.2 -7.75 -0.05 -1.35 -1.1 -1.3 -1.1 M-2.2 3.25 L-5.05 3.85 -7.6 4.3 -8.45 4.45 -9.3 4.6 -9.8 4.55 -10.05 4.4 -5.5 2.85 -2.15 3.0 -2.2 3.25 M-2.85 5.4 L-5.4 6.25 -8.35 7.0 -9.5 6.8 Q-9.95 6.5 -10.05 6.5 L-9.75 6.5 -9.25 6.6 -5.8 5.95 -2.95 5.2 -2.9 5.2 -2.85 5.4 M-1.3 0.65 L-5.4 1.95 -10.25 3.0 -10.9 2.85 -5.9 1.25 -1.45 0.35 -1.3 0.65 M-7.25 8.45 L-7.9 8.3 -4.55 7.9 -1.2 7.7 Q-1.6 8.15 -6.35 8.55 L-7.25 8.45 M-6.0 10.5 L-6.0 10.6 -5.8 10.65 -4.1 10.1 -1.6 9.8 -1.5 10.0 Q-1.75 10.25 -2.8 10.6 L-5.0 11.0 -6.0 10.95 -6.1 10.8 -6.0 10.5 M-1.6 12.05 Q-1.7 12.3 -3.95 12.8 L-5.1 12.75 Q-5.0 12.55 -5.25 12.3 L-4.85 12.35 -3.6 11.95 Q-2.4 11.65 -1.6 11.95 L-1.6 12.05 M-1.5 14.7 L-2.65 14.65 Q-2.7 14.6 -3.2 14.3 L-3.2 14.2 -1.35 14.5 -1.3 14.65 -1.5 14.7 M-1.9 18.1 L-2.4 17.7 -2.5 17.25 -2.4 17.2 Q-2.1 17.65 -1.45 17.95 L-1.9 18.1 M-30.2 9.85 L-30.25 10.1 -30.35 10.15 Q-32.8 10.35 -39.1 11.8 L-45.1 13.15 -46.15 13.1 -46.95 12.9 Q-39.25 10.8 -30.35 9.6 L-30.3 9.6 Q-30.2 9.65 -30.2 9.85 M-27.55 12.0 L-28.1 12.4 -28.8 12.7 -28.45 12.4 -28.3 12.35 -37.7 14.4 -46.75 16.1 -47.65 16.0 -37.4 13.4 Q-32.9 12.35 -27.65 11.8 L-27.55 12.0 M-39.05 9.9 L-44.45 10.8 -45.35 10.75 -46.0 10.6 -40.05 9.55 -33.3 8.75 -39.05 9.9 M-39.45 6.5 Q-40.1 7.45 -43.15 8.2 L-46.15 8.7 -41.6 8.5 -39.6 8.05 -39.55 8.15 -41.45 8.65 -43.9 9.1 -46.95 9.05 -47.0 8.9 Q-47.0 8.5 -44.75 7.75 L-42.9 7.25 -46.05 7.8 -46.8 7.65 -46.85 7.45 -43.75 6.8 -39.6 6.25 -39.45 6.5 M-34.55 19.4 L-38.6 20.6 -42.45 21.5 -43.4 21.4 -44.2 21.3 -32.9 18.5 -28.1 17.45 -28.2 18.1 -34.55 19.4 M-29.4 22.75 L-34.65 24.15 -40.4 25.25 -41.35 25.2 -41.75 25.0 -40.7 25.0 -35.0 23.8 Q-30.55 22.6 -29.5 22.55 L-29.4 22.75 M-29.55 32.8 L-29.5 33.25 -31.0 32.65 -29.55 32.8 M-27.3 14.4 L-27.6 15.3 -27.95 15.3 -36.75 16.95 -41.55 18.2 -46.75 19.1 -47.6 19.05 -48.2 18.95 -36.4 16.15 Q-32.35 15.2 -27.3 14.4 M-28.35 19.35 L-28.45 20.3 -33.55 21.55 Q-40.25 23.0 -44.3 23.5 L-44.7 23.4 -36.5 21.25 -28.35 19.35 M-29.05 28.3 L-32.85 29.05 -36.75 29.55 -37.1 29.45 -37.4 29.25 -37.45 29.15 -37.15 29.2 -36.75 29.3 -32.9 28.65 -29.1 28.1 -29.05 28.3 M-29.2 30.55 L-33.3 31.3 -35.05 30.95 -32.3 30.55 -29.65 30.4 -29.45 30.45 -29.2 30.55 M-30.65 26.25 Q-31.1 26.9 -32.65 27.05 L-34.5 27.05 -36.8 26.85 -37.5 26.6 -33.45 25.9 -30.75 26.05 -30.65 26.25 M-41.05 4.95 L-40.9 5.05 -42.8 5.3 -44.7 5.4 -46.5 5.4 -46.55 5.2 -43.95 4.9 -41.15 4.85 -41.05 4.95" fill="#5b5546" fill-rule="evenodd" stroke="none"/>
    <path d="M-28.3 5.0 L-24.3 4.95 -24.35 5.6 Q-25.6 6.6 -27.15 6.8 L-31.9 6.45 -32.4 7.6 -33.1 7.35 Q-33.4 5.15 -33.05 2.85 -32.6 0.3 -30.25 0.25 L-30.75 2.95 -25.1 -0.85 Q-24.0 -0.9 -23.05 -0.35 L-23.0 0.15 -23.65 1.05 Q-25.75 3.25 -28.3 5.0 M-26.85 -5.5 L-32.9 -3.0 Q-34.55 -2.85 -35.95 -1.9 -36.75 -1.4 -37.65 -1.0 -40.75 0.35 -43.7 2.25 L-43.3 2.7 Q-39.55 5.5 -35.35 7.6 L-27.7 11.35 -22.25 7.95 -21.9 7.7 -20.55 7.0 -12.2 2.65 Q-13.6 1.55 -16.6 0.45 L-21.4 -2.25 -21.4 -2.3 -26.85 -5.5 M-27.1 -26.25 L-27.15 -26.8 Q-27.2 -25.3 -26.4 -23.85 -26.0 -23.2 -26.0 -22.55 -26.0 -21.1 -27.4 -21.2 -28.4 -22.0 -28.8 -23.25 L-29.85 -26.25 Q-30.0 -26.75 -29.65 -27.2 -28.75 -28.35 -27.4 -28.55 -24.05 -29.25 -21.05 -28.0 L-21.1 -27.35 -23.6 -26.95 Q-20.25 -25.6 -17.75 -23.15 -17.65 -22.6 -18.05 -22.3 -18.4 -21.95 -18.8 -22.0 -20.95 -22.35 -22.8 -23.8 -24.8 -25.5 -27.1 -26.25 M-41.75 -22.1 L-44.0 -13.4 -45.2 -8.9 Q-45.65 -7.25 -46.65 -6.4 L-38.9 -1.85 -37.5 -2.35 -37.6 -2.4 -35.95 -3.0 -35.65 -3.15 -35.6 -3.1 -27.55 -6.4 -26.2 -6.35 Q-24.75 -6.05 -21.0 -3.6 L-19.0 -10.05 -19.45 -11.4 -19.0 -12.65 Q-18.35 -13.35 -17.4 -13.8 L-14.2 -15.25 -4.85 -18.95 -6.4 -24.4 -7.4 -24.65 -24.1 -14.45 -25.7 -15.15 Q-34.0 -18.95 -41.2 -24.3 L-41.75 -22.1 M-40.1 -25.55 L-39.7 -25.1 Q-36.25 -22.55 -32.5 -20.65 L-24.1 -16.45 Q-16.3 -20.8 -8.6 -25.15 L-23.2 -33.3 Q-26.35 -31.85 -29.7 -30.7 -34.5 -29.0 -38.9 -26.3 L-40.1 -25.55 M26.7 -35.6 L31.15 -34.0 45.4 -26.55 45.25 -26.1 51.15 -8.3 51.55 -7.85 51.55 -7.4 51.15 -7.05 Q48.25 -4.8 45.05 -2.95 37.95 1.2 30.7 4.9 29.95 5.25 29.25 5.7 27.55 6.7 25.9 6.3 L25.7 5.7 49.6 -7.45 44.2 -25.85 43.25 -26.1 26.5 -15.9 Q17.4 -19.85 9.4 -25.75 L7.4 -17.8 18.8 -11.95 18.65 -11.5 24.15 4.85 25.3 5.7 24.5 6.35 24.95 6.75 24.9 7.2 24.25 7.9 18.45 11.7 Q12.2 15.3 5.9 18.55 L2.65 20.35 Q0.95 21.35 -0.7 20.9 L-0.95 20.3 Q11.25 14.25 23.0 7.2 L22.65 6.2 22.2 3.15 21.55 1.5 Q19.4 -4.8 17.6 -11.2 L16.65 -11.5 15.8 -10.9 15.8 -10.7 15.7 -10.6 -0.1 -1.25 -1.05 -1.65 -1.7 -1.6 -11.45 -7.2 Q-13.95 -8.7 -16.3 -10.45 L-16.1 -11.0 -15.9 -11.2 Q-15.6 -10.9 -13.3 -9.75 L-10.4 -8.4 -7.4 -6.8 Q-6.05 -6.15 -5.1 -5.85 L-4.95 -5.8 -4.75 -5.6 Q-2.2 -3.35 -0.6 -3.35 L-0.3 -3.4 -0.05 -3.3 4.3 -5.95 15.45 -11.95 4.2 -18.1 4.3 -18.05 0.7 -20.05 Q-0.85 -19.9 -2.75 -18.7 -4.9 -18.25 -6.8 -17.15 -7.5 -16.7 -8.3 -16.4 -12.05 -14.9 -15.5 -12.75 L-15.85 -12.7 -16.3 -12.4 -16.75 -12.0 -17.35 -11.05 -17.6 -10.25 -17.55 -9.95 -17.5 -9.9 -19.35 -2.65 -10.55 1.65 Q-9.6 2.0 -8.85 2.7 L-9.0 3.15 -3.8 18.6 -1.3 20.3 -2.1 20.9 -3.25 20.5 -3.15 20.95 -2.7 21.4 -2.75 21.8 -3.4 22.5 -9.2 26.3 Q-16.35 30.45 -23.6 34.1 L-25.05 34.9 Q-26.7 35.95 -28.35 35.55 L-28.6 34.9 -4.65 21.8 -5.25 19.8 Q-4.7 17.0 -6.25 14.35 L-7.65 11.3 -9.9 3.9 -10.05 3.4 -11.0 3.15 -27.75 13.35 Q-36.9 9.4 -44.85 3.5 -46.2 9.0 -47.7 14.4 L-48.3 16.95 Q-48.85 19.45 -50.15 21.4 L-49.7 21.7 Q-38.95 27.75 -28.95 34.9 L-29.75 35.5 -30.3 35.4 Q-31.55 34.7 -32.85 34.45 L-33.5 34.2 -36.55 32.25 -47.6 24.3 -51.55 21.25 -50.85 21.1 Q-51.25 20.15 -50.95 19.05 -49.05 11.7 -46.65 4.55 L-47.1 3.25 -46.65 2.0 -46.35 1.7 Q-43.6 0.1 -40.65 -1.15 L-47.9 -6.55 -47.2 -6.7 -47.35 -7.15 -47.25 -8.7 Q-45.4 -16.1 -43.0 -23.25 L-43.45 -24.55 -43.0 -25.8 -42.5 -26.3 Q-39.6 -27.95 -36.5 -29.1 L-23.9 -34.2 Q-21.05 -33.65 -18.5 -32.1 -14.1 -29.45 -9.35 -27.45 -7.15 -26.5 -5.2 -25.1 L-5.4 -24.65 -3.55 -19.55 -4.1 -19.25 -3.0 -19.7 -2.65 -19.85 -2.45 -19.9 Q-0.4 -21.2 0.1 -21.0 3.1 -20.35 5.75 -18.7 L7.65 -24.7 7.2 -26.0 7.6 -27.25 8.15 -27.7 14.15 -30.55 26.7 -35.6 M27.4 -34.7 L23.15 -32.95 16.45 -30.2 Q13.4 -28.8 10.55 -27.0 11.45 -25.7 13.05 -24.85 L19.7 -21.35 26.55 -17.9 42.05 -26.6 27.4 -34.7 M22.5 -28.1 L22.6 -28.65 Q25.6 -30.35 29.05 -30.1 30.8 -30.0 31.35 -28.3 32.05 -26.1 31.1 -24.25 L30.55 -24.3 Q29.4 -24.85 29.8 -26.25 30.1 -27.3 29.6 -27.65 L29.65 -26.9 27.85 -25.35 24.4 -23.1 Q22.8 -22.1 21.15 -22.7 L21.2 -23.2 25.4 -26.6 27.25 -27.7 22.5 -28.1" fill="#5b5546" fill-rule="evenodd" stroke="none"/>
  </g>
</svg>
