<?xml version="1.0" encoding="UTF-8" standalone="no"?>
<svg xmlns:xlink="http://www.w3.org/1999/xlink" height="22.7px" width="14.25px" xmlns="http://www.w3.org/2000/svg">
  <g transform="matrix(1.0, 0.0, 0.0, 1.0, 7.1, 11.35)">
    <path d="M0.75 -11.2 Q1.35 -11.65 1.45 -10.75 L4.3 -7.35 Q7.15 -3.5 7.15 -2.35 L7.0 -1.85 6.4 -1.5 Q6.0 -1.5 4.1 -4.85 L1.45 -9.1 1.3 -5.8 Q1.15 -3.65 1.15 0.55 L1.2 7.15 Q1.05 11.35 0.15 11.35 -0.75 11.35 -0.75 10.3 L-0.4 -1.0 -0.15 -8.2 -2.9 -4.95 Q-5.6 -1.75 -6.6 -1.75 -6.95 -1.75 -7.05 -2.0 L-7.1 -2.3 -5.05 -4.65 -2.75 -6.9 -1.3 -9.65 Q-0.45 -11.3 0.65 -11.25 L0.75 -11.2" fill="#5b5546" fill-rule="evenodd" stroke="none"/>
  </g>
</svg>
