<?xml version="1.0" encoding="UTF-8" standalone="no"?>
<svg xmlns:xlink="http://www.w3.org/1999/xlink" height="24.05px" width="14.35px" xmlns="http://www.w3.org/2000/svg">
  <g transform="matrix(1.0, 0.0, 0.0, 1.0, 7.05, 11.95)">
    <path d="M1.45 -0.55 Q1.3 2.45 1.5 8.5 1.15 12.1 0.5 12.1 -0.4 12.1 -0.3 11.0 L0.25 0.3 1.05 -10.55 -2.45 -5.1 Q-4.85 -1.3 -6.4 -1.3 L-7.05 -1.5 -6.2 -2.45 -6.4 -2.3 -6.4 -2.2 Q-5.0 -3.45 -2.0 -8.3 0.45 -12.25 1.1 -11.95 3.5 -10.85 7.3 -2.25 7.3 -1.55 6.7 -1.55 5.95 -1.55 4.05 -5.25 L2.05 -9.0 1.8 -5.2 1.45 -0.55" fill="#5b5546" fill-rule="evenodd" stroke="none"/>
  </g>
</svg>
