<?xml version="1.0" encoding="UTF-8" standalone="no"?>
<svg xmlns:xlink="http://www.w3.org/1999/xlink" height="232.15px" width="15.45px" xmlns="http://www.w3.org/2000/svg">
  <g transform="matrix(1.0, 0.0, 0.0, 1.0, 8.0, 118.15)">
    <path d="M6.25 -116.0 Q6.25 -106.6 2.8 -101.75 4.85 -85.2 6.45 -68.25 8.0 -51.35 7.05 -42.65 6.1 -34.0 6.65 -26.05 7.15 -18.1 6.8 -8.35 6.6 -1.9 4.9 9.2 3.3 19.6 3.3 25.1 L4.3 46.35 3.5 87.15 2.5 101.25 Q2.5 102.35 3.75 104.25 5.0 106.15 5.0 107.8 5.0 108.75 3.05 111.25 0.9 114.0 -0.5 114.0 -7.7 114.0 -7.7 99.85 -7.7 95.75 -7.0 88.25 -6.3 81.1 -6.35 79.05 L-7.0 61.3 -7.5 44.0 Q-7.5 32.2 -5.9 7.5 -4.35 -17.2 -4.35 -29.05 -4.35 -32.85 -5.35 -47.7 -6.35 -62.55 -6.35 -68.25 L-6.35 -89.6 -6.0 -91.85 -7.25 -99.8 -7.0 -102.1 Q-6.35 -108.5 -6.5 -115.8 L-6.5 -116.05 -3.7 -116.95 Q-3.25 -117.35 -2.5 -117.35 L-2.3 -117.35 1.0 -117.85 3.9 -117.45 Q6.25 -118.4 6.25 -116.0" fill="#ffffff" fill-rule="evenodd" stroke="none"/>
    <path d="M3.6 -101.7 L5.5 -88.6 4.75 -74.7 5.25 -70.5 5.7 -66.25 Q5.7 -53.1 3.9 -37.05 2.05 -20.95 2.05 4.75 L2.05 9.25 Q1.7 12.65 -0.3 12.65 L-4.9 3.25 -4.75 -45.85 -3.7 -61.45 -3.05 -73.8 Q-3.05 -77.7 -3.35 -79.9 L-4.25 -87.0 -4.85 -94.2 -5.1 -99.45 Q-5.1 -100.65 -3.25 -100.55 -1.45 -101.8 -1.45 -109.55 -1.05 -116.45 1.7 -114.4 2.75 -113.55 3.6 -111.8 4.4 -110.0 4.4 -108.5 L4.0 -105.1 3.6 -101.7" fill="#8d6d3f" fill-opacity="0.3019608" fill-rule="evenodd" stroke="none"/>
    <path d="M3.05 -9.25 L3.35 -10.45 Q3.75 -11.4 4.75 -11.4 6.4 -11.4 6.9 -2.45 L7.1 6.6 Q7.1 11.3 5.35 25.75 L3.4 41.75 3.4 42.0 Q5.5 41.45 6.45 42.85 7.1 43.75 7.1 45.0 6.8 62.65 5.9 79.7 4.1 113.6 1.25 113.6 -1.2 113.6 -3.15 102.1 -4.6 93.45 -4.6 90.05 L-4.55 36.9 -5.0 23.6 Q-5.25 15.5 -4.4 10.25 -3.9 7.0 -2.85 3.0 L-1.45 -2.6 -1.0 -9.7 Q-0.25 -14.4 3.0 -9.35 L3.05 -9.25 M3.05 -3.45 L3.2 -3.45 3.05 -6.85 3.05 -3.45 M3.05 -1.8 Q3.05 0.15 3.4 3.5 3.75 3.05 3.75 1.9 L3.45 -0.05 3.05 -1.9 3.05 -1.8" fill="#8d6d3f" fill-opacity="0.3019608" fill-rule="evenodd" stroke="none"/>
    <path d="M-5.6 -40.25 Q-5.25 -41.7 -3.75 -41.7 -2.05 -41.7 -1.75 -39.65 L-1.7 -37.15 -1.65 -37.0 Q1.35 -68.5 2.85 -35.4 3.8 -14.1 3.8 12.45 3.8 21.15 2.85 30.1 L1.85 39.1 3.25 52.85 Q4.6 67.65 4.6 73.55 L4.2 92.2 Q3.25 109.55 0.3 109.55 -2.9 109.55 -3.05 105.05 -2.45 99.85 -2.4 98.5 L-2.5 98.2 Q-3.4 99.45 -4.55 99.45 -6.4 99.45 -6.75 96.9 L-6.75 94.15 Q-6.75 90.45 -5.25 69.35 L-3.85 46.55 Q-3.85 39.05 -3.1 23.15 -2.4 7.3 -2.4 -0.45 -5.7 -32.4 -5.7 -38.25 L-5.6 -40.25" fill="#8d6d3f" fill-opacity="0.3019608" fill-rule="evenodd" stroke="none"/>
    <path d="M1.7 93.45 Q1.7 94.85 3.4 103.55 -0.7 113.8 -2.6 113.8 -4.4 113.8 -4.75 111.85 L-4.75 109.75 Q-3.55 99.3 -3.55 97.5 L-3.65 89.35 -4.25 91.8 Q-4.7 93.4 -6.1 93.4 -7.7 93.4 -8.0 91.25 L-8.0 88.9 Q-8.0 77.65 -7.7 72.7 L-6.25 53.05 Q-6.5 44.45 -5.85 36.5 -4.45 20.8 0.5 20.8 2.05 20.8 2.4 51.35 2.6 66.6 2.45 81.9 L1.7 93.45 M-3.45 59.3 L-3.45 62.65 -2.8 55.65 -2.85 55.7 -3.45 59.3" fill="#8d6d3f" fill-opacity="0.3019608" fill-rule="evenodd" stroke="none"/>
    <path d="M4.3 39.6 L4.75 55.05 Q4.75 63.0 3.9 72.3 3.0 81.6 3.0 93.45 L4.15 95.5 Q5.3 97.55 5.3 97.95 5.3 101.8 4.55 106.15 3.25 113.35 0.5 113.35 -1.85 113.35 -1.9 110.95 L-1.5 107.6 -1.65 107.35 -2.2 107.65 -3.2 107.85 Q-5.05 107.85 -6.15 102.15 L-6.95 96.3 Q-6.1 73.0 -6.1 61.45 -6.1 55.85 -4.75 41.75 L-3.4 27.85 -4.25 13.65 -4.0 11.4 Q-3.35 10.0 -0.75 10.95 2.55 -3.9 3.45 6.65 3.7 9.2 3.8 23.7 3.8 29.2 4.3 39.6 M-2.5 91.75 L-2.7 91.8 -3.0 91.95 -3.0 94.35 -2.5 91.75" fill="#8d6d3f" fill-opacity="0.3019608" fill-rule="evenodd" stroke="none"/>
    <path d="M4.4 -97.7 Q5.15 -92.0 5.15 -89.35 5.15 -83.4 4.4 -71.1 3.6 -58.85 3.6 -53.3 L4.55 -4.75 4.4 -2.25 Q3.9 -0.1 2.4 -0.1 1.05 -0.1 0.35 -0.9 0.1 -1.15 -0.35 -2.15 L-0.5 11.3 Q-0.5 18.95 0.4 29.05 L1.3 41.95 Q1.3 48.9 0.7 59.55 L-0.3 77.8 -0.6 78.05 Q-0.85 78.25 -1.05 78.3 -1.4 77.7 -1.75 75.15 L-2.1 72.1 Q-2.1 67.8 -1.55 63.75 -1.05 59.7 -1.05 53.35 -1.05 50.1 -3.4 12.55 -5.75 -25.0 -5.75 -55.65 L-5.75 -78.7 Q-5.75 -81.75 -4.8 -91.7 L-3.85 -101.8 -4.25 -105.65 -4.6 -109.5 Q-4.6 -112.25 -3.35 -114.25 -2.1 -116.15 -0.5 -116.2 3.6 -116.4 3.6 -106.45 3.6 -103.35 4.4 -97.7 M0.1 -7.4 Q-0.35 -5.6 -0.35 -3.45 L-0.3 -3.45 0.0 -5.6 0.15 -7.55 0.1 -7.4" fill="#8d6d3f" fill-opacity="0.3019608" fill-rule="evenodd" stroke="none"/>
    <path d="M1.7 -108.15 L4.55 -116.25 Q6.45 -120.6 6.45 -112.75 L5.5 -103.65 Q4.55 -95.55 4.55 -93.15 4.55 -82.95 5.1 -80.4 5.7 -77.8 5.7 -67.0 L3.6 -39.4 1.25 -12.95 Q-0.25 -12.95 -0.55 -16.7 L-0.55 -20.6 Q-0.55 -29.7 0.25 -38.35 L2.2 -57.55 2.2 -66.95 1.6 -66.55 Q1.05 -66.2 0.5 -66.2 L-0.3 -66.35 -0.85 -66.8 -0.95 -67.2 -1.05 -68.25 -0.65 -109.0 -0.35 -109.3 0.5 -109.55 Q1.0 -109.55 1.7 -108.15" fill="#8d6d3f" fill-opacity="0.3019608" fill-rule="evenodd" stroke="none"/>
    <path d="M5.6 -114.85 Q5.0 -114.25 4.0 -114.15 4.85 -112.05 6.3 -111.05 7.45 -110.35 7.45 -109.05 7.45 -107.75 6.35 -107.3 4.75 -106.7 0.7 -107.4 0.35 -106.2 0.9 -105.25 L0.85 -105.0 Q-1.15 -106.2 -1.55 -110.75 -1.75 -113.1 -1.5 -115.3 -1.5 -117.95 2.3 -118.15 6.15 -118.35 6.15 -116.1 6.15 -115.4 5.6 -114.85" fill="#8d6d3f" fill-opacity="0.3019608" fill-rule="evenodd" stroke="none"/>
    <path d="M5.85 -105.05 Q5.05 -90.5 5.05 -77.25 L5.05 -66.85 5.1 -50.9 5.35 -25.1 5.1 -9.4 4.9 4.15 4.65 33.45 Q4.65 43.65 5.35 90.6 L5.05 102.9 Q4.8 106.2 4.75 113.8 L0.65 113.7 -1.2 113.95 -1.3 114.0 -3.0 114.0 -3.2 114.0 -3.35 114.0 -3.45 114.0 -4.45 113.9 -4.9 106.3 Q-5.45 94.2 -5.4 86.15 L-5.45 68.3 -5.4 46.3 -5.05 33.35 -5.1 -5.35 Q-5.35 -37.25 -5.1 -60.4 -5.05 -69.55 -4.6 -78.75 L-4.2 -95.1 -4.15 -103.5 Q-4.2 -107.55 -4.65 -112.6 L-4.6 -116.95 -4.95 -117.1 -5.0 -117.4 -4.7 -117.8 -4.6 -117.8 -4.6 -118.1 -3.25 -118.15 -3.25 -117.9 0.05 -117.95 4.9 -117.85 6.55 -117.7 5.85 -105.05 M5.45 -116.8 L-0.05 -116.95 -2.0 -116.65 Q-2.7 -116.35 -3.25 -116.35 L-3.05 -107.9 Q-2.8 -103.25 -2.85 -95.6 L-4.05 -38.45 -4.05 -9.15 -4.0 4.4 -3.9 20.1 -4.35 45.9 -4.55 61.85 -4.65 72.25 Q-4.75 85.5 -4.05 100.05 L-3.5 112.75 0.15 112.25 3.4 112.45 3.4 107.6 Q3.9 102.55 4.0 98.5 L4.0 90.1 3.75 73.75 Q3.4 64.55 3.4 55.4 3.4 32.25 3.9 0.35 L4.3 -38.35 4.05 -51.3 4.2 -73.3 4.4 -91.15 Q4.4 -99.2 5.1 -111.3 L5.45 -116.8" fill="#5a493f" fill-rule="evenodd" stroke="none"/>
    <path d="M0.25 -117.75 L0.8 -117.75 0.8 -105.95 0.85 -93.0 0.35 -91.35 0.35 -93.4 0.2 -106.35 0.25 -117.75 M0.95 -80.15 L0.95 -76.5 0.75 -75.5 0.95 -74.65 0.95 -74.55 Q0.25 -74.05 0.25 -72.95 0.25 -72.4 0.55 -71.95 L0.6 -71.9 0.9 -71.15 0.8 -64.95 Q0.35 -64.5 0.15 -63.5 L0.35 -87.35 Q0.5 -86.6 0.9 -86.1 L0.95 -80.15 M0.75 -57.65 L0.7 -50.9 0.7 -49.7 0.05 -48.9 0.1 -54.7 0.15 -58.85 0.75 -57.65 M0.15 89.0 L-0.6 89.2 -0.5 82.4 -0.4 81.2 Q0.2 84.5 0.15 86.8 L0.15 89.0 M0.35 112.7 L-0.5 112.7 -0.55 107.4 0.25 106.8 0.3 111.55 0.35 112.7 M2.0 101.65 Q2.5 105.35 2.3 110.9 L2.25 112.7 1.65 112.7 1.85 104.65 2.0 101.65 M0.2 104.1 Q-0.1 103.8 -0.55 103.7 L-0.65 95.35 0.15 96.75 0.2 104.1 M-1.5 -80.5 L-0.9 -80.75 -0.95 -68.3 -1.6 -69.75 -1.55 -76.3 -1.5 -80.5 M-1.3 -117.8 L-0.6 -117.75 -0.85 -86.05 -0.85 -83.7 -1.5 -84.1 -1.45 -89.85 -1.3 -117.8 M-3.0 -10.5 L-2.4 -10.75 -2.45 1.7 -3.1 0.25 -3.05 -6.3 -3.0 -10.5 M-2.05 23.5 L-2.25 24.5 -2.05 25.35 -2.05 25.45 Q-2.75 25.95 -2.75 27.05 L-2.45 28.05 -2.4 28.1 -2.1 28.85 -2.2 35.05 Q-2.65 35.5 -2.85 36.5 L-2.65 12.65 -2.1 13.9 -2.05 19.85 -2.05 23.5 M-1.9 97.75 L-1.95 110.2 -2.6 108.75 -2.55 102.2 -2.5 98.0 -1.9 97.75" fill="#5a493f" fill-rule="evenodd" stroke="none"/>
  </g>
</svg>
