<?xml version="1.0" encoding="UTF-8" standalone="no"?>
<svg xmlns:xlink="http://www.w3.org/1999/xlink" height="249.5px" width="387.75px" xmlns="http://www.w3.org/2000/svg">
  <g transform="matrix(1.0, 0.0, 0.0, 1.0, 195.1, 119.5)">
    <path d="M59.0 -94.5 Q60.2 -94.5 62.65 -96.6 65.1 -98.75 68.0 -98.75 83.15 -98.75 101.0 -90.25 109.9 -86.0 116.0 -81.75 132.1 -81.75 146.4 -88.4 154.45 -92.15 168.0 -100.25 171.5 -99.75 172.0 -99.0 170.25 -96.35 166.45 -94.95 163.25 -93.8 163.25 -93.0 163.25 -89.3 146.05 -83.0 128.2 -76.5 115.5 -76.5 L98.6 -83.5 81.75 -90.5 Q69.1 -90.5 58.8 -86.3 50.7 -82.95 42.2 -76.05 L27.8 -63.35 Q19.05 -55.75 11.5 -51.75 7.45 -49.6 2.0 -49.0 L-7.9 -48.6 Q-20.65 -48.4 -27.0 -43.75 -29.0 -42.3 -36.15 -39.2 -43.0 -36.2 -44.75 -34.75 -47.45 -32.55 -52.6 -30.65 L-61.8 -27.65 Q-73.05 -23.75 -75.0 -17.25 L-75.0 -17.0 -71.2 -17.3 -73.4 -16.0 Q-77.65 -12.85 -87.0 -9.0 L-87.75 3.5 Q-92.45 11.9 -92.0 15.15 -91.65 17.55 -87.0 15.95 L-89.5 18.0 Q-88.25 19.9 -88.25 21.0 -87.75 20.95 -90.7 24.6 -93.65 28.25 -90.95 29.7 -88.3 31.1 -96.15 43.5 L-102.0 47.5 -102.25 47.75 Q-101.1 47.95 -99.8 49.1 -103.75 55.7 -97.85 51.1 -96.7 52.45 -95.45 54.45 -92.0 59.85 -92.0 60.85 -92.0 64.35 -95.5 66.4 -104.55 71.7 -107.25 73.75 L-107.5 74.0 Q-102.6 72.95 -99.9 75.95 -98.0 78.0 -98.0 80.1 -98.0 83.3 -101.65 85.8 -107.25 89.6 -109.0 91.75 L-107.6 93.45 Q-106.55 94.75 -106.25 95.5 -104.55 95.5 -98.2 93.25 L-92.0 91.0 Q-87.95 91.0 -86.8 94.65 -86.15 96.8 -86.5 99.0 L-86.55 99.3 -86.75 99.75 -78.85 98.8 -72.5 98.0 Q-63.25 98.0 -61.75 101.4 -60.95 103.2 -62.0 105.75 -54.45 104.95 -51.1 107.85 -49.0 109.65 -49.0 112.1 -49.0 115.05 -50.75 116.25 -53.4 118.0 -61.5 118.0 -73.15 118.0 -74.65 115.05 -75.1 114.15 -74.6 112.65 L-74.0 110.75 -74.0 110.25 -90.85 114.3 -105.5 118.0 Q-111.45 118.0 -113.1 116.0 -113.95 114.95 -114.25 113.25 -121.5 116.85 -129.45 117.5 -136.05 118.05 -139.0 120.5 L-145.6 125.85 Q-151.85 130.0 -158.0 130.0 -165.55 130.0 -167.0 126.7 -167.45 125.65 -167.3 124.25 L-167.0 122.75 -168.15 122.7 -171.0 123.0 Q-176.0 123.0 -177.5 119.7 L-178.0 116.1 Q-178.0 112.55 -168.3 93.05 -158.45 73.2 -158.25 71.0 -162.6 69.45 -163.65 66.75 -164.0 65.85 -164.0 62.6 -164.0 55.2 -157.6 48.05 L-142.0 33.0 -144.1 29.75 -144.75 28.1 Q-144.75 25.5 -140.25 20.6 -135.0 15.4 -133.5 13.5 L-133.75 12.0 -141.35 11.8 Q-142.5 11.9 -142.5 9.35 -142.5 6.75 -138.25 0.25 -134.0 -6.3 -134.0 -7.75 -134.0 -8.25 -137.75 -14.35 -141.5 -20.45 -141.5 -23.85 -141.5 -27.9 -141.3 -28.75 -140.25 -32.5 -136.0 -32.5 -133.05 -32.5 -131.65 -30.5 -130.2 -28.5 -129.25 -28.5 -124.75 -28.5 -121.75 -37.5 -120.9 -39.9 -116.8 -57.25 -113.65 -70.7 -110.05 -77.0 -104.95 -86.0 -97.0 -86.0 -88.55 -94.75 -80.35 -101.8 -64.0 -115.75 -64.0 -107.0 -71.75 -89.85 -71.75 -87.1 -71.75 -81.6 -70.8 -79.4 -70.35 -78.35 -68.5 -76.6 -64.55 -72.95 -62.75 -59.0 -62.75 -58.25 -62.25 -58.0 -41.45 -70.25 -34.05 -70.9 L-25.25 -70.4 -11.0 -69.5 -4.65 -70.25 8.75 -71.0 Q15.5 -71.0 22.0 -74.65 25.7 -76.75 33.05 -82.75 40.2 -88.5 44.55 -90.85 51.5 -94.5 59.0 -94.5" fill="#999933" fill-opacity="0.2" fill-rule="evenodd" stroke="none"/>
    <path d="M-113.05 -70.75 Q-109.0 -89.75 -105.0 -89.75 -100.0 -89.75 -99.6 -84.95 L-100.25 -78.25 Q-96.45 -96.5 -85.25 -87.95 -81.55 -85.1 -77.9 -80.0 -74.75 -75.55 -74.75 -74.5 -74.75 -73.25 -76.0 -70.75 -77.25 -68.25 -77.25 -67.0 -77.25 -64.1 -73.0 -62.8 -68.75 -61.45 -68.75 -57.85 -68.75 -53.9 -74.7 -51.2 -78.5 -49.5 -90.0 -45.25 L-89.1 -43.15 Q-88.75 -42.05 -88.75 -40.35 -88.75 -37.5 -89.95 -35.65 -90.65 -34.6 -95.25 -29.5 L-93.45 -27.6 Q-92.75 -26.65 -92.75 -25.0 L-103.35 -3.05 Q-109.75 10.2 -110.6 9.55 -111.5 8.9 -115.4 17.05 -119.25 25.2 -119.35 34.25 -119.5 43.25 -119.1 45.6 -118.8 47.2 -119.25 48.5 L-119.25 49.0 Q-111.65 47.15 -107.35 48.15 -103.1 49.15 -105.8 52.75 -108.5 56.3 -110.4 57.9 -111.5 58.8 -114.6 60.25 -120.75 63.05 -120.75 67.35 -120.75 80.0 -110.35 92.75 L-103.25 101.0 Q-100.0 104.85 -100.0 106.75 L-100.75 110.5 Q-102.25 114.0 -106.0 114.0 -115.9 114.0 -120.05 112.95 -128.65 110.85 -124.5 104.25 L-124.5 103.5 -134.65 108.35 Q-144.35 112.75 -148.0 112.75 -152.65 112.75 -160.5 106.6 -167.5 101.05 -167.5 100.1 -167.5 98.0 -166.4 96.35 -165.6 95.15 -163.25 93.0 -165.5 89.65 -165.5 87.0 -165.5 84.75 -162.3 78.0 -158.5 70.15 -154.75 67.5 -165.4 66.6 -169.2 64.1 -171.5 62.65 -171.5 60.1 -171.5 59.35 -166.6 54.8 L-155.35 44.0 Q-138.25 26.65 -134.25 13.5 -138.65 13.65 -139.85 10.55 -140.5 8.95 -140.25 7.1 -140.25 3.85 -132.45 -13.25 -122.15 -35.75 -119.75 -42.0 -118.2 -46.05 -116.3 -54.95 L-113.05 -70.75 M-136.75 80.65 Q-136.5 81.15 -136.5 81.75 L-136.25 82.75 Q-131.4 80.4 -129.25 78.5 L-131.5 74.0 -135.45 76.5 Q-137.0 77.65 -137.0 78.75 L-136.75 80.65" fill="#999933" fill-opacity="0.2" fill-rule="evenodd" stroke="none"/>
    <path d="M-129.05 -8.7 Q-130.3 -8.0 -132.0 -8.0 -137.4 -8.0 -144.2 -13.0 -150.25 -17.4 -150.25 -19.1 -150.25 -30.55 -141.85 -24.75 -136.1 -20.8 -127.75 -10.0 -128.0 -9.3 -129.05 -8.7" fill="#999933" fill-opacity="0.2" fill-rule="evenodd" stroke="none"/>
    <path d="M19.05 -60.65 L-3.45 -54.0 Q-15.9 -50.35 -18.3 -48.8 L-20.5 -48.75 -36.65 -37.3 Q-50.0 -28.0 -57.0 -28.0 -61.55 -28.0 -63.2 -33.35 -64.05 -36.05 -64.0 -39.0 -64.0 -41.05 -62.8 -43.5 -61.05 -47.0 -58.0 -47.0 -55.0 -47.0 -54.25 -45.5 -53.2 -43.45 -52.75 -43.25 L-46.0 -50.55 Q-40.9 -55.75 -37.0 -55.75 -34.8 -55.75 -33.25 -54.45 L-31.25 -52.75 Q-27.95 -55.55 -20.65 -59.05 -13.05 -62.75 -10.0 -62.75 -6.85 -62.75 -5.85 -61.0 L-5.25 -58.5 8.2 -63.8 Q20.3 -68.45 22.75 -70.75 L25.85 -74.2 Q29.0 -77.55 31.45 -79.5 39.25 -85.6 39.25 -77.0 39.25 -74.45 34.25 -69.1 29.1 -63.65 19.05 -60.65" fill="#999933" fill-opacity="0.2" fill-rule="evenodd" stroke="none"/>
    <path d="M-86.5 -90.5 Q-82.3 -90.5 -81.0 -87.75 L-80.5 -84.75 Q-80.5 -82.8 -89.5 -71.95 -98.5 -61.1 -98.5 -60.35 -98.5 -57.5 -96.8 -57.25 L-93.5 -57.5 Q-89.3 -57.5 -88.0 -55.3 -87.5 -54.5 -87.5 -52.85 -87.5 -50.95 -89.9 -48.2 L-95.1 -42.95 Q-102.75 -35.45 -102.75 -29.85 -102.75 -27.45 -104.5 -24.7 -106.4 -21.7 -110.0 -19.0 L-110.5 -18.5 Q-106.95 -18.95 -105.0 -16.65 -103.75 -15.15 -103.75 -14.0 -103.75 -12.3 -112.35 -3.75 -121.25 5.1 -121.5 5.75 -122.25 7.7 -122.0 10.35 L-121.35 15.15 Q-120.6 21.4 -124.25 26.0 -128.1 30.8 -128.4 37.05 -128.75 43.65 -130.5 46.25 -134.05 51.6 -140.8 55.35 -147.5 59.05 -150.25 63.25 L-150.25 73.0 Q-147.05 71.05 -140.25 65.55 L-134.0 60.5 Q-129.1 60.5 -128.35 64.7 -127.95 66.9 -128.5 70.0 -121.95 69.4 -119.0 71.5 -117.0 72.9 -117.0 75.0 -117.0 77.5 -120.75 80.65 -123.0 82.5 -129.0 86.25 -124.95 88.0 -124.35 90.8 -124.0 92.3 -124.5 94.5 -122.15 96.3 -107.3 103.9 -96.25 109.6 -96.25 112.85 -96.25 115.35 -97.95 117.0 -99.85 118.75 -103.0 118.75 -104.25 118.75 -106.85 117.5 -109.5 116.25 -110.75 116.25 -112.0 116.25 -114.35 117.5 -116.75 118.75 -118.0 118.75 -122.55 118.75 -125.35 116.55 L-129.0 113.0 -130.3 115.7 Q-131.9 117.75 -136.5 117.75 -142.35 117.75 -145.3 113.55 -147.5 110.5 -147.5 106.75 -150.9 106.45 -155.35 99.2 -159.25 92.9 -159.25 91.1 -159.25 89.85 -158.0 88.3 -156.75 86.75 -156.75 85.5 L-158.25 77.35 Q-159.75 69.65 -159.75 67.5 -159.75 60.1 -155.2 51.55 -152.0 45.65 -145.1 36.8 -136.75 26.05 -135.05 23.5 -130.5 16.6 -130.5 12.0 -130.5 9.0 -133.5 1.5 -136.5 -6.0 -136.5 -9.0 -136.5 -13.7 -135.0 -15.3 -134.25 -16.1 -131.15 -17.1 -123.95 -19.35 -119.5 -30.75 -116.25 -39.05 -110.55 -46.5 -105.5 -52.25 -105.5 -52.5 -105.5 -54.6 -109.0 -60.5 -112.5 -66.4 -112.5 -72.35 -112.5 -79.75 -111.8 -82.1 -109.6 -89.9 -101.5 -85.5 -100.95 -90.4 -95.1 -90.9 L-86.5 -90.5" fill="#999933" fill-opacity="0.2" fill-rule="evenodd" stroke="none"/>
    <path d="M39.15 -114.65 Q38.4 -111.95 38.4 -111.0 38.4 -110.85 40.75 -107.4 43.05 -103.75 43.05 -102.5 L42.9 -101.45 42.75 -101.45 Q43.05 -102.9 40.45 -106.8 37.75 -110.9 37.75 -112.5 L37.95 -114.9 Q38.45 -117.15 39.75 -117.55 L39.85 -117.65 39.9 -117.3 39.15 -114.65 M39.5 -118.7 L41.5 -118.8 40.75 -114.8 40.25 -112.2 40.4 -112.2 Q40.7 -110.05 42.35 -107.95 43.9 -106.05 46.25 -104.55 L46.5 -104.55 46.55 -104.35 47.05 -104.05 46.75 -103.4 47.05 -102.1 47.25 -100.4 47.25 -100.3 47.4 -100.3 47.25 -99.9 46.5 -97.4 46.75 -97.55 Q47.1 -94.45 49.2 -92.45 L49.75 -92.35 Q54.25 -94.75 58.0 -96.3 55.9 -94.1 50.95 -91.05 45.0 -87.45 39.65 -85.9 39.4 -85.5 39.4 -86.15 39.4 -86.55 45.65 -90.1 L47.7 -91.25 47.2 -91.7 45.65 -91.8 45.4 -92.3 45.65 -92.4 Q44.85 -92.6 44.65 -93.75 L44.55 -95.15 Q44.55 -96.1 45.4 -98.1 L45.55 -98.65 46.05 -99.65 46.55 -101.8 46.3 -103.05 46.2 -103.45 Q44.75 -104.7 42.85 -106.65 40.05 -109.6 40.05 -110.65 L40.1 -111.5 40.0 -110.8 39.75 -110.7 39.55 -112.85 40.15 -115.7 Q40.75 -117.75 40.75 -118.4 40.75 -118.75 40.15 -118.7 L39.5 -118.7 M43.7 -102.05 L43.85 -102.2 44.15 -100.5 43.45 -96.05 42.55 -92.3 40.15 -88.45 38.1 -85.55 37.65 -85.35 Q36.45 -84.75 36.4 -83.65 L35.4 -82.7 36.5 -83.25 36.7 -82.55 Q37.05 -82.05 37.75 -81.8 L34.75 -80.15 Q21.0 -72.6 16.0 -72.3 L-0.85 -71.5 -8.0 -71.8 -8.15 -71.8 -9.05 -71.75 -9.15 -71.75 -9.05 -72.15 -11.75 -72.9 -14.8 -73.75 -11.4 -73.55 -9.6 -73.1 -8.6 -72.5 -9.1 -72.95 -8.85 -72.85 -8.85 -72.9 -6.2 -72.85 1.9 -73.0 1.0 -72.8 11.2 -73.25 Q23.3 -74.0 31.45 -80.7 L31.4 -80.75 Q37.4 -85.7 40.65 -91.05 44.0 -96.7 43.4 -101.25 L43.75 -101.25 43.7 -102.05 M71.45 -97.0 L64.8 -96.3 57.9 -94.8 Q57.8 -94.5 57.8 -95.15 57.8 -96.35 64.55 -97.75 L71.65 -98.05 71.65 -98.45 88.9 -97.3 91.15 -97.15 94.4 -97.0 93.2 -96.85 Q97.7 -95.85 101.35 -92.85 L105.55 -88.95 106.55 -88.0 Q109.0 -87.45 112.1 -85.85 119.6 -82.05 121.95 -82.05 125.55 -82.05 133.05 -83.8 L138.2 -85.05 147.7 -88.85 156.7 -92.2 157.2 -92.85 Q160.4 -93.9 163.65 -94.55 L164.2 -94.4 164.8 -94.1 Q165.45 -94.35 165.55 -94.55 L165.65 -94.7 164.15 -95.05 Q166.9 -96.0 168.45 -98.65 170.0 -101.3 171.7 -102.0 L171.65 -102.05 171.75 -102.3 173.0 -101.7 172.9 -101.85 172.05 -102.55 172.05 -102.8 172.7 -102.8 173.55 -102.7 173.65 -102.6 173.75 -102.15 173.65 -101.2 Q174.0 -101.05 173.4 -101.05 L173.35 -101.05 173.55 -100.05 172.2 -97.9 Q170.8 -95.8 170.8 -94.8 170.8 -94.4 171.0 -94.4 L171.4 -94.4 Q171.25 -94.1 170.4 -93.9 L169.95 -94.35 169.9 -95.05 Q169.9 -95.8 171.3 -98.4 172.55 -100.65 173.1 -101.05 172.5 -101.1 172.2 -101.4 L171.75 -101.95 Q170.4 -99.4 169.15 -97.9 L165.4 -93.95 164.9 -94.0 162.2 -93.1 162.3 -93.0 Q159.55 -92.25 149.35 -88.05 L138.05 -83.5 138.4 -83.5 137.35 -83.25 136.55 -83.0 136.3 -83.05 Q125.75 -80.8 121.75 -81.1 117.3 -81.4 110.5 -84.55 103.7 -87.7 101.9 -87.3 L101.9 -87.45 Q100.9 -87.8 100.05 -88.5 97.55 -90.55 96.15 -91.05 98.35 -92.5 100.85 -90.3 L103.05 -88.3 105.75 -88.2 101.25 -91.7 Q96.8 -95.25 91.45 -96.7 L88.3 -96.55 Q82.6 -96.25 80.9 -96.7 79.2 -97.15 71.3 -96.8 L71.45 -97.0 M74.2 -89.75 L72.6 -89.4 74.9 -89.55 74.95 -89.45 78.65 -89.8 82.15 -89.6 82.45 -91.0 Q82.9 -92.35 83.75 -92.55 L83.25 -90.7 82.8 -89.55 84.05 -89.45 83.9 -90.3 Q83.9 -90.7 84.6 -91.55 85.35 -92.5 86.0 -92.65 L86.25 -92.3 84.65 -89.4 85.5 -89.3 85.85 -89.95 Q86.35 -90.7 87.15 -90.7 L86.25 -89.25 Q91.6 -88.65 94.45 -87.7 L106.9 -83.55 104.35 -83.95 105.55 -83.1 107.05 -81.85 107.15 -82.05 108.25 -81.2 109.4 -79.8 Q111.5 -78.6 114.15 -79.8 115.55 -80.45 117.15 -79.0 126.65 -79.0 141.0 -81.9 L141.9 -82.05 141.9 -82.3 Q144.7 -82.85 148.3 -84.1 148.5 -85.35 156.25 -88.2 L158.6 -89.05 Q160.15 -89.95 163.95 -90.9 170.0 -92.4 171.75 -91.55 L169.75 -90.85 Q172.45 -90.85 174.55 -89.9 174.85 -90.45 175.55 -90.15 L177.6 -88.85 Q178.7 -88.15 179.85 -87.75 L179.9 -88.15 Q187.25 -88.25 188.95 -89.3 190.0 -89.95 191.3 -90.15 L188.15 -90.25 186.25 -90.05 189.55 -90.75 192.65 -90.8 192.65 -89.5 Q190.8 -88.25 186.75 -87.5 183.3 -86.55 179.65 -86.45 L177.85 -87.45 175.75 -88.8 174.9 -88.55 172.6 -88.95 170.2 -89.6 165.25 -90.25 162.25 -88.9 162.25 -88.85 157.95 -87.1 154.95 -85.95 153.35 -85.3 Q146.25 -81.55 145.15 -81.55 L143.15 -81.7 140.15 -80.7 Q129.75 -77.25 121.9 -77.25 L118.3 -77.35 Q117.95 -77.05 117.4 -77.05 L113.3 -77.2 Q112.3 -77.0 111.7 -76.55 L110.95 -77.0 110.85 -77.1 111.65 -77.05 113.2 -77.25 Q110.35 -77.55 108.8 -78.3 L109.1 -77.8 104.4 -81.35 Q101.35 -83.85 98.45 -85.2 L93.5 -86.6 Q89.7 -87.8 73.55 -88.4 L69.45 -87.3 64.15 -86.3 63.95 -86.35 58.05 -84.0 Q54.5 -82.65 51.55 -79.85 L48.0 -76.55 Q48.65 -77.75 45.35 -73.85 L40.15 -67.8 Q39.7 -66.4 38.95 -65.8 37.55 -65.1 39.4 -66.65 L25.75 -58.85 19.15 -55.6 21.4 -56.0 17.55 -54.95 8.15 -51.05 4.55 -51.5 -11.15 -47.4 Q-20.8 -46.8 -24.05 -45.05 L-25.7 -43.65 -25.95 -43.55 Q-31.45 -37.75 -36.25 -34.9 -41.4 -31.85 -47.25 -31.2 L-46.6 -31.0 Q-51.85 -30.95 -57.05 -29.35 L-64.45 -25.6 Q-71.65 -21.9 -79.0 -12.95 -86.4 -4.0 -85.25 5.2 L-85.55 5.2 -85.5 6.45 -85.5 6.85 -85.45 6.8 -85.4 6.75 -85.3 7.05 -85.5 7.0 Q-85.35 10.9 -85.55 18.05 L-85.8 28.65 Q-85.85 32.1 -87.8 36.55 -89.75 40.95 -93.1 45.65 L-93.05 47.95 -93.1 48.25 -93.1 48.35 Q-93.1 49.1 -93.35 49.85 L-93.5 50.35 -96.05 62.75 Q-98.55 75.55 -98.95 80.25 L-98.8 80.25 Q-98.05 86.9 -95.5 90.45 -92.15 95.2 -84.55 97.85 L-84.7 97.35 Q-79.45 99.2 -71.85 101.25 -62.35 103.9 -60.8 105.2 L-56.8 110.35 Q-54.05 113.95 -50.1 115.0 -50.6 115.5 -52.35 115.5 -54.85 115.5 -58.05 111.0 L-62.05 105.7 Q-67.8 102.4 -77.85 100.6 L-82.5 99.5 -82.85 99.5 Q-88.75 99.5 -92.8 95.85 L-90.1 99.25 -90.3 99.7 Q-95.5 96.85 -99.25 89.9 -102.55 83.7 -102.55 78.95 L-102.2 74.25 Q-101.9 71.95 -101.45 70.85 L-101.55 71.3 Q-101.55 81.0 -100.4 84.15 -99.55 86.45 -96.95 90.25 L-97.85 88.3 -99.1 85.45 -99.1 84.0 -99.75 82.1 -99.85 78.3 Q-99.85 72.95 -96.9 60.4 L-94.6 50.2 -95.0 49.6 -95.55 47.75 Q-95.6 48.45 -95.7 47.65 -95.8 46.8 -91.5 40.85 -87.25 34.9 -87.1 27.5 L-86.95 16.5 Q-89.75 16.5 -90.05 16.0 L-90.05 15.45 -88.05 15.4 -86.9 15.45 -86.85 13.1 -88.6 13.1 -90.6 13.7 -90.8 13.0 -91.1 13.0 -90.8 12.85 -90.85 12.2 -89.05 11.75 -86.85 11.5 -86.8 11.5 -86.8 11.15 -86.2 1.55 -86.25 -0.45 Q-86.25 -3.1 -83.3 -8.05 -80.35 -13.05 -75.8 -17.95 -66.1 -28.45 -57.9 -30.0 L-56.6 -30.7 -55.25 -31.15 -55.9 -31.2 Q-61.4 -30.05 -65.75 -28.3 -65.95 -29.7 -69.0 -28.75 -70.65 -28.25 -71.45 -27.7 L-71.9 -27.95 Q-65.7 -31.2 -57.55 -31.7 -58.1 -32.75 -59.55 -33.55 L-59.35 -33.8 -58.6 -34.05 -57.65 -33.45 -49.6 -32.55 Q-42.35 -32.2 -36.05 -37.25 L-37.8 -38.85 -39.8 -40.75 Q-39.35 -40.8 -39.35 -41.0 -37.95 -40.75 -36.95 -39.35 L-35.55 -37.55 -34.9 -38.0 Q-33.45 -39.05 -30.15 -42.1 L-29.2 -42.9 -29.35 -43.05 Q-27.25 -45.4 -23.35 -47.0 -19.5 -48.6 -13.45 -49.05 -7.45 -49.5 1.7 -51.8 10.8 -54.1 14.55 -54.8 18.1 -56.3 22.15 -58.55 24.5 -59.9 31.65 -64.35 L38.15 -68.1 41.1 -71.35 Q45.7 -76.75 47.8 -78.7 55.2 -85.55 67.5 -88.45 L71.05 -89.2 74.2 -89.75 M79.5 -90.65 Q79.3 -90.95 79.3 -91.6 79.3 -92.0 79.85 -92.45 L81.15 -92.4 81.25 -92.3 Q80.45 -91.65 79.75 -90.65 L79.5 -90.65 M56.6 -93.55 L56.8 -93.55 56.3 -93.3 56.6 -93.55 M46.05 -96.35 L46.05 -95.75 Q46.05 -93.95 46.4 -93.5 L47.0 -92.7 47.6 -92.65 47.25 -93.15 Q46.15 -95.0 46.15 -96.15 L46.2 -96.7 46.05 -96.35 M47.75 -91.65 L47.95 -91.4 48.4 -91.6 47.75 -91.65 M19.7 -63.75 Q17.75 -63.2 14.85 -61.5 12.35 -60.05 9.4 -59.5 10.65 -59.9 14.85 -62.0 18.3 -63.7 19.7 -63.75 M8.9 -56.5 L6.95 -55.8 4.25 -55.3 3.2 -55.75 Q4.5 -55.85 5.6 -56.6 L8.9 -56.5 M8.9 -55.5 Q10.0 -57.2 14.85 -58.6 L21.2 -60.25 Q19.95 -59.45 14.95 -57.65 L8.9 -55.5 M152.4 -88.5 L150.0 -87.45 152.25 -88.7 152.4 -88.5 M160.25 -89.6 L163.15 -90.55 160.55 -89.8 160.25 -89.6 M183.5 -89.0 L184.0 -88.8 Q183.6 -88.4 182.9 -88.4 179.45 -88.4 177.5 -91.8 175.65 -94.95 171.65 -94.3 L171.55 -94.7 174.95 -94.6 Q176.85 -94.05 178.15 -91.7 178.25 -91.15 183.2 -89.1 L184.35 -89.45 183.5 -89.0 M185.15 -87.2 L185.2 -87.2 185.3 -87.3 183.2 -87.05 185.15 -87.2 M-62.05 -113.1 L-62.5 -112.1 Q-61.6 -115.25 -60.2 -117.65 -60.65 -116.25 -62.05 -113.1 M-60.85 -119.5 L-60.3 -119.35 -60.1 -119.3 -60.05 -118.75 -62.9 -117.0 Q-65.25 -115.1 -64.6 -113.5 -63.2 -115.45 -61.6 -116.05 -64.95 -111.05 -66.45 -104.45 L-66.55 -104.3 Q-67.3 -103.0 -68.35 -99.35 L-68.3 -99.35 -67.6 -99.0 -68.95 -97.2 -69.0 -97.0 -69.0 -97.1 -69.5 -96.3 -70.3 -94.6 -70.1 -94.5 -70.35 -94.4 -70.35 -94.3 Q-70.35 -92.85 -69.05 -92.0 -67.8 -91.1 -67.8 -90.15 -67.8 -83.75 -69.05 -81.0 -70.35 -78.3 -70.8 -70.4 -71.85 -67.3 -69.5 -65.65 -67.2 -64.0 -67.0 -64.1 L-66.7 -64.25 -64.2 -65.6 -58.35 -64.55 Q-55.15 -64.55 -52.65 -66.75 L-51.8 -67.1 -45.65 -68.05 -42.8 -69.4 Q-36.55 -72.3 -31.7 -74.2 L-29.65 -75.05 -27.8 -75.75 -28.3 -75.4 -25.35 -75.75 Q-24.0 -78.6 -21.2 -77.95 L-16.75 -76.5 Q-14.45 -75.7 -11.5 -74.15 -12.5 -74.4 -13.55 -74.15 L-16.05 -73.7 -20.3 -75.55 Q-20.5 -75.6 -20.7 -75.85 -21.1 -76.3 -21.1 -77.75 -21.8 -77.55 -23.65 -75.9 L-23.85 -75.7 -21.1 -75.0 -25.2 -74.3 -25.8 -73.5 -26.1 -73.5 -25.9 -74.2 -26.3 -74.15 Q-30.6 -73.45 -31.85 -72.3 L-33.1 -72.5 -32.7 -72.6 Q-32.45 -72.7 -32.35 -73.05 L-41.0 -69.1 -48.15 -66.05 -48.15 -66.0 -48.3 -65.95 -49.5 -65.45 -48.5 -65.2 -48.75 -64.5 -48.75 -64.3 -49.2 -64.25 Q-50.6 -63.65 -52.65 -63.15 L-57.85 -62.5 -62.3 -62.75 -62.8 -62.75 -62.85 -62.75 Q-68.75 -61.05 -73.85 -60.8 -78.9 -60.55 -81.6 -61.5 -84.3 -62.5 -84.3 -63.3 L-84.2 -65.75 Q-83.7 -62.25 -79.85 -62.25 -73.55 -62.25 -69.45 -63.3 -72.65 -65.45 -72.95 -68.75 -73.05 -70.3 -72.6 -73.6 -72.1 -77.3 -72.1 -79.15 L-71.8 -85.05 -71.15 -93.35 -71.35 -94.3 -71.35 -94.4 -72.1 -94.5 -71.95 -94.7 -71.85 -94.8 -71.3 -94.75 -70.3 -97.25 -69.05 -99.3 Q-68.9 -103.75 -67.0 -108.8 -65.95 -111.6 -64.7 -113.35 -65.0 -113.05 -65.8 -113.0 L-66.25 -113.65 Q-66.4 -114.05 -67.1 -114.05 -72.85 -114.05 -74.35 -106.05 L-75.3 -106.0 Q-75.6 -106.3 -75.6 -107.8 -75.6 -110.55 -73.3 -112.8 -70.45 -115.55 -65.55 -115.55 L-63.95 -117.05 -60.85 -119.5 M-79.75 -100.35 L-79.8 -98.75 -78.85 -99.65 -78.2 -101.1 Q-77.15 -102.95 -75.6 -104.3 L-75.7 -104.75 -77.3 -105.75 -71.85 -105.55 Q-76.65 -104.2 -77.45 -101.95 L-77.75 -101.1 -77.15 -101.9 Q-78.35 -99.1 -78.85 -96.75 L-79.35 -96.05 Q-80.95 -96.75 -81.1 -98.1 -80.9 -99.6 -81.05 -100.25 -81.4 -99.95 -81.55 -99.1 L-81.8 -97.5 -82.05 -97.25 -82.35 -96.8 -82.8 -97.3 -83.1 -97.8 -83.1 -99.55 -85.25 -95.25 Q-88.05 -89.35 -90.05 -86.2 -97.5 -74.55 -108.35 -74.55 -109.3 -74.55 -109.8 -74.9 L-109.7 -74.6 Q-108.75 -73.4 -101.85 -74.5 L-101.55 -74.05 Q-101.65 -73.5 -102.1 -73.2 -102.95 -72.55 -105.75 -72.55 -108.9 -72.55 -109.55 -73.25 -109.75 -74.2 -110.35 -74.8 L-110.35 -75.4 -110.4 -75.5 Q-110.75 -76.8 -111.05 -77.5 L-111.05 -79.75 -110.85 -80.0 -109.85 -80.25 -109.75 -80.25 -109.1 -82.75 -108.8 -82.75 -108.7 -82.95 -108.6 -82.2 Q-108.6 -81.4 -109.0 -80.5 L-109.25 -80.0 Q-109.8 -80.05 -109.45 -78.55 -109.15 -77.05 -107.0 -76.8 -104.9 -76.55 -102.3 -77.5 -100.9 -81.55 -103.6 -85.75 -106.3 -90.0 -107.35 -91.1 L-107.1 -89.5 Q-107.1 -88.8 -107.35 -88.2 L-107.6 -87.25 -107.85 -87.0 Q-108.4 -88.55 -109.35 -93.7 L-109.35 -93.8 -109.4 -93.8 -109.35 -93.85 -109.35 -94.15 -109.3 -93.9 -107.55 -95.55 -104.7 -91.15 Q-101.1 -84.6 -101.1 -82.65 -101.1 -80.4 -101.4 -77.85 -95.5 -80.6 -91.65 -86.2 -87.8 -91.8 -85.6 -96.75 -85.1 -99.3 -83.1 -100.8 L-83.1 -101.55 -83.2 -101.65 -82.35 -101.8 -80.1 -101.75 Q-79.8 -101.25 -79.75 -100.35 M-113.3 -88.25 L-113.1 -86.7 -112.95 -88.75 Q-112.7 -91.8 -113.1 -91.8 L-110.15 -93.55 Q-108.6 -87.3 -107.1 -84.8 L-107.3 -84.5 -108.05 -85.05 Q-108.6 -85.45 -110.6 -90.0 -111.7 -84.5 -112.55 -82.45 L-112.45 -83.1 -112.85 -81.85 -113.2 -81.35 -113.2 -81.5 -113.25 -81.35 -113.4 -81.25 -113.3 -81.1 -115.35 -72.95 Q-116.2 -68.95 -116.0 -65.35 -115.8 -61.8 -115.9 -60.6 -115.75 -58.85 -115.95 -56.65 -116.2 -54.45 -115.1 -55.05 -115.1 -49.35 -117.4 -44.15 -119.35 -39.85 -124.55 -32.1 -123.65 -33.85 -124.7 -32.25 L-124.8 -32.05 Q-126.6 -29.5 -128.75 -27.8 L-128.1 -27.05 -129.4 -27.5 -130.3 -25.0 -130.9 -21.15 Q-131.25 -18.8 -131.85 -17.3 L-132.4 -17.8 -132.6 -19.05 -132.4 -21.1 Q-132.8 -22.2 -132.8 -23.8 -132.8 -25.6 -131.85 -26.5 L-130.8 -25.9 -130.4 -26.75 -129.85 -27.75 -130.1 -27.9 -130.6 -28.0 -130.4 -28.15 -131.75 -29.55 -133.0 -32.75 Q-134.15 -36.8 -139.1 -37.0 -133.75 -38.2 -132.05 -34.6 L-130.6 -30.95 -129.6 -28.95 -127.3 -31.45 -125.0 -33.85 -121.85 -38.2 -119.65 -42.85 Q-116.65 -49.7 -117.1 -54.85 L-117.1 -54.0 -117.35 -60.1 -117.55 -61.3 -117.35 -61.25 -117.35 -61.7 -117.5 -64.45 Q-117.65 -66.75 -115.75 -77.5 -113.9 -88.3 -113.6 -88.25 L-113.3 -88.25 M-112.4 -79.05 Q-112.0 -79.7 -111.35 -79.55 -111.85 -79.25 -112.35 -79.05 L-112.4 -79.05 M-107.15 -71.5 L-101.1 -71.0 -104.7 -70.85 -108.3 -71.25 -107.15 -71.5 M-112.6 -52.0 Q-112.35 -51.25 -112.35 -49.7 L-112.6 -45.55 -113.1 -45.5 Q-113.1 -46.55 -113.35 -47.3 L-113.35 -52.0 -112.6 -52.0 M-84.1 -72.25 L-83.8 -72.25 Q-83.65 -71.55 -84.15 -67.65 L-84.1 -72.25 M-141.25 -32.05 Q-143.65 -29.65 -144.15 -28.7 -142.95 -28.3 -142.15 -27.35 L-140.1 -25.05 Q-140.6 -25.1 -142.1 -26.5 -143.3 -27.6 -144.55 -28.25 -146.35 -26.2 -146.6 -24.75 L-145.25 -22.4 -141.8 -17.25 -141.85 -17.0 Q-143.35 -18.05 -144.85 -20.8 -146.6 -23.95 -147.6 -25.05 L-147.6 -27.75 -147.3 -27.75 -147.25 -26.65 -146.9 -27.9 -142.6 -32.35 Q-138.75 -36.1 -137.3 -36.75 -138.9 -34.45 -141.25 -32.05 M-122.6 -31.0 L-118.3 -37.2 Q-115.2 -41.55 -115.1 -43.75 L-114.8 -43.75 -114.6 -43.45 -114.6 -42.55 Q-114.6 -40.25 -122.3 -31.0 L-122.6 -31.0 M-147.8 -25.25 L-147.4 -24.0 -146.6 -22.5 Q-146.95 -22.2 -147.6 -22.05 -143.0 -17.5 -140.3 -10.45 L-140.15 -10.05 -139.35 -10.0 -139.05 -10.05 -138.95 -9.8 -139.8 -9.25 -136.95 -2.0 -136.1 -2.05 Q-135.9 -1.3 -135.8 0.55 L-135.3 1.6 Q-134.7 -1.85 -133.9 -4.65 L-133.75 -6.3 -132.7 -7.0 -132.55 -7.2 -131.55 -7.9 Q-133.4 -3.2 -134.45 3.8 L-136.5 17.05 Q-138.65 27.0 -145.05 34.55 L-141.1 38.45 Q-142.35 38.0 -144.3 36.1 L-145.4 34.95 -147.5 37.2 -145.1 38.5 Q-145.6 38.95 -146.85 38.95 L-147.45 38.65 Q-161.25 48.7 -163.05 61.55 -164.9 74.35 -164.65 79.1 L-164.25 84.85 -163.8 83.75 -164.35 86.2 Q-164.65 89.05 -165.1 91.25 L-165.35 91.5 -165.4 90.4 Q-167.15 96.8 -168.7 99.8 -171.95 105.9 -177.85 110.2 L-177.85 110.45 Q-177.85 111.2 -178.0 111.35 L-178.3 111.5 -178.7 110.8 Q-181.8 112.85 -185.6 114.5 L-179.55 110.0 -179.85 109.8 -179.6 110.0 -180.7 109.85 Q-181.3 109.75 -181.3 110.5 -181.3 111.25 -181.8 111.2 L-182.8 110.95 -183.05 109.0 -182.4 108.9 -180.6 108.95 -180.05 109.65 -180.05 107.5 -179.1 107.45 -178.35 108.75 -175.9 106.95 Q-173.5 105.1 -170.9 100.25 -168.35 95.4 -167.15 92.35 L-165.55 88.2 -165.65 86.3 Q-167.9 95.0 -171.5 99.4 -178.3 107.75 -194.85 113.0 L-195.1 112.75 Q-195.15 111.35 -186.75 108.0 -178.35 104.65 -174.7 100.85 -171.1 97.05 -168.45 91.15 L-165.7 85.5 -165.85 80.2 Q-165.85 67.25 -162.55 56.95 -159.65 48.0 -154.6 43.0 L-155.1 43.0 Q-151.75 40.4 -148.95 37.45 L-149.55 36.75 -149.3 36.5 -148.35 36.75 -146.15 34.15 -146.8 33.45 Q-146.6 33.2 -146.3 33.2 L-145.85 33.7 Q-140.15 26.1 -137.9 16.55 L-136.45 8.75 -136.6 8.75 -136.85 7.5 -137.05 6.2 -137.05 -0.3 Q-139.5 -3.8 -141.55 -10.0 -144.25 -18.1 -148.05 -22.0 L-148.1 -22.0 -148.1 -22.05 -148.6 -22.55 -148.3 -22.75 -148.1 -22.55 -148.1 -25.25 -147.8 -25.25 M-135.75 -6.85 Q-135.3 -6.35 -134.5 -6.25 -135.25 -5.35 -135.35 -4.15 L-135.1 -0.05 -135.6 0.0 -136.05 -3.95 -135.95 -6.3 -135.75 -6.85 M-112.1 -41.0 L-114.1 -35.75 -114.6 -35.75 -114.8 -35.85 -114.85 -36.7 Q-114.85 -37.25 -113.95 -38.85 -112.9 -40.7 -112.1 -41.0 M-85.3 -13.1 L-85.6 -13.15 Q-83.4 -18.6 -78.75 -23.05 -76.4 -25.3 -73.7 -26.95 L-73.65 -26.9 -73.9 -26.55 -75.55 -23.6 -76.9 -22.55 Q-79.45 -20.45 -79.6 -19.45 -83.75 -15.45 -85.3 -13.1 M-84.35 -20.55 Q-83.7 -23.05 -81.9 -25.4 -79.4 -28.7 -76.35 -28.55 -77.55 -27.2 -78.1 -27.0 L-77.6 -28.0 Q-79.0 -27.15 -81.25 -24.05 -83.5 -21.0 -84.35 -20.55 M-87.1 -8.55 L-87.0 -8.7 -86.8 -8.5 -86.8 -8.05 Q-86.8 -7.45 -87.3 -5.75 L-87.85 -3.3 -88.35 -2.75 Q-89.05 -3.5 -89.05 -5.65 L-88.9 -7.3 Q-88.55 -8.2 -87.1 -8.55 M-25.9 -68.2 L-25.1 -68.0 Q-27.6 -67.25 -28.3 -66.8 L-32.1 -66.8 -32.25 -67.2 -32.3 -68.2 Q-32.3 -69.35 -31.7 -69.75 -30.8 -70.35 -27.8 -70.3 L-27.6 -69.25 -28.35 -69.35 -30.6 -69.05 -31.05 -68.6 -31.55 -68.05 -31.55 -67.75 Q-29.15 -67.6 -28.05 -67.75 L-26.6 -68.25 -25.9 -68.2 M-28.35 -65.0 L-34.65 -65.2 Q-34.65 -65.75 -35.55 -66.55 L-33.1 -66.5 -33.35 -66.3 -27.8 -65.75 -27.6 -65.2 -28.35 -65.0 M-20.8 -50.25 Q-20.0 -50.85 -14.8 -52.25 -9.1 -53.75 -7.1 -53.5 L-15.15 -51.6 -20.6 -49.8 -20.8 -50.25 M-17.6 -54.5 L-17.6 -55.25 -15.1 -55.0 -17.6 -54.5 M-70.85 -92.75 L-71.6 -78.95 -71.55 -76.35 -70.55 -81.0 Q-69.05 -86.95 -69.05 -89.95 -69.05 -90.25 -70.2 -91.75 L-70.85 -92.75 M-74.8 -75.75 L-74.75 -71.0 Q-74.75 -67.8 -73.3 -66.3 L-73.3 -66.0 Q-75.3 -67.45 -75.3 -71.05 L-75.1 -75.75 -74.8 -75.75 M-77.3 -72.8 Q-78.65 -72.05 -78.6 -70.45 L-78.6 -67.55 -78.85 -67.0 -79.3 -70.55 -79.15 -72.35 Q-78.8 -73.25 -77.3 -72.8 M-60.6 -58.55 L-60.1 -58.75 -58.6 -57.55 -59.65 -57.9 Q-60.3 -58.25 -60.6 -58.55 M-86.85 12.95 L-86.85 12.5 -87.75 12.8 -87.95 12.9 -86.85 12.95 M-104.6 33.25 L-102.15 31.1 -100.3 29.75 Q-103.0 32.8 -104.35 33.5 L-104.6 33.25 M-105.1 42.25 L-102.8 37.8 Q-101.15 34.75 -100.1 34.25 L-99.75 34.8 Q-99.6 35.15 -99.6 35.95 -99.6 37.75 -104.85 42.5 L-105.1 42.25 M-89.95 33.95 L-89.85 34.8 Q-89.85 35.5 -93.4 40.2 -97.15 45.25 -98.8 45.75 -96.6 43.6 -94.1 39.8 L-90.1 34.0 -89.95 33.95 M-95.3 36.65 Q-94.7 36.8 -94.6 37.0 -96.9 38.35 -99.05 42.05 -101.35 46.05 -102.6 47.0 L-99.9 41.3 Q-98.1 38.0 -95.85 36.5 L-95.3 36.65 M-94.0 46.9 L-94.3 47.3 -94.05 47.25 -94.0 46.9 M-135.3 1.75 L-135.8 1.25 -135.8 2.0 -135.85 4.9 -135.6 3.4 -135.3 1.75 M-133.6 24.5 Q-130.1 18.9 -127.6 9.3 -124.55 -2.35 -123.3 -5.25 -124.9 -0.65 -126.65 9.55 -128.8 18.85 -133.6 24.5 M-150.0 39.5 Q-148.9 38.9 -147.75 38.45 L-148.3 38.0 -150.0 39.5 M-133.85 25.95 L-134.6 26.45 -135.6 26.75 Q-135.85 27.3 -135.85 26.05 -135.85 25.3 -135.6 25.3 -135.45 25.3 -135.35 25.45 L-134.7 25.55 Q-134.0 25.65 -133.85 25.95 M-152.8 55.25 L-152.1 55.5 Q-154.45 56.0 -155.2 58.05 L-156.55 61.5 -156.55 62.25 Q-153.6 61.8 -153.1 61.0 L-152.8 58.95 -151.9 58.6 -151.3 58.5 -152.35 61.15 Q-153.35 63.25 -154.85 63.25 L-157.1 63.2 -157.25 62.8 -157.3 61.8 Q-157.3 61.05 -156.0 58.45 -154.5 55.45 -153.35 55.2 L-152.8 55.25 M-158.8 61.25 Q-158.3 62.4 -158.5 64.65 -158.15 66.65 -154.6 68.0 -156.95 67.9 -158.35 65.75 -159.3 64.35 -159.3 63.45 L-159.2 62.25 -159.1 61.25 -158.8 61.25 M-141.2 98.6 Q-146.75 103.5 -147.1 106.45 L-147.6 106.5 Q-148.35 102.55 -134.85 91.95 -121.8 81.6 -120.35 72.8 -121.45 81.05 -128.45 87.3 L-141.2 98.6 M-135.8 97.25 Q-136.95 98.95 -137.6 99.2 -138.05 99.7 -138.05 98.45 -138.05 98.1 -137.35 97.7 -136.6 97.2 -135.8 97.25 M-161.8 84.5 L-162.1 84.5 -162.3 78.55 -162.15 75.2 -159.8 71.75 -161.8 84.5 M-101.1 70.15 L-101.4 70.6 -100.8 69.7 -101.1 70.15 M-99.6 66.45 Q-100.2 66.5 -101.1 65.45 L-100.8 65.25 -99.6 66.45 M-116.7 60.65 L-116.6 61.5 -116.7 62.3 -116.8 62.7 -117.6 63.2 -119.1 61.7 -118.7 61.05 -118.35 60.7 -116.8 60.75 -116.7 60.65 M-119.3 65.75 Q-119.1 66.5 -119.1 68.75 L-119.35 69.0 -119.6 68.75 -119.6 65.75 -119.3 65.75 M-113.75 94.2 Q-113.6 94.45 -113.6 95.25 -113.6 95.65 -114.3 97.1 L-115.1 99.0 -115.6 99.2 -115.9 98.25 -116.1 96.95 -115.65 95.65 Q-115.05 94.4 -114.1 93.75 L-113.75 94.2 M-107.35 94.15 Q-107.1 94.2 -107.35 94.95 L-110.05 100.8 Q-112.45 105.9 -112.05 108.5 L-112.35 108.75 Q-113.1 107.25 -113.1 104.8 -113.1 103.55 -111.15 99.35 -109.0 94.8 -107.6 94.25 L-107.35 94.15 M-81.1 106.75 Q-76.05 108.55 -72.6 111.25 L-71.8 109.85 Q-70.15 107.4 -68.3 107.75 -69.7 109.15 -70.9 110.95 L-71.6 112.05 -70.95 112.6 -69.3 114.35 -67.05 112.25 Q-64.35 110.2 -63.8 110.2 -64.0 111.0 -65.65 112.65 L-68.1 115.0 -67.9 115.05 -67.3 114.75 -67.8 115.85 -68.15 116.2 Q-67.6 117.35 -67.6 118.45 L-68.1 118.5 Q-68.2 117.5 -68.75 116.45 L-69.35 116.45 Q-70.05 117.2 -70.05 115.95 L-69.7 114.9 -71.75 112.7 -71.95 112.55 -72.85 113.75 -73.35 113.5 -72.85 111.8 Q-76.3 109.0 -81.6 106.95 L-81.1 106.75 M-82.05 105.3 Q-82.05 104.55 -81.7 104.65 L-81.35 104.75 -80.7 104.9 Q-80.0 105.05 -79.8 105.25 -79.9 106.45 -80.6 106.5 -80.6 106.3 -80.75 106.25 L-81.8 105.95 Q-82.05 106.55 -82.05 105.3 M-103.45 104.95 Q-102.5 105.15 -102.35 105.45 -104.7 108.25 -105.05 109.2 L-105.6 109.25 -105.9 108.9 -106.05 107.8 Q-105.25 105.7 -104.35 104.75 L-103.45 104.95 M-109.35 109.7 Q-109.85 108.9 -109.85 107.3 -109.85 105.35 -107.85 101.8 -106.0 98.55 -104.8 97.75 L-107.15 103.4 Q-108.55 106.75 -109.05 109.0 L-109.1 109.25 Q-109.15 109.55 -109.35 109.7 M-137.6 102.8 Q-137.6 103.75 -139.75 108.0 -141.95 112.35 -142.1 115.95 L-142.6 116.0 -142.8 114.5 -143.05 112.8 Q-143.05 110.8 -141.0 106.6 -138.9 102.3 -137.8 102.25 L-137.7 102.05 Q-137.6 102.0 -137.6 102.8 M-138.35 109.25 L-137.35 108.0 -136.8 108.15 Q-136.2 108.3 -136.1 108.5 L-137.8 110.7 -138.05 112.0 -138.1 112.25 Q-138.15 112.55 -138.35 112.7 -138.85 111.9 -138.85 110.3 L-138.35 109.25 M-161.8 104.7 L-162.1 104.7 -162.25 103.8 -162.3 103.2 -161.8 103.2 -161.6 103.9 -161.8 104.7 M-146.3 116.55 L-146.55 114.05 Q-146.55 110.0 -143.95 104.9 -140.85 98.85 -137.1 99.5 -142.8 103.55 -144.55 109.25 -145.6 112.55 -145.6 119.45 L-146.1 119.5 -146.3 116.55 M-73.25 105.6 Q-70.85 103.5 -70.1 103.5 -70.25 105.85 -74.85 108.5 -75.6 109.2 -75.6 107.95 -75.6 107.6 -73.25 105.6 M-165.3 98.75 Q-165.05 99.3 -165.05 100.7 -165.05 101.0 -167.7 104.7 -170.4 108.55 -171.1 109.0 L-167.8 103.95 Q-166.0 100.95 -165.6 98.75 L-165.3 98.75 M-186.6 114.0 L-186.45 113.8 -186.35 113.7 -185.8 113.75 Q-185.2 113.85 -185.1 114.0 -185.35 114.2 -186.6 114.0" fill="#5b5546" fill-rule="evenodd" stroke="none"/>
  </g>
</svg>
