<?xml version="1.0" encoding="UTF-8" standalone="no"?>
<svg xmlns:xlink="http://www.w3.org/1999/xlink" height="37.45px" width="46.75px" xmlns="http://www.w3.org/2000/svg">
  <g transform="matrix(1.0, 0.0, 0.0, 1.0, 22.95, 19.5)">
    <path d="M17.25 -16.25 L19.25 -14.75 Q20.4 -15.8 21.2 -15.35 23.05 -14.4 23.05 -6.0 L22.7 -2.35 Q22.3 0.95 22.25 2.55 22.15 5.25 22.55 11.0 L22.6 13.8 Q22.25 16.0 20.6 16.05 20.15 17.25 19.5 17.25 17.6 17.25 17.5 15.75 L17.55 15.35 15.75 14.15 0.5 16.3 -2.6 15.8 -5.75 15.3 Q-8.95 15.3 -9.7 16.05 -10.5 16.75 -11.0 16.75 -20.5 16.75 -22.4 12.55 -23.0 11.2 -22.8 9.35 L-22.5 7.1 Q-22.5 6.2 -21.6 3.9 -20.75 1.65 -20.75 0.8 L-21.8 -6.25 -22.85 -12.85 -22.75 -14.0 -20.35 -14.1 7.05 -15.5 10.6 -18.65 Q13.1 -20.65 16.2 -17.85 17.65 -16.55 17.25 -16.25" fill="#ffffff" fill-rule="evenodd" stroke="none"/>
    <path d="M15.3 -14.85 Q15.9 -15.5 16.5 -15.5 20.9 -15.5 22.8 -7.85 23.75 -4.05 23.8 -0.15 23.8 3.75 22.8 9.0 21.2 17.5 18.0 17.5 16.1 17.5 15.7 16.25 15.3 15.0 14.25 15.0 L9.9 15.65 -4.25 16.3 Q-16.15 16.3 -19.4 14.05 -20.5 13.3 -20.5 11.1 -20.5 10.5 -20.0 10.05 -19.5 9.65 -19.5 9.0 -20.5 -1.25 -20.5 -3.1 -20.5 -4.0 -21.6 -8.3 -22.2 -10.7 -20.5 -11.75 -16.45 -14.25 14.05 -14.25 14.7 -14.25 15.3 -14.85 M5.0 9.2 L4.0 10.05 3.5 10.5 7.5 10.3 7.55 9.6 Q7.55 8.85 7.2 8.55 L6.55 8.05 5.0 9.2" fill="#d19815" fill-opacity="0.3019608" fill-rule="evenodd" stroke="none"/>
    <path d="M6.05 -10.0 L8.05 -7.85 9.15 -8.75 Q9.85 -9.5 11.0 -9.5 14.95 -9.5 16.6 -7.35 17.45 -6.3 17.5 -5.1 17.5 -3.6 16.5 -2.3 15.5 -1.0 13.0 0.8 L12.75 1.05 Q15.55 0.5 16.45 2.0 16.8 2.65 16.8 4.0 L16.75 5.25 Q16.5 6.25 15.5 6.55 17.0 6.7 17.55 7.8 L17.8 8.85 Q17.8 10.9 15.3 12.5 12.5 14.3 8.0 14.3 4.05 14.3 2.9 13.45 2.5 12.55 2.1 12.55 0.35 12.55 -3.4 13.45 L-8.5 14.3 Q-12.05 14.3 -14.85 8.65 -16.3 5.8 -17.0 2.85 -17.0 1.75 -16.6 1.4 L-13.5 -1.35 -13.25 -1.75 Q-16.0 -1.75 -16.0 -4.5 L-15.85 -5.8 Q-15.35 -6.9 -13.5 -7.1 L-14.15 -7.75 Q-14.5 -8.2 -14.5 -9.0 -14.5 -11.0 -13.25 -10.85 L-8.85 -10.25 Q-8.05 -10.25 -7.2 -11.1 L-5.9 -12.55 Q-4.45 -13.85 -2.75 -10.1 -0.6 -11.5 2.0 -11.5 4.45 -11.5 6.05 -10.0" fill="#d19815" fill-opacity="0.3019608" fill-rule="evenodd" stroke="none"/>
    <path d="M11.95 -0.65 Q12.75 -0.25 13.5 -0.25 L14.4 -1.05 Q15.35 -1.85 17.0 -1.85 19.25 -1.85 20.75 4.35 L21.8 10.5 22.2 12.9 Q22.2 14.1 20.25 14.8 15.15 16.55 -9.75 16.55 -13.85 16.55 -14.85 15.55 L-15.1 14.4 Q-10.75 8.6 -8.35 8.3 -8.4 7.9 -9.0 6.4 L-9.5 4.35 Q-9.5 3.55 -8.35 3.1 -6.5 2.3 -5.35 1.3 L-4.85 1.05 Q-6.5 1.3 -7.35 0.25 -8.0 -0.5 -8.0 -1.5 -8.0 -2.85 -5.3 -4.2 -2.65 -5.55 0.8 -6.0 9.7 -7.15 10.8 -1.25 L11.95 -0.65" fill="#d19815" fill-opacity="0.3019608" fill-rule="evenodd" stroke="none"/>
    <path d="M11.15 -9.6 Q9.5 -8.1 9.5 -7.55 9.5 -5.35 13.25 -5.0 17.0 -4.65 17.0 -2.6 17.0 -1.65 15.9 -0.7 14.25 0.75 11.0 1.05 13.45 1.25 14.2 2.75 14.55 3.4 14.55 4.55 14.55 5.85 12.0 7.55 8.3 10.05 2.0 10.05 L-9.25 5.3 -20.1 0.35 -16.7 -5.0 Q-13.35 -10.35 -13.35 -11.0 -13.35 -11.7 -10.0 -13.6 -6.75 -15.5 -6.0 -15.5 L-4.25 -15.0 Q-3.1 -14.5 -2.5 -14.5 L5.25 -15.35 Q12.8 -15.55 12.8 -12.05 12.8 -11.1 11.15 -9.6" fill="#d19815" fill-opacity="0.3019608" fill-rule="evenodd" stroke="none"/>
    <path d="M14.15 -16.35 L14.45 -16.85 14.75 -16.15 14.85 -15.85 15.3 -15.85 Q18.05 -15.8 18.1 -15.35 L18.5 -14.9 18.85 -14.95 19.85 -15.6 21.5 -16.3 Q22.2 -16.3 22.2 -15.85 L21.7 -14.7 21.4 -14.35 21.55 -14.05 21.55 -13.75 Q22.25 -12.8 22.35 -11.85 L22.65 -11.4 21.9 -10.85 21.7 -10.75 21.8 -10.15 22.15 -10.15 22.25 -9.9 22.0 -8.9 22.35 -6.55 22.3 -5.95 22.05 -5.9 Q21.5 -5.9 21.45 -6.9 21.25 -7.05 21.2 -7.45 L21.25 -8.15 21.4 -9.25 21.15 -9.8 21.1 -10.05 21.4 -10.15 21.4 -10.6 20.85 -10.5 20.45 -10.55 Q20.35 -10.55 20.35 -10.8 20.35 -11.1 21.05 -11.4 L20.75 -12.5 20.4 -12.9 20.3 -13.3 20.45 -13.85 20.65 -14.35 19.55 -14.05 19.05 -14.05 18.95 -14.05 18.6 -14.15 18.45 -14.15 17.7 -14.55 15.75 -15.0 14.95 -15.0 14.75 -14.05 14.65 -14.0 14.35 -14.95 12.8 -14.7 11.55 -14.35 11.05 -14.55 11.0 -14.8 Q11.0 -15.7 14.2 -15.8 L14.15 -16.35 M11.05 -15.8 L11.15 -15.55 Q11.15 -15.15 10.05 -14.75 9.45 -14.75 9.15 -15.35 L8.55 -16.05 Q8.25 -16.05 7.35 -15.25 L6.0 -14.45 5.2 -14.45 5.15 -14.35 Q5.05 -14.2 4.6 -14.2 4.3 -14.2 4.1 -14.4 L3.4 -14.6 Q2.65 -14.6 2.4 -15.25 L2.1 -16.1 Q0.6 -14.8 0.2 -14.8 L-0.05 -14.85 -0.15 -15.05 0.4 -15.65 Q0.9 -16.05 1.05 -16.05 L1.85 -16.7 2.65 -16.65 3.0 -16.0 Q3.3 -15.5 3.5 -15.5 L4.1 -16.0 4.6 -15.55 Q4.7 -15.05 5.15 -15.1 L5.2 -14.95 7.65 -16.55 Q8.65 -17.5 9.2 -16.85 10.05 -16.0 10.7 -16.0 L11.05 -15.8 M20.05 -14.3 L20.7 -14.75 20.85 -14.9 20.85 -15.05 20.85 -15.1 20.55 -14.95 19.5 -14.3 20.05 -14.3 M4.55 -1.55 Q4.55 -1.85 5.05 -2.35 L5.65 -2.85 5.8 -2.6 5.5 -2.1 5.4 -2.0 6.35 -2.4 7.5 -2.85 7.6 -2.75 6.65 -2.0 5.2 -1.25 4.65 -1.25 4.55 -1.55 M6.25 -0.55 Q6.25 -0.8 7.55 -1.4 8.95 -2.1 9.6 -1.85 L9.65 -1.9 9.65 -1.75 6.7 -0.2 6.25 -0.55 M16.05 -9.65 Q12.35 -7.65 11.95 -7.65 L11.55 -7.45 11.45 -7.55 Q11.7 -8.2 13.15 -9.05 14.7 -9.95 15.95 -9.95 L16.05 -9.65 M12.5 -10.95 L12.55 -10.8 11.85 -10.0 10.6 -8.95 10.45 -9.0 Q10.55 -9.55 11.2 -10.15 11.85 -10.8 12.5 -10.95 M19.95 -1.4 Q19.95 -2.0 21.0 -1.75 22.05 -1.4 22.05 -1.15 22.05 -0.7 21.2 -0.75 20.5 -0.75 20.15 -1.05 L19.95 -1.4 M17.9 -2.95 L19.5 -3.15 Q21.35 -3.45 22.45 -4.1 22.7 -3.7 22.55 -3.6 L23.0 -3.15 22.55 -2.85 20.75 -2.65 18.0 -2.65 17.9 -2.95 M21.35 -14.05 L21.25 -14.15 21.35 -14.0 21.35 -14.05 M21.65 -5.7 L22.2 -5.15 22.15 -4.85 22.0 -4.75 21.65 -4.8 21.65 -4.05 21.35 -3.9 20.95 -4.6 20.8 -5.3 Q20.8 -5.85 21.35 -6.05 L21.65 -5.8 21.65 -5.7 M21.75 0.7 L21.55 0.4 21.55 1.0 21.6 1.8 21.45 2.95 21.4 3.15 21.35 4.3 21.55 4.6 21.35 5.0 21.3 5.65 21.75 6.15 21.7 6.45 21.3 6.6 21.25 7.2 21.75 7.6 22.85 8.8 22.6 9.05 21.2 8.8 21.2 9.0 21.2 9.5 21.35 9.7 21.4 9.8 21.15 9.9 Q20.9 12.15 20.1 12.15 L19.9 12.1 19.6 12.25 Q19.2 12.25 18.9 11.45 L18.65 10.65 Q18.65 9.95 18.95 9.95 L19.3 10.8 19.7 11.4 20.0 9.3 18.65 8.55 20.1 8.85 20.1 8.7 20.45 7.25 19.8 6.3 20.15 6.0 19.05 5.45 19.15 5.7 19.05 5.75 18.8 5.3 19.9 5.35 19.9 5.2 20.75 5.4 20.8 4.95 20.5 4.65 20.5 4.25 20.75 2.2 Q21.0 0.45 21.25 0.1 L21.35 0.3 21.55 -0.15 Q22.0 0.1 22.0 0.95 L21.95 1.05 21.75 0.7 M21.25 8.35 L21.65 8.3 21.25 8.0 21.25 8.35 M21.0 11.2 Q21.0 10.75 21.35 10.6 21.75 11.95 21.75 13.7 L21.9 13.85 22.0 14.5 22.0 14.7 22.3 15.1 Q22.3 15.6 21.7 15.55 L21.45 15.45 21.3 15.45 20.45 15.35 Q20.0 15.4 20.0 15.75 L19.75 16.2 19.25 15.95 Q18.75 15.7 16.5 15.95 L16.45 15.9 16.25 15.95 14.75 16.35 14.5 16.2 Q13.65 16.2 13.45 15.9 L13.45 15.6 9.6 16.05 9.45 16.05 9.55 17.75 9.4 17.95 Q8.9 17.45 8.8 16.0 L0.6 15.95 0.55 16.0 -0.05 17.25 -0.45 16.85 -0.45 16.4 -0.3 15.95 -0.95 15.95 -1.0 16.1 -1.3 16.25 -1.5 16.05 -1.9 16.15 -3.25 16.1 -3.55 16.15 -3.75 16.1 -4.4 16.0 -4.5 15.85 -5.35 15.75 -6.6 15.5 -7.25 15.1 -5.9 15.35 -5.05 15.2 -4.25 15.0 -3.65 15.25 -1.6 15.3 -1.2 14.1 -0.55 12.95 Q-0.2 13.5 -0.2 13.95 L-0.55 14.8 -0.75 15.3 -0.05 15.3 0.35 14.0 Q0.95 14.05 0.95 14.7 L0.9 15.3 6.3 15.2 5.95 14.85 5.9 14.3 Q5.9 13.95 6.05 13.75 L6.2 13.6 6.4 13.75 6.7 14.25 6.7 15.0 6.7 15.2 8.75 15.15 8.75 15.05 8.8 13.75 Q8.9 13.05 9.1 12.9 L9.4 13.8 9.45 15.1 9.7 15.1 10.0 15.2 10.15 15.2 12.35 14.8 12.7 14.7 Q14.15 14.4 14.2 15.35 L15.0 15.15 Q15.3 15.2 15.45 15.4 L16.25 15.4 Q17.2 14.4 17.9 14.65 L18.75 14.85 18.05 13.85 17.3 12.75 Q17.3 11.8 17.7 11.55 L18.85 13.15 19.25 12.45 19.4 12.45 19.45 12.8 19.45 12.9 19.9 12.75 20.2 12.8 20.25 13.0 Q20.3 12.8 20.6 12.55 L21.05 11.9 21.0 11.2 M20.6 13.65 L20.3 13.15 19.95 13.65 19.6 13.85 19.35 14.0 19.75 14.8 20.1 14.65 21.3 14.5 21.3 14.25 20.75 13.85 20.6 13.65 M15.7 4.8 Q16.7 4.8 18.2 7.05 L18.15 7.3 17.85 7.4 Q17.45 7.4 17.05 6.9 L16.65 6.2 Q16.55 7.2 17.25 8.15 L17.25 8.6 Q17.2 8.75 16.95 8.75 L14.65 6.15 14.95 6.05 16.15 7.1 16.15 6.65 Q15.65 5.55 15.65 5.05 L15.7 4.8 M10.25 9.2 Q9.8 9.2 8.9 8.1 L7.9 6.7 8.2 6.55 Q8.5 6.55 9.1 7.2 L9.9 7.95 Q10.2 6.25 11.05 6.55 11.85 6.8 12.4 8.3 L12.2 8.45 11.2 8.0 10.45 7.45 10.55 8.85 10.5 9.15 10.25 9.2 M11.0 11.65 L11.65 13.8 11.2 14.1 11.0 13.8 10.8 13.05 10.65 11.8 Q10.8 11.65 11.0 11.65 M14.9 9.8 Q15.35 10.25 15.55 11.25 L16.05 12.75 15.75 12.85 Q15.55 12.85 14.6 10.2 L14.9 9.8 M8.85 1.4 Q9.0 1.25 9.2 1.25 L9.45 1.65 9.25 1.75 9.05 1.7 8.85 1.4 M0.1 6.7 L-0.05 7.6 -0.7 9.9 -0.3 10.55 -0.65 10.95 -1.4 10.5 -1.4 10.35 -1.45 10.45 -2.15 10.7 Q-2.8 10.7 -2.95 10.25 L-3.0 9.8 Q-2.45 6.4 -1.8 5.55 L-1.65 5.8 -2.35 9.15 -2.3 10.0 -1.65 10.05 -1.45 9.95 -1.35 9.9 Q-0.85 7.0 -0.15 6.45 L0.05 6.5 0.1 6.7 M8.75 9.7 L8.55 9.8 Q8.2 9.8 7.7 9.3 L6.9 8.65 Q7.05 7.65 7.95 8.4 8.8 9.15 8.8 9.45 L8.75 9.7 M-20.8 -4.0 L-21.1 -4.15 -21.1 -4.4 -20.45 -4.4 -20.55 -5.85 -20.3 -7.2 -20.1 -8.7 -20.3 -10.55 -20.25 -10.7 -20.0 -10.95 Q-19.65 -7.9 -19.65 -6.55 L-19.65 -6.1 Q-19.7 -5.85 -20.05 -5.85 L-19.65 -4.2 -18.95 -4.0 Q-17.6 -3.55 -17.35 -3.2 L-17.35 -2.75 Q-17.2 -2.7 -17.45 -2.7 L-18.65 -3.1 Q-18.55 -2.95 -18.8 -2.95 L-19.55 -3.2 -19.6 -2.75 -19.8 -2.6 -20.25 -3.55 -20.8 -3.85 -20.8 -4.0 M-21.15 -12.2 Q-20.95 -12.7 -19.95 -13.0 L-19.05 -13.15 -19.65 -13.65 -20.05 -14.2 -19.95 -14.65 -19.95 -15.95 -19.5 -16.0 -18.65 -15.95 -17.45 -15.65 -16.95 -15.65 Q-17.4 -15.7 -17.55 -16.0 L-17.6 -16.35 Q-17.6 -17.1 -16.7 -16.15 L-15.55 -14.7 -15.8 -14.45 -17.3 -14.75 -19.35 -15.3 -18.75 -14.4 -18.2 -13.6 Q-18.2 -13.1 -18.7 -13.1 L-18.85 -13.1 -18.8 -12.95 Q-18.8 -12.5 -20.15 -12.4 -19.6 -12.4 -19.6 -11.9 L-19.65 -11.55 -20.1 -11.5 -20.75 -11.7 -21.15 -12.2 M-8.85 -15.75 Q-8.4 -15.75 -7.8 -15.25 -7.15 -16.25 -4.15 -16.3 -0.35 -16.45 -0.35 -15.4 -0.35 -14.95 -1.35 -14.95 -2.05 -14.95 -2.55 -15.4 -3.05 -15.85 -4.25 -15.9 -5.55 -15.9 -6.85 -15.25 L-7.35 -14.9 -7.3 -14.85 Q-7.3 -14.3 -7.8 -14.3 -8.15 -14.3 -8.3 -14.7 -8.45 -15.1 -9.4 -15.15 L-9.6 -14.45 -9.7 -14.4 -9.9 -15.15 -11.2 -15.0 -11.05 -14.55 -10.8 -13.3 -10.85 -12.85 -11.1 -12.8 Q-11.5 -12.8 -11.8 -14.05 L-11.95 -14.75 -12.2 -14.7 Q-12.85 -14.7 -13.55 -15.2 L-14.45 -15.7 -14.55 -15.95 Q-14.3 -16.2 -13.6 -15.7 -12.8 -15.15 -12.45 -15.15 L-12.05 -15.25 -12.05 -15.4 -12.2 -16.7 Q-12.15 -17.95 -11.25 -17.9 L-11.3 -16.0 -11.25 -15.55 -10.0 -15.7 -10.35 -17.35 Q-9.5 -17.25 -9.4 -15.75 L-8.85 -15.75 M-7.1 -14.35 L-6.7 -13.6 -6.3 -12.75 -6.3 -12.2 -6.55 -12.0 -7.2 -12.5 -7.55 -13.0 -7.2 -13.35 -7.45 -13.8 -7.3 -14.15 -7.1 -14.35 M-16.15 -11.15 Q-15.95 -11.25 -15.3 -10.5 L-14.3 -9.4 -15.55 -10.1 -16.2 -10.85 -16.15 -11.15 M-16.15 -6.35 Q-16.95 -6.35 -17.65 -7.7 L-18.2 -9.05 -18.05 -9.7 -17.25 -8.25 Q-16.65 -7.3 -15.7 -6.7 L-16.15 -6.35 M-19.9 -2.3 L-20.0 4.45 -19.7 4.3 -19.65 4.15 -19.75 3.65 -19.4 3.8 Q-19.05 4.15 -19.05 4.55 -19.05 5.35 -22.45 5.95 L-22.95 5.75 -22.95 5.55 Q-22.95 5.2 -22.05 5.0 L-20.75 4.65 -20.8 4.55 -20.8 4.2 Q-21.0 -1.05 -20.15 -2.95 L-19.9 -2.3 M-10.95 -2.2 L-11.1 -1.3 -11.3 -1.3 -11.35 -2.2 -11.15 -2.85 -10.95 -2.2 M-4.4 -8.05 Q-4.55 -7.7 -5.05 -7.75 L-5.5 -7.75 -5.6 -8.05 Q-5.6 -8.55 -4.5 -8.25 L-4.4 -8.05 M-9.25 -2.15 Q-8.85 -3.1 -8.2 -3.2 -8.05 -3.05 -8.05 -2.75 L-8.45 -1.45 -9.15 -0.3 Q-9.5 -0.65 -9.5 -1.15 L-9.25 -2.15 M-6.95 -1.9 L-6.9 -1.75 -7.15 -1.0 -7.55 0.35 Q-7.5 0.45 -7.75 0.45 L-8.05 0.4 -8.1 -0.25 Q-8.1 -1.15 -7.0 -1.9 L-6.95 -1.9 M-9.9 7.85 L-10.65 8.4 -10.2 7.65 -9.35 7.0 -9.9 7.85 M-6.65 12.25 Q-6.65 12.95 -7.6 14.65 L-7.85 13.7 -7.6 12.7 -6.85 11.7 -6.65 12.25 M-4.5 9.1 L-4.8 10.8 -5.05 10.95 Q-5.35 10.8 -5.35 9.85 -5.35 8.5 -4.8 8.2 L-4.5 9.1 M-14.95 0.75 L-15.55 0.85 Q-17.25 0.5 -17.55 0.15 -17.5 -0.45 -16.55 -0.1 L-14.5 0.6 -14.95 0.75 M-18.4 6.15 L-20.45 7.25 -21.25 7.1 -20.3 6.15 Q-19.6 5.65 -18.5 5.8 L-18.4 6.15 M-17.45 8.5 Q-17.45 8.15 -16.7 7.65 -15.9 7.05 -15.25 7.3 L-17.05 9.05 -17.45 8.5 M-19.8 7.95 L-19.55 9.9 -19.75 11.65 -20.0 13.05 -19.9 13.55 -19.85 13.75 Q-19.7 14.25 -19.7 14.9 L-19.35 14.85 -19.3 14.95 Q-18.9 14.6 -17.4 14.6 L-15.8 14.85 Q-15.85 15.05 -15.2 15.05 L-13.7 14.75 -12.8 14.45 -11.8 14.45 -12.7 15.3 Q-13.55 15.95 -14.55 15.95 L-19.4 15.65 -20.05 15.9 Q-20.45 15.9 -20.85 13.55 L-20.25 10.4 -20.4 8.8 Q-20.5 7.8 -20.05 7.3 L-19.7 7.45 -19.8 7.95 M-15.2 10.75 Q-15.85 12.7 -16.55 13.6 -17.05 14.2 -17.55 14.3 L-17.4 13.55 -16.85 12.25 -15.7 10.2 Q-15.2 10.4 -15.2 10.75 M-15.85 9.05 Q-15.85 8.55 -14.75 8.05 L-12.95 7.85 -15.7 9.3 -15.85 9.05 M-13.65 11.1 L-13.55 11.35 -13.95 11.6 Q-14.2 11.6 -14.75 13.35 L-14.8 13.45 -13.5 12.65 Q-12.3 11.95 -12.05 11.95 -11.4 11.95 -11.45 12.75 -11.45 13.4 -11.85 13.6 L-12.3 13.7 -12.65 13.6 -12.7 13.5 -12.85 13.2 -13.45 13.6 -13.75 13.8 Q-14.4 14.2 -14.95 14.2 L-15.65 13.95 -15.65 13.7 -15.65 13.6 -15.1 12.05 Q-14.45 10.85 -13.65 11.1 M-12.2 15.35 L-12.35 15.55 -12.25 15.0 -11.7 14.9 -10.75 14.4 Q-10.2 14.15 -10.05 15.45 L-9.7 15.15 -9.1 15.05 Q-8.35 15.05 -7.9 15.5 -7.55 15.85 -7.55 16.15 -7.55 16.5 -7.95 16.5 -8.3 16.5 -8.65 16.2 L-9.05 15.8 -9.95 16.4 Q-10.55 16.4 -10.95 15.15 L-11.4 15.8 -11.7 16.55 -11.85 16.6 -12.15 16.55 -12.15 15.45 -12.2 15.35" fill="#5a493f" fill-rule="evenodd" stroke="none"/>
  </g>
</svg>
