<?xml version="1.0" encoding="UTF-8" standalone="no"?>
<svg xmlns:xlink="http://www.w3.org/1999/xlink" height="197.65px" width="341.55px" xmlns="http://www.w3.org/2000/svg">
  <g transform="matrix(1.0, 0.0, 0.0, 1.0, -33.05, -66.35)">
    <path d="M362.35 89.15 Q358.9 92.35 356.55 93.8 348.25 98.95 311.55 99.0 309.25 94.0 302.1 91.7 296.25 89.8 287.7 90.05 281.65 89.55 274.0 90.0 L279.55 90.0 Q272.45 90.15 264.95 93.35 251.6 96.35 247.4 102.6 L245.1 106.35 Q241.6 109.4 238.7 112.55 L237.5 113.25 Q229.6 117.55 221.1 121.15 L210.85 122.35 Q200.65 124.0 194.0 126.45 190.85 127.6 189.05 128.8 L178.75 129.25 Q177.55 129.5 177.9 130.45 178.45 131.95 177.5 133.25 L177.0 134.0 Q172.7 135.55 162.85 140.25 151.9 145.45 145.75 147.5 130.05 152.75 122.45 162.4 116.25 170.35 116.25 180.1 116.25 188.5 117.75 194.2 L118.1 195.5 Q116.75 197.45 115.65 199.85 113.25 205.2 113.25 210.25 113.25 211.6 114.0 215.2 L112.75 217.2 Q106.25 227.9 106.25 230.75 L106.55 235.25 107.2 236.9 106.05 241.8 Q104.75 248.2 104.75 251.0 104.75 258.0 106.75 264.0 L33.05 264.0 33.55 262.4 37.65 248.35 Q44.05 226.9 49.0 222.5 56.65 215.65 62.95 196.6 68.0 181.35 68.0 175.85 68.0 167.05 62.5 159.3 L58.7 153.65 Q57.75 151.85 57.35 149.95 L59.5 147.4 Q62.1 145.0 67.25 142.75 68.45 147.0 73.0 147.0 80.5 147.0 84.1 130.9 85.1 126.4 86.3 117.85 87.4 109.95 88.0 107.75 89.3 102.65 95.8 87.95 99.05 93.25 103.0 93.25 107.4 93.25 109.25 87.7 113.65 87.3 117.5 84.15 120.4 81.75 124.3 76.3 128.55 70.5 130.25 68.9 133.55 65.8 137.0 66.5 L130.85 73.95 Q127.5 77.9 127.5 81.1 127.5 86.0 134.0 86.75 L130.6 98.15 Q128.5 104.9 128.5 107.1 128.5 110.3 130.5 111.25 133.7 112.75 145.0 112.75 154.3 112.75 177.55 102.5 L180.05 101.4 Q190.35 106.25 198.0 106.25 211.9 106.25 222.95 102.25 230.35 99.55 239.9 93.4 250.65 86.45 254.9 84.5 263.8 80.5 274.0 80.5 300.0 80.5 310.15 88.15 L316.9 93.35 Q321.0 95.75 327.85 95.75 339.1 95.75 370.65 81.75 L373.9 80.3 Q374.6 81.75 374.6 82.5 L374.55 84.3 374.35 84.75 Q366.3 86.35 362.35 89.15" fill="url(#gradient0)" fill-rule="evenodd" stroke="none"/>
  </g>
  <defs>
    <linearGradient gradientTransform="matrix(0.0, 0.293, -0.2841, 0.0, 320.0, 240.0)" gradientUnits="userSpaceOnUse" id="gradient0" spreadMethod="pad" x1="-819.2" x2="819.2">
      <stop offset="0.0" stop-color="#9fdfdf"/>
      <stop offset="1.0" stop-color="#ffffff"/>
    </linearGradient>
  </defs>
</svg>
