<?xml version="1.0" encoding="UTF-8" standalone="no"?>
<svg xmlns:xlink="http://www.w3.org/1999/xlink" height="159.45px" width="338.75px" xmlns="http://www.w3.org/2000/svg">
  <g transform="matrix(1.0, 0.0, 0.0, 1.0, 169.25, 79.55)">
    <path d="M103.0 -23.75 L106.5 -23.5 107.0 -24.25 103.95 -24.0 103.0 -23.75 M80.75 -41.25 Q80.25 -42.95 80.45 -44.25 81.15 -48.5 88.5 -48.5 L94.0 -47.35 Q98.25 -46.25 99.5 -46.25 100.8 -46.25 107.75 -48.5 116.65 -51.4 121.0 -52.5 138.75 -57.0 138.75 -49.1 138.75 -47.25 126.9 -37.05 L115.0 -26.75 Q146.8 -26.5 155.4 -24.45 158.5 -23.75 159.05 -22.7 L159.0 -21.0 Q159.0 -18.15 156.0 -15.9 150.7 -11.95 137.75 -12.25 L141.5 -11.5 Q149.55 -12.6 153.15 -8.75 155.25 -6.5 155.25 -4.1 155.25 -2.05 154.15 -1.1 151.7 1.0 143.75 1.75 L144.5 2.5 Q150.15 8.85 151.05 11.15 151.75 12.85 151.75 19.0 151.75 20.55 150.6 22.0 L147.75 24.9 Q142.9 29.65 140.5 36.5 138.55 42.0 134.65 41.95 132.6 41.9 126.65 39.15 121.0 36.5 117.75 36.75 112.7 37.2 109.0 43.5 108.0 45.1 102.8 48.45 97.25 52.0 95.0 52.0 91.4 52.0 89.5 49.75 88.0 48.05 88.0 46.0 88.0 42.75 92.15 39.8 L100.5 33.5 Q90.45 32.65 86.2 30.1 83.0 28.2 83.0 25.1 83.0 23.35 83.85 22.15 85.25 20.15 89.0 19.0 L82.25 14.65 Q80.0 13.05 80.0 11.85 80.0 10.6 81.15 8.85 82.55 6.8 84.5 6.25 74.5 1.95 61.4 -0.8 58.2 -1.45 57.3 -2.4 56.25 -3.5 56.25 -6.6 56.25 -9.65 59.05 -12.4 63.65 -16.9 73.75 -15.75 L73.5 -16.0 72.35 -17.45 Q71.75 -18.3 71.75 -19.85 71.75 -24.05 76.5 -31.75 L81.25 -39.75 80.75 -41.25" fill="#996600" fill-opacity="0.2" fill-rule="evenodd" stroke="none"/>
    <path d="M75.0 -32.0 Q75.0 -34.75 78.8 -37.6 82.9 -40.7 88.0 -41.0 L88.0 -41.25 Q88.0 -42.55 87.05 -44.15 86.25 -45.55 86.5 -46.25 88.4 -51.2 91.9 -52.35 L99.0 -52.05 106.7 -50.1 Q111.1 -49.4 114.0 -51.25 124.1 -54.0 127.9 -49.55 129.85 -47.35 129.75 -44.25 129.75 -41.6 126.55 -38.45 123.45 -35.45 119.95 -35.25 125.25 -35.1 127.05 -33.25 128.0 -32.2 128.0 -29.75 128.0 -27.15 126.9 -25.65 L122.75 -21.75 124.25 -21.75 Q131.15 -22.9 133.75 -20.75 135.25 -19.5 135.25 -16.85 135.25 -15.25 134.7 -14.4 L133.25 -12.75 137.4 -10.2 Q139.25 -8.9 139.25 -7.1 139.25 -4.45 137.55 -3.05 134.45 -0.5 125.5 -0.5 L126.25 -0.25 Q130.5 1.5 130.5 5.85 130.5 8.25 129.2 9.65 127.8 11.1 112.0 9.5 126.8 16.25 128.0 18.55 128.75 20.1 119.75 17.0 123.7 24.6 113.55 26.7 L105.0 28.55 Q104.8 27.55 97.5 21.5 90.25 15.5 90.25 9.85 90.25 8.35 90.55 7.9 L91.0 7.25 Q86.25 5.9 80.85 5.25 L73.4 4.55 Q70.1 4.15 68.8 3.1 67.25 1.85 67.25 -1.1 67.25 -2.7 67.7 -3.45 L68.5 -4.5 Q65.6 -5.35 64.5 -7.35 63.75 -8.65 63.75 -10.75 63.75 -15.15 70.6 -19.3 72.65 -20.55 85.25 -26.5 78.4 -27.3 76.1 -29.45 75.0 -30.45 75.0 -32.0" fill="#996600" fill-opacity="0.2" fill-rule="evenodd" stroke="none"/>
    <path d="M62.3 -20.6 Q69.1 -20.2 70.95 -19.45 73.0 -18.65 73.0 -16.25 73.0 -14.55 71.75 -13.55 68.8 -11.3 60.0 -11.75 L62.0 -11.25 Q63.45 -9.8 64.2 -8.0 64.75 -6.75 64.75 -6.0 64.75 -4.3 64.25 -3.0 L63.0 -0.75 Q69.9 1.0 72.0 3.05 73.5 4.5 73.5 7.85 73.5 9.75 71.4 16.2 69.05 23.45 67.25 24.75 75.7 27.25 77.55 28.35 80.0 29.75 80.0 32.85 80.0 39.15 69.0 39.5 71.0 41.9 71.0 45.1 71.45 47.05 70.55 48.7 L65.0 59.6 Q61.2 67.2 39.6 57.5 17.95 47.8 9.9 46.4 1.8 45.0 1.3 45.8 L0.45 47.5 Q-0.85 50.0 -6.0 50.0 -7.95 50.0 -14.25 46.25 -21.0 42.3 -21.0 40.1 -21.8 38.2 -20.3 36.55 -17.25 33.25 -5.5 33.25 L4.6 33.95 21.25 35.0 18.5 34.25 7.45 32.3 -3.4 30.6 Q-15.0 28.05 -15.0 21.5 -15.0 19.5 -14.25 18.1 -12.6 15.0 -8.0 15.0 L-0.45 15.65 7.25 16.5 6.25 16.25 Q-0.35 14.1 -27.0 -2.85 -27.2 -4.6 -26.25 -6.05 -24.35 -9.0 -18.5 -9.0 -15.95 -9.0 -7.95 -7.45 L0.0 -6.25 Q-1.9 -8.15 -1.45 -10.8 -1.05 -13.1 0.75 -14.5 -6.0 -15.75 -6.0 -20.0 -6.0 -26.05 10.0 -25.0 30.85 -22.5 62.3 -20.6" fill="#996600" fill-opacity="0.2" fill-rule="evenodd" stroke="none"/>
    <path d="M71.8 -13.3 Q71.2 -11.5 68.5 -10.15 61.4 -6.55 35.75 -3.75 36.3 -2.95 40.8 1.9 43.25 4.55 43.25 7.85 43.25 9.2 40.9 10.45 37.8 12.05 36.25 14.75 35.85 15.45 36.55 17.25 37.2 18.9 36.5 19.75 34.15 22.5 14.0 22.5 13.1 22.5 11.3 21.5 8.75 20.15 8.75 18.1 8.75 16.35 9.3 14.85 9.7 13.65 10.75 11.75 L-2.55 7.1 Q-5.25 5.75 -5.25 3.0 -5.25 1.45 -5.05 1.2 L-4.5 0.75 Q-8.65 0.45 -11.05 -1.15 -13.25 -2.7 -13.25 -4.85 -13.25 -6.15 -11.05 -8.35 -7.75 -11.65 -6.0 -14.25 -10.95 -15.7 -12.95 -17.35 -14.75 -18.85 -14.75 -21.1 -14.75 -23.85 -1.2 -24.9 11.15 -25.8 28.65 -24.95 46.4 -24.1 58.45 -21.95 72.0 -19.5 72.0 -16.35 72.0 -13.8 71.8 -13.3" fill="#996600" fill-opacity="0.2" fill-rule="evenodd" stroke="none"/>
    <path d="M37.95 -69.85 Q38.4 -68.25 50.75 -68.25 L92.8 -70.3 125.05 -73.3 Q139.6 -74.3 145.7 -72.4 L157.7 -68.1 Q153.0 -65.95 149.5 -65.35 153.0 -61.35 137.5 -52.0 121.4 -42.25 116.5 -42.25 104.85 -42.25 103.75 -44.7 103.45 -45.4 103.9 -47.0 104.35 -48.55 104.0 -49.25 102.15 -48.1 95.75 -47.0 L96.8 -45.3 Q97.25 -44.4 97.25 -42.85 97.25 -39.5 94.55 -37.95 92.25 -36.55 86.65 -35.85 L63.4 -33.3 Q61.65 -34.9 60.5 -35.4 L56.5 -36.75 Q56.25 -37.5 53.0 -38.25 L44.2 -38.45 Q36.0 -38.55 36.0 -37.0 36.0 -35.45 41.4 -35.45 L46.75 -35.75 Q43.8 -35.1 46.4 -33.95 48.6 -33.0 51.25 -32.75 L55.55 -32.0 55.5 -32.0 55.95 -31.15 56.25 -29.0 Q56.25 -21.25 6.9 -16.05 L-34.65 -12.75 Q-29.25 -12.4 -26.35 -10.4 -23.75 -8.6 -23.75 -5.85 -23.75 -3.75 -25.65 -1.75 -28.25 1.0 -33.5 2.0 L-31.8 4.05 Q-31.0 5.25 -31.0 6.85 -31.0 9.9 -33.5 11.85 -36.65 14.3 -44.25 15.5 L-43.8 16.15 Q-43.5 16.6 -43.5 18.1 -43.5 19.45 -44.8 21.5 -46.5 24.25 -49.0 24.25 -79.7 24.25 -77.35 15.45 -114.7 18.75 -119.05 18.0 -160.0 10.65 -160.0 0.1 -160.0 -3.35 -155.05 -7.4 -149.7 -11.8 -141.25 -14.5 L-142.5 -16.35 Q-143.0 -17.35 -143.0 -19.0 -143.0 -21.25 -142.2 -22.35 -141.0 -24.0 -136.5 -26.5 L-135.75 -27.0 Q-141.5 -27.85 -144.1 -30.45 -146.0 -32.4 -146.0 -35.0 -146.0 -36.85 -143.25 -40.3 -139.2 -45.35 -132.0 -47.75 -151.2 -46.4 -157.95 -50.25 -161.0 -52.0 -161.0 -54.85 -161.0 -57.45 -159.7 -58.6 -157.85 -60.25 -152.75 -60.5 L-153.2 -62.35 -153.25 -65.0 -153.45 -67.05 Q-153.55 -68.55 -152.8 -69.55 -150.55 -72.5 -140.5 -72.5 -134.8 -72.5 -124.9 -70.6 L-113.6 -68.75 Q-90.8 -68.75 -86.8 -69.2 -85.5 -69.3 -85.3 -69.6 -85.0 -69.95 -84.2 -70.1 -76.9 -71.5 28.0 -71.5 37.55 -71.5 37.95 -69.85 M-142.75 -0.25 Q-108.1 -2.05 -94.65 -4.55 L-84.35 -6.65 -67.25 -8.75 -104.5 -8.75 -125.45 -5.3 Q-135.6 -3.25 -142.75 -0.25" fill="#9fd26c" fill-opacity="0.3019608" fill-rule="evenodd" stroke="none"/>
    <path d="M38.9 -69.05 L63.25 -70.0 83.7 -70.8 101.0 -71.25 Q131.55 -71.25 140.05 -69.25 143.65 -68.4 144.7 -66.9 145.25 -66.1 145.25 -63.85 145.25 -61.3 101.9 -52.75 82.0 -48.85 50.05 -51.9 42.2 -49.35 38.65 -47.25 L5.3 -49.65 Q-48.0 -55.1 -83.55 -45.2 -119.15 -35.3 -120.05 -37.6 -120.95 -39.9 -119.55 -42.0 L-117.75 -44.75 -138.15 -49.05 -140.25 -49.25 Q-141.4 -49.25 -147.5 -47.5 -153.65 -45.75 -155.0 -45.75 -164.4 -45.75 -167.5 -48.0 -169.25 -49.25 -169.25 -52.1 -169.25 -57.55 -158.5 -60.9 -149.9 -63.55 -132.0 -65.35 -85.15 -68.55 -66.0 -72.0 -35.15 -73.3 -24.2 -73.05 -16.5 -72.85 -15.4 -71.65 -13.95 -70.05 -11.0 -69.55 L17.75 -68.5 38.9 -69.05" fill="#9fd26c" fill-opacity="0.3019608" fill-rule="evenodd" stroke="none"/>
    <path d="M-93.0 -52.0 Q-93.0 -48.6 -101.3 -44.35 L-117.75 -35.75 -117.75 -35.25 -102.35 -36.45 -96.0 -37.25 Q-91.1 -37.25 -89.45 -34.7 -88.75 -33.6 -88.75 -31.85 -88.75 -29.3 -92.0 -26.9 -95.45 -24.35 -100.25 -23.75 -98.4 -22.4 -95.15 -22.3 L-87.0 -22.5 Q-78.55 -22.5 -77.45 -19.1 -77.1 -18.05 -77.5 -16.65 L-78.0 -15.25 Q-78.25 -14.5 -77.5 -14.25 -67.7 -17.75 -60.5 -17.75 -52.65 -17.75 -47.25 -12.75 L-43.1 -9.3 Q-40.5 -7.75 -37.0 -7.75 -33.9 -7.75 -32.3 -5.0 -31.25 -3.25 -31.25 -2.0 -31.25 1.0 -33.55 2.5 -37.45 5.0 -48.5 5.0 -53.8 5.0 -56.7 3.0 -59.55 1.0 -61.5 1.0 L-77.9 1.05 -99.75 1.75 -109.0 3.4 Q-116.75 4.75 -123.5 4.75 -152.65 4.75 -159.25 1.5 -161.4 0.4 -161.2 -1.1 L-160.5 -3.0 Q-160.5 -5.65 -160.1 -6.3 -159.1 -8.1 -154.5 -10.5 -156.05 -15.45 -150.7 -19.55 -147.25 -22.15 -141.75 -24.0 L-141.75 -26.75 Q-149.65 -25.25 -152.35 -28.9 -153.7 -30.75 -153.5 -33.1 -153.5 -37.7 -144.05 -43.55 -135.45 -48.9 -123.25 -52.9 -110.85 -57.0 -102.45 -57.1 -93.0 -57.2 -93.0 -52.0 M-120.5 -18.25 L-116.75 -18.55 -113.0 -19.0 -111.5 -19.25 -119.5 -18.5 -120.5 -18.25" fill="#9fd26c" fill-opacity="0.3019608" fill-rule="evenodd" stroke="none"/>
    <path d="M-143.75 -32.0 L-152.95 -33.0 Q-154.5 -33.0 -155.05 -33.7 -155.75 -34.55 -155.75 -37.0 -155.75 -44.1 -148.9 -46.45 -142.75 -48.5 -133.85 -46.1 -125.0 -43.7 -118.85 -38.3 -112.0 -32.3 -112.0 -25.25 -105.7 -20.6 -102.2 -21.8 L-98.8 -23.3 Q-96.35 -24.25 -93.5 -24.25 -88.45 -24.25 -83.45 -21.15 -77.35 -17.4 -74.5 -16.75 L-53.25 -11.55 Q-50.5 -10.75 -50.5 -9.75 -50.5 -6.5 -52.5 -5.25 -55.3 -3.5 -63.5 -3.5 -80.05 -3.5 -87.2 -7.1 -88.35 -7.7 -91.05 -9.6 -92.65 -10.75 -94.1 -10.75 -98.4 -10.75 -113.0 -5.25 -127.6 0.25 -136.0 0.25 -149.6 0.25 -151.3 -5.6 -152.1 -8.55 -150.25 -11.75 -150.25 -12.85 -151.85 -15.15 -153.5 -17.4 -153.5 -18.1 -153.5 -20.65 -149.95 -26.1 -146.25 -31.9 -143.75 -32.0" fill="#9fd26c" fill-opacity="0.3019608" fill-rule="evenodd" stroke="none"/>
    <path d="M59.5 -71.75 L66.3 -70.75 73.1 -69.75 94.15 -71.25 112.75 -73.55 Q121.85 -74.45 125.95 -73.45 131.0 -72.2 131.0 -67.75 131.0 -62.9 129.05 -62.55 L118.0 -62.75 105.35 -61.8 94.1 -59.75 Q75.2 -56.75 32.25 -56.75 L18.05 -57.35 Q10.15 -57.95 7.95 -53.05 5.7 -48.2 -13.5 -48.0 -54.25 -31.55 -53.05 -40.0 -51.85 -48.45 -54.85 -50.45 L-53.5 -51.0 -65.6 -50.2 -64.0 -48.7 Q-60.85 -45.35 -88.05 -42.35 -96.35 -31.25 -107.5 -31.25 -116.55 -31.25 -116.95 -35.45 -117.2 -37.75 -115.5 -42.25 L-115.25 -43.0 -121.95 -40.35 Q-126.85 -38.5 -128.0 -38.5 -130.85 -38.5 -132.45 -40.95 -133.5 -42.65 -133.5 -44.0 -145.8 -44.55 -149.25 -46.6 -150.75 -47.5 -150.75 -50.0 -150.75 -51.25 -149.6 -54.3 -148.5 -57.35 -148.5 -58.6 -148.5 -59.85 -149.6 -60.85 -150.75 -61.85 -150.75 -63.1 -150.75 -65.15 -150.25 -65.8 -149.35 -67.05 -146.05 -67.75 L-110.0 -69.25 Q-93.8 -69.25 -91.8 -67.5 -91.35 -67.1 -91.7 -66.3 -91.9 -65.75 -91.0 -65.75 -78.55 -65.75 -67.75 -69.25 -56.9 -72.75 -47.5 -72.75 -21.6 -75.8 0.8 -74.55 23.2 -73.3 25.05 -71.25 26.85 -69.25 42.55 -70.5 L59.5 -71.75" fill="#9fd26c" fill-opacity="0.3019608" fill-rule="evenodd" stroke="none"/>
    <path d="M101.75 -26.05 L101.95 -27.0 Q100.85 -27.35 100.85 -27.9 100.85 -31.25 111.0 -32.05 122.4 -32.95 124.35 -35.1 L128.55 -38.5 Q128.75 -39.55 129.9 -40.1 L132.25 -40.75 133.05 -41.25 Q136.1 -42.95 138.0 -43.25 142.15 -48.8 153.8 -44.2 158.65 -42.3 162.55 -39.4 166.35 -36.6 166.35 -35.1 166.35 -32.05 164.05 -31.15 L152.5 -30.6 153.3 -29.8 153.6 -28.5 153.15 -27.35 152.1 -25.85 151.1 -25.1 142.7 -24.85 142.6 -24.85 Q135.0 -22.35 121.25 -22.35 119.6 -22.35 118.85 -23.3 118.2 -24.1 116.4 -24.6 L113.85 -24.6 Q113.8 -24.05 113.4 -23.75 L108.0 -23.25 Q103.9 -23.25 102.65 -24.0 101.75 -24.5 101.75 -26.05" fill="#9fd26c" fill-opacity="0.3019608" fill-rule="evenodd" stroke="none"/>
    <path d="M132.25 -35.35 Q131.25 -35.15 129.8 -34.45 L127.85 -33.35 129.75 -33.25 Q130.8 -33.9 132.25 -35.35 M105.9 -23.75 Q103.75 -24.75 103.75 -26.9 103.75 -27.25 107.4 -28.0 113.9 -30.2 126.0 -37.0 131.3 -42.4 134.5 -40.3 136.8 -38.85 137.1 -35.25 L147.4 -34.95 Q148.05 -34.25 147.0 -32.35 148.15 -32.0 149.9 -32.95 152.05 -34.1 154.0 -34.1 156.15 -34.1 157.0 -33.5 157.6 -33.0 157.6 -32.0 157.6 -28.75 141.45 -25.4 126.8 -22.35 117.0 -22.35 108.85 -22.35 105.9 -23.75" fill="#9fd26c" fill-opacity="0.3019608" fill-rule="evenodd" stroke="none"/>
    <path d="M108.25 -27.4 Q108.25 -27.8 112.8 -29.65 119.65 -32.45 131.85 -35.75 131.9 -38.4 133.85 -40.7 135.7 -42.95 138.4 -43.8 145.05 -45.9 148.1 -38.85 153.65 -39.45 155.4 -37.65 156.1 -36.95 156.1 -35.4 L156.25 -34.5 Q156.25 -33.65 155.25 -32.95 152.15 -30.85 140.5 -30.85 139.1 -30.85 138.35 -32.0 L137.85 -33.25 136.85 -32.1 Q137.45 -31.05 137.35 -28.35 L137.25 -26.5 Q135.75 -22.5 126.0 -23.4 L115.5 -25.1 109.5 -25.5 Q108.25 -25.85 108.25 -27.4" fill="#9fd26c" fill-opacity="0.3019608" fill-rule="evenodd" stroke="none"/>
    <path d="M99.1 22.4 Q98.95 23.6 96.0 24.25 88.5 26.0 54.0 26.0 47.95 26.0 46.0 24.0 45.0 23.05 45.0 21.0 45.0 19.8 45.65 19.45 L48.3 19.05 Q54.9 18.3 63.0 15.0 64.0 14.6 64.35 12.75 L65.15 9.55 Q67.05 5.75 77.0 8.5 86.2 11.3 89.85 12.85 98.75 16.6 98.75 20.1 98.75 20.9 99.1 22.4" fill="#9fd26c" fill-opacity="0.3019608" fill-rule="evenodd" stroke="none"/>
    <path d="M99.0 16.75 Q99.0 19.4 84.05 24.25 67.85 29.5 55.0 29.5 49.3 29.5 47.3 28.5 45.5 27.55 45.5 25.1 45.5 24.15 53.85 21.75 62.1 19.35 72.25 17.35 99.0 12.1 99.0 16.75" fill="#9fd26c" fill-opacity="0.3019608" fill-rule="evenodd" stroke="none"/>
    <path d="M76.25 -71.1 L75.45 -71.4 73.35 -71.4 73.7 -70.6 74.2 -69.85 74.05 -69.4 Q74.35 -69.15 73.6 -69.15 73.1 -69.15 72.4 -70.25 L71.8 -71.45 Q71.8 -72.3 71.95 -72.4 L75.6 -72.75 78.2 -71.9 81.4 -71.1 82.9 -71.1 82.75 -72.45 82.6 -73.65 Q82.6 -76.35 83.85 -74.8 L87.3 -69.5 89.35 -71.85 Q90.95 -73.25 92.25 -71.5 92.45 -71.0 91.35 -71.0 90.8 -71.0 90.5 -71.3 L90.0 -71.75 88.55 -70.3 Q87.85 -69.55 87.3 -69.5 L87.7 -68.85 87.7 -68.7 Q88.0 -68.4 87.25 -68.4 86.25 -68.4 85.15 -70.7 L83.95 -73.5 84.15 -70.3 Q84.15 -69.8 83.5 -69.7 L82.3 -69.7 79.9 -70.1 78.55 -70.65 76.25 -71.1 M72.55 -68.55 Q72.85 -68.1 72.1 -68.1 71.75 -68.1 71.25 -68.4 L70.35 -68.7 Q70.0 -68.7 69.65 -68.3 69.3 -67.95 68.9 -67.95 L67.0 -68.15 Q66.45 -68.3 65.8 -68.75 41.0 -68.5 31.2 -67.9 L22.4 -67.35 20.85 -67.5 19.6 -67.8 19.45 -68.1 Q25.15 -68.5 26.5 -69.5 L37.9 -70.15 46.6 -69.95 65.1 -69.6 65.1 -70.0 68.2 -69.6 68.3 -69.7 68.4 -69.55 69.0 -69.45 72.45 -68.7 72.55 -68.55 M21.6 -75.8 L21.1 -70.65 Q20.5 -70.65 19.85 -70.25 L20.45 -72.9 Q20.15 -72.7 19.65 -71.3 L19.05 -70.15 19.65 -70.15 19.5 -70.1 18.25 -69.25 17.35 -69.25 17.35 -69.0 17.2 -68.8 16.8 -69.3 16.4 -69.3 13.05 -69.25 13.05 -69.7 13.0 -70.15 16.45 -70.2 16.45 -70.85 16.55 -71.95 16.7 -71.95 17.25 -70.15 17.95 -70.15 17.95 -70.35 18.2 -74.9 18.45 -75.05 18.7 -72.05 18.7 -71.9 19.75 -74.75 Q20.3 -76.4 21.2 -77.05 21.6 -76.65 21.6 -75.8 M15.7 -70.75 Q16.05 -70.5 15.45 -70.5 12.75 -70.5 11.8 -73.0 12.5 -73.25 13.4 -72.55 L15.7 -70.95 15.7 -70.75 M19.75 -68.85 Q19.6 -68.45 19.6 -69.2 19.6 -69.95 20.4 -70.15 21.95 -70.45 22.3 -70.65 L22.65 -70.5 22.8 -69.95 22.65 -68.7 22.45 -68.5 21.8 -68.9 21.0 -69.25 21.0 -68.85 Q20.95 -68.65 20.5 -68.65 L20.0 -68.7 19.75 -68.85 M11.35 -70.5 Q9.4 -70.5 9.2 -70.8 L9.1 -71.65 7.2 -71.55 7.15 -70.5 Q7.15 -70.2 8.95 -69.0 L8.95 -68.7 8.9 -68.25 8.55 -68.25 8.2 -68.35 4.75 -68.25 Q0.25 -68.25 -1.9 -69.05 L-2.15 -69.15 -5.2 -69.1 -4.55 -69.4 -2.8 -69.35 -5.3 -69.9 Q-7.95 -69.9 -9.4 -69.15 -10.6 -68.55 -14.45 -68.4 L-23.0 -67.95 -25.95 -68.35 -26.85 -68.45 -42.45 -68.95 -41.8 -68.75 -45.3 -68.75 -43.7 -68.95 -52.35 -69.0 -54.45 -68.25 -54.45 -69.55 Q-46.55 -70.4 -32.85 -69.85 L-25.95 -69.5 -17.65 -68.85 Q-11.25 -71.05 -4.9 -70.3 L7.45 -68.65 6.55 -69.25 Q6.4 -69.45 6.4 -70.5 6.4 -72.1 7.55 -72.4 9.05 -72.8 12.15 -70.5 L11.35 -70.5 M25.25 -27.4 L25.65 -27.35 26.3 -27.65 29.2 -28.35 Q29.2 -28.2 29.65 -27.75 29.3 -27.05 27.7 -26.35 L27.25 -26.15 26.3 -24.2 25.05 -24.3 25.1 -24.45 25.4 -25.25 23.3 -24.3 22.9 -24.1 Q21.15 -23.85 19.75 -23.1 18.4 -23.2 17.95 -25.3 17.65 -26.75 17.8 -28.15 L17.85 -28.2 10.35 -28.15 7.6 -28.35 7.6 -28.9 -1.0 -28.4 Q-5.35 -27.95 -7.55 -26.7 L-7.55 -25.95 -6.75 -25.85 -5.9 -25.65 -7.95 -25.4 -7.7 -25.05 -7.95 -24.75 -7.5 -24.5 Q-5.25 -23.1 -5.25 -22.55 -5.25 -21.65 -6.75 -20.85 -7.95 -20.25 -9.45 -20.1 L-9.65 -19.1 Q-9.65 -17.9 -8.45 -16.5 -8.75 -15.4 -10.3 -13.85 L-12.75 -11.65 -13.5 -12.55 -13.55 -13.55 Q-13.55 -14.65 -11.75 -15.2 -10.15 -15.7 -10.55 -18.0 -10.55 -19.0 -10.05 -20.05 L-10.45 -20.05 -10.55 -20.05 -10.55 -19.9 -10.75 -18.6 Q-11.1 -17.65 -11.9 -17.65 -15.25 -17.65 -16.95 -18.5 L-18.25 -19.35 -18.2 -19.05 Q-18.2 -18.75 -20.75 -16.15 -22.9 -17.15 -25.95 -18.15 L-26.05 -18.2 Q-31.85 -20.15 -41.65 -20.25 L-41.6 -19.9 -41.6 -18.15 -41.7 -17.9 Q-41.85 -17.7 -42.3 -17.7 -47.0 -19.35 -48.8 -20.85 L-48.8 -21.45 -46.65 -21.0 Q-44.8 -20.5 -43.55 -19.8 L-44.0 -21.15 -43.9 -21.25 -43.4 -21.4 -42.85 -21.3 -42.7 -21.35 -35.3 -21.6 -27.65 -20.25 -25.95 -19.9 Q-22.4 -19.2 -21.35 -18.6 L-20.8 -19.25 Q-20.2 -19.75 -19.2 -19.75 L-19.05 -19.7 -19.25 -19.8 -19.25 -20.2 -18.3 -20.35 Q-17.55 -20.35 -16.1 -19.45 -14.65 -18.6 -13.85 -18.6 L-12.0 -18.7 -12.05 -19.9 -12.05 -20.2 -12.1 -20.25 -12.2 -20.75 Q-12.2 -21.55 -8.65 -21.9 L-7.1 -22.15 -7.1 -22.2 -9.1 -23.15 Q-9.8 -23.35 -9.8 -23.95 L-9.5 -24.9 -9.9 -25.2 -11.9 -26.65 -11.9 -26.75 -15.95 -26.1 Q-16.55 -26.55 -16.55 -27.75 L-16.5 -29.3 Q-15.6 -28.55 -15.5 -27.4 L-15.5 -27.25 -12.2 -27.15 -11.9 -26.9 -11.9 -27.3 Q-9.5 -27.8 -8.8 -26.7 L-8.6 -26.35 -8.6 -26.55 Q-8.6 -28.45 -1.75 -29.7 L9.75 -29.3 15.15 -29.55 19.3 -29.55 19.8 -29.4 19.9 -29.3 19.95 -28.75 19.5 -27.7 19.0 -26.55 Q19.0 -25.9 19.75 -24.9 L21.65 -26.15 Q23.75 -27.4 25.25 -27.4 M32.85 -27.55 L33.0 -27.1 32.8 -26.85 Q33.75 -25.55 33.6 -24.6 34.35 -24.6 35.5 -26.1 36.65 -27.55 37.35 -27.55 L37.95 -27.4 38.1 -27.45 38.25 -27.25 38.5 -27.3 Q37.2 -28.45 37.2 -28.85 37.2 -29.7 38.35 -30.2 L45.1 -30.45 45.15 -29.6 Q48.2 -30.6 48.5 -30.1 48.8 -29.65 48.1 -27.75 48.1 -27.2 48.6 -27.05 L53.3 -25.95 54.4 -26.05 Q56.65 -25.95 56.65 -24.05 56.65 -23.2 56.35 -22.8 55.9 -22.25 54.55 -21.85 L54.55 -21.65 Q54.7 -21.45 55.15 -21.45 61.1 -21.45 63.6 -22.8 64.9 -23.5 66.0 -24.55 L67.8 -24.55 67.95 -24.5 68.05 -24.0 68.0 -23.45 68.65 -23.55 Q69.55 -23.55 69.55 -21.55 L69.4 -18.45 69.4 -18.3 Q71.25 -20.1 70.95 -21.35 70.15 -22.75 70.15 -23.95 L70.2 -24.25 70.3 -24.25 70.3 -24.3 70.35 -24.75 70.45 -24.8 70.95 -24.9 72.55 -24.7 72.4 -24.4 Q72.25 -24.15 72.25 -23.7 72.25 -23.4 72.6 -23.05 73.1 -22.6 73.85 -22.6 L75.25 -22.75 76.85 -24.8 76.85 -24.9 Q76.4 -27.65 76.45 -28.65 L76.9 -28.65 77.35 -25.3 78.8 -26.55 78.1 -27.3 76.9 -28.8 Q76.9 -29.5 77.5 -29.55 L79.2 -27.75 79.3 -27.8 79.35 -28.35 Q79.35 -29.4 78.65 -31.0 L78.0 -32.15 77.35 -31.95 Q76.65 -32.2 76.5 -32.4 76.7 -32.65 77.05 -32.9 L76.4 -33.0 77.15 -33.0 80.2 -34.75 79.9 -35.1 77.35 -35.25 Q77.0 -34.9 76.45 -34.9 L75.45 -35.05 75.45 -35.3 74.5 -35.35 Q74.35 -35.55 74.35 -35.8 L75.45 -35.9 75.4 -36.8 Q75.4 -37.35 76.45 -39.9 77.45 -42.4 77.8 -42.7 79.6 -44.5 81.3 -44.35 85.1 -44.05 86.8 -44.25 L86.95 -43.45 Q86.95 -42.95 86.65 -42.8 L85.8 -42.75 84.1 -43.1 82.35 -43.45 Q79.8 -43.45 78.15 -40.8 76.9 -38.75 76.9 -37.0 L77.15 -36.05 Q79.85 -36.15 81.2 -35.55 L82.6 -34.2 Q81.9 -33.0 79.8 -32.5 L78.8 -32.3 79.5 -31.2 80.2 -27.85 80.2 -26.55 Q80.5 -26.1 79.75 -26.1 L79.05 -26.35 79.05 -26.2 75.45 -19.0 Q71.8 -11.3 71.8 -8.5 71.8 -7.55 71.0 -7.65 L69.0 -8.05 68.85 -8.0 Q68.75 -7.1 68.5 -6.85 L68.35 -7.8 67.7 -7.2 Q66.95 -6.4 66.15 -6.4 L65.8 -6.4 64.6 -3.55 64.5 -0.6 Q64.5 1.8 66.25 2.8 67.35 3.45 70.15 3.8 72.95 4.2 74.0 4.75 75.75 5.75 75.75 8.1 L75.75 8.3 Q76.8 8.9 78.0 11.0 80.9 13.75 88.6 13.75 89.25 13.75 90.55 13.15 91.2 12.85 91.7 12.7 L92.85 11.25 Q94.7 9.15 95.05 9.35 95.2 10.15 94.1 11.3 L92.75 12.8 93.1 13.1 Q95.7 11.65 97.25 11.65 L98.0 11.85 Q98.0 12.8 97.0 13.25 L95.15 14.0 Q96.4 14.15 96.65 14.4 L96.75 14.9 96.25 15.8 95.7 16.45 97.65 16.65 95.0 17.0 97.3 19.05 Q98.15 19.95 98.15 20.75 L98.0 21.3 95.4 21.5 95.4 26.25 95.75 26.4 96.0 26.95 95.9 27.4 95.75 27.5 94.25 27.5 93.15 26.2 92.8 25.7 92.0 26.75 91.3 27.85 91.95 31.4 92.55 35.7 89.75 41.65 Q86.65 47.5 85.25 47.5 84.4 47.5 83.95 47.1 L83.65 46.65 Q86.75 43.7 88.95 40.15 91.5 36.0 91.5 33.0 L91.25 31.85 91.0 30.75 90.75 29.85 90.5 28.95 Q90.5 25.6 92.2 25.25 L91.75 25.15 Q90.95 25.85 90.75 25.85 L90.2 25.65 90.05 25.25 Q90.05 24.55 90.3 23.95 90.6 23.1 91.25 23.1 92.05 23.1 94.5 26.35 L94.5 26.25 94.3 23.15 Q94.2 21.3 97.25 20.5 L97.25 20.35 Q97.15 19.8 95.7 18.55 L93.55 16.75 93.8 16.4 95.05 16.4 95.0 16.25 Q95.0 15.45 94.3 14.7 L93.5 14.1 91.75 14.75 91.3 14.7 91.25 14.6 91.2 14.35 85.25 14.8 Q83.25 14.8 78.35 13.35 L76.55 12.8 75.05 10.95 74.1 9.35 71.4 8.5 Q71.0 8.35 70.85 7.8 71.4 7.15 73.35 6.65 74.5 6.35 73.35 5.8 L65.05 4.2 Q63.35 3.75 63.35 2.5 63.35 -0.6 63.7 -2.6 L64.8 -7.15 64.75 -7.2 64.85 -7.4 65.25 -8.85 66.5 -8.9 67.0 -9.2 Q69.15 -10.4 70.75 -9.9 72.2 -15.65 73.25 -18.65 L74.55 -21.55 73.75 -21.45 Q72.75 -21.45 71.95 -22.05 L71.95 -21.05 Q71.95 -20.05 71.25 -18.4 70.3 -16.2 68.95 -16.2 L67.95 -16.35 67.8 -21.85 67.35 -21.85 66.7 -21.6 Q66.55 -21.2 66.55 -21.95 66.55 -22.4 67.05 -22.9 L67.15 -22.95 67.0 -23.25 63.75 -21.55 Q60.9 -20.1 56.95 -20.1 L54.5 -20.4 51.6 -20.7 51.55 -21.6 Q51.55 -22.35 52.25 -22.75 L54.4 -24.0 54.45 -24.25 Q53.5 -24.15 52.9 -23.55 L52.45 -23.85 Q52.15 -24.15 52.15 -24.6 L52.25 -25.05 51.85 -25.05 48.25 -24.9 Q47.35 -24.9 47.15 -26.4 L47.1 -28.3 43.5 -28.4 43.3 -28.95 44.35 -29.3 44.25 -29.4 44.25 -29.55 40.9 -29.55 38.35 -28.8 Q39.75 -27.95 39.75 -27.45 39.75 -27.0 39.4 -26.55 38.95 -25.95 38.05 -25.95 L37.65 -26.05 37.55 -26.2 Q34.2 -22.8 33.3 -22.8 32.15 -22.8 31.4 -24.45 L31.15 -25.1 29.3 -23.1 29.1 -23.25 Q29.15 -26.15 30.35 -27.15 31.0 -28.75 32.1 -27.65 L32.85 -27.55 M10.0 -9.1 L10.55 -8.5 11.25 -8.1 13.35 -8.1 13.75 -8.8 12.05 -9.15 Q10.7 -9.45 10.15 -9.85 12.25 -10.2 13.45 -9.8 14.5 -9.45 14.5 -8.75 14.5 -7.35 12.35 -7.35 11.25 -7.35 10.5 -7.7 L9.7 -8.25 Q9.7 -8.85 10.0 -9.1 M59.4 -7.15 Q60.7 -9.45 61.35 -9.85 L61.9 -9.4 62.05 -8.7 Q62.05 -8.25 60.45 -5.95 58.85 -3.65 58.2 -3.25 58.05 -2.85 58.05 -3.6 58.05 -4.7 59.4 -7.15 M143.65 -75.1 L142.7 -74.0 142.6 -73.9 142.4 -73.75 141.25 -72.55 146.8 -72.35 147.45 -71.2 147.1 -70.8 Q146.55 -70.05 146.5 -68.8 L144.85 -68.8 145.15 -67.6 Q145.1 -66.65 143.6 -66.35 L143.05 -66.0 141.75 -65.0 141.7 -64.95 Q143.05 -63.85 143.4 -63.0 L140.9 -63.7 142.05 -62.8 Q145.45 -59.85 145.45 -57.85 L145.35 -56.85 145.6 -56.65 145.2 -56.15 144.9 -54.9 144.7 -54.75 144.55 -55.95 144.4 -55.95 Q143.9 -55.95 143.55 -56.3 L142.6 -57.0 Q143.25 -56.0 143.25 -55.2 L142.65 -54.9 142.3 -55.2 142.3 -55.15 142.2 -54.1 141.55 -53.1 140.7 -53.2 140.9 -52.2 140.9 -52.15 Q143.0 -50.75 144.65 -49.2 146.5 -47.45 146.5 -46.8 L146.5 -46.5 146.75 -46.5 147.15 -45.25 Q151.05 -46.4 155.5 -43.55 159.25 -41.15 159.3 -39.85 L161.5 -39.75 164.15 -41.35 Q166.9 -42.55 167.75 -40.5 L164.9 -38.4 163.1 -37.05 163.25 -36.7 166.0 -35.75 Q169.5 -34.4 169.5 -34.0 L169.4 -33.5 169.3 -33.4 167.5 -33.4 165.45 -34.1 163.4 -34.5 163.5 -34.25 Q164.05 -33.15 164.05 -32.5 164.05 -32.2 162.7 -32.1 L162.5 -32.05 162.35 -31.6 161.45 -29.75 161.7 -28.45 Q161.8 -27.25 160.3 -27.25 159.55 -25.15 159.35 -23.25 L159.25 -19.25 159.65 -14.55 160.0 -10.0 Q159.2 -6.45 158.0 -2.95 155.65 4.0 153.75 4.0 153.35 4.0 153.25 3.8 L153.15 3.4 Q154.45 2.15 156.7 -2.75 159.0 -7.85 159.0 -9.9 L158.65 -14.5 158.25 -19.3 Q158.25 -24.4 158.5 -25.25 L159.35 -27.5 Q158.75 -27.9 158.3 -28.85 L157.0 -31.05 156.65 -30.15 156.2 -29.6 156.25 -28.9 Q155.05 -25.75 153.75 -25.75 152.8 -25.75 151.55 -26.75 L150.5 -27.75 150.0 -27.75 Q149.75 -27.85 149.75 -28.5 149.75 -29.1 149.9 -28.8 L150.5 -29.0 151.75 -27.85 Q152.75 -26.75 154.05 -26.75 154.45 -26.75 154.4 -26.9 L154.4 -27.05 Q154.55 -28.65 155.05 -29.55 L155.0 -29.55 155.25 -31.4 Q155.5 -32.75 156.5 -32.75 157.8 -32.75 158.85 -31.25 159.75 -30.0 159.75 -29.25 L160.0 -29.25 160.05 -29.35 159.55 -31.2 Q159.6 -32.0 161.25 -32.4 L161.75 -33.8 161.5 -34.0 161.05 -34.15 Q161.4 -34.4 161.4 -35.0 L161.55 -34.9 161.55 -35.0 161.8 -35.7 162.05 -36.4 162.0 -36.65 161.8 -36.75 161.55 -36.9 161.75 -36.9 161.7 -37.0 160.95 -37.4 Q159.6 -37.9 158.5 -38.95 156.15 -39.3 156.15 -40.25 L156.25 -40.7 154.0 -42.5 Q153.1 -43.25 150.25 -43.55 147.95 -43.8 146.15 -45.95 L146.0 -45.8 145.55 -46.15 Q145.35 -47.35 142.2 -49.55 141.55 -50.0 141.05 -50.4 L141.0 -50.0 140.8 -47.65 140.05 -47.55 Q139.45 -47.55 137.15 -50.75 L135.45 -52.95 135.25 -52.2 135.15 -49.2 133.35 -49.45 133.45 -50.55 132.7 -49.4 Q131.1 -49.25 130.0 -48.45 129.45 -48.6 129.25 -49.05 L128.95 -49.8 128.95 -52.15 126.6 -49.8 Q124.15 -47.8 122.95 -47.8 121.95 -47.8 121.75 -48.65 L121.75 -49.6 121.85 -50.15 Q121.4 -50.3 120.9 -50.7 L120.25 -48.85 Q119.25 -47.05 118.95 -46.05 L118.65 -46.05 119.25 -49.55 119.8 -51.65 118.45 -52.8 Q118.15 -52.5 117.4 -52.5 L117.05 -52.6 117.1 -52.05 Q117.1 -51.5 115.95 -49.65 L114.55 -47.25 114.25 -47.25 Q114.1 -47.9 114.1 -48.7 114.1 -51.4 116.2 -53.1 L115.45 -53.65 114.4 -53.6 114.4 -53.25 Q114.4 -52.6 111.3 -46.6 L111.1 -46.6 110.95 -46.85 Q110.8 -47.05 110.8 -47.5 L111.7 -50.3 Q112.55 -52.55 113.45 -53.45 L111.55 -52.7 110.25 -48.85 109.15 -45.45 109.15 -44.95 108.65 -43.8 108.45 -42.9 108.3 -42.55 108.2 -42.95 107.45 -41.65 107.8 -41.5 Q106.75 -39.05 104.2 -35.9 L103.4 -34.9 103.45 -34.5 Q103.45 -33.85 101.75 -33.05 L101.75 -33.0 99.65 -32.4 Q98.3 -31.8 97.1 -30.75 L97.0 -31.75 Q97.0 -32.2 98.6 -32.95 100.35 -33.75 100.6 -34.15 100.05 -34.4 100.05 -34.6 L103.0 -34.9 104.0 -35.85 103.8 -35.85 105.5 -41.25 106.3 -42.9 105.8 -42.85 Q104.8 -42.85 104.2 -44.25 103.8 -45.2 103.8 -45.85 L103.85 -46.35 102.25 -45.55 Q100.05 -44.55 99.55 -44.55 98.4 -44.55 98.1 -46.0 L98.05 -47.55 96.9 -47.25 Q96.75 -46.9 96.75 -47.65 L96.85 -47.95 95.0 -48.65 Q92.6 -49.5 88.45 -49.5 86.15 -49.5 85.05 -48.4 84.4 -47.75 84.4 -47.1 84.4 -46.75 85.15 -46.3 86.15 -45.65 86.65 -45.0 86.3 -44.25 85.5 -44.25 83.6 -44.25 83.15 -46.05 L83.05 -47.95 Q83.05 -50.65 86.9 -51.0 91.1 -51.45 97.45 -48.4 L97.9 -48.55 99.45 -48.75 99.55 -46.35 99.4 -46.15 Q99.4 -46.0 99.85 -46.0 L101.85 -46.6 104.2 -47.25 104.3 -47.2 104.5 -47.4 Q105.15 -46.9 105.1 -45.8 105.0 -44.7 105.85 -44.25 L106.4 -44.6 106.35 -45.0 Q106.35 -45.6 107.25 -47.85 108.35 -50.55 109.75 -52.4 113.45 -57.35 117.35 -53.95 118.95 -54.45 120.35 -53.05 L122.3 -51.05 122.85 -51.7 Q123.5 -51.35 123.45 -50.75 L123.25 -49.8 123.25 -49.5 126.05 -51.85 Q127.8 -53.5 128.95 -53.8 L129.6 -53.2 129.45 -52.9 129.55 -52.9 Q130.3 -52.9 130.35 -51.7 L130.2 -50.1 130.35 -49.95 Q130.45 -49.8 130.9 -49.8 131.75 -49.8 132.3 -50.5 L132.3 -51.75 132.55 -51.75 132.65 -51.1 133.2 -52.85 Q133.4 -54.0 133.8 -54.55 L133.75 -54.6 133.85 -54.65 Q134.4 -55.35 135.25 -55.05 L135.15 -54.9 Q136.4 -54.85 137.35 -53.45 L139.6 -50.25 139.75 -51.55 Q139.15 -52.2 139.15 -52.65 L139.15 -52.85 138.85 -53.4 138.85 -53.95 139.0 -54.1 138.95 -54.2 138.25 -55.2 138.25 -55.35 138.85 -55.5 Q139.3 -55.5 140.05 -54.8 L141.1 -53.85 141.8 -54.65 Q142.15 -55.0 141.95 -55.6 L141.25 -56.65 Q140.35 -58.05 139.45 -58.45 L139.45 -59.1 Q140.35 -59.6 143.0 -58.25 L143.9 -57.75 Q143.3 -59.1 142.3 -60.35 140.1 -63.15 136.35 -65.0 L134.75 -65.7 135.9 -66.25 138.95 -65.0 139.35 -64.75 139.3 -65.0 139.3 -65.1 Q139.3 -65.95 141.2 -66.9 L142.35 -67.35 143.55 -67.95 143.95 -68.25 142.05 -68.8 139.1 -68.8 139.15 -69.1 139.1 -69.75 143.35 -70.05 144.55 -70.4 Q140.45 -70.55 139.3 -71.25 138.85 -71.55 138.95 -71.95 L139.15 -72.3 Q139.15 -72.65 140.35 -73.9 L141.45 -74.8 141.3 -74.95 Q140.6 -74.45 136.05 -72.75 L132.15 -71.35 131.3 -71.4 Q129.75 -71.35 128.9 -70.75 L128.4 -70.95 128.5 -72.15 128.5 -72.3 126.5 -71.3 126.15 -71.05 125.8 -71.0 124.1 -70.45 123.85 -70.5 124.15 -70.8 124.0 -70.8 Q123.6 -70.8 122.95 -71.1 L121.9 -71.55 121.5 -70.2 121.25 -69.45 122.3 -69.35 122.15 -69.65 122.8 -69.65 122.6 -69.5 122.45 -69.35 127.6 -68.95 127.75 -68.55 Q127.5 -68.25 127.0 -68.1 L123.15 -67.9 117.0 -68.15 Q111.65 -68.55 109.7 -69.15 L109.15 -69.1 Q108.3 -69.1 107.75 -70.15 107.35 -71.0 107.35 -71.55 L107.35 -71.8 Q104.35 -69.7 103.75 -69.7 L102.85 -69.9 106.65 -72.8 Q109.2 -74.65 109.95 -74.35 L110.05 -74.15 110.1 -73.6 109.6 -72.4 108.7 -71.1 109.8 -70.25 114.2 -70.1 119.95 -69.55 Q119.95 -72.4 121.15 -72.4 L123.55 -71.8 Q124.05 -71.8 124.3 -72.1 L124.6 -72.55 124.75 -72.45 124.75 -72.0 124.7 -71.2 126.15 -72.15 128.95 -73.8 Q129.45 -73.2 129.45 -71.4 133.8 -73.65 137.75 -75.0 142.1 -76.45 142.85 -75.45 L143.35 -75.55 143.65 -75.1 M95.15 -79.5 L95.15 -79.15 94.7 -75.85 Q94.25 -73.0 94.25 -70.75 L94.15 -70.25 93.5 -69.9 93.0 -70.35 92.9 -71.0 Q92.9 -75.6 95.0 -79.55 L95.15 -79.5 M96.4 -69.2 Q95.5 -69.85 95.5 -70.65 L95.6 -71.25 95.8 -71.4 Q95.9 -71.1 96.5 -70.7 L97.75 -69.85 99.5 -72.35 Q100.9 -74.3 101.65 -74.2 L101.65 -72.15 Q101.7 -70.8 102.55 -69.85 L102.45 -69.45 101.85 -69.25 Q100.6 -69.25 100.55 -70.45 L100.75 -72.45 99.5 -70.5 98.05 -68.4 96.4 -69.2 M90.25 -68.25 L90.9 -67.95 90.45 -67.9 Q90.05 -67.95 89.95 -68.1 90.25 -68.1 90.25 -68.25 M90.65 -55.85 L90.55 -56.45 91.8 -55.45 92.1 -55.15 Q90.85 -55.55 90.65 -55.85 M84.65 -53.75 L84.9 -53.55 84.7 -53.2 Q84.6 -53.2 84.35 -53.35 L84.65 -53.75 M82.2 -50.6 L82.35 -50.8 82.75 -50.65 82.8 -50.4 82.2 -50.6 M109.2 -49.75 L108.3 -46.6 108.3 -46.45 109.25 -49.3 110.0 -51.25 109.2 -49.75 M103.9 -25.65 L104.25 -26.4 107.0 -26.5 110.4 -26.1 115.55 -25.75 118.4 -25.75 117.75 -25.3 Q116.85 -24.65 113.5 -24.65 L108.35 -24.85 Q104.7 -25.15 103.9 -25.65 M104.9 -28.0 Q104.9 -27.25 104.1 -26.45 103.2 -25.65 102.25 -25.65 101.5 -25.65 101.05 -26.25 L103.25 -28.05 106.75 -28.9 108.4 -28.8 113.9 -29.7 120.0 -30.3 123.95 -31.2 Q127.8 -32.2 129.05 -33.05 L129.45 -36.85 Q129.7 -39.15 131.8 -38.4 L131.85 -38.1 131.5 -37.9 Q130.8 -37.9 130.65 -36.35 130.45 -34.2 129.6 -32.95 126.2 -28.05 110.6 -28.05 L110.35 -28.05 110.3 -27.9 104.9 -28.0 M94.35 -16.75 L95.8 -16.9 98.2 -16.95 98.25 -16.35 97.95 -15.7 Q97.6 -15.15 97.2 -15.15 96.0 -15.15 95.7 -15.7 L94.35 -16.75 M75.0 49.15 L74.15 48.9 77.2 45.6 Q79.1 43.5 79.75 43.85 79.3 45.2 77.75 47.1 76.05 49.15 75.0 49.15 M74.3 47.05 Q72.9 48.75 72.4 48.75 L71.3 48.5 73.55 46.35 75.8 43.75 76.25 43.85 74.3 47.05 M68.9 48.4 Q69.75 46.3 70.05 46.0 70.65 46.25 70.65 47.2 L70.55 48.05 Q70.3 48.6 69.25 48.75 L68.9 48.4 M71.75 24.5 L72.1 24.55 72.15 24.75 72.0 26.1 72.65 25.6 73.75 25.35 74.5 25.6 74.5 26.0 74.3 26.15 Q73.25 26.25 72.25 27.25 L71.0 28.25 70.55 28.2 70.5 28.1 70.4 27.45 Q70.4 27.1 70.7 26.4 L71.0 25.5 Q70.15 25.6 61.7 23.7 54.2 22.05 50.5 21.8 L50.4 21.85 49.85 22.5 49.25 22.75 Q48.1 22.75 48.0 22.05 L47.0 22.25 Q46.25 22.25 46.25 21.75 47.0 21.35 48.5 21.25 49.45 20.6 52.45 20.3 L51.1 21.25 Q54.35 21.45 59.4 22.5 L70.0 25.0 70.2 24.75 71.75 24.5 M71.05 9.0 L71.55 11.7 Q71.55 12.9 68.75 16.6 65.25 21.25 61.6 21.25 L60.15 21.15 59.9 20.75 58.4 21.1 Q55.2 22.0 54.1 20.2 L55.25 20.1 60.35 19.95 60.5 19.9 Q65.1 19.45 68.3 15.9 71.0 12.95 71.0 10.4 L70.55 9.85 69.75 9.25 Q69.8 9.1 70.25 9.05 L70.75 9.0 71.05 9.0 M93.25 79.65 L93.05 79.25 Q95.0 77.95 96.15 78.25 L93.55 79.9 93.25 79.65 M117.05 60.9 Q114.0 66.15 111.65 68.85 107.45 73.65 98.25 76.9 L98.0 76.6 Q106.4 73.5 110.85 68.1 L113.85 64.05 Q115.45 61.95 117.05 60.9 M116.9 57.75 L115.8 57.5 118.4 55.8 Q120.15 54.55 120.8 54.5 118.3 57.75 116.9 57.75 M114.5 56.5 L114.1 56.45 114.3 56.25 115.65 54.95 Q116.45 54.1 117.3 54.5 L116.05 55.65 Q115.05 56.5 114.5 56.5 M113.65 55.5 L113.75 55.65 113.25 56.0 111.15 54.15 Q109.5 52.75 108.0 52.75 105.95 54.75 105.25 54.75 L104.75 54.7 104.5 54.6 104.4 53.9 Q104.4 50.1 108.9 52.2 112.45 53.8 113.5 55.25 L113.5 54.9 Q113.7 54.5 114.15 54.35 L115.0 54.25 115.15 54.3 115.25 54.65 115.15 55.15 115.0 55.35 114.0 55.5 113.65 55.5 M83.5 46.55 Q83.5 47.15 82.05 48.45 80.35 50.0 78.5 50.0 L78.05 49.9 78.05 49.75 77.9 49.5 77.8 48.9 Q77.8 48.55 79.95 47.4 L83.0 45.65 Q83.5 45.8 83.5 46.55 M84.3 24.75 Q82.6 24.75 81.35 25.65 80.1 26.5 79.5 26.5 L78.45 26.3 Q78.05 29.65 77.25 29.65 L76.75 29.55 76.55 29.4 76.5 27.5 75.65 27.4 Q75.25 27.3 75.25 26.9 L75.5 25.75 Q75.8 24.75 76.25 24.75 76.6 24.75 76.85 25.0 L77.4 25.6 Q77.4 24.5 78.5 24.5 L78.5 25.4 78.5 25.7 Q79.5 25.2 82.4 24.25 L86.8 24.75 88.0 25.5 87.75 25.35 Q86.65 24.75 84.3 24.75 M151.75 6.2 Q151.05 7.4 151.05 8.45 151.05 10.4 149.9 15.3 148.8 20.2 148.75 22.75 148.75 28.25 148.3 30.15 147.35 34.3 143.8 36.5 143.45 37.65 142.85 41.45 142.3 44.85 139.0 44.85 L137.9 44.6 Q136.25 48.55 134.0 51.8 128.4 60.0 119.75 60.0 118.4 60.0 117.85 59.2 L117.75 58.85 117.7 58.8 117.5 58.5 117.55 58.35 117.5 58.25 Q117.85 57.9 118.5 57.9 L118.65 57.9 119.6 57.65 121.8 57.15 119.9 58.25 120.8 58.4 Q128.85 58.4 133.7 51.15 134.85 49.4 136.65 45.7 L137.35 44.3 136.8 43.75 137.45 42.95 Q137.8 42.6 138.25 42.6 L138.45 42.65 138.8 42.25 138.65 42.75 138.95 43.0 139.5 43.4 Q140.9 43.4 141.75 39.9 142.45 36.95 143.5 36.25 L143.4 36.15 Q145.8 32.55 146.75 27.75 147.2 25.3 147.65 19.2 148.4 8.35 153.0 3.5 L151.75 6.2 M162.65 -32.7 L162.8 -32.75 162.7 -32.95 162.65 -32.7 M166.4 -35.15 L166.0 -35.3 164.0 -36.0 163.3 -36.2 163.3 -36.15 163.2 -35.7 166.4 -35.15 M137.8 -0.15 Q137.4 -0.15 137.5 -0.3 L138.05 -0.5 138.1 1.85 Q137.8 3.75 135.9 3.75 135.05 3.75 134.8 2.75 L134.75 1.65 Q134.75 1.1 134.9 0.65 135.3 -0.3 136.25 -0.3 136.85 -0.3 137.0 0.0 136.4 0.15 136.0 1.2 L135.55 2.75 Q137.25 2.9 137.65 1.6 L137.8 -0.15 M145.3 -26.35 Q147.3 -27.95 149.9 -27.5 145.65 -27.05 145.0 -25.65 145.0 -24.05 144.15 -23.4 142.75 -23.7 139.3 -24.9 137.15 -25.65 134.95 -26.0 133.95 -25.7 133.65 -24.35 133.2 -22.15 132.5 -22.15 L131.75 -22.25 Q131.65 -23.55 129.3 -24.65 L128.75 -24.85 127.9 -24.65 126.6 -24.55 120.4 -25.75 127.55 -25.3 Q126.75 -25.65 126.65 -25.75 126.85 -26.25 127.5 -26.25 130.7 -26.25 131.9 -25.55 L132.75 -24.5 Q133.4 -26.25 134.75 -27.35 136.15 -28.5 136.25 -26.6 L139.25 -25.65 Q141.9 -24.65 142.8 -24.65 143.15 -24.65 145.3 -26.35 M145.55 -45.75 L145.8 -45.75 143.9 -43.2 Q141.85 -41.05 139.9 -41.0 139.8 -40.8 138.5 -40.65 137.85 -40.95 137.4 -41.7 136.95 -42.4 137.05 -42.75 L137.0 -42.65 136.25 -41.25 Q135.6 -40.5 135.0 -40.5 L132.05 -40.75 132.1 -39.65 Q132.15 -38.95 131.5 -38.55 L130.9 -38.8 130.8 -40.0 Q130.8 -41.7 132.5 -42.15 L137.9 -43.75 Q137.75 -42.95 138.05 -42.6 L138.85 -41.9 139.05 -42.15 Q141.15 -42.1 142.95 -43.55 L145.55 -45.75 M161.75 -38.75 L161.65 -38.75 161.9 -38.55 162.35 -38.15 164.0 -39.5 Q162.2 -38.75 161.75 -38.75 M40.3 24.0 L40.35 25.35 40.15 26.65 Q39.85 27.6 39.25 27.6 36.5 27.6 35.95 27.05 L35.95 26.4 36.05 25.35 Q36.25 24.85 36.85 24.5 L37.65 24.8 36.9 25.25 Q36.55 25.45 36.55 25.7 36.55 26.45 36.7 26.6 L39.1 26.45 39.25 25.5 38.25 24.5 Q38.35 24.25 39.0 24.1 L40.3 24.0 M67.25 52.85 Q67.05 52.25 67.15 52.1 67.9 51.9 68.15 52.6 L68.25 53.9 Q68.25 54.6 67.05 55.9 65.65 57.45 64.55 57.0 L66.65 54.6 Q67.25 54.0 67.25 52.85 M22.05 14.8 L22.05 14.85 21.75 16.55 21.4 18.25 21.45 19.3 21.1 19.55 19.35 19.8 Q15.65 19.8 13.8 18.55 L12.7 17.25 Q12.7 16.6 13.05 16.4 L14.45 16.2 Q15.45 16.2 15.75 17.1 16.1 18.0 20.2 18.0 L22.05 14.8 M-39.35 -65.8 Q-40.7 -66.05 -40.95 -66.5 L-40.95 -66.9 -38.95 -66.75 -39.85 -66.55 -40.7 -66.35 -38.8 -65.95 -37.45 -65.75 Q-37.7 -66.4 -39.2 -67.25 L-39.05 -67.35 -37.45 -66.85 Q-37.15 -66.65 -37.15 -66.3 -37.15 -65.55 -37.3 -65.4 L-39.35 -65.8 M-18.7 -66.35 Q-18.95 -66.15 -19.2 -66.15 L-19.3 -66.3 -18.7 -66.35 M-48.35 -19.5 Q-48.35 -19.05 -48.5 -18.85 L-48.8 -18.6 -49.45 -19.25 Q-49.55 -19.6 -50.1 -19.6 L-54.45 -19.35 -54.45 -20.4 -50.1 -20.7 Q-48.7 -21.0 -48.35 -19.5 M-54.45 -11.85 L-42.35 -10.05 Q-37.95 -9.5 -37.4 -6.65 L-31.5 -4.85 Q-28.4 -3.6 -28.4 -1.75 L-28.5 -0.9 -28.0 -1.05 -25.95 -1.5 -25.25 -1.65 -24.9 -1.55 -24.8 -1.05 Q-24.8 -0.5 -25.25 -0.15 L-25.95 0.3 -27.35 1.2 -27.35 1.5 -25.95 1.35 -25.45 1.25 -24.65 1.2 -24.55 1.1 -24.5 1.55 Q-24.5 2.05 -25.55 2.55 L-26.8 2.55 -26.45 2.8 -27.05 2.85 -27.4 2.55 -28.55 2.55 -28.7 1.75 Q-28.7 1.1 -27.15 -0.25 L-26.85 -0.4 -28.05 -0.05 -29.1 0.2 -29.8 0.2 -30.5 0.5 Q-31.2 0.25 -31.35 -0.1 L-31.0 -0.3 -31.2 -1.05 -31.15 -1.35 -31.55 -1.8 -31.05 -1.55 -30.9 -1.7 -30.65 -2.05 -30.05 -1.15 -29.75 -1.85 Q-29.75 -2.6 -32.6 -4.1 L-30.7 -2.15 -33.75 -4.55 -34.1 -4.85 -37.35 -6.2 -37.35 -5.85 -37.4 -5.45 -37.5 -5.4 -38.45 -5.05 Q-40.2 -7.6 -46.3 -9.1 L-54.45 -10.85 -54.45 -11.85 M-16.7 -29.45 L-21.2 -28.65 -22.05 -28.65 Q-22.25 -28.7 -22.25 -29.2 -22.25 -31.1 -18.95 -30.4 -17.5 -30.05 -16.7 -29.45 M-22.25 -36.15 L-22.05 -35.25 Q-22.05 -34.45 -22.85 -32.7 -23.35 -31.05 -22.1 -30.1 L-22.25 -29.85 -23.15 -29.8 -23.3 -33.3 -24.25 -31.9 Q-25.0 -30.85 -25.05 -30.25 L-25.25 -30.25 -25.4 -31.2 Q-25.4 -31.9 -24.2 -33.85 -22.95 -35.8 -22.25 -36.15 M-14.6 -6.4 L-15.95 -6.1 -16.1 -6.25 Q-15.75 -6.85 -15.25 -9.0 L-14.45 -11.35 -14.0 -11.3 Q-13.85 -11.25 -13.85 -10.8 -13.85 -10.15 -14.15 -8.75 L-14.6 -6.4 M-19.55 -7.65 Q-19.25 -7.4 -19.25 -6.75 L-19.35 -5.95 -19.7 -5.85 -20.15 -6.15 -20.15 -7.65 -19.55 -7.65 M-14.75 4.95 L-14.8 4.85 -20.45 4.95 -20.9 5.4 -19.3 7.2 Q-18.95 7.7 -18.95 8.55 L-19.0 9.65 Q-19.15 10.15 -20.0 10.65 L-21.5 9.45 Q-21.95 9.05 -22.7 9.1 L-22.7 15.15 -23.5 15.35 -24.65 19.1 Q-25.55 22.2 -25.7 24.05 L-25.95 25.25 Q-26.75 27.6 -30.2 29.5 -34.55 31.95 -34.85 34.05 -34.95 34.4 -35.65 34.4 L-35.7 34.45 -35.9 35.95 -35.85 36.45 -35.6 37.35 -35.75 37.55 -35.95 37.65 -36.4 39.7 Q-37.3 42.85 -39.35 43.65 -38.45 38.9 -37.05 37.0 L-37.1 36.3 -37.15 36.15 Q-37.2 36.0 -37.65 36.0 L-39.1 36.95 Q-38.45 37.5 -38.45 38.5 -38.45 39.3 -39.65 41.6 -40.85 44.0 -41.7 44.55 L-41.7 44.9 Q-41.7 45.5 -42.25 46.75 L-43.25 48.45 Q-43.95 47.95 -43.95 46.8 -43.95 46.1 -43.35 45.35 -42.65 44.5 -41.75 44.55 -40.2 39.25 -39.25 37.05 L-40.55 37.8 -41.95 38.55 -42.55 39.7 Q-43.4 41.2 -43.4 42.45 L-43.55 42.6 -43.95 42.75 Q-44.6 42.25 -44.6 41.05 L-44.1 39.4 -45.65 39.6 Q-46.4 39.6 -46.75 39.25 L-47.7 40.5 -48.65 42.3 -48.1 43.45 -47.3 44.75 -51.2 46.2 -53.7 47.15 Q-53.55 47.55 -53.55 48.15 -53.55 48.8 -54.0 49.5 L-54.45 50.0 -54.45 44.9 -54.25 44.75 Q-51.95 43.35 -49.1 43.95 -49.7 43.0 -49.7 42.25 L-49.05 40.3 Q-48.25 38.7 -47.1 38.35 L-47.15 37.95 Q-47.15 36.15 -45.95 36.15 -45.6 36.15 -45.2 36.6 L-44.75 37.05 Q-40.7 37.05 -39.7 33.15 -39.35 31.75 -39.0 31.7 -38.4 31.7 -36.6 33.75 L-36.65 32.7 Q-36.65 30.7 -35.65 29.9 -35.1 29.4 -33.15 28.9 -28.7 27.65 -26.6 23.55 L-26.3 21.9 -28.85 22.5 -29.15 21.8 -27.5 20.8 -26.3 20.3 -26.05 20.7 -25.95 20.2 -25.6 18.55 Q-25.15 16.65 -24.25 15.3 L-25.95 14.7 -27.45 13.85 Q-29.7 12.55 -30.8 12.35 -32.9 17.7 -34.05 17.7 L-35.5 17.1 -36.65 16.5 -36.75 16.5 Q-37.55 19.95 -42.6 19.9 L-46.75 19.6 Q-48.6 19.5 -48.65 20.1 L-48.0 20.3 -48.05 20.7 -49.7 20.85 -48.8 21.4 Q-46.4 23.25 -46.4 25.35 -46.4 25.75 -47.4 26.4 -48.7 27.2 -50.35 27.2 L-52.1 27.15 -51.8 27.85 Q-51.65 28.35 -51.65 30.0 L-51.75 30.8 -53.6 30.9 -54.45 30.65 -54.45 28.85 Q-53.2 29.65 -52.65 29.7 L-52.55 28.65 Q-52.55 27.95 -53.75 26.15 L-53.3 25.8 -52.65 26.4 Q-51.6 25.2 -50.25 25.2 L-47.9 24.8 Q-48.55 24.05 -50.75 23.25 L-54.35 21.95 -53.1 21.0 -53.1 20.85 -54.45 20.75 -54.45 19.55 -50.5 19.85 -50.55 19.2 Q-50.55 18.45 -49.6 18.3 -47.25 17.9 -38.45 18.3 L-38.45 15.95 Q-38.4 14.55 -37.55 14.1 L-37.55 13.8 -37.3 13.6 -36.65 13.4 Q-35.65 13.4 -34.75 14.6 L-33.75 16.2 Q-32.35 14.4 -31.95 10.7 L-31.75 10.7 -31.5 10.45 -30.65 10.4 Q-29.75 10.4 -27.4 12.1 L-25.95 13.15 -24.35 14.25 Q-23.45 13.4 -23.65 11.4 L-24.0 8.15 -24.0 7.65 -24.0 7.25 -23.95 7.2 -23.9 6.95 Q-23.65 6.2 -22.7 6.75 L-22.7 6.85 Q-22.0 6.95 -21.35 7.35 L-20.15 8.45 -20.0 8.45 Q-20.55 7.7 -22.25 6.1 L-24.65 4.2 -24.6 3.6 -22.45 3.7 -15.6 4.0 -14.8 4.85 -14.75 4.85 -14.75 4.95 -14.4 5.4 -14.75 5.3 -14.75 4.95 M-30.65 36.45 L-31.3 39.05 -31.85 41.0 -32.4 41.1 -32.7 38.65 -32.65 37.35 Q-32.45 36.65 -31.7 35.9 -30.95 36.0 -30.65 36.45 M-36.8 48.15 L-37.1 48.15 -37.25 46.4 -36.9 45.15 -36.35 43.95 -35.95 44.05 -35.55 44.4 Q-36.45 44.95 -36.6 46.15 L-36.8 48.15" fill="#5b5546" fill-rule="evenodd" stroke="none"/>
  </g>
</svg>
