<?xml version="1.0" encoding="UTF-8" standalone="no"?>
<svg xmlns:xlink="http://www.w3.org/1999/xlink" height="150.0px" width="237.05px" xmlns="http://www.w3.org/2000/svg">
  <g transform="matrix(1.0, 0.0, 0.0, 1.0, 123.4, 65.5)">
    <path d="M32.0 -21.75 Q47.45 -21.75 54.25 -16.5 57.65 -13.8 58.0 -10.85 58.0 -8.65 55.0 -7.6 49.45 -6.05 44.25 -4.0 L44.7 -3.15 Q45.0 -2.55 45.0 -1.0 45.0 5.05 36.25 9.8 30.45 12.9 6.0 22.0 L34.25 13.0 Q56.4 6.0 62.0 6.0 67.4 6.0 69.25 8.9 70.15 10.4 70.0 12.1 70.0 15.1 65.55 17.4 L50.5 25.25 51.55 25.9 Q52.0 26.3 52.0 27.85 52.0 30.95 46.5 34.3 40.4 38.0 33.0 38.0 26.65 38.0 25.2 34.25 24.75 33.0 24.8 31.5 L25.0 30.0 25.0 29.5 Q20.05 30.5 10.2 47.0 -8.85 60.55 -23.5 59.85 -38.2 59.15 -44.2 53.0 -50.25 46.8 -55.5 45.55 -50.75 41.25 -48.5 39.9 -44.1 37.15 -44.25 36.75 L-52.1 38.95 Q-55.85 40.0 -59.0 40.0 -64.85 40.0 -66.5 36.9 -67.35 35.3 -67.0 33.5 -67.0 31.85 -66.35 30.5 L-65.0 28.25 Q-69.25 27.0 -70.4 24.8 L-69.45 27.2 Q-70.6 24.75 -72.1 27.65 -73.75 30.7 -80.35 26.85 -87.0 23.0 -89.8 19.15 -91.2 17.2 -91.0 15.0 -91.0 13.5 -88.8 9.45 -86.3 4.8 -84.0 4.0 -97.8 5.9 -102.6 1.35 -105.05 -0.95 -104.75 -3.85 -104.75 -6.2 -103.55 -7.75 L-103.45 -7.85 Q-104.6 -8.65 -106.35 -8.1 -109.1 -7.35 -109.15 -8.95 L-109.35 -11.1 -109.65 -15.35 Q-109.85 -19.05 -109.15 -21.7 -108.45 -24.4 -106.95 -25.8 L-104.5 -28.05 Q-102.5 -29.85 -95.75 -30.0 L-96.45 -31.2 Q-96.75 -32.1 -96.75 -33.75 -96.75 -37.0 -90.3 -36.8 -83.65 -36.65 -67.75 -32.75 -56.4 -31.4 -51.8 -29.7 -45.15 -27.35 -45.25 -22.75 -27.2 -21.8 -26.35 -20.2 -26.2 -19.9 -26.9 -18.1 -27.6 -16.45 -26.5 -15.0 L3.95 -18.45 32.0 -21.75" fill="#996600" fill-opacity="0.2" fill-rule="evenodd" stroke="none"/>
    <path d="M-89.0 -4.75 Q-93.0 -4.75 -94.0 -7.65 -94.5 -9.15 -94.25 -10.85 -94.25 -14.3 -92.75 -15.75 -90.4 -17.95 -83.0 -18.75 L-92.6 -25.95 Q-100.25 -31.35 -100.25 -33.25 -100.25 -36.95 -87.8 -36.05 L-68.0 -34.25 Q-62.4 -34.25 -60.55 -32.25 -59.75 -31.4 -59.75 -30.0 -59.75 -29.1 -60.8 -27.7 L-62.5 -25.75 -58.95 -25.9 -55.0 -26.25 Q-50.3 -26.25 -48.55 -23.7 -47.75 -22.5 -47.75 -20.85 -47.75 -19.75 -48.25 -16.75 L-48.75 -13.0 Q-48.75 -11.7 -49.5 -10.4 -50.8 -8.2 -54.0 -7.5 -50.0 -3.0 -40.1 2.6 -36.7 4.55 -35.35 6.15 L-28.7 15.25 Q-30.3 24.7 -21.0 34.8 -11.7 44.85 -21.25 36.5 -28.7 30.0 -37.45 29.55 -37.85 19.85 -46.25 15.8 -54.7 11.75 -60.85 4.25 L-63.25 3.85 -73.1 5.0 -75.3 2.25 Q-77.1 0.05 -76.0 -5.75 L-75.5 -6.5 -82.25 -5.55 -89.0 -4.75 M-60.8 4.25 Q-55.7 8.3 -57.5 6.25 -58.7 4.85 -60.8 4.25" fill="#996600" fill-opacity="0.2" fill-rule="evenodd" stroke="none"/>
    <path d="M29.25 -25.45 Q59.0 -31.4 59.0 -23.25 59.0 -20.25 57.4 -18.7 54.7 -16.05 46.75 -15.0 L43.25 -13.75 Q57.4 -17.85 62.35 -10.75 66.2 -5.3 65.0 8.25 L64.75 8.75 Q73.6 4.6 80.0 20.0 80.0 23.0 78.0 24.35 75.5 26.1 69.0 26.1 L62.1 25.6 59.55 24.5 Q55.4 23.05 36.05 49.9 24.25 50.3 24.0 41.85 16.35 36.2 16.35 26.6 -2.1 22.45 -2.85 21.45 -3.2 21.05 -1.4 19.05 0.6 16.9 0.0 15.0 -0.65 12.75 -2.9 10.6 -4.75 8.75 -11.15 6.3 -17.55 3.85 -7.45 -0.25 2.6 -4.35 21.85 -4.35 3.45 -5.2 -20.1 -8.8 -45.25 -12.7 -45.25 -14.75 -45.25 -19.95 -27.95 -19.25 L-10.35 -17.5 Q-6.45 -17.5 6.0 -20.3 L29.25 -25.45" fill="#996600" fill-opacity="0.2" fill-rule="evenodd" stroke="none"/>
    <path d="M53.1 -58.0 Q57.4 -58.4 59.0 -55.3 59.8 -53.8 59.8 -51.85 59.8 -48.75 56.35 -45.85 53.4 -43.35 46.8 -40.25 68.0 -42.7 75.1 -38.8 78.2 -37.15 78.2 -33.75 78.2 -31.35 75.5 -28.5 72.6 -25.5 69.65 -25.5 L59.05 -27.65 Q47.7 -29.4 36.5 -27.5 L25.15 -26.6 14.1 -26.0 Q-10.65 -26.0 -12.7 -30.1 -13.4 -31.5 -11.65 -33.85 L-9.0 -37.5 -9.0 -37.75 -27.9 -36.2 -44.15 -35.25 Q-62.65 -35.25 -64.75 -38.1 -65.45 -39.1 -64.65 -40.95 -63.6 -43.3 -63.65 -44.0 -93.2 -44.5 -102.8 -47.65 -106.3 -48.85 -107.3 -50.4 -107.8 -51.2 -107.8 -52.85 -107.8 -56.75 -104.7 -57.75 -101.5 -58.75 -89.2 -58.75 L-53.15 -62.0 -40.5 -61.55 -28.7 -60.5 -28.95 -60.25 -27.45 -60.0 -5.05 -61.3 36.7 -63.95 Q59.7 -65.3 53.1 -58.0" fill="#9fd26c" fill-opacity="0.3019608" fill-rule="evenodd" stroke="none"/>
    <path d="M44.3 -57.5 L49.05 -58.5 Q71.25 -45.35 71.25 -45.0 71.25 -41.05 66.3 -39.0 L65.85 -36.75 Q70.9 -34.95 73.6 -32.5 76.15 -30.25 76.15 -28.0 76.15 -26.4 74.15 -24.25 71.75 -21.75 68.75 -21.75 64.6 -21.75 51.4 -27.2 39.5 -32.2 31.35 -36.75 15.95 -33.75 -60.75 -23.75 -68.8 -23.75 -71.1 -26.05 -71.95 -26.9 -71.95 -29.0 -71.95 -35.05 -61.1 -37.0 L-54.2 -37.75 -54.9 -37.9 Q-57.0 -38.7 -61.45 -43.75 -63.0 -45.5 -63.0 -48.0 -81.85 -48.55 -86.8 -50.55 -88.6 -51.3 -88.85 -52.35 -89.0 -52.95 -88.75 -54.0 -86.05 -61.7 -38.95 -60.65 8.15 -59.65 39.5 -56.5 L44.3 -57.5 M-53.4 -37.85 Q-43.75 -39.0 -37.65 -40.25 -43.75 -42.3 -47.45 -41.35 -49.35 -40.9 -51.7 -38.85 L-53.4 -37.85" fill="#9fd26c" fill-opacity="0.3019608" fill-rule="evenodd" stroke="none"/>
    <path d="M68.35 -50.05 Q70.55 -44.5 70.55 -43.1 70.55 -41.3 69.85 -40.15 68.6 -38.15 65.2 -37.0 L62.95 -36.5 Q79.15 -39.5 85.4 -33.6 88.6 -30.65 88.5 -26.85 88.5 -24.5 86.9 -22.75 85.35 -21.0 83.1 -21.0 80.2 -21.0 79.85 -21.45 79.9 -22.05 79.45 -22.35 77.7 -23.75 58.9 -23.75 L35.35 -21.85 11.4 -20.0 Q-5.55 -20.0 -6.7 -23.5 -7.1 -24.6 -5.95 -26.75 -4.6 -29.25 -4.5 -30.0 -10.75 -29.55 -15.15 -33.3 -17.45 -35.25 -19.75 -38.0 L-49.25 -32.15 Q-77.7 -26.5 -83.15 -26.5 -90.35 -26.5 -91.95 -29.6 -92.75 -31.15 -92.15 -33.0 L-91.65 -38.3 Q-90.95 -42.75 -89.9 -43.25 L-114.85 -45.5 Q-123.85 -51.85 -123.35 -54.4 -122.9 -57.0 -109.6 -57.0 -108.05 -57.0 -105.55 -59.45 -103.7 -61.25 -100.2 -59.25 L-94.2 -58.85 Q-91.2 -58.95 -75.55 -56.5 -66.3 -55.05 -64.9 -53.85 -65.15 -53.0 -64.45 -53.0 L-56.75 -53.55 -33.65 -54.75 -28.6 -54.35 -23.35 -54.0 Q-20.95 -54.0 -1.6 -57.25 L19.9 -60.5 Q27.35 -60.5 28.65 -58.4 29.05 -57.75 28.95 -56.6 L28.9 -55.0 46.8 -55.95 63.4 -56.75 Q65.7 -56.75 68.35 -50.05" fill="#9fd26c" fill-opacity="0.3019608" fill-rule="evenodd" stroke="none"/>
    <path d="M71.05 -59.6 L107.7 -59.5 Q111.25 -59.35 113.65 -58.55 L113.4 -58.6 Q72.8 -58.65 56.05 -57.6 L45.9 -56.6 37.3 -56.1 29.65 -56.15 22.2 -56.35 21.7 -56.6 19.3 -56.6 Q18.95 -56.85 18.95 -57.3 L18.2 -57.65 16.7 -58.6 14.85 -58.05 13.55 -57.7 13.35 -57.7 Q13.15 -57.25 12.55 -57.25 11.45 -57.25 11.2 -58.2 L11.2 -59.2 11.45 -61.0 11.8 -62.85 11.65 -62.95 Q8.0 -58.6 5.9 -58.6 5.55 -58.6 5.6 -58.4 L5.55 -58.1 Q5.2 -58.35 4.7 -59.35 4.15 -60.4 4.15 -61.0 L4.3 -61.2 6.65 -59.6 9.4 -62.4 Q11.45 -64.35 13.05 -64.5 L13.2 -64.55 13.3 -64.1 12.8 -62.65 12.3 -60.75 Q12.3 -60.25 12.85 -59.4 L13.35 -58.5 15.85 -59.3 19.55 -60.2 Q19.2 -59.45 19.85 -58.95 L21.05 -57.75 20.7 -57.35 Q40.1 -57.2 45.75 -57.55 L71.05 -59.6 M2.7 -57.25 Q2.05 -57.2 0.8 -57.85 L0.8 -57.7 Q0.8 -57.25 1.9 -56.7 2.95 -56.15 2.95 -55.6 L2.9 -54.95 Q2.9 -54.7 2.3 -54.7 1.45 -54.7 1.6 -54.85 1.85 -55.05 1.7 -55.15 L-9.15 -55.6 -15.45 -55.45 -17.25 -55.15 -17.95 -55.0 -19.1 -55.25 -18.75 -55.35 -18.85 -55.35 -24.15 -56.0 -42.75 -56.7 -52.45 -56.0 -57.95 -56.0 Q-58.15 -56.95 -57.95 -57.6 L-59.55 -57.7 -61.2 -57.95 -59.35 -58.1 -57.6 -58.1 Q-57.45 -57.7 -57.45 -56.75 L-50.5 -57.15 -42.85 -57.5 Q-25.6 -57.5 -23.65 -57.15 L-16.2 -56.35 -16.1 -56.3 0.2 -56.75 Q-0.8 -57.5 -0.8 -58.45 -0.8 -59.3 0.5 -59.0 L4.65 -58.1 Q3.25 -57.3 2.7 -57.25 M38.5 -40.25 Q41.35 -40.05 41.75 -39.35 L38.25 -39.85 38.5 -40.25 M22.4 -25.1 L19.05 -22.85 18.95 -22.5 18.6 -22.5 17.7 -21.85 17.55 -21.7 Q18.9 -21.9 20.05 -22.55 L26.8 -23.1 27.55 -22.95 27.65 -22.8 27.7 -22.65 28.45 -22.85 28.9 -22.6 28.3 -22.35 27.9 -21.85 27.95 -21.35 27.95 -21.25 31.5 -22.2 Q33.65 -22.95 34.3 -22.95 L35.15 -22.85 35.2 -22.7 35.3 -22.7 35.3 -22.5 35.3 -22.2 35.3 -22.05 36.2 -21.7 37.3 -21.45 37.45 -21.1 Q37.2 -20.7 36.65 -20.7 L35.5 -20.9 39.4 -17.95 Q44.6 -14.7 49.8 -14.7 L61.45 -15.55 69.65 -16.45 Q76.4 -16.45 81.15 -14.75 82.45 -14.25 85.05 -12.75 L85.05 -12.6 84.75 -12.7 85.0 -12.35 85.55 -11.1 Q87.7 -11.1 88.45 -11.65 89.15 -12.25 90.05 -12.25 L91.3 -12.1 91.4 -11.7 86.3 -9.75 Q83.25 -9.75 83.2 -12.95 L78.9 -13.9 Q75.35 -14.85 68.55 -14.85 L60.4 -14.2 50.9 -13.6 Q44.5 -13.6 39.15 -17.3 L34.1 -21.45 33.55 -21.45 28.15 -20.1 27.05 -20.2 Q26.95 -20.05 26.95 -20.7 26.95 -21.3 27.1 -21.75 L21.45 -20.65 Q16.4 -19.7 15.3 -19.1 L14.9 -19.2 Q14.8 -19.25 14.8 -19.65 14.8 -20.55 17.25 -22.6 L16.95 -22.6 Q13.6 -22.6 10.6 -20.45 8.25 -18.35 7.8 -18.35 7.4 -18.35 7.05 -18.95 6.75 -19.6 4.05 -19.6 3.7 -19.6 3.65 -19.4 L3.55 -19.2 5.2 -18.15 9.65 -14.5 9.45 -14.0 Q9.2 -13.7 8.55 -13.7 L5.35 -14.45 0.8 -15.1 0.9 -14.55 0.7 -10.25 0.3 -9.95 -2.35 -11.3 -5.0 -12.45 -4.6 -11.85 -4.75 -11.5 Q-4.85 -11.35 -5.2 -11.35 L-5.7 -11.55 -5.95 -11.85 -5.95 -10.1 Q-5.85 -9.85 -6.45 -9.85 L-9.5 -11.45 Q-11.65 -12.55 -12.75 -12.65 -14.45 -11.9 -18.2 -11.45 L-24.35 -11.1 Q-27.0 -11.1 -30.4 -12.65 -33.0 -13.8 -34.55 -13.65 L-35.45 -13.25 Q-36.95 -12.6 -37.6 -12.6 -39.5 -12.6 -40.05 -13.1 L-40.2 -13.7 -40.05 -15.2 -39.6 -15.2 Q-39.35 -14.85 -39.35 -13.7 L-38.7 -13.6 -35.8 -13.8 -35.95 -13.95 Q-35.6 -14.15 -35.2 -14.3 -34.9 -14.6 -34.45 -14.7 L-34.3 -14.65 Q-32.4 -15.25 -30.75 -14.25 -27.35 -12.2 -24.15 -12.2 L-17.45 -13.0 -12.45 -13.85 -11.8 -13.5 -10.8 -13.2 -7.45 -11.45 Q-7.15 -12.0 -7.15 -12.2 L-7.2 -12.85 -6.7 -12.95 Q-5.65 -12.95 -5.1 -12.55 L-5.1 -12.85 -5.15 -12.9 -4.7 -13.0 -2.55 -12.3 -0.2 -11.45 -0.4 -13.1 -0.6 -14.55 -0.55 -15.1 -0.2 -15.1 -0.3 -15.7 Q-0.3 -16.75 4.8 -16.35 L4.95 -16.35 3.35 -17.5 Q2.3 -18.2 2.3 -18.65 2.3 -19.5 3.0 -19.35 L2.8 -20.05 Q2.8 -20.4 3.05 -20.45 L4.55 -20.6 6.0 -20.3 7.45 -20.0 9.4 -21.4 11.7 -22.95 Q14.95 -24.3 17.15 -24.2 L18.75 -23.8 Q20.9 -25.35 22.3 -25.25 L22.4 -25.1 M34.4 -20.35 L32.7 -17.65 Q31.55 -15.35 31.55 -14.5 L36.4 -7.15 36.05 -6.35 Q35.7 -6.0 35.15 -6.0 32.95 -6.0 32.65 -7.4 L32.8 -8.8 Q32.8 -9.55 31.6 -11.55 L30.55 -13.15 Q29.25 -13.7 28.85 -14.75 28.5 -15.5 28.5 -17.15 28.5 -18.7 29.5 -19.0 30.65 -18.3 30.45 -16.1 30.35 -14.6 30.5 -13.8 30.7 -14.7 31.85 -17.05 L33.55 -20.6 34.4 -20.35 M24.45 -19.6 L24.3 -18.35 24.15 -18.35 24.05 -19.85 Q25.55 -21.25 26.05 -19.75 L26.3 -17.7 26.2 -16.65 25.35 -15.7 25.4 -16.1 25.05 -19.35 24.45 -19.6 M34.6 -3.2 Q35.4 -2.8 35.55 -1.35 L34.55 -0.75 Q34.1 -0.75 33.9 -1.45 L33.8 -2.2 Q33.8 -3.6 34.6 -3.2 M42.6 -44.25 L44.25 -42.05 45.75 -39.75 45.6 -39.35 43.3 -41.15 42.0 -42.5 42.1 -44.25 42.6 -44.25 M0.0 29.65 L-0.05 29.15 Q-0.05 28.35 0.75 27.65 1.75 26.8 3.15 27.15 L3.25 27.35 3.3 27.8 0.8 30.15 Q0.2 30.15 0.0 29.65 M2.3 32.75 Q2.3 34.0 0.05 36.65 -3.1 40.3 -7.7 40.3 -10.65 40.3 -11.9 39.55 L-12.7 38.65 -12.6 38.4 Q-12.05 38.4 -11.55 38.75 L-10.45 39.05 Q-6.4 39.05 -2.4 36.4 0.8 34.25 0.8 33.6 L0.7 33.05 0.05 32.95 -1.05 33.05 Q-1.2 33.3 -1.2 32.65 -1.2 31.25 0.55 31.25 2.3 31.25 2.3 32.75 M-102.8 -65.1 L-102.35 -65.1 -101.0 -60.95 Q-99.8 -57.4 -99.8 -56.6 L-99.9 -56.05 -100.2 -55.95 Q-100.85 -57.1 -101.95 -60.2 L-102.95 -63.4 -102.8 -65.1 M-113.6 -50.5 L-113.7 -51.25 Q-113.7 -51.65 -112.55 -52.7 -111.3 -53.85 -110.05 -54.35 L-111.5 -55.3 -112.95 -56.5 -112.6 -56.8 -112.7 -56.95 Q-111.95 -58.1 -111.4 -57.9 L-110.45 -57.5 Q-108.25 -57.5 -108.2 -57.85 L-108.7 -57.95 -108.8 -59.65 -108.7 -61.35 Q-107.45 -61.45 -105.75 -60.65 L-104.0 -59.7 Q-101.2 -57.95 -101.2 -56.85 -101.2 -56.45 -101.35 -56.3 L-101.6 -56.1 -103.7 -57.5 -105.75 -58.9 -107.45 -60.0 -107.65 -59.95 -107.7 -59.45 -107.55 -58.85 -107.2 -58.45 -107.2 -58.3 Q-106.95 -57.75 -106.95 -56.85 L-106.95 -56.5 -107.1 -56.35 -108.65 -56.55 Q-109.5 -56.6 -109.45 -55.85 L-109.7 -55.75 Q-108.3 -54.4 -108.3 -53.85 -108.3 -53.55 -109.3 -53.3 -110.55 -52.95 -111.2 -52.35 L-111.25 -52.4 -111.35 -52.0 -110.6 -51.35 Q-109.8 -50.85 -109.6 -50.35 -110.25 -49.85 -110.7 -49.85 L-111.6 -49.9 Q-111.75 -50.1 -113.6 -50.5 M-91.95 -57.1 Q-90.6 -59.35 -84.95 -59.35 -81.2 -59.4 -79.9 -58.3 -78.75 -58.45 -78.3 -58.85 -78.05 -59.1 -78.05 -59.6 -78.05 -60.0 -78.2 -60.2 L-78.55 -60.6 Q-77.75 -60.8 -77.1 -60.15 L-76.95 -60.0 -76.95 -60.1 -76.5 -59.95 -75.85 -59.85 Q-74.55 -59.85 -74.5 -62.15 L-74.7 -65.5 Q-74.35 -65.5 -72.75 -63.25 -71.1 -60.95 -69.45 -60.95 -68.6 -60.95 -67.75 -61.65 L-66.7 -62.35 -66.05 -62.25 -65.95 -59.1 -65.95 -58.9 Q-65.9 -58.75 -65.55 -58.75 -65.0 -58.75 -64.4 -59.3 L-63.45 -59.85 Q-62.55 -59.85 -62.0 -59.0 L-61.6 -57.85 -61.7 -57.45 Q-61.8 -57.25 -62.2 -57.25 -63.15 -57.25 -63.4 -57.7 L-63.45 -58.35 -64.3 -57.7 -65.2 -57.2 Q-66.45 -57.2 -66.8 -58.15 L-66.95 -59.25 -66.95 -60.75 -68.1 -60.3 -69.1 -59.85 Q-71.2 -59.85 -73.7 -63.2 -73.7 -58.95 -75.1 -58.95 L-75.35 -58.95 -75.35 -58.7 -75.8 -58.6 Q-75.9 -58.6 -76.45 -58.95 L-76.55 -59.0 -77.0 -59.15 -76.95 -59.25 -77.3 -59.5 -78.05 -58.55 -78.7 -57.95 -79.65 -58.0 Q-79.3 -57.55 -79.3 -56.95 -79.3 -56.2 -79.95 -56.2 -80.65 -56.2 -82.25 -57.65 L-84.2 -59.1 Q-87.05 -59.1 -88.7 -58.1 -90.3 -56.8 -91.45 -56.35 L-91.95 -57.1 M-97.0 -57.4 Q-96.85 -57.6 -96.45 -57.6 L-93.3 -56.9 Q-91.4 -56.2 -91.1 -55.85 L-91.1 -55.5 Q-91.1 -55.35 -91.45 -55.35 L-95.1 -56.6 -96.2 -56.6 -96.3 -55.85 Q-96.1 -55.6 -96.7 -55.6 -97.95 -55.6 -98.7 -57.45 L-99.35 -59.95 Q-98.2 -60.3 -97.7 -59.25 L-97.2 -57.2 -97.0 -57.4 M-97.75 -40.55 L-104.95 -39.25 -104.8 -38.75 -105.25 -38.75 -105.75 -38.75 -105.75 -38.65 -106.15 -37.85 -107.0 -37.05 Q-107.35 -35.5 -108.05 -35.2 -108.65 -34.95 -108.65 -34.3 -108.0 -30.35 -109.55 -28.85 -111.15 -27.35 -111.2 -22.05 -111.3 -16.8 -112.0 -13.9 L-112.75 -10.05 Q-112.75 -6.2 -110.75 -4.6 L-110.75 -4.65 -110.6 -4.5 -110.1 -5.0 -109.9 -4.5 -109.95 -3.75 -109.95 -3.65 -109.1 -2.45 Q-107.8 -0.7 -105.75 0.5 -102.9 1.4 -100.95 2.15 -98.6 3.0 -97.4 4.15 L-97.35 4.05 -97.25 4.1 Q-96.85 4.1 -96.3 4.45 L-96.15 3.0 -95.25 3.0 Q-95.7 4.2 -94.6 5.75 L-93.4 7.0 Q-92.35 7.75 -91.4 7.75 -90.2 7.75 -88.55 6.0 L-86.5 4.25 Q-85.85 4.25 -85.65 4.6 L-85.5 5.15 -87.75 7.35 Q-89.7 9.0 -91.5 9.0 L-94.1 7.4 -95.3 6.65 -95.6 6.35 -96.75 5.4 -99.75 5.0 Q-98.7 6.05 -97.5 8.75 L-97.45 8.85 Q-96.8 9.4 -94.6 13.25 -94.0 14.3 -91.5 15.7 L-89.7 16.8 -89.5 16.5 Q-87.45 17.85 -86.55 20.1 L-85.0 24.0 -84.25 26.25 Q-83.8 27.65 -83.1 27.75 -79.9 28.2 -78.5 29.45 -77.55 30.25 -77.5 31.15 -74.85 31.45 -68.55 38.25 -62.75 44.5 -62.1 47.7 -61.55 48.35 -61.15 50.3 -60.65 52.7 -60.65 55.0 -60.65 56.4 -61.5 57.15 -62.25 56.7 -62.25 55.05 L-62.1 51.65 Q-62.05 51.05 -62.7 49.8 L-62.7 49.75 -63.0 49.75 -65.75 45.75 Q-68.35 41.7 -68.6 40.65 -68.85 39.6 -73.35 36.2 -77.85 32.8 -77.85 32.5 L-77.8 32.1 -78.25 32.25 Q-79.35 31.15 -82.05 29.7 -83.6 28.85 -85.75 24.9 L-87.2 20.7 Q-87.95 18.7 -89.5 17.75 L-90.4 18.0 Q-91.15 18.0 -92.0 17.35 -92.85 16.75 -92.85 16.25 -97.85 10.15 -97.85 9.75 L-97.85 9.65 Q-101.35 5.85 -101.35 5.25 L-101.25 4.6 -101.2 4.55 Q-103.9 3.6 -106.55 1.6 -110.45 -1.3 -111.0 -3.4 L-111.1 -3.4 Q-112.45 -3.4 -113.15 -6.5 -113.65 -8.55 -113.65 -10.1 -113.65 -12.15 -112.95 -14.6 -112.5 -16.05 -112.25 -23.6 L-112.15 -22.25 -111.85 -25.95 Q-111.35 -29.3 -110.3 -30.95 -109.25 -32.6 -109.5 -33.35 L-109.75 -34.4 -109.6 -35.95 Q-109.35 -36.3 -107.9 -36.9 L-108.4 -37.55 -107.8 -38.45 -107.5 -38.85 -107.7 -38.85 Q-108.95 -38.85 -109.2 -39.95 L-109.2 -41.25 -109.1 -43.15 -107.45 -45.95 Q-107.3 -46.1 -107.3 -46.35 -110.3 -46.3 -110.3 -47.2 L-110.1 -48.6 Q-109.9 -49.75 -109.6 -49.95 -109.3 -49.2 -109.3 -47.75 -106.5 -47.55 -105.6 -47.05 -104.95 -46.75 -104.95 -45.95 L-105.65 -45.3 Q-106.65 -44.5 -107.7 -42.6 L-107.7 -40.95 -107.35 -40.95 -107.35 -41.0 -106.5 -40.95 -106.1 -41.0 Q-106.0 -41.65 -105.7 -41.85 L-105.45 -41.05 -94.95 -41.95 -94.85 -41.95 -94.7 -42.0 -94.65 -41.9 -93.95 -41.7 -93.35 -41.35 -94.6 -41.1 -94.7 -41.0 -94.85 -41.05 -95.8 -40.9 -98.0 -39.2 -101.3 -36.25 -101.45 -36.1 Q-98.6 -37.1 -96.6 -37.1 -95.1 -37.1 -94.75 -36.75 L-94.7 -36.35 -95.3 -35.95 -94.5 -35.25 Q-93.6 -34.35 -92.35 -34.35 -90.9 -34.35 -88.9 -35.2 L-86.7 -36.1 Q-86.25 -36.1 -86.05 -35.55 L-85.95 -34.75 -85.0 -34.7 -83.7 -34.75 -83.5 -34.8 Q-83.35 -34.75 -83.35 -34.35 L-83.4 -33.9 -82.7 -33.35 Q-81.95 -33.35 -78.05 -35.35 -74.9 -36.65 -74.5 -34.95 L-73.95 -35.2 Q-73.65 -34.65 -74.05 -34.25 L-74.05 -34.1 -71.7 -34.35 Q-70.75 -34.35 -70.95 -32.9 L-71.35 -31.45 Q-71.35 -30.7 -70.1 -30.15 L-68.75 -29.3 Q-67.8 -30.05 -66.55 -30.0 -64.6 -30.0 -64.6 -27.95 L-60.7 -27.5 -59.6 -27.25 -51.3 -27.8 -45.85 -28.35 -44.95 -28.2 -44.85 -28.05 -44.8 -27.9 -42.7 -28.25 -44.2 -29.35 Q-45.4 -30.1 -45.55 -30.6 -43.5 -30.65 -40.85 -29.55 -37.35 -28.05 -36.45 -27.85 L-35.85 -27.6 Q-35.85 -27.35 -36.45 -27.35 -37.4 -27.35 -40.0 -28.5 -42.5 -29.65 -42.85 -29.6 L-42.05 -28.6 Q-41.7 -27.95 -41.7 -27.6 -41.7 -27.15 -42.9 -27.05 L-43.8 -26.95 -43.35 -26.85 -45.55 -26.4 -44.85 -26.8 -47.7 -26.35 -48.15 -26.75 -48.2 -26.85 -50.35 -26.6 -57.2 -26.0 -63.2 -26.0 Q-64.45 -26.75 -65.45 -27.0 L-65.35 -27.95 -65.35 -29.25 Q-66.55 -29.2 -67.5 -28.7 L-68.0 -28.45 -67.8 -28.1 Q-68.2 -27.75 -69.1 -27.4 -69.85 -27.1 -70.1 -27.1 -72.8 -27.1 -73.2 -29.5 L-73.1 -32.95 -73.85 -32.85 -74.95 -32.95 -75.05 -33.1 -75.2 -33.1 Q-75.8 -33.1 -76.0 -33.6 L-76.05 -34.1 Q-76.95 -34.4 -79.5 -33.25 -82.2 -31.95 -82.35 -31.95 -83.45 -31.95 -84.3 -32.75 L-84.65 -33.15 -85.7 -33.1 Q-86.8 -33.1 -87.05 -33.6 L-87.3 -34.1 Q-88.5 -34.1 -89.65 -33.5 -90.8 -32.95 -91.2 -32.95 -93.45 -32.95 -95.05 -34.35 L-96.15 -35.65 -97.2 -35.35 -102.0 -33.95 -103.15 -35.0 -103.15 -35.05 Q-102.85 -36.6 -100.55 -38.55 -99.25 -39.65 -97.75 -40.55 M-102.0 -27.0 L-102.05 -26.8 -102.55 -26.05 -102.0 -27.0 M-103.25 -0.15 Q-104.45 -0.65 -105.5 -3.25 -104.5 -3.3 -103.75 -2.05 -103.1 -1.05 -103.1 -0.4 -103.1 0.15 -103.25 -0.15 M-107.3 -4.15 Q-107.15 -4.15 -107.1 -4.25 -106.7 -4.15 -106.15 -2.85 -105.6 -1.55 -105.6 -0.8 -105.6 -0.2 -105.75 0.15 L-106.1 0.15 -106.8 -1.95 -107.35 -3.75 -107.3 -4.15 M-109.1 -6.4 L-108.75 -6.4 Q-108.95 -5.1 -108.25 -3.45 -107.6 -1.8 -106.35 -0.5 L-106.5 -0.4 Q-109.25 -2.45 -109.25 -5.0 L-109.1 -6.4 M-88.55 -15.2 Q-88.35 -15.1 -88.95 -15.1 -92.35 -15.1 -92.35 -16.2 -92.35 -18.95 -90.4 -18.6 -88.45 -18.25 -88.45 -16.25 L-88.55 -15.2 M-89.55 -16.25 L-90.2 -17.1 Q-90.75 -17.6 -91.2 -17.7 L-91.45 -17.65 -91.7 -17.25 -91.65 -16.5 -90.9 -16.1 -89.55 -16.25 M-95.75 -0.75 Q-95.75 -1.4 -95.5 -1.15 L-93.85 -1.0 Q-93.5 -0.6 -93.5 -0.1 L-93.6 0.6 -94.5 0.75 -95.35 0.3 Q-95.75 -0.2 -95.75 -0.75 M-47.65 -25.35 L-49.2 -24.1 -49.35 -24.0 -48.2 -24.3 -47.35 -24.5 Q-46.1 -24.5 -45.75 -23.15 L-45.7 -21.7 -46.1 -20.45 Q-46.55 -19.45 -46.95 -19.1 L-46.95 -18.8 -46.7 -18.5 -44.9 -19.1 -43.1 -19.6 Q-40.35 -15.7 -40.35 -15.35 -40.35 -14.75 -40.45 -15.0 L-40.55 -14.8 -40.95 -14.75 Q-42.4 -14.75 -43.0 -16.1 -43.45 -17.15 -43.2 -18.0 L-43.2 -18.1 Q-45.6 -16.85 -46.6 -16.85 L-47.45 -16.95 Q-47.35 -10.75 -45.3 -3.15 -43.0 5.4 -39.75 6.8 -39.2 6.15 -38.4 6.1 -39.7 4.95 -39.7 3.65 L-39.45 0.9 -39.2 0.9 -38.65 1.05 Q-38.95 1.05 -38.95 1.4 -38.95 4.55 -37.25 6.25 -35.45 6.9 -35.45 8.05 L-35.25 8.95 -35.05 9.8 Q-35.05 10.55 -34.15 10.85 L-31.75 11.75 Q-29.25 10.75 -27.45 12.6 -26.35 13.7 -25.95 15.15 L-22.1 14.7 -19.6 13.55 -19.35 13.9 -21.55 15.75 Q-23.15 17.0 -25.2 17.0 -25.75 17.0 -26.3 16.6 L-29.7 16.65 -29.85 17.7 Q-29.85 19.25 -29.05 19.95 L-27.3 20.85 -27.3 20.7 Q-27.3 19.95 -26.7 19.8 L-24.9 21.5 -23.85 21.65 -23.75 21.85 -23.7 22.3 -23.75 22.9 -23.6 23.15 Q-23.35 23.4 -23.95 23.4 L-24.8 23.35 -24.65 23.8 Q-24.2 25.3 -24.2 26.9 L-24.2 27.65 -24.95 27.9 Q-26.05 27.9 -26.55 25.6 -26.85 23.5 -27.1 22.8 -28.5 22.3 -29.65 21.25 -31.2 19.8 -31.2 18.9 -31.2 16.8 -30.55 16.1 -29.65 15.1 -27.7 15.15 L-28.2 14.35 Q-29.65 12.05 -32.6 13.15 L-32.65 12.6 Q-35.6 12.35 -36.85 10.25 L-37.6 7.8 -38.4 7.75 -38.8 7.85 -38.85 7.85 -38.85 7.9 -39.75 8.05 -39.8 7.9 Q-44.25 7.4 -46.35 0.15 L-47.6 -7.8 -48.05 -11.3 -48.55 -15.35 -48.45 -17.5 -48.4 -17.7 -48.45 -17.85 -48.45 -18.9 Q-48.45 -19.9 -47.2 -22.85 L-47.8 -22.85 -48.6 -22.75 -50.2 -22.95 -50.3 -23.45 Q-50.3 -24.4 -48.85 -24.9 L-47.65 -25.35 M-63.45 -41.45 Q-63.05 -41.05 -63.05 -40.1 L-63.1 -39.1 -63.85 -38.95 Q-65.0 -38.95 -65.2 -39.8 L-65.2 -40.7 Q-65.2 -41.65 -64.7 -41.85 L-63.95 -41.45 -64.35 -40.2 -63.95 -39.95 -63.95 -41.2 Q-63.8 -41.2 -63.45 -41.45 M-62.3 -14.25 L-62.25 -17.6 -61.8 -17.6 Q-61.65 -15.75 -59.3 -9.35 L-60.95 -11.55 Q-62.3 -13.55 -62.3 -14.25 M-50.5 -19.75 Q-50.5 -16.45 -51.25 -14.85 L-51.75 -14.75 Q-52.5 -16.8 -52.5 -19.8 -52.5 -22.25 -51.5 -23.0 -50.75 -22.4 -50.55 -21.45 L-50.5 -19.75 M-53.25 -21.4 Q-53.25 -20.1 -53.75 -18.6 L-54.5 -18.6 -54.75 -21.6 Q-54.75 -23.3 -53.75 -23.5 L-53.35 -22.65 -53.25 -21.4 M-57.25 -22.25 L-57.35 -20.7 -57.5 -19.25 -57.6 -19.0 -58.0 -18.6 Q-58.75 -20.1 -58.75 -22.25 L-58.7 -23.1 Q-58.55 -23.8 -57.75 -24.1 L-57.35 -23.5 -57.25 -22.25 M-10.2 -32.35 L-9.05 -33.7 Q-7.6 -34.95 -6.2 -34.95 L-6.05 -33.35 Q-6.05 -32.8 -7.2 -31.6 -8.35 -30.35 -9.4 -30.2 L-9.35 -29.45 -9.4 -28.8 -8.65 -29.5 -5.95 -30.0 -6.65 -30.25 -7.45 -30.25 -7.6 -30.95 -4.8 -30.5 Q-3.7 -30.3 -3.7 -29.45 -3.7 -29.1 -4.45 -29.1 L-8.95 -28.45 -9.4 -28.7 -9.8 -27.35 Q-10.25 -25.85 -10.7 -25.85 L-12.7 -26.0 Q-12.65 -28.65 -11.5 -29.9 L-11.95 -29.85 -13.35 -29.7 Q-14.95 -29.7 -15.85 -30.4 -16.45 -30.85 -16.45 -31.15 -16.45 -34.15 -14.0 -33.9 -11.6 -33.65 -11.6 -30.45 L-11.35 -30.15 -11.3 -30.15 -11.0 -30.4 -10.5 -30.7 -10.15 -31.55 -10.2 -32.35 M-15.2 -31.05 L-14.7 -30.6 -11.95 -30.6 Q-13.05 -32.45 -14.3 -32.85 -15.6 -33.25 -15.6 -31.55 L-15.2 -31.05 M-10.55 -29.25 L-11.35 -28.15 -11.8 -27.1 -11.8 -26.95 Q-11.2 -27.25 -10.75 -28.05 -10.3 -28.85 -10.55 -29.25 M-9.85 -31.2 Q-8.5 -31.5 -7.55 -32.5 -6.65 -33.5 -6.85 -34.2 -8.5 -34.15 -9.15 -33.1 L-9.85 -31.35 -9.85 -31.2 M-35.85 -30.55 L-35.8 -31.35 Q-34.3 -31.4 -32.85 -30.2 L-30.2 -27.95 -30.2 -27.6 -30.95 -27.45 Q-31.95 -27.45 -33.25 -28.85 L-34.85 -30.75 -35.1 -30.7 -34.8 -29.1 -34.8 -27.5 -35.1 -27.45 -35.7 -29.3 -35.85 -30.55 M-18.45 23.4 L-16.7 23.4 -16.55 23.45 -16.45 23.9 Q-16.45 24.5 -16.6 24.25 L-16.7 24.4 -18.35 24.4 Q-18.55 24.45 -18.55 23.8 L-18.45 23.4 M-22.7 21.95 Q-22.7 19.45 -21.5 21.05 L-19.3 24.55 -19.7 24.8 Q-21.4 24.25 -22.1 23.55 -22.7 22.95 -22.7 21.95 M-25.3 28.9 L-25.2 28.25 -24.95 28.25 Q-24.4 29.45 -20.5 32.2 -16.2 35.15 -15.3 36.3 L-15.3 39.5 -15.7 39.8 Q-16.8 36.8 -21.35 33.8 -25.3 31.15 -25.3 28.9 M-12.85 42.05 Q-10.35 40.4 -8.95 41.0 L-8.8 41.15 -8.7 41.65 Q-8.7 42.4 -9.7 42.35 L-12.2 42.55 -12.85 42.05 M-15.3 46.55 Q-15.3 46.3 -12.6 45.0 -9.65 43.55 -7.95 43.75 L-7.8 43.9 -7.7 44.4 Q-7.7 44.8 -10.15 46.15 -12.6 47.5 -13.2 47.5 -13.9 47.5 -15.2 46.9 L-15.3 46.55 M-42.45 3.8 L-42.45 3.05 Q-42.35 2.3 -41.85 2.05 L-40.85 4.05 -39.55 6.4 Q-40.35 6.45 -41.45 5.4 -42.45 4.4 -42.45 3.8 M-65.6 21.95 Q-65.45 22.0 -65.45 22.4 L-65.95 23.15 -66.35 24.15 -67.2 24.65 Q-67.8 24.5 -67.8 23.8 L-67.15 22.7 Q-66.5 22.0 -65.95 21.9 L-65.6 21.95 M-92.65 14.4 L-91.9 14.15 -91.5 13.75 -91.55 14.35 -92.0 14.75 -92.4 14.5 -92.65 14.4 M-49.1 83.25 L-49.25 84.5 -49.75 84.25 -50.6 80.9 Q-51.0 79.05 -51.6 78.0 L-51.0 77.75 -49.8 80.7 Q-49.1 82.75 -49.1 83.25 M-60.35 61.75 Q-58.3 63.05 -54.95 69.45 -51.85 75.35 -51.85 76.5 -51.85 77.15 -52.0 76.75 L-52.35 76.75 -58.3 66.8 -61.85 60.75 -61.75 59.3 Q-61.75 58.45 -62.35 58.25 L-61.0 57.25 Q-60.65 58.75 -60.35 61.75" fill="#5b5546" fill-rule="evenodd" stroke="none"/>
  </g>
</svg>
