<?xml version="1.0" encoding="UTF-8" standalone="no"?>
<svg xmlns:xlink="http://www.w3.org/1999/xlink" height="10.4px" width="99.75px" xmlns="http://www.w3.org/2000/svg">
  <g transform="matrix(1.0, 0.0, 0.0, 1.0, 49.9, 5.2)">
    <path d="M48.45 -4.15 Q49.85 -3.6 49.85 -1.75 49.85 0.2 48.1 1.2 45.9 2.4 40.6 2.4 L33.6 2.3 26.85 1.95 26.25 1.6 25.2 1.4 11.5 3.3 -7.4 5.2 Q-13.05 5.2 -13.75 4.25 -14.1 3.75 -13.5 2.7 -26.2 1.8 -43.8 2.0 L-48.75 1.6 Q-49.9 1.15 -49.9 -0.7 -49.9 -2.15 -44.75 -2.7 L-28.55 -3.25 Q15.3 -3.85 41.35 -5.1 L48.45 -4.15" fill="#ffffff" fill-rule="evenodd" stroke="none"/>
    <path d="M47.85 -2.15 Q47.85 -0.75 46.6 -0.3 L40.85 0.15 -2.1 0.0 Q-44.65 -0.2 -47.15 -0.35 L-47.85 -1.0 -48.15 -2.2 Q-48.95 -2.8 -48.6 -3.05 L-41.95 -3.75 Q-26.85 -4.4 40.35 -4.35 44.8 -4.6 46.65 -3.65 47.85 -3.05 47.85 -2.15" fill="#8d6d3f" fill-opacity="0.3019608" fill-rule="evenodd" stroke="none"/>
    <path d="M30.35 -3.6 Q35.6 -3.65 40.3 -3.35 L46.9 -2.7 47.05 -2.5 47.15 -1.6 15.9 0.6 -25.65 2.2 -43.65 1.45 Q-45.75 1.0 -45.75 -0.7 -45.75 -2.7 -42.65 -2.7 L-27.75 -2.2 -27.85 -1.9 Q-27.8 -1.6 -27.0 -1.6 12.05 -1.6 15.5 -1.9 17.15 -2.65 30.35 -3.6" fill="#8d6d3f" fill-opacity="0.3019608" fill-rule="evenodd" stroke="none"/>
    <path d="M34.35 -4.6 Q40.05 -6.25 44.5 -3.4 46.75 -1.95 47.85 -0.1 L48.05 1.15 46.4 1.4 23.35 0.95 5.4 2.05 -18.9 3.15 Q-30.85 3.15 -40.25 0.85 -47.4 -0.95 -47.4 -1.65 L-47.55 -2.65 Q-47.5 -3.1 -46.5 -3.35 L-32.4 -3.85 -18.15 -3.2 -17.65 -2.45 -17.4 -1.45 Q-11.4 -3.85 8.25 -4.15 L34.35 -4.6" fill="#8d6d3f" fill-opacity="0.3019608" fill-rule="evenodd" stroke="none"/>
    <path d="M33.75 -0.65 L40.6 -0.9 47.35 -0.85 47.55 -3.45 43.0 -3.3 41.6 -3.3 41.5 -3.3 -48.0 -3.55 -48.05 -2.95 -47.25 0.8 -46.55 0.75 -32.0 0.9 Q-18.8 1.2 -9.75 0.55 L-9.8 0.05 -9.75 -0.55 -9.65 -0.55 -9.55 0.0 -9.6 0.55 -7.4 0.55 -7.6 0.2 -7.65 -0.35 -7.4 -1.1 Q-6.95 -0.8 -6.95 0.5 L-6.95 0.55 -5.4 0.55 -5.55 0.2 -6.05 -0.75 -6.05 -0.95 Q-5.35 -0.85 -5.15 -0.15 L-5.0 0.55 -1.0 0.6 Q-0.35 0.0 1.6 0.05 L17.35 0.4 47.3 0.4 47.3 -0.15 47.3 -0.2 43.15 -0.15 33.75 -0.4 33.7 -0.55 33.75 -0.65 M43.7 -4.4 Q47.75 -4.5 47.75 -3.85 L47.75 -3.75 Q48.4 -3.7 48.4 -2.85 L48.25 -1.8 48.0 1.05 47.5 1.4 Q33.95 1.95 19.1 1.9 L7.95 1.8 -0.1 1.5 -1.0 1.75 Q-25.15 2.85 -47.75 1.95 L-48.3 1.5 -48.45 1.5 -48.55 1.15 -48.5 1.05 -48.9 -1.2 -48.95 -2.5 Q-48.85 -3.5 -48.35 -3.75 L-48.25 -3.75 -48.2 -3.75 Q-48.8 -4.85 -45.6 -4.9 L-20.3 -4.95 Q11.15 -4.9 40.95 -4.25 L43.7 -4.4 M-47.15 -0.3 L-47.3 -0.55 -35.2 -0.2 -46.75 -0.15 -47.15 -0.3 M-42.6 -1.9 L-31.15 -2.15 -22.95 -2.0 -18.95 -1.8 -29.5 -1.55 -42.0 -1.7 -42.6 -1.9" fill="#5a493f" fill-rule="evenodd" stroke="none"/>
  </g>
</svg>
