<?xml version="1.0" encoding="UTF-8" standalone="no"?>
<svg xmlns:xlink="http://www.w3.org/1999/xlink" height="7.2px" width="103.8px" xmlns="http://www.w3.org/2000/svg">
  <g transform="matrix(1.0, 0.0, 0.0, 1.0, 52.85, 3.35)">
    <path d="M16.0 -1.5 L30.3 -3.35 31.1 -2.8 31.2 -2.25 Q33.9 -2.25 34.15 -1.75 34.3 -1.45 33.85 -0.95 L34.3 -0.75 34.9 -0.6 36.8 -0.95 45.75 -1.35 50.4 -0.95 50.55 -0.45 Q50.55 1.2 42.35 1.2 L39.25 1.7 35.55 2.15 33.05 1.85 Q32.85 1.55 32.45 1.55 L26.1 2.3 22.45 1.65 19.65 1.0 18.85 1.2 18.05 1.4 9.45 1.75 7.3 2.1 -2.05 2.15 -7.4 3.0 -12.0 3.85 Q-13.85 3.85 -13.85 2.9 L-13.4 1.8 Q-16.05 1.45 -23.0 1.9 L-23.05 2.1 Q-23.95 2.9 -27.8 2.9 L-30.35 2.45 -30.45 2.15 Q-34.0 1.95 -37.0 1.15 L-38.1 0.85 -43.05 0.95 -48.4 0.45 -50.75 -0.05 -50.85 -0.4 -50.75 -0.85 Q-50.65 -1.05 -50.7 -1.25 L-47.7 -1.1 -40.45 -1.65 -26.2 -2.25 -14.7 -1.75 0.4 -1.25 Q15.0 -1.25 16.0 -1.5" fill="#ffffff" fill-rule="evenodd" stroke="none"/>
    <path d="M5.85 -1.55 Q5.85 -1.15 6.15 -1.15 L21.9 -1.1 44.0 -1.4 Q44.3 -1.4 44.35 -1.55 L46.95 -1.75 Q49.45 -1.75 50.0 -1.25 50.3 -0.95 50.05 -0.65 50.05 -0.1 49.6 0.15 L47.2 1.1 Q44.8 1.95 39.85 1.95 L8.6 1.75 Q-1.2 2.1 -8.9 1.65 L-8.95 1.3 Q-8.95 0.9 -8.45 0.5 L-17.35 0.95 -27.15 1.4 -34.8 1.0 -42.55 1.5 -50.05 0.7 Q-52.85 0.0 -52.85 -0.6 -52.85 -1.4 -46.05 -1.75 -38.05 -2.2 -13.1 -2.55 -9.45 -1.65 -6.45 -2.0 4.1 -2.2 5.8 -1.95 L5.85 -1.55" fill="#cc9933" fill-opacity="0.3019608" fill-rule="evenodd" stroke="none"/>
    <path d="M50.6 -0.4 Q50.6 0.2 46.85 0.9 L41.7 1.55 22.5 1.35 20.15 1.1 -8.65 0.7 -19.3 1.15 -23.6 1.55 -39.95 1.3 -42.75 1.0 -42.85 0.35 -42.65 -0.05 -40.6 -0.15 -37.15 0.25 -32.15 0.2 -32.35 -0.4 Q-32.35 -1.45 -21.7 -1.4 L-5.65 -1.1 Q5.0 -1.1 30.45 -2.0 50.6 -2.4 50.6 -0.4" fill="#cc9933" fill-opacity="0.3019608" fill-rule="evenodd" stroke="none"/>
    <path d="M48.25 -0.65 Q49.35 -0.25 49.35 1.55 L49.85 2.1 50.35 2.7 50.05 3.35 47.7 3.6 Q41.85 3.6 41.0 2.75 40.7 2.45 40.95 2.05 L41.3 1.45 21.9 2.0 9.95 2.4 4.4 2.65 -16.2 2.25 -18.8 1.95 -24.85 2.5 -37.05 3.05 -44.15 2.85 Q-50.75 2.3 -50.75 0.75 L-50.45 -0.05 -48.0 -0.35 -45.95 0.05 -43.8 0.45 -35.4 0.1 -28.75 -0.5 Q-26.8 -0.5 -26.75 0.05 L-27.15 0.9 -6.8 -0.5 6.35 0.7 42.85 -0.7 Q47.2 -1.0 48.25 -0.65" fill="#cc9933" fill-opacity="0.3019608" fill-rule="evenodd" stroke="none"/>
    <path d="M6.15 -1.0 L5.25 -1.0 5.15 -0.75 4.55 0.4 Q4.35 0.1 4.7 -0.9 L4.75 -1.0 2.15 -1.05 -1.85 -1.15 -2.5 -1.15 -2.8 -0.4 -3.5 0.95 -2.4 0.85 -2.35 0.85 Q-0.2 0.7 1.7 0.85 3.55 1.05 5.7 0.85 L7.8 0.75 7.9 -0.65 8.1 0.5 8.1 0.75 10.2 0.8 14.15 1.0 14.2 1.0 18.05 0.9 20.25 0.85 20.4 -0.25 20.55 -0.6 17.7 -0.8 13.85 -0.95 12.65 -0.95 12.6 -0.85 12.0 0.7 11.85 0.7 Q11.7 -0.2 12.0 -0.95 L10.2 -0.95 6.15 -1.0 M5.45 -2.0 L6.15 -2.0 10.2 -1.95 12.5 -1.95 12.8 -2.45 12.9 -2.45 13.0 -2.2 12.95 -1.95 13.85 -1.95 17.75 -1.8 20.85 -1.6 20.85 -1.65 20.9 -1.65 20.9 -1.6 21.4 -1.55 21.45 -2.1 21.55 -2.2 21.65 -1.8 21.65 -1.55 21.95 -1.55 25.75 -1.8 29.9 -1.9 29.95 -1.9 34.05 -1.75 37.35 -1.9 37.6 -2.35 37.8 -2.4 37.9 -1.95 38.1 -1.95 39.1 -1.95 39.1 -2.55 39.15 -2.6 39.2 -2.0 39.2 -1.95 42.05 -2.0 44.6 -2.0 44.7 -2.0 46.05 -2.0 49.9 -1.95 49.6 -2.4 49.8 -2.35 50.0 -2.7 Q50.9 -2.15 50.95 -0.95 L50.8 0.2 Q50.8 1.05 50.4 2.1 L50.35 2.15 50.35 1.95 50.1 2.05 46.15 2.25 42.45 1.95 42.45 2.5 42.35 1.9 42.0 1.85 Q40.0 1.6 37.8 1.8 L33.95 2.0 30.05 2.05 25.8 2.05 22.05 1.9 18.1 1.9 14.15 2.0 10.1 1.8 8.6 1.75 8.55 2.4 8.5 2.25 8.4 1.75 7.9 1.75 7.65 2.35 7.55 2.4 7.7 1.75 5.8 1.85 Q3.55 2.05 1.6 1.85 -0.2 1.7 -2.3 1.85 L-6.1 2.0 -9.85 2.0 -10.3 2.05 -10.25 2.3 -10.35 2.05 -10.6 2.05 -11.0 2.8 -11.05 2.85 -11.15 2.15 -10.95 2.15 Q-10.75 2.15 -10.7 2.05 L-14.05 1.95 -17.95 1.95 -22.0 1.95 -25.8 1.9 -29.65 1.9 -33.75 1.8 -38.0 1.95 Q-40.25 2.1 -42.3 1.9 L-43.8 1.8 -43.85 1.95 -43.95 1.95 -43.95 1.8 -45.05 1.9 -45.0 1.9 -50.0 2.05 -50.1 2.05 -50.4 2.35 -50.45 2.4 Q-51.5 0.4 -51.5 -1.55 L-51.05 -2.5 -50.25 -2.15 -50.1 -1.95 -50.0 -1.95 -45.0 -2.0 -41.7 -1.75 Q-39.5 -1.6 -37.85 -1.8 L-33.95 -2.2 Q-31.65 -2.4 -29.8 -2.2 L-25.85 -1.95 -21.7 -1.8 -21.15 -1.75 -21.15 -2.05 -20.95 -2.35 -20.85 -1.75 -18.1 -2.05 -18.05 -2.05 -16.7 -2.2 -16.45 -3.15 Q-16.2 -3.05 -16.2 -2.55 L-16.2 -2.25 -14.05 -2.25 -10.1 -2.05 -6.15 -2.1 -1.85 -2.15 2.2 -2.05 5.15 -2.0 5.2 -2.1 5.45 -2.0 M13.6 -0.7 L13.7 -0.05 13.6 0.05 13.4 -0.65 13.6 -0.7 M21.35 -0.2 L21.35 -0.55 20.75 -0.6 20.3 0.85 22.1 0.9 25.85 1.05 30.05 1.05 33.95 1.0 36.35 0.9 36.85 -0.9 34.1 -0.75 29.8 -0.9 29.0 -0.95 28.5 -0.1 28.4 -0.1 28.45 -1.0 28.35 -1.0 28.35 -0.9 Q28.35 0.25 27.8 0.95 L27.75 1.05 28.1 -1.0 25.95 -0.8 21.9 -0.55 21.45 -0.55 21.35 -0.2 M37.35 -0.3 L36.8 0.9 37.7 0.8 Q40.0 0.6 42.1 0.85 L42.15 0.85 43.85 1.1 44.05 0.1 44.35 -1.0 42.05 -1.0 38.7 -0.95 38.5 -0.75 38.45 -0.9 38.5 -0.95 38.1 -0.95 37.6 -0.9 37.35 -0.3 M50.4 -1.15 L50.35 -1.1 50.0 -0.95 46.05 -1.0 45.9 -1.0 45.4 1.2 46.2 1.25 49.9 1.05 50.3 1.15 50.4 1.2 50.45 0.45 50.4 -1.15 M45.5 -1.0 L44.7 -1.0 44.5 0.1 44.2 1.1 45.1 1.2 45.25 0.05 45.5 -1.0 M-50.8 -1.0 Q-50.8 -0.05 -50.3 0.6 L-49.85 1.05 -45.25 0.95 -45.25 0.9 -43.9 0.8 -43.7 -0.85 -45.1 -1.0 -49.95 -0.95 -50.35 -1.1 -50.45 -1.2 -50.7 -1.25 -50.8 -1.0 M-41.75 -0.75 L-43.3 -0.85 Q-43.3 -0.15 -43.45 0.35 L-43.55 0.8 -42.2 0.9 Q-40.25 1.1 -38.05 0.95 L-33.75 0.8 -32.1 0.85 -31.95 0.05 -31.5 -1.3 -33.85 -1.2 -37.75 -0.8 -38.3 -0.75 -38.3 -0.65 -38.7 0.3 -38.75 0.3 -38.7 -0.7 -38.65 -0.7 -41.75 -0.75 M-31.3 -0.2 L-31.65 0.85 -29.6 0.9 -25.85 0.9 -24.85 0.9 -25.0 0.2 -24.75 0.2 Q-24.45 0.2 -24.45 -0.5 L-24.45 -0.9 -25.85 -0.95 -29.9 -1.2 -31.05 -1.25 -31.3 -0.2 M-21.05 -0.55 L-21.15 -0.75 -21.75 -0.8 -24.25 -0.9 -24.55 0.9 -21.95 0.95 -18.0 0.95 -17.15 0.95 -17.2 -0.8 -17.05 -1.15 -17.9 -1.05 -20.85 -0.75 -21.05 -0.55 M-16.5 -1.05 L-16.9 0.95 -14.0 0.95 -10.35 1.0 -10.2 -0.3 -10.0 -1.05 -10.15 -1.05 -14.1 -1.25 -16.45 -1.2 -16.5 -1.05 M-6.15 -1.1 L-9.55 -1.05 -10.05 1.0 -9.85 1.0 -6.05 1.0 -3.65 0.95 -3.15 -0.4 -2.85 -1.15 -6.15 -1.1" fill="#5a493f" fill-rule="evenodd" stroke="none"/>
  </g>
</svg>
