<?xml version="1.0" encoding="UTF-8" standalone="no"?>
<svg xmlns:xlink="http://www.w3.org/1999/xlink" height="194.65px" width="305.3px" xmlns="http://www.w3.org/2000/svg">
  <g transform="matrix(1.0, 0.0, 0.0, 1.0, -334.7, -85.85)">
    <path d="M511.8 162.05 L450.0 162.05 Q444.7 168.25 434.1 178.75 419.6 193.2 413.55 197.7 L413.6 223.25 413.6 250.3 Q413.0 275.75 409.85 275.75 406.75 275.75 406.1 249.75 L406.1 223.5 406.15 203.35 Q401.95 201.4 385.65 180.0 L372.5 162.05 347.95 162.2 337.8 162.4 Q337.2 156.6 335.5 150.4 L334.8 147.95 334.9 146.25 Q335.5 136.0 335.6 123.3 L335.6 111.75 335.15 98.15 334.7 87.95 342.35 88.0 370.85 86.75 Q418.7 84.9 434.15 86.9 438.6 87.45 440.55 88.45 442.15 89.25 442.85 89.25 L523.1 87.25 640.0 89.35 640.0 161.8 Q623.2 161.6 593.85 161.75 L591.0 161.8 568.3 185.9 554.0 200.75 554.35 219.25 554.4 250.0 Q553.7 280.5 549.85 280.5 546.2 280.5 545.4 250.2 L545.35 219.6 Q545.35 213.1 545.7 202.9 L545.65 202.7 545.65 201.1 544.7 199.3 Q544.35 198.35 544.35 194.55 537.65 188.6 523.1 173.8 L511.8 162.05 M524.95 167.35 Q536.35 178.45 544.5 187.0 L544.85 162.5 544.85 161.95 519.4 162.05 524.95 167.35 M554.6 165.5 Q554.6 181.65 554.3 185.05 L553.9 188.8 556.95 185.9 570.35 174.0 Q572.1 172.1 575.65 166.9 577.75 163.85 579.35 161.85 L554.25 161.95 554.6 165.5 M384.7 165.35 L406.25 189.75 406.4 182.55 Q406.75 171.4 407.5 162.05 L381.45 162.05 384.7 165.35 M440.2 162.05 L436.25 162.05 412.35 162.05 Q413.1 171.25 413.4 182.35 L413.5 187.6 423.4 177.65 Q432.65 168.5 440.2 162.05" fill="url(#gradient0)" fill-rule="evenodd" stroke="none"/>
  </g>
  <defs>
    <linearGradient gradientTransform="matrix(0.0, 0.293, -0.2841, 0.0, 320.0, 240.0)" gradientUnits="userSpaceOnUse" id="gradient0" spreadMethod="pad" x1="-819.2" x2="819.2">
      <stop offset="0.0" stop-color="#9fdfdf"/>
      <stop offset="1.0" stop-color="#ffffff"/>
    </linearGradient>
  </defs>
</svg>
