<?xml version="1.0" encoding="UTF-8" standalone="no"?>
<svg xmlns:xlink="http://www.w3.org/1999/xlink" height="132.25px" width="611.1px" xmlns="http://www.w3.org/2000/svg">
  <g transform="matrix(1.0, 0.0, 0.0, 1.0, 309.0, 12.75)">
    <path d="M98.05 66.65 Q96.75 65.2 100.95 68.2 L101.55 68.6 Q99.4 68.1 98.05 66.65 M113.15 13.4 Q114.3 13.9 115.75 14.25 L115.75 14.0 113.5 13.1 112.0 12.75 Q112.0 12.95 113.15 13.4 M120.65 16.1 L119.0 15.75 118.25 15.75 120.9 16.75 123.0 17.0 Q122.4 16.55 120.65 16.1 M125.75 39.25 Q127.55 40.3 129.3 45.45 130.75 49.75 130.75 51.35 L128.5 61.5 Q128.5 62.95 129.2 64.05 L129.9 65.5 Q129.95 67.0 123.25 73.0 130.9 77.85 130.95 79.8 130.95 81.75 133.1 84.1 135.25 86.45 131.65 89.65 128.0 92.85 128.0 95.35 L126.5 99.95 125.0 104.5 125.4 105.65 Q125.75 106.95 125.5 108.05 124.75 111.5 118.5 111.5 111.75 111.5 107.25 115.5 L103.75 118.25 Q101.55 119.5 98.5 119.5 95.1 119.5 92.55 117.75 89.75 115.8 89.75 112.85 92.45 110.5 95.5 108.15 101.65 103.4 103.5 103.25 L103.75 101.25 Q101.0 98.55 92.65 94.1 86.5 90.8 86.5 88.1 86.5 83.05 89.65 81.3 90.35 80.9 99.5 78.25 98.55 74.25 100.35 73.15 103.15 71.35 104.0 68.75 106.45 68.75 108.45 66.3 110.6 63.65 109.75 61.5 L104.25 59.25 102.95 58.45 Q102.25 57.7 102.25 56.1 102.25 54.75 103.05 53.65 104.65 51.5 108.5 51.75 L106.75 51.0 Q104.1 49.05 100.55 47.9 98.25 47.15 98.25 46.1 98.25 43.75 99.4 43.05 100.2 42.55 102.55 42.55 108.8 42.55 112.25 39.75 99.25 36.8 99.25 32.1 99.25 30.75 100.45 29.2 101.75 27.55 105.0 25.0 100.5 23.8 100.5 21.1 100.5 20.45 103.55 17.45 107.1 13.95 110.5 12.25 L108.1 10.0 Q107.0 8.75 107.0 8.1 107.0 6.65 107.4 6.15 L107.75 5.5 Q116.6 -0.4 125.3 3.9 128.55 5.5 130.75 8.0 132.75 10.3 132.75 11.85 132.75 14.6 135.4 17.55 138.0 20.45 138.0 23.1 138.0 26.25 133.0 31.85 129.05 36.2 125.25 39.0 L125.75 39.25" fill="#996600" fill-opacity="0.2" fill-rule="evenodd" stroke="none"/>
    <path d="M9.25 94.75 L9.15 98.5 Q8.25 101.25 4.0 101.25 0.8 101.25 -4.2 77.95 -5.6 88.5 -5.75 88.25 L-6.65 90.65 Q-7.75 92.25 -11.0 92.25 -14.15 92.25 -16.6 88.65 -19.05 85.0 -20.0 85.0 -23.65 85.0 -32.6 81.7 -42.75 77.95 -45.75 74.25 -46.0 74.8 -46.65 66.65 -50.55 74.75 -51.85 76.5 -53.2 78.25 -54.8 76.25 L-57.4 71.9 Q-60.75 65.5 -65.25 65.5 L-67.0 66.9 Q-68.8 68.25 -70.0 68.25 -73.05 68.25 -75.0 65.9 L-76.75 63.0 Q-77.3 64.35 -78.65 65.2 -80.35 66.25 -83.0 66.25 -87.85 66.25 -89.0 62.4 -89.3 58.2 -89.75 57.5 -93.95 58.9 -97.5 56.7 -99.3 55.65 -100.5 54.25 -101.75 54.25 -102.75 55.25 -103.75 56.25 -105.0 56.25 -107.45 56.25 -109.05 54.3 -110.15 52.95 -110.5 51.5 L-112.0 52.95 Q-113.4 54.0 -115.0 54.0 -115.95 54.0 -118.85 51.75 L-125.25 46.9 Q-135.05 39.75 -142.25 39.75 -148.1 39.75 -152.8 35.6 -157.25 31.65 -157.75 26.75 -158.0 27.55 -157.45 31.0 -157.5 34.0 -161.0 34.0 -162.55 34.0 -165.5 29.75 -168.25 25.8 -168.25 24.75 -168.25 24.1 -169.0 21.05 -169.75 18.0 -169.75 16.85 -169.75 15.6 -168.95 14.05 -167.7 11.5 -165.0 11.5 L-162.85 12.0 Q-160.65 12.35 -158.75 12.0 -158.2 3.0 -155.65 0.7 -153.65 -1.1 -149.9 1.25 L-142.85 6.65 Q-138.5 10.0 -136.0 10.0 -135.05 10.0 -133.05 8.5 -131.0 7.0 -130.0 7.0 -127.65 7.0 -124.6 9.4 L-121.5 11.75 Q-113.75 11.75 -104.5 16.65 L-98.45 20.0 Q-95.55 21.5 -94.25 21.5 -83.15 21.5 -75.6 24.35 -70.35 26.35 -65.1 30.65 -58.65 35.9 -56.85 36.9 -51.8 39.75 -45.0 39.75 -37.2 39.75 -9.05 50.5 19.05 61.2 26.0 66.75 L28.4 64.75 Q30.15 63.5 31.0 63.5 33.15 63.5 39.9 66.3 L49.75 70.75 Q53.25 72.5 69.5 78.0 88.9 78.0 97.5 88.0 103.75 95.25 103.75 106.75 L98.0 111.75 92.0 116.5 Q90.4 116.5 88.2 114.75 L85.5 112.25 84.55 114.8 Q83.35 116.5 80.0 116.5 75.7 116.5 69.75 107.0 L65.3 99.55 Q62.85 95.6 61.25 94.25 L64.9 100.25 Q68.5 106.35 68.5 108.1 68.5 109.55 67.7 110.95 66.3 113.5 63.0 113.5 L60.3 113.25 59.5 113.0 Q59.5 115.85 59.15 116.75 58.05 119.5 54.0 119.5 52.75 119.5 51.75 118.5 50.75 117.5 49.5 117.5 48.25 117.5 47.25 118.2 46.25 118.85 42.8 113.0 39.3 107.15 35.85 110.75 33.15 101.0 30.25 94.0 25.1 100.6 24.7 102.75 24.55 103.65 24.15 103.85 L20.0 104.25 Q15.8 104.25 13.25 100.7 10.9 96.4 9.25 94.75" fill="#996600" fill-opacity="0.2" fill-rule="evenodd" stroke="none"/>
    <path d="M126.5 3.45 Q130.5 5.4 130.5 9.25 130.5 10.5 131.4 12.65 132.25 14.75 132.25 16.0 132.25 19.95 134.75 24.45 137.25 28.95 137.25 29.85 137.25 32.7 136.25 34.15 134.25 37.0 128.25 37.0 128.25 37.75 128.5 38.5 130.15 40.25 131.15 41.95 132.25 43.75 132.25 44.85 L132.8 53.35 Q133.35 60.95 135.25 61.75 137.15 62.55 136.2 64.25 135.25 65.9 129.75 65.75 129.55 67.9 130.45 72.55 130.35 76.55 125.25 78.5 L126.8 81.4 Q127.25 82.7 127.25 84.5 L127.0 87.9 Q126.15 91.0 123.0 91.0 120.7 91.0 118.5 84.5 116.75 79.3 116.75 77.35 116.75 76.25 117.95 74.6 119.95 71.85 121.25 69.25 120.6 67.95 118.35 65.1 116.75 63.15 116.75 61.35 116.75 57.55 116.35 53.6 115.8 48.05 114.75 46.75 111.4 42.8 104.75 38.9 100.75 36.55 100.75 32.35 100.7 31.8 100.95 31.15 101.35 29.9 102.6 29.0 106.5 26.2 117.0 27.75 L116.5 27.5 Q113.5 26.25 111.7 24.4 110.0 22.65 110.0 21.0 110.0 20.0 107.5 18.0 105.0 16.05 105.0 15.1 105.0 9.65 109.0 6.1 112.45 3.0 117.75 2.3 122.8 1.6 126.5 3.45" fill="#996600" fill-opacity="0.2" fill-rule="evenodd" stroke="none"/>
    <path d="M33.7 78.8 Q31.25 76.4 22.85 74.75 14.45 73.05 3.55 71.95 -7.35 70.8 -8.55 66.55 -9.75 62.3 -14.7 60.95 -6.7 61.1 -26.65 53.95 -46.6 46.75 -50.65 46.75 -54.75 46.75 -57.75 47.75 -60.75 48.75 -62.0 48.75 -66.3 48.75 -68.15 46.4 -70.0 44.0 -72.0 44.0 -72.65 44.0 -75.05 45.9 -77.5 47.75 -82.0 47.75 -88.75 47.75 -88.75 43.0 -88.75 41.6 -87.15 39.6 -85.6 37.65 -84.0 37.0 L-86.0 36.5 -87.85 35.55 Q-89.1 34.75 -90.5 34.75 -92.0 34.75 -93.1 32.95 -94.25 31.1 -103.1 33.0 -111.95 34.9 -113.65 34.85 -115.35 34.8 -115.25 33.3 -115.15 31.8 -117.45 27.0 -143.95 22.9 -156.35 25.45 -168.8 27.95 -169.25 27.0 L-169.0 26.0 Q-169.0 24.35 -167.35 22.55 -165.45 20.5 -163.0 20.75 -166.6 19.8 -167.95 17.65 -168.75 16.45 -167.65 12.6 -166.55 8.75 -150.05 6.45 -133.6 4.15 -116.55 8.05 -99.5 11.95 -93.7 16.2 L-85.0 23.5 -80.8 22.4 Q-78.25 21.5 -77.0 21.5 -74.9 21.5 -69.85 25.55 -64.7 29.65 -64.25 32.0 -54.55 32.9 -20.15 47.85 13.6 62.5 16.0 62.5 33.25 62.5 50.25 72.4 L62.05 79.15 Q68.25 82.25 73.5 82.25 76.2 82.25 79.5 81.25 81.5 81.25 81.5 86.1 82.35 87.65 80.6 89.25 78.8 90.8 66.8 87.1 54.75 83.4 49.3 87.95 36.15 81.2 33.7 78.8" fill="#996600" fill-opacity="0.2" fill-rule="evenodd" stroke="none"/>
    <path d="M116.0 95.4 Q114.5 93.15 114.5 92.35 114.5 88.75 117.25 90.55 121.45 93.3 121.75 93.3 122.4 93.3 122.9 92.8 123.4 92.25 124.0 92.25 131.1 104.15 131.1 104.55 131.1 106.6 124.4 109.05 117.65 111.45 111.1 111.75 L111.05 113.6 Q110.65 114.55 108.5 114.55 107.55 114.55 105.65 113.4 103.75 112.25 103.5 112.25 L101.75 112.75 Q100.65 113.25 100.0 113.25 L95.95 111.8 Q91.95 110.3 91.3 110.3 90.85 110.3 88.75 111.45 86.3 112.8 83.0 113.3 L75.0 114.8 68.5 115.75 Q65.8 115.75 65.15 115.0 64.8 114.05 64.25 113.55 L63.8 114.9 Q63.15 115.75 61.5 115.75 60.4 115.75 58.7 114.25 L56.5 112.0 54.55 112.7 52.0 113.25 Q44.55 113.25 41.75 112.05 39.75 111.2 39.75 109.35 39.75 106.6 50.0 106.75 L52.45 106.25 56.25 105.75 60.4 107.15 Q64.95 108.5 67.5 108.5 69.35 106.5 77.05 105.65 L86.55 104.85 Q86.75 105.55 90.55 105.35 L94.6 105.0 95.4 105.6 96.0 106.05 Q98.35 107.0 99.75 107.0 L100.05 103.4 Q100.45 100.8 103.0 100.8 104.55 100.8 106.05 103.7 107.55 106.45 111.5 106.25 111.25 104.8 111.45 103.7 111.8 101.5 114.0 101.5 115.25 101.5 116.25 102.05 L116.0 101.75 Q115.35 100.95 115.7 99.75 116.15 98.35 118.0 98.05 L116.0 95.4" fill="#996600" fill-opacity="0.2" fill-rule="evenodd" stroke="none"/>
    <path d="M27.75 103.3 Q24.95 102.55 21.7 100.85 L16.05 97.9 Q8.5 94.25 -2.3 94.25 -2.9 94.25 -3.65 94.8 -4.35 95.3 -5.0 95.3 -6.45 95.3 -7.15 92.8 -7.85 90.25 -10.2 91.95 -12.55 93.6 -28.6 85.6 -41.65 86.6 -42.95 81.2 L-44.15 75.6 -44.05 75.3 Q-42.95 75.35 -29.8 80.65 -16.95 85.8 -10.05 85.8 -2.9 88.3 5.4 91.7 22.0 98.5 28.0 103.0 L27.75 103.3" fill="#996600" fill-opacity="0.2" fill-rule="evenodd" stroke="none"/>
    <path d="M-152.3 33.35 L-152.3 32.5 Q-152.3 31.4 -153.8 29.75 L-154.8 30.8 -152.5 33.3 -152.3 33.35 M-69.9 67.7 Q-78.95 64.5 -79.05 61.8 -90.85 59.8 -102.15 55.6 -111.7 52.05 -114.75 49.5 -117.0 47.55 -124.55 46.2 -131.5 45.0 -133.05 42.75 -134.65 40.4 -137.8 41.15 -139.6 41.55 -143.4 43.4 -146.7 44.7 -148.3 43.5 -150.45 41.9 -150.8 35.5 L-151.5 35.5 -151.7 36.75 Q-152.45 38.0 -155.0 38.0 -164.55 38.0 -168.45 31.0 -170.55 27.15 -170.55 22.5 -171.05 19.05 -169.95 15.7 -167.7 9.0 -159.75 9.0 L-153.05 9.55 -153.0 9.9 -152.25 10.05 Q-151.6 10.05 -151.1 9.15 L-149.25 5.65 Q-147.9 3.1 -145.65 6.2 -143.4 9.3 -144.15 7.55 -143.35 7.15 -142.35 5.55 -140.9 3.2 -138.0 4.8 -134.0 7.05 -129.2 8.05 -127.05 8.5 -127.05 10.8 L-127.25 12.15 Q-127.75 13.3 -129.5 13.3 L-138.55 12.8 -138.25 15.25 -139.65 14.95 Q-144.55 14.0 -149.0 14.0 L-150.2 15.25 Q-151.25 16.5 -153.0 16.5 -154.25 16.5 -155.1 15.4 -156.0 14.25 -159.75 14.25 L-163.15 14.55 Q-163.65 14.75 -163.65 15.5 -163.65 16.1 -163.2 16.2 L-162.0 16.45 Q-160.05 17.25 -158.8 22.0 -156.35 21.55 -154.25 23.3 L-153.4 22.05 Q-153.05 21.55 -150.75 21.55 -149.0 21.55 -148.25 22.3 -147.55 22.95 -147.55 24.35 -147.55 24.7 -148.3 25.9 -149.05 27.1 -149.05 27.55 L-147.5 30.05 Q-146.35 29.35 -145.7 27.9 -145.3 27.05 -143.5 27.05 -141.8 27.05 -141.25 28.6 L-141.05 30.5 Q-141.05 32.15 -141.6 33.0 L-144.55 36.5 Q-138.2 36.9 -117.1 45.15 L-85.0 58.0 -76.75 58.65 Q-75.75 59.0 -75.75 59.85 L-75.8 61.55 Q-72.85 61.8 -64.15 66.05 -55.0 70.45 -55.0 72.35 -55.0 73.6 -55.5 72.8 -59.1 71.1 -69.9 67.7" fill="#996600" fill-opacity="0.2" fill-rule="evenodd" stroke="none"/>
    <path d="M133.8 9.85 Q134.25 10.35 134.25 11.9 134.25 13.2 132.1 14.8 L128.0 17.8 129.2 19.4 Q129.75 20.35 129.75 21.35 129.75 23.55 127.6 24.55 129.2 24.7 129.6 26.4 L129.75 29.0 128.9 37.05 Q127.6 45.0 125.5 45.0 124.15 45.0 123.5 43.8 123.0 42.9 123.0 41.75 123.0 39.3 123.6 35.75 124.25 31.55 125.25 29.55 120.45 29.45 118.75 28.6 117.6 28.05 117.6 26.9 117.6 25.65 119.95 23.75 L122.25 21.5 Q122.25 20.9 121.75 20.3 121.25 19.7 121.25 19.05 121.25 18.6 122.0 17.4 L122.75 15.85 122.65 15.1 122.5 15.3 118.15 14.8 113.75 14.5 Q113.05 14.5 111.85 17.65 110.65 20.75 108.5 20.75 107.55 20.75 106.85 20.0 106.25 19.3 106.25 18.4 106.25 17.8 106.9 16.45 107.5 15.15 107.5 14.5 L111.2 7.6 Q114.85 0.8 115.0 0.8 L117.0 1.3 119.0 1.8 Q124.95 1.8 131.25 0.3 132.4 0.05 132.6 0.5 L132.75 3.1 Q132.75 4.45 131.0 6.7 129.25 8.95 129.25 9.5 129.25 10.25 129.4 10.25 L130.25 10.05 Q132.9 8.95 133.8 9.85" fill="#996600" fill-opacity="0.2" fill-rule="evenodd" stroke="none"/>
    <path d="M83.85 80.6 Q83.35 81.45 82.1 82.3 79.65 84.0 73.65 83.85 67.6 83.65 51.35 77.75 L28.55 69.45 Q22.0 67.05 21.55 68.3 20.85 69.5 18.7 66.8 16.5 64.1 4.6 60.3 -7.35 56.5 -15.75 55.25 -20.95 53.45 -30.75 47.05 -39.75 41.2 -46.3 39.55 L-47.0 41.1 Q-47.6 42.3 -49.0 42.3 L-52.55 40.15 Q-55.8 38.0 -58.3 38.0 L-59.05 38.9 Q-59.8 39.75 -61.0 39.75 -63.65 39.75 -71.25 33.85 -78.55 28.1 -78.55 26.85 L-78.4 25.9 -78.25 25.55 Q-76.6 25.6 -71.75 28.8 L-65.3 33.25 Q-65.4 32.25 -65.15 31.8 -64.7 31.05 -61.5 31.05 -47.7 31.05 -18.45 45.65 -11.15 49.3 1.1 55.7 10.15 60.25 12.4 60.25 L21.25 59.75 Q22.35 60.0 29.0 65.05 33.65 68.15 38.35 67.9 43.55 67.65 49.75 71.05 56.35 74.65 70.95 77.75 L83.85 80.6" fill="#996600" fill-opacity="0.2" fill-rule="evenodd" stroke="none"/>
    <path d="M-100.8 11.6 L-100.9 13.75 Q-101.25 14.95 -102.55 16.3 -99.8 16.45 -98.85 17.65 L-98.5 18.9 Q-98.5 20.0 -99.3 20.8 -89.65 20.2 -87.85 21.05 -87.05 21.4 -85.7 22.7 -83.95 24.55 -82.25 25.8 L-82.5 26.25 -85.15 27.1 -88.0 27.5 Q-89.1 27.5 -90.65 26.25 -92.25 25.0 -97.3 25.0 -101.0 25.0 -102.4 26.4 -103.8 27.8 -105.0 27.8 -106.55 27.8 -107.05 26.7 L-107.45 24.3 Q-108.0 20.8 -112.5 20.8 L-114.5 21.3 -116.5 21.8 Q-117.4 21.8 -118.35 20.95 L-119.25 20.05 Q-123.75 20.05 -125.3 17.55 -126.25 16.05 -126.25 12.85 -126.2 11.8 -125.75 10.9 -124.8 9.05 -122.5 9.05 -119.55 9.05 -119.45 10.65 L-119.5 14.0 Q-114.85 8.1 -107.9 7.0 -100.8 5.85 -100.8 11.6" fill="#996600" fill-opacity="0.2" fill-rule="evenodd" stroke="none"/>
    <path d="M102.6 -0.85 Q105.75 -4.75 116.0 -4.75 122.25 -4.6 126.2 -3.65 L132.2 -1.6 Q139.95 1.25 155.75 1.25 157.3 1.25 156.95 0.9 L156.25 0.5 185.75 -0.4 216.35 -0.75 Q282.35 -0.25 283.1 0.25 L284.0 1.2 Q284.35 1.9 284.35 3.6 284.35 6.3 241.15 9.25 194.5 12.5 142.0 12.5 136.4 12.5 132.0 9.55 128.5 7.2 128.5 5.85 129.05 5.1 127.75 4.3 125.15 2.75 116.0 2.75 112.05 2.75 108.7 5.5 L102.9 11.5 Q94.5 20.25 81.5 20.25 L49.0 17.5 53.75 18.0 Q65.55 19.25 77.8 22.0 98.25 26.65 98.25 32.1 99.4 33.85 98.05 35.35 95.4 38.25 83.0 38.25 72.9 38.25 58.25 35.9 L45.0 33.5 8.4 31.2 -13.7 30.95 Q-22.05 30.85 -24.6 29.9 -27.5 28.75 -27.5 25.1 -26.0 21.75 -24.75 20.25 -26.0 19.75 -26.0 19.5 -57.25 15.65 -98.45 13.6 -109.2 13.1 -112.4 12.2 -116.25 11.15 -116.25 8.1 L-116.05 7.85 Q-114.55 6.65 -101.75 2.05 -85.6 -3.75 -76.5 -3.75 L-45.0 -2.1 0.25 0.5 Q11.0 1.1 96.35 3.0 99.15 3.0 100.5 1.8 101.35 1.05 102.6 -0.85" fill="#9fd26c" fill-opacity="0.3019608" fill-rule="evenodd" stroke="none"/>
    <path d="M302.1 18.5 Q302.1 22.8 301.85 23.2 301.0 24.6 295.8 25.3 L234.35 30.7 234.6 31.05 Q235.45 34.45 234.2 37.65 231.75 44.05 220.85 44.05 L205.0 41.3 Q186.5 37.55 171.5 32.7 165.6 30.75 136.55 22.65 120.25 18.1 120.25 15.85 120.25 0.6 211.2 6.8 243.5 9.0 273.7 13.05 302.1 16.85 302.1 18.5" fill="#9fd26c" fill-opacity="0.3019608" fill-rule="evenodd" stroke="none"/>
    <path d="M96.7 4.2 Q98.25 4.7 98.5 5.7 L98.5 8.0 98.35 9.8 97.75 10.25 82.9 11.25 Q62.6 11.6 -10.0 11.75 L5.75 13.3 24.95 14.8 Q48.0 17.05 48.0 21.75 48.0 23.5 47.5 24.0 45.4 26.0 37.5 26.0 26.95 26.0 -42.25 16.5 -114.0 6.7 -114.0 3.85 -114.0 2.15 -112.55 1.3 -108.8 -0.85 -97.0 0.0 5.2 2.15 77.4 2.8 93.5 3.15 96.7 4.2" fill="#9fd26c" fill-opacity="0.3019608" fill-rule="evenodd" stroke="none"/>
    <path d="M-100.75 5.85 Q-100.75 7.35 -101.1 7.8 L-101.5 8.25 -113.25 8.75 -113.2 10.45 Q-113.15 11.55 -113.25 12.0 -113.35 12.75 -114.25 13.5 L-114.8 13.8 Q-117.05 12.5 -118.35 10.95 L-115.9 7.65 Q-114.9 6.45 -114.9 4.8 -114.9 4.0 -115.15 3.35 -100.75 4.05 -100.75 5.85 M-157.65 18.15 L-157.75 20.0 -157.25 22.15 Q-156.9 23.3 -158.05 23.8 -161.2 25.25 -180.5 24.25 L-177.85 27.4 Q-176.75 28.95 -176.75 29.85 L-176.6 30.9 Q-176.55 32.0 -177.3 32.85 -179.55 35.5 -188.5 35.5 -194.45 35.5 -219.55 31.75 L-245.75 28.0 Q-259.15 28.0 -263.05 26.25 -265.25 25.2 -265.25 22.1 -265.25 20.1 -264.65 19.35 -264.0 18.45 -261.65 17.8 L-241.0 13.0 -244.75 12.5 Q-260.7 10.4 -285.9 9.4 -292.05 9.15 -294.0 8.4 -296.25 7.55 -296.25 5.0 -296.25 0.15 -274.25 1.3 L-245.35 3.5 -167.95 2.9 -165.7 4.3 Q-162.0 5.95 -161.45 9.45 L-160.5 14.75 Q-159.55 17.9 -157.65 18.15" fill="#9fd26c" fill-opacity="0.3019608" fill-rule="evenodd" stroke="none"/>
    <path d="M-82.25 10.9 L-82.5 11.8 Q-87.55 11.2 -110.75 11.2 L-118.1 11.2 -118.35 10.95 -117.0 9.05 -82.25 10.9 M-161.15 11.3 L-217.0 11.5 Q-197.1 12.15 -189.85 14.4 -183.5 16.35 -183.5 20.85 -183.5 22.95 -183.8 23.8 -184.65 26.5 -187.75 26.9 -186.15 29.9 -183.6 32.25 -182.0 33.75 -182.0 35.65 -182.0 39.2 -183.35 40.8 -186.4 44.3 -196.5 44.45 L-192.9 48.7 Q-191.75 50.25 -191.75 51.85 -191.75 55.0 -194.75 56.95 -199.05 59.7 -211.0 61.7 -222.2 63.55 -243.6 65.5 L-266.0 67.25 Q-269.05 67.25 -270.75 65.45 -272.5 63.6 -272.5 60.25 -272.5 58.45 -271.95 57.85 -271.3 57.2 -268.55 56.6 L-242.75 50.6 Q-242.85 50.5 -243.7 50.15 L-244.5 49.7 -283.85 44.95 Q-289.2 43.85 -291.25 42.1 -293.25 40.45 -293.25 37.2 L-292.35 34.95 Q-291.3 32.8 -290.0 31.2 L-290.5 30.6 Q-300.6 28.5 -303.65 27.1 -309.0 24.6 -309.0 19.8 -309.0 17.15 -306.9 15.55 -303.5 12.9 -295.25 13.65 L-300.0 13.05 Q-302.3 11.95 -303.35 10.65 -304.5 9.3 -304.5 7.3 -304.5 1.65 -292.0 0.15 -280.7 -1.2 -252.65 0.2 L-162.85 6.3 Q-161.75 7.6 -161.45 9.4 L-161.15 11.3 M-219.25 11.2 Q-231.8 9.35 -238.75 9.65 L-236.25 10.25 -219.25 11.2" fill="#9fd26c" fill-opacity="0.3019608" fill-rule="evenodd" stroke="none"/>
    <path d="M133.5 -3.15 L148.45 0.45 Q156.8 2.65 159.25 2.75 L275.2 6.8 Q285.4 7.25 287.15 8.6 287.95 9.2 287.95 10.45 L287.85 13.4 287.8 15.6 Q287.35 17.05 285.2 18.0 279.1 20.8 258.35 20.4 L274.05 25.3 Q276.85 26.4 276.85 29.4 276.85 31.5 276.55 32.3 L275.85 33.35 274.75 34.75 274.1 35.35 Q272.0 35.95 226.7 36.35 L235.45 38.3 Q246.25 40.9 255.6 44.05 264.75 47.1 264.75 48.05 265.0 49.0 264.6 49.95 L263.4 51.2 Q264.6 52.9 264.6 54.7 265.45 56.8 263.85 58.7 260.7 62.35 248.35 62.35 237.95 62.35 218.85 58.6 221.35 60.95 221.35 63.75 221.35 67.35 218.1 68.75 213.75 70.65 201.25 70.65 L173.5 69.4 166.85 69.65 158.0 70.75 Q157.15 70.75 155.6 68.65 L157.85 66.5 158.85 65.8 Q153.6 63.2 153.6 58.5 153.6 54.75 167.45 52.7 L179.7 51.4 168.35 50.15 149.75 48.15 Q142.35 47.05 139.45 45.1 136.25 42.95 136.25 38.5 136.25 38.05 137.2 35.85 138.25 33.35 139.25 32.05 130.75 31.55 127.65 29.05 125.5 27.25 125.5 23.85 125.5 21.45 127.2 19.9 130.25 17.1 139.0 16.05 L138.0 13.05 Q126.3 9.45 121.9 7.8 114.5 5.0 114.5 1.4 114.5 -6.85 133.5 -3.15" fill="#9fd26c" fill-opacity="0.3019608" fill-rule="evenodd" stroke="none"/>
    <path d="M-165.75 9.0 Q-165.75 10.95 -166.75 12.0 -168.6 14.05 -174.4 15.3 -190.65 18.85 -237.5 16.25 -236.5 17.7 -236.75 20.0 -236.75 20.45 -237.1 21.15 L-237.75 22.25 Q-238.85 24.6 -237.25 25.15 L-258.5 24.25 Q-280.65 24.25 -282.75 21.9 -283.45 21.1 -282.25 19.5 -280.8 17.5 -280.75 16.75 L-301.7 9.95 Q-308.5 7.55 -308.5 6.1 -308.5 4.8 -286.2 3.4 L-237.1 1.85 Q-165.75 1.2 -165.75 9.0" fill="#9fd26c" fill-opacity="0.3019608" fill-rule="evenodd" stroke="none"/>
    <path d="M-156.5 -0.25 L-155.95 -0.05 -157.65 0.8 -157.55 0.6 Q-156.85 0.15 -156.5 -0.25 M68.0 -3.25 Q88.05 -3.25 99.0 -0.2 108.25 2.35 108.25 6.0 L108.0 8.25 107.5 9.0 Q105.55 11.7 102.9 12.2 L97.7 11.75 91.75 10.6 Q88.15 10.3 85.0 11.75 86.75 12.9 86.55 15.5 86.4 18.25 83.75 19.25 89.5 25.6 100.2 26.85 104.45 27.35 105.85 28.2 108.0 29.6 108.0 33.5 108.0 36.85 105.8 38.4 100.85 41.9 85.75 40.25 L87.35 42.5 Q88.0 43.8 88.0 45.5 88.0 48.35 86.25 49.8 83.2 52.35 74.25 53.5 71.1 53.9 66.7 53.35 L59.2 52.3 Q50.1 51.35 44.0 56.0 42.95 57.45 41.45 58.1 38.8 59.25 31.0 59.25 20.8 59.25 17.05 57.5 13.75 56.0 13.75 52.1 13.75 50.3 14.5 49.1 15.8 47.15 19.5 45.75 -2.3 42.7 -26.15 40.85 L-59.15 38.7 Q-73.7 37.7 -79.25 36.15 -86.0 34.3 -86.0 30.25 -86.0 26.55 -83.8 24.6 -80.55 21.65 -72.5 21.7 L-108.6 19.75 -108.3 18.55 Q-108.3 16.7 -111.65 15.3 -116.2 13.45 -118.35 10.95 L-115.9 7.65 Q-114.9 6.45 -114.9 4.8 -114.9 3.9 -115.25 3.05 -86.8 2.75 -67.1 2.75 L-22.1 -0.25 Q19.2 -3.25 68.0 -3.25" fill="#9fd26c" fill-opacity="0.3019608" fill-rule="evenodd" stroke="none"/>
    <path d="M-179.6 -2.85 Q-179.6 -5.25 -174.0 -6.3 L-151.35 -7.55 -140.55 -6.45 -134.25 -5.4 Q-134.2 -5.4 -133.5 -5.75 L-132.05 -6.15 -123.35 -4.7 -112.65 -2.7 -117.15 -4.55 Q-118.05 -5.05 -118.05 -5.95 -117.9 -7.5 -116.45 -7.5 L-111.95 -7.0 -109.4 -6.45 Q-111.65 -15.0 -102.3 -1.25 L-102.35 -0.3 Q-102.45 0.25 -103.05 0.45 -99.85 1.4 -98.6 2.05 -97.35 2.7 -97.35 3.4 L-97.5 4.4 Q-98.05 5.3 -100.1 5.3 L-103.8 4.8 -106.5 4.25 -107.05 4.75 -108.15 5.7 -107.35 6.6 Q-106.85 7.25 -107.05 7.7 -107.7 9.05 -115.2 9.05 L-130.6 7.7 -157.5 6.3 Q-165.35 6.3 -168.75 7.55 L-172.35 8.75 Q-173.6 8.75 -174.15 7.8 -174.5 7.2 -174.5 6.4 -174.5 4.55 -171.75 3.45 -173.65 2.8 -174.2 2.0 L-174.5 0.85 Q-174.5 0.45 -177.05 -0.3 -179.6 -1.05 -179.6 -2.85" fill="#9fd26c" fill-opacity="0.3019608" fill-rule="evenodd" stroke="none"/>
    <path d="M-135.85 -5.2 Q-118.75 -5.8 -107.85 -3.45 -95.1 -0.75 -95.1 5.25 -95.1 7.55 -95.95 8.0 L-101.8 8.3 Q-120.25 7.75 -129.2 5.6 -155.6 4.55 -170.85 8.8 -174.65 8.5 -175.75 7.4 -176.6 6.55 -176.6 3.85 -176.6 0.7 -163.85 -2.05 -151.65 -4.6 -135.85 -5.2" fill="#9fd26c" fill-opacity="0.3019608" fill-rule="evenodd" stroke="none"/>
    <path d="M-155.05 -3.4 Q-148.8 -5.3 -128.85 -4.25 -115.35 -2.1 -111.6 -0.55 -108.1 0.9 -108.1 4.1 L-107.85 5.1 Q-107.85 6.0 -108.9 6.75 -112.1 9.0 -124.85 9.0 -127.4 9.0 -142.85 4.75 -158.1 0.5 -158.1 0.0 -158.1 -2.45 -155.05 -3.4" fill="#9fd26c" fill-opacity="0.3019608" fill-rule="evenodd" stroke="none"/>
    <path d="M131.5 -2.1 Q132.55 -1.55 131.5 -0.25 129.25 2.5 119.0 2.5 109.15 2.5 105.5 1.4 104.0 0.95 101.75 -1.0 119.15 -6.9 125.85 -6.85 131.5 -6.75 131.5 -2.1" fill="#9fd26c" fill-opacity="0.3019608" fill-rule="evenodd" stroke="none"/>
    <path d="M107.25 53.0 L107.4 52.5 109.85 52.7 110.5 53.0 Q110.35 53.4 108.6 53.4 107.4 53.4 107.25 53.0 M119.4 58.0 L115.3 57.75 117.55 56.85 Q119.3 56.35 119.4 58.0 M111.9 50.25 L116.55 50.4 114.65 50.7 110.0 51.15 107.8 50.75 111.9 50.25 M103.75 46.35 Q103.15 46.35 102.9 45.9 L104.55 44.95 Q105.45 44.3 105.75 44.25 L105.8 44.65 105.4 45.5 Q104.8 46.35 103.75 46.35 M110.35 41.5 L110.4 41.15 112.75 41.25 111.9 41.5 110.75 41.65 Q110.35 41.65 110.35 41.5 M107.05 37.5 L107.5 37.15 Q111.15 37.1 112.3 37.2 L114.25 37.5 112.55 37.75 110.5 37.85 108.6 37.75 107.05 37.5 M117.05 33.25 L117.75 33.0 119.15 33.0 119.25 33.25 118.0 33.5 117.05 33.25 M116.05 34.35 L116.15 34.75 Q116.15 35.4 116.0 35.15 L107.8 35.35 107.45 35.25 107.55 35.15 Q109.25 34.25 112.05 34.25 L116.05 34.35 M116.4 25.6 L111.5 26.15 110.4 26.0 109.75 25.75 112.85 25.25 Q115.7 24.95 116.4 25.6 M111.8 27.55 L115.25 27.75 111.55 28.0 108.8 28.55 Q109.1 28.1 108.65 28.15 109.7 27.7 111.8 27.55 M99.8 45.5 L99.9 45.35 101.5 45.25 101.5 45.5 Q101.35 45.85 100.5 45.85 L100.0 45.75 99.8 45.5 M116.5 13.25 Q120.5 12.9 120.65 14.25 L115.0 14.35 112.7 14.35 Q113.1 13.95 116.5 13.25 M106.05 19.25 L106.15 19.1 Q106.85 18.6 108.95 18.4 111.3 18.1 112.05 18.85 111.7 19.25 107.5 19.9 L106.5 19.6 106.05 19.25 M109.65 21.95 L106.55 22.0 Q108.4 21.15 110.15 20.9 113.4 20.4 119.75 20.75 L119.75 20.9 109.65 21.95 M114.0 8.6 L118.55 9.15 114.95 9.8 111.75 10.15 110.6 9.95 110.05 9.35 Q111.05 8.6 114.0 8.6 M113.15 10.7 L117.4 10.9 114.15 12.0 110.85 12.65 Q110.15 12.65 109.9 12.35 L109.75 12.0 Q110.75 11.0 113.15 10.7 M129.65 37.35 L129.25 37.65 Q128.15 37.05 125.3 36.55 L120.8 35.75 Q128.35 34.85 129.65 37.35 M126.9 45.0 Q126.9 45.65 126.75 45.4 L124.0 45.4 120.95 44.75 118.0 44.0 123.8 44.15 Q126.9 44.65 126.9 45.0 M130.15 35.1 L129.75 35.4 126.25 34.25 128.45 34.2 Q129.7 34.45 130.15 35.1 M124.55 29.35 L123.5 29.6 120.95 29.4 117.75 29.0 122.5 28.65 123.45 28.65 Q123.9 28.75 124.55 29.35 M128.8 27.6 L128.45 27.75 Q125.35 27.55 124.3 26.75 125.0 26.25 126.85 26.75 128.4 27.2 128.8 27.6 M129.65 25.85 L129.5 26.6 119.3 24.75 Q120.4 24.4 124.7 24.85 128.95 25.35 129.65 25.85 M130.0 23.75 L128.15 23.3 124.05 22.75 129.3 22.45 Q130.2 22.75 130.4 23.2 L130.3 23.65 130.0 23.75 M126.35 20.7 L123.6 20.6 122.3 19.75 126.85 20.05 128.25 20.35 Q128.95 20.6 128.9 20.7 L126.35 20.7 M128.5 17.65 Q128.5 18.3 128.3 18.25 L128.6 18.75 Q127.0 17.9 121.6 17.05 L116.55 16.85 Q117.4 15.9 122.15 16.25 128.5 16.7 128.5 17.65 M129.8 13.9 L129.65 14.0 120.8 12.55 120.8 12.45 126.35 12.9 Q128.7 13.3 129.8 13.9 M125.25 11.3 L122.8 10.5 122.9 10.35 Q123.85 10.05 125.6 10.35 127.55 10.7 127.55 11.5 127.55 12.15 127.4 11.75 L125.25 11.3 M122.75 6.75 Q124.25 6.05 125.4 6.4 L128.0 6.75 128.0 7.15 127.5 8.0 Q125.3 7.15 122.75 6.75 M125.75 9.75 L122.85 8.55 119.8 8.0 Q120.65 7.35 123.65 7.95 126.6 8.55 127.25 9.4 L127.0 9.75 125.75 9.75 M116.5 64.5 L107.75 64.0 115.6 63.65 116.5 64.5 M-168.95 19.15 L-169.2 18.8 -167.95 18.6 -167.95 18.9 -168.95 19.15 M-99.9 55.0 Q-99.9 54.6 -98.7 53.5 -97.35 52.3 -96.6 52.25 L-98.2 54.2 -99.35 55.85 -99.65 55.6 -99.9 55.0 M-95.75 54.4 L-95.6 54.4 Q-95.6 55.1 -96.1 56.5 L-96.35 56.5 -96.5 55.45 -95.75 54.4 M-82.5 58.25 Q-82.5 58.9 -83.9 60.25 -85.35 61.7 -86.25 61.75 L-84.4 59.35 Q-83.0 57.8 -82.5 57.85 L-82.5 58.25 M-88.15 57.45 L-86.85 56.25 -86.5 56.25 -86.35 57.0 Q-86.35 57.35 -87.5 58.05 -88.8 58.85 -89.0 59.15 -89.4 59.1 -89.4 58.9 -89.3 58.4 -88.15 57.45 M-83.7 54.1 L-81.25 50.1 -81.0 50.15 -83.0 54.35 Q-84.3 56.75 -86.1 58.6 L-86.35 58.35 Q-85.15 56.85 -83.7 54.1 M-125.6 46.1 L-123.75 43.1 -123.5 43.15 -124.3 44.85 -125.35 46.35 -125.6 46.1 M-132.75 40.35 L-132.75 40.15 Q-132.05 39.9 -131.25 40.15 -131.4 40.5 -132.25 40.5 L-132.7 40.5 -132.75 40.35 M-132.25 35.75 L-132.25 35.85 -135.15 37.75 -137.5 39.5 Q-138.0 39.5 -138.15 38.9 -137.6 38.0 -135.35 37.0 L-132.25 35.75 M-139.55 36.7 Q-137.5 35.5 -135.75 35.4 L-138.7 37.2 -141.5 39.0 -142.0 38.75 Q-141.45 37.8 -139.55 36.7 M-161.55 28.55 Q-162.05 28.55 -161.8 28.4 -160.1 27.25 -155.3 25.75 L-149.3 24.05 Q-160.3 28.55 -161.55 28.55 M-152.6 27.45 L-154.6 28.45 Q-156.5 29.3 -157.1 29.35 L-157.15 29.2 Q-153.05 27.45 -152.6 27.45 M-148.4 34.2 Q-150.4 35.0 -151.3 35.0 L-152.0 34.75 -152.0 34.6 -146.25 33.1 -146.1 33.25 -148.4 34.2 M-142.0 28.6 L-141.85 28.75 -147.8 30.3 Q-152.35 31.5 -154.0 31.5 -154.35 31.5 -154.45 31.3 L-154.5 30.9 Q-151.95 29.75 -149.05 29.25 L-148.45 28.8 -147.55 28.35 -147.55 28.4 -148.35 29.15 -147.9 29.1 -142.0 28.6 M-142.5 26.75 L-142.65 26.4 Q-140.05 25.2 -138.0 25.25 L-132.75 24.9 -131.2 25.0 -129.5 25.15 -135.2 25.55 Q-140.5 26.05 -142.5 26.75 M-161.5 12.3 Q-156.75 11.8 -151.65 12.3 L-162.75 13.25 -168.85 13.5 -168.3 13.15 -161.5 12.3 M-147.45 18.5 L-144.05 18.25 -138.1 18.55 -148.15 19.45 -151.15 19.3 -151.45 19.0 -147.45 18.5 M-149.3 15.85 L-149.3 16.15 Q-151.6 16.95 -156.55 17.4 L-163.1 17.75 -164.05 17.65 -164.7 17.4 -164.5 16.95 -154.35 16.1 -149.3 15.85 M-157.45 14.25 L-157.35 14.6 Q-157.35 15.1 -157.5 14.85 L-165.6 15.45 Q-167.4 15.75 -168.95 16.3 L-169.3 15.9 Q-168.5 14.95 -165.6 14.45 -162.3 13.9 -157.45 14.25 M-160.95 19.45 L-156.2 19.65 -168.1 21.55 Q-168.6 21.55 -168.4 21.3 L-168.35 21.15 Q-166.85 20.25 -164.35 19.9 L-160.95 19.45 M-157.7 23.75 L-157.55 23.8 -162.0 25.3 -165.5 26.5 Q-166.0 26.5 -165.9 26.35 L-166.0 25.6 Q-166.0 24.4 -162.6 24.05 L-157.7 23.75 M-130.2 19.0 Q-131.25 18.95 -131.25 18.65 L-126.2 18.35 -126.25 18.65 Q-126.35 18.9 -126.05 18.9 L-128.8 18.95 -130.2 19.0 M-139.0 22.6 L-140.75 22.25 -138.85 21.95 -140.25 21.95 -139.55 21.65 -136.7 21.6 -136.0 21.5 -130.25 21.25 -130.25 21.5 -130.5 21.7 -130.3 21.75 -130.6 21.75 -130.95 22.0 -131.5 22.25 -139.0 22.6 M-134.15 16.35 L-141.25 16.1 -135.4 15.65 Q-131.05 15.5 -128.95 15.75 L-126.6 15.6 -123.65 16.05 -123.6 16.45 Q-123.6 16.95 -123.75 16.7 L-125.2 16.75 -128.7 16.2 -134.15 16.35 M-132.45 12.1 L-136.1 12.3 -145.1 12.5 -147.65 12.9 -149.45 12.8 -151.0 12.7 -146.5 12.1 Q-145.9 12.0 -136.6 11.85 L-132.45 12.1 M-94.25 41.75 L-94.25 41.65 Q-93.65 40.2 -92.35 38.45 -90.9 36.45 -89.6 35.65 L-94.25 41.75 M-94.85 47.25 L-96.25 49.4 Q-97.25 50.9 -98.1 51.25 L-95.1 47.15 -94.85 47.25 M-100.85 30.25 L-100.25 30.1 -100.1 30.25 -100.85 30.25 M-110.3 47.5 L-110.0 47.35 -108.75 47.4 Q-109.05 48.0 -109.75 48.0 L-110.75 47.75 -110.3 47.5 M-115.4 46.6 Q-116.75 47.9 -117.85 48.25 L-115.7 45.6 Q-114.2 44.1 -113.1 44.25 L-115.4 46.6 M-114.5 49.0 L-114.5 48.9 -111.05 44.95 Q-108.8 42.7 -106.1 41.4 L-106.1 41.5 Q-108.45 42.9 -110.9 45.35 L-114.5 49.0 M-117.0 26.0 Q-114.65 25.5 -114.5 27.0 L-118.75 27.4 -121.1 27.25 Q-118.3 26.35 -117.0 26.0 M-110.5 20.8 L-111.0 20.85 -110.35 20.6 -110.5 20.8 M-110.15 20.35 L-110.35 20.6 -111.85 20.45 -110.15 20.35 M-108.1 20.75 Q-108.85 20.75 -109.0 20.25 L-106.75 19.45 -104.0 19.25 -106.0 20.2 Q-107.1 20.75 -108.1 20.75 M-111.55 13.1 L-116.75 12.5 -121.6 11.75 Q-120.15 11.55 -115.05 11.75 -109.5 12.0 -109.5 12.6 -109.5 13.1 -109.65 13.1 L-111.55 13.1 M-112.4 21.25 L-112.4 21.5 -120.75 22.1 -122.5 21.75 Q-120.2 21.0 -118.3 21.05 L-112.4 21.25 M-115.85 17.35 L-111.85 17.05 -105.85 17.35 -110.4 17.6 -115.85 17.35 M-114.1 15.0 L-114.15 14.7 -114.05 14.35 -114.0 14.4 -107.3 14.95 Q-107.3 15.45 -107.5 15.25 L-109.15 15.3 -111.0 15.15 -114.05 15.0 -114.1 15.0 M-108.2 10.65 Q-108.2 11.15 -108.35 11.15 L-109.8 11.15 -111.6 10.9 -114.65 10.25 -111.1 10.15 Q-108.2 10.25 -108.2 10.65 M-99.0 24.65 L-99.75 24.4 -100.4 24.25 -110.8 23.75 -114.35 24.0 -113.75 23.65 -103.5 23.25 Q-98.75 23.4 -98.75 24.4 -98.75 25.05 -99.0 24.65 M-2.75 93.75 L-1.15 90.05 Q-0.2 87.8 1.9 87.4 0.6 88.15 -0.45 90.75 -1.45 93.2 -2.75 93.75 M-3.0 89.35 L-2.75 89.4 Q-2.8 89.95 -3.65 91.05 L-4.75 92.5 Q-4.9 91.95 -4.05 90.8 L-3.0 89.35 M-13.85 88.15 L-13.0 86.95 Q-12.05 85.9 -11.5 85.75 -11.45 86.3 -12.3 87.6 L-13.5 89.1 -13.75 88.75 -13.85 88.15 M-11.6 74.9 L-13.35 77.9 Q-14.45 79.8 -15.15 80.15 -13.8 76.8 -11.6 74.9 M-36.0 78.0 L-34.35 75.05 Q-33.05 73.05 -31.6 73.6 -32.55 74.4 -33.85 76.4 -34.75 77.75 -36.0 78.0 M-33.25 66.75 Q-33.0 66.8 -33.0 67.15 -33.0 67.65 -34.8 69.55 L-37.5 72.25 -37.5 72.15 -35.6 69.4 -33.5 66.75 -33.25 66.75 M-4.0 60.05 L-3.85 59.25 -3.5 59.25 -3.6 61.35 -3.75 61.35 -4.0 60.05 M-41.5 77.6 L-41.65 77.5 Q-39.75 74.6 -38.75 73.9 L-38.6 73.9 -38.8 74.15 -39.0 74.65 Q-39.0 75.6 -41.5 77.6 M-62.85 66.4 L-62.0 65.4 -61.85 65.4 -61.95 66.05 -62.6 66.6 -62.85 66.4 M-50.35 50.15 Q-51.0 51.6 -52.75 54.0 L-52.85 53.9 -50.5 50.15 -50.35 50.15 M-41.0 71.65 L-40.85 71.75 Q-41.85 73.95 -42.85 74.5 L-41.0 71.65 M-48.5 38.0 Q-48.5 38.65 -49.55 39.85 -50.6 41.05 -51.4 41.25 L-49.95 39.3 Q-49.0 38.1 -48.5 38.0 M-49.35 42.4 L-49.5 42.25 Q-49.2 40.95 -48.15 39.6 -47.0 38.1 -46.0 38.1 -48.05 41.25 -49.35 42.4 M-59.0 45.75 L-53.0 37.35 -52.75 37.5 Q-55.75 43.15 -58.85 45.9 L-59.0 45.75 M-56.5 36.1 L-56.65 35.9 Q-56.5 35.15 -55.75 34.75 L-55.75 34.85 -56.5 36.1 M-24.35 49.25 L-23.5 48.4 Q-23.55 49.0 -24.35 49.85 L-25.85 50.85 -26.1 50.6 -24.35 49.25 M81.65 114.5 L81.3 114.5 80.9 110.35 Q81.6 110.9 81.7 111.45 L81.75 112.85 81.65 114.5 M87.3 107.4 Q87.8 107.45 87.9 108.5 L87.9 110.15 Q87.9 112.6 87.5 114.25 87.0 112.7 87.0 110.05 87.0 108.15 87.3 107.4 M85.65 107.65 L85.8 107.65 Q86.1 110.5 85.8 113.65 L85.55 113.65 85.4 110.8 Q85.4 109.25 85.65 107.65 M85.0 101.75 Q85.0 100.05 85.3 99.15 85.8 99.3 85.9 100.25 L85.9 101.65 Q85.9 104.0 85.4 105.35 85.0 104.1 85.0 101.75 M81.55 103.55 L81.25 102.5 Q81.25 101.5 81.4 101.15 L82.1 102.3 82.25 103.15 82.05 105.5 81.8 105.5 81.55 103.55 M89.55 102.75 L90.0 102.75 90.05 107.15 89.8 111.75 89.55 111.75 89.3 107.25 89.55 102.75 M96.55 111.25 Q96.4 110.1 96.4 108.2 96.4 106.35 96.65 105.4 97.75 106.05 96.75 111.5 L96.55 111.25 M99.8 109.9 Q100.4 110.3 100.4 111.05 L100.15 113.75 99.65 113.5 99.5 111.05 Q99.5 110.3 99.8 109.9 M94.05 104.0 L94.5 104.0 94.55 106.2 94.3 108.85 94.15 108.85 Q93.8 107.5 93.8 106.2 L94.05 104.0 M103.3 114.5 L103.05 114.5 101.7 110.55 Q100.5 107.15 100.5 106.55 100.5 105.6 100.8 104.9 102.25 105.8 102.7 109.2 L103.3 114.5 M109.55 107.5 Q110.65 107.8 111.0 111.0 L110.8 112.9 110.55 112.9 109.9 110.15 109.4 107.75 Q109.4 107.4 109.5 107.4 L109.55 107.5 M104.35 108.5 L104.55 108.4 Q105.7 108.95 106.0 110.8 L106.15 109.4 106.3 109.4 106.3 110.9 106.05 111.75 106.05 112.0 105.8 114.75 105.65 114.75 105.25 112.5 105.15 112.4 105.2 112.35 104.85 110.95 104.3 108.85 104.35 108.5 M106.5 104.35 Q106.5 104.1 106.95 103.95 107.3 105.9 107.8 107.5 L107.65 107.5 106.5 104.35 M111.65 108.9 L111.4 109.1 108.9 103.9 106.15 98.6 Q108.35 100.15 109.95 103.45 111.2 106.1 111.65 108.9 M112.1 104.65 L112.3 104.4 Q113.8 106.15 115.05 108.6 116.3 111.0 116.65 112.9 L116.3 113.0 113.85 108.55 Q112.0 105.45 112.0 105.15 L112.1 104.65 M116.0 101.15 L116.05 101.25 Q117.2 101.55 118.45 104.45 L120.15 108.9 119.9 109.1 Q115.9 102.4 115.9 101.5 115.9 101.15 116.0 101.15 M122.0 103.65 L121.9 104.0 Q120.9 103.15 120.1 101.95 119.25 100.65 119.15 99.85 119.7 100.0 120.9 101.6 122.0 103.15 122.0 103.65 M122.65 100.4 L126.1 104.75 128.0 107.7 127.8 109.25 127.55 109.25 Q127.05 107.6 125.2 104.7 L122.65 100.4 M35.9 104.8 Q37.7 102.2 37.85 101.05 L38.05 101.05 Q38.25 102.4 35.95 104.9 L35.9 104.8 M43.45 103.2 L43.55 104.85 Q43.55 105.75 42.2 107.7 40.8 109.7 40.0 109.75 L43.1 103.15 43.45 103.2 M50.25 103.8 L50.5 104.3 49.7 106.7 48.5 109.4 48.25 109.25 48.8 106.5 Q49.15 104.75 50.0 103.75 L50.25 103.8 M55.45 109.9 Q55.95 106.8 56.55 105.0 L57.0 105.0 56.1 110.2 Q55.55 113.05 54.8 115.0 L54.55 115.0 55.45 109.9 M51.95 109.3 L52.05 110.25 Q51.35 112.95 50.15 112.95 49.7 112.95 49.6 112.45 L50.75 110.25 Q51.25 109.0 51.95 109.3 M56.9 110.1 L57.5 110.0 Q57.8 110.3 57.75 111.3 57.7 112.45 57.05 112.85 L56.8 112.75 56.8 110.25 56.9 110.1 M67.35 113.4 L67.9 112.35 68.15 112.35 Q68.15 113.8 67.3 115.9 L67.05 115.9 66.9 114.6 67.35 113.4 M69.3 112.0 L69.75 112.0 69.5 114.75 69.25 114.6 69.15 113.3 Q69.15 112.35 69.3 112.0 M66.8 102.25 L67.25 102.25 Q67.35 108.2 66.55 112.1 L66.3 112.0 Q66.05 110.5 66.05 107.75 66.05 106.35 66.3 105.15 L66.8 102.25 M62.3 105.0 L62.75 105.0 Q62.9 108.35 62.05 108.9 L62.15 108.75 Q62.15 106.1 62.3 105.0 M61.3 110.15 Q61.8 110.3 61.8 111.15 L61.55 112.45 61.25 113.9 60.8 113.9 60.55 112.8 60.55 111.65 Q60.65 111.0 61.3 110.15 M71.25 111.15 Q71.25 108.8 71.75 108.0 72.25 109.35 72.25 111.55 72.25 113.7 71.75 115.25 L71.5 115.1 Q71.25 113.75 71.25 111.15 M76.3 110.0 L76.75 110.0 77.15 113.25 76.9 114.5 76.3 114.25 76.0 111.8 Q76.0 111.0 76.3 110.0 M77.9 107.5 L78.15 105.9 78.3 105.9 Q78.3 107.05 78.95 109.85 79.55 112.7 79.55 113.65 L79.4 115.5 79.0 115.5 78.25 111.35 Q77.9 109.2 77.9 107.5 M72.5 95.5 Q72.5 91.3 73.15 88.15 L73.3 88.15 Q73.55 89.95 73.25 93.0 L72.75 98.0 72.55 97.9 72.5 95.5 M61.0 91.6 L61.25 91.7 61.15 91.9 62.15 91.9 Q63.25 91.55 63.25 90.75 L61.75 90.65 Q61.2 90.85 60.85 91.6 L61.0 91.6 M69.65 78.9 L69.8 78.9 69.55 81.25 69.3 83.75 69.15 83.75 Q69.0 83.25 69.0 82.5 69.0 81.5 69.65 78.9 M75.3 84.85 L75.05 84.75 74.9 83.2 75.8 79.75 76.25 79.75 75.3 84.85 M77.05 79.65 Q77.55 79.8 77.6 80.3 L77.55 81.05 77.25 84.85 77.05 84.65 77.0 84.5 76.8 81.15 Q76.8 80.0 77.05 79.65 M54.5 90.55 L54.3 91.05 53.45 94.2 Q52.45 97.0 51.65 97.6 L51.45 97.45 52.4 93.45 Q53.15 91.35 54.6 90.05 L54.75 90.35 54.5 90.55 M60.15 91.85 L60.25 91.8 60.25 90.5 63.65 90.35 63.65 91.65 62.4 92.4 60.25 92.4 60.25 92.15 60.05 92.0 60.15 91.85 M42.8 97.25 L42.85 98.3 41.55 100.55 39.85 102.85 39.7 102.55 42.35 97.2 42.8 97.25 M45.95 75.1 Q46.4 75.45 46.4 76.1 L46.1 77.35 Q45.65 78.05 45.45 78.85 L45.05 78.8 45.0 78.65 44.8 77.5 Q44.8 76.45 45.95 75.1 M54.75 83.0 L54.3 82.9 54.3 82.5 Q55.6 81.75 56.75 81.75 L56.75 82.0 55.75 82.7 54.75 83.0 M59.5 76.75 Q60.2 77.4 59.75 79.3 59.3 81.3 57.9 81.75 58.1 81.25 58.4 81.0 L58.65 80.85 Q58.65 80.15 59.5 76.75 M44.1 73.9 L44.65 71.9 Q45.05 72.15 45.05 72.95 L44.4 74.4 43.35 75.85 43.25 75.75 44.1 73.9 M42.8 72.45 Q42.8 72.9 42.0 73.95 L40.75 75.2 40.65 75.1 42.35 71.7 42.75 71.75 42.8 72.45 M20.25 95.25 L19.6 97.6 Q19.1 99.15 18.05 99.75 L17.9 99.5 Q17.8 99.6 17.8 99.0 17.8 98.35 18.4 97.15 19.2 95.55 20.25 95.25 M24.4 94.75 L24.5 95.0 23.3 97.3 21.5 100.0 21.4 99.9 23.8 94.65 24.4 94.75 M25.65 89.4 L25.8 89.4 25.75 91.1 Q25.6 91.9 24.75 92.5 L24.65 92.4 24.85 90.75 Q24.9 89.85 25.65 89.4 M1.5 93.25 L1.15 92.9 2.75 91.1 Q3.9 90.1 4.8 90.65 L1.5 93.25 M2.55 60.0 Q3.1 60.45 2.5 61.6 L1.0 63.25 0.9 63.15 1.8 61.45 Q2.3 60.3 2.55 60.0 M2.25 57.25 L1.05 60.05 Q0.15 61.65 -0.85 62.5 L-1.0 62.25 0.35 59.75 1.8 57.25 2.25 57.25 M18.05 61.75 L18.4 61.75 17.75 63.25 Q16.95 64.3 16.3 64.25 17.8 62.6 18.05 61.75 M38.65 72.0 L38.75 72.25 37.15 74.45 35.25 76.65 35.0 76.5 36.6 73.95 Q37.65 72.45 38.65 72.0 M34.5 69.25 L34.55 69.6 Q30.95 73.5 26.65 81.25 L26.15 81.0 Q28.0 77.0 29.5 74.75 31.75 71.2 34.5 69.25 M30.45 67.9 L31.15 66.65 31.3 66.65 31.5 67.35 30.45 67.9 M37.75 67.25 L38.0 67.25 38.25 67.7 Q38.25 69.5 37.65 70.15 L34.8 73.15 34.75 73.0 36.1 69.9 Q37.05 67.9 37.75 67.25 M22.15 62.25 L22.25 62.5 19.8 66.2 17.5 69.5 17.4 69.4 19.1 65.6 Q20.2 63.2 22.15 62.25 M27.4 70.75 L27.4 70.6 28.95 69.35 Q28.1 70.6 27.4 70.75 M122.05 90.25 Q122.9 90.5 124.0 92.1 L125.65 94.65 Q124.95 94.25 123.75 92.65 L122.05 90.25 M124.5 78.25 L122.4 77.35 121.15 76.9 Q122.05 75.75 125.8 78.15 L125.75 78.25 124.5 78.25 M122.5 79.25 Q122.5 79.6 123.75 80.0 L122.8 80.15 Q122.15 79.8 121.3 79.5 L122.5 79.25 M125.4 69.25 L125.5 69.25 126.0 70.35 126.25 71.25 Q126.25 71.85 124.25 71.85 123.45 71.85 123.3 71.15 L123.3 70.2 123.4 68.9 125.15 69.15 Q125.0 69.4 124.05 69.65 L124.05 71.1 124.8 71.15 125.75 70.85 125.75 70.25 125.4 70.15 Q125.25 70.05 125.25 69.65 125.25 69.3 125.4 69.25 M128.15 65.85 L127.75 66.15 Q125.45 65.7 124.3 65.0 L124.75 64.9 127.7 64.95 128.15 65.85 M122.05 61.75 Q122.95 61.05 126.5 61.75 130.0 62.45 130.0 63.15 L130.0 63.6 129.8 63.65 129.25 63.75 122.05 61.75 M129.05 51.0 Q129.05 51.65 128.9 51.25 125.65 50.15 122.55 49.5 125.15 49.15 127.0 49.5 129.05 49.95 129.05 51.0 M131.05 53.85 L130.25 54.0 Q127.95 54.0 127.0 53.5 L125.9 52.65 128.4 52.65 Q130.5 52.85 131.05 53.85 M116.2 89.85 L116.3 89.9 Q116.95 90.0 118.15 91.85 119.25 93.6 119.25 94.15 L119.15 94.5 117.15 92.2 116.05 90.25 Q116.05 89.9 116.2 89.85 M118.15 84.25 L118.5 84.25 119.05 84.1 119.05 83.5 Q118.55 82.9 118.15 83.0 L118.15 84.25 M117.75 82.6 L118.5 82.5 118.95 83.05 119.3 83.7 Q119.3 84.65 118.0 84.65 L117.65 84.6 117.75 84.5 117.75 82.6 M114.55 75.4 L112.55 74.95 110.9 73.9 Q112.45 73.9 114.55 75.4 M100.65 96.55 L100.15 94.4 100.15 93.9 100.3 93.75 100.75 93.75 Q100.75 94.8 101.4 96.8 L102.0 98.85 Q102.0 99.5 101.8 99.15 L101.55 99.15 100.65 96.55 M89.75 85.4 L89.8 85.0 Q90.5 85.35 90.7 86.05 L90.75 87.15 90.55 89.0 90.3 89.0 90.05 86.7 89.75 85.4 M86.05 84.65 Q86.05 83.15 86.3 82.4 86.8 82.55 86.8 84.55 L86.55 89.5 86.4 89.5 Q86.05 87.2 86.05 84.65 M88.25 82.65 Q88.25 80.6 88.55 79.65 89.15 80.05 89.15 82.7 89.15 85.5 88.8 87.6 L88.55 87.5 Q88.25 85.5 88.25 82.65 M97.55 82.45 L97.75 83.0 97.55 84.35 96.7 83.85 Q96.5 83.7 96.5 83.0 L96.6 82.4 97.0 82.0 97.55 82.45 M98.55 81.5 L98.65 81.35 Q99.9 81.5 101.55 84.3 103.0 86.75 103.0 87.65 L102.9 88.0 Q101.9 87.1 100.9 84.7 100.0 82.5 98.55 81.5 M100.3 79.95 L100.75 79.9 Q103.55 82.7 103.55 84.4 103.55 85.05 103.4 84.75 L103.0 84.75 101.4 82.3 100.15 80.4 Q100.15 80.0 100.3 79.95" fill="#5b5546" fill-rule="evenodd" stroke="none"/>
    <path d="M19.3 -2.5 L22.75 2.8 24.8 0.45 Q26.4 -0.95 27.7 0.8 27.9 1.3 26.8 1.3 L25.95 1.0 25.45 0.55 24.0 2.0 22.75 2.8 23.15 3.45 23.15 3.6 Q23.45 3.9 22.7 3.9 21.7 3.9 20.6 1.6 L19.4 -1.2 19.6 2.0 Q19.6 2.5 18.95 2.6 L17.75 2.6 15.35 2.2 14.0 1.65 11.7 1.2 10.9 0.9 8.8 0.9 9.15 1.7 9.65 2.45 9.5 2.9 Q9.8 3.15 9.05 3.15 8.55 3.15 7.85 2.05 L7.25 0.85 Q7.25 0.0 7.4 -0.1 L11.05 -0.45 13.65 0.4 16.85 1.2 18.35 1.2 18.2 -0.15 18.05 -1.35 Q18.05 -4.05 19.3 -2.5 M37.1 -1.9 L37.1 0.15 Q37.15 1.5 38.0 2.45 L37.9 2.85 37.3 3.05 Q36.05 3.05 36.0 1.85 L36.2 -0.15 34.95 1.8 33.5 3.9 31.85 3.1 Q30.95 2.45 30.95 1.65 L31.05 1.05 31.25 0.9 31.95 1.6 33.2 2.45 34.95 -0.05 Q36.35 -2.0 37.1 -1.9 M30.6 -7.2 L30.6 -6.85 30.15 -3.55 Q29.7 -0.7 29.7 1.55 L29.6 2.05 28.95 2.4 28.45 1.95 28.35 1.3 Q28.35 -3.3 30.45 -7.25 30.55 -7.15 30.6 -7.2 M45.5 -1.85 L45.55 -1.3 45.05 -0.1 44.15 1.2 45.25 2.05 49.65 2.2 55.4 2.75 55.5 1.4 56.9 2.3 56.7 2.85 57.75 2.95 57.6 2.65 57.65 2.65 58.05 2.85 57.9 2.95 58.4 3.0 Q60.6 3.9 62.95 4.0 L62.45 4.2 58.6 4.4 52.45 4.15 Q47.1 3.75 45.15 3.15 L44.6 3.2 Q43.75 3.2 43.2 2.15 L42.8 0.75 42.8 0.5 Q39.8 2.6 39.2 2.6 L38.3 2.4 42.1 -0.5 Q44.65 -2.35 45.4 -2.05 L45.5 -1.85 M134.6 -0.45 Q134.7 -1.2 135.25 -1.9 135.75 -1.75 135.6 -0.75 135.5 0.45 135.75 0.75 L137.45 0.85 137.55 0.85 Q138.2 0.05 139.2 -0.15 140.5 -0.35 141.15 1.1 L140.4 2.0 139.6 1.0 138.75 0.5 Q138.9 2.0 137.75 2.0 L137.3 1.85 137.25 1.6 137.25 1.3 137.4 1.1 136.5 1.1 135.0 1.6 134.6 1.5 134.65 1.35 134.55 1.3 134.55 0.95 134.6 -0.45 M110.5 -7.55 Q110.5 -8.2 111.0 -8.4 L113.6 -6.1 116.75 -3.25 117.05 -4.75 Q118.35 -4.4 119.6 -3.5 L121.0 -2.55 121.0 -4.25 121.3 -7.25 Q123.2 -6.95 124.0 -5.25 L124.5 -3.65 Q126.25 -4.5 128.7 -5.25 131.65 -6.2 132.5 -6.0 L132.5 -5.75 130.75 -2.75 Q131.95 -2.55 131.85 -2.15 131.8 -1.8 132.05 -1.8 L132.8 -2.2 134.3 -2.0 134.3 -1.9 132.0 -0.75 130.5 0.1 130.05 0.0 130.05 -0.25 130.05 -2.25 131.05 -4.75 Q130.05 -3.85 128.05 -3.3 L125.0 -2.9 124.5 -2.95 124.25 -3.0 Q123.15 -3.3 122.45 -4.4 121.95 -5.2 121.9 -5.7 L122.0 -3.7 Q122.05 -2.35 121.5 -1.75 L121.0 -2.0 121.0 -2.2 120.5 -2.15 Q119.55 -2.15 118.8 -2.75 L117.55 -3.65 117.4 -2.4 Q115.4 -3.05 113.95 -4.5 L112.0 -6.5 112.0 -5.5 Q113.0 -2.0 113.0 -0.95 113.0 -0.4 112.5 0.25 L112.0 0.0 111.2 -3.75 110.5 -7.55 M106.3 -0.4 Q105.0 -1.45 104.75 -2.0 106.6 -3.45 109.35 -2.45 111.8 -1.6 111.8 -0.75 111.8 -0.1 111.5 -0.4 L109.95 -0.85 108.15 -1.0 108.4 -0.1 Q108.45 0.25 109.0 0.6 L109.0 2.1 106.8 2.15 102.45 2.05 100.4 2.55 Q100.25 3.4 99.75 3.4 L99.05 3.3 98.75 3.15 98.65 2.9 93.65 3.65 81.85 4.5 Q68.8 4.5 65.65 4.2 L62.05 3.75 93.9 1.7 99.15 1.6 Q99.55 0.85 99.75 0.85 L108.0 1.15 108.0 1.0 106.3 -0.4 M181.15 -2.4 L180.65 -3.85 180.75 -4.3 180.9 -4.25 Q182.5 -4.1 184.55 -2.15 L187.3 0.65 189.65 -0.95 189.8 -0.75 Q189.8 -0.15 189.25 0.9 L188.4 2.15 Q188.3 2.1 188.35 1.85 188.4 1.65 188.05 1.65 185.95 1.65 182.3 -2.7 L182.15 -2.6 182.5 -0.75 182.75 1.05 182.75 2.05 Q182.5 3.0 181.4 3.0 180.8 3.0 180.6 2.55 L180.4 2.55 179.1 2.2 177.25 1.65 175.75 2.6 175.0 2.95 Q175.0 3.4 174.65 3.65 L172.25 3.65 171.75 3.9 164.3 4.1 156.65 4.15 148.05 3.65 140.3 2.85 143.05 2.5 143.65 2.4 148.2 2.7 Q153.85 3.05 173.25 2.9 L172.9 2.5 174.1 1.3 Q174.75 0.8 174.4 0.05 L178.1 0.95 180.6 1.75 181.1 0.85 181.65 -0.5 181.15 -2.4 M135.9 90.65 L136.05 90.75 Q135.75 91.15 135.75 91.8 L135.8 92.6 136.25 92.6 136.25 91.1 136.55 91.1 136.75 92.3 Q136.75 93.1 136.0 93.25 L135.3 93.15 135.15 93.0 135.15 91.15 135.9 90.65 M129.9 88.35 Q130.25 88.35 130.25 89.85 130.25 91.0 128.9 94.4 L129.35 95.25 Q129.75 96.0 129.75 96.65 129.75 98.0 129.2 98.35 L129.35 99.6 129.3 102.25 Q129.3 104.25 130.1 105.5 130.9 106.75 130.9 107.3 L127.75 110.5 Q126.35 110.5 125.45 109.45 124.4 108.2 123.8 108.0 L122.8 109.6 Q123.0 109.7 123.0 110.15 L122.9 110.5 Q121.75 110.85 121.2 111.5 120.8 112.0 120.8 112.5 120.8 113.35 122.3 113.35 L122.55 113.35 122.9 112.9 123.05 112.9 122.85 113.35 Q124.3 113.2 124.3 112.15 L123.7 111.45 122.8 110.75 124.0 110.6 124.65 112.4 Q124.65 112.95 123.75 113.5 122.65 114.25 120.85 114.25 120.2 114.25 119.8 113.35 L119.55 112.25 Q119.55 111.55 120.4 110.8 L117.55 110.9 Q117.75 113.4 116.5 113.4 L115.55 113.1 115.3 112.6 Q115.9 111.95 116.1 111.2 L116.3 110.25 Q116.8 107.75 118.85 108.35 120.2 108.7 120.6 109.4 L121.5 108.1 Q122.85 106.5 124.25 106.5 125.45 106.5 126.15 107.55 126.95 108.7 127.5 108.85 127.5 108.2 129.0 106.9 L128.2 106.05 128.0 105.55 128.15 97.6 128.45 97.5 127.8 96.5 Q127.15 95.35 127.15 94.6 L127.85 92.6 128.75 90.4 Q129.5 88.3 129.9 88.35 M130.3 55.65 Q131.0 56.0 131.0 57.65 131.0 59.15 129.1 67.65 L129.15 67.7 129.25 68.25 128.75 69.35 Q128.25 70.1 128.25 70.4 128.25 70.8 129.0 72.15 L129.0 72.6 128.8 72.65 128.55 72.7 129.6 76.1 129.8 79.15 Q129.8 80.85 128.65 85.0 128.65 85.5 129.7 86.35 L131.05 87.75 130.9 87.95 130.5 88.0 Q129.45 88.0 128.3 86.85 127.25 85.75 127.25 85.05 L127.9 82.4 128.55 79.15 128.2 76.55 127.8 74.85 Q127.8 73.95 128.5 72.75 L128.35 72.75 127.45 72.25 Q127.15 71.8 127.15 71.35 127.15 69.9 127.45 69.3 127.65 68.75 128.35 68.1 128.05 67.5 128.05 67.0 L128.9 62.3 130.3 55.65 M88.9 62.8 L89.2 62.65 Q87.85 62.35 84.15 59.3 80.25 56.05 80.25 55.65 L80.35 55.4 86.25 60.05 89.4 62.3 92.1 62.45 Q92.85 63.15 92.85 63.85 L92.65 64.55 Q92.15 65.2 90.9 65.2 L90.1 65.2 90.15 65.65 Q90.3 65.95 90.1 66.25 89.75 66.85 88.2 66.85 87.05 66.85 86.45 65.75 L86.05 64.45 86.1 64.1 83.2 61.4 80.55 59.25 Q80.25 59.65 79.0 59.9 77.7 60.15 76.5 58.8 75.3 57.45 75.5 56.9 L75.65 56.4 Q75.9 55.9 76.6 56.05 L77.15 56.05 Q76.85 55.45 76.85 54.45 76.85 52.85 78.7 52.85 80.5 52.75 80.7 53.75 80.95 54.75 80.15 55.3 L80.05 55.2 Q80.55 54.45 79.9 53.7 L79.1 53.45 78.3 53.25 Q77.4 53.25 77.4 54.45 77.4 55.05 77.7 55.5 L78.3 56.45 78.45 56.65 78.4 56.8 77.6 56.55 76.25 56.5 Q75.95 56.55 75.9 57.0 75.85 57.45 76.8 58.55 77.7 59.65 79.85 59.35 79.85 58.8 80.1 58.7 L79.9 58.05 Q79.85 57.6 83.75 61.1 L87.75 64.85 87.75 65.05 87.45 65.1 86.85 64.7 87.05 65.35 Q87.35 66.55 88.45 66.4 L89.65 66.0 89.7 65.65 89.6 65.45 89.5 65.25 89.5 65.1 89.45 65.2 89.1 65.25 88.75 65.2 88.7 64.95 88.75 64.65 89.1 64.65 89.0 64.6 89.15 64.65 89.4 64.7 89.55 64.75 Q92.35 64.75 92.35 63.85 92.1 62.5 90.2 62.5 L88.9 62.8 M106.85 47.05 L106.9 47.1 108.35 50.6 Q108.55 51.35 108.55 53.75 L108.5 55.95 Q108.3 57.5 107.5 58.25 L107.3 58.15 107.4 59.5 107.15 60.05 106.9 60.6 Q106.9 65.2 107.5 69.6 108.05 74.0 108.05 77.05 L107.55 78.4 106.9 79.75 106.65 79.75 106.05 80.2 101.75 80.6 Q100.4 80.6 99.8 81.25 L99.4 81.8 99.15 81.5 98.0 82.0 97.85 82.0 97.4 82.45 96.25 82.6 91.3 81.95 Q89.7 81.55 88.9 81.05 L84.85 81.4 83.3 81.25 83.3 81.15 80.0 81.25 76.3 80.25 72.85 80.65 Q70.85 80.65 68.35 79.65 L67.15 79.15 66.35 80.05 65.0 80.1 63.7 79.1 62.9 78.2 62.9 78.25 61.75 78.35 Q61.45 78.35 57.6 76.3 L53.4 74.05 52.5 74.0 Q51.15 74.9 50.5 74.75 L50.15 74.4 50.4 74.3 49.85 73.6 49.15 73.1 48.8 73.5 Q48.55 73.7 47.65 73.1 L45.85 73.25 Q44.85 73.25 44.1 72.85 L43.15 72.15 44.85 72.05 Q39.85 69.9 32.15 67.05 L22.05 63.25 22.15 63.15 20.1 62.5 Q16.55 61.35 14.7 60.3 L14.5 60.4 Q8.85 58.5 -0.5 55.85 L-0.35 56.35 -0.1 57.3 Q-0.1 58.1 -0.5 58.5 L-1.5 56.7 Q-2.1 55.75 -3.15 55.25 L-3.1 55.5 -3.5 55.2 -4.15 55.0 Q-4.8 55.0 -4.4 55.15 L-4.6 56.15 -5.0 57.15 -5.8 55.35 -6.35 53.25 -6.2 52.85 -6.1 52.9 -4.25 53.45 Q-3.65 53.9 -3.3 54.75 L-3.0 54.65 Q-2.2 55.2 -1.75 55.5 L-1.35 55.75 -1.35 55.65 -1.75 55.5 -1.3 55.4 -1.1 54.5 -0.65 54.5 -0.6 55.3 Q1.4 55.25 5.6 56.4 10.05 57.65 13.2 59.2 L12.65 58.4 Q15.4 60.05 21.05 61.65 27.25 63.4 32.4 63.65 L32.5 63.9 32.4 64.35 29.85 64.5 33.75 65.85 Q38.75 67.7 42.2 69.5 L42.4 69.1 42.75 69.45 44.3 69.75 44.3 69.6 44.0 69.35 43.8 68.75 Q43.8 68.4 43.95 68.35 L44.05 68.4 44.75 68.35 Q45.05 68.85 45.05 70.5 L44.2 70.55 46.3 71.95 46.7 71.9 48.15 72.15 Q48.7 71.8 49.65 72.15 51.25 72.8 51.3 73.95 L53.0 73.35 Q54.5 73.15 55.7 74.45 56.95 74.85 58.3 75.55 L62.55 77.7 62.55 77.65 62.9 77.1 64.25 78.35 Q65.0 79.1 65.25 79.1 L65.95 78.95 66.7 78.95 65.8 78.5 68.55 79.05 74.6 79.75 74.85 79.75 74.15 79.4 76.6 79.6 77.3 79.65 78.25 79.75 84.6 80.6 85.55 80.55 85.4 80.4 85.85 80.35 86.0 80.0 87.3 80.05 91.9 79.05 93.9 79.15 93.05 80.3 Q92.5 80.7 91.35 80.9 L91.45 80.9 Q93.9 81.85 96.5 81.85 L97.25 81.75 97.05 81.5 Q97.85 80.45 99.2 79.6 100.85 78.55 101.55 79.25 L104.75 79.5 106.25 79.2 106.25 78.95 106.45 77.95 Q106.75 77.15 107.3 77.0 105.9 76.35 105.9 75.5 106.15 61.25 106.9 57.1 L106.9 56.25 Q107.15 54.8 107.6 54.0 L107.9 52.45 107.35 50.05 Q106.75 48.35 106.75 47.45 L106.85 47.05 M106.55 21.65 Q107.1 22.05 107.2 23.6 107.3 25.4 107.65 26.0 L109.05 28.4 Q109.55 29.4 109.55 30.5 109.55 31.85 108.5 31.85 L107.25 35.1 108.1 36.6 Q109.9 40.25 109.9 43.15 109.9 43.8 109.15 44.65 108.2 45.75 106.55 46.5 L106.05 45.75 108.3 43.15 108.55 41.4 Q108.55 40.55 106.3 35.25 106.3 34.1 106.75 34.45 L106.75 33.65 Q106.75 32.35 106.9 31.9 107.2 31.15 107.95 31.15 L108.5 28.9 107.9 28.2 107.25 27.65 Q107.25 26.95 106.75 26.05 106.25 25.2 106.25 24.45 106.25 22.8 106.55 21.65 M102.75 19.0 L102.8 20.55 Q102.85 21.35 102.0 21.9 L101.75 21.75 102.1 20.4 102.3 19.0 102.75 19.0 M103.9 19.6 L104.5 19.5 104.75 19.5 Q104.75 20.5 103.9 21.35 L103.75 21.15 Q103.75 20.55 104.25 20.0 103.75 19.8 103.9 19.6 M110.55 9.0 L110.3 9.0 Q108.95 6.95 107.15 5.9 108.15 5.6 109.55 6.5 110.9 7.35 110.9 8.0 L110.75 8.6 110.55 9.0 M105.7 10.9 L104.15 9.9 102.25 8.85 101.95 9.85 Q101.55 10.65 100.6 10.65 97.75 10.0 97.75 9.25 L97.8 8.8 97.9 8.65 Q98.35 8.65 99.35 9.15 L100.75 9.65 Q101.05 7.3 103.55 8.45 105.55 9.4 105.95 10.15 L106.65 9.75 107.4 10.45 108.9 12.0 Q108.7 11.2 108.95 10.7 L109.3 10.3 Q109.3 9.9 108.15 9.25 L107.1 8.75 107.1 8.65 108.0 9.0 108.95 8.85 109.35 9.15 Q110.65 10.2 110.65 11.25 L110.4 11.7 109.8 11.75 Q111.15 13.85 111.15 14.3 L111.05 14.75 110.75 14.9 108.25 13.35 Q108.95 15.5 108.85 17.95 108.7 21.6 106.25 21.6 L105.65 21.4 105.6 21.35 105.55 21.35 105.3 21.15 105.3 20.85 Q105.35 19.5 105.9 18.1 L106.15 18.1 106.25 19.8 106.25 20.0 Q107.55 18.6 107.55 16.65 107.55 14.15 107.15 12.9 L107.55 12.7 107.45 12.6 105.8 11.0 105.7 10.9 M109.55 4.5 L109.55 4.55 109.6 4.5 109.55 4.5 M118.85 4.65 Q117.95 4.65 117.05 3.9 116.05 3.1 114.65 3.0 L114.65 3.1 115.55 5.45 116.15 6.9 116.5 7.5 116.5 8.0 116.5 8.05 116.5 8.55 116.0 9.0 115.2 8.0 114.65 7.15 114.65 7.1 113.85 6.55 110.3 4.7 109.9 5.05 110.05 5.9 110.0 6.25 Q109.9 4.5 107.4 3.3 L108.1 3.25 Q109.15 2.95 112.7 4.7 113.6 5.15 114.3 5.55 L113.7 4.55 Q112.75 3.3 112.75 3.0 L112.85 2.55 113.25 2.5 113.75 2.75 Q114.85 0.75 115.8 1.85 117.4 3.65 118.7 3.65 L119.4 3.55 Q119.8 3.55 120.4 4.1 119.85 4.65 118.85 4.65 M131.1 47.9 L131.3 47.65 Q131.75 47.7 132.3 48.7 L132.9 50.35 132.5 50.65 Q132.3 50.6 131.65 49.6 L131.0 48.4 131.1 47.9 M131.8 36.25 Q131.8 35.75 132.05 35.5 L133.0 36.4 133.05 37.5 132.8 39.25 132.55 39.25 132.2 37.25 131.8 36.25 M132.9 21.9 L134.15 24.0 134.0 24.1 132.7 23.05 131.9 22.0 131.75 21.15 131.55 20.25 Q132.1 20.45 132.9 21.9 M134.8 21.5 L135.25 21.5 135.5 23.9 135.4 24.25 135.0 24.15 Q134.65 23.6 134.65 23.15 L134.8 21.5 M130.55 21.5 L131.25 21.25 132.3 23.5 Q131.55 23.25 131.2 22.6 L130.55 21.5 M130.65 9.0 L130.55 9.1 129.4 9.55 Q129.9 9.85 130.15 11.15 L130.15 11.05 130.75 9.3 130.65 9.0 M129.25 1.9 L129.25 2.6 126.85 3.0 125.4 3.9 125.3 4.4 127.25 4.25 127.25 5.0 126.55 5.65 125.1 5.9 Q124.0 5.9 124.0 5.25 L124.0 5.1 123.0 5.75 Q122.5 5.45 122.5 4.35 L122.5 2.85 Q122.1 3.05 121.8 3.65 L121.25 4.4 120.75 4.15 Q121.1 1.4 122.15 2.15 122.95 2.75 123.5 4.65 L124.45 3.65 Q124.85 2.85 125.3 2.7 L126.3 1.9 129.25 1.9 M131.65 2.5 L131.75 2.75 131.2 2.9 Q130.75 3.0 130.75 3.35 L130.85 3.45 131.5 3.4 128.95 6.35 Q127.5 8.0 127.0 9.0 L129.4 8.4 131.75 7.75 132.5 7.75 132.75 8.15 132.65 8.5 Q132.1 8.65 131.55 9.85 131.0 10.95 131.0 11.55 131.0 12.2 131.25 11.75 L134.05 10.85 134.0 10.6 Q134.25 10.25 136.0 10.25 137.3 10.25 137.7 10.8 L138.25 11.75 138.3 7.15 140.45 7.35 141.25 8.25 141.05 8.4 139.15 7.9 139.05 12.5 137.5 12.6 137.05 12.5 137.05 12.25 Q137.3 11.75 137.05 11.35 136.65 10.85 135.3 10.85 135.05 10.85 134.95 11.0 L135.0 11.35 Q133.15 13.25 132.5 13.25 L130.25 13.5 129.55 20.25 Q129.55 20.95 130.5 21.85 131.4 22.75 131.4 23.85 L131.4 24.9 Q131.25 25.7 130.5 25.85 L130.5 26.15 129.05 27.5 Q131.3 28.5 131.3 30.75 L130.75 31.6 130.5 31.55 130.65 36.05 130.15 42.75 Q130.15 46.15 130.85 48.45 131.5 50.75 131.5 53.05 131.5 54.75 131.0 55.5 L130.55 55.25 Q130.25 51.4 129.7 50.3 129.25 49.5 129.25 47.45 L129.35 40.0 130.05 31.25 130.15 31.25 Q129.25 29.95 129.25 29.5 L129.3 28.9 Q127.65 28.9 127.65 27.95 127.65 26.0 129.75 25.65 L129.5 24.75 Q129.5 24.45 129.8 24.2 L130.05 23.6 129.15 22.4 Q128.25 21.45 128.25 21.0 128.25 19.35 128.75 16.2 L129.25 11.25 129.0 10.65 128.75 10.0 128.8 9.8 126.75 10.25 125.5 10.15 125.4 9.45 Q125.4 8.05 127.75 5.6 128.9 4.45 129.8 3.9 L129.3 3.9 127.75 3.75 Q128.25 3.45 131.65 2.5 M253.3 2.15 L255.15 2.3 253.5 2.55 251.9 2.65 Q252.1 3.3 251.9 4.25 L246.4 4.25 236.7 3.55 231.15 3.6 218.1 4.25 212.8 4.9 212.7 4.9 213.05 5.0 211.9 5.25 211.2 5.1 209.4 4.8 203.1 4.65 192.25 5.1 192.35 5.4 191.65 5.55 Q191.05 5.55 191.05 5.3 L191.0 4.65 Q191.0 4.1 192.05 3.55 193.15 3.0 193.15 2.55 L193.15 2.4 Q191.9 3.05 191.25 3.0 190.7 2.95 189.3 2.15 L193.45 1.25 Q194.75 0.95 194.75 1.8 194.75 2.75 193.75 3.5 L204.15 3.75 210.05 3.95 210.15 3.9 217.6 3.1 Q219.2 2.8 231.15 2.75 L236.8 2.75 244.45 3.1 251.4 3.5 Q251.4 2.55 251.55 2.15 L253.3 2.15 M293.3 0.3 L292.65 2.8 Q291.9 4.65 290.65 4.65 290.05 4.65 290.25 4.4 L290.15 3.65 289.05 3.65 285.4 4.9 Q285.05 4.9 285.05 4.75 L285.05 4.4 Q285.35 4.05 287.25 3.35 289.3 2.65 290.4 2.65 L290.95 2.85 291.15 3.05 291.65 1.0 Q292.15 -0.05 293.3 0.3 M297.65 2.75 L295.55 4.15 295.3 3.95 295.15 3.4 Q295.15 2.3 297.95 0.55 L299.7 -0.4 299.7 1.35 297.65 2.75 M296.75 -4.85 L296.9 -3.15 295.9 0.05 294.15 4.3 293.85 4.2 293.75 3.65 Q293.75 2.85 294.95 -0.7 L296.3 -4.85 296.75 -4.85 M262.05 -0.05 L260.9 -0.5 260.9 1.0 260.75 2.1 Q260.4 3.05 259.15 3.05 L258.25 2.55 257.4 1.9 257.35 2.55 Q257.1 3.0 256.15 3.0 255.75 3.0 255.65 2.8 L255.55 2.4 255.95 1.25 Q256.5 0.4 257.4 0.4 257.7 0.4 258.35 0.95 258.95 1.5 259.5 1.5 L259.9 1.35 259.9 1.15 260.0 -2.0 260.65 -2.1 261.7 -1.4 Q262.55 -0.7 263.4 -0.7 265.05 -0.7 266.7 -3.0 268.3 -5.25 268.65 -5.25 L268.45 -1.9 Q268.5 0.4 269.8 0.4 L270.45 0.3 270.9 0.15 270.9 0.25 271.05 0.1 Q271.7 -0.55 272.5 -0.35 L272.15 0.05 Q272.0 0.25 272.0 0.65 272.0 1.15 272.25 1.4 272.7 1.8 273.85 1.95 275.15 0.85 278.9 0.9 284.55 0.9 285.9 3.15 L285.4 3.9 282.65 2.15 Q281.0 1.15 278.15 1.15 277.8 1.15 276.2 2.6 274.6 4.05 273.9 4.05 273.25 4.05 273.25 3.3 273.25 2.7 273.6 2.25 L272.65 2.3 272.0 1.7 271.25 0.75 270.9 1.0 270.95 1.1 270.5 1.25 270.4 1.3 269.75 1.65 269.3 1.55 269.3 1.3 269.05 1.3 Q267.65 1.3 267.65 -2.95 265.15 0.4 263.05 0.4 L262.05 -0.05 M25.9 4.4 L25.4 4.2 25.7 4.05 26.35 4.35 25.9 4.4 M6.7 3.9 L5.8 3.6 Q5.45 3.6 5.1 4.0 L4.35 4.35 2.45 4.15 Q1.9 4.0 1.25 3.55 -23.55 3.8 -33.35 4.4 L-42.15 4.95 -43.7 4.8 -44.95 4.5 -45.1 4.2 Q-39.4 3.8 -38.05 2.8 L-26.65 2.15 -17.95 2.35 0.55 2.7 0.55 2.3 3.65 2.7 3.75 2.6 3.85 2.75 4.45 2.85 7.9 3.6 8.0 3.75 Q8.3 4.2 7.55 4.2 L6.7 3.9 M-159.4 -3.25 Q-160.0 -3.25 -159.8 -3.4 L-159.8 -4.0 Q-159.6 -4.3 -157.85 -5.05 L-155.35 -5.65 -155.3 -5.3 Q-155.3 -5.0 -155.55 -4.65 L-155.85 -3.95 -155.7 -3.8 -155.4 -3.8 -154.25 -3.65 -154.25 -3.3 -155.3 -3.2 -155.9 -3.2 -156.1 -3.1 -156.25 -3.2 -156.65 -3.25 -156.55 -3.75 -156.5 -3.75 -156.55 -4.6 Q-157.35 -4.6 -159.4 -3.25 M-152.05 -8.8 L-152.55 -10.05 -152.45 -10.25 Q-151.65 -9.75 -150.85 -8.0 L-148.85 -6.45 Q-145.7 -3.9 -145.7 -3.3 L-146.1 -2.85 -149.35 -6.05 -150.55 -7.2 -150.25 -6.3 Q-149.4 -3.7 -149.4 -2.95 L-149.75 -2.55 -151.05 -3.75 -152.4 -5.15 -152.25 -3.4 Q-152.3 -2.15 -153.3 -2.15 L-153.7 -2.35 -153.8 -2.6 Q-153.35 -3.2 -153.4 -4.55 -153.4 -5.85 -152.85 -6.35 L-150.45 -4.5 -151.85 -8.35 -153.0 -9.3 Q-152.65 -9.2 -152.05 -8.8 M-162.95 -2.35 L-163.1 -2.6 Q-159.95 -11.05 -159.95 -6.05 -159.95 -5.6 -160.95 -4.2 -162.1 -2.6 -162.95 -2.35 M-164.45 -4.25 L-164.5 -3.65 -164.95 -3.25 -165.45 -3.6 -165.45 -4.75 -166.6 -4.75 -165.1 -5.65 Q-164.45 -5.8 -164.45 -4.25 M-169.05 -2.0 Q-170.1 -2.0 -170.5 -2.7 L-170.95 -3.85 -169.95 -3.8 -168.6 -3.15 -166.85 -4.55 -166.95 -3.05 Q-167.25 -2.0 -169.05 -2.0 M-209.65 -0.2 L-207.9 -1.15 -207.9 0.6 -209.95 2.0 -210.1 2.15 -209.05 1.95 -207.4 1.8 -197.5 2.9 -193.3 2.05 Q-190.25 1.35 -183.25 1.8 -180.6 2.7 -177.2 2.75 L-173.65 2.6 -173.2 2.65 -176.8 0.0 Q-176.8 -0.65 -175.9 -0.5 L-172.65 -0.1 -171.55 -0.15 -173.45 -1.75 -175.2 -3.4 -175.1 -3.6 -174.9 -3.65 -172.6 -2.0 Q-170.3 -0.25 -170.3 0.2 L-170.65 0.6 -170.85 0.45 -172.35 0.55 -174.55 0.35 Q-171.85 1.95 -171.55 2.6 L-171.45 2.55 -168.1 2.15 -166.3 3.0 -166.05 3.1 -171.05 3.65 -172.65 4.0 -173.0 3.7 -173.2 3.65 -173.75 4.0 -177.5 4.35 -181.05 3.65 -183.7 2.9 -193.05 3.55 -197.75 4.2 -204.15 4.5 Q-208.7 4.35 -210.45 2.4 -211.75 3.3 -212.05 3.4 L-212.3 3.2 -212.45 2.65 Q-212.45 1.55 -209.65 -0.2 M-212.65 -1.45 L-211.3 -5.6 -210.85 -5.6 -210.7 -3.9 -211.7 -0.7 Q-212.8 2.4 -213.45 3.55 L-213.75 3.45 -213.85 2.9 Q-213.85 2.1 -212.65 -1.45 M-245.9 -2.15 Q-245.05 -1.45 -244.2 -1.45 -242.55 -1.45 -240.9 -3.75 -239.3 -6.0 -238.95 -6.0 L-239.15 -2.65 Q-239.1 -0.35 -237.8 -0.35 L-237.15 -0.45 -236.7 -0.6 -236.7 -0.5 -236.55 -0.65 Q-235.9 -1.3 -235.1 -1.1 L-235.45 -0.7 -235.6 -0.1 -235.35 0.65 Q-234.9 1.05 -233.75 1.2 -232.45 0.1 -228.7 0.15 -223.05 0.15 -221.7 2.4 L-222.2 3.15 Q-223.35 2.7 -224.95 1.4 -226.6 0.4 -229.45 0.4 L-231.4 1.85 Q-233.0 3.3 -233.7 3.3 -234.35 3.3 -234.35 2.55 -234.35 1.95 -234.0 1.5 L-234.95 1.55 -235.6 0.95 -236.35 0.0 -236.7 0.25 -236.65 0.35 -237.1 0.5 -237.2 0.55 -237.85 0.9 -238.3 0.8 -238.3 0.55 -238.55 0.55 Q-239.95 0.55 -239.95 -3.7 -242.45 -0.35 -244.55 -0.35 L-245.55 -0.8 -246.7 -1.25 -246.7 0.25 Q-246.7 1.05 -246.85 1.35 -247.2 2.3 -248.45 2.3 L-249.35 1.8 -250.2 1.15 -250.25 1.8 Q-250.5 2.25 -251.45 2.25 -251.85 2.25 -251.95 2.05 L-252.05 1.65 -251.65 0.5 Q-251.1 -0.35 -250.2 -0.35 L-249.25 0.2 Q-248.65 0.75 -248.1 0.75 L-247.7 0.6 -247.7 0.4 -247.6 -2.75 -246.95 -2.85 -245.9 -2.15 M108.9 113.75 Q107.95 113.75 106.5 114.65 105.0 115.5 104.1 115.5 102.2 115.5 101.35 114.85 L100.55 114.0 Q100.75 113.7 101.25 113.5 102.1 114.0 103.0 114.0 104.65 114.0 107.75 112.1 111.05 110.9 115.4 113.9 L114.5 114.3 113.25 114.5 111.1 114.15 108.9 113.75 M134.0 107.65 L133.5 106.35 133.3 106.35 133.5 107.85 134.0 107.65 M134.25 105.7 Q135.0 106.55 135.0 107.65 L135.0 108.4 Q134.65 109.0 133.0 109.0 L132.5 108.9 132.4 108.05 132.55 106.35 132.2 106.3 132.0 106.0 Q133.35 104.6 134.25 105.7 M75.15 114.15 L75.25 114.15 75.15 114.15 M63.55 76.75 L63.5 76.2 Q63.5 75.55 63.8 75.15 L64.8 76.0 Q65.0 76.25 65.0 76.1 65.0 75.7 65.3 75.75 L65.65 76.0 65.7 76.0 65.75 76.4 65.65 76.85 64.0 76.9 63.55 76.85 63.55 76.75 M0.35 93.7 L3.75 94.9 11.4 96.75 Q13.0 97.15 13.3 97.55 15.95 98.35 20.35 100.25 24.8 102.2 26.8 103.45 L26.75 103.25 26.85 102.85 27.25 102.75 29.3 103.75 Q30.2 104.15 30.55 104.6 30.55 102.6 30.8 101.7 L30.55 101.5 30.8 101.15 Q31.7 100.95 32.8 103.0 33.8 104.85 33.8 105.85 L33.8 106.0 Q34.6 104.2 34.9 100.9 L35.05 100.9 Q35.35 101.65 35.3 102.6 35.7 102.6 35.9 102.85 35.75 104.15 35.75 106.6 L36.9 106.65 Q37.1 105.65 38.1 105.9 39.55 106.25 42.95 109.45 L44.45 110.2 Q45.3 109.45 47.05 110.35 49.45 111.65 49.5 112.75 L50.15 113.05 50.15 113.0 54.75 112.85 55.65 113.75 Q57.9 112.75 60.85 112.7 64.35 112.6 66.8 113.7 L69.3 114.0 71.8 114.6 71.65 114.15 73.3 113.15 76.75 113.4 76.8 113.8 77.5 113.75 78.45 114.0 79.35 114.25 84.75 113.45 89.8 112.1 Q93.75 110.6 96.25 111.0 97.5 111.2 101.55 113.0 L100.75 113.15 Q99.65 112.4 99.15 112.2 L94.55 111.9 87.4 113.8 78.75 115.65 Q75.0 114.9 75.0 114.5 L75.1 114.15 73.75 114.15 73.75 114.25 73.9 114.55 72.75 114.75 72.25 114.75 Q73.25 115.1 73.25 115.4 73.25 116.05 73.05 116.0 L71.5 116.0 67.3 115.05 65.5 114.6 55.0 115.35 Q55.3 115.85 52.55 116.15 L52.5 116.0 54.4 114.45 53.0 113.65 51.95 114.2 50.75 114.15 50.7 114.4 50.5 114.5 50.0 114.25 50.25 114.5 50.75 115.15 Q50.75 115.8 50.5 115.4 L48.25 113.8 Q46.4 112.45 43.55 112.25 L47.4 112.45 47.45 112.45 48.0 112.25 48.6 112.4 Q48.2 110.65 45.25 110.65 44.95 110.65 44.45 110.95 L43.75 111.25 Q43.95 110.6 44.35 110.3 L43.25 110.35 Q42.8 110.35 42.25 109.65 L37.35 108.15 37.15 108.25 35.75 108.4 35.2 108.35 35.0 108.25 34.85 107.25 34.65 106.3 34.7 105.2 33.8 107.5 33.3 106.9 33.65 106.35 33.55 106.35 Q32.85 105.7 32.3 103.9 31.95 102.8 31.25 102.1 L31.3 103.65 31.15 105.5 29.6 104.9 28.75 104.35 28.45 105.0 28.3 105.4 28.25 105.4 28.15 105.5 28.0 105.2 20.25 101.15 Q16.85 99.45 14.05 98.35 13.95 98.75 13.25 98.35 8.4 97.45 4.35 96.15 L-4.0 93.15 -2.7 93.05 -5.5 91.65 -9.0 90.0 -8.75 90.4 -8.75 91.5 -9.85 91.65 -12.6 90.9 Q-14.5 90.15 -14.5 89.6 L-14.05 89.05 -20.8 86.45 -28.5 82.65 -28.35 82.7 -29.65 82.35 -36.95 80.6 -37.0 80.6 -37.35 80.5 -37.1 80.5 Q-37.95 79.75 -41.65 78.15 L-47.85 75.5 -47.6 75.45 -47.85 75.35 -55.15 73.0 Q-55.2 73.2 -55.25 73.0 L-56.75 73.1 Q-58.15 73.1 -64.3 70.0 -69.45 67.4 -71.5 66.45 L-72.0 66.5 Q-75.0 66.5 -86.5 61.9 -96.25 58.05 -101.25 55.5 L-100.9 55.4 Q-103.25 54.1 -103.25 53.25 L-102.95 52.75 -102.5 52.6 -104.5 52.6 -104.6 53.35 Q-104.8 53.75 -105.5 53.75 L-105.9 53.65 -107.75 53.65 Q-110.0 53.25 -110.0 51.85 -110.0 51.2 -109.5 51.0 L-108.5 52.15 Q-107.25 53.35 -106.1 53.3 L-106.15 53.0 Q-106.15 51.1 -103.55 51.25 -101.0 51.45 -101.0 52.8 -101.0 52.5 -100.55 53.8 L-100.15 55.25 -100.15 55.35 Q-96.95 55.35 -88.55 59.3 -77.35 64.5 -72.4 66.05 -66.6 67.0 -60.35 69.85 -56.05 71.85 -55.3 72.45 -52.5 72.75 -46.65 74.65 -38.35 77.35 -38.35 78.75 L-38.35 78.9 Q-36.75 79.7 -36.75 80.0 L-36.5 80.45 Q-33.2 80.2 -28.65 81.65 -24.9 82.9 -24.15 83.65 -21.75 84.35 -19.85 85.15 -16.95 86.3 -13.05 88.75 L-12.6 88.65 Q-10.85 88.4 -9.75 88.65 L-10.1 88.65 Q-10.35 88.6 -10.35 89.0 L-9.85 89.3 -9.75 89.35 Q-7.95 89.3 -5.2 90.85 -4.15 91.4 -1.65 93.2 L0.35 93.7 M36.9 64.25 L35.8 64.25 35.75 64.6 37.5 65.25 37.5 65.0 37.3 64.35 Q37.9 64.45 37.9 65.05 L37.8 65.6 36.75 65.65 35.45 64.95 34.75 64.25 34.8 63.8 34.9 63.65 36.9 64.25 M-153.05 -1.5 L-153.0 -1.4 -153.1 -1.4 -153.1 -1.5 -153.05 -1.5 M-122.4 -4.05 L-122.9 -3.85 Q-123.35 -2.65 -123.75 -2.35 -123.75 -1.9 -123.9 -2.1 L-124.2 -2.1 -124.0 -2.25 -124.9 -2.5 -125.4 -2.9 Q-123.8 -4.85 -122.3 -4.25 L-121.4 -3.7 -121.0 -4.4 -119.4 -3.0 -119.5 -2.4 -120.0 -2.0 -121.0 -2.65 -121.5 -3.25 -121.45 -3.5 -122.4 -4.05 M-128.8 -5.55 Q-128.3 -5.65 -128.1 -5.1 L-127.9 -4.4 Q-127.15 -3.65 -127.15 -2.8 L-127.2 -2.55 -127.45 -2.55 Q-128.3 -3.4 -128.3 -3.9 L-128.4 -3.9 Q-128.4 -1.9 -129.95 -1.9 L-130.6 -2.15 -130.95 -2.5 -130.8 -2.8 Q-129.4 -2.85 -129.1 -3.8 L-128.8 -5.55 M-140.85 -3.0 L-141.15 -3.25 Q-140.9 -4.6 -138.1 -5.4 -135.1 -6.25 -134.55 -2.9 L-134.7 -2.85 -135.7 -4.3 Q-136.6 -5.4 -137.7 -5.4 -138.05 -5.4 -139.4 -4.2 L-140.85 -3.0 M-134.5 -7.6 L-134.2 -8.3 -134.05 -8.05 -134.15 -8.55 -133.85 -8.8 Q-132.9 -8.15 -131.9 -6.4 -130.85 -4.65 -130.85 -3.6 -130.85 -3.05 -131.1 -2.6 L-131.35 -2.65 Q-131.75 -3.85 -133.05 -6.05 L-133.6 -7.1 -133.6 -7.0 -133.3 -5.6 Q-133.3 -4.25 -133.85 -3.4 L-133.95 -3.5 Q-133.65 -4.75 -134.5 -7.6 M-142.65 -1.0 L-142.8 -1.0 -142.8 -1.05 -142.65 -1.1 -142.65 -1.0 M-142.7 -3.45 L-142.65 -3.1 -142.7 -2.75 -142.8 -2.75 -142.85 -2.3 -142.85 -2.25 -142.9 -2.25 -143.0 -2.75 -143.25 -2.85 Q-143.3 -3.35 -144.65 -5.4 L-144.6 -4.25 Q-144.6 -3.5 -145.2 -3.3 L-145.4 -5.25 Q-145.4 -6.55 -145.05 -6.9 -144.4 -6.5 -143.5 -5.05 L-143.25 -4.6 -143.3 -5.35 -142.95 -8.35 Q-142.5 -10.2 -141.65 -10.75 L-141.6 -9.9 -141.85 -8.5 -141.65 -8.5 -141.4 -6.05 -141.15 -3.75 Q-141.15 -3.1 -141.6 -2.9 L-141.7 -3.0 -142.2 -6.6 -142.7 -3.45 M-126.35 -2.55 L-125.25 -2.45 -124.1 -1.9 -125.45 -1.75 -126.35 -2.55 M-118.35 -2.3 L-118.0 -2.2 -118.15 -2.35 Q-117.95 -4.3 -115.4 -5.1 L-111.65 -5.9 -111.7 -4.8 -111.65 -4.5 Q-108.8 -9.35 -107.25 -12.75 -106.2 -12.05 -106.35 -10.25 L-106.75 -8.5 Q-106.75 -4.0 -107.25 -2.85 L-107.65 -3.15 -107.75 -9.75 Q-108.25 -8.35 -109.9 -5.6 L-110.9 -4.0 -110.75 -4.0 -111.0 -3.85 Q-111.75 -2.75 -112.0 -2.75 L-112.45 -2.9 -112.5 -3.1 -112.05 -3.85 -112.25 -4.45 -112.65 -5.3 Q-115.05 -4.55 -116.1 -3.6 L-117.7 -2.1 -117.6 -2.1 -117.75 -2.0 -118.35 -2.3 M-106.75 -3.0 L-103.85 -3.9 Q-101.85 -4.5 -101.0 -3.65 L-101.65 -3.2 -102.1 -2.5 -101.8 -1.9 -99.45 -2.45 Q-95.95 -3.1 -95.45 -2.15 L-99.1 0.0 -101.35 1.35 Q-100.3 1.4 -99.0 1.95 L-98.0 2.45 -97.4 2.45 -82.2 3.45 Q-75.8 1.25 -69.45 2.0 L-57.1 3.65 -58.0 3.05 -58.15 1.8 Q-58.15 0.2 -57.0 -0.1 -55.5 -0.5 -52.4 1.8 L-53.2 1.8 -55.35 1.5 -55.45 0.65 -57.35 0.75 -57.4 1.8 -55.6 3.3 -55.6 3.6 -55.65 4.05 -56.0 4.05 -56.35 3.95 -59.8 4.05 Q-64.3 4.05 -66.45 3.25 L-66.7 3.15 -69.75 3.2 -69.1 2.9 -67.35 2.95 -69.85 2.4 Q-72.5 2.4 -73.95 3.15 -75.15 3.75 -79.0 3.9 L-87.55 4.35 -91.4 3.85 -97.2 3.55 -97.4 3.6 -97.55 3.5 -99.3 3.45 -99.5 3.5 -99.5 3.45 -100.8 3.45 -101.7 3.25 -102.15 3.2 -102.0 2.7 -102.0 2.5 -99.75 2.4 Q-100.8 1.8 -101.85 1.65 L-102.1 1.65 -102.35 1.7 -102.7 1.5 -102.8 1.4 -100.35 -0.15 Q-99.05 -1.0 -98.4 -1.65 L-102.4 -1.05 -102.85 -1.1 -102.9 -1.35 -102.2 -1.8 -102.9 -2.1 -103.35 -2.75 Q-103.95 -2.45 -104.45 -2.25 L-106.75 -1.7 -106.75 -1.75 -106.85 -2.45 -106.75 -3.0 M-46.1 -2.75 L-45.85 0.25 -45.85 0.4 -44.8 -2.45 Q-44.25 -4.1 -43.35 -4.75 -42.95 -4.35 -42.95 -3.5 -42.95 -2.3 -43.45 1.65 -44.05 1.65 -44.7 2.05 L-44.1 -0.6 -44.9 1.0 -45.5 2.15 -44.9 2.15 -45.05 2.2 -46.3 3.05 -47.2 3.05 -47.2 3.3 -47.35 3.5 -47.75 3.0 -48.15 3.0 -51.5 3.05 -51.5 2.6 -51.55 2.15 -48.1 2.1 -48.1 1.45 -48.0 0.35 -47.85 0.35 -47.3 2.15 -46.6 2.15 -46.6 1.95 -46.35 -2.6 -46.1 -2.75 M-51.15 -0.25 L-48.85 1.35 -48.85 1.55 Q-48.5 1.8 -49.1 1.8 -51.8 1.8 -52.75 -0.7 -52.05 -0.95 -51.15 -0.25 M-12.75 47.9 L-10.6 48.0 Q-9.25 48.35 -8.6 49.25 L-8.9 49.25 Q-11.85 48.8 -12.75 47.9 M-18.65 43.85 L-18.0 43.75 -17.85 43.65 -18.25 43.5 -19.4 43.25 -19.4 43.65 -18.65 43.85 M-17.0 44.0 L-17.35 44.55 Q-17.85 45.0 -18.75 45.0 -19.6 45.0 -20.1 44.45 -20.5 44.0 -20.5 43.45 -20.5 42.15 -18.75 42.25 -17.0 42.4 -17.0 44.0 M-24.0 42.5 L-24.75 42.75 -27.25 42.2 Q-29.35 41.55 -30.25 40.65 L-27.35 41.3 Q-24.8 42.0 -24.0 42.5 M-30.4 43.3 L-33.35 41.25 -33.1 40.9 Q-31.9 41.15 -29.25 42.2 -25.95 43.55 -25.75 44.4 -26.0 44.75 -26.75 44.75 L-27.6 44.6 -23.55 46.2 -17.6 48.2 -17.5 47.9 Q-16.5 47.5 -13.35 49.35 L-9.6 51.65 Q-9.25 51.25 -8.75 51.0 -8.25 51.2 -8.25 51.8 L-8.55 52.65 -8.15 52.55 -5.9 52.35 -5.9 52.5 Q-6.45 52.95 -9.3 53.8 -9.55 54.0 -9.75 54.0 -10.35 54.0 -10.65 53.5 -10.35 52.45 -9.7 51.75 L-17.55 48.3 -18.15 48.4 -19.5 48.5 Q-22.9 48.5 -26.25 46.9 -29.25 45.45 -29.25 44.5 L-29.1 44.05 -29.0 44.05 -30.4 43.3 M-34.15 42.25 Q-32.85 42.3 -32.15 43.2 -31.55 43.3 -29.85 44.15 L-30.0 44.35 -32.25 44.6 -33.05 43.9 -33.85 44.0 Q-35.9 44.0 -37.1 42.05 -37.8 40.9 -39.1 40.3 L-42.55 39.45 Q-45.9 38.55 -48.75 37.1 -50.2 36.4 -55.15 34.25 L-58.65 33.5 -61.6 32.55 -62.35 32.6 Q-63.75 32.6 -64.1 32.25 L-64.6 31.4 -65.85 31.6 Q-67.05 31.8 -68.6 30.0 L-68.4 30.0 -74.6 27.6 Q-79.4 25.6 -80.95 24.5 L-81.5 24.5 -82.8 24.0 -83.25 24.6 -86.85 24.85 Q-89.6 24.85 -91.65 24.0 -93.1 23.35 -93.8 22.55 -96.3 20.9 -96.4 20.2 L-96.65 20.1 -96.8 20.5 -97.5 20.75 Q-98.7 20.75 -99.7 19.85 L-101.0 20.0 Q-103.05 20.0 -104.45 18.35 -105.5 17.05 -105.5 16.1 L-105.35 13.65 Q-106.75 14.75 -108.5 14.75 -109.5 14.75 -109.25 11.6 -109.25 8.4 -108.75 7.5 -108.2 8.4 -108.2 10.45 L-108.25 13.65 -106.9 13.75 -103.45 9.25 -104.0 7.65 -103.25 7.4 Q-102.55 7.6 -102.1 9.25 L-101.25 11.5 -100.45 10.45 -99.75 9.4 -99.5 11.0 Q-99.5 11.25 -100.0 11.9 -100.6 12.75 -101.25 12.75 -102.45 12.75 -103.0 10.9 L-103.55 11.55 -103.35 12.15 -103.65 13.3 -104.0 14.3 Q-104.0 16.4 -103.5 17.0 -102.95 17.7 -101.1 18.15 L-100.95 18.2 -101.0 18.0 -100.85 17.55 -100.5 17.5 Q-100.1 17.5 -99.55 18.35 -98.95 19.35 -97.75 19.65 L-97.8 19.05 Q-97.7 18.65 -97.0 18.65 L-96.15 18.8 -96.1 18.65 -95.9 18.95 Q-95.1 19.35 -94.55 20.45 L-93.85 21.15 -92.9 21.9 -92.7 21.85 -91.9 22.35 Q-90.0 23.65 -84.25 23.65 L-83.5 23.55 -83.6 23.45 -85.35 21.75 -85.1 21.4 Q-81.55 22.4 -79.8 23.2 L-78.65 23.9 Q-78.65 24.55 -78.85 24.5 L-79.0 24.5 -74.2 26.75 -67.05 29.75 -64.2 29.9 Q-62.95 31.1 -61.0 31.5 L-61.0 32.05 Q-56.55 32.35 -48.85 35.65 L-41.25 39.15 Q-38.85 39.0 -37.95 39.75 -37.4 40.2 -36.6 41.35 -35.8 42.15 -34.15 42.25 M-41.75 2.35 L-41.9 3.6 -42.1 3.8 -42.75 3.4 Q-43.05 3.15 -43.55 3.05 L-43.55 3.45 -44.05 3.65 -44.55 3.6 -44.8 3.45 Q-44.95 3.85 -44.95 3.1 -44.95 2.35 -44.15 2.15 L-42.25 1.65 -41.9 1.8 Q-41.75 1.85 -41.75 2.35 M-255.7 1.9 Q-255.5 2.55 -255.7 3.5 L-261.2 3.5 -270.9 2.8 -276.45 2.85 -289.5 3.5 -294.8 4.15 -294.9 4.15 -294.55 4.25 -295.7 4.5 -296.4 4.35 -297.9 4.1 -299.65 3.1 -297.55 3.2 -297.45 3.15 -290.0 2.35 Q-288.4 2.05 -276.45 2.0 L-270.8 2.0 -263.15 2.35 -256.2 2.75 -256.05 1.4 -254.3 1.4 -252.45 1.55 -254.1 1.8 -255.7 1.9 M-217.35 3.65 L-217.45 2.9 -218.55 2.9 -222.2 4.15 -222.55 4.0 -222.55 3.65 Q-222.25 3.3 -220.35 2.6 -218.3 1.9 -217.2 1.9 -216.8 1.9 -216.65 2.1 L-216.45 2.3 -215.95 0.25 Q-215.45 -0.8 -214.3 -0.45 L-214.95 2.05 Q-215.7 3.9 -216.95 3.9 L-217.35 3.65 M-171.0 14.75 L-170.85 15.0 -170.75 14.85 -171.0 14.75 M-179.4 14.3 L-178.5 13.0 Q-177.4 14.15 -176.55 15.75 -175.5 17.7 -175.85 18.75 L-176.1 18.75 -177.25 16.8 -178.5 14.6 -179.15 15.5 Q-179.6 16.0 -180.5 16.0 L-181.35 15.75 Q-181.5 16.05 -181.5 15.4 L-181.35 14.9 -181.25 14.65 Q-180.05 15.15 -179.4 14.3 M-174.5 14.75 Q-173.9 17.05 -173.9 18.3 L-174.0 19.0 -174.5 20.0 -175.0 19.75 Q-175.0 18.4 -175.45 16.4 L-175.9 13.35 -175.6 12.25 Q-175.15 12.35 -174.5 14.75 M-114.3 54.75 L-114.4 54.25 -114.3 53.85 -114.25 53.75 Q-112.35 53.55 -112.1 54.1 -112.05 54.85 -111.6 55.15 L-111.75 55.25 Q-112.75 54.75 -113.75 54.75 L-114.3 54.75 M-128.0 49.1 Q-128.5 49.1 -128.5 48.15 L-128.35 47.75 -128.25 47.75 -126.75 48.1 Q-125.6 48.5 -125.6 48.75 L-125.7 49.25 -126.0 49.35 -128.0 49.1 M-146.1 39.0 L-145.65 38.9 -146.35 38.35 Q-147.55 37.65 -150.25 37.75 -149.05 36.75 -146.75 37.3 -144.6 37.8 -144.6 38.5 L-144.6 38.8 Q-141.1 38.6 -134.6 41.1 -127.25 43.95 -124.9 46.7 -121.8 47.85 -116.3 48.85 -113.4 49.35 -112.6 50.7 L-112.05 50.5 Q-110.1 50.0 -110.1 50.9 L-110.15 51.25 Q-110.4 51.6 -111.75 51.65 -111.55 52.2 -111.6 52.7 -111.75 53.25 -112.25 53.25 L-113.25 52.75 -114.0 52.0 -113.85 51.5 -119.65 49.45 Q-125.85 47.3 -126.6 46.75 L-126.45 46.55 Q-131.75 43.6 -146.1 39.0 M-154.4 39.3 Q-154.4 38.65 -154.0 38.25 L-153.6 38.3 Q-153.35 38.35 -153.35 38.75 -153.35 39.35 -153.5 39.6 L-151.75 39.65 Q-151.25 39.65 -151.1 39.25 L-151.75 38.4 -151.5 38.35 -150.95 38.9 -150.75 39.4 Q-150.75 40.4 -153.75 40.4 -154.25 40.4 -154.35 40.1 L-154.4 39.3 M-161.1 33.5 L-160.0 33.5 Q-160.0 34.65 -160.25 35.15 L-160.4 35.0 -160.5 34.1 -160.95 34.2 -161.25 34.1 -161.1 33.5 M-148.9 36.15 L-149.0 36.8 -149.5 37.15 Q-150.4 36.55 -150.55 35.3 -151.4 34.4 -156.8 34.4 L-157.4 34.55 -158.0 34.75 Q-158.95 34.75 -159.2 33.9 -159.55 32.7 -160.25 32.25 L-163.8 31.95 -165.4 31.8 Q-164.75 32.55 -164.75 33.15 -164.75 33.65 -165.25 34.35 -165.15 33.45 -166.6 32.05 -168.25 30.55 -170.25 30.0 L-169.9 29.75 -169.65 29.6 Q-168.6 29.55 -167.5 30.15 L-167.0 29.9 -167.95 28.8 -169.0 27.0 -168.55 25.95 -168.1 24.9 -168.55 23.7 -169.0 22.65 -168.85 22.2 -168.5 22.15 Q-166.75 23.15 -166.75 25.75 L-166.85 26.35 -167.25 26.75 -165.4 29.2 -165.4 29.4 Q-162.95 28.9 -160.35 30.35 -157.15 32.05 -157.15 33.4 L-157.15 33.8 Q-153.9 32.95 -151.25 34.15 -148.9 35.25 -148.9 36.15 M-159.5 11.5 L-160.75 9.9 Q-161.4 8.6 -163.5 8.1 L-163.4 8.25 -161.9 12.15 -162.0 12.75 Q-162.4 13.25 -163.85 13.25 -164.95 13.25 -166.7 12.15 L-168.65 10.75 -168.35 11.15 -168.15 11.75 -168.15 12.05 -168.0 12.4 Q-167.5 13.65 -167.5 15.2 -167.5 15.8 -167.65 15.6 L-168.35 15.75 -169.35 15.5 -169.85 15.25 Q-169.2 16.1 -168.5 17.8 -167.6 19.95 -167.6 20.65 L-167.65 21.1 -167.85 21.25 -168.5 21.35 -169.25 21.15 Q-169.15 20.6 -170.05 18.35 L-171.0 15.65 Q-171.75 15.65 -172.2 15.05 L-172.5 14.3 Q-172.9 13.75 -170.75 13.75 L-168.95 14.0 -168.35 14.65 -168.25 14.5 -168.25 13.4 Q-168.25 13.2 -169.3 12.15 L-170.6 11.0 -169.75 10.9 -169.75 10.55 -169.65 9.5 -169.0 9.4 Q-168.85 9.4 -166.4 10.7 -163.95 12.0 -163.25 12.0 L-164.65 9.25 Q-165.5 7.6 -165.5 6.9 L-165.35 6.5 -165.25 6.5 -164.75 6.4 -163.55 6.65 -162.5 6.9 -162.95 6.2 Q-163.4 5.7 -164.1 5.75 L-163.25 5.5 -160.75 7.85 Q-158.9 9.6 -158.9 10.45 L-158.95 11.05 -159.5 11.5 M-157.8 9.15 L-158.1 9.2 Q-158.45 8.65 -160.05 7.35 L-162.05 5.45 Q-161.35 5.5 -159.5 7.05 -157.75 8.6 -157.75 9.0 L-157.8 9.15 M-159.85 5.65 L-160.05 5.05 -160.25 4.45 -160.25 4.05 -160.1 4.0 Q-159.75 4.25 -159.3 5.2 -159.0 5.9 -158.1 5.9 L-157.4 5.5 Q-156.75 5.0 -156.1 4.9 -156.7 6.9 -157.85 6.9 L-159.85 5.65 M-145.75 5.15 L-146.25 5.5 -147.55 4.8 Q-148.2 4.25 -149.1 4.25 -149.4 4.25 -149.7 5.45 -150.0 6.6 -152.0 6.6 L-153.45 6.35 -154.0 5.5 -154.6 6.1 -155.25 6.35 -156.0 6.1 -156.1 5.4 Q-155.65 3.35 -154.0 3.35 -153.35 3.35 -152.9 4.05 -152.4 4.75 -151.5 4.75 -150.9 3.05 -150.1 2.25 -148.55 0.7 -145.75 5.15 M-133.9 4.95 Q-134.9 3.15 -137.1 3.15 -139.4 3.15 -141.1 4.6 L-143.0 6.0 -143.55 5.85 -143.75 5.5 -143.75 5.25 Q-142.75 2.55 -137.6 2.1 -132.4 1.65 -132.4 5.0 L-132.65 6.0 Q-132.9 6.8 -133.25 7.1 -133.25 6.05 -133.9 4.95 M-130.0 6.15 L-129.85 5.0 -129.5 5.1 -128.95 7.85 Q-128.6 9.4 -128.6 9.8 L-128.7 10.4 -129.25 10.85 -129.85 10.5 Q-130.0 9.2 -130.8 7.4 L-131.75 4.9 -130.1 6.4 -130.0 6.15 M-127.85 2.5 Q-127.5 2.5 -127.4 2.75 -127.75 3.85 -127.75 6.1 -127.7 8.35 -128.0 9.25 L-128.6 9.0 -128.65 6.25 Q-128.65 3.2 -127.85 2.5 M-120.3 5.3 Q-119.15 4.6 -118.25 4.55 L-118.25 5.2 -120.6 7.0 -123.75 9.15 -124.1 8.9 Q-124.25 9.15 -124.25 8.5 L-123.9 7.9 -123.6 7.25 -123.7 6.65 Q-123.95 6.3 -124.9 6.25 -124.9 6.95 -125.25 7.5 L-125.9 7.25 -126.0 6.3 -125.9 5.35 -125.25 5.25 Q-123.55 5.25 -122.75 6.9 L-120.3 5.3 M-114.65 5.9 L-113.85 5.2 -113.65 5.3 -113.65 5.35 Q-114.45 7.5 -116.3 7.5 L-116.75 7.45 -116.85 6.15 -116.2 4.2 Q-115.9 4.7 -115.9 5.05 L-116.1 5.75 -116.1 6.6 Q-115.5 6.55 -114.65 5.9 M-109.5 6.75 L-108.5 6.9 Q-109.85 8.2 -113.8 9.85 L-114.0 10.1 -114.15 10.0 -114.5 10.1 Q-115.1 10.1 -115.1 9.75 -115.05 8.85 -114.25 8.2 -113.8 7.15 -112.3 5.8 -109.95 3.75 -107.75 3.5 -109.5 4.7 -111.6 7.1 L-109.5 6.75 M-94.35 11.0 Q-94.35 11.6 -94.75 11.25 L-98.75 8.75 Q-97.95 8.1 -96.1 9.25 -94.35 10.3 -94.35 11.0 M-11.1 89.5 L-12.0 89.4 -11.5 89.75 -11.6 89.9 -12.55 89.6 -12.85 89.75 -10.75 90.75 -9.65 90.75 -9.75 90.5 -11.1 89.5 M-57.5 82.65 L-57.35 82.75 -57.25 83.6 Q-57.4 84.15 -58.75 84.15 L-59.45 83.75 -59.75 82.9 Q-59.75 82.1 -58.35 81.9 -58.35 82.5 -58.8 82.7 L-59.25 83.0 Q-59.65 83.75 -58.0 83.75 L-57.55 83.7 -57.6 83.6 -57.5 82.65 M-65.25 77.25 Q-64.95 76.95 -64.25 76.8 L-62.85 76.65 -63.5 77.4 Q-63.8 77.75 -64.5 77.75 L-65.05 77.55 -65.25 77.25 M-62.25 75.0 L-62.0 74.5 -58.0 75.0 -60.85 75.5 -61.8 75.4 -62.25 75.0 M-59.15 74.1 L-59.15 73.5 Q-56.95 73.2 -55.0 73.95 -53.2 74.6 -53.0 75.5 L-53.1 75.65 -54.9 74.8 -59.15 74.1 M-71.1 22.65 L-71.25 22.75 Q-72.4 22.35 -73.6 21.5 L-72.75 21.25 -71.1 22.65 M-74.15 23.1 Q-73.4 23.9 -73.4 24.25 -73.4 24.9 -73.75 24.5 -75.45 23.8 -76.4 21.85 -75.1 22.0 -74.15 23.1 M-79.4 22.25 L-79.0 21.75 Q-78.05 22.0 -76.95 23.35 L-75.1 25.5 Q-75.9 25.55 -76.9 24.65 L-78.25 23.25 -78.35 24.0 -78.5 24.0 -79.4 22.25" fill="#5b5546" fill-rule="evenodd" stroke="none"/>
  </g>
</svg>
