<?xml version="1.0" encoding="UTF-8" standalone="no"?>
<svg xmlns:xlink="http://www.w3.org/1999/xlink" height="25.65px" width="182.95px" xmlns="http://www.w3.org/2000/svg">
  <g transform="matrix(1.0, 0.0, 0.0, 1.0, 89.95, 12.9)">
    <path d="M19.0 -8.9 Q29.5 -12.9 41.85 -12.9 L60.4 -11.9 64.15 -11.5 68.05 -11.85 77.35 -11.45 Q90.6 -9.25 90.6 1.6 90.6 6.75 80.45 6.95 L64.4 6.1 Q64.65 8.65 63.55 9.9 62.75 10.85 61.6 10.85 L56.55 10.35 55.2 10.85 52.3 11.0 29.6 9.75 9.85 8.3 -11.25 7.55 -18.3 7.65 -29.35 9.45 -44.5 10.9 -47.3 11.35 -49.25 11.2 -53.8 11.4 -56.45 10.95 -57.0 11.15 -58.35 11.15 -61.8 10.55 -65.4 10.0 Q-69.55 10.0 -72.5 9.1 -76.2 7.85 -71.25 6.4 L-83.4 6.7 Q-86.1 6.7 -88.55 4.35 L-89.0 3.85 Q-90.65 3.05 -89.45 0.5 -87.8 -3.2 -86.3 -3.2 L-86.2 -3.2 Q-85.95 -7.8 -81.25 -9.15 L-76.0 -9.65 -53.35 -8.7 -27.05 -7.7 Q3.4 -8.9 18.4 -8.9 L19.0 -8.9" fill="#ffffff" fill-rule="evenodd" stroke="none"/>
    <path d="M-77.5 -6.05 Q-68.3 -8.9 -67.2 -8.9 L-56.2 -7.75 -52.85 -8.5 -49.5 -9.2 Q-39.05 -9.2 -26.35 -6.45 -13.65 -3.7 6.7 -3.7 L10.25 -3.7 Q12.9 -3.15 12.9 -0.2 L5.5 6.7 -33.35 6.45 -45.7 4.9 -55.45 3.95 -60.3 4.35 -65.9 5.65 -71.6 6.6 -75.75 7.0 Q-76.7 7.0 -76.6 4.25 -77.6 1.5 -83.75 1.5 -89.2 0.95 -87.55 -3.15 -86.9 -4.75 -85.5 -6.0 -84.1 -7.2 -82.9 -7.2 L-80.2 -6.65 -77.5 -6.05" fill="#8d6d3f" fill-opacity="0.3019608" fill-rule="evenodd" stroke="none"/>
    <path d="M1.5 -5.2 L5.7 -5.75 Q5.35 -6.3 4.45 -6.3 L2.9 -5.85 1.45 -5.2 1.5 -5.2 M0.2 -5.2 L0.2 -5.4 -2.5 -5.2 0.2 -5.2 M-4.4 -5.2 L-5.35 -5.65 Q-6.1 -6.25 -6.1 -7.75 -6.1 -10.2 1.0 -10.95 L8.15 -11.25 Q11.85 -11.25 23.3 -8.65 L35.95 -5.75 36.15 -5.75 Q35.7 -8.9 36.85 -10.35 37.55 -11.25 38.5 -11.25 L66.0 -9.45 Q92.8 -6.8 92.8 -2.55 92.8 1.15 83.7 4.05 76.85 6.25 74.15 6.25 L32.15 6.15 21.6 6.85 Q15.2 7.25 11.0 5.95 8.45 5.2 5.3 3.65 1.8 1.85 0.85 1.5 L-4.75 0.8 Q-8.45 -0.3 -4.45 -5.15 L-4.4 -5.2" fill="#8d6d3f" fill-opacity="0.3019608" fill-rule="evenodd" stroke="none"/>
    <path d="M-28.9 7.75 Q-30.05 7.25 -30.05 5.0 -30.05 2.45 -28.45 1.95 L-26.45 1.9 -26.35 1.8 Q-51.3 -2.65 -25.1 -4.9 L12.75 -6.35 Q19.65 -6.35 26.75 -4.9 L33.9 -3.4 44.75 -5.5 Q56.45 -7.5 61.1 -7.5 L75.85 -6.95 Q89.6 -5.55 89.6 -1.1 89.6 3.7 86.0 3.9 L80.85 2.95 80.6 3.05 Q81.6 4.45 81.6 6.15 81.6 8.9 79.6 9.45 L77.4 9.45 57.8 7.25 39.75 5.1 21.25 4.0 2.55 2.95 Q-22.7 7.85 -27.3 7.85 L-28.9 7.75" fill="#8d6d3f" fill-opacity="0.3019608" fill-rule="evenodd" stroke="none"/>
    <path d="M76.85 -3.15 Q77.95 -3.15 84.85 -5.7 93.0 0.4 93.0 3.25 93.0 5.95 91.4 6.5 L89.75 6.45 Q81.5 4.7 80.05 4.7 L73.6 4.8 75.55 5.65 Q76.8 6.35 76.8 8.45 76.8 10.9 75.1 11.35 L73.3 11.35 60.45 10.9 44.9 8.75 31.8 8.1 Q19.4 6.0 19.4 -1.4 19.4 -3.75 43.55 -4.25 55.65 -4.55 67.7 -4.35 L76.85 -3.15 M49.85 4.5 L52.5 4.5 46.95 3.55 47.0 3.65 49.85 4.5" fill="#8d6d3f" fill-opacity="0.3019608" fill-rule="evenodd" stroke="none"/>
    <path d="M34.25 -7.1 L46.45 -7.8 Q52.8 -7.8 60.1 -6.45 67.5 -5.15 76.85 -5.15 L78.5 -6.85 Q80.1 -8.6 80.45 -8.6 83.45 -8.6 86.9 -7.45 92.6 -5.5 92.6 -1.4 92.6 2.1 90.7 2.2 L88.05 1.65 87.85 1.8 88.1 2.6 88.25 4.1 Q88.25 6.9 83.75 8.55 L79.1 9.7 51.55 8.45 Q47.1 8.45 35.95 6.45 L25.0 4.4 13.7 5.65 11.95 5.35 Q10.85 4.35 11.6 0.45 -0.15 -4.45 8.2 -5.85 L21.65 -6.35 34.25 -7.1 M75.5 3.05 L75.55 3.4 75.65 3.8 77.6 3.8 75.5 3.05" fill="#8d6d3f" fill-opacity="0.3019608" fill-rule="evenodd" stroke="none"/>
    <path d="M-74.4 -7.2 Q-69.95 -8.35 -67.8 -8.35 L-53.4 -7.2 -39.25 -6.0 -0.9 -7.45 1.1 -7.2 Q2.8 -6.5 2.8 -4.25 2.8 -2.25 2.2 -1.15 L1.2 -0.1 11.8 0.05 25.9 -1.25 36.05 -2.6 50.0 -1.65 64.45 -0.2 64.65 0.25 64.8 0.95 Q64.35 1.45 62.35 1.95 L59.9 2.5 53.3 1.7 Q50.1 0.95 45.1 0.95 L12.8 4.45 Q-16.9 8.0 -41.15 8.0 L-59.4 8.0 -69.65 6.55 -77.65 5.1 -80.7 5.65 -83.75 6.25 Q-85.95 6.25 -87.5 4.35 -89.0 2.5 -89.05 0.05 -89.2 -6.05 -81.35 -6.05 -78.9 -6.05 -74.4 -7.2 M-3.0 -0.8 Q-1.55 -0.1 0.15 -0.1 L0.15 -0.2 -1.55 -0.7 -3.1 -0.85 -3.0 -0.8" fill="#8d6d3f" fill-opacity="0.3019608" fill-rule="evenodd" stroke="none"/>
    <path d="M-51.65 11.6 L-52.8 11.85 -53.95 12.1 Q-57.55 12.1 -58.45 9.0 -59.4 5.95 -56.25 5.95 -50.65 5.95 -47.4 6.1 L-40.65 6.25 Q-38.7 6.25 -38.7 7.75 -38.7 10.2 -40.95 10.6 L-43.3 10.5 Q-45.05 10.5 -46.15 11.3 -47.25 12.15 -48.0 12.15 L-51.65 11.6" fill="#666666" fill-opacity="0.3019608" fill-rule="evenodd" stroke="none"/>
    <path d="M-49.5 7.85 L-47.65 6.3 -46.4 5.6 Q-45.95 5.6 -42.55 7.05 -39.25 8.5 -39.25 8.6 -39.25 10.05 -43.25 10.75 L-47.3 11.1 Q-49.5 11.1 -52.25 9.2 -55.0 7.35 -51.45 7.35 -50.8 7.35 -49.5 7.85" fill="#666666" fill-opacity="0.3019608" fill-rule="evenodd" stroke="none"/>
    <path d="M-43.9 6.9 Q-43.0 8.65 -43.0 9.95 -43.0 11.8 -43.6 12.2 L-44.3 12.2 Q-50.75 12.2 -48.3 8.7 L-45.3 5.25 Q-44.75 5.25 -43.9 6.9" fill="#666666" fill-opacity="0.3019608" fill-rule="evenodd" stroke="none"/>
    <path d="M43.4 9.5 Q44.6 6.45 52.8 6.45 L57.95 6.45 Q61.85 7.0 61.85 9.9 61.85 12.15 56.2 12.6 L50.75 12.6 Q42.2 12.6 43.4 9.5" fill="#666666" fill-opacity="0.3019608" fill-rule="evenodd" stroke="none"/>
    <path d="M55.5 3.35 Q61.85 3.35 61.85 8.05 61.85 11.2 60.35 11.85 L58.75 11.85 52.4 10.65 Q47.05 9.2 51.45 7.95 L51.2 6.3 Q51.2 3.85 53.3 3.35 54.4 3.1 55.5 3.35 M56.45 6.6 Q58.0 6.55 58.7 7.4 L58.85 7.5 Q58.2 6.0 56.4 5.95 55.35 5.9 54.15 6.35 L54.2 6.35 56.45 6.6" fill="#666666" fill-opacity="0.3019608" fill-rule="evenodd" stroke="none"/>
    <path d="M59.95 6.7 Q61.1 6.95 61.1 8.0 61.1 8.25 59.2 9.7 L57.45 11.1 Q55.15 9.95 54.05 8.85 51.85 6.6 58.45 6.6 L59.95 6.7" fill="#666666" fill-opacity="0.3019608" fill-rule="evenodd" stroke="none"/>
    <path d="M44.35 -4.9 Q49.8 -5.2 61.0 -5.3 L63.0 -5.3 63.35 -4.9 Q62.7 -4.4 61.9 -4.4 L44.35 -4.65 44.35 -4.9 M67.45 -4.7 L67.4 -5.25 Q69.6 -6.15 72.25 -6.15 L72.85 -6.05 73.25 -5.9 73.4 -5.65 Q71.3 -4.65 70.65 -4.65 L67.45 -4.7 M70.5 -0.65 L77.4 -1.15 78.85 -1.15 79.15 -0.5 Q78.8 0.1 78.0 0.1 L70.5 -0.3 70.5 -0.65 M77.4 -5.2 L88.6 -5.8 89.7 -5.8 89.5 -7.85 Q71.55 -8.55 51.5 -8.5 L6.9 -8.25 Q-17.65 -8.05 -40.65 -8.4 -63.7 -8.7 -86.2 -8.1 L-86.25 -6.35 -86.2 -5.7 -82.9 -6.0 -79.65 -5.9 -79.4 -5.4 Q-80.25 -4.75 -82.8 -4.75 L-86.2 -5.05 Q-86.2 -2.7 -86.3 -2.75 -86.55 -2.75 -86.55 1.0 L-86.55 1.9 Q-86.2 1.6 -85.45 1.6 L-75.4 1.85 -64.25 2.25 -63.95 2.35 -75.0 2.85 -85.45 3.1 -86.5 2.95 -86.45 4.25 -86.35 5.4 -86.35 5.65 -84.85 5.65 -82.5 5.65 -80.15 5.7 -77.95 5.75 -75.7 5.8 -73.55 5.8 -71.45 5.85 -69.45 5.9 -67.4 5.9 -63.6 5.95 -60.0 5.95 -56.6 5.95 -53.45 5.95 -50.45 5.95 -49.5 5.95 -47.7 5.95 -44.05 5.9 -41.85 5.85 -39.85 5.85 -36.6 5.8 -33.35 5.8 -33.0 5.8 -29.35 5.7 -27.05 5.65 -24.55 5.65 -20.4 5.65 -17.5 5.5 -14.75 5.5 -11.15 5.5 -8.1 5.45 -4.35 5.45 -0.45 5.5 2.15 5.5 6.95 5.6 9.15 5.7 11.1 5.75 14.6 5.85 17.55 5.85 20.8 5.9 24.0 5.95 27.35 6.05 31.35 6.15 33.55 6.2 35.95 6.2 38.45 6.25 42.8 6.35 44.7 6.35 44.9 6.25 45.5 6.35 45.95 6.35 48.6 6.35 52.2 6.4 55.35 6.4 58.5 6.4 61.45 6.35 64.4 6.3 67.2 6.25 69.95 6.2 72.6 6.15 77.55 6.05 79.8 6.0 81.8 6.0 85.45 6.05 88.4 6.15 88.7 6.15 89.55 5.9 89.55 3.35 89.45 3.35 79.6 3.1 79.6 2.85 89.55 2.5 89.55 -0.15 83.4 -0.4 83.35 -0.9 89.55 -1.45 89.65 -4.45 89.45 -4.45 77.4 -4.95 77.4 -5.2 M90.35 -8.05 L90.6 -6.3 90.65 -5.8 90.75 -5.8 91.1 -5.15 90.7 -4.7 90.75 -1.45 91.45 -1.4 91.65 -0.8 90.75 -0.2 90.75 3.1 90.75 6.0 90.45 6.95 90.6 7.35 89.4 7.3 88.15 7.25 86.8 7.2 85.3 7.15 83.75 7.15 82.1 7.15 80.35 7.15 78.45 7.25 76.65 7.25 73.25 7.35 70.25 7.4 66.5 7.45 65.2 7.45 61.4 7.4 60.75 7.4 60.45 12.3 59.9 12.75 59.15 12.35 57.55 12.35 53.95 12.4 50.45 12.4 45.65 12.45 45.5 12.45 45.5 12.5 45.15 12.6 44.9 12.45 44.45 12.45 44.45 10.95 44.5 10.95 44.4 9.4 Q44.35 8.2 44.45 7.45 L40.7 7.4 38.75 7.4 35.1 7.35 30.45 7.35 27.95 7.4 24.2 7.35 21.65 7.3 19.05 7.25 12.75 7.05 7.9 6.95 5.0 6.9 -0.75 6.95 -3.15 6.95 -4.35 6.95 -6.95 6.95 -9.75 6.95 -14.4 7.0 -17.7 7.05 -23.0 7.15 -26.8 7.25 -28.8 7.3 -30.7 7.3 -32.65 7.3 -33.0 7.3 -36.4 7.35 -40.0 7.4 -41.25 7.4 -41.25 9.65 -41.0 9.65 -40.75 10.2 -41.3 10.5 -41.3 10.8 -41.05 10.8 -41.05 12.3 -41.5 12.3 -42.1 12.75 -42.85 12.35 -44.45 12.35 -48.05 12.4 -51.55 12.4 -56.35 12.45 -56.5 12.45 -56.5 12.5 Q-56.2 12.6 -56.85 12.6 L-57.1 12.45 -57.55 12.45 -57.55 10.95 -57.5 10.95 -57.6 9.4 -57.55 7.55 -58.4 7.55 -60.95 7.55 -65.55 7.6 -69.5 7.55 -72.9 7.5 -75.75 7.5 -80.6 7.45 -82.6 7.4 -83.45 7.4 -85.55 7.35 -87.3 7.35 -87.05 6.8 -87.4 5.9 -87.55 -2.0 -87.2 -8.7 Q-87.1 -9.4 -86.55 -9.4 L-86.05 -9.3 -55.7 -9.6 -9.65 -9.4 Q17.45 -9.2 42.55 -9.55 67.65 -9.9 90.4 -8.9 L90.35 -8.05 M54.4 10.95 L57.35 10.8 59.4 10.8 59.55 8.55 58.85 9.0 58.05 9.0 54.05 8.65 50.1 7.85 50.25 7.7 50.7 7.65 59.4 7.85 59.6 8.25 59.75 7.4 58.9 7.4 56.0 7.4 54.45 7.4 52.7 7.4 49.0 7.4 45.5 7.45 45.5 10.95 46.25 10.95 49.55 11.0 52.05 11.05 54.4 10.95 M37.6 0.5 L36.5 0.7 30.25 0.6 30.2 0.2 36.55 -0.15 37.45 0.05 37.6 0.5 M23.85 0.8 Q11.45 0.8 -15.05 0.1 L-15.05 -0.05 27.15 -0.65 Q27.45 -0.6 27.45 0.05 27.45 1.05 23.85 0.8 M-86.0 -2.2 L-76.5 -2.65 -73.9 -2.65 -73.55 -2.15 Q-73.9 -1.65 -75.2 -1.65 L-86.0 -2.0 -86.0 -2.2 M-75.7 -5.45 L-48.25 -5.75 -41.65 -5.5 -41.65 -5.25 -48.3 -4.95 -75.7 -5.25 -75.7 -5.45 M-64.3 -0.45 L-57.15 -1.15 -55.15 -0.9 -55.15 -0.55 -60.25 -0.1 -64.2 -0.05 -66.2 -0.35 -68.45 -0.65 -68.45 -0.9 -66.1 -0.7 -64.3 -0.45 M-47.0 8.8 L-46.4 8.35 Q-45.7 8.35 -44.2 8.95 L-42.65 7.4 -43.5 7.4 -48.3 7.45 -49.5 7.45 -52.9 7.5 -55.75 7.55 -56.5 7.55 -56.5 10.95 -55.75 10.95 -52.1 10.9 -49.9 10.85 -47.9 10.85 -44.65 10.8 -44.4 10.8 -44.55 10.2 -44.75 10.15 -47.3 9.6 -47.0 8.8" fill="#5a493f" fill-rule="evenodd" stroke="none"/>
  </g>
</svg>
