<?xml version="1.0" encoding="UTF-8" standalone="no"?>
<svg xmlns:xlink="http://www.w3.org/1999/xlink" height="44.8px" width="48.55px" xmlns="http://www.w3.org/2000/svg">
  <g transform="matrix(1.0, 0.0, 0.0, 1.0, 23.75, 22.75)">
    <path d="M21.45 -15.8 L21.15 -14.7 Q21.0 -13.75 21.0 -10.6 21.0 -9.5 21.9 -1.6 L22.75 9.05 22.6 13.7 22.55 13.75 Q21.15 17.35 20.3 18.55 20.1 18.85 19.95 19.9 19.7 20.75 18.75 20.75 L-16.0 21.8 Q-20.2 21.8 -22.05 20.75 L-22.45 16.85 -22.95 11.55 Q-20.85 -8.15 -20.85 -10.55 L-20.95 -13.05 Q-21.15 -13.9 -21.65 -14.0 L-21.6 -18.6 Q-21.6 -20.85 -20.85 -20.75 -19.6 -20.1 -18.6 -20.1 -17.75 -20.1 -16.3 -20.85 -14.8 -21.6 -10.1 -21.6 L-7.7 -21.85 -7.5 -21.8 -0.95 -21.4 16.8 -21.7 Q19.6 -19.55 21.45 -15.8 M24.8 2.4 L24.8 3.75 24.75 7.2 24.45 2.55 24.8 2.4" fill="#ffffff" fill-rule="evenodd" stroke="none"/>
    <path d="M18.4 -7.9 Q19.3 -6.5 19.5 -5.4 L18.85 -4.65 19.95 -0.45 Q21.5 4.65 21.5 7.35 L21.5 15.25 Q20.6 21.35 16.0 21.35 L14.8 21.25 15.2 20.95 Q14.7 20.55 1.5 20.6 L-6.55 20.25 Q-17.35 20.25 -19.95 18.25 -21.5 17.1 -21.5 12.25 -20.55 -3.75 -20.55 -6.05 L-20.5 -6.25 -20.5 -6.4 Q-20.5 -7.5 -19.15 -8.3 L-18.3 -9.8 Q-18.3 -12.75 -20.9 -13.95 -23.55 -15.1 -23.55 -17.05 -23.55 -18.45 -22.5 -19.05 L-19.5 -19.55 Q-6.5 -19.5 -5.3 -19.25 -5.25 -18.55 -4.0 -18.55 L9.75 -19.5 Q18.95 -19.5 20.85 -17.75 21.85 -16.85 21.0 -15.8 21.0 -13.9 19.7 -12.55 18.35 -11.15 18.35 -8.55 L18.4 -7.9" fill="#8d6d3f" fill-opacity="0.3019608" fill-rule="evenodd" stroke="none"/>
    <path d="M11.1 -8.05 L13.1 -7.25 13.45 -8.45 Q13.95 -9.0 16.0 -9.0 17.25 -9.0 18.0 -6.5 L18.5 -3.85 Q18.5 -2.4 14.5 -2.3 L-5.0 -1.8 Q-13.45 -2.15 -20.5 -2.1 -22.3 -2.15 -22.8 -2.55 -23.3 -2.9 -23.3 -4.05 1.25 -8.55 9.5 -8.55 L11.1 -8.05" fill="#8d6d3f" fill-opacity="0.3019608" fill-rule="evenodd" stroke="none"/>
    <path d="M2.5 -11.75 Q3.55 -10.65 3.8 -9.65 L3.85 -7.8 18.0 -6.35 Q20.75 -5.75 20.75 -3.85 20.75 -2.9 20.4 -2.7 L17.4 -2.25 -8.5 -1.25 -12.1 -2.4 Q-13.25 -2.95 -13.25 -4.0 L-12.75 -5.05 Q-12.1 -5.75 -11.25 -5.75 -10.6 -5.75 -9.85 -5.25 -9.1 -4.75 -8.5 -4.75 L0.0 -4.8 Q-0.25 -6.8 -0.65 -7.3 L-1.0 -7.5 -0.65 -8.75 Q-0.3 -9.8 -0.3 -10.5 -0.3 -11.3 0.55 -11.5 L2.5 -11.75" fill="#8d6d3f" fill-opacity="0.3019608" fill-rule="evenodd" stroke="none"/>
    <path d="M12.4 5.45 Q12.75 3.85 14.5 3.85 16.65 3.85 17.0 6.5 17.25 8.35 16.6 10.5 19.25 10.75 19.25 12.5 19.25 15.0 -2.25 14.3 -23.75 13.6 -23.75 12.0 -23.75 11.2 -22.7 10.75 -20.6 9.8 -14.25 9.35 L-14.25 9.25 -13.5 9.1 -10.95 8.95 Q-9.3 8.95 -9.3 9.75 L-9.3 10.2 -8.75 10.1 Q-4.75 10.1 -4.2 9.55 L-4.25 8.5 Q-4.0 7.05 12.35 7.6 L12.4 5.45" fill="#8d6d3f" fill-opacity="0.3019608" fill-rule="evenodd" stroke="none"/>
    <path d="M9.95 10.1 L16.25 10.6 16.4 10.5 16.5 11.35 Q16.5 14.9 -2.85 15.1 -22.25 15.25 -22.25 13.0 -22.25 11.3 -16.8 10.6 L3.0 9.85 9.95 10.1" fill="#8d6d3f" fill-opacity="0.3019608" fill-rule="evenodd" stroke="none"/>
    <path d="M21.0 13.5 Q20.15 14.1 18.0 14.1 L13.15 13.6 8.25 13.1 -8.75 13.6 Q-22.75 13.25 -22.75 9.0 L-22.95 6.95 Q-23.0 5.65 -22.0 4.85 -19.2 2.6 -6.75 2.6 L18.0 3.35 Q19.65 3.65 19.65 4.2 L19.35 5.4 Q19.35 6.05 18.8 6.75 18.25 7.45 18.25 8.05 18.25 8.6 19.95 10.15 21.6 11.65 21.6 12.0 21.6 13.0 21.0 13.5" fill="#8d6d3f" fill-opacity="0.3019608" fill-rule="evenodd" stroke="none"/>
    <path d="M20.85 -11.55 L21.05 -9.4 Q21.2 -7.5 20.75 -6.1 19.35 -1.75 12.5 -1.75 L7.85 -2.1 -4.5 -2.5 -9.65 -2.75 -12.0 -3.05 -16.1 -2.5 -18.45 -1.8 Q-19.8 -1.55 -19.8 -5.4 L-19.95 -8.35 Q-19.8 -10.1 -18.05 -11.25 -13.35 -14.25 6.0 -14.25 L19.5 -13.55 Q20.85 -13.2 20.85 -11.55" fill="#8d6d3f" fill-opacity="0.3019608" fill-rule="evenodd" stroke="none"/>
    <path d="M21.35 -21.55 Q22.6 -21.05 22.6 -19.55 22.6 -15.35 0.8 -15.45 L-14.25 -16.0 Q-21.05 -16.5 -21.05 -16.9 L-21.2 -19.25 Q-21.05 -20.4 -19.05 -21.1 -14.05 -22.75 8.5 -22.75 18.5 -22.75 21.35 -21.55" fill="#8d6d3f" fill-opacity="0.3019608" fill-rule="evenodd" stroke="none"/>
    <path d="M22.0 -3.0 Q22.85 -2.65 22.8 -2.1 L22.6 -1.4 Q22.6 0.4 10.5 1.25 9.9 1.25 9.55 0.75 9.25 0.25 8.6 0.25 L-14.05 1.25 Q-22.3 1.55 -22.3 -1.55 -22.3 -3.05 -18.5 -3.45 -13.0 -4.05 8.25 -4.05 19.4 -4.05 22.0 -3.0" fill="#8d6d3f" fill-opacity="0.3019608" fill-rule="evenodd" stroke="none"/>
    <path d="M22.2 14.65 L22.35 15.35 Q22.35 18.5 15.25 20.3 9.0 21.95 -0.3 22.05 -9.4 22.1 -15.9 20.7 -23.0 19.2 -23.0 16.6 -23.0 15.15 -21.25 13.65 -18.75 11.5 -14.0 11.5 -11.5 11.5 -10.8 12.5 L-10.0 13.5 Q13.45 13.55 19.3 14.05 21.75 14.25 22.2 14.65" fill="#8d6d3f" fill-opacity="0.3019608" fill-rule="evenodd" stroke="none"/>
    <path d="M11.75 -16.35 L8.3 -16.65 12.45 -16.8 20.25 -17.0 20.35 -18.15 14.55 -18.0 14.55 -18.3 20.35 -18.45 20.65 -19.8 20.65 -19.85 20.3 -19.85 20.5 -20.0 20.25 -20.0 11.25 -19.95 Q-8.0 -19.95 -16.6 -20.1 L-20.7 -20.2 -20.55 -19.8 -20.45 -18.6 -20.5 -15.9 -20.65 -14.0 20.3 -13.95 20.25 -15.2 20.25 -16.45 14.6 -16.45 11.75 -16.35 M13.2 -12.55 L9.25 -12.55 9.45 -3.05 Q19.55 -3.1 19.05 -3.25 18.5 -3.4 18.95 -3.5 L18.85 -5.1 18.6 -9.6 18.5 -11.1 18.4 -12.5 18.35 -12.75 19.55 -12.75 19.55 -12.5 19.65 -9.6 19.9 -5.55 20.05 -3.5 19.05 -3.5 20.25 -3.45 20.75 -3.45 20.75 -3.5 21.45 -3.5 21.45 -3.35 21.6 -2.9 21.5 -2.8 21.6 1.8 21.6 1.9 21.6 2.1 21.5 2.1 20.9 2.25 20.45 2.25 20.45 2.3 19.9 2.3 19.9 2.25 19.5 2.25 18.9 2.3 19.55 2.3 19.6 9.45 19.5 13.35 20.25 13.35 20.25 13.6 21.55 13.6 21.5 17.4 21.6 20.85 21.45 20.75 21.25 20.85 20.25 20.8 18.8 20.75 18.8 20.8 18.65 20.75 10.5 21.1 -20.75 20.95 -20.95 21.0 -20.95 21.05 -21.1 21.05 -21.15 21.05 -21.25 21.05 -21.25 21.0 -21.3 20.95 -21.45 20.9 -21.45 20.75 -21.4 20.75 -21.55 20.3 -21.7 20.25 -21.9 19.85 -21.9 19.8 -21.9 19.7 -21.65 18.05 -21.55 17.65 -21.7 17.65 -21.7 17.3 -22.05 17.05 -21.75 16.75 -21.85 13.25 -21.8 13.2 -20.6 13.2 -20.6 13.15 -19.95 13.15 -20.0 6.25 -20.0 2.6 -20.65 2.6 -20.65 2.5 -21.7 2.5 Q-21.7 1.75 -21.85 1.25 L-21.7 -2.65 -21.95 -2.75 -20.65 -2.75 -21.25 -2.95 -21.25 -3.05 -20.35 -3.0 -20.3 -3.3 -20.1 -3.3 -19.95 -6.8 -19.95 -10.4 -19.9 -12.65 -20.1 -12.65 -20.1 -13.15 -20.5 -13.15 -20.65 -13.3 -21.55 -13.3 -21.6 -14.0 -21.5 -14.0 -21.45 -18.65 -21.4 -19.75 -21.35 -19.8 -21.25 -19.95 -21.25 -20.65 -21.05 -20.8 -21.0 -20.7 -18.85 -21.15 -6.85 -20.7 -3.25 -20.8 2.75 -20.75 20.25 -20.65 21.25 -20.6 21.3 -20.4 21.45 -20.15 21.1 -20.0 21.2 -20.0 21.2 -19.8 21.05 -18.2 21.05 -16.7 21.1 -13.8 21.5 -13.4 21.4 -12.9 21.1 -12.85 21.1 -12.75 20.35 -12.75 20.35 -12.85 20.25 -12.85 18.05 -12.85 16.6 -12.85 16.4 -12.65 14.45 -12.55 14.6 -8.05 14.45 -6.45 14.35 -6.35 Q14.05 -7.75 14.05 -11.05 L14.1 -12.55 13.2 -12.55 M0.15 -12.65 Q0.55 -10.4 0.5 -2.95 L8.85 -3.05 8.95 -12.55 0.15 -12.65 M17.55 -0.3 L18.0 1.25 18.95 1.35 18.9 1.0 18.95 0.1 19.15 0.1 19.3 1.0 19.25 1.4 20.85 1.3 20.75 -2.35 20.25 -2.15 13.8 -2.25 7.25 -2.2 Q5.15 -2.05 -7.25 -2.2 L-20.75 -2.4 -20.7 1.3 -16.05 1.3 Q-16.0 1.05 -15.5 1.0 L-15.65 1.3 -11.15 1.25 -11.2 1.25 -11.05 1.25 -9.9 1.25 -9.9 1.1 -9.4 1.25 2.1 1.2 1.95 1.2 6.9 1.15 7.25 1.15 7.7 1.15 7.8 1.15 8.8 1.1 9.45 1.1 Q13.35 0.95 17.1 1.2 L17.05 0.6 17.15 -0.65 17.65 -0.6 17.55 -0.3 M20.35 14.7 L20.35 14.65 15.8 14.3 6.25 13.9 Q1.75 13.6 -1.3 14.0 L-20.55 13.4 -20.55 13.85 -20.7 14.3 -20.8 16.45 -20.0 16.35 -14.65 16.4 -14.45 16.5 -17.6 16.9 -20.8 17.1 -20.8 18.4 Q-20.65 19.25 -20.3 19.7 L-20.2 19.8 -20.5 19.95 -20.5 20.2 -19.45 19.95 -19.0 19.95 -14.85 19.85 -8.05 20.35 16.4 20.0 Q16.7 19.8 17.35 19.7 L17.4 19.7 17.9 19.7 18.6 19.7 18.8 19.7 19.25 19.7 19.65 19.75 19.9 19.95 20.25 19.95 Q20.55 19.9 20.65 19.7 L20.75 19.2 20.55 16.1 20.55 15.95 20.6 15.45 20.35 14.7 M18.7 2.3 L15.85 2.35 15.55 2.35 15.55 2.25 14.5 2.25 14.5 2.35 9.45 2.3 9.45 9.15 9.1 9.3 Q8.4 8.65 8.5 6.9 L8.8 4.1 8.8 2.3 0.45 2.3 0.3 9.85 0.3 10.9 Q0.25 11.7 -0.15 11.7 -0.5 11.7 -0.55 10.8 L-0.55 9.85 -0.5 2.3 -9.35 2.4 -9.35 4.05 -8.95 7.85 Q-8.75 10.1 -9.65 11.05 L-9.95 7.9 -9.9 4.8 -9.9 2.4 -11.45 2.4 -18.85 2.4 -18.55 13.1 -12.9 13.0 -12.9 12.95 -12.1 12.95 -11.65 12.95 -10.9 12.95 5.6 13.15 5.45 12.2 Q5.45 11.55 5.75 11.4 6.2 11.7 6.2 13.15 L7.0 13.15 6.95 11.1 6.8 8.95 Q6.75 7.6 7.25 7.25 7.55 8.3 7.55 11.05 L7.5 13.15 8.7 13.2 8.7 12.8 Q8.7 11.75 8.85 10.75 L9.35 10.9 9.25 11.7 9.35 13.2 12.75 13.25 14.25 13.3 14.55 8.25 14.8 8.2 15.1 12.25 15.1 13.35 15.55 13.35 15.55 13.3 17.0 13.35 16.6 13.35 18.45 13.45 18.45 13.35 18.3 13.35 18.7 2.45 18.7 2.3 M14.35 5.25 L14.05 5.6 13.8 5.55 13.8 4.75 14.45 4.7 14.55 4.95 14.35 5.25 M3.4 9.5 Q3.4 11.35 4.2 12.7 L3.6 13.05 Q3.3 13.05 3.0 11.8 L2.75 10.5 2.8 9.85 Q2.95 9.3 3.4 9.5 M3.55 19.4 Q4.9 19.25 18.55 19.25 L18.6 19.5 9.5 19.65 4.0 19.55 3.55 19.4 M-9.55 -12.7 L-9.45 -2.85 -0.4 -2.95 -0.15 -12.65 -9.55 -12.7 M-18.55 -12.8 L-18.65 -13.05 -18.55 -13.15 -18.7 -13.15 -18.9 -10.6 -18.75 -2.8 -18.6 -2.8 -9.9 -2.85 -9.8 -12.7 -17.55 -12.8 -17.55 -5.0 -17.9 -4.85 Q-18.5 -5.45 -18.4 -6.85 L-18.2 -9.25 -18.45 -11.85 -18.4 -12.8 -18.55 -12.8 M-15.6 -8.2 L-15.65 -8.1 Q-16.3 -8.15 -16.5 -9.2 L-16.55 -10.7 Q-16.55 -12.4 -16.25 -12.6 -15.95 -11.95 -15.95 -10.45 -16.0 -8.95 -15.6 -8.2 M-16.5 2.55 L-16.65 2.7 -16.7 2.6 -16.5 2.55 M-19.35 17.9 L-9.5 17.7 -4.7 17.7 -4.65 17.95 -4.7 18.2 -9.5 18.2 -15.65 18.5 Q-18.15 18.65 -19.35 17.9" fill="#5a493f" fill-rule="evenodd" stroke="none"/>
  </g>
</svg>
