<?xml version="1.0" encoding="UTF-8" standalone="no"?>
<svg xmlns:xlink="http://www.w3.org/1999/xlink" height="214.95px" width="115.5px" xmlns="http://www.w3.org/2000/svg">
  <g transform="matrix(1.0, 0.0, 0.0, 1.0, 0.0, -37.55)">
    <path d="M38.4 114.3 L22.35 115.4 11.7 116.05 Q16.6 119.75 23.0 125.6 30.95 132.9 37.05 139.6 37.55 124.9 38.4 114.3 M60.0 112.25 L49.2 113.35 Q50.5 122.95 49.95 136.85 L62.9 123.8 Q70.0 116.85 74.75 112.7 L60.0 112.25 M84.0 38.75 L114.05 38.65 Q113.5 42.1 113.5 46.5 113.5 49.5 115.5 69.0 115.5 78.75 112.9 98.25 111.65 107.35 111.0 114.3 L82.4 113.0 Q78.2 119.85 65.5 131.6 58.2 138.3 51.45 143.45 L49.55 144.9 47.45 170.15 Q45.75 188.5 45.75 195.75 L45.55 224.25 Q44.6 252.5 41.0 252.5 37.45 252.5 36.5 223.5 L36.25 195.35 Q36.25 171.65 36.7 153.1 29.85 148.6 17.75 134.75 11.1 127.1 5.85 120.0 L3.35 116.5 0.0 116.7 0.0 37.55 Q23.2 38.75 84.0 38.75" fill="url(#gradient0)" fill-rule="evenodd" stroke="none"/>
  </g>
  <defs>
    <linearGradient gradientTransform="matrix(0.0, 0.293, -0.2841, 0.0, 320.0, 240.0)" gradientUnits="userSpaceOnUse" id="gradient0" spreadMethod="pad" x1="-819.2" x2="819.2">
      <stop offset="0.0" stop-color="#9fdfdf"/>
      <stop offset="1.0" stop-color="#ffffff"/>
    </linearGradient>
  </defs>
</svg>
