<?xml version="1.0" encoding="UTF-8" standalone="no"?>
<svg xmlns:xlink="http://www.w3.org/1999/xlink" height="174.05px" width="212.55px" xmlns="http://www.w3.org/2000/svg">
  <g transform="matrix(1.0, 0.0, 0.0, 1.0, 64.3, 79.55)">
    <path d="M10.5 -28.25 L10.15 -29.1 Q9.75 -29.8 9.75 -31.25 9.75 -35.1 29.85 -38.45 47.8 -41.5 61.85 -41.5 62.75 -41.5 74.1 -45.25 85.5 -49.0 93.1 -49.0 97.45 -49.0 103.35 -52.15 106.65 -53.9 112.4 -57.55 116.8 -60.05 118.45 -59.0 120.55 -57.7 119.85 -50.5 L120.1 -49.25 Q122.05 -49.6 126.8 -51.95 131.0 -54.0 133.35 -54.0 138.4 -54.0 140.1 -51.05 140.85 -49.8 140.85 -47.85 140.85 -45.25 138.2 -43.35 136.6 -42.2 132.35 -40.4 128.1 -38.6 126.5 -37.45 123.85 -35.5 123.85 -32.85 123.85 -31.6 121.5 -29.85 117.3 -26.7 114.85 -24.25 L115.85 -20.5 117.7 -21.25 Q119.4 -22.0 120.85 -22.0 124.7 -22.0 126.15 -19.05 126.85 -17.65 126.85 -15.85 126.85 -12.9 122.95 -9.5 118.8 -5.9 111.1 -2.75 L114.65 -2.45 119.35 -2.75 Q123.75 -2.75 125.6 0.0 126.6 1.45 126.6 3.0 126.6 4.6 125.3 6.0 L120.6 10.5 Q123.55 11.9 123.4 13.9 L122.6 17.25 Q122.6 19.45 124.3 20.3 125.2 20.8 128.0 21.2 133.35 21.95 133.35 25.85 L132.35 34.85 Q132.35 38.3 128.5 40.5 122.25 43.45 117.35 46.25 120.55 46.75 122.2 48.85 123.35 50.35 123.35 51.85 123.35 53.25 111.4 64.3 99.2 75.5 96.85 75.5 91.95 75.5 91.2 72.15 L91.35 67.0 85.85 67.5 Q67.5 67.5 71.35 57.0 L71.35 56.75 Q63.45 56.6 61.8 53.85 61.25 52.9 61.3 51.45 L61.35 49.25 Q52.65 49.1 49.9 46.95 48.6 45.95 48.6 43.85 48.6 42.9 49.85 41.7 L54.35 37.5 54.35 36.0 52.6 35.2 Q51.7 34.75 50.25 34.75 48.0 34.75 40.9 37.9 33.8 41.0 30.85 41.0 24.2 41.0 22.4 38.1 21.8 37.15 21.75 36.0 L21.85 34.85 Q21.85 30.85 27.2 23.5 32.1 16.85 36.6 13.5 L37.6 12.75 Q33.4 12.75 26.15 15.4 18.9 18.0 17.85 18.0 13.0 18.0 11.5 14.9 L11.0 11.5 Q11.0 6.2 14.15 0.15 18.75 -8.55 27.35 -9.5 15.3 -13.1 13.75 -13.8 11.5 -14.85 11.5 -17.35 11.5 -18.4 12.25 -18.75 L14.4 -19.25 Q18.35 -20.35 21.6 -25.25 20.9 -26.35 18.75 -26.8 L10.5 -28.25" fill="#996600" fill-opacity="0.2" fill-rule="evenodd" stroke="none"/>
    <path d="M24.6 -12.3 Q23.6 -17.05 23.6 -22.0 23.6 -29.5 25.65 -33.25 30.6 -42.25 46.35 -42.25 57.1 -42.25 58.3 -40.85 L59.4 -39.95 64.35 -39.5 Q67.25 -39.5 82.7 -47.0 98.1 -54.5 99.85 -54.5 103.9 -54.5 105.0 -51.3 105.35 -50.25 105.35 -47.5 110.55 -49.1 114.35 -51.9 117.15 -54.0 119.85 -54.0 122.05 -54.0 123.5 -53.0 L125.35 -51.25 Q129.55 -58.5 133.15 -57.45 136.35 -56.5 136.35 -51.35 136.35 -47.8 129.5 -34.75 122.6 -21.65 122.6 -21.0 122.6 -19.7 122.05 -18.35 121.1 -16.15 119.1 -15.75 123.3 -15.1 124.35 -12.25 L124.6 -8.5 Q124.6 -7.8 122.75 -4.8 120.85 -1.75 120.85 -1.0 L122.25 4.55 Q123.6 9.9 123.6 11.75 L123.0 18.3 Q122.35 23.6 122.35 24.85 122.35 27.6 120.65 29.0 118.55 30.75 113.85 30.75 108.65 30.75 106.9 28.0 L106.1 25.0 Q106.1 24.4 108.5 21.35 110.85 18.3 110.85 16.75 110.85 16.2 108.4 13.75 105.65 11.05 104.85 6.25 102.25 8.9 95.55 12.7 88.85 16.5 86.85 16.5 85.6 16.5 83.6 14.75 L81.6 13.0 Q80.3 13.0 75.15 15.9 70.05 18.75 68.85 18.75 63.7 18.75 62.4 15.65 L62.1 12.25 Q62.1 11.45 68.4 2.85 74.85 -5.9 76.6 -7.25 L73.5 -11.4 Q72.35 -13.15 72.35 -15.1 72.35 -18.75 76.25 -21.65 82.7 -26.4 84.85 -29.0 83.9 -29.55 81.75 -30.05 L77.75 -30.5 Q70.65 -30.5 63.5 -27.0 56.35 -23.5 53.85 -23.5 50.1 -23.5 48.4 -24.5 47.45 -25.05 46.85 -26.25 45.8 -24.8 44.7 -20.45 L42.55 -12.6 Q39.2 -2.75 31.85 -2.75 26.65 -2.75 24.6 -12.3" fill="#996600" fill-opacity="0.2" fill-rule="evenodd" stroke="none"/>
    <path d="M27.5 -34.3 L27.1 -36.65 Q27.0 -37.9 26.5 -38.25 24.5 -37.45 19.2 -36.3 L14.0 -35.25 Q6.1 -33.8 0.45 -34.25 -10.35 -35.1 -10.75 -44.5 L-10.75 -45.25 Q-12.25 -43.7 -16.45 -42.85 L-21.0 -42.25 Q-27.35 -42.25 -28.15 -46.8 -28.6 -49.1 -27.75 -52.25 -39.05 -54.7 -45.55 -57.95 -51.25 -60.85 -51.25 -63.25 -51.25 -66.6 -48.2 -67.65 -45.25 -68.65 -35.95 -68.5 -1.9 -67.0 35.5 -67.0 L76.9 -69.2 112.3 -73.25 137.0 -75.1 Q146.25 -74.8 146.25 -70.85 146.25 -70.2 143.9 -65.05 141.5 -59.85 141.5 -59.1 141.5 -55.35 138.3 -52.3 134.25 -48.5 127.0 -48.5 124.65 -48.5 122.6 -50.25 L120.75 -52.0 Q102.65 -52.0 92.3 -46.25 L85.8 -42.3 Q82.45 -40.5 79.0 -40.5 73.9 -40.5 72.7 -43.9 72.1 -45.6 72.5 -47.75 L52.7 -38.95 Q35.55 -31.25 34.5 -31.25 28.6 -31.25 27.5 -34.3" fill="#9fd26c" fill-opacity="0.3019608" fill-rule="evenodd" stroke="none"/>
    <path d="M72.0 -52.25 Q58.55 -52.25 51.85 -47.5 L47.7 -44.25 Q45.55 -42.75 43.0 -42.75 40.1 -42.75 38.25 -46.3 37.35 -48.05 37.0 -50.0 37.0 -50.55 37.8 -52.15 38.75 -54.0 39.75 -55.0 -7.75 -55.15 -22.55 -55.55 -32.35 -55.8 -33.5 -56.5 L-34.05 -56.95 -35.0 -58.0 -35.55 -58.85 Q-35.75 -59.35 -35.75 -61.0 -35.75 -64.8 24.6 -68.05 L85.25 -70.5 Q86.5 -70.5 89.15 -71.6 91.75 -72.75 93.0 -72.75 108.1 -72.75 109.0 -70.75 109.25 -70.25 109.1 -69.35 109.35 -68.75 112.0 -68.75 115.05 -68.75 118.75 -70.1 122.4 -71.5 124.0 -71.5 132.65 -71.5 141.3 -64.25 144.05 -61.9 146.4 -59.2 L148.25 -56.75 Q148.25 -53.05 145.75 -48.5 142.7 -43.0 138.5 -43.0 131.95 -43.0 131.0 -45.6 130.45 -47.0 131.25 -49.0 129.5 -48.55 125.75 -46.25 122.45 -44.25 121.0 -44.25 116.85 -44.25 116.0 -47.45 115.6 -49.15 115.75 -51.75 L98.75 -46.8 Q84.45 -42.75 79.5 -42.75 72.7 -42.75 72.15 -46.55 71.9 -48.6 72.75 -52.0 74.5 -52.25 72.0 -52.25" fill="#9fd26c" fill-opacity="0.3019608" fill-rule="evenodd" stroke="none"/>
    <path d="M67.25 -55.5 Q28.9 -55.65 16.75 -56.05 8.65 -56.3 7.5 -57.0 L7.0 -57.45 6.25 -58.5 5.9 -59.1 Q5.75 -59.5 5.75 -61.1 5.75 -67.25 30.1 -71.1 43.55 -73.25 70.0 -75.75 121.05 -76.25 120.7 -73.7 120.65 -73.25 119.35 -72.25 L117.25 -70.55 Q115.15 -68.2 120.5 -66.25 L129.25 -67.0 Q129.25 -69.95 130.7 -72.35 133.0 -76.0 138.0 -76.0 140.7 -76.0 141.95 -73.05 142.75 -71.3 142.75 -69.85 142.75 -67.55 138.75 -56.75 134.75 -46.0 134.0 -46.0 131.4 -46.0 130.2 -47.5 L128.4 -50.85 Q125.7 -55.75 116.5 -55.75 114.35 -55.75 108.05 -53.15 99.6 -49.55 94.4 -47.5 73.75 -39.25 60.0 -39.25 50.6 -39.25 48.0 -41.95 46.7 -43.35 47.25 -45.0 47.25 -47.25 47.9 -48.15 48.5 -49.0 50.65 -49.65 63.2 -53.75 67.25 -55.5" fill="#9fd26c" fill-opacity="0.3019608" fill-rule="evenodd" stroke="none"/>
    <path d="M76.25 -71.1 L75.45 -71.4 73.35 -71.4 73.7 -70.6 74.2 -69.85 74.05 -69.4 Q74.35 -69.15 73.6 -69.15 73.1 -69.15 72.4 -70.25 L71.8 -71.45 Q71.8 -72.3 71.95 -72.4 L75.6 -72.75 78.2 -71.9 81.4 -71.1 82.9 -71.1 82.75 -72.45 82.6 -73.65 Q82.6 -76.35 83.85 -74.8 L87.3 -69.5 89.35 -71.85 Q90.95 -73.25 92.25 -71.5 92.45 -71.0 91.35 -71.0 90.8 -71.0 90.5 -71.3 L90.0 -71.75 88.55 -70.3 Q87.85 -69.55 87.3 -69.5 L87.7 -68.85 87.7 -68.7 Q88.0 -68.4 87.25 -68.4 86.25 -68.4 85.15 -70.7 L83.95 -73.5 84.15 -70.3 Q84.15 -69.8 83.5 -69.7 L82.3 -69.7 79.9 -70.1 78.55 -70.65 76.25 -71.1 M72.55 -68.55 Q72.85 -68.1 72.1 -68.1 71.75 -68.1 71.25 -68.4 L70.35 -68.7 Q70.0 -68.7 69.65 -68.3 69.3 -67.95 68.9 -67.95 L67.0 -68.15 Q66.45 -68.3 65.8 -68.75 41.0 -68.5 31.2 -67.9 L22.4 -67.35 20.85 -67.5 19.6 -67.8 19.45 -68.1 Q25.15 -68.5 26.5 -69.5 L37.9 -70.15 46.6 -69.95 65.1 -69.6 65.1 -70.0 68.2 -69.6 68.3 -69.7 68.4 -69.55 69.0 -69.45 72.45 -68.7 72.55 -68.55 M21.6 -75.8 L21.1 -70.65 Q20.5 -70.65 19.85 -70.25 L20.45 -72.9 Q20.15 -72.7 19.65 -71.3 L19.05 -70.15 19.65 -70.15 19.5 -70.1 18.25 -69.25 17.35 -69.25 17.35 -69.0 17.2 -68.8 16.8 -69.3 16.4 -69.3 13.05 -69.25 13.05 -69.7 13.0 -70.15 16.45 -70.2 16.45 -70.85 16.55 -71.95 16.7 -71.95 17.25 -70.15 17.95 -70.15 17.95 -70.35 18.2 -74.9 18.45 -75.05 18.7 -72.05 18.7 -71.9 19.75 -74.75 Q20.3 -76.4 21.2 -77.05 21.6 -76.65 21.6 -75.8 M15.7 -70.75 Q16.05 -70.5 15.45 -70.5 12.75 -70.5 11.8 -73.0 12.5 -73.25 13.4 -72.55 L15.7 -70.95 15.7 -70.75 M19.75 -68.85 Q19.6 -68.45 19.6 -69.2 19.6 -69.95 20.4 -70.15 21.95 -70.45 22.3 -70.65 L22.65 -70.5 22.8 -69.95 22.65 -68.7 22.45 -68.5 21.8 -68.9 21.0 -69.25 21.0 -68.85 Q20.95 -68.65 20.5 -68.65 L20.0 -68.7 19.75 -68.85 M11.35 -70.5 Q9.4 -70.5 9.2 -70.8 L9.1 -71.65 7.2 -71.55 7.15 -70.5 Q7.15 -70.2 8.95 -69.0 L8.95 -68.7 8.9 -68.25 8.55 -68.25 8.2 -68.35 4.75 -68.25 Q0.25 -68.25 -1.9 -69.05 L-2.15 -69.15 -5.2 -69.1 -4.55 -69.4 -2.8 -69.35 -5.3 -69.9 Q-7.95 -69.9 -9.4 -69.15 -10.6 -68.55 -14.45 -68.4 L-23.0 -67.95 -26.85 -68.45 -42.45 -68.95 -41.8 -68.75 -45.3 -68.75 -43.7 -68.95 -52.35 -69.0 -54.5 -68.25 -58.85 -68.85 -58.4 -68.95 -58.55 -68.95 -58.55 -69.9 -58.9 -70.2 -58.4 -70.45 -57.65 -71.5 Q-56.65 -72.55 -55.55 -72.55 L-55.45 -72.6 -55.35 -72.1 Q-55.35 -71.55 -56.9 -70.35 -57.05 -70.2 -57.15 -70.2 -56.15 -70.15 -55.25 -69.55 L-55.3 -69.45 Q-47.3 -70.45 -32.85 -69.85 L-17.65 -68.85 Q-11.25 -71.05 -4.9 -70.3 L7.45 -68.65 6.55 -69.25 Q6.4 -69.45 6.4 -70.5 6.4 -72.1 7.55 -72.4 9.05 -72.8 12.15 -70.5 L11.35 -70.5 M32.3 -40.6 L32.3 -40.8 Q32.3 -42.7 39.15 -43.95 45.9 -45.15 50.65 -43.55 L56.05 -43.8 60.2 -43.8 60.7 -43.65 60.8 -43.55 60.85 -43.0 60.4 -41.95 59.9 -40.8 Q59.9 -40.15 60.65 -39.15 L62.55 -40.4 Q64.65 -41.65 66.15 -41.65 L66.55 -41.6 67.2 -41.9 70.1 -42.6 70.55 -42.0 Q70.2 -41.3 68.6 -40.6 L68.15 -40.4 67.2 -38.45 65.95 -38.55 66.0 -38.7 66.3 -39.5 64.2 -38.55 63.8 -38.35 Q62.05 -38.1 60.65 -37.35 59.3 -37.45 58.85 -39.55 58.55 -41.0 58.7 -42.4 L58.75 -42.45 51.25 -42.4 48.5 -42.6 48.5 -43.15 39.9 -42.65 Q35.55 -42.2 33.35 -40.95 L33.35 -40.2 34.15 -40.1 35.0 -39.9 32.95 -39.65 33.2 -39.3 32.95 -39.0 33.4 -38.75 Q35.65 -37.35 35.65 -36.8 35.65 -35.9 34.15 -35.1 32.95 -34.5 31.45 -34.35 L31.25 -33.35 Q31.25 -32.15 32.45 -30.75 32.15 -29.65 30.6 -28.1 L28.15 -25.9 Q27.55 -26.25 27.4 -26.8 L27.35 -27.8 Q27.35 -28.9 29.15 -29.45 30.75 -29.95 30.35 -32.25 30.35 -33.25 30.85 -34.3 L30.45 -34.3 30.35 -34.3 30.35 -34.15 30.15 -32.85 Q29.8 -31.9 29.0 -31.9 25.65 -31.9 23.95 -32.75 L22.65 -33.6 22.7 -33.3 Q22.7 -33.0 20.15 -30.4 L14.85 -32.45 Q9.05 -34.4 -0.75 -34.5 L-0.7 -34.15 -0.7 -32.4 -0.8 -32.15 -1.4 -31.95 Q-6.1 -33.6 -7.9 -35.1 L-7.9 -35.7 -5.75 -35.25 Q-3.9 -34.75 -2.65 -34.05 L-3.1 -35.4 -3.0 -35.5 -2.5 -35.65 -1.95 -35.55 -1.8 -35.6 5.6 -35.85 13.25 -34.5 Q18.25 -33.6 19.55 -32.85 L20.1 -33.5 Q20.7 -34.0 21.7 -34.0 L21.85 -33.95 21.65 -34.05 21.65 -34.45 22.6 -34.6 Q23.35 -34.6 24.8 -33.7 26.25 -32.85 27.05 -32.85 L28.9 -32.95 28.85 -34.15 28.85 -34.45 28.8 -34.5 28.7 -35.0 Q28.7 -35.8 32.25 -36.15 32.95 -36.7 33.8 -36.4 L33.8 -36.45 Q33.0 -37.05 31.8 -37.4 31.1 -37.6 31.1 -38.2 31.1 -38.9 31.4 -39.15 L31.0 -39.45 29.0 -40.9 29.0 -41.0 24.95 -40.35 Q24.35 -40.8 24.35 -42.0 L24.4 -43.55 Q25.3 -42.8 25.4 -41.65 L25.4 -41.5 28.7 -41.4 29.0 -41.15 29.0 -41.55 Q31.4 -42.05 32.1 -40.95 L32.3 -40.6 M24.2 -43.7 L19.7 -42.9 18.85 -42.9 Q18.65 -42.95 18.65 -43.45 18.65 -45.35 21.95 -44.65 23.4 -44.3 24.2 -43.7 M26.9 -25.55 L27.05 -25.05 26.75 -23.0 26.75 -22.95 27.05 -23.5 27.35 -23.5 27.45 -22.55 Q24.65 -11.3 24.65 -9.2 L24.75 -6.9 29.95 -6.55 Q30.6 -6.35 30.6 -5.6 30.6 -4.65 29.4 -3.75 27.65 -4.75 26.7 -4.45 24.35 -3.65 23.85 -3.6 22.95 -3.8 22.7 -4.4 L22.6 -5.25 Q22.6 -8.5 24.2 -15.05 L25.8 -20.6 24.95 -20.35 24.8 -20.5 25.65 -23.25 Q26.15 -25.25 26.45 -25.6 L26.9 -25.55 M18.05 -46.95 Q17.55 -45.3 18.8 -44.35 L18.65 -44.1 17.75 -44.05 Q17.6 -45.15 17.6 -47.55 L16.65 -46.15 Q15.9 -45.1 15.85 -44.5 L15.65 -44.5 Q15.5 -44.7 15.5 -45.45 15.5 -46.15 16.7 -48.1 17.95 -50.05 18.65 -50.4 L18.85 -49.5 Q18.85 -48.7 18.05 -46.95 M16.1 -15.05 L14.9 -15.75 15.65 -15.9 16.0 -15.8 16.1 -15.3 16.1 -15.05 M21.35 -21.9 L21.65 -21.0 21.55 -20.2 21.2 -20.1 Q20.8 -20.2 20.75 -20.4 L20.75 -21.9 21.35 -21.9 M30.85 -3.45 L30.95 -2.75 30.45 0.0 Q29.95 1.8 29.95 2.55 29.95 3.7 29.75 3.2 L29.25 3.6 Q29.05 3.0 28.0 2.1 27.05 1.35 27.05 0.75 27.05 0.4 28.1 -1.15 29.35 -3.05 30.5 -3.6 L30.85 -3.45 M73.0 -41.9 L73.75 -41.8 73.9 -41.35 73.7 -41.1 Q74.65 -39.8 74.5 -38.85 75.25 -38.85 76.4 -40.35 L76.85 -40.85 77.8 -42.7 78.15 -43.0 78.1 -43.1 Q78.1 -43.95 79.25 -44.45 L83.75 -44.9 Q83.3 -45.35 83.15 -46.05 L83.05 -47.95 Q83.05 -50.65 86.9 -51.0 91.1 -51.45 97.45 -48.4 L97.9 -48.55 99.45 -48.75 99.55 -46.35 99.4 -46.15 Q99.4 -46.0 99.85 -46.0 L101.85 -46.6 104.2 -47.25 104.3 -47.2 104.5 -47.4 Q105.15 -46.9 105.1 -45.8 105.0 -44.7 105.85 -44.25 L106.4 -44.6 106.35 -45.0 Q106.35 -45.6 107.25 -47.85 108.35 -50.55 109.75 -52.4 113.45 -57.35 117.35 -53.95 118.95 -54.45 120.35 -53.05 L122.3 -51.05 122.85 -51.7 Q123.5 -51.35 123.45 -50.75 L123.25 -49.8 123.25 -49.5 126.05 -51.85 Q127.8 -53.5 128.95 -53.8 L129.6 -53.2 129.45 -52.9 129.55 -52.9 Q130.3 -52.9 130.35 -51.7 L130.2 -50.1 130.35 -49.95 Q130.45 -49.8 130.9 -49.8 131.75 -49.8 132.3 -50.5 L132.3 -51.75 132.55 -51.75 132.65 -51.1 133.2 -52.85 Q133.4 -54.0 133.8 -54.55 L133.75 -54.6 133.85 -54.65 Q134.4 -55.35 135.25 -55.05 L135.15 -54.9 Q136.4 -54.85 137.35 -53.45 L139.6 -50.25 139.75 -52.05 139.3 -52.7 138.85 -53.4 138.85 -53.95 139.0 -54.1 138.95 -54.2 138.25 -55.2 138.25 -55.35 138.85 -55.5 Q139.3 -55.5 140.05 -54.8 L141.1 -53.85 141.8 -54.65 Q142.15 -55.0 141.95 -55.6 L141.25 -56.65 Q140.35 -58.05 139.45 -58.45 L139.45 -59.1 Q140.35 -59.6 143.0 -58.25 L143.9 -57.75 Q143.3 -59.1 142.3 -60.35 140.1 -63.15 136.35 -65.0 L134.75 -65.7 135.9 -66.25 138.95 -65.0 139.35 -64.75 139.3 -65.0 139.3 -65.1 Q139.3 -65.95 141.2 -66.9 L142.35 -67.35 143.55 -67.95 143.95 -68.25 142.05 -68.8 139.1 -68.8 139.15 -69.1 139.1 -69.75 143.35 -70.05 144.55 -70.4 Q140.45 -70.55 139.3 -71.25 138.85 -71.55 138.95 -71.95 L139.15 -72.3 Q139.15 -72.65 140.35 -73.9 L141.45 -74.8 141.3 -74.95 Q140.6 -74.45 136.05 -72.75 L132.15 -71.35 131.3 -71.4 Q129.75 -71.35 128.9 -70.75 L128.4 -70.95 128.5 -72.15 128.5 -72.3 126.5 -71.3 126.15 -71.05 125.8 -71.0 124.1 -70.45 123.85 -70.5 124.15 -70.8 124.0 -70.8 Q123.6 -70.8 122.95 -71.1 L121.9 -71.55 121.5 -70.2 121.25 -69.45 122.3 -69.35 122.15 -69.65 122.8 -69.65 122.6 -69.5 122.45 -69.35 127.6 -68.95 127.75 -68.55 Q127.5 -68.25 127.0 -68.1 L123.15 -67.9 117.0 -68.15 Q111.65 -68.55 109.7 -69.15 L109.15 -69.1 Q108.3 -69.1 107.75 -70.15 107.35 -71.0 107.35 -71.55 L107.35 -71.8 Q104.35 -69.7 103.75 -69.7 L102.85 -69.9 106.65 -72.8 Q109.2 -74.65 109.95 -74.35 L110.05 -74.15 110.1 -73.6 109.6 -72.4 108.7 -71.1 109.8 -70.25 114.2 -70.1 119.95 -69.55 Q119.95 -72.4 121.15 -72.4 L123.55 -71.8 Q124.05 -71.8 124.3 -72.1 L124.6 -72.55 124.75 -72.45 124.75 -72.0 124.7 -71.2 126.15 -72.15 128.95 -73.8 Q129.45 -73.2 129.45 -71.4 133.8 -73.65 137.75 -75.0 142.1 -76.45 142.85 -75.45 L143.35 -75.55 143.65 -75.1 142.7 -74.0 142.6 -73.9 142.4 -73.75 141.25 -72.55 146.8 -72.35 147.45 -71.2 147.1 -70.8 Q146.55 -70.05 146.5 -68.8 L144.85 -68.8 145.15 -67.6 Q145.1 -66.65 143.6 -66.35 L143.05 -66.0 141.75 -65.0 141.7 -64.95 Q143.05 -63.85 143.4 -63.0 L140.9 -63.7 142.05 -62.8 Q145.45 -59.85 145.45 -57.85 L145.35 -56.85 145.6 -56.65 145.2 -56.15 144.9 -54.9 144.7 -54.75 144.55 -55.95 144.4 -55.95 Q143.9 -55.95 143.55 -56.3 L142.6 -57.0 Q143.25 -56.0 143.25 -55.2 L142.65 -54.9 142.3 -55.2 142.3 -55.15 142.2 -54.1 141.55 -53.1 140.7 -53.2 140.9 -52.2 141.0 -50.0 140.8 -47.65 140.05 -47.55 Q139.45 -47.55 137.15 -50.75 L135.45 -52.95 135.25 -52.2 135.2 -49.8 135.35 -48.3 Q135.35 -47.2 133.6 -45.2 131.85 -43.15 130.5 -42.75 128.3 -42.1 128.2 -40.7 128.45 -38.8 128.1 -37.5 126.85 -32.6 124.3 -28.85 L125.0 -28.8 125.25 -28.15 121.75 -24.9 Q119.0 -22.25 118.4 -20.95 L119.65 -19.15 Q122.25 -14.9 122.25 -11.25 122.25 -10.85 121.5 -10.2 L120.75 -9.65 120.7 -7.1 Q120.65 -4.45 121.1 -2.8 121.8 -0.55 123.55 1.9 124.85 3.75 124.85 5.65 L124.85 6.1 124.9 6.5 124.8 7.0 Q124.6 7.85 123.85 8.0 L123.75 7.85 123.6 8.2 123.5 9.05 Q123.5 13.25 124.9 20.6 126.25 27.95 126.25 35.25 126.25 38.45 124.4 40.75 122.45 43.15 117.3 46.2 116.9 46.9 116.9 47.9 116.9 51.2 114.0 55.8 110.85 60.75 106.2 61.9 L103.95 65.05 Q101.25 69.15 100.25 72.85 99.8 74.55 99.05 75.7 98.0 77.35 95.95 78.7 L93.35 79.8 Q92.0 80.4 91.8 81.2 L91.5 82.65 Q91.25 83.15 90.5 83.35 90.25 84.9 88.7 86.0 L84.05 89.4 83.65 89.15 Q84.4 87.4 86.65 85.3 L89.35 83.1 89.35 82.95 Q89.35 80.65 90.1 79.7 90.55 79.05 92.15 78.4 96.3 76.6 99.05 72.05 100.05 70.4 101.75 66.35 103.15 63.65 105.0 62.15 L103.2 62.25 102.85 62.05 Q102.8 63.0 101.85 64.1 100.6 65.6 98.65 65.6 97.7 65.6 97.55 64.85 L97.55 64.0 97.55 63.2 Q97.65 62.45 98.35 62.45 99.25 62.45 99.25 63.7 100.75 63.45 101.45 62.25 102.05 61.15 101.45 60.45 102.25 59.5 102.6 60.35 L102.8 60.9 Q103.45 60.2 106.2 59.4 L106.95 59.2 109.35 57.45 Q111.45 55.65 110.9 54.15 L111.25 54.15 Q111.65 55.45 111.65 56.25 L109.4 58.35 Q110.8 57.75 111.3 57.2 L112.65 54.95 113.7 52.5 115.3 47.8 116.8 42.95 Q117.75 42.35 117.75 44.15 L117.65 45.35 Q121.8 41.85 124.2 36.55 125.4 32.15 124.75 27.65 L123.45 20.2 122.85 16.5 122.6 15.15 122.35 13.8 Q122.35 8.45 123.2 6.75 122.65 5.65 122.5 3.85 121.7 3.45 121.3 2.55 119.5 -1.9 119.5 -3.65 L119.45 -7.75 119.65 -10.85 119.65 -11.15 119.85 -11.7 120.25 -12.75 120.35 -12.65 120.35 -12.75 Q120.35 -14.15 118.7 -17.65 L117.95 -19.1 Q117.55 -18.5 116.6 -18.5 L113.0 -19.0 Q114.2 -20.2 116.25 -20.5 116.3 -23.75 119.5 -26.55 L122.15 -28.3 124.2 -33.2 127.1 -39.9 Q127.55 -41.35 128.7 -42.45 L132.35 -45.8 133.65 -48.15 133.5 -48.1 132.3 -47.55 133.2 -48.5 133.45 -50.55 Q132.3 -48.4 130.55 -48.4 129.55 -48.4 129.25 -49.05 L128.95 -49.8 128.95 -52.15 126.6 -49.8 Q124.15 -47.8 122.95 -47.8 121.95 -47.8 121.75 -48.65 L121.75 -49.6 121.85 -50.15 Q121.4 -50.3 120.9 -50.7 L120.25 -48.85 Q119.25 -47.05 118.95 -46.05 L118.65 -46.05 119.25 -49.55 119.8 -51.65 118.45 -52.8 Q118.15 -52.5 117.4 -52.5 L117.05 -52.6 117.1 -52.05 Q117.1 -51.5 115.95 -49.65 L114.55 -47.25 114.25 -47.25 Q114.1 -47.9 114.1 -48.7 114.1 -51.4 116.2 -53.1 L115.45 -53.65 114.4 -53.6 114.4 -53.25 Q114.4 -52.6 111.3 -46.6 L111.1 -46.6 110.95 -46.85 Q110.8 -47.05 110.8 -47.5 L111.7 -50.3 Q112.55 -52.55 113.45 -53.45 L111.55 -52.7 110.25 -48.85 109.15 -45.45 109.15 -44.95 108.65 -43.8 108.45 -42.9 108.3 -42.55 108.2 -42.95 107.45 -41.65 107.8 -41.5 Q106.75 -39.05 104.2 -35.9 L103.4 -34.9 103.45 -34.5 Q103.45 -33.85 101.75 -33.05 L101.75 -33.0 99.65 -32.4 Q98.3 -31.8 97.1 -30.75 L97.0 -31.75 Q97.0 -32.2 98.6 -32.95 100.35 -33.75 100.6 -34.15 100.05 -34.4 100.05 -34.6 L103.0 -34.9 104.0 -35.85 103.8 -35.85 105.5 -41.25 106.3 -42.9 105.8 -42.85 Q104.8 -42.85 104.2 -44.25 103.8 -45.2 103.8 -45.85 L103.85 -46.35 102.25 -45.55 Q100.05 -44.55 99.55 -44.55 98.4 -44.55 98.1 -46.0 L98.05 -47.55 96.9 -47.25 Q96.75 -46.9 96.75 -47.65 L96.85 -47.95 95.0 -48.65 Q92.6 -49.5 88.45 -49.5 86.15 -49.5 85.05 -48.4 84.4 -47.75 84.4 -47.1 84.4 -46.75 85.15 -46.3 86.15 -45.65 86.65 -45.0 86.3 -44.25 85.5 -44.25 L85.15 -44.25 85.15 -44.15 86.8 -44.25 86.95 -43.45 Q86.95 -42.95 86.65 -42.8 L85.8 -42.75 85.05 -42.85 85.05 -42.8 85.05 -42.5 84.4 -42.65 84.35 -43.05 84.1 -43.1 82.35 -43.45 Q80.95 -43.45 79.85 -42.65 80.65 -42.1 80.65 -41.7 L80.3 -40.8 Q79.85 -40.2 78.95 -40.2 L78.55 -40.3 78.45 -40.45 Q75.1 -37.05 74.2 -37.05 73.05 -37.05 72.3 -38.7 L72.05 -39.35 70.2 -37.35 70.0 -37.5 Q70.05 -40.4 71.25 -41.4 71.9 -43.0 73.0 -41.9 M79.0 -41.7 L79.15 -41.5 79.4 -41.55 79.0 -41.9 78.8 -41.65 78.85 -41.65 79.0 -41.7 M55.4 -23.0 Q55.4 -21.6 53.25 -21.6 L51.4 -21.95 50.6 -22.5 Q50.6 -23.1 50.9 -23.35 L51.45 -22.75 Q51.85 -22.35 52.15 -22.35 L54.25 -22.35 54.65 -23.05 52.95 -23.4 Q51.6 -23.7 51.05 -24.1 53.15 -24.45 54.35 -24.05 55.4 -23.7 55.4 -23.0 M68.65 -16.35 L68.65 -16.25 67.95 -16.35 67.95 -16.95 Q68.65 -16.85 68.65 -16.35 M95.15 -79.5 L95.15 -79.15 94.7 -75.85 Q94.25 -73.0 94.25 -70.75 L94.15 -70.25 93.5 -69.9 93.0 -70.35 92.9 -71.0 Q92.9 -75.6 95.0 -79.55 L95.15 -79.5 M96.4 -69.2 Q95.5 -69.85 95.5 -70.65 L95.6 -71.25 95.8 -71.4 Q95.9 -71.1 96.5 -70.7 L97.75 -69.85 99.5 -72.35 Q100.9 -74.3 101.65 -74.2 L101.65 -72.15 Q101.7 -70.8 102.55 -69.85 L102.45 -69.45 101.85 -69.25 Q100.6 -69.25 100.55 -70.45 L100.75 -72.45 99.5 -70.5 98.05 -68.4 96.4 -69.2 M90.25 -68.25 L90.9 -67.95 90.45 -67.9 Q90.05 -67.95 89.95 -68.1 90.25 -68.1 90.25 -68.25 M90.65 -55.85 L90.55 -56.45 91.8 -55.45 92.1 -55.15 Q90.85 -55.55 90.65 -55.85 M84.9 -53.55 L84.7 -53.2 Q84.6 -53.2 84.35 -53.35 L84.65 -53.75 84.9 -53.55 M82.35 -50.8 L82.75 -50.65 82.8 -50.4 82.2 -50.6 82.35 -50.8 M109.2 -49.75 L108.3 -46.6 108.3 -46.45 109.25 -49.3 110.0 -51.25 109.2 -49.75 M94.35 -16.75 L95.8 -16.9 98.2 -16.95 98.25 -16.35 97.95 -15.7 Q97.6 -15.15 97.2 -15.15 96.0 -15.15 95.7 -15.7 L94.35 -16.75 M112.4 -19.05 L112.6 -17.9 Q112.6 -14.9 109.85 -14.9 108.9 -14.9 108.0 -15.5 107.25 -15.95 107.25 -16.15 107.25 -16.6 107.55 -16.9 L108.0 -17.15 108.7 -16.85 Q109.1 -16.55 109.4 -16.55 110.85 -16.55 111.2 -18.1 111.6 -20.0 112.0 -20.25 L112.4 -19.05 M108.1 -20.75 Q108.1 -20.15 106.1 -17.35 104.2 -14.7 103.5 -14.15 L103.35 -14.25 Q104.45 -16.65 107.5 -22.25 108.1 -21.65 108.1 -20.75 M103.9 -19.95 L104.1 -19.35 Q104.1 -18.65 103.2 -16.95 102.05 -14.85 100.85 -14.65 L102.0 -17.55 Q102.75 -19.5 103.5 -20.25 L103.9 -19.95 M105.55 17.8 L105.3 18.35 104.9 18.15 104.9 16.2 105.35 16.2 Q105.55 16.5 105.55 17.8 M81.25 11.1 L81.05 12.4 Q80.75 13.35 80.15 13.35 77.4 13.35 76.85 12.8 L76.85 12.15 76.95 11.1 Q77.15 10.6 77.75 10.25 L78.55 10.55 77.8 11.0 Q77.45 11.2 77.45 11.45 77.45 12.2 77.6 12.35 L80.0 12.2 80.15 11.25 79.15 10.25 Q79.25 10.0 79.9 9.85 L81.2 9.75 81.25 11.1 M110.9 51.15 Q110.9 52.3 108.6 55.05 L105.3 58.65 105.1 58.55 105.05 58.1 Q105.05 57.9 106.95 55.4 109.45 52.2 111.2 49.1 L111.05 50.45 110.9 51.15 M102.1 53.0 L102.2 53.35 101.4 54.35 100.0 55.6 99.9 55.4 Q99.9 57.2 98.0 59.75 95.2 63.45 90.35 63.45 89.3 63.45 89.3 62.55 89.3 61.45 90.2 61.35 L92.8 61.4 Q96.05 61.4 97.5 58.2 L99.3 53.3 Q99.8 53.75 99.9 54.85 100.05 54.35 100.9 53.7 L102.0 53.0 102.1 53.0 M104.95 55.5 Q103.95 57.05 101.6 58.1 L101.25 58.0 101.15 57.6 Q101.15 57.05 102.45 55.9 L106.2 52.8 104.95 55.5 M83.75 91.7 L82.1 94.5 Q81.55 94.3 81.55 93.6 81.55 92.9 82.15 91.95 82.75 91.0 83.2 90.9 L83.75 91.7 M61.1 3.75 L62.95 0.55 62.95 0.6 62.65 2.3 62.3 4.0 62.35 5.05 62.0 5.3 60.25 5.55 Q56.55 5.55 54.7 4.3 L53.6 3.0 Q53.6 2.35 53.95 2.15 L55.35 1.95 Q56.35 1.95 56.65 2.85 57.0 3.75 61.1 3.75 M102.85 76.7 L103.0 76.55 103.05 76.5 102.85 76.8 102.85 76.7 M58.7 19.9 L58.55 20.5 58.25 20.5 Q58.1 20.25 58.1 19.35 58.25 19.2 58.55 19.2 L58.7 19.9 M58.55 24.1 L58.65 25.25 Q58.65 25.95 56.8 28.65 L54.2 32.2 54.75 32.55 54.0 32.65 Q53.4 32.55 53.35 32.3 L53.7 32.1 54.0 32.15 53.8 31.95 56.4 27.8 Q58.0 25.1 58.25 24.1 L58.55 24.1 M60.25 27.8 Q60.8 28.0 60.85 28.2 59.05 29.15 57.75 31.1 L55.0 34.7 54.75 34.5 57.1 30.85 Q58.75 28.5 59.75 27.65 L60.25 27.8 M54.25 28.2 L54.35 28.95 Q54.35 29.45 52.75 31.2 51.05 33.05 50.0 33.4 51.15 32.7 52.35 30.3 53.45 28.1 53.9 28.0 L54.25 28.2 M54.2 35.25 L54.4 35.35 54.45 36.05 54.0 38.0 Q53.55 39.4 53.55 39.95 53.55 42.4 53.9 43.65 54.35 45.05 55.5 46.4 52.8 44.8 52.8 42.9 52.8 38.35 53.8 35.25 L54.2 35.25 M30.95 10.8 L30.7 11.3 Q29.25 6.95 29.25 5.05 L29.25 4.35 29.4 4.05 30.95 3.95 Q31.35 4.55 31.35 5.55 L30.95 10.8 M9.65 24.65 L9.5 24.4 9.7 24.25 9.65 24.65 M68.65 53.35 Q68.4 53.65 67.65 53.75 65.35 51.6 62.05 49.7 L64.0 49.75 Q67.7 49.65 68.65 53.35 M-39.2 -67.25 L-39.05 -67.35 -37.45 -66.85 Q-37.15 -66.65 -37.15 -66.3 -37.15 -65.55 -37.3 -65.4 L-39.35 -65.8 Q-40.7 -66.05 -40.95 -66.5 L-40.95 -66.9 -38.95 -66.75 -39.85 -66.55 -40.7 -66.35 -38.8 -65.95 -37.45 -65.75 Q-37.7 -66.4 -39.2 -67.25 M-18.7 -66.35 Q-18.95 -66.15 -19.2 -66.15 L-19.3 -66.3 -18.7 -66.35 M-64.3 -69.6 L-64.3 -71.35 -63.95 -71.05 Q-63.75 -70.75 -63.95 -70.2 L-63.7 -70.1 -62.9 -70.0 Q-62.7 -70.0 -62.1 -71.15 L-60.9 -72.9 -60.2 -72.85 -59.3 -71.7 Q-59.0 -71.3 -59.0 -70.3 L-59.3 -70.65 -59.3 -70.95 Q-59.55 -70.95 -60.25 -70.55 L-61.1 -70.15 -60.8 -70.85 Q-60.5 -71.3 -60.5 -71.7 L-60.5 -72.0 Q-60.5 -72.25 -60.65 -72.4 -60.65 -72.1 -61.4 -70.9 -62.1 -69.85 -61.85 -69.3 L-62.65 -69.1 -64.15 -69.55 -64.3 -69.6 M-16.1 5.25 L-16.25 5.35 -16.25 5.25 -16.1 5.25 M-14.95 -33.3 L-14.9 -34.25 Q-12.4 -35.25 -9.2 -34.95 -7.8 -35.25 -7.45 -33.75 -7.45 -33.3 -7.6 -33.1 L-7.9 -32.85 -8.55 -33.5 Q-8.65 -33.85 -9.2 -33.85 L-14.95 -33.3" fill="#5b5546" fill-rule="evenodd" stroke="none"/>
  </g>
</svg>
