<?xml version="1.0" encoding="UTF-8" standalone="no"?>
<svg xmlns:xlink="http://www.w3.org/1999/xlink" height="163.5px" width="227.35px" xmlns="http://www.w3.org/2000/svg">
  <g transform="matrix(1.0, 0.0, 0.0, 1.0, 113.7, 65.5)">
    <path d="M39.0 -20.3 Q44.25 -18.05 44.25 -14.85 44.25 -13.1 41.85 -11.95 40.3 -11.15 33.0 -8.75 36.0 -8.5 37.55 -6.45 38.75 -4.95 38.75 -3.0 38.75 0.6 34.85 1.9 L16.25 6.25 14.25 7.0 Q16.5 7.6 17.85 9.6 19.0 11.3 19.0 13.0 19.0 16.05 16.45 17.75 14.4 19.15 8.95 20.6 1.5 22.4 -3.35 23.75 -12.2 26.2 -20.25 29.5 L-4.1 25.4 Q9.15 22.0 12.5 22.0 17.6 22.0 19.3 24.9 20.15 26.4 20.0 28.1 20.0 32.9 -1.8 38.8 -13.0 41.85 -27.5 45.0 L-19.1 43.6 Q-9.3 42.0 -0.5 42.0 6.95 42.0 9.2 44.9 10.35 46.4 10.0 48.1 10.0 52.05 -4.55 61.3 -18.6 70.25 -23.0 70.25 -27.0 70.25 -28.5 67.3 -29.25 65.85 -29.25 63.85 -29.25 61.35 -26.85 59.85 -23.35 58.15 -21.25 56.75 L-20.75 56.5 -40.05 59.8 Q-59.0 63.0 -63.5 63.0 -73.75 63.0 -74.85 59.65 -75.2 58.6 -74.65 56.8 L-74.0 54.25 Q-81.4 54.3 -83.9 51.3 -85.0 49.95 -85.0 47.85 -85.0 45.2 -82.65 42.6 -79.65 39.35 -74.0 37.75 -75.3 37.35 -76.55 35.15 L-77.75 32.5 -83.8 33.65 -88.5 34.25 Q-94.15 34.25 -96.75 30.75 -98.25 28.75 -98.25 27.0 -98.25 25.0 -95.3 23.8 -90.0 21.6 -86.5 19.0 L-87.6 17.3 Q-88.0 16.5 -88.0 14.85 -88.0 13.15 -87.35 12.2 -86.6 11.0 -84.5 10.25 L-84.0 10.0 Q-88.55 8.9 -91.1 4.05 -92.75 0.9 -92.75 -0.85 -92.75 -3.6 -91.95 -4.7 -90.55 -6.6 -86.0 -7.25 -85.75 -8.0 -85.75 -10.25 -89.85 -10.1 -91.45 -12.35 -92.25 -13.5 -92.25 -15.0 -92.25 -16.7 -88.0 -21.0 -90.1 -23.1 -92.7 -25.2 -94.25 -26.55 -94.25 -28.0 -94.25 -31.2 -93.4 -32.35 -91.9 -34.4 -87.25 -32.75 L-71.1 -31.0 Q-67.5 -30.45 -67.5 -27.75 -49.25 -30.1 -43.15 -26.05 -39.3 -23.55 -40.0 -17.5 L-40.25 -17.0 -35.85 -19.0 Q-33.35 -20.0 -30.0 -20.0 -25.15 -20.0 -23.8 -17.75 L-23.1 -16.2 Q-22.7 -15.5 -22.0 -15.5 -19.2 -15.5 -4.7 -19.25 9.75 -23.0 21.0 -23.0 32.7 -23.0 39.0 -20.3" fill="#996600" fill-opacity="0.2" fill-rule="evenodd" stroke="none"/>
    <path d="M-48.9 -29.0 Q-42.55 -31.5 -40.5 -31.5 -36.3 -31.5 -35.0 -29.3 -34.5 -28.5 -34.5 -26.85 -34.5 -25.35 -35.85 -23.1 -37.25 -20.85 -37.25 -20.1 -37.25 -18.5 -41.0 -14.75 -36.45 -15.65 -33.85 -13.5 -32.0 -11.9 -32.0 -10.0 -32.0 -6.45 -38.25 -4.0 -47.95 -0.2 -51.0 2.0 -50.75 2.75 -50.0 3.0 L-35.0 -1.5 Q-29.55 -1.5 -25.0 3.0 -21.5 6.45 -21.5 7.85 -21.5 9.6 -23.15 12.05 -24.95 14.7 -27.25 15.75 -27.05 16.8 -19.2 26.3 -11.5 35.6 -11.5 37.25 -11.5 40.1 -12.95 43.25 -15.3 48.25 -20.0 48.25 -24.9 48.25 -25.5 43.9 -25.75 42.1 -25.0 38.75 L-48.35 32.75 Q-53.5 30.95 -53.5 27.1 -53.5 24.85 -52.2 23.4 -51.05 22.15 -46.5 19.25 L-46.5 17.75 Q-62.75 19.25 -68.0 16.9 -71.25 15.5 -71.25 11.1 -71.25 6.1 -64.25 -2.0 L-65.85 -4.25 Q-66.75 -5.65 -66.75 -7.25 -66.75 -9.5 -65.95 -10.6 -64.75 -12.25 -60.25 -14.75 -60.8 -17.05 -63.6 -20.25 -67.75 -25.0 -73.0 -25.0 -76.5 -25.0 -77.8 -26.75 -78.5 -27.65 -78.5 -29.0 -78.5 -36.3 -69.0 -32.25 -58.65 -26.5 -57.0 -26.5 -55.2 -26.5 -48.9 -29.0" fill="#996600" fill-opacity="0.2" fill-rule="evenodd" stroke="none"/>
    <path d="M2.15 -56.75 Q2.35 -56.25 3.25 -56.25 18.3 -59.2 32.5 -61.0 60.75 -64.65 60.75 -59.1 60.75 -54.75 39.45 -49.6 28.5 -46.95 14.25 -44.25 16.0 -41.9 15.8 -39.7 15.6 -37.3 13.25 -35.5 L12.5 -35.25 Q16.15 -35.6 18.3 -33.45 20.0 -31.8 20.0 -30.0 20.0 -29.75 14.8 -26.85 8.6 -23.4 2.05 -20.35 -17.9 -11.0 -28.5 -11.0 -38.55 -11.0 -39.4 -14.7 -39.85 -16.55 -38.25 -18.75 L-38.0 -19.0 Q-56.4 -17.7 -58.3 -19.3 -58.95 -19.8 -58.5 -21.35 -58.0 -23.2 -58.5 -24.25 L-64.95 -22.95 -71.0 -22.25 Q-78.15 -22.25 -78.35 -25.85 -78.4 -26.55 -76.75 -31.0 -88.0 -30.6 -95.0 -34.9 -100.25 -38.15 -100.25 -41.0 -100.25 -42.5 -99.2 -44.75 L-97.75 -47.75 Q-107.5 -47.3 -110.7 -49.55 -112.0 -50.5 -112.0 -52.25 -112.0 -55.2 -92.5 -58.3 L-73.0 -60.75 Q-54.05 -60.75 -47.4 -59.4 -38.8 -57.7 -41.75 -52.75 L-22.15 -56.35 -4.5 -59.5 Q1.0 -59.5 1.8 -57.85 L2.15 -56.75" fill="#9fd26c" fill-opacity="0.3019608" fill-rule="evenodd" stroke="none"/>
    <path d="M-102.8 -54.75 Q-91.85 -56.65 -58.5 -58.75 -33.85 -60.3 -10.65 -63.2 -4.2 -63.7 -2.0 -62.65 0.25 -61.6 0.25 -58.0 0.25 -54.65 -1.9 -52.75 -3.45 -51.35 -7.3 -49.95 L-14.2 -47.25 Q-18.3 -45.25 -21.0 -42.25 -9.9 -41.65 -5.65 -39.6 -2.75 -38.25 -2.75 -35.85 -2.75 -33.45 -5.3 -32.15 -8.4 -30.6 -16.0 -30.25 -14.6 -28.85 -13.5 -27.15 -12.5 -25.6 -12.5 -25.0 -12.5 -23.3 -21.8 -19.0 -31.5 -14.5 -37.0 -14.5 -46.1 -14.5 -50.3 -19.75 -53.55 -23.85 -52.5 -27.75 -78.65 -30.15 -82.0 -31.2 -84.15 -31.85 -84.7 -33.3 L-85.75 -37.0 Q-96.75 -36.9 -100.1 -39.1 -101.5 -40.0 -101.5 -42.1 -101.5 -45.25 -97.25 -46.75 -92.85 -48.3 -81.0 -49.25 L-77.5 -50.0 -95.35 -48.65 -105.0 -47.5 Q-111.0 -47.5 -111.0 -50.75 -111.0 -53.3 -102.8 -54.75" fill="#9fd26c" fill-opacity="0.3019608" fill-rule="evenodd" stroke="none"/>
    <path d="M47.0 -47.0 Q51.4 -47.4 53.45 -45.2 54.75 -43.8 54.75 -42.1 54.75 -39.35 30.5 -33.25 5.7 -27.0 -7.5 -27.0 -12.1 -27.0 -13.5 -29.35 -14.0 -30.2 -14.0 -32.0 -14.0 -36.45 -10.5 -38.5 L-6.25 -39.0 Q-20.35 -39.9 -22.25 -41.2 -22.65 -41.45 -22.45 -41.95 -22.35 -42.25 -23.25 -42.25 L-67.0 -34.5 Q-72.9 -34.5 -74.15 -37.0 -74.8 -38.3 -74.75 -40.25 -88.25 -37.45 -94.05 -37.6 -98.7 -37.7 -100.05 -39.9 -100.85 -41.2 -101.95 -44.55 -103.7 -47.55 -109.0 -49.0 L-109.1 -48.6 -109.25 -50.1 Q-109.25 -51.65 -107.55 -52.9 L-105.0 -54.5 Q-104.7 -53.55 -105.75 -52.5 L-95.25 -55.05 Q-83.35 -57.5 -72.0 -57.5 -66.5 -57.5 -65.8 -56.45 -65.05 -55.3 -56.0 -55.0 -55.05 -55.0 -53.05 -53.85 -51.05 -52.75 -49.75 -52.75 L-40.65 -54.6 Q-32.0 -56.5 -29.0 -56.5 -22.0 -56.5 -21.0 -54.25 L-20.7 -52.7 Q-20.55 -52.0 -19.75 -52.0 -1.6 -56.0 16.3 -58.0 52.0 -62.0 52.0 -52.0 52.0 -49.4 49.0 -47.5 L47.0 -47.0" fill="#9fd26c" fill-opacity="0.3019608" fill-rule="evenodd" stroke="none"/>
    <path d="M71.05 -59.6 L107.7 -59.5 Q111.25 -59.35 113.65 -58.55 L113.4 -58.6 Q72.8 -58.65 56.05 -57.6 L45.9 -56.6 37.3 -56.1 29.65 -56.15 22.2 -56.35 21.7 -56.6 19.3 -56.6 Q18.95 -56.85 18.95 -57.3 L18.2 -57.65 16.7 -58.6 14.85 -58.05 13.55 -57.7 13.35 -57.7 Q13.15 -57.25 12.55 -57.25 11.45 -57.25 11.2 -58.2 L11.2 -59.2 11.45 -61.0 11.8 -62.85 11.65 -62.95 Q8.0 -58.6 5.9 -58.6 5.55 -58.6 5.6 -58.4 L5.55 -58.1 Q5.2 -58.35 4.7 -59.35 4.15 -60.4 4.15 -61.0 L4.3 -61.2 6.65 -59.6 9.4 -62.4 Q11.45 -64.35 13.05 -64.5 L13.2 -64.55 13.3 -64.1 12.8 -62.65 12.3 -60.75 Q12.3 -60.25 12.85 -59.4 L13.35 -58.5 15.85 -59.3 19.55 -60.2 Q19.2 -59.45 19.85 -58.95 L21.05 -57.75 20.7 -57.35 Q40.1 -57.2 45.75 -57.55 L71.05 -59.6 M2.7 -57.25 Q2.05 -57.2 0.8 -57.85 L0.8 -57.7 Q0.8 -57.25 1.9 -56.7 2.95 -56.15 2.95 -55.6 L2.9 -54.95 Q2.9 -54.7 2.3 -54.7 1.45 -54.7 1.6 -54.85 1.85 -55.05 1.7 -55.15 L-9.15 -55.6 -15.45 -55.45 -17.25 -55.15 -17.95 -55.0 -19.1 -55.25 -18.75 -55.35 -18.85 -55.35 -24.15 -56.0 -42.75 -56.7 -52.45 -56.0 -57.95 -56.0 Q-58.15 -56.95 -57.95 -57.6 L-59.55 -57.7 -61.2 -57.95 -59.35 -58.1 -57.6 -58.1 Q-57.45 -57.7 -57.45 -56.75 L-50.5 -57.15 -42.85 -57.5 Q-25.6 -57.5 -23.65 -57.15 L-16.2 -56.35 -16.1 -56.3 0.2 -56.75 Q-0.8 -57.5 -0.8 -58.45 -0.8 -59.3 0.5 -59.0 L4.65 -58.1 Q3.25 -57.3 2.7 -57.25 M38.5 -40.25 Q41.35 -40.05 41.75 -39.35 L38.25 -39.85 38.5 -40.25 M22.4 -25.1 L19.05 -22.85 18.95 -22.5 18.6 -22.5 17.7 -21.85 17.55 -21.7 Q18.9 -21.9 20.05 -22.55 L26.8 -23.1 27.55 -22.95 27.65 -22.8 27.7 -22.65 28.45 -22.85 28.9 -22.6 28.3 -22.35 27.9 -21.85 27.95 -21.35 27.95 -21.25 31.5 -22.2 Q33.65 -22.95 34.3 -22.95 L35.15 -22.85 35.2 -22.7 35.3 -22.7 35.3 -22.5 35.3 -22.2 35.3 -22.05 36.2 -21.7 37.3 -21.45 37.45 -21.1 Q37.2 -20.7 36.65 -20.7 L35.5 -20.9 39.4 -17.95 Q44.6 -14.7 49.8 -14.7 L61.45 -15.55 69.65 -16.45 Q76.4 -16.45 81.15 -14.75 82.45 -14.25 85.05 -12.75 L85.05 -12.6 84.75 -12.7 85.0 -12.35 85.55 -11.1 Q87.7 -11.1 88.45 -11.65 89.15 -12.25 90.05 -12.25 L91.3 -12.1 91.4 -11.7 86.3 -9.75 Q83.25 -9.75 83.2 -12.95 L78.9 -13.9 Q75.35 -14.85 68.55 -14.85 L60.4 -14.2 50.9 -13.6 Q44.5 -13.6 39.15 -17.3 L34.1 -21.45 33.55 -21.45 28.15 -20.1 27.05 -20.2 Q26.95 -20.05 26.95 -20.7 26.95 -21.3 27.1 -21.75 L21.45 -20.65 Q16.4 -19.7 15.3 -19.1 L14.9 -19.2 Q14.8 -19.25 14.8 -19.65 14.8 -20.55 17.25 -22.6 L16.95 -22.6 Q13.6 -22.6 10.6 -20.45 8.25 -18.35 7.8 -18.35 7.4 -18.35 7.05 -18.95 6.75 -19.6 4.05 -19.6 3.7 -19.6 3.65 -19.4 L3.55 -19.2 5.2 -18.15 9.65 -14.5 9.45 -14.0 Q9.2 -13.7 8.55 -13.7 L5.35 -14.45 0.8 -15.1 0.9 -14.55 0.7 -10.25 0.3 -9.95 -2.35 -11.3 -5.0 -12.45 -4.6 -11.85 -4.75 -11.5 Q-4.85 -11.35 -5.2 -11.35 L-5.7 -11.55 -5.95 -11.85 -5.95 -10.1 Q-5.85 -9.85 -6.45 -9.85 L-9.5 -11.45 Q-11.65 -12.55 -12.75 -12.65 -14.45 -11.9 -18.2 -11.45 L-24.35 -11.1 Q-27.0 -11.1 -30.4 -12.65 -33.0 -13.8 -34.55 -13.65 L-35.45 -13.25 Q-36.95 -12.6 -37.6 -12.6 -39.5 -12.6 -40.05 -13.1 L-40.2 -13.7 -40.05 -15.2 -39.6 -15.2 Q-39.35 -14.85 -39.35 -13.7 L-38.7 -13.6 -35.8 -13.8 -35.95 -13.95 Q-35.6 -14.15 -35.2 -14.3 -34.9 -14.6 -34.45 -14.7 L-34.3 -14.65 Q-32.4 -15.25 -30.75 -14.25 -27.35 -12.2 -24.15 -12.2 L-17.45 -13.0 -12.45 -13.85 -11.8 -13.5 -10.8 -13.2 -7.45 -11.45 Q-7.15 -12.0 -7.15 -12.2 L-7.2 -12.85 -6.7 -12.95 Q-5.65 -12.95 -5.1 -12.55 L-5.1 -12.85 -5.15 -12.9 -4.7 -13.0 -2.55 -12.3 -0.2 -11.45 -0.4 -13.1 -0.6 -14.55 -0.55 -15.1 -0.2 -15.1 -0.3 -15.7 Q-0.3 -16.75 4.8 -16.35 L4.95 -16.35 3.35 -17.5 Q2.3 -18.2 2.3 -18.65 2.3 -19.5 3.0 -19.35 L2.8 -20.05 Q2.8 -20.4 3.05 -20.45 L4.55 -20.6 6.0 -20.3 7.45 -20.0 9.4 -21.4 11.7 -22.95 Q14.95 -24.3 17.15 -24.2 L18.75 -23.8 Q20.9 -25.35 22.3 -25.25 L22.4 -25.1 M34.4 -20.35 L32.7 -17.65 Q31.55 -15.35 31.55 -14.5 L36.4 -7.15 36.05 -6.35 Q35.7 -6.0 35.15 -6.0 32.95 -6.0 32.65 -7.4 L32.8 -8.8 Q32.8 -9.55 31.6 -11.55 L30.55 -13.15 Q29.25 -13.7 28.85 -14.75 28.5 -15.5 28.5 -17.15 28.5 -18.7 29.5 -19.0 30.65 -18.3 30.45 -16.1 30.35 -14.6 30.5 -13.8 30.7 -14.7 31.85 -17.05 L33.55 -20.6 34.4 -20.35 M24.45 -19.6 L24.3 -18.35 24.15 -18.35 24.05 -19.85 Q25.55 -21.25 26.05 -19.75 L26.3 -17.7 26.2 -16.65 25.35 -15.7 25.4 -16.1 25.05 -19.35 24.45 -19.6 M34.6 -3.2 Q35.4 -2.8 35.55 -1.35 L34.55 -0.75 Q34.1 -0.75 33.9 -1.45 L33.8 -2.2 Q33.8 -3.6 34.6 -3.2 M42.6 -44.25 L44.25 -42.05 45.75 -39.75 45.6 -39.35 43.3 -41.15 42.0 -42.5 42.1 -44.25 42.6 -44.25 M0.0 29.65 L-0.05 29.15 Q-0.05 28.35 0.75 27.65 1.75 26.8 3.15 27.15 L3.25 27.35 3.3 27.8 0.8 30.15 Q0.2 30.15 0.0 29.65 M2.3 32.75 Q2.3 34.0 0.05 36.65 -3.1 40.3 -7.7 40.3 -10.65 40.3 -11.9 39.55 L-12.7 38.65 -12.6 38.4 Q-12.05 38.4 -11.55 38.75 L-10.45 39.05 Q-6.4 39.05 -2.4 36.4 0.8 34.25 0.8 33.6 L0.7 33.05 0.05 32.95 -1.05 33.05 Q-1.2 33.3 -1.2 32.65 -1.2 31.25 0.55 31.25 2.3 31.25 2.3 32.75 M-102.8 -65.1 L-102.35 -65.1 -101.0 -60.95 Q-99.8 -57.4 -99.8 -56.6 L-99.9 -56.05 -100.2 -55.95 Q-100.85 -57.1 -101.95 -60.2 L-102.95 -63.4 -102.8 -65.1 M-113.6 -50.5 L-113.7 -51.25 Q-113.7 -51.65 -112.55 -52.7 -111.3 -53.85 -110.05 -54.35 L-111.5 -55.3 -112.95 -56.5 -112.6 -56.8 -112.7 -56.95 Q-111.95 -58.1 -111.4 -57.9 L-110.45 -57.5 Q-108.25 -57.5 -108.2 -57.85 L-108.7 -57.95 -108.8 -59.65 -108.7 -61.35 Q-107.45 -61.45 -105.75 -60.65 L-104.0 -59.7 Q-101.2 -57.95 -101.2 -56.85 -101.2 -56.45 -101.35 -56.3 L-101.6 -56.1 -103.7 -57.5 -105.75 -58.9 -107.45 -60.0 -107.65 -59.95 -107.7 -59.45 -107.55 -58.85 -107.2 -58.45 -107.2 -58.3 Q-106.95 -57.75 -106.95 -56.85 L-106.95 -56.5 -107.1 -56.35 -108.65 -56.55 Q-109.5 -56.6 -109.45 -55.85 L-109.7 -55.75 Q-108.3 -54.4 -108.3 -53.85 -108.3 -53.55 -109.3 -53.3 -110.55 -52.95 -111.2 -52.35 L-111.25 -52.4 -111.35 -52.0 -110.6 -51.35 Q-109.8 -50.85 -109.6 -50.35 -110.25 -49.85 -110.7 -49.85 L-111.6 -49.9 Q-111.75 -50.1 -113.6 -50.5 M-91.95 -57.1 Q-90.6 -59.35 -84.95 -59.35 -81.2 -59.4 -79.9 -58.3 -78.75 -58.45 -78.3 -58.85 -78.05 -59.1 -78.05 -59.6 -78.05 -60.0 -78.2 -60.2 L-78.55 -60.6 Q-77.75 -60.8 -77.1 -60.15 L-76.95 -60.0 -76.95 -60.1 -76.5 -59.95 -75.85 -59.85 Q-74.55 -59.85 -74.5 -62.15 L-74.7 -65.5 Q-74.35 -65.5 -72.75 -63.25 -71.1 -60.95 -69.45 -60.95 -68.6 -60.95 -67.75 -61.65 L-66.7 -62.35 -66.05 -62.25 -65.95 -59.1 -65.95 -58.9 Q-65.9 -58.75 -65.55 -58.75 -65.0 -58.75 -64.4 -59.3 L-63.45 -59.85 Q-62.55 -59.85 -62.0 -59.0 L-61.6 -57.85 -61.7 -57.45 Q-61.8 -57.25 -62.2 -57.25 -63.15 -57.25 -63.4 -57.7 L-63.45 -58.35 -64.3 -57.7 -65.2 -57.2 Q-66.45 -57.2 -66.8 -58.15 L-66.95 -59.25 -66.95 -60.75 -68.1 -60.3 -69.1 -59.85 Q-71.2 -59.85 -73.7 -63.2 -73.7 -58.95 -75.1 -58.95 L-75.35 -58.95 -75.35 -58.7 -75.8 -58.6 Q-75.9 -58.6 -76.45 -58.95 L-76.55 -59.0 -77.0 -59.15 -76.95 -59.25 -77.3 -59.5 -78.05 -58.55 -78.7 -57.95 -79.65 -58.0 Q-79.3 -57.55 -79.3 -56.95 -79.3 -56.2 -79.95 -56.2 -80.65 -56.2 -82.25 -57.65 L-84.2 -59.1 Q-87.05 -59.1 -88.7 -58.1 -90.3 -56.8 -91.45 -56.35 L-91.95 -57.1 M-97.0 -57.4 Q-96.85 -57.6 -96.45 -57.6 L-93.3 -56.9 Q-91.4 -56.2 -91.1 -55.85 L-91.1 -55.5 Q-91.1 -55.35 -91.45 -55.35 L-95.1 -56.6 -96.2 -56.6 -96.3 -55.85 Q-96.1 -55.6 -96.7 -55.6 -97.95 -55.6 -98.7 -57.45 L-99.35 -59.95 Q-98.2 -60.3 -97.7 -59.25 L-97.2 -57.2 -97.0 -57.4 M-100.7 -40.0 L-103.75 -39.45 -106.0 -40.0 Q-107.65 -40.05 -108.9 -39.35 L-109.2 -39.95 -109.2 -41.25 -109.1 -43.15 -107.45 -45.95 Q-107.3 -46.1 -107.3 -46.35 -110.3 -46.3 -110.3 -47.2 L-110.1 -48.6 Q-109.9 -49.75 -109.6 -49.95 -109.3 -49.2 -109.3 -47.75 -106.5 -47.55 -105.6 -47.05 -104.95 -46.75 -104.95 -45.95 L-105.65 -45.3 Q-106.65 -44.5 -107.7 -42.6 L-107.7 -40.95 -106.1 -41.0 Q-106.0 -41.65 -105.7 -41.85 L-105.45 -41.05 -94.95 -41.95 -94.85 -41.95 -94.7 -42.0 -94.65 -41.9 -93.95 -41.7 -93.35 -41.35 -94.6 -41.1 -94.7 -41.0 -94.85 -41.05 -95.8 -40.9 -98.0 -39.2 -99.75 -37.65 -99.75 -37.4 Q-99.75 -37.0 -100.15 -36.5 L-96.6 -37.1 Q-95.1 -37.1 -94.75 -36.75 L-94.7 -36.35 -95.3 -35.95 -94.5 -35.25 Q-93.6 -34.35 -92.35 -34.35 -90.9 -34.35 -88.9 -35.2 L-86.7 -36.1 Q-86.25 -36.1 -86.05 -35.55 L-85.95 -34.75 -85.0 -34.7 -83.7 -34.75 -83.5 -34.8 Q-83.35 -34.75 -83.35 -34.35 L-83.4 -33.9 -82.7 -33.35 Q-81.95 -33.35 -78.05 -35.35 -74.9 -36.65 -74.5 -34.95 L-73.95 -35.2 Q-73.65 -34.65 -74.05 -34.25 L-74.05 -34.1 -71.7 -34.35 Q-70.75 -34.35 -70.95 -32.9 L-71.35 -31.45 Q-71.35 -30.7 -70.1 -30.15 L-68.75 -29.3 Q-67.8 -30.05 -66.55 -30.0 -64.6 -30.0 -64.6 -27.95 L-60.7 -27.5 -59.6 -27.25 -51.3 -27.8 -45.85 -28.35 -44.95 -28.2 -44.85 -28.05 -44.8 -27.9 -42.7 -28.25 -44.2 -29.35 Q-45.4 -30.1 -45.55 -30.6 -43.5 -30.65 -40.85 -29.55 -37.35 -28.05 -36.45 -27.85 L-35.85 -27.6 Q-35.85 -27.35 -36.45 -27.35 -37.4 -27.35 -40.0 -28.5 -42.5 -29.65 -42.85 -29.6 L-42.05 -28.6 Q-41.7 -27.95 -41.7 -27.6 -41.7 -27.15 -42.9 -27.05 L-43.8 -26.95 -43.35 -26.85 -45.55 -26.4 -44.85 -26.8 -47.7 -26.35 -48.15 -26.75 -48.2 -26.85 -50.35 -26.6 -57.2 -26.0 -63.2 -26.0 Q-64.45 -26.75 -65.45 -27.0 L-65.35 -27.95 -65.35 -29.25 Q-66.55 -29.2 -67.5 -28.7 L-68.0 -28.45 -67.8 -28.1 Q-68.2 -27.75 -69.1 -27.4 -69.85 -27.1 -70.1 -27.1 -72.8 -27.1 -73.2 -29.5 L-73.1 -32.95 -73.85 -32.85 -74.95 -32.95 -75.05 -33.1 -75.2 -33.1 Q-75.8 -33.1 -76.0 -33.6 L-76.05 -34.1 Q-76.95 -34.4 -79.5 -33.25 -82.2 -31.95 -82.35 -31.95 -83.45 -31.95 -84.3 -32.75 L-84.65 -33.15 -85.7 -33.1 Q-86.8 -33.1 -87.05 -33.6 L-87.3 -34.1 Q-88.5 -34.1 -89.65 -33.5 -90.8 -32.95 -91.2 -32.95 -93.45 -32.95 -95.05 -34.35 L-96.15 -35.65 -97.2 -35.35 -99.4 -34.7 -101.25 -33.5 -102.5 -33.75 -102.55 -34.45 Q-102.05 -36.25 -101.3 -37.15 L-101.55 -37.6 -100.55 -38.55 -100.4 -38.65 Q-100.75 -39.1 -100.75 -39.65 L-100.7 -40.0 M-99.85 -39.1 L-99.3 -39.5 -99.75 -39.75 -99.85 -39.1 M-97.75 -40.55 L-99.4 -40.25 -98.85 -39.8 -97.75 -40.55 M-95.9 -33.25 Q-96.8 -34.5 -97.25 -34.8 L-97.15 -35.15 Q-94.4 -33.2 -94.3 -32.15 L-94.75 -29.4 Q-94.75 -26.7 -91.75 -23.85 L-88.75 -21.0 Q-88.75 -20.65 -88.9 -20.4 L-89.0 -20.05 Q-88.7 -20.55 -88.0 -20.65 -87.8 -17.05 -87.4 -14.55 L-87.3 -15.25 -86.15 -15.0 -86.4 -13.75 Q-85.6 -13.9 -84.75 -14.6 L-83.5 -15.5 Q-82.9 -15.5 -82.7 -15.0 L-82.65 -14.45 Q-82.65 -13.35 -82.9 -13.15 L-84.15 -13.05 -85.3 -12.65 -86.45 -12.25 -86.45 -11.9 Q-86.35 -9.85 -86.75 -8.8 -87.55 -6.85 -87.75 -5.55 -87.95 -4.35 -87.75 -2.8 L-87.95 -2.45 -88.0 -2.35 -87.5 2.6 -88.0 8.9 Q-88.0 12.55 -87.0 18.55 -86.0 24.5 -86.0 27.55 L-86.1 30.1 -86.05 30.45 -87.65 42.3 Q-87.65 44.6 -86.2 47.8 L-84.75 51.0 -85.0 52.1 Q-84.1 53.6 -82.75 56.65 L-80.5 61.2 Q-79.2 61.05 -78.15 62.55 L-76.55 64.8 Q-74.8 65.4 -73.45 66.65 L-73.85 65.45 -74.0 62.4 -73.75 61.5 -73.6 61.2 -73.65 60.75 Q-73.65 59.9 -71.95 58.65 -70.25 57.45 -70.4 56.35 L-70.35 54.1 Q-70.2 52.8 -69.75 52.25 L-69.05 54.2 -69.0 55.8 -69.15 57.6 -69.3 59.5 Q-69.3 60.6 -70.25 60.65 -71.7 60.65 -72.75 61.15 L-72.75 61.5 -73.1 62.6 -73.5 63.65 -72.95 65.95 Q-72.4 67.45 -72.05 67.75 L-72.1 67.9 -72.25 68.0 -69.65 71.75 -69.75 71.9 -70.25 72.0 Q-70.8 72.0 -72.05 70.05 L-73.5 67.75 Q-74.1 67.2 -76.7 66.0 L-79.35 64.7 Q-82.55 64.25 -84.45 58.85 L-85.8 52.75 -85.8 52.45 Q-86.65 50.45 -88.15 48.45 -88.9 47.4 -88.9 45.05 -88.9 43.0 -87.7 36.2 L-86.8 31.4 Q-88.25 28.1 -88.75 23.65 L-89.05 14.9 -88.7 7.4 -88.4 0.0 Q-88.4 -1.85 -89.4 -2.55 L-89.35 -2.7 Q-89.65 -3.1 -89.75 -3.85 L-89.75 -5.5 -88.6 -10.0 -87.8 -12.8 Q-88.35 -13.35 -88.65 -14.4 L-89.05 -16.65 -89.4 -18.5 -89.1 -19.9 -89.5 -19.9 Q-92.3 -19.9 -94.25 -24.55 -95.25 -26.9 -95.65 -29.3 L-95.3 -30.55 Q-95.0 -31.3 -95.0 -31.75 L-95.9 -33.25 M-100.75 -35.65 L-100.8 -35.85 -101.0 -35.75 -101.0 -35.55 -100.75 -35.65 M-81.5 -14.4 Q-80.2 -15.25 -79.55 -14.0 -79.0 -12.45 -78.65 -12.25 L-79.05 -11.85 Q-79.45 -11.5 -80.0 -11.5 -80.65 -11.5 -80.9 -12.2 L-81.5 -13.9 -81.5 -14.4 M-47.65 -25.35 L-49.2 -24.1 -49.35 -24.0 -48.2 -24.3 -47.35 -24.5 Q-46.1 -24.5 -45.75 -23.15 L-45.7 -21.7 -46.1 -20.45 Q-46.55 -19.45 -46.95 -19.1 L-46.95 -18.8 -46.7 -18.5 -44.9 -19.1 -43.1 -19.6 Q-40.35 -15.7 -40.35 -15.35 -40.35 -14.75 -40.45 -15.0 L-40.55 -14.8 -40.95 -14.75 Q-42.4 -14.75 -43.0 -16.1 -43.45 -17.15 -43.2 -18.0 L-43.2 -18.1 Q-45.6 -16.85 -46.6 -16.85 L-47.45 -16.95 Q-47.35 -10.75 -45.3 -3.15 -43.0 5.4 -39.75 6.8 -39.2 6.15 -38.4 6.1 -39.7 4.95 -39.7 3.65 L-39.45 0.9 -39.2 0.9 -38.65 1.05 Q-38.95 1.05 -38.95 1.4 -38.95 4.55 -37.25 6.25 -35.45 6.9 -35.45 8.05 L-35.25 8.95 -35.05 9.8 Q-35.05 10.55 -34.15 10.85 L-31.75 11.75 Q-29.25 10.75 -27.45 12.6 -26.35 13.7 -25.95 15.15 L-22.1 14.7 -19.6 13.55 -19.35 13.9 -21.55 15.75 Q-23.15 17.0 -25.2 17.0 -25.75 17.0 -26.3 16.6 L-29.7 16.65 -29.85 17.7 Q-29.85 19.25 -29.05 19.95 L-27.3 20.85 -27.3 20.7 Q-27.3 19.95 -26.7 19.8 L-24.9 21.5 -23.85 21.65 -23.75 21.85 -23.7 22.3 -23.75 22.9 -23.6 23.15 Q-23.35 23.4 -23.95 23.4 L-24.8 23.35 -24.65 23.8 Q-24.2 25.3 -24.2 26.9 L-24.2 27.65 -24.95 27.9 Q-26.05 27.9 -26.55 25.6 -26.85 23.5 -27.1 22.8 -28.5 22.3 -29.65 21.25 -31.2 19.8 -31.2 18.9 -31.2 16.8 -30.55 16.1 -29.65 15.1 -27.7 15.15 L-28.2 14.35 Q-29.65 12.05 -32.6 13.15 L-32.65 12.6 Q-35.6 12.35 -36.85 10.25 L-37.6 7.8 -38.4 7.75 -38.8 7.85 -38.85 7.85 -38.85 7.9 -39.75 8.05 -39.8 7.9 Q-44.25 7.4 -46.35 0.15 L-47.6 -7.8 -48.05 -11.3 -48.55 -15.35 -48.45 -17.5 -48.4 -17.7 -48.45 -17.85 -48.45 -18.9 Q-48.45 -19.9 -47.2 -22.85 L-47.8 -22.85 -48.6 -22.75 -50.2 -22.95 -50.3 -23.45 Q-50.3 -24.4 -48.85 -24.9 L-47.65 -25.35 M-63.45 -41.45 Q-63.05 -41.05 -63.05 -40.1 L-63.1 -39.1 -63.85 -38.95 Q-65.0 -38.95 -65.2 -39.8 L-65.2 -40.7 Q-65.2 -41.65 -64.7 -41.85 L-63.95 -41.45 -64.35 -40.2 -63.95 -39.95 -63.95 -41.2 Q-63.8 -41.2 -63.45 -41.45 M-62.25 -17.6 L-61.8 -17.6 Q-61.65 -15.75 -59.3 -9.35 L-60.95 -11.55 Q-62.3 -13.55 -62.3 -14.25 L-62.25 -17.6 M-77.5 -14.4 L-77.4 -14.3 -77.0 -15.25 Q-76.6 -14.95 -76.5 -14.45 L-76.5 -13.6 -76.5 -12.05 -76.95 -11.75 -76.75 -10.3 -77.0 -10.0 Q-77.7 -10.25 -77.85 -11.1 L-77.9 -12.4 Q-77.9 -14.05 -77.5 -14.4 M-74.1 -15.45 L-74.0 -15.0 -74.25 -13.25 -74.65 -13.25 -75.0 -15.0 Q-75.0 -15.85 -74.5 -16.25 L-74.1 -15.45 M-50.5 -19.75 Q-50.5 -16.45 -51.25 -14.85 L-51.75 -14.75 Q-52.5 -16.8 -52.5 -19.8 -52.5 -22.25 -51.5 -23.0 -50.75 -22.4 -50.55 -21.45 L-50.5 -19.75 M-53.25 -21.4 Q-53.25 -20.1 -53.75 -18.6 L-54.5 -18.6 -54.75 -21.6 Q-54.75 -23.3 -53.75 -23.5 L-53.35 -22.65 -53.25 -21.4 M-57.25 -22.25 L-57.35 -20.7 -57.5 -19.25 -57.6 -19.0 -58.0 -18.6 Q-58.75 -20.1 -58.75 -22.25 L-58.7 -23.1 Q-58.55 -23.8 -57.75 -24.1 L-57.35 -23.5 -57.25 -22.25 M-10.2 -32.35 L-9.05 -33.7 Q-7.6 -34.95 -6.2 -34.95 L-6.05 -33.35 Q-6.05 -32.8 -7.2 -31.6 -8.35 -30.35 -9.4 -30.2 L-9.35 -29.45 -9.4 -28.8 -8.65 -29.5 -5.95 -30.0 -6.65 -30.25 -7.45 -30.25 -7.6 -30.95 -4.8 -30.5 Q-3.7 -30.3 -3.7 -29.45 -3.7 -29.1 -4.45 -29.1 L-8.95 -28.45 -9.4 -28.7 -9.8 -27.35 Q-10.25 -25.85 -10.7 -25.85 L-12.7 -26.0 Q-12.65 -28.65 -11.5 -29.9 L-11.95 -29.85 -13.35 -29.7 Q-14.95 -29.7 -15.85 -30.4 -16.45 -30.85 -16.45 -31.15 -16.45 -34.15 -14.0 -33.9 -11.6 -33.65 -11.6 -30.45 L-11.35 -30.15 -11.3 -30.15 -11.0 -30.4 -10.5 -30.7 -10.15 -31.55 -10.2 -32.35 M-15.2 -31.05 L-14.7 -30.6 -11.95 -30.6 Q-13.05 -32.45 -14.3 -32.85 -15.6 -33.25 -15.6 -31.55 L-15.2 -31.05 M-10.55 -29.25 L-11.35 -28.15 -11.8 -27.1 -11.8 -26.95 Q-11.2 -27.25 -10.75 -28.05 -10.3 -28.85 -10.55 -29.25 M-9.85 -31.2 Q-8.5 -31.5 -7.55 -32.5 -6.65 -33.5 -6.85 -34.2 -8.5 -34.15 -9.15 -33.1 L-9.85 -31.35 -9.85 -31.2 M-35.85 -30.55 L-35.8 -31.35 Q-34.3 -31.4 -32.85 -30.2 L-30.2 -27.95 -30.2 -27.6 -30.95 -27.45 Q-31.95 -27.45 -33.25 -28.85 L-34.85 -30.75 -35.1 -30.7 -34.8 -29.1 -34.8 -27.5 -35.1 -27.45 -35.7 -29.3 -35.85 -30.55 M-18.45 23.4 L-16.7 23.4 -16.55 23.45 -16.45 23.9 Q-16.45 24.5 -16.6 24.25 L-16.7 24.4 -18.35 24.4 Q-18.55 24.45 -18.55 23.8 L-18.45 23.4 M-22.7 21.95 Q-22.7 19.45 -21.5 21.05 L-19.3 24.55 -19.7 24.8 Q-21.4 24.25 -22.1 23.55 -22.7 22.95 -22.7 21.95 M-25.3 28.9 L-25.2 28.25 -24.95 28.25 Q-24.4 29.45 -20.5 32.2 -16.2 35.15 -15.3 36.3 L-15.3 39.5 -15.7 39.8 Q-16.8 36.8 -21.35 33.8 -25.3 31.15 -25.3 28.9 M-12.85 42.05 Q-10.35 40.4 -8.95 41.0 L-8.8 41.15 -8.7 41.65 Q-8.7 42.4 -9.7 42.35 L-12.2 42.55 -12.85 42.05 M-15.3 46.55 Q-15.3 46.3 -12.6 45.0 -9.65 43.55 -7.95 43.75 L-7.8 43.9 -7.7 44.4 Q-7.7 44.8 -10.15 46.15 -12.6 47.5 -13.2 47.5 -13.9 47.5 -15.2 46.9 L-15.3 46.55 M-40.85 4.05 L-39.55 6.4 Q-40.35 6.45 -41.45 5.4 -42.45 4.4 -42.45 3.8 L-42.45 3.05 Q-42.35 2.3 -41.85 2.05 L-40.85 4.05 M-65.6 21.95 Q-65.45 22.0 -65.45 22.4 L-65.95 23.15 -66.35 24.15 -67.2 24.65 Q-67.8 24.5 -67.8 23.8 L-67.15 22.7 Q-66.5 22.0 -65.95 21.9 L-65.6 21.95 M-69.9 48.65 L-70.25 48.75 -70.5 48.65 -70.55 48.2 -70.5 47.65 Q-69.9 47.65 -69.65 47.9 L-69.9 48.65 M-74.0 64.5 Q-75.25 64.3 -76.0 63.0 L-77.3 60.85 Q-76.65 60.35 -75.55 62.0 L-74.0 64.5 M-69.55 73.25 Q-68.5 75.8 -66.6 77.35 L-61.25 80.9 -61.45 81.6 -62.75 81.75 Q-66.2 81.75 -67.9 78.6 -69.0 76.65 -69.0 75.25 -70.0 74.25 -70.0 73.25 L-69.55 73.25 M-52.3 92.0 Q-51.35 94.3 -50.0 95.75 L-50.0 96.1 -50.5 96.25 Q-51.2 96.25 -54.95 90.45 L-59.75 82.65 Q-55.45 84.7 -53.8 88.15 -53.2 89.4 -52.3 92.0 M-46.75 98.0 Q-47.95 97.45 -48.65 96.15 -47.95 96.15 -47.2 96.85 L-46.4 97.65 -46.75 98.0" fill="#5b5546" fill-rule="evenodd" stroke="none"/>
  </g>
</svg>
