<?xml version="1.0" encoding="UTF-8" standalone="no"?>
<svg xmlns:xlink="http://www.w3.org/1999/xlink" height="64.8px" width="30.65px" xmlns="http://www.w3.org/2000/svg">
  <g transform="matrix(1.0, 0.0, 0.0, 1.0, 14.6, 32.4)">
    <path d="M8.0 -30.1 Q15.8 -30.1 15.8 -26.5 15.8 -24.95 14.1 -23.95 L10.65 -22.0 8.7 -20.2 Q10.4 -19.0 13.75 -18.25 16.05 -17.75 16.05 -15.4 16.05 -12.95 12.75 -12.25 13.6 -11.45 13.85 -10.55 L14.05 -8.85 13.75 -7.35 13.05 -6.25 14.95 -4.05 Q15.55 -3.4 15.55 -2.9 15.55 -1.2 13.75 -0.2 10.1 1.95 8.55 3.25 L8.5 3.3 10.05 2.7 12.0 2.3 Q13.75 2.3 14.55 3.85 15.05 4.75 15.05 5.5 15.05 6.6 14.3 7.55 13.25 8.9 11.05 9.55 L11.35 10.25 11.5 11.5 Q11.5 12.9 10.8 13.75 9.7 15.05 6.8 15.8 L7.55 16.9 Q8.0 17.6 8.0 18.4 L7.7 19.75 7.05 20.75 Q9.45 20.55 10.45 22.5 11.0 23.55 11.0 24.75 11.0 26.35 9.75 28.0 8.2 30.0 6.0 30.0 4.35 30.0 3.6 28.65 2.85 27.3 2.25 27.3 L-2.6 28.9 Q-7.35 30.5 -8.75 30.5 -11.5 30.5 -12.25 29.0 L-12.5 27.35 Q-12.5 25.1 -9.85 24.25 L-10.55 23.0 -11.0 21.35 Q-11.0 20.6 -10.05 19.8 -8.9 18.85 -8.35 17.5 -10.4 14.4 -12.85 13.3 -14.6 12.5 -14.6 11.9 -14.6 11.0 -13.45 10.1 -11.45 8.8 -9.85 7.55 L-10.6 6.4 Q-11.0 5.7 -11.0 4.9 L-10.65 3.65 Q-10.2 2.5 -9.35 2.0 -9.75 0.6 -10.45 -0.4 L-11.0 -1.55 Q-11.0 -2.1 -10.05 -3.65 -9.1 -5.15 -9.1 -5.5 -9.1 -6.25 -10.45 -7.7 -11.85 -9.2 -11.85 -10.35 -11.85 -10.9 -11.1 -12.05 -10.35 -13.15 -10.35 -13.75 L-11.65 -17.25 -11.8 -17.7 Q-12.75 -18.4 -12.75 -19.55 L-12.55 -19.8 -13.0 -21.75 Q-13.0 -22.65 -9.75 -26.25 -6.55 -29.75 -6.0 -29.75 -4.95 -29.75 -4.75 -28.85 L-4.6 -27.6 Q2.95 -30.85 4.1 -30.8 5.15 -30.1 8.0 -30.1" fill="#5b5546" fill-opacity="0.3019608" fill-rule="evenodd" stroke="none"/>
    <path d="M9.3 -21.1 Q6.9 -18.6 6.5 -18.6 4.2 -18.6 3.4 -19.85 2.95 -20.55 2.75 -21.75 -2.65 -22.3 -4.9 -20.6 -7.35 -18.75 -9.5 -18.75 -11.15 -18.75 -11.6 -19.55 L-11.75 -20.5 Q-11.75 -22.05 -8.05 -23.75 -4.65 -25.35 0.05 -26.3 11.8 -28.7 11.8 -24.5 11.8 -23.75 9.3 -21.1" fill="#5b5546" fill-opacity="0.3019608" fill-rule="evenodd" stroke="none"/>
    <path d="M7.4 -15.05 Q12.8 -14.3 12.8 -12.9 12.8 -11.9 6.5 -10.2 -0.5 -8.35 -7.0 -8.35 -9.2 -8.35 -9.85 -9.35 L-10.1 -10.5 Q-7.05 -15.45 -4.05 -18.65 2.0 -25.0 2.0 -16.1 2.0 -15.8 7.4 -15.05" fill="#5b5546" fill-opacity="0.3019608" fill-rule="evenodd" stroke="none"/>
    <path d="M10.55 -7.0 Q10.55 -5.1 9.3 -4.05 6.75 -1.9 5.5 -0.25 7.25 0.8 7.25 1.9 7.25 3.5 6.05 3.85 L2.25 4.0 -3.1 4.65 -6.5 5.3 Q-8.3 5.3 -8.75 4.2 L-8.85 3.0 Q-8.85 1.3 -6.6 0.3 -0.75 -2.3 0.05 -2.75 L0.3 -3.1 -3.2 -3.4 -6.6 -3.75 Q-7.0 -4.1 -7.0 -4.85 3.1 -7.0 4.4 -8.45 5.0 -9.1 8.5 -9.1 10.4 -9.1 10.55 -7.0" fill="#5b5546" fill-opacity="0.3019608" fill-rule="evenodd" stroke="none"/>
    <path d="M8.8 9.25 Q9.5 9.9 9.25 10.5 9.25 11.5 8.5 12.0 7.2 12.9 3.75 13.0 L5.25 16.45 Q5.75 17.6 5.75 18.5 5.75 18.85 1.9 20.35 L-0.7 21.25 -0.5 21.25 -0.8 21.3 -1.95 21.35 Q-5.05 21.45 -6.15 20.45 -6.75 19.95 -6.75 18.85 -6.75 17.85 -5.5 16.65 -3.6 14.9 -0.1 15.05 -1.1 13.55 -1.1 12.5 L-4.65 13.4 -7.5 14.25 Q-9.15 14.25 -9.6 13.4 L-9.75 12.4 Q-9.75 9.15 -4.75 6.4 -2.95 5.45 -2.45 5.9 -1.95 6.5 -3.85 8.8 L-3.85 9.05 -0.4 8.4 3.0 8.0 Q7.45 8.0 8.8 9.25" fill="#5b5546" fill-opacity="0.3019608" fill-rule="evenodd" stroke="none"/>
    <path d="M11.25 -2.1 Q10.65 -2.1 9.9 -2.6 9.2 -3.1 8.55 -3.1 7.4 -3.1 6.15 -1.65 4.85 -0.25 4.0 -0.25 2.85 -0.25 -0.75 -2.0 -3.95 -3.55 -4.85 -4.25 L-4.85 -5.0 -3.1 -5.1 -0.75 -4.75 Q-0.9 -6.35 -0.5 -6.95 -0.05 -7.75 1.5 -7.75 5.2 -7.75 4.5 -5.5 7.15 -9.65 10.45 -8.65 13.55 -7.7 13.55 -4.55 13.55 -2.1 11.25 -2.1" fill="#669900" fill-opacity="0.3019608" fill-rule="evenodd" stroke="none"/>
    <path d="M-6.8 9.5 L-5.5 9.25 -4.0 9.5 -3.85 9.55 -3.75 10.35 Q-3.75 10.95 -6.65 14.5 -9.5 18.05 -10.0 18.05 -11.9 18.05 -12.85 15.55 L-13.5 12.9 Q-10.55 4.1 -7.75 9.8 L-6.8 9.5" fill="#669900" fill-opacity="0.3019608" fill-rule="evenodd" stroke="none"/>
    <path d="M-3.5 15.55 L-10.25 14.9 -10.5 14.1 Q-10.5 12.15 -7.0 11.45 -2.95 10.6 3.3 12.3 2.3 13.6 -0.5 14.7 L-3.5 15.55" fill="#669900" fill-opacity="0.3019608" fill-rule="evenodd" stroke="none"/>
    <path d="M2.3 -17.25 Q-0.05 -16.25 -2.5 -15.5 -3.1 -15.5 -4.0 -16.05 -4.9 -16.6 -5.55 -16.6 L-7.65 -15.95 Q-9.1 -15.35 -9.75 -15.35 L-11.25 -15.6 -11.5 -15.75 -11.6 -16.55 -11.25 -19.35 -11.3 -19.55 -10.5 -19.75 Q-8.4 -19.75 -8.25 -19.25 -8.3 -19.0 -8.85 -18.65 L-9.6 -18.1 -9.6 -17.85 Q-4.75 -19.35 2.35 -23.45 4.75 -24.5 5.8 -23.9 7.05 -23.2 7.05 -20.05 7.05 -19.15 2.3 -17.25" fill="#669900" fill-opacity="0.3019608" fill-rule="evenodd" stroke="none"/>
    <path d="M9.55 -29.75 L9.8 -29.4 10.0 -28.4 Q10.0 -27.6 9.05 -27.25 L6.05 -26.0 6.35 -25.15 6.5 -23.9 Q6.5 -23.3 6.1 -22.4 5.6 -21.4 5.0 -21.1 3.15 -21.6 2.65 -23.45 2.5 -24.0 2.5 -25.65 2.5 -28.0 3.05 -28.6 4.35 -29.85 9.55 -29.75" fill="#669900" fill-opacity="0.3019608" fill-rule="evenodd" stroke="none"/>
    <path d="M3.2 -28.7 L2.8 -28.45 Q2.05 -29.3 2.05 -29.85 2.05 -30.75 4.3 -31.2 6.7 -31.7 7.9 -29.95 L7.55 -29.5 3.05 -29.6 Q2.8 -29.35 3.2 -28.7 M1.9 -29.65 L1.7 -28.85 2.0 -24.6 2.45 -21.15 Q2.45 -21.35 2.8 -21.15 L3.65 -20.6 4.35 -20.65 Q4.2 -21.15 4.2 -21.7 L4.3 -24.1 4.65 -24.1 4.8 -21.8 4.75 -20.7 8.3 -21.6 9.5 -21.35 10.45 -22.85 Q11.7 -24.8 11.7 -25.55 L11.3 -28.3 10.4 -29.15 8.15 -30.35 Q11.45 -31.0 12.45 -28.25 12.9 -27.05 12.9 -24.1 12.9 -23.6 11.75 -22.05 L10.75 -20.85 11.95 -19.2 Q13.45 -17.0 13.45 -16.35 13.45 -15.6 11.8 -13.6 L11.05 -12.75 Q12.35 -12.95 12.8 -10.75 L13.05 -6.8 12.65 -4.5 12.15 -2.6 Q12.8 -1.9 13.3 -0.35 13.3 1.5 12.75 3.15 L11.8 4.95 11.9 7.35 Q11.9 8.55 11.45 9.4 L10.45 10.5 10.75 12.35 11.15 15.4 9.65 16.5 9.55 16.6 Q10.55 16.7 11.15 17.4 11.8 18.1 11.8 19.0 L11.55 22.7 11.3 27.0 10.8 27.3 Q9.55 25.7 9.95 23.2 10.65 20.35 10.65 18.9 10.65 18.3 8.9 17.7 L8.05 17.4 7.9 17.4 5.2 17.0 7.3 17.8 Q4.75 18.1 2.8 19.0 L1.7 19.65 Q1.7 20.3 0.65 21.1 L-1.2 22.4 Q-1.8 21.8 -1.8 21.05 L-2.9 21.4 -10.1 23.15 Q-9.35 21.7 -9.05 21.6 L-4.1 21.65 -2.0 20.6 -2.5 19.6 -3.55 17.4 -3.45 17.15 Q-2.85 17.5 -2.3 19.15 L-1.85 20.55 -1.25 20.25 -0.15 19.2 Q1.2 18.05 1.4 17.25 L0.8 14.3 Q0.35 12.2 -0.95 11.55 L-2.7 11.65 -3.7 11.55 -3.95 11.7 -5.1 13.35 -5.1 13.4 Q-5.1 14.0 -6.15 14.65 -7.5 16.15 -8.35 16.15 -10.1 16.15 -10.65 15.4 L-10.8 15.6 -10.95 16.4 Q-10.95 16.75 -11.7 18.2 -11.7 21.0 -11.5 21.85 -11.2 23.55 -9.7 25.65 L-10.0 25.9 -9.9 26.1 -9.8 27.4 Q-9.8 27.9 -10.8 29.7 -11.85 31.65 -12.7 32.4 L-13.4 31.6 -13.45 30.7 -12.45 28.75 Q-11.45 26.85 -11.45 25.55 L-11.4 25.3 -12.65 22.8 -12.8 20.55 -12.55 17.35 -11.1 14.65 Q-11.8 14.15 -12.5 12.15 -13.2 10.25 -13.2 9.05 -13.2 7.7 -12.65 6.45 L-11.25 3.95 Q-12.15 3.25 -12.4 2.35 L-12.55 -0.4 -12.4 -2.5 Q-12.15 -3.3 -11.1 -4.25 L-11.6 -5.45 -11.35 -7.6 -11.6 -7.5 Q-12.7 -10.55 -12.7 -15.3 -12.7 -17.75 -11.4 -18.45 L-12.95 -19.25 Q-13.45 -19.75 -13.45 -20.95 -13.45 -22.1 -12.45 -24.2 -11.3 -26.55 -10.2 -26.7 L-10.6 -27.2 Q-8.75 -26.45 -7.85 -25.9 L-7.85 -25.95 Q-7.85 -28.65 -7.45 -30.1 L-7.05 -30.0 -7.1 -30.35 Q-7.1 -31.7 -5.2 -32.25 -3.0 -32.85 -0.6 -30.7 L-0.85 -30.5 -2.35 -31.35 -5.55 -30.7 -6.95 -30.1 -7.0 -29.95 -6.95 -29.95 -7.2 -28.45 -7.05 -25.3 Q-6.35 -24.55 -6.35 -23.55 L-6.35 -22.05 Q-5.9 -20.75 -5.15 -20.2 L-4.55 -20.6 Q-5.2 -21.7 -5.2 -22.65 L-5.2 -24.5 -4.95 -24.5 -4.1 -22.4 Q-3.95 -21.9 -3.95 -21.1 L-3.95 -20.75 -3.85 -20.8 -2.25 -20.85 -2.1 -20.9 -2.2 -22.05 Q-2.2 -23.9 -1.7 -24.35 -1.3 -23.95 -1.3 -21.95 L-1.3 -21.3 Q0.2 -22.2 0.2 -23.25 L-0.05 -24.4 -0.3 -25.6 -0.05 -29.85 0.4 -29.85 0.9 -26.35 1.1 -25.0 1.1 -26.65 Q1.15 -29.45 2.05 -30.25 L1.9 -29.65 M10.15 -20.3 L9.8 -20.1 9.7 -19.45 Q9.55 -19.25 9.3 -19.2 L7.95 -20.6 6.55 -20.15 Q5.5 -19.7 4.55 -19.7 3.15 -19.7 2.95 -20.0 L2.95 -20.1 2.7 -20.05 2.9 -19.35 2.55 -19.1 1.85 -20.05 -0.35 -20.0 -1.5 -19.4 -1.55 -19.35 -1.7 -19.2 -1.75 -19.35 -2.6 -19.2 -2.8 -19.2 Q-2.8 -18.75 -2.95 -18.95 L-4.35 -18.95 -4.3 -18.45 -3.85 -18.35 Q-3.75 -18.15 -3.9 -17.85 L-4.05 -17.1 -4.0 -16.55 -3.6 -15.1 -3.65 -15.05 -3.2 -13.95 -1.95 -13.25 -1.45 -12.95 -1.15 -12.95 -0.9 -13.05 3.35 -12.9 6.05 -12.75 Q7.65 -12.65 8.05 -12.0 L8.45 -12.6 9.8 -14.35 10.1 -14.25 10.2 -13.85 Q10.2 -13.35 9.2 -12.3 L8.85 -11.95 Q10.8 -12.5 12.15 -15.85 L11.4 -17.4 10.15 -19.75 10.15 -20.3 M7.35 -21.9 L7.05 -21.5 Q6.55 -21.9 6.55 -22.55 L6.65 -23.15 7.05 -23.35 Q7.45 -23.1 7.45 -22.45 L7.35 -21.9 M1.55 -20.6 L1.25 -21.45 1.25 -21.5 0.6 -20.7 1.55 -20.6 M2.8 -20.45 L2.65 -20.6 2.5 -20.95 2.6 -20.5 2.8 -20.45 M7.65 -14.4 Q7.65 -13.6 6.05 -12.85 L5.9 -12.95 7.4 -14.95 7.6 -14.85 7.65 -14.4 M8.55 -9.85 L8.05 -9.0 7.95 -9.05 8.05 -7.5 8.8 -8.25 9.1 -8.2 9.55 -8.0 9.65 -7.85 Q8.8 -7.1 7.6 -5.35 L8.3 -5.05 8.75 -4.75 8.7 -5.1 Q8.7 -5.65 9.65 -6.35 L9.8 -5.65 9.75 -4.95 9.25 -4.35 9.65 -3.95 10.75 -4.2 11.25 -4.3 11.6 -6.15 12.05 -9.05 11.9 -10.6 10.25 -12.05 Q9.45 -11.45 8.8 -11.45 L8.3 -11.45 8.15 -11.35 8.05 -11.0 Q8.15 -10.75 7.55 -10.75 L-0.15 -11.3 -2.05 -10.85 Q-5.0 -9.95 -6.1 -9.95 L-6.5 -9.95 Q-8.15 -9.2 -9.55 -9.05 L-9.75 -8.7 -9.95 -8.35 -10.2 -7.5 -10.45 -6.7 Q-10.45 -4.65 -9.05 -4.35 L-5.85 -4.2 -5.85 -5.95 -5.7 -5.95 -5.6 -4.2 -3.9 -4.2 -4.05 -5.95 Q-4.05 -6.55 -3.45 -6.95 L-3.05 -6.55 -2.95 -5.9 -3.05 -4.2 -1.25 -4.2 -0.95 -4.25 -0.65 -4.2 0.45 -4.2 0.8 -4.0 0.9 -3.85 0.7 -3.6 0.85 -3.55 Q2.25 -2.85 2.65 -2.85 4.9 -2.85 6.05 -4.6 L5.8 -4.75 6.35 -5.15 6.75 -6.25 7.3 -9.45 5.8 -10.25 Q6.0 -10.9 6.65 -10.7 L7.5 -10.35 7.65 -10.7 7.75 -10.2 8.55 -9.85 M0.15 -2.6 L-0.45 -3.05 -1.0 -2.95 -0.6 -2.95 Q-0.2 -1.2 -0.2 0.45 L-0.35 1.3 Q0.35 1.45 1.9 2.3 4.1 3.5 4.8 3.5 L9.1 2.95 Q10.2 2.4 10.55 2.4 11.2 2.4 11.3 2.7 L11.45 3.25 Q12.3 1.15 12.3 -0.55 L11.4 -1.95 10.65 -2.85 10.3 -2.85 Q9.2 -2.85 7.65 -3.65 L6.8 -4.1 6.65 -3.9 Q5.0 -1.5 3.15 -1.5 1.95 -1.5 0.15 -2.6 M10.25 4.35 L10.0 4.05 9.9 3.4 7.55 4.15 Q3.9 4.15 1.7 3.15 0.2 2.15 -0.5 1.9 L-0.6 2.45 Q-0.6 2.95 -0.75 3.05 L-2.35 3.25 -3.1 3.2 -6.0 4.2 -6.3 4.75 -6.35 5.95 -6.1 8.05 -5.6 9.55 -4.4 10.1 -4.05 9.85 -3.95 9.75 -3.9 9.8 -1.7 9.3 Q0.0 9.15 0.85 9.95 L2.85 10.0 Q3.95 8.75 4.7 8.95 L5.7 10.05 8.85 9.25 9.05 8.9 9.5 8.05 Q9.8 7.6 10.4 7.65 L10.65 7.9 10.75 8.0 Q11.1 7.5 11.05 6.9 L10.6 5.8 10.3 5.55 10.45 5.35 10.25 4.35 M1.7 11.4 L1.8 11.95 2.4 11.35 1.7 11.4 M4.45 10.45 L5.3 11.15 2.9 11.35 Q2.55 11.6 2.55 11.9 L2.0 13.5 2.2 14.4 2.55 16.35 3.1 16.8 5.2 17.0 7.2 16.3 7.2 15.9 7.65 15.9 7.75 16.0 Q9.1 15.3 9.65 14.4 10.15 13.55 10.15 11.2 L9.95 10.7 9.15 10.8 5.45 10.65 5.35 10.55 5.05 10.5 4.45 10.45 M4.05 17.9 L3.7 17.9 3.55 17.9 3.4 18.15 4.05 17.9 M3.05 18.4 Q2.75 18.4 2.3 19.0 L2.2 19.05 2.95 18.5 3.05 18.4 M-3.95 -19.7 L-3.95 -19.9 -3.9 -19.95 -4.2 -19.95 -4.25 -19.85 -4.3 -19.75 -3.95 -19.7 M-7.8 -20.95 Q-7.55 -21.35 -7.55 -21.7 -7.55 -25.95 -10.05 -25.25 -12.55 -24.55 -12.55 -21.1 -12.55 -20.4 -11.95 -19.8 -11.3 -19.1 -10.2 -19.1 L-9.5 -19.1 Q-10.35 -19.25 -11.0 -19.75 L-11.55 -20.45 Q-11.55 -21.45 -10.95 -21.85 -10.7 -21.7 -10.2 -20.75 -9.55 -20.05 -8.0 -20.4 L-7.8 -20.95 M-6.7 -19.25 Q-7.15 -18.1 -7.95 -18.1 L-8.45 -18.1 Q-11.0 -17.9 -11.65 -17.4 -11.85 -17.25 -11.85 -16.5 L-11.2 -10.7 -10.95 -11.0 -10.85 -10.6 -10.6 -10.35 -10.7 -10.45 -6.05 -11.45 -5.15 -12.15 -4.35 -13.15 Q-5.05 -13.95 -5.05 -15.55 L-4.85 -16.95 -4.95 -17.3 -5.15 -18.95 -5.45 -18.95 -5.8 -19.35 -6.45 -19.25 -6.7 -19.25 M-6.4 -20.65 L-6.45 -20.55 -6.45 -20.5 -6.35 -20.55 -6.4 -20.65 M-8.45 -12.55 Q-8.45 -11.9 -8.55 -12.1 -8.55 -11.85 -8.7 -11.75 L-8.9 -11.9 -8.95 -12.45 -8.95 -12.85 -8.6 -12.85 -8.5 -12.9 -8.45 -12.55 M-11.05 -9.05 L-11.05 -8.35 -10.65 -9.0 -11.05 -9.05 M-11.95 -2.5 L-11.75 0.95 -11.15 2.8 -11.15 2.75 -10.95 2.5 -9.2 3.1 -7.85 3.4 Q-6.7 3.4 -4.6 2.05 -3.65 1.45 -2.4 1.75 -1.5 1.2 -1.3 0.3 -1.4 -1.9 -1.05 -2.95 L-6.35 -2.7 Q-9.1 -2.7 -10.45 -3.6 L-11.0 -3.2 -11.95 -2.5 M-9.95 4.45 L-10.2 4.65 -10.5 4.5 -10.7 4.5 -10.9 4.75 -11.0 4.85 -11.25 6.2 -11.95 8.15 -12.35 7.45 -12.35 7.55 Q-12.35 8.8 -11.5 10.9 L-10.85 12.65 -10.45 12.4 Q-10.05 12.65 -10.05 13.95 L-10.05 14.15 -9.8 14.25 -8.9 14.4 -7.05 14.25 -6.0 12.85 -5.85 12.65 Q-6.6 12.55 -7.15 12.0 L-7.8 10.9 Q-7.25 10.9 -6.5 11.6 L-5.7 12.35 -5.05 11.3 -5.0 11.0 -5.45 11.05 Q-6.9 11.05 -7.2 9.75 L-7.2 8.4 Q-7.2 5.65 -6.6 4.3 L-7.45 4.3 -9.95 4.45 M-9.35 12.2 Q-8.8 13.35 -7.35 13.65 L-8.05 13.8 Q-8.8 13.8 -9.45 13.15 L-9.95 12.4 -9.95 10.75 -9.7 10.75 -9.35 12.2 M-10.4 3.95 L-9.8 3.65 Q-10.65 3.1 -11.1 2.95 L-10.8 3.45 -10.65 3.45 Q-10.3 3.5 -10.2 3.65 L-10.5 3.85 -10.4 3.95 M-4.15 18.9 L-3.7 19.15 -4.15 19.95 -4.35 20.8 -4.6 20.8 -4.8 19.7 Q-4.8 18.95 -4.45 18.8 L-4.15 18.9" fill="#5b5546" fill-rule="evenodd" stroke="none"/>
  </g>
</svg>
