<?xml version="1.0" encoding="UTF-8" standalone="no"?>
<svg xmlns:xlink="http://www.w3.org/1999/xlink" height="132.0px" width="161.25px" xmlns="http://www.w3.org/2000/svg">
  <g transform="matrix(1.0, 0.0, 0.0, 1.0, 78.85, 67.0)">
    <path d="M79.0 -50.75 Q74.1 -48.0 67.0 -48.0 61.5 -48.0 60.9 -49.35 L60.6 -50.3 Q60.3 -50.75 59.0 -50.75 L39.0 -49.75 19.0 -48.75 -0.3 -50.35 -38.5 -52.0 Q-55.05 -52.0 -59.05 -54.25 -60.35 -55.0 -60.3 -56.0 L-60.0 -57.25 Q-60.0 -59.25 -42.7 -62.8 -22.1 -67.0 1.0 -67.0 35.8 -67.0 52.45 -66.1 L66.5 -65.25 Q74.95 -65.25 79.75 -61.25 81.55 -59.75 82.4 -58.3 80.3 -55.5 79.5 -51.05 L79.0 -50.75" fill="#5b5546" fill-opacity="0.3019608" fill-rule="evenodd" stroke="none"/>
    <path d="M56.8 -56.0 L66.25 -56.6 75.6 -55.8 Q77.1 -55.45 78.25 -54.75 74.5 -49.6 64.5 -49.6 L62.35 -49.9 62.4 -50.55 Q62.5 -51.5 56.25 -51.5 L42.9 -50.1 11.5 -48.75 Q-11.65 -48.75 -11.35 -49.85 L-10.75 -50.65 -16.85 -51.0 -20.6 -50.65 -30.1 -50.0 -34.65 -49.3 -38.5 -48.75 Q-40.6 -48.75 -41.15 -49.8 L-41.25 -51.05 Q-41.25 -53.05 -32.35 -54.5 L-12.0 -55.85 17.75 -55.35 20.75 -54.85 30.8 -53.65 31.75 -53.35 32.8 -53.5 Q31.65 -53.55 31.0 -54.25 30.55 -54.75 30.55 -55.35 30.55 -57.0 32.95 -57.25 36.1 -57.55 50.5 -57.0 55.15 -55.8 56.8 -56.0" fill="#5b5546" fill-opacity="0.3019608" fill-rule="evenodd" stroke="none"/>
    <path d="M74.1 -40.35 L74.0 -37.55 73.8 -34.6 Q68.15 -33.55 61.5 -30.25 69.25 -26.4 71.75 -24.2 L72.9 -23.0 Q72.05 -21.65 71.55 -19.85 71.1 -18.25 71.0 -15.95 L71.0 -12.0 Q70.7 -11.1 68.8 -10.65 L64.9 -10.05 Q59.5 -9.1 59.5 -5.25 59.5 -4.75 65.5 1.7 L68.6 4.9 Q68.0 6.4 68.0 7.25 68.0 8.75 69.65 11.8 L70.85 14.3 69.5 16.7 Q68.55 18.75 67.95 21.1 L65.0 22.5 67.05 25.35 Q65.75 26.1 64.7 27.3 62.5 29.75 62.5 32.85 L62.75 35.5 Q63.8 37.8 67.8 38.0 64.85 39.95 58.0 42.75 60.5 44.25 60.95 47.6 61.35 50.8 59.75 52.5 67.35 52.7 69.9 55.75 71.0 57.05 71.0 59.1 71.0 61.95 69.3 63.25 67.0 65.0 61.0 65.0 41.95 65.0 38.35 62.8 37.05 62.0 36.75 60.3 36.35 57.75 36.0 57.0 L36.0 56.75 22.45 59.95 Q9.5 63.0 4.5 63.0 -4.8 63.0 -6.3 59.6 -6.75 58.5 -6.45 57.0 -6.0 55.55 10.0 50.25 -14.65 54.6 -15.85 51.2 -16.25 50.05 -15.8 48.25 L-15.0 45.5 Q-18.7 43.3 -20.15 40.4 -21.45 37.85 -20.5 36.25 L-1.25 27.5 Q-31.65 37.9 -33.7 38.3 L-39.6 39.4 Q-41.15 38.75 -43.1 38.6 -43.55 36.1 -32.0 29.05 -49.35 35.0 -54.5 36.2 L-55.95 36.6 Q-57.25 35.3 -59.65 35.2 L-59.5 33.35 Q-59.5 30.15 -58.05 28.55 -56.2 26.55 -49.25 23.0 -52.85 20.3 -52.1 17.8 -50.5 14.8 -50.5 12.5 -50.5 11.6 -52.35 10.3 -53.45 9.5 -56.35 7.65 L-58.9 5.7 Q-57.5 0.45 -57.5 -2.4 L-58.0 -6.35 -58.2 -7.65 Q-56.45 -9.05 -54.0 -10.35 -49.5 -12.7 -48.35 -13.65 -45.75 -15.65 -45.75 -18.1 -45.75 -19.75 -45.35 -20.55 L-44.0 -22.25 -43.25 -22.75 Q-48.45 -22.5 -50.6 -24.55 -52.0 -25.9 -52.0 -28.0 -52.0 -32.35 -45.0 -33.9 -38.95 -35.25 -14.0 -37.0 L-11.0 -37.5 -31.25 -36.45 -44.0 -35.75 Q-57.65 -35.75 -60.8 -37.8 -62.35 -38.8 -61.25 -40.0 -61.25 -42.25 -59.8 -43.45 -57.4 -45.5 -51.0 -45.75 L-51.55 -46.2 Q-51.75 -46.45 -51.75 -48.0 -51.75 -52.25 -20.45 -52.3 27.2 -51.5 60.0 -51.5 L69.25 -44.25 74.1 -40.35" fill="#857a50" fill-opacity="0.3019608" fill-rule="evenodd" stroke="none"/>
    <path d="M25.0 -42.35 Q25.8 -42.75 24.55 -42.75 17.9 -42.75 12.95 -40.05 7.95 -37.35 7.5 -37.35 5.7 -37.35 5.2 -38.55 L5.0 -40.25 4.8 -40.5 Q2.9 -38.85 0.25 -38.85 -1.85 -38.85 -2.0 -39.2 L-1.8 -39.9 Q-2.0 -41.0 -12.6 -41.0 -20.25 -40.35 -24.35 -39.35 L-34.3 -36.85 Q-34.65 -36.8 -36.0 -37.25 L-38.85 -38.0 Q-41.4 -39.3 -40.35 -42.1 L-49.25 -42.35 -49.4 -42.55 Q-49.6 -42.8 -49.6 -43.55 -49.6 -44.35 -49.25 -44.5 L-48.5 -44.75 -49.2 -44.95 -52.35 -45.5 -52.45 -45.3 -52.6 -46.05 Q-52.6 -47.3 -22.0 -46.6 L-18.5 -46.0 Q-17.55 -46.0 -10.6 -47.75 -3.6 -49.5 3.75 -49.5 5.55 -49.5 6.05 -48.35 L6.25 -46.6 9.85 -47.15 12.5 -47.6 Q14.1 -47.6 14.45 -46.75 L14.55 -45.5 Q19.6 -46.3 38.05 -50.2 54.25 -52.6 55.25 -47.0 63.9 -47.2 66.6 -46.1 67.8 -45.65 67.8 -44.55 67.8 -43.75 60.75 -40.5 53.4 -37.1 50.5 -37.1 47.55 -37.1 46.75 -38.2 L46.55 -39.4 Q46.55 -40.2 46.85 -40.65 L47.75 -41.5 Q33.3 -41.65 28.6 -41.9 L25.0 -42.35 M-28.25 -44.75 L-21.6 -44.75 -28.25 -45.1 -28.25 -44.75 M-35.25 -45.0 L-37.1 -45.1 -37.25 -44.75 -36.5 -44.75 -35.25 -45.0" fill="#857a50" fill-opacity="0.3019608" fill-rule="evenodd" stroke="none"/>
    <path d="M22.05 15.8 Q22.05 16.65 16.7 18.8 10.3 21.4 4.5 20.3 2.1 19.85 -9.05 22.65 L-21.5 25.55 Q-24.55 25.55 -24.55 23.8 -24.55 22.8 -23.75 21.75 -26.4 21.55 -27.3 20.4 -27.75 19.85 -27.75 18.85 -27.75 17.2 -26.5 17.0 L-23.0 17.05 -4.65 16.2 6.5 15.3 Q12.4 15.3 12.45 16.2 L12.15 16.8 12.55 17.05 Q13.6 17.05 16.65 16.0 19.65 14.95 21.8 15.05 L21.95 14.95 22.05 15.8" fill="#857a50" fill-opacity="0.3019608" fill-rule="evenodd" stroke="none"/>
    <path d="M33.75 -5.0 Q30.6 -5.0 29.75 -6.35 L29.5 -7.85 Q29.5 -9.3 30.3 -9.7 L34.25 -10.25 Q35.6 -10.25 37.0 -11.6 38.4 -13.0 40.75 -13.0 L43.0 -12.55 44.5 -12.0 45.05 -12.1 Q44.05 -14.2 44.05 -15.65 44.05 -19.5 48.75 -17.6 56.25 -14.6 58.0 -14.6 L59.05 -14.45 59.75 -14.0 59.9 -12.65 59.75 -11.1 59.55 -11.0 63.6 -10.6 64.25 -9.9 Q61.6 -9.35 60.45 -7.9 54.2 -7.55 52.05 -6.75 50.05 -6.0 46.25 -6.0 42.7 -6.0 42.55 -6.8 42.45 -7.6 40.75 -7.6 L39.2 -6.3 Q37.3 -5.0 33.75 -5.0" fill="#857a50" fill-opacity="0.3019608" fill-rule="evenodd" stroke="none"/>
    <path d="M64.75 19.5 Q64.75 21.7 60.05 25.75 54.25 30.75 47.25 30.75 L44.9 30.25 42.5 29.75 Q41.95 29.75 40.75 30.65 39.55 31.5 37.5 31.5 34.1 31.5 31.0 28.55 28.55 26.15 28.55 25.4 28.55 23.95 31.6 21.0 35.1 17.55 38.5 17.55 40.7 17.55 40.95 18.75 41.25 19.95 42.5 20.05 48.3 20.45 49.7 21.3 50.3 21.65 50.3 23.0 L50.2 24.25 Q49.9 25.25 48.55 26.0 L48.3 26.25 Q50.15 25.95 53.35 23.5 L58.7 19.1 Q61.65 16.75 63.0 16.6 64.75 16.35 64.75 19.5" fill="#857a50" fill-opacity="0.3019608" fill-rule="evenodd" stroke="none"/>
    <path d="M42.5 39.35 Q42.5 41.05 38.75 43.3 34.65 45.75 30.5 45.75 L26.4 45.15 22.3 44.5 21.7 45.15 Q20.95 45.8 20.0 45.8 18.65 45.8 18.0 44.65 L17.3 43.05 Q12.85 43.65 11.3 42.6 10.55 42.1 10.55 41.0 10.55 37.1 21.25 34.5 24.35 33.75 24.75 36.35 24.95 37.75 24.75 40.0 L28.8 40.7 31.0 41.25 Q33.1 41.25 36.65 39.4 40.2 37.5 40.5 37.5 41.45 37.5 42.05 38.35 L42.5 39.35" fill="#857a50" fill-opacity="0.3019608" fill-rule="evenodd" stroke="none"/>
    <path d="M60.0 42.0 Q60.0 45.1 49.25 43.55 48.55 44.05 48.55 46.35 48.55 49.05 51.65 50.75 54.75 52.4 54.75 53.5 54.75 54.75 51.5 57.75 47.65 61.25 44.0 61.25 41.85 61.25 41.35 60.15 L41.25 58.85 Q41.25 58.25 41.9 57.45 42.5 56.7 42.5 56.05 L41.65 53.65 Q40.75 51.8 40.75 51.35 40.75 50.4 41.1 50.0 41.85 49.0 44.25 49.05 44.5 44.05 47.05 40.35 49.25 37.05 52.4 35.9 55.5 34.8 57.65 36.3 60.0 37.95 60.0 42.0" fill="#857a50" fill-opacity="0.3019608" fill-rule="evenodd" stroke="none"/>
    <path d="M25.5 -32.85 L39.35 -31.75 Q39.9 -31.75 41.1 -32.6 42.45 -33.55 43.0 -33.75 L50.2 -33.5 Q52.05 -32.35 52.55 -32.35 53.2 -32.35 54.3 -32.95 L56.0 -33.6 Q57.5 -33.6 58.05 -32.15 L58.3 -30.55 Q58.3 -29.5 56.25 -27.75 54.25 -26.0 53.25 -26.0 51.35 -26.0 50.5 -27.5 49.6 -29.0 48.05 -29.0 43.55 -29.0 43.05 -27.75 43.35 -26.15 43.05 -25.5 L42.55 -24.65 Q41.75 -23.9 40.0 -24.1 L34.4 -23.95 Q30.15 -23.85 29.6 -24.4 22.05 -26.45 19.1 -26.3 L15.05 -26.6 Q16.4 -28.65 18.25 -30.15 21.55 -32.85 25.5 -32.85" fill="#857a50" fill-opacity="0.3019608" fill-rule="evenodd" stroke="none"/>
    <path d="M9.3 -16.0 L-4.6 -16.0 -4.5 -13.4 Q-4.5 -9.35 -4.9 -2.9 L-5.75 7.3 0.95 7.15 8.8 7.0 Q8.8 -3.35 9.3 -8.6 L9.3 -16.0 M13.55 -16.25 Q15.05 -14.05 15.45 -9.75 L15.55 -2.55 15.55 5.8 Q15.55 9.35 8.6 10.65 L-8.0 11.55 -9.75 11.3 -11.5 11.0 Q-26.75 11.0 -29.7 4.2 -31.0 1.35 -31.05 -4.25 L-30.85 -16.0 Q-30.85 -18.8 -7.8 -19.75 15.25 -20.65 15.25 -18.0 14.75 -16.65 13.55 -16.25 M-8.35 -16.0 L-21.4 -15.0 -27.25 -13.85 -27.25 0.75 -25.45 4.7 -24.25 7.0 -14.15 6.6 Q-11.45 6.05 -10.8 4.0 -10.6 3.15 -10.25 -2.85 -9.85 -9.45 -8.35 -16.0" fill="#336633" fill-opacity="0.3019608" fill-rule="evenodd" stroke="none"/>
    <path d="M17.5 -18.65 L17.75 -17.4 15.45 -6.5 13.0 3.75 Q9.0 3.75 8.8 -3.5 8.75 -5.35 9.75 -15.25 L1.05 -15.1 1.35 -14.9 1.5 -14.0 Q1.5 -13.45 0.3 -13.3 L-6.25 -12.35 -6.35 1.15 Q-6.9 9.75 -9.5 9.75 -11.35 9.75 -11.75 5.3 -11.95 3.1 -11.75 0.85 L-11.45 -4.4 Q-11.1 -8.1 -10.75 -9.25 L-10.75 -13.75 -24.5 -14.0 -23.85 -6.8 -23.6 -1.55 Q-23.35 1.55 -23.6 4.05 -24.1 9.0 -26.5 9.0 -27.35 9.0 -29.85 -17.1 -29.85 -22.25 -29.45 -23.15 -29.1 -24.0 -27.45 -22.85 -20.75 -18.1 -13.85 -18.1 L-7.2 -18.9 14.25 -19.75 Q16.75 -19.75 17.5 -18.65" fill="#336633" fill-opacity="0.3019608" fill-rule="evenodd" stroke="none"/>
    <path d="M17.0 -47.5 Q0.5 -47.5 -11.25 -46.75 L-21.75 -46.0 -25.15 -46.35 -27.85 -46.85 -54.5 -47.25 -68.5 -48.0 Q-70.35 -48.9 -70.9 -49.35 -71.5 -49.85 -71.5 -50.6 L-71.25 -52.95 -67.0 -52.5 Q-51.8 -50.1 -25.5 -50.1 L-20.3 -50.55 -15.5 -51.0 -4.55 -51.3 -1.0 -51.5 Q46.15 -51.5 58.6 -50.75 68.75 -50.15 70.0 -47.75 L69.3 -46.85 Q68.85 -46.5 68.0 -46.5 62.5 -47.1 40.0 -47.1 L17.0 -47.5" fill="#336633" fill-opacity="0.3019608" fill-rule="evenodd" stroke="none"/>
    <path d="M54.5 -45.6 L-36.6 -46.85 -36.7 -46.65 -36.85 -47.4 -22.15 -48.85 10.25 -51.05 Q57.3 -53.4 57.3 -48.05 57.3 -45.6 54.5 -45.6" fill="#336633" fill-opacity="0.3019608" fill-rule="evenodd" stroke="none"/>
    <path d="M45.5 -51.1 L61.7 -51.1 61.65 -52.15 61.75 -55.05 61.9 -55.05 62.15 -52.15 62.15 -51.1 75.4 -51.1 76.9 -51.1 76.9 -52.2 77.55 -58.6 77.75 -63.4 77.75 -63.5 Q77.1 -62.9 76.3 -62.75 75.15 -62.5 71.15 -62.65 50.15 -63.45 35.65 -63.45 L-68.35 -63.8 -78.85 -64.3 -68.35 -64.7 20.65 -64.95 78.15 -64.7 78.3 -64.2 78.25 -64.1 Q78.8 -63.45 78.9 -62.05 L78.65 -59.1 78.3 -51.4 78.25 -50.35 78.15 -50.15 78.0 -49.95 75.2 -49.95 75.25 -49.45 Q75.25 -48.55 73.8 -47.45 72.45 -46.35 70.9 -46.2 L71.1 -45.7 71.1 -45.4 71.8 -43.6 Q72.15 -42.05 72.15 -38.85 L72.45 -35.65 Q72.35 -33.15 71.25 -32.35 L70.3 -31.35 Q69.1 -30.2 68.25 -30.2 L68.15 -30.2 Q68.55 -29.6 68.6 -28.4 L68.5 -26.4 68.3 -25.55 Q68.3 -25.05 66.7 -24.2 68.2 -23.95 69.0 -21.7 69.65 -19.85 69.65 -17.4 69.65 -16.65 68.85 -13.45 L68.5 -12.05 68.65 -11.45 Q68.65 -10.35 67.95 -9.45 L67.4 -8.95 Q66.5 -8.3 65.1 -8.2 67.0 -8.1 67.0 -5.5 L67.0 -2.2 Q66.9 -0.25 66.15 1.05 65.75 0.75 65.75 -1.4 L66.25 -5.45 Q66.25 -7.25 64.5 -8.2 L61.8 -8.55 61.05 -9.2 61.15 -9.45 Q66.75 -8.95 67.45 -10.2 67.4 -11.2 67.7 -11.75 L67.65 -12.3 Q67.65 -13.75 68.15 -15.15 68.65 -16.55 68.65 -19.15 68.65 -20.3 67.75 -21.95 66.9 -23.5 65.8 -23.85 64.9 -23.2 62.4 -23.2 L54.25 -23.45 55.65 -24.35 Q56.8 -25.1 58.5 -25.1 L61.2 -24.65 63.9 -24.2 Q64.3 -24.2 64.95 -24.75 65.55 -25.3 66.0 -25.3 L66.2 -25.2 66.25 -24.85 Q67.2 -25.45 67.4 -26.2 L67.45 -26.4 67.5 -27.9 Q67.55 -29.6 67.0 -30.4 L66.7 -30.5 Q66.0 -30.35 65.1 -30.5 L62.9 -31.3 Q61.8 -31.3 60.05 -30.25 58.35 -29.2 56.9 -29.2 L54.75 -29.35 53.05 -29.7 53.05 -29.95 Q57.25 -30.3 59.95 -31.1 L67.6 -31.7 68.95 -32.65 70.65 -33.65 71.15 -41.7 Q71.15 -43.3 70.75 -44.3 L70.35 -45.05 62.3 -45.6 Q62.15 -45.6 62.15 -46.0 L55.25 -45.95 48.4 -46.0 48.65 -45.8 48.5 -45.25 47.75 -45.2 45.35 -46.0 11.55 -46.15 11.05 -46.05 8.5 -46.05 8.35 -46.2 3.75 -46.2 4.95 -45.2 4.6 -44.95 3.3 -46.2 -6.8 -46.25 -7.3 -46.3 -13.25 -46.55 Q-13.7 -46.9 -14.4 -47.1 33.4 -47.3 43.9 -47.45 L69.9 -47.35 70.05 -47.3 Q72.3 -47.7 73.1 -48.25 L74.65 -49.95 20.15 -49.85 13.85 -49.85 13.9 -49.45 13.4 -49.85 -74.0 -49.95 Q-74.2 -49.9 -74.2 -50.55 L-74.1 -50.95 Q-67.2 -51.8 -45.1 -51.65 L-45.2 -52.35 -45.1 -53.85 -44.85 -53.85 Q-44.6 -53.2 -44.6 -52.4 L-44.6 -51.65 -43.55 -51.6 -43.6 -52.85 -43.5 -56.55 -43.35 -56.55 -43.1 -52.8 -43.15 -51.6 -40.4 -51.6 13.15 -51.1 13.15 -51.2 13.25 -55.05 13.4 -55.05 13.75 -51.1 20.15 -51.1 44.85 -51.1 44.8 -51.4 45.05 -54.45 45.5 -54.45 45.65 -53.65 45.5 -51.1 M64.25 -56.7 L64.4 -54.9 64.3 -51.95 64.15 -51.85 Q63.9 -52.7 63.9 -54.8 L63.9 -56.7 64.25 -56.7 M66.9 -53.55 L66.65 -52.45 66.5 -52.45 66.4 -53.45 66.4 -53.95 66.85 -53.95 66.9 -53.55 M18.3 -51.85 L18.0 -51.8 17.8 -52.55 17.8 -54.45 18.25 -54.45 18.4 -53.55 18.3 -51.85 M16.4 -51.2 Q15.9 -51.5 15.65 -52.5 L15.05 -54.3 15.05 -55.95 15.5 -55.95 16.5 -51.3 16.4 -51.2 M37.0 -55.95 L37.15 -55.8 37.15 -55.35 37.0 -54.45 36.75 -54.35 36.65 -55.95 37.0 -55.95 M31.65 -56.2 L31.75 -56.3 31.9 -56.3 32.4 -54.8 32.9 -53.3 Q32.25 -53.7 31.9 -54.75 L31.65 -55.8 31.65 -56.2 M33.8 -57.85 L34.25 -58.2 34.45 -55.6 34.75 -52.8 34.65 -52.7 Q33.75 -53.5 33.8 -55.15 33.8 -56.9 33.4 -57.45 L33.8 -57.85 M26.75 -31.7 L24.9 -31.5 24.4 -31.45 24.35 -31.5 21.0 -31.45 6.65 -32.3 Q5.5 -32.6 5.15 -33.3 L3.5 -32.2 Q1.7 -31.45 -0.6 -31.45 -3.25 -31.45 -4.5 -32.05 -5.7 -32.65 -7.0 -32.6 L-1.8 -33.1 5.0 -34.05 5.0 -34.1 Q5.0 -34.8 5.5 -34.95 6.2 -32.9 11.0 -32.55 L24.8 -31.8 Q27.8 -33.2 28.4 -33.7 L28.7 -33.55 28.8 -33.0 Q28.8 -32.35 27.8 -32.05 L26.2 -31.7 26.75 -31.7 M17.15 -29.3 Q16.55 -29.45 16.15 -30.0 L14.65 -31.3 Q15.8 -31.45 16.7 -30.7 L17.55 -29.8 17.15 -29.3 M15.9 -22.7 L-33.85 -22.7 -34.0 -23.3 Q-27.0 -23.7 12.15 -23.8 L15.9 -23.8 16.65 -23.7 16.9 -23.2 Q16.55 -22.8 15.9 -22.7 M18.9 -18.7 L18.4 -18.35 15.05 -18.35 14.9 -13.5 Q15.1 -10.55 17.75 -9.2 17.05 -9.95 17.05 -10.2 17.05 -10.65 17.55 -10.8 L18.4 -10.8 18.55 -10.05 17.9 -9.05 17.75 -9.2 15.75 -8.7 Q16.2 -7.35 16.15 -5.3 L16.15 -2.65 17.3 -2.35 Q18.6 -1.65 21.75 -0.45 20.25 0.05 18.9 0.05 17.35 0.05 16.55 -0.6 13.1 0.35 13.25 2.5 L13.75 4.7 Q14.0 6.05 13.55 6.95 L13.45 7.1 13.75 8.25 14.15 10.05 14.15 11.05 23.4 11.05 23.5 11.15 23.55 11.55 23.55 11.9 23.65 13.5 Q23.65 14.8 21.25 15.8 19.2 16.65 17.4 16.65 L15.85 16.5 3.0 16.65 2.35 16.65 4.85 17.0 -5.1 16.65 -13.2 17.35 -19.0 16.9 -6.1 16.6 -30.6 16.3 -31.5 15.9 Q-26.8 15.6 -9.85 15.4 8.45 15.4 14.0 15.55 L12.25 15.15 14.25 14.95 Q14.6 14.95 14.85 15.2 L15.45 15.45 Q19.55 15.45 21.4 14.4 22.65 13.7 22.65 12.8 22.65 12.45 22.45 12.45 L22.15 12.4 22.8 11.95 -7.6 12.05 -35.85 11.8 -36.4 11.8 -35.85 11.95 Q-35.9 12.35 -36.3 12.8 L-36.7 13.35 Q-36.7 14.25 -35.45 14.65 -33.9 15.15 -33.35 15.95 L-33.35 16.05 -35.6 15.8 Q-36.25 15.8 -36.95 14.9 L-37.6 13.95 Q-37.6 12.45 -36.65 11.75 L-37.1 11.45 -31.25 11.15 -31.45 10.9 -31.5 10.35 Q-31.5 9.1 -30.85 7.75 -30.25 6.45 -29.35 5.55 L-28.75 5.8 -29.15 7.95 Q-29.25 9.6 -30.25 10.3 L-28.75 10.8 -29.8 11.1 -21.6 11.05 13.4 11.05 Q12.65 9.7 12.65 8.95 L12.55 7.85 Q12.55 7.15 12.95 6.85 12.65 6.25 12.65 5.1 12.65 2.2 13.15 0.8 13.95 -1.55 15.95 -1.65 L15.85 -1.95 Q15.15 -2.75 15.15 -4.95 15.15 -7.8 15.55 -8.7 14.3 -8.75 14.3 -10.15 L14.55 -18.35 -0.5 -18.3 -17.75 -18.45 -30.3 -18.5 -29.6 -16.3 Q-29.45 -15.55 -29.45 -13.95 L-29.95 -11.9 -29.65 -10.8 -29.35 -9.55 -29.4 -8.0 Q-29.55 -7.25 -30.05 -7.0 L-30.5 -6.45 Q-30.95 -6.0 -31.6 -5.7 -29.5 -6.0 -28.85 -3.5 -28.6 -2.55 -28.6 0.9 L-28.6 3.3 Q-28.65 4.55 -29.0 5.55 -29.7 4.5 -29.55 -0.25 -29.4 -3.9 -32.8 -5.3 L-34.6 -5.05 Q-33.9 -5.35 -32.1 -6.95 L-31.4 -8.2 -30.75 -8.65 -30.85 -9.6 -30.85 -11.55 -30.6 -12.85 -30.35 -14.2 -30.65 -16.35 -31.0 -18.4 -31.0 -18.5 -35.35 -18.45 Q-35.45 -18.15 -35.45 -18.8 -35.85 -19.2 -35.5 -19.25 L-35.85 -19.6 -36.0 -20.4 Q-36.0 -21.7 -35.6 -22.1 L-35.0 -21.95 -35.05 -21.3 -35.25 -20.45 -35.05 -19.85 -34.6 -19.3 -31.05 -19.35 Q-12.7 -19.2 15.1 -19.2 L15.05 -19.55 Q15.05 -19.95 15.9 -20.05 L19.75 -20.85 18.7 -22.3 Q17.9 -23.1 17.65 -23.45 18.15 -23.4 19.5 -22.25 20.9 -21.1 20.9 -20.65 20.9 -19.85 20.45 -19.5 19.9 -19.1 18.7 -18.85 L18.9 -18.7 M10.9 -15.2 Q10.55 -15.2 9.8 -14.65 L10.15 6.5 10.05 7.3 10.65 7.3 10.75 7.4 10.8 7.8 Q10.8 8.45 10.65 8.2 L-5.9 8.2 -7.25 8.05 -7.25 7.3 -7.0 7.8 -7.25 6.6 -7.3 2.1 -7.05 -7.05 -6.85 -15.35 -6.3 -16.05 7.85 -16.05 8.9 -16.7 9.3 -16.2 9.3 -16.45 9.75 -16.45 9.8 -16.05 10.75 -16.05 9.8 -15.9 9.8 -14.85 11.15 -15.6 11.25 -15.15 10.9 -15.2 M9.3 -16.2 L9.1 -16.05 9.3 -16.05 9.3 -16.2 M8.9 -15.85 L4.7 -12.1 Q1.55 -9.25 -0.5 -8.05 L-0.6 -8.2 4.05 -12.85 Q5.8 -14.65 7.45 -15.75 L-2.25 -15.35 -6.85 -15.35 Q-6.25 -11.0 -6.25 -3.95 L-6.25 2.05 -4.15 -0.1 -1.1 -3.1 -1.0 -3.15 -0.95 -2.75 -3.6 0.05 -6.25 2.55 -6.25 4.55 -2.9 1.4 Q1.95 -2.85 3.65 -3.05 L3.75 -2.95 Q-1.4 0.7 -6.25 5.65 L-6.25 7.3 9.35 7.3 9.2 7.15 9.15 6.55 9.3 -14.25 7.1 -12.15 3.15 -8.2 3.0 -8.2 6.6 -12.25 9.3 -14.5 9.3 -15.9 8.9 -15.85 M19.65 -9.2 L26.5 -8.5 Q28.0 -8.15 31.55 -8.45 L32.45 -8.7 37.75 -9.2 33.2 -8.55 33.25 -8.45 32.55 -7.65 26.4 -7.45 20.65 -7.95 Q19.55 -8.25 19.55 -8.55 L19.65 -9.2 M23.4 -0.6 L24.4 -1.55 24.8 -0.8 Q24.7 -0.3 23.9 -0.3 L23.4 -0.6 M23.9 -7.2 L26.0 -7.4 24.0 -7.05 23.9 -7.2 M62.05 -35.45 L62.5 -35.45 62.65 -34.65 62.5 -33.2 62.25 -33.2 62.05 -33.95 62.05 -35.45 M59.45 -44.85 L59.5 -44.85 59.55 -44.5 Q59.55 -44.1 57.5 -43.7 L57.0 -43.8 56.85 -43.9 56.8 -44.25 57.45 -44.8 59.45 -44.85 M59.25 -37.55 L59.45 -35.75 Q59.55 -34.6 59.75 -33.95 58.75 -34.5 58.75 -36.2 L58.8 -37.55 59.25 -37.55 M46.05 -32.2 Q46.5 -33.3 48.5 -32.4 51.8 -30.95 53.55 -30.7 L54.0 -30.45 52.4 -30.15 50.65 -29.95 Q49.65 -29.95 47.75 -31.05 L46.05 -32.2 M57.4 -33.45 L57.4 -35.6 57.65 -35.6 57.9 -33.55 57.8 -32.45 57.65 -32.3 Q57.4 -32.6 57.4 -33.45 M60.15 -12.8 L60.95 -11.6 61.4 -10.8 61.4 -10.2 61.25 -10.05 60.45 -11.2 59.9 -12.2 60.0 -12.8 60.15 -12.8 M49.8 -15.2 L49.5 -14.55 49.15 -13.8 Q49.15 -11.5 50.3 -10.6 52.5 -8.8 59.75 -8.45 L53.5 -7.8 Q50.35 -7.8 49.1 -9.25 L48.4 -10.75 Q48.4 -11.5 48.95 -13.6 L49.5 -16.55 49.65 -16.55 49.8 -15.2 M46.25 -8.25 L48.15 -8.3 48.5 -8.2 Q48.15 -7.85 47.4 -7.85 L45.45 -8.1 43.75 -8.45 44.05 -8.55 46.25 -8.25 M59.25 -10.75 L59.0 -9.2 58.75 -9.2 58.65 -10.6 Q58.45 -11.35 57.75 -11.95 L58.95 -11.9 59.25 -10.75 M53.9 -1.7 L53.75 -1.7 Q53.4 -2.4 53.4 -3.0 53.4 -4.05 53.9 -5.15 54.75 -6.9 56.4 -6.1 L56.5 -5.95 Q54.95 -5.35 54.65 -3.95 L53.9 -1.7 M66.2 -24.4 L66.15 -24.25 66.6 -24.2 66.2 -24.4 M64.2 -12.45 L64.65 -12.2 63.4 -10.35 63.25 -10.35 63.1 -10.55 63.05 -11.05 Q63.05 -11.45 63.35 -11.85 L63.9 -12.55 64.2 -12.45 M66.5 1.8 L65.25 4.05 Q63.95 5.95 63.4 5.95 65.45 6.4 66.15 7.7 66.65 8.55 66.65 10.6 66.65 11.25 66.3 11.55 L65.0 12.95 Q64.45 12.95 64.4 12.45 L64.4 12.85 64.3 12.95 62.9 13.05 Q64.2 13.9 64.8 17.1 L64.5 20.05 64.25 20.05 63.5 17.0 Q62.75 14.55 62.75 13.7 L62.55 13.25 62.25 13.15 62.25 13.1 60.4 13.4 57.65 13.8 56.65 13.75 56.5 14.05 56.15 14.05 56.1 13.7 55.15 13.5 54.4 15.8 54.25 15.8 54.0 14.35 Q54.0 13.95 54.3 13.3 L54.35 13.25 52.9 12.65 52.9 13.1 Q52.9 14.0 52.3 15.3 L51.9 15.2 52.35 12.35 52.15 12.2 48.4 12.7 45.25 13.05 48.45 11.85 Q50.0 11.4 52.4 11.8 L52.4 11.55 52.75 11.55 52.85 11.85 53.15 11.9 53.25 12.05 52.85 12.1 52.9 12.3 54.85 12.55 55.0 12.45 55.2 12.55 55.25 12.6 55.95 12.7 61.7 11.95 64.3 12.05 64.35 12.05 64.4 12.3 65.05 10.9 65.65 9.5 Q65.65 8.95 64.2 7.5 L62.3 5.8 61.65 5.45 Q63.8 4.25 64.75 2.85 65.6 1.55 66.25 1.3 L66.45 1.4 66.5 1.8 M63.9 18.8 Q64.5 19.9 64.5 25.2 64.5 26.55 63.1 28.05 64.7 27.8 65.2 29.35 65.5 30.25 65.5 33.7 65.5 36.6 65.0 38.8 L64.9 38.8 Q64.85 39.75 64.25 40.45 64.25 42.5 66.05 43.55 67.8 44.6 67.8 47.65 L67.75 50.2 67.15 50.45 66.85 50.35 67.0 51.65 67.0 54.2 Q67.05 56.15 69.1 57.15 71.7 58.4 71.9 58.7 L71.7 59.2 71.4 59.55 Q72.9 61.2 72.9 62.45 L72.75 63.7 71.9 64.95 71.5 64.8 71.4 64.3 Q71.4 64.0 71.65 63.75 L71.9 63.15 Q71.9 61.8 70.8 60.4 L69.6 59.1 67.65 57.8 65.65 55.95 65.55 54.05 64.65 55.05 Q63.35 56.15 62.25 56.15 60.4 56.15 58.65 55.35 L58.05 55.1 57.9 55.25 57.65 55.4 53.0 55.4 52.9 55.2 Q55.1 54.1 57.9 54.3 L58.0 54.4 58.05 54.55 60.4 54.95 Q63.3 54.95 64.35 54.0 65.0 52.95 65.4 52.8 L65.5 52.85 65.5 52.2 Q65.5 49.85 66.4 49.25 L66.35 48.75 66.4 46.4 Q66.35 45.75 64.75 44.6 L63.6 43.5 62.9 43.8 60.55 43.25 59.15 42.75 59.05 43.05 55.9 43.35 52.4 44.55 Q52.05 44.95 52.05 44.3 52.05 43.15 54.8 42.55 L55.6 42.4 56.25 41.05 Q56.75 40.0 57.0 40.05 L57.15 40.1 57.15 40.5 56.6 41.75 56.25 42.3 58.8 42.15 Q59.65 41.7 61.3 42.15 62.5 42.5 63.3 43.0 L63.25 42.7 Q63.25 39.6 64.75 38.8 L64.55 33.6 Q64.4 30.7 62.45 28.65 60.75 30.1 58.65 30.8 L58.15 30.45 60.75 27.4 63.3 24.45 63.3 21.5 Q63.4 19.65 63.9 18.8 M57.0 6.05 Q55.9 6.05 54.65 5.15 L53.65 4.35 53.85 3.75 53.65 3.45 53.15 2.7 Q53.1 6.05 46.9 6.05 L44.85 5.9 43.25 5.65 Q50.4 5.55 51.7 4.05 51.85 2.55 52.85 2.1 L52.65 1.45 Q52.65 0.55 53.15 0.05 53.6 0.55 54.3 2.3 L54.85 3.55 55.25 3.65 58.8 5.3 Q58.3 6.05 57.0 6.05 M52.35 12.25 L52.35 12.2 52.2 12.2 52.35 12.25 M43.0 12.55 L41.5 13.0 39.75 13.15 Q38.4 13.15 38.05 12.8 L38.0 12.45 Q38.0 11.65 38.95 11.7 L42.9 12.4 43.0 12.55 M55.9 31.3 L48.15 32.15 45.1 31.9 44.0 31.05 44.9 31.15 49.7 30.45 Q54.15 30.0 55.9 30.95 L55.9 31.3 M42.0 30.55 L37.9 30.8 37.8 30.4 Q38.95 30.25 38.7 29.95 L43.05 30.3 43.75 30.55 43.5 30.55 42.0 30.55 M50.4 42.95 Q50.4 43.35 49.0 44.35 47.7 45.3 47.15 45.4 L46.9 45.3 48.45 43.55 49.9 42.05 Q50.4 42.35 50.4 42.95 M42.65 38.3 L42.15 39.05 41.65 39.7 42.5 39.8 41.7 39.95 Q41.8 40.6 42.7 42.1 43.75 43.85 44.4 44.3 L43.65 44.55 Q42.45 44.55 41.4 42.05 L41.3 41.65 Q40.95 43.05 39.75 44.05 37.6 45.8 33.15 45.8 32.2 45.8 31.45 44.95 L30.9 44.05 30.9 43.95 31.4 43.8 32.4 44.25 33.65 44.7 Q38.55 44.7 40.05 42.45 L40.8 39.95 40.65 39.45 40.75 38.4 Q41.05 38.0 42.4 37.9 L42.55 37.85 42.65 38.3 M49.8 45.4 Q52.4 40.55 53.15 40.15 53.5 40.95 52.15 42.75 L50.15 45.55 49.8 45.4 M37.9 10.95 Q37.9 11.65 35.9 13.2 33.75 14.85 32.15 14.8 32.05 15.1 32.05 14.45 32.05 14.0 33.25 12.85 34.85 11.35 37.5 10.05 37.9 10.45 37.9 10.95 M29.5 21.05 L29.25 21.05 Q29.0 20.05 27.4 19.5 24.65 18.5 17.5 18.15 24.2 17.3 27.4 18.35 29.65 19.05 29.65 20.3 L29.5 21.05 M31.35 29.0 L33.55 30.55 Q31.85 30.8 31.05 29.85 30.55 29.2 30.55 28.45 L30.75 27.05 Q31.0 26.05 31.5 25.8 L31.35 26.7 31.15 27.6 Q31.15 28.75 31.35 29.0 M28.05 57.4 L28.15 58.55 28.05 58.7 27.65 58.8 Q26.8 58.8 26.4 58.4 27.05 57.4 28.05 57.4 M24.25 57.4 L21.85 57.2 16.65 56.45 18.65 56.2 23.4 56.7 Q25.1 57.05 25.25 57.3 L24.25 57.4 M51.25 55.05 Q49.85 55.2 49.55 55.85 49.25 56.4 48.4 56.3 48.55 55.4 48.85 54.95 L51.15 54.9 51.25 55.05 M-29.35 -55.9 L-29.4 -54.6 Q-29.55 -53.85 -30.25 -53.8 -29.95 -54.95 -29.95 -57.45 L-29.5 -57.45 Q-29.35 -56.95 -29.35 -55.9 M-27.85 -55.05 Q-27.85 -56.25 -27.35 -56.7 -26.95 -56.2 -26.95 -55.05 L-27.1 -52.95 Q-27.1 -52.8 -27.6 -52.7 L-27.85 -55.05 M-10.35 -52.95 L-10.45 -51.35 -10.75 -51.3 -10.95 -52.95 -10.85 -55.1 -10.6 -55.1 Q-10.35 -54.35 -10.35 -52.95 M-12.85 -55.1 Q-12.6 -54.55 -12.6 -53.4 -12.6 -52.3 -12.75 -51.7 L-13.0 -51.7 -13.2 -53.4 -13.1 -55.1 -12.85 -55.1 M-41.35 -52.2 L-40.75 -51.95 -40.85 -51.8 Q-41.5 -51.85 -41.6 -52.05 -41.35 -52.1 -41.35 -52.2 M-44.45 -46.0 L-44.35 -46.35 -70.25 -46.45 Q-70.35 -46.15 -70.35 -46.8 L-23.45 -47.1 -27.4 -46.3 -38.05 -46.35 -36.65 -46.0 -38.35 -45.45 Q-39.3 -45.05 -39.65 -45.0 L-40.0 -45.1 -40.1 -45.5 -39.8 -46.15 -41.45 -46.0 -44.2 -46.05 -44.45 -46.0 M-43.35 -32.6 L-40.35 -34.7 -40.25 -34.65 Q-41.0 -35.8 -41.0 -36.85 L-40.95 -37.55 -40.5 -37.55 Q-38.85 -33.45 -33.55 -32.2 L-28.6 -31.7 Q-28.6 -31.3 -31.1 -31.2 L-34.1 -31.2 Q-37.25 -31.2 -39.35 -33.5 L-39.95 -34.2 Q-39.95 -33.85 -40.85 -33.05 -41.8 -32.2 -42.1 -32.2 -42.95 -32.2 -43.35 -32.6 M-44.85 -6.35 L-45.1 -6.45 Q-44.15 -7.45 -43.4 -7.5 -42.6 -7.55 -41.85 -6.55 L-41.85 -6.45 -43.3 -7.05 -44.85 -6.35 M-19.7 -27.45 L-19.9 -26.95 -20.0 -26.85 -20.25 -26.7 -20.35 -26.85 -21.15 -28.75 Q-21.75 -30.15 -22.6 -30.8 -21.0 -31.25 -20.2 -29.5 -19.7 -28.35 -19.7 -27.45 M-16.35 -30.8 L-19.55 -31.15 -26.25 -31.6 Q-20.6 -31.6 -20.6 -31.7 L-17.7 -31.4 Q-16.45 -31.3 -16.25 -30.95 L-16.35 -30.8 M-39.7 -44.5 Q-39.15 -44.8 -37.85 -44.15 L-39.15 -43.1 -39.4 -42.85 -39.65 -42.75 -40.1 -43.75 -40.0 -44.2 -39.7 -44.5 M-25.7 -14.55 L-25.7 7.0 -21.75 3.9 Q-18.35 1.25 -17.6 0.2 L-17.55 0.15 -17.5 0.6 Q-17.5 1.65 -25.7 7.45 L-25.7 7.5 -19.85 7.3 -9.75 7.3 Q-10.25 5.3 -10.25 2.2 L-10.1 -3.55 -10.0 -11.75 -13.6 -9.45 Q-13.95 -9.05 -13.95 -9.7 L-12.7 -11.0 -10.6 -12.35 -10.3 -12.3 -10.0 -12.2 -10.0 -14.95 Q-10.0 -15.35 -10.25 -15.4 L-12.55 -15.4 -17.45 -11.35 Q-20.7 -8.75 -23.25 -7.2 -20.9 -9.9 -13.3 -15.45 L-13.55 -15.45 Q-24.45 -15.55 -24.6 -15.7 L-25.25 -15.85 -25.8 -15.45 -25.7 -14.55 M-26.2 -16.05 L-25.9 -16.25 -25.1 -16.45 -24.6 -16.2 -9.95 -16.1 -9.45 -15.4 -9.9 -15.4 Q-9.1 -12.5 -9.1 3.25 L-9.1 7.3 -8.95 7.3 -8.75 8.2 -19.85 8.2 -25.7 8.05 -25.7 10.2 -26.1 10.45 -26.35 8.0 -26.5 8.0 -26.75 8.15 -26.85 7.95 -26.8 7.95 -27.2 7.8 -27.2 7.55 -26.35 7.55 -26.6 -2.2 -26.45 -15.55 -26.85 -15.7 Q-26.7 -15.75 -26.45 -15.9 L-26.45 -16.05 -26.2 -16.05 M-32.85 -8.8 Q-32.85 -8.05 -33.55 -7.25 L-35.1 -5.3 -35.2 -5.15 -35.0 -5.05 -35.6 -5.05 Q-38.8 -5.05 -39.9 -5.65 -40.6 -6.35 -41.25 -6.55 L-39.1 -6.35 -38.1 -6.25 -37.45 -7.2 -36.25 -8.3 -36.1 -8.35 -36.0 -7.95 Q-36.0 -7.75 -36.75 -6.8 L-37.35 -6.1 Q-36.25 -5.8 -35.3 -5.25 L-35.35 -5.55 Q-35.35 -6.6 -34.9 -7.05 L-33.35 -9.1 -33.1 -9.15 Q-32.85 -9.15 -32.85 -8.8 M-10.25 -14.45 Q-12.1 -13.9 -14.7 -11.6 -17.4 -9.25 -18.35 -8.95 -16.7 -10.95 -14.8 -12.55 -12.0 -14.9 -10.35 -14.6 L-10.25 -14.45 M-15.5 -3.45 Q-16.4 -2.9 -19.25 -0.35 -21.7 1.8 -23.5 2.55 L-16.35 -3.7 -15.5 -3.45 M-1.75 2.7 Q2.0 -0.9 6.15 -3.55 L-1.6 2.8 -1.75 2.7 M-7.5 7.0 L-7.65 6.6 -7.35 7.1 -7.3 8.05 -7.35 8.05 Q-7.35 7.55 -7.5 7.1 L-7.5 7.0 M-35.5 8.85 L-35.15 8.1 -34.25 7.45 -34.1 7.4 -34.0 7.8 -34.5 8.5 -35.1 9.3 -35.45 9.15 -35.5 8.85 M-39.5 9.05 L-38.05 8.85 -36.25 9.05 -38.0 9.3 -39.5 9.05 M-32.6 9.05 L-33.0 8.8 -31.85 7.2 -31.1 7.45 -32.6 9.05 M-31.35 39.8 Q-31.35 38.6 -30.85 38.05 -30.45 38.55 -30.45 39.8 L-30.75 42.55 -31.1 42.55 -31.35 39.8 M-28.5 40.8 L-28.75 40.8 -29.1 37.7 Q-29.1 37.05 -28.5 37.05 -28.25 37.65 -28.25 38.15 L-28.5 40.8 M-29.0 43.95 L-35.25 43.4 -23.25 42.45 -15.85 42.7 -23.65 43.35 -29.0 43.95 M-26.25 41.55 L-26.25 40.2 -26.1 40.2 -26.0 41.55 -26.25 41.55 M-12.85 43.05 L-13.45 43.0 -12.7 43.7 Q-12.0 44.7 -12.0 46.05 L-12.35 50.3 -12.85 50.3 Q-12.5 47.75 -12.6 46.6 -12.75 44.6 -16.6 43.9 L-16.85 43.15 -15.4 42.75 -16.25 42.55 -16.35 42.15 Q-14.35 41.45 -11.85 41.55 -9.2 41.6 -8.25 42.55 L-10.65 42.9 -12.85 43.05 M-46.5 8.75 Q-48.55 7.75 -54.1 8.3 L-54.6 7.95 -48.1 7.55 -44.65 8.5 -39.35 9.55 -40.6 9.8 -42.25 9.95 Q-44.05 9.95 -46.5 8.75" fill="#5b5546" fill-rule="evenodd" stroke="none"/>
  </g>
</svg>
