<?xml version="1.0" encoding="UTF-8" standalone="no"?>
<svg xmlns:xlink="http://www.w3.org/1999/xlink" height="157.2px" width="21.85px" xmlns="http://www.w3.org/2000/svg">
  <g transform="matrix(1.0, 0.0, 0.0, 1.0, 10.9, 90.8)">
    <path d="M5.6 -72.45 Q4.6 -69.0 4.6 -67.75 4.6 -56.95 6.75 -34.4 8.85 -11.9 8.85 -0.65 8.85 2.15 8.55 3.05 7.55 5.9 3.85 6.85 L5.4 9.4 Q6.85 11.7 6.85 12.85 6.85 14.3 5.7 16.4 L3.6 19.6 3.6 19.85 Q5.3 19.5 6.85 17.8 8.2 16.35 10.1 16.35 L10.95 16.4 Q9.1 20.05 9.1 28.1 L9.15 28.55 Q4.45 33.05 5.1 44.1 5.3 48.6 4.85 57.05 L4.4 65.95 -4.8 65.95 Q-5.35 64.65 -7.65 60.5 -10.65 55.1 -10.65 54.45 -10.65 49.85 -8.65 44.7 -6.65 39.55 -6.65 36.85 -6.65 33.3 -8.5 31.25 -10.4 29.2 -10.4 25.6 L-9.4 11.0 Q-9.4 9.75 -8.5 5.4 -7.65 1.0 -7.65 -0.25 -7.65 -1.5 -6.65 -2.7 -5.65 -3.9 -5.65 -5.15 -5.65 -15.25 -8.25 -35.5 -10.9 -55.75 -10.9 -65.9 -10.9 -78.7 -8.15 -85.2 -5.85 -90.75 -2.15 -90.8 1.2 -90.8 3.85 -86.7 6.6 -82.55 6.6 -77.15 6.6 -75.9 5.6 -72.45" fill="#5b5546" fill-opacity="0.3019608" fill-rule="evenodd" stroke="none"/>
    <path d="M2.8 -74.4 Q1.35 -72.9 -4.4 -72.9 L-5.5 -73.0 -6.65 -73.25 -6.8 -73.7 Q-7.0 -74.0 -7.0 -74.75 -7.0 -74.95 -3.85 -77.15 L-0.15 -79.5 -0.2 -80.0 -1.05 -80.25 Q-1.65 -80.25 -2.2 -79.75 -2.75 -79.25 -3.4 -79.25 L-6.65 -79.5 -6.8 -79.7 -7.0 -80.7 Q-7.0 -81.75 -5.4 -82.45 -3.75 -83.15 -1.8 -83.0 3.35 -82.55 3.35 -77.2 3.35 -74.95 2.8 -74.4" fill="#5b5546" fill-opacity="0.3019608" fill-rule="evenodd" stroke="none"/>
    <path d="M4.8 -31.6 L-0.4 -29.9 Q1.9 -29.0 3.95 -27.2 6.15 -25.2 6.15 -23.75 6.15 -22.4 5.1 -21.15 3.7 -19.5 1.35 -19.5 -2.1 -19.5 -2.5 -21.05 -2.7 -21.85 -2.25 -22.75 L-3.85 -25.55 Q-5.5 -28.25 -5.5 -29.15 L-5.4 -30.45 Q-5.1 -31.5 -4.0 -31.9 L-4.55 -32.3 Q-4.75 -32.55 -4.75 -33.4 -4.75 -34.85 0.7 -35.6 6.15 -36.3 6.15 -33.2 6.15 -31.95 4.8 -31.6" fill="#5b5546" fill-opacity="0.3019608" fill-rule="evenodd" stroke="none"/>
    <path d="M3.1 2.1 Q-1.4 -1.8 -6.8 -0.9 L-9.8 -0.25 Q-10.9 -0.1 -10.9 -1.0 -10.9 -2.7 -2.5 -2.95 5.85 -3.25 5.85 -1.15 5.85 -0.45 4.85 0.55 L3.1 2.1" fill="#5b5546" fill-opacity="0.3019608" fill-rule="evenodd" stroke="none"/>
    <path d="M5.4 21.1 Q4.45 23.1 3.1 23.1 0.6 23.1 0.6 20.55 0.65 19.05 1.4 17.25 -1.45 16.85 -3.25 15.7 -4.9 14.65 -4.9 13.5 -4.9 12.85 -3.5 11.4 -2.0 9.9 -0.25 9.05 4.55 6.7 5.6 12.1 L6.0 15.5 6.15 18.3 Q6.15 19.5 5.4 21.1" fill="#5b5546" fill-opacity="0.3019608" fill-rule="evenodd" stroke="none"/>
    <path d="M4.95 41.05 Q5.35 41.4 5.35 42.2 5.35 43.3 3.65 45.85 2.0 48.35 1.35 48.35 L-5.85 48.15 Q-7.75 47.85 -7.75 46.45 -7.75 45.55 -2.15 43.2 L4.1 40.65 4.95 41.05" fill="#5b5546" fill-opacity="0.3019608" fill-rule="evenodd" stroke="none"/>
    <path d="M0.85 -82.15 Q0.85 -81.55 0.1 -81.05 -0.5 -80.65 -0.9 -80.65 -2.25 -80.65 -3.9 -85.75 -5.25 -85.15 -6.05 -83.6 -6.85 -82.1 -7.9 -81.75 -9.2 -83.0 -9.2 -84.1 L-8.9 -85.25 Q-8.9 -86.0 -9.7 -86.15 L-10.65 -86.4 Q-4.2 -90.2 -1.75 -90.7 1.65 -91.3 1.65 -87.2 L0.85 -82.15" fill="#669900" fill-opacity="0.3019608" fill-rule="evenodd" stroke="none"/>
    <path d="M4.6 -73.65 Q2.5 -70.0 0.95 -68.9 0.4 -68.5 0.4 -66.7 0.4 -65.75 -0.2 -65.5 L-2.9 -65.25 Q-6.45 -65.25 -7.75 -66.3 -8.4 -66.8 -8.4 -67.5 -8.4 -68.6 -7.5 -68.9 L-4.4 -69.9 -4.6 -70.3 -4.65 -71.4 Q-4.65 -72.95 -3.7 -73.15 L3.6 -74.65 4.6 -73.65" fill="#669900" fill-opacity="0.3019608" fill-rule="evenodd" stroke="none"/>
    <path d="M0.6 -39.15 L0.4 -38.75 -1.55 -38.8 -3.9 -38.9 Q-5.25 -38.9 -6.0 -38.15 L-6.4 -38.0 Q-4.75 -36.4 -4.75 -31.75 -4.75 -30.45 -5.7 -30.35 -7.45 -30.3 -8.75 -29.15 -9.15 -32.1 -9.15 -34.75 -9.15 -38.5 -4.25 -40.8 -2.3 -41.7 -0.9 -41.55 0.6 -41.35 0.6 -39.9 L0.6 -39.15" fill="#669900" fill-opacity="0.3019608" fill-rule="evenodd" stroke="none"/>
    <path d="M3.2 -43.35 Q3.4 -43.3 3.4 -42.5 3.4 -41.95 1.85 -40.25 0.15 -38.4 -0.9 -38.4 -1.8 -38.4 -1.95 -38.8 L-2.1 -39.55 Q-2.55 -40.6 -7.5 -40.15 L-7.7 -40.25 Q-7.9 -40.4 -7.9 -41.15 L-6.6 -41.05 Q-4.25 -40.4 -0.4 -41.75 L1.45 -42.7 2.6 -43.5 3.2 -43.35" fill="#669900" fill-opacity="0.3019608" fill-rule="evenodd" stroke="none"/>
    <path d="M4.6 2.5 L4.85 2.8 4.9 3.8 Q4.9 4.8 3.85 5.85 L2.6 6.75 Q1.65 6.75 -0.85 2.75 L-2.7 3.25 -6.0 3.35 -6.2 3.25 Q-6.4 3.1 -6.4 2.35 -6.4 1.3 -5.35 0.95 -3.35 0.3 -2.65 -0.15 L-3.6 -1.0 -3.9 -2.2 -3.9 -3.0 -3.75 -3.4 -3.25 -3.4 Q-1.95 -1.0 3.0 -0.75 7.4 -0.55 7.4 0.85 7.4 2.3 4.6 2.5" fill="#669900" fill-opacity="0.3019608" fill-rule="evenodd" stroke="none"/>
    <path d="M1.1 1.85 Q3.05 1.9 3.95 2.6 4.4 2.9 4.85 3.75 3.7 4.85 1.9 5.0 2.85 6.35 2.9 6.85 L2.4 7.65 Q2.05 8.25 1.6 8.25 -0.45 8.25 -0.9 5.95 -1.1 4.8 -0.9 3.35 -0.9 0.2 0.1 -0.65 1.1 0.15 1.1 1.85" fill="#669900" fill-opacity="0.3019608" fill-rule="evenodd" stroke="none"/>
    <path d="M5.9 34.75 Q5.9 35.45 5.25 35.8 4.4 36.3 2.1 36.4 L3.3 38.15 Q3.85 39.0 3.85 39.85 3.85 42.1 0.1 42.1 -1.15 42.1 -1.15 40.1 -3.45 40.1 -4.0 39.4 -4.15 39.95 -4.15 38.7 L-3.05 36.8 Q-2.0 35.05 -2.0 34.3 -2.0 33.2 1.95 32.95 5.9 32.65 5.9 34.75" fill="#669900" fill-opacity="0.3019608" fill-rule="evenodd" stroke="none"/>
    <path d="M-0.5 42.3 Q-1.1 43.0 -3.9 43.4 L-6.65 43.4 -6.8 43.2 -7.0 42.2 Q-7.0 41.35 -3.8 40.0 -0.35 38.55 1.85 39.4 0.3 40.95 -0.5 42.3" fill="#669900" fill-opacity="0.3019608" fill-rule="evenodd" stroke="none"/>
    <path d="M-1.9 59.9 Q-0.75 60.85 -0.75 62.6 L-1.0 65.4 -0.45 66.0 -6.35 66.4 Q-6.2 65.15 -5.35 64.3 -3.55 62.55 -2.75 61.15 L-4.6 59.2 Q-3.05 60.3 -1.9 59.9" fill="#669900" fill-opacity="0.3019608" fill-rule="evenodd" stroke="none"/>
    <path d="M1.15 -87.35 L0.95 -87.45 0.9 -87.95 Q0.9 -90.15 3.05 -90.1 5.1 -90.0 6.15 -88.2 L6.0 -87.95 5.05 -88.85 Q4.65 -89.3 3.75 -89.3 3.6 -89.3 2.6 -88.5 L1.15 -87.35 M0.85 -86.75 L1.3 -84.15 1.4 -83.7 1.35 -83.6 1.4 -80.9 1.35 -80.35 Q2.3 -78.35 3.2 -77.1 L3.95 -76.05 4.2 -76.1 Q5.75 -76.35 5.9 -77.3 L5.9 -81.8 5.85 -85.0 Q5.85 -87.1 6.4 -87.7 6.9 -82.45 6.9 -77.35 L6.8 -76.4 5.15 -75.2 3.95 -75.2 3.8 -74.95 7.05 -74.25 Q7.4 -74.05 7.4 -73.15 L7.25 -71.9 6.5 -71.2 6.65 -68.5 Q6.65 -66.1 2.9 -66.1 L1.2 -66.3 0.9 -66.5 -0.3 -66.45 Q-1.75 -66.45 -2.6 -67.25 -2.8 -66.7 -4.05 -66.05 -5.7 -65.2 -7.35 -65.2 L-7.5 -65.2 -7.75 -64.3 -8.0 -63.35 -7.85 -62.0 Q-7.5 -61.2 -6.35 -61.2 L-4.5 -61.2 Q-3.4 -61.85 -2.75 -61.6 L-2.6 -61.55 -2.1 -61.85 Q-1.0 -61.85 -0.75 -61.45 L-1.55 -61.3 0.0 -61.05 -0.2 -62.2 0.25 -62.2 Q0.35 -62.1 0.4 -62.15 L0.4 -61.75 0.25 -61.05 1.65 -60.95 1.6 -62.3 Q1.65 -63.15 2.4 -63.7 L3.0 -63.45 Q2.5 -63.2 2.25 -62.25 L2.0 -60.95 2.15 -60.95 Q6.65 -60.95 6.65 -64.2 L6.4 -64.65 Q6.15 -64.75 6.15 -65.05 6.15 -66.1 6.75 -66.3 L7.55 -64.3 7.65 -62.7 Q7.65 -61.75 5.65 -60.7 3.55 -59.6 1.0 -59.55 L1.5 -59.2 1.65 -57.95 Q1.65 -56.85 1.15 -55.7 L1.05 -55.45 Q2.0 -54.75 5.05 -54.9 L5.35 -57.4 5.65 -60.2 5.65 -60.45 Q7.0 -60.05 6.65 -57.6 L6.55 -55.65 Q6.4 -54.9 5.9 -54.45 5.9 -54.2 5.7 -54.1 L4.25 -53.95 Q1.75 -53.95 0.85 -54.95 L0.8 -55.05 Q0.2 -54.1 -0.85 -54.1 L-2.35 -54.2 -3.0 -54.45 -0.75 -56.5 Q0.55 -57.55 0.55 -57.9 L-0.05 -58.85 -0.65 -59.6 -2.3 -59.9 -4.2 -60.3 -4.85 -60.3 Q-6.8 -60.3 -7.75 -60.85 -8.35 -59.35 -8.35 -58.05 -8.35 -56.85 -7.75 -55.9 -6.9 -54.5 -5.0 -54.45 L-4.25 -54.2 -4.85 -54.0 -5.85 -53.85 Q-7.6 -53.85 -8.45 -55.95 -8.95 -57.2 -8.95 -58.2 L-8.85 -59.85 Q-8.6 -60.85 -7.85 -60.95 L-8.6 -61.7 -8.75 -63.35 -8.7 -64.65 -8.2 -65.4 -8.55 -65.75 -8.85 -66.4 -8.75 -66.9 Q-9.45 -67.65 -9.45 -69.7 -9.45 -71.55 -9.1 -72.45 L-8.5 -72.2 Q-8.9 -71.3 -8.9 -69.75 L-8.6 -67.4 -8.25 -68.45 -8.1 -68.55 -7.85 -67.35 Q-7.5 -66.8 -6.5 -66.8 -3.95 -66.8 -3.3 -68.5 L-3.5 -68.95 Q-3.5 -72.1 -2.35 -72.45 L-1.75 -72.2 -2.25 -71.5 -2.2 -70.7 -2.45 -68.5 -2.35 -68.35 Q-1.55 -67.2 0.35 -67.1 L4.95 -68.7 Q6.75 -69.5 6.45 -71.15 L5.5 -70.7 6.3 -73.0 Q6.3 -73.85 3.55 -74.0 L2.5 -73.35 Q1.3 -72.7 0.5 -72.7 L-1.55 -72.75 -2.25 -72.45 -1.9 -72.75 -5.2 -72.8 Q-5.35 -72.55 -5.35 -73.2 L-4.1 -73.3 -1.1 -73.65 -0.7 -74.15 Q0.4 -75.25 1.15 -74.95 L-0.05 -73.9 1.55 -74.35 2.25 -74.65 Q1.65 -75.1 1.25 -76.35 0.8 -77.7 0.8 -78.45 L0.55 -79.05 0.3 -79.5 -0.25 -79.95 0.35 -82.0 Q-1.1 -79.95 -2.0 -79.95 L-6.1 -80.15 -7.0 -79.95 Q-7.35 -79.95 -7.6 -80.2 -9.75 -79.4 -9.75 -76.05 -9.75 -75.25 -9.35 -74.95 L-5.85 -72.95 -6.85 -72.65 -8.25 -72.45 Q-9.95 -72.45 -10.45 -73.2 L-10.6 -74.05 Q-10.6 -76.75 -10.2 -78.0 -9.6 -80.05 -7.9 -80.55 L-8.35 -81.7 -8.5 -83.55 Q-8.5 -86.25 -8.15 -87.55 -7.25 -90.85 -4.6 -89.2 -5.3 -88.2 -5.85 -88.8 -6.4 -89.45 -7.25 -88.45 L-7.85 -87.7 -7.85 -85.95 -7.7 -83.2 Q-7.45 -81.85 -6.65 -81.45 L-6.1 -81.3 -5.85 -81.3 -5.65 -80.95 -0.85 -80.95 -0.95 -82.3 -0.8 -83.7 Q-0.5 -84.3 0.5 -84.25 L0.5 -87.65 0.85 -86.75 M3.15 -69.55 L3.15 -68.45 3.0 -68.45 3.0 -69.55 3.15 -69.55 M7.6 -51.7 Q7.65 -50.55 7.3 -49.35 7.3 -48.85 6.8 -48.25 6.25 -47.55 5.3 -47.35 L5.3 -47.2 5.3 -47.1 6.75 -47.2 7.15 -42.2 Q7.15 -41.8 6.05 -41.3 L6.4 -40.3 Q6.75 -39.0 6.75 -36.3 L6.6 -34.45 6.15 -33.3 Q7.85 -32.8 8.45 -30.75 8.85 -29.5 8.85 -26.8 L8.7 -25.95 Q8.2 -25.2 6.5 -25.2 L5.1 -25.4 4.1 -25.7 7.6 -27.7 Q8.0 -28.0 8.0 -28.8 8.0 -32.15 5.85 -32.95 5.6 -32.7 5.25 -32.7 L4.35 -32.9 0.25 -32.7 Q-0.65 -32.7 -2.1 -34.75 L-1.5 -32.7 -2.05 -32.25 -2.3 -31.8 -2.55 -31.2 Q-2.55 -30.45 -3.0 -29.1 -3.4 -27.85 -4.0 -27.4 -3.65 -27.2 -3.3 -27.1 L-1.7 -26.65 -2.9 -27.7 Q-2.15 -28.0 -1.05 -26.9 L-0.65 -26.4 2.35 -26.05 3.6 -25.95 Q3.6 -25.3 3.45 -25.55 L0.15 -25.5 0.5 -25.2 -0.2 -25.5 -2.25 -25.45 Q-3.05 -25.45 -4.25 -26.1 L-5.3 -26.75 Q-8.05 -26.6 -8.05 -25.75 L-7.25 -23.45 -8.2 -23.9 Q-8.5 -22.25 -6.7 -21.45 -3.8 -20.65 -2.1 -19.85 -0.2 -19.95 0.6 -21.1 L0.7 -21.25 0.45 -23.45 0.5 -23.95 0.5 -24.25 0.0 -24.95 0.6 -25.2 Q1.25 -25.0 1.55 -23.95 L1.75 -21.7 1.55 -21.25 Q2.2 -19.55 4.75 -19.55 5.75 -19.55 6.1 -20.1 L6.35 -21.3 6.5 -21.2 6.85 -20.15 7.15 -22.5 7.05 -23.95 6.75 -24.95 7.35 -25.2 7.65 -23.95 7.7 -22.45 Q7.7 -20.4 7.0 -19.65 L7.1 -19.15 6.8 -18.5 6.45 -18.15 6.95 -17.4 7.0 -16.1 6.85 -14.45 6.1 -13.7 Q6.85 -13.6 7.1 -12.6 L7.2 -10.95 Q7.2 -9.95 6.7 -8.7 L5.9 -7.35 Q6.75 -7.05 6.75 -6.4 L6.7 -5.6 6.9 -5.05 7.35 -2.85 6.9 -0.6 5.95 0.95 Q7.65 1.05 8.2 2.25 8.5 2.9 8.5 4.6 8.5 5.15 7.7 5.9 L6.15 6.8 6.0 7.05 5.8 6.9 5.55 6.95 5.6 7.0 6.2 7.65 6.4 7.3 6.45 7.95 7.1 8.6 6.85 9.1 6.55 8.85 Q6.9 13.3 6.9 17.65 L6.8 18.6 5.15 19.8 3.95 19.8 3.8 20.05 7.05 20.75 Q7.4 20.95 7.4 21.85 L7.25 23.1 6.5 23.8 6.65 26.5 Q6.65 28.9 2.9 28.9 L1.2 28.7 0.9 28.5 -0.3 28.55 Q-1.75 28.55 -2.6 27.75 -2.8 28.3 -4.05 28.95 -5.7 29.8 -7.35 29.8 L-7.5 29.8 -7.75 30.7 -8.0 31.65 -7.85 33.0 Q-7.5 33.8 -6.35 33.8 L-4.5 33.8 Q-3.4 33.15 -2.75 33.4 L-2.6 33.45 -2.1 33.15 Q-1.0 33.15 -0.75 33.55 L-1.55 33.7 0.0 33.95 -0.2 32.8 0.25 32.8 0.4 32.85 0.4 33.25 0.25 33.95 1.65 34.05 1.6 32.7 Q1.65 31.85 2.4 31.3 L3.0 31.55 Q2.5 31.8 2.25 32.75 L2.0 34.05 2.15 34.05 Q6.65 34.05 6.65 30.8 L6.4 30.35 Q6.15 30.25 6.15 29.95 6.15 28.9 6.75 28.7 L7.55 30.7 7.65 32.3 Q7.65 33.25 5.65 34.3 3.55 35.4 1.0 35.45 L1.5 35.8 1.65 37.05 Q1.65 38.15 1.15 39.3 L1.05 39.55 Q2.0 40.25 5.05 40.1 L5.35 37.6 5.65 34.8 5.65 34.55 Q7.0 34.95 6.65 37.4 L6.55 39.35 Q6.4 40.1 5.9 40.55 L5.7 40.9 4.25 41.05 Q1.75 41.05 0.85 40.05 L0.8 39.95 Q0.2 40.9 -0.85 40.9 L-2.35 40.8 Q-2.35 40.7 -3.0 40.55 L-0.75 38.5 0.55 37.1 -0.05 36.15 -0.65 35.4 -2.3 35.1 -4.2 34.7 -4.85 34.7 Q-6.8 34.7 -7.75 34.15 -8.35 35.65 -8.35 36.95 -8.35 38.15 -7.75 39.1 -6.9 40.5 -5.0 40.55 L-4.25 40.8 -4.85 41.0 -5.85 41.15 Q-7.6 41.15 -8.45 39.05 -8.95 37.8 -8.95 36.8 L-8.85 35.15 Q-8.6 34.15 -7.85 34.05 L-8.6 33.3 -8.75 31.65 -8.7 30.35 -8.2 29.6 -8.55 29.25 -8.85 28.6 -8.75 28.1 Q-9.45 27.35 -9.45 25.3 -9.45 23.45 -9.1 22.55 -8.75 22.55 -8.5 22.8 -8.9 23.7 -8.9 25.25 L-8.6 27.6 -8.25 26.55 -8.1 26.45 -7.85 27.65 Q-7.5 28.2 -6.5 28.2 -3.95 28.2 -3.3 26.5 L-3.5 26.05 Q-3.5 22.9 -2.35 22.55 L-1.75 22.8 -2.25 23.5 -2.2 24.3 -2.45 26.5 -2.35 26.65 Q-1.55 27.8 0.35 27.9 L4.95 26.3 Q6.75 25.5 6.45 23.85 L5.5 24.3 6.3 22.0 Q6.3 21.15 3.55 21.0 L2.5 21.65 Q1.3 22.3 0.5 22.3 L-1.55 22.25 -2.25 22.55 -1.9 22.25 -5.2 22.2 Q-5.35 22.45 -5.35 21.8 L-4.1 21.7 -1.1 21.35 -0.7 20.85 Q0.4 19.75 1.15 20.05 L-0.05 21.1 1.55 20.65 2.25 20.35 Q1.65 19.9 1.25 18.65 0.8 17.3 0.8 16.55 L0.55 15.95 0.3 15.5 -0.25 15.05 0.35 13.0 Q-1.1 15.05 -2.0 15.05 L-6.1 14.85 -7.0 15.05 -7.6 14.8 Q-9.75 15.6 -9.75 18.95 -9.75 19.75 -9.35 20.05 L-5.85 22.05 -6.85 22.35 -8.25 22.55 Q-9.95 22.55 -10.45 21.8 L-10.6 20.95 Q-10.6 18.25 -10.2 17.0 -9.6 14.95 -7.9 14.45 L-8.35 13.3 -8.5 11.45 Q-8.5 8.75 -8.15 7.45 L-7.55 6.05 -7.75 5.95 Q-8.9 5.45 -8.9 5.05 L-8.5 0.05 -7.05 0.15 -7.05 0.05 -7.05 -0.1 Q-8.0 -0.3 -8.55 -1.0 -9.05 -1.6 -9.05 -2.1 -9.4 -3.3 -9.35 -4.45 -9.3 -6.65 -7.4 -6.45 -7.65 -4.9 -7.3 -3.9 -6.9 -2.8 -5.15 -0.6 L-5.25 -0.5 Q-2.85 -0.8 -2.45 -0.5 L-1.9 -0.25 -1.9 -0.3 -1.8 -0.2 3.0 0.15 4.6 -0.05 4.3 -0.05 4.1 0.25 Q5.05 0.05 5.7 -0.8 6.45 -1.75 6.45 -2.8 6.45 -3.5 6.05 -4.4 L5.8 -5.2 4.9 -5.45 3.8 -6.6 3.1 -6.75 2.5 -6.95 3.25 -7.2 4.3 -7.35 4.65 -7.45 Q5.5 -7.8 6.0 -8.65 6.6 -9.6 6.6 -10.8 6.6 -12.1 6.0 -13.6 5.05 -13.05 3.1 -13.05 L2.45 -13.05 0.55 -12.65 -1.1 -12.35 -1.7 -11.6 -2.3 -10.65 Q-2.3 -10.3 -1.0 -9.25 L1.25 -7.2 0.6 -6.95 -0.9 -6.85 Q-1.95 -6.85 -2.55 -7.8 L-2.6 -7.7 Q-3.5 -6.7 -6.0 -6.7 L-7.45 -6.85 -7.65 -7.2 Q-8.15 -7.65 -8.3 -8.4 L-8.4 -10.35 Q-8.75 -12.8 -7.4 -13.2 L-7.4 -12.95 -7.1 -10.15 -6.8 -7.65 Q-3.75 -7.5 -2.8 -8.2 L-2.9 -8.45 Q-3.4 -9.6 -3.4 -10.7 L-3.25 -11.95 -2.75 -12.3 Q-5.3 -12.35 -7.4 -13.45 -9.4 -14.5 -9.4 -15.45 L-9.3 -17.05 -8.5 -19.05 Q-7.9 -18.85 -7.9 -17.8 L-8.15 -17.4 -8.4 -16.95 Q-8.4 -13.7 -3.9 -13.7 L-3.75 -13.7 -4.0 -15.0 Q-4.25 -15.95 -4.75 -16.2 L-4.15 -16.45 Q-3.4 -15.9 -3.35 -15.05 L-3.4 -13.7 -2.0 -13.8 -2.15 -14.5 -2.15 -14.9 -2.0 -14.95 -1.55 -14.95 -1.75 -13.8 -0.2 -14.05 -1.0 -14.2 Q-0.75 -14.6 0.35 -14.6 L0.85 -14.3 1.0 -14.35 Q1.65 -14.6 2.75 -13.95 L4.6 -13.95 Q5.75 -13.95 6.1 -14.75 L6.25 -16.1 6.0 -17.05 5.75 -17.95 5.6 -17.95 Q3.95 -17.95 2.3 -18.8 1.05 -19.45 0.85 -20.0 0.0 -19.2 -1.45 -19.2 L-2.65 -19.25 -2.95 -19.05 -4.65 -18.85 Q-8.4 -18.85 -8.4 -21.25 L-8.25 -23.95 -9.0 -24.65 -9.15 -25.9 Q-9.15 -26.8 -8.8 -27.0 L-5.55 -27.7 -5.7 -27.95 -6.9 -27.95 Q-8.25 -28.7 -8.55 -29.15 L-8.65 -30.1 Q-8.65 -35.2 -8.15 -40.45 -7.6 -39.85 -7.6 -37.75 L-7.65 -34.55 -7.65 -30.05 Q-7.5 -29.1 -5.95 -28.85 L-5.7 -28.8 -4.95 -29.85 Q-4.05 -31.1 -3.1 -33.1 L-3.15 -33.65 -3.1 -36.35 -3.15 -36.45 -3.05 -36.9 -2.6 -39.5 -2.25 -40.4 -2.25 -37.0 Q-1.25 -37.05 -0.95 -36.45 -0.8 -36.15 -0.8 -35.05 L-0.9 -33.7 3.9 -33.7 4.1 -34.05 4.35 -34.05 4.9 -34.2 Q5.7 -34.6 5.95 -35.95 L6.1 -38.7 6.1 -40.45 5.55 -41.1 3.0 -40.7 1.65 -40.85 0.65 -41.1 0.7 -41.2 -2.15 -40.6 -1.45 -41.55 -0.6 -42.45 -0.45 -42.35 -0.4 -42.35 -0.85 -42.75 Q-1.6 -43.45 -1.6 -43.8 -1.6 -45.35 -1.0 -46.35 L-1.75 -46.3 -5.15 -46.4 Q-5.35 -45.7 -6.1 -45.7 L-7.0 -45.85 -8.25 -44.5 -9.1 -43.35 Q-9.1 -42.85 -7.85 -42.55 L-6.7 -42.25 Q-5.9 -42.8 -4.8 -42.85 -2.65 -42.9 -2.65 -40.7 L-2.7 -40.2 -2.9 -40.1 -3.7 -40.75 Q-4.65 -40.2 -6.1 -40.2 -8.25 -40.2 -9.45 -41.35 -10.25 -42.1 -10.25 -42.65 -10.25 -44.35 -9.95 -45.0 -9.4 -46.2 -7.7 -46.3 L-8.65 -47.85 -9.1 -50.1 -8.65 -52.3 Q-8.15 -53.9 -7.75 -53.95 -7.45 -53.65 -7.45 -53.05 -7.45 -52.55 -7.8 -51.65 -8.2 -50.75 -8.2 -50.05 -8.2 -49.0 -7.45 -48.05 -6.8 -47.2 -5.85 -47.0 -5.85 -47.35 -6.05 -47.3 L-6.35 -47.3 -4.75 -47.1 0.05 -47.45 0.15 -47.55 0.15 -47.5 0.7 -47.75 Q1.1 -48.05 3.5 -47.75 L3.4 -47.85 Q5.15 -50.05 5.55 -51.15 5.9 -52.15 5.65 -53.7 7.55 -53.9 7.6 -51.7 M6.2 -46.25 Q6.0 -46.65 5.15 -46.95 L4.8 -46.85 1.15 -46.7 -0.25 -46.45 -0.35 -45.7 Q-0.35 -45.35 -0.6 -45.45 L-0.85 -45.2 Q-0.85 -44.2 -0.5 -43.85 L1.2 -42.8 1.8 -42.8 1.8 -43.05 2.45 -43.45 3.4 -43.7 3.8 -43.2 3.15 -42.65 3.6 -42.55 2.05 -41.7 3.0 -41.75 2.85 -41.95 Q4.25 -42.8 5.15 -42.3 L6.25 -43.3 6.3 -45.4 6.2 -46.25 M2.0 -48.7 Q1.95 -49.35 2.65 -49.8 L2.15 -48.7 2.0 -48.7 M0.05 -48.95 L-0.25 -48.95 Q0.65 -49.85 0.4 -49.2 L0.25 -49.15 0.05 -48.95 M1.55 -9.85 L1.6 -9.8 2.45 -9.1 Q3.1 -8.6 2.75 -7.95 L2.6 -7.95 1.8 -8.9 Q1.5 -9.2 1.5 -9.4 L1.55 -9.85 M0.7 -9.3 Q0.7 -9.75 0.85 -10.05 L1.0 -10.05 Q0.8 -9.55 1.35 -8.85 L2.0 -7.95 Q0.75 -8.1 0.7 -9.3 M1.5 -27.2 L0.6 -27.05 -0.5 -28.0 -1.05 -28.55 -0.9 -29.3 0.85 -27.8 Q0.85 -27.4 1.15 -27.3 L1.5 -27.2 M1.2 -36.3 L1.7 -35.05 Q1.7 -34.4 1.5 -34.2 0.65 -34.85 0.4 -35.65 0.25 -36.15 0.25 -37.45 L1.2 -36.3 M2.35 -37.6 L2.6 -37.55 2.5 -36.6 2.25 -36.7 Q2.15 -37.4 2.35 -37.6 M5.25 1.4 L4.35 1.55 Q3.6 1.55 3.4 0.85 L0.0 0.95 -0.75 0.9 Q-0.15 1.9 -0.15 3.45 -0.15 3.8 -0.9 4.5 L-1.85 5.15 -1.55 5.3 -1.15 4.8 -0.15 5.9 -0.4 6.1 0.4 7.15 -3.1 6.35 -3.4 6.4 -4.75 6.55 -6.95 6.25 -7.25 6.55 -7.85 7.3 -7.85 9.05 -7.7 11.8 Q-7.45 13.15 -6.65 13.55 L-6.1 13.7 -5.85 13.7 -5.65 14.05 -0.85 14.05 -0.95 12.7 -0.8 11.3 Q-0.5 10.7 0.5 10.75 L0.5 7.35 0.85 8.25 1.3 10.85 1.4 11.3 1.35 11.4 1.4 14.1 1.35 14.65 Q2.3 16.65 3.2 17.9 L3.95 18.95 4.2 18.9 Q5.75 18.65 5.9 17.7 L5.9 13.2 5.85 10.0 Q5.85 9.0 6.0 8.4 L4.6 7.05 4.35 7.05 2.35 6.7 1.15 7.65 0.95 7.55 0.9 7.05 Q0.9 4.85 3.05 4.9 L4.3 5.15 6.1 4.7 Q7.35 4.4 7.35 3.9 L6.5 2.75 5.25 1.4 M0.6 4.65 L0.85 4.7 0.75 5.65 0.5 5.55 Q0.4 4.85 0.6 4.65 M3.15 26.55 L3.0 26.55 3.0 25.45 3.15 25.45 3.15 26.55 M7.6 43.3 Q7.65 44.45 7.3 45.65 L6.8 46.75 Q6.25 47.45 5.3 47.65 L5.3 47.8 5.3 47.9 6.75 47.8 7.15 52.8 Q7.15 53.2 6.05 53.7 L6.4 54.7 Q6.75 56.0 6.75 58.7 L6.6 60.55 6.15 61.7 Q7.85 62.2 8.45 64.25 L8.7 65.5 8.0 65.4 Q7.75 62.75 5.85 62.05 L5.25 62.3 4.35 62.1 0.25 62.3 Q-0.65 62.3 -2.1 60.25 L-1.5 62.3 -2.05 62.75 -2.3 63.2 -2.55 63.8 Q-2.55 64.55 -3.0 65.9 L-3.0 66.0 -3.2 66.05 -5.6 66.3 Q-7.2 66.3 -7.95 65.8 -8.3 65.55 -8.6 65.45 L-8.65 64.9 Q-8.65 59.8 -8.15 54.55 -7.6 55.15 -7.6 57.25 L-7.65 60.45 -7.65 64.95 Q-7.5 65.9 -5.95 66.15 L-5.7 66.2 -4.95 65.15 Q-4.05 63.9 -3.1 61.9 L-3.15 61.35 -3.1 58.65 -3.15 58.55 -3.05 58.1 -2.6 55.5 -2.25 54.6 -2.25 58.0 Q-1.25 57.95 -0.95 58.55 -0.8 58.85 -0.8 59.95 L-0.9 61.3 3.9 61.3 4.1 60.95 4.35 60.95 4.9 60.8 Q5.7 60.4 5.95 59.05 L6.1 56.3 6.1 54.55 5.55 53.9 3.0 54.3 1.65 54.15 0.65 53.9 0.7 53.8 -2.15 54.4 -1.45 53.45 -0.6 52.55 -0.45 52.65 -0.4 52.65 -0.85 52.25 -1.6 51.2 Q-1.6 49.65 -1.0 48.65 L-1.75 48.7 -5.15 48.6 Q-5.35 49.3 -6.1 49.3 L-7.0 49.15 -8.25 50.5 -9.1 51.65 Q-9.1 52.15 -7.85 52.45 L-6.7 52.75 Q-5.9 52.2 -4.8 52.15 -2.65 52.1 -2.65 54.3 L-2.7 54.8 -2.9 54.9 -3.7 54.25 Q-4.65 54.8 -6.1 54.8 -8.25 54.8 -9.45 53.65 -10.25 52.9 -10.25 52.35 -10.25 50.65 -9.95 50.0 -9.4 48.8 -7.7 48.7 L-8.65 47.15 -9.1 44.9 -8.65 42.7 Q-8.15 41.1 -7.75 41.05 -7.45 41.35 -7.45 41.95 -7.45 42.45 -7.8 43.35 -8.2 44.25 -8.2 44.95 -8.2 46.0 -7.45 46.95 L-5.85 48.0 Q-5.85 47.65 -6.05 47.7 L-6.35 47.7 -4.75 47.9 0.05 47.55 0.15 47.45 0.15 47.5 0.7 47.25 Q1.1 46.95 3.5 47.25 L3.4 47.15 Q5.15 44.95 5.55 43.85 5.9 42.85 5.65 41.3 7.55 41.1 7.6 43.3 M0.25 45.85 L0.05 46.05 -0.25 46.05 Q0.65 45.15 0.4 45.8 L0.25 45.85 M2.0 46.3 Q1.95 45.65 2.65 45.2 L2.15 46.3 2.0 46.3 M1.15 48.3 L-0.25 48.55 -0.35 49.3 Q-0.35 49.65 -0.6 49.55 L-0.85 49.8 Q-0.85 50.8 -0.5 51.15 L1.2 52.2 1.8 52.2 1.8 51.95 2.45 51.55 Q3.1 51.25 3.4 51.3 L3.8 51.8 3.15 52.35 3.6 52.45 2.05 53.3 3.0 53.25 2.85 53.05 Q4.25 52.2 5.15 52.7 L6.25 51.7 6.3 49.6 6.2 48.75 Q6.0 48.35 5.15 48.05 L4.8 48.15 1.15 48.3 M2.25 58.3 Q2.15 57.6 2.35 57.4 L2.6 57.45 2.5 58.4 2.25 58.3 M0.25 57.55 Q0.65 57.65 1.2 58.7 L1.7 59.95 1.5 60.8 Q0.65 60.15 0.4 59.35 0.25 58.85 0.25 57.55 M-5.35 -89.8 Q-1.25 -90.85 0.4 -87.85 -2.4 -88.3 -3.7 -88.9 L-5.35 -89.8 M-4.1 -84.85 Q-3.9 -84.65 -4.0 -83.95 L-4.25 -83.85 -4.35 -84.8 -4.1 -84.85 M-3.45 -82.3 L-2.95 -83.55 -2.0 -84.7 Q-2.0 -83.4 -2.15 -82.9 -2.4 -82.1 -3.25 -81.45 -3.45 -81.65 -3.45 -82.3 M-2.6 -75.05 L-0.85 -76.55 Q-0.7 -76.25 -0.7 -75.8 -0.7 -75.65 -1.25 -75.25 L-2.35 -74.3 -3.25 -74.45 -2.9 -74.55 Q-2.6 -74.65 -2.6 -75.05 M-3.3 -57.1 L-3.25 -56.65 -3.55 -56.15 -4.35 -55.2 -4.5 -55.2 Q-4.85 -55.85 -4.2 -56.35 L-3.35 -57.05 -3.3 -57.1 M-2.6 -57.3 Q-2.45 -57.0 -2.45 -56.55 -2.5 -55.35 -3.75 -55.2 L-3.1 -56.1 Q-2.55 -56.8 -2.75 -57.3 L-2.6 -57.3 M-5.5 -42.05 L-5.8 -42.0 -5.1 -41.8 -5.5 -42.05 M-2.25 -41.7 L-2.5 -41.6 -2.6 -42.55 -2.35 -42.6 Q-2.15 -42.4 -2.25 -41.7 M-4.2 3.8 Q-3.55 4.1 -3.55 4.2 -3.55 4.85 -3.65 4.55 L-4.65 4.7 -5.55 4.05 -5.15 3.55 -4.2 3.8 M-1.4 1.55 L-1.5 0.8 -2.9 0.55 -6.55 0.4 -6.9 0.3 Q-7.75 0.6 -7.95 1.0 L-8.05 1.85 -8.0 3.95 Q-7.5 4.9 -5.9 5.3 L-5.55 5.35 -4.8 5.45 -5.35 5.2 -3.5 4.95 -3.65 4.8 Q-1.65 3.8 -1.25 3.4 -0.9 3.05 -0.9 2.05 -0.9 1.75 -1.15 1.8 L-1.4 1.55 M-1.8 -1.7 L-2.0 -1.9 -2.15 -1.95 Q-2.4 -2.6 -1.5 -1.7 L-1.8 -1.7 M-4.4 -2.55 Q-3.7 -2.1 -3.75 -1.45 L-3.9 -1.45 -4.4 -2.55 M-4.75 -22.3 L-4.75 -21.2 -4.9 -21.2 -4.9 -22.3 -4.75 -22.3 M-4.0 11.05 L-4.25 11.15 -4.35 10.2 -4.1 10.15 Q-3.9 10.35 -4.0 11.05 M-2.15 12.1 Q-2.4 12.9 -3.25 13.55 L-3.45 12.7 -2.95 11.45 Q-2.4 10.4 -2.0 10.3 -2.0 11.6 -2.15 12.1 M-1.25 19.75 L-2.35 20.7 -3.25 20.55 -2.9 20.45 Q-2.6 20.35 -2.6 19.95 L-0.85 18.45 Q-0.7 18.75 -0.7 19.2 L-1.25 19.75 M-2.6 37.7 Q-2.45 38.0 -2.45 38.45 -2.5 39.65 -3.75 39.8 L-3.1 38.9 Q-2.55 38.2 -2.75 37.7 L-2.6 37.7 M-3.25 38.35 L-3.55 38.85 -4.35 39.8 -4.5 39.8 Q-4.85 39.15 -4.2 38.65 L-3.35 37.95 -3.3 37.9 -3.25 38.35 M-2.5 53.4 L-2.6 52.45 -2.35 52.4 Q-2.15 52.6 -2.25 53.3 L-2.5 53.4 M-5.5 52.95 L-5.8 53.0 -5.1 53.2 -5.5 52.95" fill="#5b5546" fill-rule="evenodd" stroke="none"/>
  </g>
</svg>
