<?xml version="1.0" encoding="UTF-8" standalone="no"?>
<svg xmlns:xlink="http://www.w3.org/1999/xlink" height="44.35px" width="124.0px" xmlns="http://www.w3.org/2000/svg">
  <g transform="matrix(1.0, 0.0, 0.0, 1.0, 61.65, 10.35)">
    <path d="M20.2 -7.15 L16.1 -6.8 2.25 -7.25 Q1.65 -7.3 0.6 -8.25 L-12.35 -7.85 -16.0 -7.5 -19.1 -7.6 -30.05 -5.55 -43.75 -3.5 Q-44.6 -3.5 -45.15 -4.4 -48.85 -4.4 -52.15 -2.9 -53.85 -2.15 -55.0 -1.25 L-56.45 0.95 -56.45 1.0 Q-54.75 1.65 -53.65 2.2 -48.95 2.95 -41.25 4.85 L-35.0 6.0 -25.5 6.65 -8.85 7.95 Q32.4 6.8 42.25 4.8 45.05 4.25 48.85 2.75 52.7 1.25 57.65 0.25 54.35 -1.4 43.8 -4.2 31.35 -7.55 24.85 -7.55 L20.2 -7.15 M54.0 -3.9 Q60.9 -1.7 60.9 0.0 60.9 1.15 60.05 2.15 L60.15 2.9 Q60.15 3.9 58.25 5.5 L55.15 7.15 54.9 9.15 54.6 10.75 54.7 12.55 Q55.25 14.5 55.25 16.5 L55.2 17.25 56.65 23.45 Q58.0 29.3 58.0 31.05 L58.0 32.6 Q57.75 33.75 56.5 33.75 55.45 33.75 52.0 20.7 48.75 8.4 48.75 7.45 L48.75 7.2 48.3 7.3 44.85 7.85 43.6 7.8 27.25 9.6 6.25 10.65 5.5 10.9 4.95 10.8 4.75 10.7 -11.0 10.9 Q-34.5 9.4 -47.1 7.1 L-50.35 6.45 Q-50.55 6.9 -51.25 6.9 L-54.4 5.7 Q-57.45 4.5 -58.25 4.5 -59.3 4.5 -61.4 2.55 L-61.25 2.15 -61.45 1.95 -61.65 0.6 Q-61.65 -0.2 -60.95 -1.4 -60.05 -3.0 -58.75 -3.0 L-58.25 -2.75 Q-58.05 -2.5 -57.75 -2.5 L-51.9 -4.7 Q-45.7 -6.95 -43.15 -7.25 L-28.8 -8.35 -21.05 -8.55 -20.9 -9.0 Q7.2 -12.2 35.65 -7.9 46.75 -6.25 54.0 -3.9" fill="#666666" fill-opacity="0.3019608" fill-rule="evenodd" stroke="none"/>
    <path d="M4.4 11.1 L2.75 11.35 -8.0 11.1 -8.9 10.0 Q-9.75 8.9 -10.95 8.15 4.85 9.15 4.85 10.25 4.85 10.85 4.4 11.1 M-35.8 8.95 L-45.25 9.5 -49.9 8.95 Q-52.4 8.55 -52.4 7.8 -52.4 6.75 -50.75 6.75 L-46.2 7.25 -42.25 7.75 -56.3 4.85 -56.3 4.5 -53.5 4.5 -51.25 4.65 Q-48.8 4.65 -44.8 5.6 L-40.4 6.75 -27.5 7.3 -35.8 8.95" fill="#666666" fill-opacity="0.3019608" fill-rule="evenodd" stroke="none"/>
    <path d="M52.25 11.4 Q51.1 11.4 50.85 10.1 L50.85 8.75 51.0 7.8 Q51.2 6.95 51.5 6.6 L51.65 6.5 Q14.9 10.1 -0.5 10.1 L-3.8 9.6 26.85 6.15 Q55.35 3.4 55.35 5.95 L52.25 11.4" fill="#666666" fill-opacity="0.3019608" fill-rule="evenodd" stroke="none"/>
    <path d="M54.5 31.0 Q52.2 31.0 50.9 21.15 50.3 16.25 50.1 11.25 50.1 4.6 51.35 7.05 52.55 9.45 53.0 15.35 53.35 18.05 54.6 23.9 L55.75 29.4 Q55.75 31.0 54.5 31.0" fill="#666666" fill-opacity="0.3019608" fill-rule="evenodd" stroke="none"/>
    <path d="M0.85 10.8 Q1.15 10.5 1.5 10.5 2.1 10.5 2.75 17.1 L3.25 23.8 2.95 28.25 Q2.25 32.4 0.5 32.4 -0.2 32.4 -2.8 13.8 L-2.7 11.1 0.2 11.1 0.85 10.8" fill="#666666" fill-opacity="0.3019608" fill-rule="evenodd" stroke="none"/>
    <path d="M1.0 21.25 Q-0.45 21.25 -0.95 17.35 L-1.15 13.7 Q-1.15 8.45 0.7 9.7 2.5 10.9 2.5 14.7 2.3 21.25 1.0 21.25" fill="#666666" fill-opacity="0.3019608" fill-rule="evenodd" stroke="none"/>
    <path d="M-49.0 9.65 Q-49.0 10.65 -51.2 17.3 -53.4 23.95 -53.4 27.75 -53.4 28.3 -53.9 29.5 -54.55 31.0 -55.25 31.0 -56.3 31.0 -56.5 30.1 L-56.5 29.1 Q-56.5 26.3 -55.25 21.75 L-54.0 17.4 Q-54.0 17.1 -54.25 16.95 L-54.5 16.45 Q-54.5 15.05 -53.95 12.9 -53.35 10.65 -53.3 9.0 -53.25 4.55 -51.1 6.05 -49.0 7.5 -49.0 9.65" fill="#666666" fill-opacity="0.3019608" fill-rule="evenodd" stroke="none"/>
    <path d="M-49.3 9.55 L-49.75 15.3 Q-49.75 17.3 -50.25 18.4 -51.0 20.05 -51.5 23.0 L-52.4 26.9 -53.15 30.45 -52.5 31.25 Q-52.5 32.05 -53.0 32.85 -53.65 34.0 -54.75 34.0 -55.8 34.0 -56.0 32.9 L-56.0 31.7 Q-56.0 26.8 -52.05 13.1 -53.5 13.3 -53.5 11.95 -53.5 7.1 -51.4 5.7 -49.3 4.3 -49.3 9.55" fill="#666666" fill-opacity="0.3019608" fill-rule="evenodd" stroke="none"/>
    <path d="M-47.65 8.5 Q-49.9 10.4 -51.5 17.6 -52.2 20.65 -51.55 27.15 -51.55 27.55 -52.4 28.7 -53.35 29.9 -54.0 29.9 -54.95 29.9 -55.15 28.55 L-55.15 27.15 Q-54.0 17.85 -53.3 15.0 L-52.15 9.0 Q-51.85 6.35 -49.75 6.35 -47.65 6.35 -47.65 8.5" fill="#666666" fill-opacity="0.3019608" fill-rule="evenodd" stroke="none"/>
    <path d="M61.7 -1.35 Q62.35 -1.1 62.35 0.15 L61.0 1.75 Q59.6 3.15 59.0 3.15 58.35 3.15 58.1 2.65 L58.0 2.1 Q58.0 1.35 58.4 1.0 L57.85 0.75 58.0 -0.4 Q60.7 -1.7 61.7 -1.35" fill="#666666" fill-opacity="0.3019608" fill-rule="evenodd" stroke="none"/>
    <path d="M37.95 -6.4 Q37.9 -6.35 37.65 -6.25 37.3 -6.0 19.0 -6.0 L-11.2 -6.5 -31.0 -6.3 -35.15 -5.8 -40.85 -5.0 Q-41.95 -5.0 -42.0 -6.05 -42.0 -7.55 -33.95 -8.0 -25.3 -8.55 6.25 -8.8 L31.8 -8.95 Q38.1 -8.75 38.1 -7.0 L37.95 -6.4" fill="#666666" fill-opacity="0.3019608" fill-rule="evenodd" stroke="none"/>
    <path d="M1.95 9.65 L2.0 9.65 2.05 9.8 2.05 10.15 2.3 10.55 Q2.4 11.0 2.1 11.45 L2.0 11.6 1.85 15.2 Q1.6 20.8 1.65 22.7 L1.75 27.95 2.2 27.95 2.25 28.25 Q2.65 28.45 2.75 29.1 L2.65 30.05 2.55 31.0 2.9 31.9 Q2.95 32.15 2.45 32.4 L1.1 32.7 -1.75 32.65 -2.05 32.7 -2.55 32.55 -2.6 32.3 -2.65 32.25 -3.2 32.25 -3.15 32.2 -3.3 32.1 -3.5 31.7 Q-3.7 30.5 -2.95 28.65 L-3.3 28.35 -3.2 27.95 -2.5 27.95 -2.35 22.3 -2.15 10.5 -2.3 10.3 -2.15 10.05 -2.2 9.35 -2.0 9.35 -1.9 9.9 -0.1 9.75 1.9 10.05 1.95 9.65 M1.1 12.7 L1.1 12.5 0.05 12.55 -1.4 12.5 -1.5 12.05 Q-1.55 11.65 -0.25 11.55 L-0.9 11.25 Q-1.35 11.0 -1.65 10.85 L-1.65 10.95 Q-1.4 12.65 -1.7 22.95 L-1.65 27.95 -1.6 27.95 -1.6 28.1 0.75 28.4 1.05 28.4 1.05 27.95 1.1 23.05 -0.2 22.3 Q0.35 22.05 1.1 22.75 L1.1 22.5 1.25 18.3 1.05 17.75 Q0.9 16.45 1.0 13.7 L1.1 12.7 M0.7 24.4 L-0.55 24.0 -0.6 23.65 1.0 24.05 1.05 24.2 0.7 24.4 M1.05 28.7 L-0.65 28.75 -1.6 28.75 -1.6 29.05 -1.6 29.35 1.05 29.3 1.05 28.7 M1.05 30.6 L1.05 29.85 -0.1 29.9 -0.6 29.95 0.85 29.95 Q0.7 30.05 0.8 30.2 L-0.55 30.55 -1.55 30.8 -1.55 30.95 -0.85 31.0 -0.1 30.8 0.8 30.6 1.05 30.6 M-1.6 29.8 L-0.15 29.55 -1.6 29.45 -1.6 29.8 M-1.55 31.55 L-0.5 31.55 -1.55 31.35 -1.55 31.55 M-49.3 6.25 Q-49.3 6.7 -49.65 7.15 L-49.75 7.3 -50.45 10.9 -51.75 18.4 -52.65 24.85 -52.6 28.25 Q-52.2 28.45 -52.2 29.1 L-52.45 30.05 -52.7 31.0 -52.45 31.9 Q-52.45 32.15 -53.0 32.4 L-54.4 32.7 -57.25 32.65 -57.55 32.7 -58.0 32.55 -58.0 32.3 -58.15 32.15 -58.7 32.1 -58.85 31.7 Q-58.85 30.5 -57.85 28.65 L-58.15 28.35 -58.0 27.95 -57.3 27.85 -55.7 18.0 -53.75 6.2 -53.9 6.0 -53.7 5.75 -53.65 5.1 -53.45 5.1 -53.4 5.6 -51.6 5.45 -49.65 5.75 -49.55 5.35 -49.5 5.35 -49.45 5.5 -49.5 5.85 -49.3 6.25 M-52.6 6.95 L-53.3 6.55 -53.3 6.65 Q-53.3 8.35 -55.15 18.65 L-56.1 25.95 -56.4 28.1 -54.1 28.4 -53.8 28.4 -52.35 18.75 Q-53.35 18.4 -53.55 18.0 -52.95 17.75 -52.3 18.45 L-52.25 18.2 -51.5 14.0 -51.6 13.45 Q-51.6 12.15 -51.05 9.4 L-50.85 8.4 -50.8 8.2 -51.85 8.25 -53.3 8.2 -53.35 7.75 Q-53.35 7.35 -52.0 7.25 L-52.6 6.95 M-52.55 19.9 Q-52.55 20.1 -52.95 20.1 -53.6 20.1 -54.15 19.7 L-54.15 19.35 -52.6 19.75 -52.55 19.9 M-53.8 28.7 L-55.55 28.75 -56.5 28.75 -56.65 29.35 -53.85 29.3 -53.8 28.7 M-53.95 30.25 L-53.9 29.8 -55.15 29.9 -55.7 29.95 -54.25 29.95 -54.3 30.2 -55.7 30.55 -56.95 30.85 -56.1 31.0 -55.3 30.8 -54.4 30.6 -53.9 30.6 -53.95 30.25 M-56.95 30.4 L-56.85 30.35 -56.95 30.35 -56.95 30.4 M-56.75 29.8 L-55.15 29.55 -56.65 29.45 -56.75 29.8 M-57.05 31.3 L-57.1 31.55 -55.8 31.55 -57.05 31.3 M-53.65 31.5 L-53.6 31.1 -54.15 31.5 -53.65 31.5" fill="#5a493f" fill-rule="evenodd" stroke="none"/>
    <path d="M56.6 31.55 L56.55 31.3 55.3 31.55 56.6 31.55 M53.15 31.5 L53.65 31.5 53.1 31.1 53.15 31.5 M53.8 30.2 L53.75 29.95 55.2 29.95 54.65 29.9 53.4 29.8 53.45 30.25 53.4 30.6 53.9 30.6 54.8 30.8 55.6 31.0 56.45 30.85 55.2 30.55 53.8 30.2 M56.45 30.4 L56.45 30.35 56.35 30.35 56.45 30.4 M56.15 29.35 L56.0 28.75 55.05 28.75 53.3 28.7 53.35 29.3 56.15 29.35 M56.25 29.8 L56.15 29.45 54.65 29.55 56.25 29.8 M52.1 19.75 L53.65 19.35 53.65 19.7 52.45 20.1 Q52.05 20.1 52.05 19.9 L52.1 19.75 M52.1 6.95 L51.5 7.25 Q52.85 7.35 52.85 7.75 L52.8 8.2 51.35 8.25 50.3 8.2 50.35 8.4 50.55 9.4 Q51.1 12.15 51.1 13.45 L51.0 14.0 51.75 18.2 51.8 18.45 Q52.45 17.75 53.05 18.0 52.85 18.4 51.85 18.75 L53.3 28.4 53.6 28.4 55.9 28.1 55.6 25.95 54.65 18.65 Q52.8 8.35 52.8 6.65 L52.8 6.55 52.1 6.95 M52.9 5.6 L52.95 5.05 53.15 5.05 53.2 5.75 53.4 6.0 53.25 6.2 55.2 18.0 56.8 27.85 57.5 27.95 57.65 28.35 57.35 28.65 Q58.35 30.5 58.35 31.7 L58.2 32.1 57.65 32.15 57.5 32.3 57.5 32.55 57.05 32.7 56.75 32.65 53.9 32.7 52.5 32.4 Q51.95 32.15 51.95 31.9 L52.2 31.0 51.95 30.05 51.7 29.1 Q51.7 28.45 52.1 28.25 L52.15 24.85 51.25 18.4 49.95 10.9 49.25 7.3 49.15 7.15 Q48.8 6.7 48.8 6.25 L49.0 5.85 48.95 5.5 49.0 5.35 49.05 5.35 49.15 5.75 51.1 5.45 52.9 5.6" fill="#5a493f" fill-rule="evenodd" stroke="none"/>
  </g>
</svg>
