<?xml version="1.0" encoding="UTF-8" standalone="no"?>
<svg xmlns:xlink="http://www.w3.org/1999/xlink" height="21.05px" width="123.55px" xmlns="http://www.w3.org/2000/svg">
  <g transform="matrix(1.0, 0.0, 0.0, 1.0, 61.75, 10.5)">
    <path d="M11.2 -7.6 L17.15 -7.65 17.2 -7.65 23.2 -7.2 23.25 -7.2 29.05 -7.05 29.1 -7.05 35.2 -6.75 41.2 -5.85 41.4 -5.8 41.5 -5.7 43.15 -5.65 47.85 -4.65 53.2 -2.95 Q56.1 -2.0 56.4 -0.25 56.9 1.75 53.25 2.7 L47.3 4.3 41.8 5.55 36.05 6.4 29.9 6.6 24.15 6.85 18.2 7.4 12.3 7.7 6.2 8.0 0.0 7.9 -6.2 7.65 -12.2 7.5 -18.05 7.35 -24.1 7.05 -30.1 6.65 -36.05 6.2 -42.25 5.65 -48.45 4.6 Q-51.6 3.95 -54.35 2.6 -57.45 1.1 -57.1 -0.65 L-57.1 -0.7 Q-56.85 -2.35 -53.65 -3.4 -50.75 -4.35 -47.85 -4.7 L-42.3 -5.35 -36.7 -6.2 -36.65 -6.2 -30.75 -7.0 -24.9 -7.45 -18.85 -7.7 -12.85 -8.0 -12.8 -8.0 -7.05 -8.25 -1.0 -8.1 5.3 -7.65 Q8.3 -7.5 11.2 -7.6 M17.15 -6.65 L11.25 -6.6 Q8.3 -6.5 5.35 -6.7 L-0.75 -7.2 -6.75 -7.35 -12.75 -7.0 -18.85 -6.7 -25.0 -6.45 -31.2 -6.1 -36.9 -5.25 -42.2 -4.3 -48.5 -3.7 Q-52.15 -3.4 -54.4 -2.5 -56.65 -1.55 -56.0 0.05 -56.15 0.6 -53.9 1.7 -51.3 2.95 -48.25 3.6 L-42.15 4.65 -36.15 5.35 -30.4 6.0 -24.35 6.3 -17.75 6.5 -11.65 6.75 -5.85 6.75 0.05 6.9 6.15 7.0 12.65 6.85 18.8 6.65 24.25 5.95 29.95 5.6 35.95 5.4 41.6 4.55 47.05 3.35 53.0 1.75 Q55.5 1.05 55.4 -0.05 55.1 -1.3 52.9 -2.0 L47.55 -3.7 Q44.85 -4.6 43.15 -4.7 L41.55 -5.05 41.5 -5.0 41.35 -5.0 36.2 -5.7 29.15 -6.05 23.1 -6.2 17.15 -6.65 M3.0 -10.35 L9.15 -10.15 15.3 -10.0 21.5 -9.8 27.35 -9.45 33.1 -8.95 39.05 -8.15 45.05 -7.5 45.1 -7.5 51.5 -6.5 55.8 -5.35 Q58.7 -4.7 60.55 -2.7 62.6 -0.45 61.25 1.75 L61.2 1.8 Q59.95 3.75 57.05 4.55 L51.5 6.2 45.55 7.45 39.7 8.3 34.0 8.9 28.05 9.3 21.7 9.65 15.7 9.95 9.65 10.25 4.1 10.5 -1.6 10.5 -8.0 10.35 -14.1 10.0 -20.1 9.7 -26.2 9.4 -32.2 8.8 -38.35 8.3 -44.35 7.65 -50.55 6.45 -56.85 4.7 Q-60.0 3.65 -61.2 1.75 -62.6 -0.4 -60.5 -2.4 -58.55 -4.2 -55.7 -5.05 L-50.15 -6.45 -50.1 -6.45 -44.45 -7.3 -38.65 -8.3 -32.85 -9.2 -26.9 -9.7 -26.85 -9.7 -21.35 -10.0 -15.5 -10.3 -8.95 -10.5 -8.9 -10.5 -3.05 -10.4 3.0 -10.35 M8.9 -9.45 L3.0 -9.35 -3.05 -9.4 -8.95 -9.5 -15.05 -9.5 -20.9 -9.2 -26.8 -8.7 -32.8 -8.15 -39.2 -7.35 -45.0 -6.35 -49.95 -5.45 -55.4 -4.1 Q-58.05 -3.3 -59.8 -1.65 -61.15 -0.45 -60.5 0.9 L-59.35 -0.8 -59.05 -0.4 -59.65 0.5 -60.2 1.4 -59.5 2.2 -59.25 1.65 Q-58.9 1.1 -58.0 1.2 L-57.9 1.5 -58.5 1.9 -59.1 2.5 Q-58.1 3.25 -56.55 3.75 L-50.3 5.5 -44.25 6.65 -44.2 6.65 -38.25 7.3 -32.15 7.8 -26.1 8.4 -20.5 8.75 -14.45 9.0 -8.0 9.35 -7.95 9.35 -2.0 9.7 Q0.9 9.95 3.6 9.65 L9.6 9.25 15.6 8.95 21.7 8.65 27.95 8.3 33.9 8.0 39.45 7.6 45.3 6.7 51.2 5.25 56.75 3.6 56.8 3.6 57.35 3.45 Q57.05 3.35 56.9 2.7 L56.75 1.95 Q56.75 1.3 56.95 1.2 57.55 1.45 57.7 2.9 L57.65 3.35 Q58.75 2.9 59.5 2.3 L59.0 1.65 58.5 0.7 Q58.5 0.45 58.75 0.35 L60.0 1.8 60.35 1.3 61.0 0.5 Q61.6 -0.25 60.0 -1.95 58.45 -3.7 55.6 -4.35 L51.2 -5.55 45.0 -6.5 44.95 -6.5 38.85 -7.15 32.8 -8.0 26.6 -8.55 20.95 -8.95 14.95 -9.3 8.9 -9.45" fill="#5a493f" fill-rule="evenodd" stroke="none"/>
  </g>
</svg>
