<?xml version="1.0" encoding="UTF-8" standalone="no"?>
<svg xmlns:xlink="http://www.w3.org/1999/xlink" height="15.45px" width="108.85px" xmlns="http://www.w3.org/2000/svg">
  <g transform="matrix(1.0, 0.0, 0.0, 1.0, 54.4, 7.75)">
    <path d="M8.35 -5.3 L12.1 -4.85 12.35 -4.45 30.45 -5.9 Q37.45 -6.7 37.45 -4.95 37.45 -3.1 33.15 -2.95 L41.4 -3.35 44.6 -3.7 Q46.35 -3.7 46.25 -1.55 L49.05 -2.0 51.95 -2.35 Q54.45 -2.35 54.45 -0.7 54.45 1.6 37.6 3.65 15.2 6.3 -26.25 6.3 L-42.15 6.1 -43.4 5.8 -44.4 5.45 -46.4 4.2 Q-47.05 3.7 -47.2 3.0 -47.3 2.3 -46.9 1.7 L-46.9 1.6 -49.25 1.2 -49.55 0.4 Q-49.55 -1.1 -37.95 -2.95 -27.15 -4.7 -20.75 -4.7 -18.5 -4.7 -18.3 -4.25 L-18.05 -3.85 -10.9 -5.1 -3.15 -6.35 Q-0.75 -6.35 -0.4 -5.65 -0.45 -4.8 -0.2 -4.55 L2.85 -4.9 8.35 -5.3" fill="#006699" fill-opacity="0.3019608" fill-rule="evenodd" stroke="none"/>
    <path d="M12.9 -3.5 L13.1 -2.3 20.2 -3.05 Q23.8 -3.05 24.25 -2.45 24.5 -2.15 24.1 -1.3 L24.1 -1.2 36.9 -3.0 46.6 -4.3 Q48.3 -4.3 48.85 -3.55 L49.1 -2.7 Q49.1 -1.05 45.6 -0.6 48.05 0.45 51.7 0.45 53.1 0.45 53.6 1.15 L53.85 1.95 Q53.85 3.3 39.3 5.3 22.0 7.7 1.6 7.7 -2.5 7.7 -2.7 7.0 -2.2 6.05 -2.4 5.45 L-5.75 6.15 -8.4 6.45 Q-10.85 6.45 -11.0 5.0 -11.1 4.25 -10.65 3.45 L-14.25 3.95 -18.4 4.45 Q-20.1 4.45 -20.45 3.9 L-20.65 3.2 -27.2 4.35 -35.4 5.3 Q-36.85 5.3 -36.95 3.7 -36.95 2.7 -36.65 2.25 -36.1 1.5 -34.15 0.55 L-34.1 0.5 -34.55 0.45 Q-39.05 0.45 -45.05 1.9 L-50.15 3.3 Q-51.0 3.3 -51.5 2.55 -51.9 1.9 -51.7 1.45 -53.5 1.4 -54.1 0.75 L-54.4 -0.3 Q-54.4 -1.35 -45.3 -2.65 L-9.65 -7.55 Q-7.15 -8.1 -6.1 -7.1 -5.55 -6.6 -5.55 -5.95 -5.55 -5.0 -16.3 -2.0 L-28.4 1.2 -7.35 -1.85 9.45 -4.05 Q12.45 -4.05 12.9 -3.5" fill="#006699" fill-opacity="0.3019608" fill-rule="evenodd" stroke="none"/>
    <path d="M10.45 -0.3 Q13.15 -0.3 13.5 0.6 13.65 1.05 13.25 1.7 L18.7 1.7 Q23.4 1.3 37.8 -1.75 L42.1 -2.05 Q43.3 -1.6 42.6 0.7 L46.85 -0.1 48.6 -0.6 Q50.45 -0.6 50.45 1.0 50.45 2.95 39.1 4.65 27.85 6.3 15.2 6.3 L-1.4 6.4 Q-17.2 6.2 -23.15 4.95 L-31.25 4.45 -43.15 3.8 Q-45.05 3.55 -48.7 2.0 L-52.15 0.15 Q-52.15 -0.75 -50.25 -1.05 L-41.0 -1.45 Q-37.7 -1.45 -37.0 -0.45 -36.75 -0.05 -37.05 0.95 L-22.9 0.95 -7.9 -0.3 -3.15 0.4 -0.3 1.05 4.9 0.4 10.45 -0.3" fill="#006699" fill-opacity="0.3019608" fill-rule="evenodd" stroke="none"/>
    <path d="M10.15 -4.95 L15.6 -5.0 15.65 -5.0 21.1 -4.65 21.15 -4.65 Q23.8 -4.35 26.45 -4.55 L26.5 -4.55 32.1 -4.35 37.6 -3.65 37.75 -3.65 37.85 -3.55 39.35 -3.5 43.65 -2.8 48.55 -1.55 Q51.2 -0.85 51.5 0.4 51.95 1.9 48.6 2.55 L43.15 3.75 38.15 4.65 32.9 5.25 27.25 5.4 22.0 5.6 16.55 6.0 11.15 6.2 5.55 6.45 -0.1 6.35 -5.75 6.2 -11.25 6.05 -16.6 5.95 -22.15 5.75 -27.65 5.45 -33.1 5.15 -38.75 4.7 -44.4 3.95 Q-47.3 3.5 -49.8 2.5 -52.65 1.4 -52.35 0.15 L-52.35 0.1 Q-52.1 -1.1 -49.2 -1.9 L-43.85 -2.85 -38.8 -3.3 -33.65 -3.95 -33.6 -3.95 -28.25 -4.5 -22.9 -4.85 -17.35 -5.0 -11.85 -5.25 -11.8 -5.25 -6.55 -5.4 -1.0 -5.3 4.75 -5.0 10.15 -4.95 M15.6 -4.25 L10.2 -4.2 4.8 -4.3 -0.8 -4.65 -6.25 -4.75 -11.75 -4.5 -17.35 -4.3 -22.95 -4.1 -28.65 -3.85 -33.85 -3.25 -38.7 -2.55 -44.45 -2.1 Q-47.8 -1.9 -49.85 -1.2 -51.9 -0.55 -51.35 0.65 -51.45 1.05 -49.4 1.85 L-44.25 3.25 -38.65 4.0 -33.15 4.5 -27.9 5.0 -22.35 5.2 -16.35 5.35 -10.75 5.55 -5.45 5.55 -0.05 5.65 5.55 5.7 11.45 5.6 17.1 5.45 22.1 4.95 27.3 4.7 32.8 4.55 37.95 3.9 42.95 3.05 48.4 1.9 Q50.65 1.35 50.6 0.55 50.3 -0.35 48.3 -0.85 L43.4 -2.1 39.35 -2.85 37.9 -3.1 37.85 -3.05 37.7 -3.05 33.0 -3.55 26.55 -3.8 21.05 -3.95 15.6 -4.25" fill="#5a493f" fill-rule="evenodd" stroke="none"/>
  </g>
</svg>
