<?xml version="1.0" encoding="UTF-8" standalone="no"?>
<svg xmlns:xlink="http://www.w3.org/1999/xlink" height="43.45px" width="122.6px" xmlns="http://www.w3.org/2000/svg">
  <g transform="matrix(1.0, 0.0, 0.0, 1.0, 60.75, 9.9)">
    <path d="M-7.65 -8.5 Q-8.3 -8.5 -8.0 -8.75 L-5.85 -9.1 -3.25 -9.1 -4.0 -9.0 -5.8 -8.65 -7.65 -8.5 M-51.8 -5.0 L-53.15 -4.8 -52.1 -5.15 -51.8 -5.0 M-47.5 -4.55 L-47.9 -6.25 -41.45 -7.5 -33.3 -8.65 Q-32.9 -8.35 -32.35 -8.25 -33.65 -7.4 -40.15 -6.05 L-47.5 -4.55 M59.85 -1.0 L59.55 -1.55 Q60.85 -0.75 60.85 -0.05 60.85 0.95 59.65 1.95 L60.0 0.35 59.85 -1.0 M51.4 -4.0 L50.8 -4.7 Q55.85 -3.35 58.35 -2.2 L57.75 -2.25 Q57.0 -2.25 56.35 -1.7 55.55 -1.05 55.25 -1.0 55.45 -1.45 53.95 -2.05 52.1 -2.75 51.4 -4.0 M39.9 -6.5 L36.95 -7.8 40.1 -7.2 42.4 -6.7 39.9 -6.5 M20.8 -8.6 L24.3 -8.6 22.45 -7.65 Q21.4 -7.15 20.8 -8.6 M27.25 -8.5 L27.15 -8.55 29.25 -8.3 27.6 -8.4 27.25 -8.5 M13.4 -9.1 L11.85 -8.4 11.1 -8.0 10.4 -8.25 9.8 -8.6 Q9.3 -9.1 13.4 -9.1 M0.8 -3.6 L7.6 -3.5 14.15 -3.9 Q15.2 -4.15 15.55 -4.35 L19.4 -3.9 Q19.95 -3.5 21.6 -3.5 L26.9 -4.0 27.35 -3.7 27.5 -3.3 Q29.3 -2.3 30.15 -2.6 31.35 -3.1 33.4 -2.6 39.7 -1.1 41.55 -1.15 L46.5 -1.35 46.4 0.05 Q47.0 0.75 51.25 0.85 51.25 2.65 54.0 3.5 L56.85 4.0 Q57.8 4.0 58.5 3.5 61.85 4.3 61.85 5.25 L61.1 5.3 Q59.75 5.2 57.5 6.0 56.95 6.15 55.45 6.95 L54.4 7.5 Q55.55 10.15 55.4 14.25 55.4 15.65 57.0 21.4 58.6 27.1 58.6 29.3 L58.6 31.75 Q58.35 33.35 56.75 33.35 52.5 33.35 51.45 23.95 50.9 12.75 50.0 9.15 L43.8 10.35 37.5 10.75 33.85 10.35 Q33.7 9.9 31.55 9.9 L27.8 10.1 18.55 10.95 14.35 11.2 12.0 11.25 11.65 11.25 9.95 11.3 10.1 11.65 Q10.1 11.95 7.25 12.85 4.2 13.85 2.75 13.85 L2.65 13.85 2.6 15.6 Q2.55 17.3 2.65 18.4 L3.5 24.7 4.0 29.8 Q4.0 30.6 3.4 31.55 2.55 32.75 1.25 32.75 0.0 32.75 -0.25 31.7 L-0.25 30.25 Q-0.45 30.6 -0.45 32.85 L-0.45 33.2 -3.15 33.55 -3.3 33.0 -3.3 31.55 Q-1.5 14.2 -1.5 11.7 L-1.5 11.4 -7.8 10.75 -7.95 10.7 -8.55 10.85 -9.85 11.1 -27.75 8.25 -27.5 9.15 Q-27.5 10.05 -28.45 10.5 -29.7 11.1 -32.85 11.1 L-39.85 10.9 -40.65 11.85 Q-41.25 12.65 -43.85 12.65 -46.35 12.65 -46.7 12.0 L-46.55 11.0 -46.55 10.75 Q-47.9 10.9 -48.65 11.5 L-49.7 12.0 Q-50.2 15.35 -51.15 19.45 -50.0 18.1 -50.0 21.3 -50.0 21.7 -51.75 25.4 -53.55 29.15 -53.75 29.15 L-54.2 29.05 -54.55 28.85 -54.55 28.8 Q-55.5 30.15 -56.5 30.15 -57.55 30.15 -57.8 29.25 L-57.9 28.3 Q-57.9 25.3 -56.55 20.6 L-54.15 13.0 Q-53.5 10.85 -53.3 8.35 L-53.5 8.35 Q-55.3 8.35 -58.15 5.45 -58.15 4.5 -56.5 4.5 L-55.5 4.75 -54.5 5.0 -53.25 4.8 -53.25 4.65 Q-59.4 3.0 -59.4 0.45 L-59.2 -0.55 -58.8 -0.35 -47.6 0.5 -43.7 0.05 Q-42.85 -1.3 -40.0 -2.55 -36.9 -3.9 -33.1 -4.6 L-28.55 -5.1 Q-26.05 -4.0 -23.0 -4.0 -19.85 -4.0 -18.25 -4.75 -17.15 -5.5 -16.65 -5.5 L-12.9 -4.75 -8.6 -4.0 0.8 -3.6 M54.0 4.65 L52.85 5.05 53.35 5.6 53.45 5.45 54.0 4.65 M49.1 6.05 L48.35 6.25 48.35 6.35 49.25 6.25 49.1 6.05 M4.1 11.3 L2.35 11.15 2.6 11.5 4.1 11.3" fill="#ffffff" fill-rule="evenodd" stroke="none"/>
    <path d="M22.5 -9.0 L35.3 -8.1 43.65 -6.75 51.5 -5.4 51.9 -5.7 52.7 -6.0 Q53.35 -6.0 55.5 -4.8 57.85 -3.45 58.55 -3.3 60.3 -2.95 60.85 -2.15 61.2 -1.7 61.2 -0.95 61.2 -0.15 60.7 0.4 60.2 0.9 60.2 1.25 L60.6 2.25 Q53.3 5.4 51.9 5.4 51.45 5.4 51.15 5.1 L51.0 4.75 Q51.0 3.9 52.05 3.75 51.6 3.25 51.6 2.8 51.6 2.2 53.15 1.95 L56.25 1.35 56.4 -0.75 Q56.4 -1.85 53.85 -2.55 L47.9 -4.65 39.45 -6.0 25.65 -6.7 Q15.55 -7.05 15.05 -7.85 L-11.4 -7.85 -40.2 -5.35 Q-57.75 -3.0 -57.75 0.0 L-57.55 0.6 -57.3 1.35 -57.25 1.55 -57.5 1.65 Q-58.15 1.65 -58.45 1.05 L-59.15 -0.2 Q-59.4 0.15 -59.95 0.15 -60.85 0.15 -60.75 -0.5 -60.75 -1.55 -59.65 -2.8 -57.85 -4.85 -54.3 -4.85 -53.7 -4.85 -53.55 -4.65 L-53.45 -4.35 Q-47.9 -6.05 -35.3 -7.65 L-18.45 -9.55 -7.5 -9.6 3.35 -9.9 22.5 -9.0" fill="#ffffff" fill-rule="evenodd" stroke="none"/>
  </g>
</svg>
