<?xml version="1.0" encoding="UTF-8" standalone="no"?>
<svg xmlns:xlink="http://www.w3.org/1999/xlink" height="29.65px" width="123.55px" xmlns="http://www.w3.org/2000/svg">
  <g transform="matrix(1.0, 0.0, 0.0, 1.0, 61.75, 10.5)">
    <path d="M3.65 10.35 Q5.05 10.35 5.0 10.8 L9.6 11.05 Q10.4 11.0 10.3 11.9 10.3 12.35 9.9 12.5 L7.05 12.8 6.8 12.85 Q8.5 14.1 9.95 14.65 10.85 14.95 10.85 15.2 L10.6 15.8 8.35 16.1 Q8.3 17.3 5.5 17.55 L-1.95 17.6 -6.6 17.25 Q-7.05 16.85 -8.25 16.85 L-11.2 17.5 -17.25 18.1 -19.55 18.3 -22.15 18.2 -22.7 18.1 -22.8 18.65 Q-22.95 19.15 -23.5 19.15 L-26.85 19.1 Q-29.0 18.75 -28.45 17.25 L-30.1 16.25 Q-31.0 15.45 -30.55 14.3 -33.05 13.25 -35.75 11.65 -39.05 9.65 -39.05 8.7 -39.05 7.25 -34.9 7.85 L-26.55 8.85 -15.7 9.9 -0.2 10.7 1.45 10.55 3.65 10.35 M-10.65 13.7 L-8.3 13.55 -8.0 13.5 Q-11.05 13.3 -14.8 13.35 L-10.65 13.7" fill="#ffffff" fill-rule="evenodd" stroke="none"/>
    <path d="M43.3 6.9 L44.45 7.7 Q44.9 8.3 44.9 8.85 44.9 9.4 31.9 15.35 L26.4 17.25 Q20.6 18.95 16.4 18.95 10.35 18.95 10.35 17.45 10.35 17.2 10.5 17.0 L10.55 16.95 2.9 17.1 Q-14.2 17.1 -14.2 15.1 L-13.95 14.55 -10.95 14.3 -7.65 14.35 -7.15 14.65 -3.9 15.2 -3.05 14.95 -2.6 14.65 0.2 14.45 0.25 13.85 Q0.5 13.3 1.2 13.35 L1.5 13.2 Q0.3 13.15 -0.05 12.8 L-0.25 12.15 Q-0.25 10.75 4.25 10.5 L23.2 9.4 30.75 8.8 33.3 8.5 Q37.7 7.35 38.45 7.35 39.25 7.35 39.5 8.3 L41.35 7.45 Q42.65 6.8 43.3 6.9" fill="#ffffff" fill-rule="evenodd" stroke="none"/>
    <path d="M-2.95 -3.65 L3.5 -3.5 -1.75 -4.1 Q12.9 -3.85 49.05 1.8 49.05 3.55 41.7 4.8 28.35 7.0 -6.25 7.0 -33.2 7.0 -40.5 4.8 -43.25 4.0 -43.75 2.7 L-43.85 0.4 Q-43.85 -1.0 -40.65 -2.4 -35.8 -4.5 -26.5 -3.85 -11.5 -4.0 -2.95 -3.65 M-4.1 1.5 L-2.1 1.3 -3.25 1.3 -4.1 1.5" fill="#006699" fill-opacity="0.3019608" fill-rule="evenodd" stroke="none"/>
    <path d="M31.75 13.8 Q23.3 17.55 15.75 17.55 L-11.35 16.75 Q-37.35 14.95 -37.35 10.1 -37.35 8.85 -36.75 8.55 -35.9 8.05 -32.75 8.05 L-20.55 9.15 -7.35 10.25 22.55 8.05 Q39.0 6.6 39.0 9.35 39.0 10.55 31.75 13.8" fill="#006699" fill-opacity="0.3019608" fill-rule="evenodd" stroke="none"/>
    <path d="M34.25 7.3 Q35.7 7.3 36.25 8.3 L36.55 9.4 Q36.55 11.85 29.5 14.05 19.85 17.05 1.25 17.05 L-21.45 15.55 Q-40.0 13.2 -40.0 8.6 -40.0 6.6 -38.1 6.45 -36.7 6.3 -33.0 7.3 -21.8 10.3 -16.75 10.3 12.8 10.55 25.25 9.3 L34.25 7.3" fill="#006699" fill-opacity="0.3019608" fill-rule="evenodd" stroke="none"/>
    <path d="M35.85 5.7 Q35.15 5.9 32.0 5.75 20.25 5.1 7.55 6.05 L-19.75 7.05 Q-25.9 7.05 -27.85 5.8 -28.6 5.3 -28.6 4.35 -28.6 -0.15 4.1 0.95 L26.55 2.35 Q36.75 3.35 36.75 4.0 36.75 5.4 35.85 5.7" fill="#006699" fill-opacity="0.3019608" fill-rule="evenodd" stroke="none"/>
    <path d="M42.0 12.0 Q37.4 13.5 32.5 13.5 29.35 13.5 28.75 12.75 28.1 12.0 27.55 12.0 15.7 12.0 12.5 13.9 9.3 15.75 -2.75 15.75 -33.6 15.75 -33.6 10.0 -33.6 8.75 -32.9 8.3 -32.05 7.8 -29.5 7.8 -27.2 7.8 -24.35 8.8 -21.45 9.8 -21.0 9.8 0.25 9.8 30.75 8.55 46.25 7.95 46.25 9.5 46.25 10.65 42.0 12.0" fill="#006699" fill-opacity="0.3019608" fill-rule="evenodd" stroke="none"/>
    <path d="M-3.25 -1.5 L30.3 0.05 Q35.6 0.7 35.5 1.55 40.3 1.7 41.9 2.35 42.75 2.75 42.75 3.5 L42.9 4.8 Q42.7 5.45 40.75 5.75 36.3 6.5 14.75 6.5 L-0.1 5.55 Q-7.45 5.55 -7.55 6.7 -7.6 7.8 -15.0 7.8 -32.15 7.8 -39.25 5.7 -43.35 4.5 -43.35 3.0 -43.35 1.9 -40.2 0.1 -36.65 -1.85 -31.6 -3.05 -17.65 -6.4 -3.25 -1.5" fill="#006699" fill-opacity="0.3019608" fill-rule="evenodd" stroke="none"/>
    <path d="M0.2 -3.6 L-1.65 -5.3 -1.8 -5.35 Q-2.05 -4.7 -2.65 -4.1 -4.3 -2.5 -8.45 -2.5 -13.1 -2.5 -15.0 -3.4 -16.1 -3.95 -17.2 -5.2 L-17.2 -5.4 -17.0 -5.5 Q-16.25 -4.9 -15.3 -4.35 -13.4 -3.2 -11.25 -3.2 L-4.3 -3.65 -3.4 -4.65 -2.6 -5.45 -1.95 -5.85 -1.9 -5.95 -1.75 -5.85 -1.7 -5.85 -1.7 -5.8 0.2 -4.25 Q2.25 -2.65 6.75 -2.65 10.45 -2.65 12.2 -3.5 L15.5 -5.3 15.55 -5.25 Q13.55 -3.55 12.45 -2.95 10.65 -1.9 7.05 -1.9 2.25 -1.9 0.2 -3.6 M17.15 -7.65 L17.2 -7.65 23.2 -7.2 23.25 -7.2 29.05 -7.05 29.1 -7.05 35.2 -6.75 41.2 -5.85 41.4 -5.8 41.5 -5.7 43.15 -5.65 47.85 -4.65 53.2 -2.95 Q56.1 -2.0 56.4 -0.25 56.9 1.75 53.25 2.7 L47.3 4.3 41.8 5.55 36.05 6.4 29.9 6.6 24.15 6.85 18.2 7.4 12.3 7.7 6.2 8.0 0.0 7.9 -6.2 7.65 -12.2 7.5 -18.05 7.35 -24.1 7.05 -30.1 6.65 -36.05 6.2 -42.25 5.65 -48.45 4.6 Q-51.6 3.95 -54.35 2.6 -57.45 1.1 -57.1 -0.65 L-57.1 -0.7 Q-56.85 -2.35 -53.65 -3.4 -50.75 -4.35 -47.85 -4.7 L-42.3 -5.35 -36.7 -6.2 -36.65 -6.2 -30.75 -7.0 -24.9 -7.45 -18.85 -7.7 -12.85 -8.0 -12.8 -8.0 -7.05 -8.25 -1.0 -8.1 5.3 -7.65 Q8.3 -7.5 11.2 -7.6 L17.15 -7.65 M3.0 -10.35 L9.15 -10.15 15.3 -10.0 21.5 -9.8 27.35 -9.45 33.1 -8.95 39.05 -8.15 45.05 -7.5 45.1 -7.5 51.5 -6.5 55.8 -5.35 Q58.7 -4.7 60.55 -2.7 62.6 -0.45 61.25 1.75 L61.2 1.8 Q59.95 3.75 57.05 4.55 L51.5 6.2 45.55 7.45 45.0 7.55 44.3 8.1 Q40.35 10.8 35.85 12.75 L28.0 15.45 19.55 17.1 11.45 17.75 2.5 17.95 -7.45 17.75 -11.95 17.55 -11.95 17.65 -12.1 17.7 -12.65 17.5 -17.0 17.15 -26.7 15.3 Q-30.95 14.35 -34.75 12.5 -38.75 10.5 -42.65 8.2 L-43.4 7.8 -44.35 7.65 -50.55 6.45 -56.85 4.7 Q-60.0 3.65 -61.2 1.75 -62.6 -0.4 -60.5 -2.4 -58.55 -4.2 -55.7 -5.05 L-50.15 -6.45 -50.1 -6.45 -44.45 -7.3 -38.65 -8.3 -32.85 -9.2 -26.9 -9.7 -26.85 -9.7 -21.35 -10.0 -15.5 -10.3 -8.95 -10.5 -8.9 -10.5 -3.05 -10.4 3.0 -10.35 M8.9 -9.45 L3.0 -9.35 -3.05 -9.4 -8.95 -9.5 -15.05 -9.5 -20.9 -9.2 -26.8 -8.7 -32.8 -8.15 -39.2 -7.35 -45.0 -6.35 -49.95 -5.45 -55.4 -4.1 Q-58.05 -3.3 -59.8 -1.65 -61.15 -0.45 -60.5 0.9 L-59.35 -0.8 -59.05 -0.4 -59.65 0.5 -60.2 1.4 -59.5 2.2 -59.25 1.65 Q-58.9 1.1 -58.0 1.2 L-57.9 1.5 -58.5 1.9 -59.1 2.5 Q-58.1 3.25 -56.55 3.75 L-50.3 5.5 -44.25 6.65 -44.2 6.65 -38.25 7.3 -32.15 7.8 -26.1 8.4 -20.5 8.75 -14.45 9.0 -8.0 9.35 -7.95 9.35 -2.0 9.7 Q0.9 9.95 3.6 9.65 L9.6 9.25 15.6 8.95 21.7 8.65 27.95 8.3 33.9 8.0 39.45 7.6 45.3 6.7 51.2 5.25 56.75 3.6 56.8 3.6 57.35 3.45 Q57.05 3.35 56.9 2.7 L56.75 1.95 Q56.75 1.3 56.95 1.2 57.55 1.45 57.7 2.9 L57.65 3.35 Q58.75 2.9 59.5 2.3 L59.0 1.65 58.5 0.7 Q58.5 0.45 58.75 0.35 L60.0 1.8 60.35 1.3 61.0 0.5 Q61.6 -0.25 60.0 -1.95 58.45 -3.7 55.6 -4.35 L51.2 -5.55 45.0 -6.5 44.95 -6.5 38.85 -7.15 32.8 -8.0 26.6 -8.55 20.95 -8.95 14.95 -9.3 8.9 -9.45 M15.6 -4.5 L15.15 -4.9 Q16.45 -5.05 16.45 -4.35 L16.45 -4.15 17.0 -3.55 Q18.45 -2.4 21.55 -2.4 24.1 -2.4 28.1 -4.15 L28.1 -4.25 28.35 -4.3 29.75 -2.75 Q30.95 -1.75 33.95 -1.75 36.2 -1.75 37.95 -2.55 L40.55 -4.15 Q40.2 -2.95 38.5 -2.05 36.65 -1.0 34.15 -1.0 31.2 -1.0 29.4 -2.25 28.05 -3.15 28.05 -3.85 L28.1 -4.05 Q27.75 -3.15 25.35 -2.35 23.15 -1.65 21.55 -1.65 18.45 -1.65 16.75 -3.05 16.3 -3.4 15.6 -4.5 M44.6 7.6 L43.4 7.75 42.9 8.45 44.6 7.6 M17.15 -6.65 L11.25 -6.6 Q8.3 -6.5 5.35 -6.7 L-0.75 -7.2 -6.75 -7.35 -12.75 -7.0 -18.85 -6.7 -25.0 -6.45 -31.2 -6.1 -36.9 -5.25 -42.2 -4.3 -48.5 -3.7 Q-52.15 -3.4 -54.4 -2.5 -56.65 -1.55 -56.0 0.05 -56.15 0.6 -53.9 1.7 -51.3 2.95 -48.25 3.6 L-48.15 3.65 -50.5 0.85 -50.6 0.65 -50.65 0.6 -50.65 0.55 -50.65 0.45 -50.6 0.3 -50.5 0.05 -50.4 0.05 -50.25 0.0 -49.15 0.2 -46.1 0.35 -43.9 0.05 Q-43.45 -0.15 -43.45 -0.65 -43.45 -1.15 -44.25 -1.6 L-46.25 -3.05 -45.6 -3.3 -45.1 -3.3 -42.75 -2.65 Q-41.05 -2.0 -38.85 -2.0 -36.25 -2.0 -34.05 -3.35 L-31.7 -4.75 -31.15 -5.0 -30.6 -5.15 Q-30.2 -5.15 -28.35 -4.05 -26.45 -2.95 -24.3 -2.95 -21.15 -2.95 -19.5 -3.55 L-18.8 -4.1 -18.15 -4.6 -17.45 -5.65 -18.0 -4.75 -17.35 -5.25 -17.3 -5.1 Q-17.3 -4.7 -18.65 -3.8 -20.15 -2.25 -22.25 -2.25 -26.5 -2.25 -28.4 -3.35 L-30.6 -4.65 -31.3 -4.25 Q-31.75 -3.35 -33.9 -2.45 -36.25 -1.5 -38.0 -1.5 L-43.25 -2.15 -44.0 -2.35 Q-43.4 -2.1 -43.15 -1.75 -42.8 -1.25 -42.8 0.15 -42.8 0.55 -44.0 0.85 L-47.65 1.15 -49.05 1.1 -48.45 1.85 -46.4 4.0 -42.15 4.65 -36.15 5.35 -30.4 6.0 -24.35 6.3 -17.75 6.5 -11.65 6.75 -5.85 6.75 0.05 6.9 6.15 7.0 12.65 6.85 18.8 6.65 24.25 5.95 29.95 5.6 35.95 5.4 41.6 4.55 47.05 3.35 47.65 3.2 48.25 2.55 49.25 1.6 49.7 0.95 49.8 0.8 49.7 0.7 49.7 0.65 46.55 0.85 Q43.25 0.85 41.6 -0.5 40.35 -1.5 40.35 -2.8 L40.4 -3.75 40.8 -3.75 Q41.3 -2.75 41.6 -1.05 42.8 0.2 48.9 0.2 L50.0 0.0 50.6 -0.25 Q51.25 -0.35 51.25 0.05 L50.85 0.7 Q50.65 1.3 49.25 2.5 L48.85 2.85 53.0 1.75 Q55.5 1.05 55.4 -0.05 55.1 -1.3 52.9 -2.0 L47.55 -3.7 Q44.85 -4.6 43.15 -4.7 L41.55 -5.05 41.5 -5.0 41.35 -5.0 36.2 -5.7 29.15 -6.05 23.1 -6.2 17.15 -6.65 M42.0 8.0 L38.95 10.4 40.9 9.05 42.55 7.9 42.0 7.95 42.0 8.0 M34.0 8.9 L33.95 8.9 31.35 11.3 30.85 11.3 30.75 11.0 Q30.75 10.65 31.8 9.6 L32.55 9.0 31.65 9.05 29.1 11.8 28.85 11.8 28.75 11.6 Q28.75 11.25 30.05 10.0 L31.15 9.1 29.95 9.15 30.0 9.35 27.25 11.1 27.2 11.05 Q28.45 9.6 29.3 9.2 L28.05 9.3 27.45 9.35 26.65 10.3 25.4 11.7 25.1 11.6 26.75 9.45 21.7 9.65 15.7 9.95 9.65 10.25 4.1 10.5 -1.6 10.5 -8.0 10.35 -14.1 10.0 -20.1 9.7 -26.2 9.4 -32.2 8.8 -33.1 8.75 -32.15 9.5 -32.95 9.35 -33.7 8.7 -35.35 8.6 -32.95 10.1 Q-33.85 10.15 -35.45 9.25 L-36.7 8.45 -38.35 8.3 -39.15 8.25 -37.9 8.95 -34.75 10.95 -34.75 11.05 -35.35 10.9 Q-36.6 10.9 -38.25 9.85 L-40.2 8.15 -42.15 7.95 -40.35 8.95 Q-36.75 11.15 -32.9 12.65 L-34.7 10.75 Q-34.55 10.6 -34.3 10.6 -33.05 12.3 -31.45 13.1 L-31.65 13.1 -28.35 14.15 Q-24.4 15.3 -20.25 15.85 L-12.9 16.6 -12.9 16.55 -12.45 15.35 Q-12.05 14.65 -12.05 15.55 L-12.25 16.65 -10.8 16.75 -7.8 16.9 -8.8 15.3 -8.8 15.1 Q-7.85 15.0 -7.6 15.85 L-7.25 16.9 -2.15 17.0 6.25 17.0 19.65 16.05 Q25.6 15.35 31.25 13.6 L31.25 13.5 Q31.25 13.3 33.5 12.15 35.7 11.1 35.75 11.9 L37.35 11.2 37.3 11.2 37.25 11.05 Q37.25 10.65 39.15 9.3 40.2 8.5 40.95 8.1 L39.7 8.3 39.2 8.4 39.2 8.45 37.05 10.35 37.0 10.3 Q37.65 9.4 38.8 8.45 L38.25 8.55 38.25 8.6 36.4 9.85 Q34.55 10.9 34.2 10.8 L34.2 10.75 32.75 11.55 32.2 11.3 36.05 8.75 34.0 8.9 M30.7 12.25 Q30.7 12.45 28.15 13.85 L28.0 13.75 Q28.0 13.2 28.9 12.65 L30.55 11.85 30.7 12.25 M36.15 9.25 L37.2 8.65 36.9 8.7 36.15 9.25 M21.6 11.8 Q21.6 11.6 22.9 10.75 24.3 9.85 24.8 9.85 L24.9 10.1 21.65 11.95 21.6 11.8 M21.9 9.85 L22.05 9.9 22.1 10.05 20.95 11.2 Q19.8 12.25 19.45 12.35 L19.35 12.25 20.7 10.9 21.9 9.85 M23.35 13.35 Q23.35 13.8 20.85 14.55 L22.05 13.6 Q22.8 13.0 23.2 13.05 L23.35 13.35 M25.9 13.65 Q24.5 14.45 23.85 14.45 25.25 12.75 26.2 12.15 27.3 11.4 27.3 12.55 L25.9 13.65 M12.65 11.3 L11.2 12.85 11.1 12.85 11.85 11.65 12.55 10.9 12.65 11.3 M19.7 9.95 L19.75 10.2 Q17.9 13.0 16.85 12.75 17.15 11.95 17.95 11.15 L19.7 9.95 M17.3 10.45 L17.35 10.55 15.6 12.0 16.25 10.95 Q16.9 10.2 17.3 10.45 M-39.5 -0.2 L-38.05 0.55 Q-37.0 1.05 -36.85 1.3 L-36.95 1.6 -38.55 0.8 -39.6 0.1 -39.55 -0.2 -39.5 -0.2 M-28.85 11.95 L-29.5 11.3 Q-29.0 11.35 -28.65 11.8 L-28.85 11.95 M-30.0 12.35 Q-31.1 12.35 -32.25 10.85 -31.9 10.6 -31.1 11.2 L-29.85 12.25 -29.85 12.3 -30.0 12.35 M-29.0 10.8 Q-30.25 10.8 -30.35 9.2 -29.5 10.2 -28.5 10.6 -28.6 10.8 -29.0 10.8 M-26.4 9.55 L-26.35 9.55 Q-26.0 9.6 -25.8 9.9 L-25.55 10.5 -25.65 10.55 -25.95 10.0 -26.4 9.55 M-35.25 1.2 L-36.65 0.55 -36.6 0.35 -35.8 0.65 -35.2 1.1 -35.25 1.2 M-38.85 2.2 L-38.85 2.3 -39.0 2.35 -39.75 1.8 -40.35 1.1 -40.25 1.05 -39.45 1.55 -38.85 2.2 M-24.6 14.85 L-26.05 14.3 Q-26.45 14.15 -26.45 13.85 L-26.4 13.6 -24.4 14.7 -24.6 14.85" fill="#5a493f" fill-rule="evenodd" stroke="none"/>
  </g>
</svg>
