<?xml version="1.0" encoding="UTF-8" standalone="no"?>
<svg xmlns:xlink="http://www.w3.org/1999/xlink" height="44.5px" width="121.25px" xmlns="http://www.w3.org/2000/svg">
  <g transform="matrix(1.0, 0.0, 0.0, 1.0, 59.4, 10.95)">
    <path d="M40.1 -7.2 Q60.85 -2.9 60.85 -0.05 60.85 1.5 57.8 3.1 L57.45 3.3 58.05 3.4 Q61.85 4.25 61.85 5.25 L61.1 5.3 Q59.75 5.2 57.5 6.0 56.95 6.15 55.45 6.95 L54.4 7.5 Q55.55 10.15 55.4 14.25 55.4 15.65 57.0 21.4 58.6 27.1 58.6 29.3 L58.6 31.75 Q58.35 33.35 56.75 33.35 52.5 33.35 51.45 23.95 50.9 12.75 50.0 9.15 L43.8 10.35 37.5 10.75 33.85 10.35 Q33.7 9.9 31.55 9.9 L27.8 10.1 18.55 10.95 14.35 11.2 12.0 11.25 11.65 11.25 9.95 11.3 10.1 11.65 Q10.1 11.95 7.25 12.85 4.2 13.85 2.75 13.85 L2.65 13.85 2.6 15.6 Q2.55 17.3 2.65 18.4 L3.5 24.7 4.0 29.8 Q4.0 30.6 3.4 31.55 2.55 32.75 1.25 32.75 0.0 32.75 -0.25 31.7 L-0.25 30.25 Q-0.45 30.6 -0.45 32.85 L-0.45 33.2 -3.15 33.55 -3.3 33.0 -3.3 31.55 Q-1.5 14.2 -1.5 11.7 L-1.5 11.4 -7.8 10.75 -7.95 10.7 -8.55 10.85 -9.85 11.1 -27.75 8.25 -27.5 9.15 Q-27.5 10.05 -28.45 10.5 -29.7 11.1 -32.85 11.1 L-39.85 10.9 -40.65 11.85 Q-41.25 12.65 -43.85 12.65 -46.35 12.65 -46.7 12.0 L-46.55 11.0 -46.55 10.75 Q-47.9 10.9 -48.65 11.5 L-49.7 12.0 Q-50.2 15.35 -51.15 19.45 -50.0 18.1 -50.0 21.3 -50.0 21.7 -51.75 25.4 -53.55 29.15 -53.75 29.15 L-54.2 29.05 -54.55 28.85 -54.55 28.8 Q-55.5 30.15 -56.5 30.15 -57.55 30.15 -57.8 29.25 L-57.9 28.3 Q-57.9 25.3 -56.55 20.6 L-54.15 13.0 Q-53.5 10.85 -53.3 8.35 L-53.5 8.35 Q-55.3 8.35 -58.15 5.45 -58.15 4.5 -56.5 4.5 L-55.5 4.75 -54.5 5.0 -53.25 4.8 -53.25 4.65 Q-59.4 3.0 -59.4 0.45 -59.4 -4.65 -41.45 -7.5 -29.65 -9.4 -22.05 -9.4 L-21.65 -10.2 Q-21.2 -10.95 -18.0 -10.8 L4.0 -10.8 Q18.45 -11.65 40.1 -7.2 M57.3 -0.05 L57.25 0.0 57.35 -0.05 57.3 -0.05 M54.0 4.65 L52.85 5.05 53.35 5.6 53.45 5.45 54.0 4.65 M49.25 6.25 L49.1 6.05 48.35 6.25 48.35 6.35 49.25 6.25 M2.6 11.5 L4.1 11.3 2.35 11.15 2.6 11.5" fill="#ffffff" fill-rule="evenodd" stroke="none"/>
  </g>
</svg>
