<?xml version="1.0" encoding="UTF-8" standalone="no"?>
<svg xmlns:xlink="http://www.w3.org/1999/xlink" height="27.3px" width="123.55px" xmlns="http://www.w3.org/2000/svg">
  <g transform="matrix(1.0, 0.0, 0.0, 1.0, 61.75, 16.75)">
    <path d="M17.15 -7.65 L17.2 -7.65 23.2 -7.2 23.25 -7.2 29.05 -7.05 29.1 -7.05 35.2 -6.75 41.2 -5.85 41.4 -5.8 41.5 -5.7 43.15 -5.65 47.85 -4.65 53.2 -2.95 Q56.1 -2.0 56.4 -0.25 56.9 1.75 53.25 2.7 L47.3 4.3 41.8 5.55 36.05 6.4 29.9 6.6 24.15 6.85 18.2 7.4 12.3 7.7 6.2 8.0 0.0 7.9 -6.2 7.65 -12.2 7.5 -18.05 7.35 -24.1 7.05 -30.1 6.65 -36.05 6.2 -42.25 5.65 -48.45 4.6 Q-51.6 3.95 -54.35 2.6 -57.45 1.1 -57.1 -0.65 L-57.1 -0.7 Q-56.85 -2.35 -53.65 -3.4 -50.75 -4.35 -47.85 -4.7 L-42.3 -5.35 -36.7 -6.2 -36.65 -6.2 -30.75 -7.0 -24.9 -7.45 -18.85 -7.7 -12.85 -8.0 -12.8 -8.0 -7.05 -8.25 -1.0 -8.1 5.3 -7.65 Q8.3 -7.5 11.2 -7.6 L17.15 -7.65 M17.15 -6.65 L11.25 -6.6 Q8.3 -6.5 5.35 -6.7 L-0.75 -7.2 -6.75 -7.35 -12.75 -7.0 -18.85 -6.7 -25.0 -6.45 -31.2 -6.1 -36.9 -5.25 -42.2 -4.3 -48.5 -3.7 Q-52.15 -3.4 -54.4 -2.5 -56.65 -1.55 -56.0 0.05 -56.15 0.6 -53.9 1.7 -51.3 2.95 -48.25 3.6 L-42.15 4.65 -36.15 5.35 -30.4 6.0 -24.35 6.3 -17.75 6.5 -11.65 6.75 -5.85 6.75 0.05 6.9 6.15 7.0 12.65 6.85 18.8 6.65 24.25 5.95 29.95 5.6 35.95 5.4 41.6 4.55 47.05 3.35 53.0 1.75 Q55.5 1.05 55.4 -0.05 55.1 -1.3 52.9 -2.0 L47.55 -3.7 Q44.85 -4.6 43.15 -4.7 L41.55 -5.05 41.5 -5.0 41.35 -5.0 36.2 -5.7 29.15 -6.05 23.1 -6.2 17.15 -6.65 M3.0 -10.35 L9.15 -10.15 15.3 -10.0 21.5 -9.8 27.35 -9.45 33.1 -8.95 39.05 -8.15 45.05 -7.5 45.1 -7.5 51.5 -6.5 55.8 -5.35 Q58.7 -4.7 60.55 -2.7 62.6 -0.45 61.25 1.75 L61.2 1.8 Q59.95 3.75 57.05 4.55 L51.5 6.2 45.55 7.45 39.7 8.3 34.0 8.9 28.05 9.3 21.7 9.65 15.7 9.95 9.65 10.25 4.1 10.5 -1.6 10.5 -8.0 10.35 -14.1 10.0 -20.1 9.7 -26.2 9.4 -32.2 8.8 -38.35 8.3 -44.35 7.65 -50.55 6.45 -56.85 4.7 Q-60.0 3.65 -61.2 1.75 -62.6 -0.4 -60.5 -2.4 -58.55 -4.2 -55.7 -5.05 L-50.15 -6.45 -50.1 -6.45 -44.45 -7.3 -38.65 -8.3 -32.85 -9.2 -26.9 -9.7 -26.85 -9.7 -21.35 -10.0 -15.5 -10.3 -8.95 -10.5 -8.9 -10.5 -3.05 -10.4 3.0 -10.35 M8.9 -9.45 L3.0 -9.35 -3.05 -9.4 -8.95 -9.5 -15.05 -9.5 -20.9 -9.2 -26.8 -8.7 -32.8 -8.15 -39.2 -7.35 -45.0 -6.35 -49.95 -5.45 -55.4 -4.1 Q-58.05 -3.3 -59.8 -1.65 -61.15 -0.45 -60.5 0.9 L-59.35 -0.8 -59.05 -0.4 -59.65 0.5 -60.2 1.4 -59.5 2.2 -59.25 1.65 Q-58.9 1.1 -58.0 1.2 L-57.9 1.5 -58.5 1.9 -59.1 2.5 Q-58.1 3.25 -56.55 3.75 L-50.3 5.5 -44.25 6.65 -44.2 6.65 -38.25 7.3 -32.15 7.8 -26.1 8.4 -20.5 8.75 -14.45 9.0 -8.0 9.35 -7.95 9.35 -2.0 9.7 Q0.9 9.95 3.6 9.65 L9.6 9.25 15.6 8.95 21.7 8.65 27.95 8.3 33.9 8.0 39.45 7.6 45.3 6.7 51.2 5.25 56.75 3.6 56.8 3.6 57.35 3.45 Q57.05 3.35 56.9 2.7 L56.75 1.95 Q56.75 1.3 56.95 1.2 57.55 1.45 57.7 2.9 L57.65 3.35 Q58.75 2.9 59.5 2.3 L59.0 1.65 58.5 0.7 Q58.5 0.45 58.75 0.35 L60.0 1.8 60.35 1.3 61.0 0.5 Q61.6 -0.25 60.0 -1.95 58.45 -3.7 55.6 -4.35 L51.2 -5.55 45.0 -6.5 44.95 -6.5 38.85 -7.15 32.8 -8.0 26.6 -8.55 20.95 -8.95 14.95 -9.3 8.9 -9.45" fill="#5a493f" fill-rule="evenodd" stroke="none"/>
    <path d="M4.15 -14.7 L5.9 -15.0 8.5 -14.85 15.85 -14.05 22.75 -13.6 Q25.8 -13.3 25.65 -11.85 28.05 -10.95 33.45 -9.3 37.9 -7.8 39.0 -6.9 L43.95 -4.1 Q47.65 -2.1 47.65 -1.15 47.65 -0.2 46.75 -0.2 L46.1 -0.45 45.35 -0.7 32.95 0.35 23.4 1.4 Q21.4 1.4 20.85 0.85 L20.7 0.25 19.75 0.25 8.3 0.75 4.45 0.75 Q5.05 0.7 4.45 0.6 L3.95 0.5 -0.1 0.75 -9.55 0.95 -15.1 1.05 Q-14.95 0.95 -15.45 0.75 L-15.9 0.6 -22.4 1.35 -31.0 2.05 Q-32.75 2.05 -33.3 0.9 -33.7 0.15 -33.45 -0.9 L-36.4 -0.3 -42.1 0.25 Q-44.15 0.25 -44.4 -0.15 -44.55 -0.35 -44.3 -0.85 L-44.3 -0.9 -45.95 -0.65 Q-47.0 -0.65 -47.45 -1.1 L-47.75 -1.75 Q-47.75 -2.2 -43.55 -5.4 -39.1 -8.75 -37.6 -8.75 L-36.9 -8.5 -36.75 -8.25 -30.4 -9.65 -29.55 -9.85 Q-30.05 -10.15 -30.1 -10.8 -30.1 -11.3 -26.9 -12.3 -23.25 -13.4 -22.15 -14.4 L-20.0 -15.05 -17.95 -15.45 -15.95 -16.05 -14.15 -16.65 Q-12.45 -17.0 -11.95 -15.9 L-10.0 -16.1 -6.85 -15.5 2.4 -14.95 3.95 -14.7 4.15 -14.7 M0.8 -1.45 L-1.9 -1.1 -2.15 -1.05 5.5 -1.45 0.8 -1.45 M-25.2 -1.65 L-24.15 -1.8 -23.9 -1.8 -23.7 -1.85 -25.1 -1.7 -25.2 -1.65 M-14.65 -1.4 L-14.4 -1.45 -14.9 -1.4 -14.65 -1.4" fill="#ffffff" fill-rule="evenodd" stroke="none"/>
    <path d="M1.35 -13.5 L1.35 -13.4 8.35 -14.05 Q19.25 -14.05 29.75 -11.25 40.65 -8.3 43.1 -4.3 44.95 -4.45 46.7 -3.05 48.25 -1.8 48.25 -1.0 48.25 0.15 37.5 2.3 27.5 4.25 24.6 4.25 20.95 4.25 20.75 3.65 20.55 3.0 18.35 3.0 15.3 3.0 12.25 4.7 9.25 6.35 8.5 6.35 7.25 6.35 6.95 5.55 L6.9 4.6 -7.25 5.0 Q-16.5 5.0 -26.65 5.3 -32.3 5.25 -33.25 3.75 L-33.5 2.5 -35.1 3.65 -37.5 4.0 Q-42.0 4.0 -43.15 3.0 -43.5 2.7 -43.5 1.75 -43.5 0.45 -42.75 -0.75 L-42.8 -0.8 -44.4 0.15 Q-44.95 0.6 -46.25 0.6 -48.55 0.6 -48.55 -0.95 L-48.15 -1.7 -47.8 -2.4 -48.05 -3.15 -48.3 -3.85 Q-48.3 -5.2 -37.2 -9.05 -26.45 -12.8 -23.85 -12.8 -22.35 -12.8 -21.9 -12.4 L-21.3 -12.0 Q-8.0 -15.0 -4.25 -15.5 L1.45 -15.15 1.35 -13.5 M-32.5 -5.1 L-30.3 -5.9 -33.8 -4.8 -34.5 -4.5 -32.5 -5.1" fill="#006699" fill-opacity="0.3019608" fill-rule="evenodd" stroke="none"/>
    <path d="M2.55 -4.75 Q2.9 -5.75 4.6 -5.75 L9.15 -4.5 Q13.1 -3.3 14.15 -3.3 14.5 -3.3 14.95 -3.6 L15.75 -3.9 17.05 -3.45 Q17.95 -3.0 18.4 -3.0 18.85 -3.0 19.6 -4.0 20.3 -5.05 21.25 -5.05 L27.3 -4.6 Q27.85 -4.1 29.6 -4.05 L30.75 -5.9 Q31.7 -7.5 33.1 -7.5 35.15 -7.5 41.25 -5.0 47.25 -2.55 47.25 -1.9 47.25 0.1 43.6 -0.55 L43.95 1.15 Q43.85 2.35 42.25 2.35 L35.3 1.65 32.25 0.75 Q32.6 1.5 34.35 2.95 35.85 4.2 35.85 4.9 L35.6 5.85 Q35.2 6.6 34.25 6.6 33.7 6.6 30.1 5.05 26.55 3.5 26.1 3.5 25.55 3.5 25.15 4.35 24.8 5.15 23.75 5.15 22.65 5.15 22.15 4.65 L21.25 3.4 20.95 4.4 Q20.55 5.15 19.5 5.15 18.0 5.15 16.7 3.9 15.4 2.6 14.85 2.6 13.7 2.6 12.75 4.15 11.85 5.65 10.5 5.65 9.1 5.65 8.65 4.7 L8.4 3.6 7.75 3.6 Q7.9 4.45 7.7 5.1 7.4 6.4 5.75 6.4 L3.8 5.9 Q2.4 5.35 0.25 5.35 L1.35 5.25 Q-5.3 5.25 -8.75 4.2 -12.2 3.1 -20.1 3.1 L-26.15 3.55 -29.1 4.0 -31.65 4.25 Q-34.5 4.15 -36.05 2.5 -37.8 0.7 -40.75 2.8 -41.85 3.6 -42.2 3.35 -42.75 3.05 -42.75 0.65 L-44.4 1.1 -47.0 1.5 Q-48.4 1.5 -48.85 0.8 L-49.0 0.05 Q-49.0 -1.0 -46.0 -4.0 -42.25 -7.75 -38.25 -7.75 -37.9 -7.75 -37.8 -7.45 L-37.4 -7.15 -35.25 -7.9 Q-34.0 -8.3 -34.0 -6.75 -34.0 -5.8 -37.2 -4.4 L-43.0 -1.9 -34.1 -4.6 Q-26.75 -6.8 -25.25 -6.8 L-23.05 -6.6 -21.5 -6.4 Q-19.8 -6.4 -19.45 -5.9 L-19.25 -5.15 -18.4 -5.55 -17.1 -6.0 Q-15.6 -6.0 -15.25 -5.1 L-15.15 -4.05 -13.7 -4.65 -12.6 -5.0 Q-11.15 -5.0 -11.0 -4.5 -10.85 -4.0 -8.0 -4.0 L-5.75 -3.7 2.4 -3.3 2.55 -4.75" fill="#006699" fill-opacity="0.3019608" fill-rule="evenodd" stroke="none"/>
    <path d="M29.75 -5.15 L30.25 -5.05 22.75 -8.1 Q19.4 -9.45 19.4 -10.5 19.4 -12.05 24.1 -11.65 28.35 -11.25 34.4 -9.5 49.35 -5.15 49.35 -1.3 49.35 0.35 41.35 1.35 L31.0 2.1 Q29.95 2.1 29.0 2.7 28.0 3.25 27.25 3.25 L26.55 3.0 Q26.2 2.75 25.9 2.75 L16.5 4.0 Q8.05 4.4 -1.25 4.4 L-8.5 4.4 -3.35 4.75 -14.95 3.8 -23.25 3.0 -27.65 3.75 -35.25 4.5 -37.35 4.05 -40.25 3.6 Q-42.3 3.6 -42.75 2.8 L-42.8 1.95 Q-42.95 0.85 -42.15 0.5 -48.4 1.65 -48.4 -1.65 -48.4 -4.8 -23.1 -10.65 -21.8 -10.65 -21.4 -9.95 -21.25 -9.7 -21.25 -9.2 -21.25 -8.5 -21.75 -8.15 -22.45 -7.6 -24.9 -6.65 L-25.05 -6.55 -19.35 -8.0 Q-14.5 -9.25 -11.6 -9.25 -9.65 -9.25 -9.05 -8.3 L-8.9 -7.4 Q-8.9 -6.05 -10.25 -5.85 L-17.0 -5.0 -17.0 -3.9 Q-17.0 -3.3 -17.15 -3.05 -17.35 -2.55 -18.05 -2.25 L-5.85 -1.6 Q-5.2 -1.35 -5.35 -0.85 L-5.75 0.1 6.4 0.7 6.35 1.3 8.5 1.6 18.35 0.7 25.15 -0.4 21.95 -3.4 Q19.9 -5.1 19.9 -6.25 19.9 -6.9 20.4 -7.3 L22.0 -7.8 29.75 -5.15 M37.4 -4.7 L37.9 -4.15 38.35 -3.8 39.75 -4.15 37.4 -4.7 M30.5 -1.55 L31.35 -1.25 31.5 -1.4 30.5 -1.55 M41.3 -2.85 Q41.45 -2.2 41.25 -1.9 L41.25 -1.75 42.75 -2.0 43.75 -2.65 42.1 -3.4 40.6 -3.8 40.65 -3.75 41.3 -2.85 M-35.65 -0.15 Q-34.25 -0.15 -32.25 -1.15 L-33.75 -1.0 -35.65 -0.15" fill="#006699" fill-opacity="0.3019608" fill-rule="evenodd" stroke="none"/>
    <path d="M18.25 -12.1 L14.25 -12.65 9.55 -13.15 0.75 -13.5 Q-3.7 -13.6 -8.05 -13.35 L-15.5 -12.65 -20.45 -12.15 -25.3 -11.2 -27.45 -10.85 -29.65 -10.3 -32.05 -9.7 -34.4 -9.05 -38.1 -7.75 -41.85 -6.2 -44.55 -4.55 -46.05 -3.45 -48.8 -1.3 -49.75 -0.55 -46.3 -0.35 -45.15 -0.05 Q-44.25 0.2 -43.7 0.55 -42.9 1.0 -41.85 2.05 L-40.65 3.3 -38.55 2.7 -33.15 2.05 Q-30.15 2.0 -28.65 3.1 L-28.2 3.5 -28.45 2.75 -28.5 1.95 -28.45 0.75 -28.2 0.75 Q-27.85 1.3 -27.75 2.0 L-27.75 3.25 -27.85 3.75 -27.95 3.8 -27.65 4.2 Q-27.2 3.55 -23.6 3.0 L-18.15 2.5 Q-15.75 2.35 -14.0 3.3 L-12.8 4.25 Q-11.65 3.65 -7.25 3.4 L-5.7 3.3 -5.7 3.2 -5.4 1.95 Q-5.1 2.35 -5.1 3.3 L-1.9 3.25 -2.05 3.0 -2.5 2.45 Q-2.05 2.2 -1.6 2.6 -1.2 2.9 -1.2 3.15 L-1.2 3.25 0.3 3.35 3.85 4.2 Q5.35 4.55 7.0 5.3 9.1 4.05 10.6 3.45 12.7 2.65 15.5 2.45 L20.35 2.65 21.9 3.85 Q22.85 3.3 25.7 2.85 L29.1 2.5 28.95 1.85 Q29.45 1.5 29.45 2.05 L29.4 2.45 31.35 2.35 Q35.4 3.0 35.85 4.2 L35.8 4.4 35.6 4.5 34.05 3.8 Q32.55 3.1 29.3 3.1 26.2 3.1 24.1 3.8 L22.6 4.45 22.8 4.65 22.35 4.7 22.1 4.65 21.75 4.75 21.4 4.4 21.45 4.3 21.05 4.05 Q20.15 3.4 17.3 3.4 13.3 3.4 10.6 4.3 L7.6 5.7 7.35 5.95 7.2 5.95 7.1 5.95 7.05 5.9 3.25 4.8 Q-0.7 3.6 -4.15 3.6 L-5.1 3.6 -5.1 3.65 -5.3 3.85 -5.6 3.65 -10.75 4.3 -12.4 4.8 -12.2 5.25 -12.8 5.05 -12.9 5.1 -13.15 5.1 -13.25 4.85 -14.6 4.05 Q-15.65 3.35 -17.5 3.35 L-24.6 3.85 -27.4 4.65 -27.15 5.0 -27.4 5.25 -28.85 4.0 Q-30.0 2.75 -33.25 2.75 L-39.25 3.35 -41.25 3.95 -41.9 3.75 -41.9 3.6 -41.7 3.55 -43.4 1.95 Q-45.75 0.2 -50.65 0.0 -51.1 0.2 -51.15 0.0 L-51.15 -0.05 -51.35 -0.05 -51.45 -0.25 -52.05 0.05 -51.85 -0.15 -51.65 -0.35 -49.75 -1.9 -46.55 -4.25 -44.85 -5.3 -43.1 -6.3 -39.25 -8.15 -35.5 -9.7 -32.05 -10.8 -30.4 -11.25 -26.05 -12.2 -23.95 -12.6 -21.85 -13.0 -19.5 -13.3 -17.25 -13.6 -14.9 -13.85 -12.65 -14.1 -10.35 -14.3 -8.0 -14.5 -5.7 -14.65 -1.5 -14.75 6.2 -14.5 14.3 -13.7 19.85 -13.0 23.85 -12.15 27.75 -11.15 29.9 -10.45 32.05 -9.65 34.05 -8.95 35.95 -8.3 39.9 -7.15 43.75 -5.5 47.65 -3.65 50.2 -2.2 Q51.15 -1.55 51.35 -0.6 L51.2 -0.15 50.5 -0.35 Q49.4 -0.9 48.55 -1.8 L46.15 -3.6 Q44.3 -4.45 42.45 -5.1 L38.85 -6.6 36.85 -7.2 34.8 -7.85 32.8 -8.4 30.65 -8.95 27.65 -9.85 24.95 -10.65 21.6 -11.6 18.25 -12.1 M50.05 -0.25 L50.6 0.15 50.5 0.4 49.9 0.5 47.55 0.3 Q43.45 0.3 39.55 2.0 37.95 2.7 36.1 3.95 L35.9 3.95 35.85 3.75 35.95 3.4 Q34.8 3.05 33.85 2.05 L32.2 0.25 32.25 0.15 Q33.1 0.45 34.35 1.6 L36.1 3.2 Q36.75 2.35 39.4 1.2 43.25 -0.5 46.85 -0.5 L50.05 -0.25 M37.2 2.0 Q36.65 1.95 36.35 1.5 L36.2 0.95 Q36.2 0.4 36.5 0.25 36.85 0.55 37.2 2.0 M8.45 1.6 L8.35 1.75 8.2 1.9 8.45 3.0 8.25 3.25 7.8 2.8 7.75 2.3 7.8 1.45 8.4 1.45 8.45 1.6 M7.25 3.9 L5.8 3.35 4.95 2.5 5.05 2.45 Q5.45 2.85 7.4 3.7 L7.25 3.9 M-40.85 -0.3 L-41.2 2.5 -41.3 2.5 -41.4 1.3 -41.2 0.0 -41.1 -1.4 -40.95 -1.4 -40.85 -0.3 M-11.9 2.2 L-11.95 2.7 -12.15 2.85 -12.45 2.2 -12.4 1.75 -12.15 1.7 -11.9 2.2 M-23.55 1.35 L-24.15 1.9 -24.85 2.4 -24.95 2.2 -24.7 1.65 Q-24.35 1.25 -23.75 1.25 L-23.55 1.35 M-25.9 0.25 L-26.45 1.85 -26.55 1.95 Q-26.95 1.6 -26.95 1.05 L-26.85 0.6 -26.25 0.05 Q-25.9 0.2 -25.9 0.25 M-39.3 0.35 L-39.3 1.25 -39.4 1.35 -39.6 1.4 -39.7 1.3 -39.7 0.2 -39.5 0.2 -39.3 0.35 M-36.25 0.6 L-38.05 2.0 Q-36.95 0.35 -36.25 0.6" fill="#5a493f" fill-rule="evenodd" stroke="none"/>
  </g>
</svg>
