<?xml version="1.0" encoding="UTF-8" standalone="no"?>
<svg xmlns:xlink="http://www.w3.org/1999/xlink" height="153.3px" width="122.5px" xmlns="http://www.w3.org/2000/svg">
  <g transform="matrix(1.0, 0.0, 0.0, 1.0, -531.6, -95.45)">
    <path d="M627.85 96.25 L640.0 96.1 640.0 165.35 645.65 160.65 Q654.1 154.2 654.1 158.0 654.1 161.05 630.9 187.3 618.9 200.9 612.1 207.5 L611.6 219.85 611.65 235.3 Q610.85 248.75 606.85 248.75 602.9 248.75 602.1 234.6 L602.1 220.1 602.1 213.45 601.1 213.25 600.4 212.8 Q600.2 212.6 600.15 211.7 L579.85 185.0 568.35 167.15 Q543.55 166.45 536.85 166.5 L532.85 166.55 532.85 161.75 Q532.6 123.5 531.6 104.75 532.6 99.6 533.0 95.45 560.4 95.9 627.85 96.25 M584.6 171.8 Q592.25 181.45 600.95 193.9 L602.2 195.7 602.3 188.45 Q602.65 176.3 603.5 167.9 L581.15 167.5 584.6 171.8 M618.35 168.0 L611.65 168.0 Q612.3 174.95 612.4 184.85 L612.4 193.5 Q618.9 185.95 627.1 177.65 632.35 172.3 636.8 168.25 628.8 168.0 618.35 168.0" fill="url(#gradient0)" fill-rule="evenodd" stroke="none"/>
  </g>
  <defs>
    <linearGradient gradientTransform="matrix(0.0, 0.293, -0.2841, 0.0, 320.0, 240.0)" gradientUnits="userSpaceOnUse" id="gradient0" spreadMethod="pad" x1="-819.2" x2="819.2">
      <stop offset="0.0" stop-color="#9fdfdf"/>
      <stop offset="1.0" stop-color="#ffffff"/>
    </linearGradient>
  </defs>
</svg>
