<?xml version="1.0" encoding="UTF-8" standalone="no"?>
<svg xmlns:xlink="http://www.w3.org/1999/xlink" height="327.1px" width="359.5px" xmlns="http://www.w3.org/2000/svg">
  <g transform="matrix(1.0, 0.0, 0.0, 1.0, 160.5, 38.5)">
    <path d="M63.4 -35.45 L74.1 -32.5 Q78.05 -31.95 88.25 -29.3 L97.85 -26.75 Q105.7 -26.75 129.7 -29.75 L172.3 -32.5 Q183.4 -32.5 186.45 -29.5 187.45 -28.5 187.45 -25.75 187.45 -25.25 177.25 -16.0 166.35 -6.1 161.85 -3.25 167.3 -4.6 170.1 -1.65 172.05 0.4 172.05 3.0 172.05 5.65 169.05 9.0 165.4 13.05 159.5 15.0 163.9 16.05 169.05 22.7 173.85 28.9 173.85 31.75 173.85 35.95 173.15 37.8 171.25 42.5 165.0 42.5 L162.05 41.15 Q159.05 39.75 158.7 39.75 157.55 39.75 151.7 42.15 145.9 44.5 144.1 44.5 141.05 44.5 138.45 42.65 L136.1 40.75 Q133.4 40.75 126.0 44.15 118.65 47.5 116.9 47.5 113.35 47.5 111.25 45.9 109.3 44.45 109.1 42.25 L102.4 45.25 Q97.5 47.5 96.0 47.5 90.05 47.5 89.5 43.3 89.8 38.55 88.7 37.5 L77.9 39.4 57.35 40.5 20.45 38.9 2.9 37.25 -22.5 38.65 Q-37.35 40.0 -70.4 40.0 -71.7 40.0 -76.25 41.15 L-82.15 42.25 Q-88.75 42.25 -90.55 39.55 -91.5 38.2 -91.3 36.25 L-103.65 41.2 Q-112.9 45.0 -114.0 45.0 -117.2 45.0 -119.05 42.65 L-120.55 40.25 Q-124.85 40.25 -129.9 42.65 -134.95 45.0 -139.6 45.0 -146.25 45.0 -148.05 42.1 -148.9 40.6 -148.5 38.85 -148.5 37.6 -147.3 34.35 -146.15 31.1 -146.15 29.85 -146.15 28.0 -149.4 25.05 -152.7 22.05 -152.7 20.1 -152.7 17.35 -149.4 14.45 -146.15 11.55 -146.15 10.0 -146.15 8.25 -149.9 -3.9 L-153.75 -15.85 Q-153.75 -22.6 -147.7 -23.25 -149.15 -27.25 -147.6 -29.45 -145.0 -33.2 -134.15 -29.75 -117.05 -24.35 -99.9 -28.4 L-86.25 -32.05 Q-78.3 -34.0 -71.7 -34.0 -63.55 -34.0 -62.7 -30.5 -62.45 -29.4 -62.95 -28.05 L-63.6 -26.75 Q-32.15 -30.75 -0.3 -35.3 21.4 -37.95 52.15 -38.5 L63.4 -35.45 M137.3 12.25 Q154.75 2.55 159.75 -1.75 L149.15 4.35 Q140.15 9.65 137.3 12.0 L137.3 12.25 M-136.2 -5.25 L-136.2 -3.75 -134.5 -4.05 -132.55 -4.5 -131.5 -4.75 -136.2 -5.25 M-93.4 14.25 Q-96.3 14.75 -101.5 17.0 -107.5 19.55 -108.55 21.5 L-109.05 22.0 Q-107.25 21.5 -101.55 18.8 L-92.35 14.25 -92.55 14.15 -93.4 14.25" fill="#cc6666" fill-opacity="0.3019608" fill-rule="evenodd" stroke="none"/>
    <path d="M86.2 -20.0 Q86.1 -20.4 84.55 -21.0 82.65 -19.35 82.75 -8.7 82.8 -3.0 83.2 6.25 L83.45 11.8 Q83.75 16.85 84.25 19.75 L84.65 19.75 Q86.0 12.7 85.8 -0.15 85.55 -14.5 86.2 -20.0 M86.2 -27.75 L85.9 -25.65 Q85.55 -24.15 85.55 -23.6 L86.1 -23.15 87.15 -23.0 Q87.8 -23.0 87.9 -23.5 88.1 -24.0 88.7 -24.0 L89.65 -23.7 Q89.8 -23.45 90.0 -23.5 88.9 -24.75 88.7 -25.35 L92.5 -27.6 92.75 -27.7 93.25 -25.75 Q93.65 -24.25 94.45 -23.5 101.4 -25.2 106.15 -27.6 107.75 -28.35 112.6 -31.45 118.9 -35.5 130.5 -35.5 145.1 -35.5 146.65 -30.55 147.05 -29.2 146.6 -26.45 146.2 -23.9 146.7 -23.0 L146.7 -22.5 Q164.2 -22.5 177.75 1.75 182.2 9.75 185.4 19.05 188.0 26.4 188.0 28.25 188.0 36.35 177.0 39.55 165.3 43.0 134.7 43.0 132.1 43.0 127.35 40.75 122.65 38.5 120.05 38.5 L98.25 40.05 86.6 41.0 Q84.15 41.0 80.5 37.5 L76.7 34.0 28.6 36.0 Q26.55 36.15 14.55 41.1 2.75 46.0 0.95 46.0 -3.55 46.0 -11.4 41.0 -19.25 36.0 -22.6 36.0 -35.7 36.0 -47.5 41.25 L-55.45 44.85 Q-59.55 46.5 -62.8 46.5 L-67.1 46.0 -76.1 43.95 Q-83.15 41.75 -87.2 38.35 L-88.25 32.3 -88.7 32.3 -87.9 37.75 Q-90.9 35.0 -92.05 31.5 L-110.85 38.95 Q-127.15 45.5 -130.75 45.5 L-137.55 44.5 Q-137.55 44.2 -138.05 43.2 -138.6 42.2 -138.6 39.25 -138.6 37.9 -135.7 33.25 -132.85 28.65 -132.85 28.0 -132.85 24.0 -137.15 22.1 -139.7 20.95 -146.65 19.85 -153.55 18.75 -156.2 17.55 -160.5 15.6 -160.5 11.5 -160.5 8.5 -160.05 7.6 -159.55 6.75 -157.4 5.95 -147.25 2.2 -138.6 -3.0 -138.8 -3.45 -143.8 -4.7 -149.6 -6.15 -152.15 -7.5 L-152.4 -7.1 Q-152.7 -7.35 -152.7 -10.5 -152.7 -13.45 -150.85 -15.0 L-147.45 -18.0 Q-150.6 -18.75 -153.5 -20.3 -156.45 -21.85 -156.85 -23.0 -156.8 -26.0 -154.7 -28.35 -150.75 -33.0 -139.1 -33.0 -136.1 -33.0 -115.8 -29.25 -95.5 -25.5 -90.0 -25.5 -84.05 -25.5 -76.85 -30.0 -69.65 -34.5 -64.9 -34.5 -57.6 -34.5 -52.2 -31.5 -46.9 -28.5 -38.8 -28.5 -35.45 -28.5 -26.45 -31.75 -17.5 -35.0 -14.75 -35.0 -4.7 -35.0 -3.8 -30.25 -3.5 -28.75 -4.15 -26.55 L-4.8 -24.0 -3.75 -23.6 -3.8 -19.5 -3.15 -6.3 -2.2 5.05 -1.45 4.8 Q-0.7 -3.35 -0.45 -19.5 L-0.3 -23.05 2.0 -23.0 Q5.0 -23.0 26.65 -29.6 47.65 -36.05 54.2 -35.5 56.05 -30.25 54.75 -26.5 L53.7 -25.5 Q60.3 -24.1 70.75 -27.3 79.95 -30.15 84.35 -30.8 L84.85 -29.95 86.2 -27.75 M159.45 7.4 Q160.95 9.15 162.4 9.5 162.9 8.5 162.9 3.0 L162.9 2.5 Q161.2 2.5 157.7 4.5 158.15 5.85 159.45 7.4 M3.55 -10.5 Q0.95 -8.1 1.4 -1.4 1.65 2.35 2.45 9.75 L2.7 14.95 Q3.0 19.65 3.55 22.25 L4.0 22.0 Q4.4 19.25 4.6 14.75 L4.8 9.75 5.6 -0.8 Q5.85 -7.65 3.55 -10.5 M-80.3 -3.5 L-81.1 -3.5 -81.35 18.0 -81.35 18.6 -82.05 18.55 Q-84.25 18.65 -84.25 20.35 -84.25 21.75 -82.95 23.3 L-81.3 22.25 Q-81.25 34.3 -80.6 40.55 L-80.3 40.3 Q-80.0 35.55 -79.85 26.8 L-79.8 18.0 Q-79.8 3.55 -80.3 -3.5" fill="#cc6666" fill-opacity="0.3019608" fill-rule="evenodd" stroke="none"/>
    <path d="M23.9 -8.5 Q35.95 -8.5 37.6 -0.1 38.5 4.25 37.0 10.5 L37.0 11.5 Q39.6 8.85 40.35 5.0 40.75 2.9 40.95 -0.95 41.5 -3.95 43.65 -5.3 46.5 -7.0 53.2 -7.0 56.95 -7.0 64.3 -3.25 71.7 0.5 73.3 0.5 76.95 0.5 82.85 -9.0 L92.8 -25.3 Q98.45 -33.1 102.2 -30.2 L103.7 -28.5 103.5 -25.1 103.4 -15.55 103.45 -3.4 Q103.65 5.1 104.4 6.8 L104.7 6.55 Q105.2 -0.85 105.2 -15.55 L105.05 -26.1 Q108.0 -19.85 110.15 -5.5 115.4 -4.85 125.95 -1.15 L126.4 3.05 Q126.4 15.05 126.9 21.05 L127.9 21.0 128.2 2.9 128.2 -0.35 129.35 0.05 130.05 0.3 130.25 4.25 130.75 4.05 131.05 0.65 Q141.8 4.5 145.65 4.5 145.7 1.0 147.3 -2.35 150.3 -9.0 157.7 -9.0 158.55 -9.0 169.1 8.2 179.6 25.25 179.6 26.0 179.6 31.4 175.5 36.55 168.65 45.0 153.5 45.0 150.9 45.0 140.7 42.5 130.5 40.0 127.9 40.0 120.4 40.0 113.95 41.4 L102.1 44.5 98.7 45.35 98.3 45.25 69.4 41.55 Q47.95 37.65 31.95 41.1 18.1 45.55 11.7 45.55 L9.2 45.15 6.7 44.75 -0.4 44.15 -3.25 43.8 Q-8.25 43.8 -11.15 42.9 L-13.25 42.25 Q-20.65 36.65 -20.5 26.5 L-21.5 29.0 Q-22.2 31.1 -23.15 32.35 -26.25 36.5 -34.6 36.5 -39.4 36.5 -43.25 33.75 L-46.6 31.0 Q-49.6 31.0 -54.2 33.75 -58.75 36.5 -61.75 36.5 -64.4 36.5 -67.5 34.5 -70.65 32.5 -73.25 32.5 -74.55 32.5 -80.25 34.5 -87.95 36.5 -98.85 36.5 -101.5 36.5 -107.5 38.25 -113.5 40.0 -116.1 40.0 L-121.0 43.25 Q-125.85 46.5 -128.65 46.5 -136.15 46.5 -145.4 40.05 -153.75 34.2 -153.75 31.5 -153.75 23.1 -150.1 12.0 -144.7 -4.5 -134.9 -4.5 L-133.05 -4.35 -133.1 0.25 -132.8 7.6 -132.05 18.55 -131.5 18.5 Q-131.1 14.65 -130.75 7.6 L-130.5 0.25 -130.5 -3.55 Q-127.9 -2.35 -126.3 0.5 L-123.95 7.0 -122.15 6.25 Q-122.0 13.5 -121.35 18.25 L-120.9 18.0 Q-120.5 11.75 -120.4 5.35 -116.65 3.3 -113.2 0.05 L-105.35 -8.35 Q-100.8 -13.3 -97.0 -15.5 -91.7 -18.5 -84.75 -18.5 -80.4 -18.5 -76.65 -15.5 -73.65 -12.5 -73.25 -12.5 -70.65 -12.5 -68.55 -14.5 -66.45 -16.5 -63.85 -16.5 -58.05 -16.5 -55.25 -11.6 L-55.0 -10.95 -55.0 -5.75 -54.9 5.25 Q-54.65 11.7 -53.65 16.55 L-53.25 16.55 Q-52.05 11.05 -51.75 -5.15 L-51.65 -11.8 -51.55 -12.25 Q-49.65 -18.5 -40.85 -18.5 -37.9 -18.5 -35.7 -17.6 L-35.9 -11.1 -35.6 0.7 -34.85 19.05 -34.45 19.05 Q-34.1 16.0 -33.6 -1.15 L-33.25 -16.2 Q-30.4 -13.9 -29.6 -9.25 -28.8 -4.5 -29.9 1.5 -29.2 1.3 -21.15 -6.85 -13.65 -14.5 -9.5 -14.5 1.2 -14.5 2.35 -6.3 2.95 -1.75 1.45 7.0 3.8 5.6 6.3 2.7 L10.65 -2.45 Q16.2 -8.5 23.9 -8.5 M0.3 47.8 L0.3 47.85 0.1 47.8 0.3 47.8 M77.2 47.8 L78.8 47.95 79.6 48.1 78.35 48.2 78.05 48.15 77.5 48.0 77.2 47.8" fill="#cc6666" fill-opacity="0.3019608" fill-rule="evenodd" stroke="none"/>
    <path d="M135.75 39.0 Q148.35 40.0 148.35 41.9 148.35 43.4 147.25 44.0 145.65 44.85 140.75 44.85 137.3 44.85 133.45 43.8 129.6 42.75 121.3 42.75 L97.55 44.95 49.75 47.1 Q25.75 46.35 4.0 46.0 L-22.1 46.0 -14.85 47.1 Q-12.4 47.45 -11.35 48.25 -11.3 49.5 -11.8 49.8 L-14.5 50.1 -36.2 48.3 -86.25 46.5 -122.4 45.35 -153.15 43.5 -153.25 42.15 -153.5 40.5 Q-153.45 39.75 -152.0 39.35 L-130.25 38.5 -119.15 38.95 Q-107.15 39.4 -77.5 39.5 -61.15 39.55 -61.75 40.65 -62.1 41.3 -61.5 41.4 L-53.4 41.75 Q-6.05 41.75 8.75 40.3 L16.8 39.2 26.75 38.5 Q77.35 37.3 95.6 37.7 L123.0 38.35 135.75 39.0 M-136.65 41.75 L-139.75 41.6 -139.65 41.75 -136.0 41.85 -136.65 41.75" fill="#8d6d3f" fill-opacity="0.3019608" fill-rule="evenodd" stroke="none"/>
    <path d="M138.25 36.1 Q147.85 37.6 147.85 40.5 147.85 41.65 136.75 43.35 L125.5 44.85 117.4 44.3 99.75 43.75 82.1 42.75 Q81.4 42.4 82.0 41.6 L82.8 40.1 11.35 43.5 -26.25 44.5 -62.05 43.25 -84.3 42.0 -95.05 42.8 -108.25 44.25 Q-116.55 45.6 -118.0 46.3 L-141.5 46.35 Q-155.4 43.8 -155.4 43.1 -155.4 42.05 -150.9 40.85 -144.6 39.1 -133.5 39.1 L-107.1 40.25 -104.6 39.95 -101.1 39.35 -101.55 38.95 -101.75 37.85 Q-101.75 36.85 -100.85 36.45 L-98.0 36.1 -93.05 36.85 -75.85 37.6 Q-62.85 37.6 -47.75 36.8 L-26.75 36.0 Q-20.0 36.0 -9.65 37.5 L4.75 39.0 Q15.0 39.0 19.85 37.25 L24.25 35.5 45.45 36.25 58.75 37.0 86.6 35.6 Q100.55 34.4 126.5 34.85 L138.25 36.1" fill="#8d6d3f" fill-opacity="0.3019608" fill-rule="evenodd" stroke="none"/>
    <path d="M-114.65 35.45 Q-114.4 35.6 -114.4 36.35 -114.4 39.6 -119.25 39.6 -142.95 39.6 -149.4 38.15 -151.95 37.55 -152.55 36.6 -152.75 36.3 -152.75 34.85 -152.75 32.05 -149.5 30.65 -146.25 29.3 -146.25 27.75 -146.25 27.1 -148.7 24.15 L-151.15 20.85 Q-148.85 17.75 -146.5 15.8 -141.9 12.0 -141.9 17.35 -141.9 18.9 -142.9 20.25 -137.5 20.2 -136.6 21.7 L-136.75 23.5 Q-134.3 23.2 -133.5 24.3 -133.15 24.75 -133.15 25.55 -133.15 26.35 -133.5 26.7 L-134.15 27.1 Q-129.3 27.15 -127.65 27.85 -126.75 28.25 -126.75 29.0 -126.75 29.8 -128.1 30.3 -130.4 31.2 -132.15 32.5 L-132.9 33.1 -129.75 33.35 -128.25 33.6 Q-127.3 33.6 -126.25 32.6 -125.2 31.6 -124.0 31.6 -121.8 31.6 -121.7 33.35 -121.6 34.2 -122.0 35.25 L-114.9 35.25 -114.65 35.45 M-148.65 34.1 L-147.1 34.65 -145.9 34.75 Q-146.75 33.75 -147.5 33.85 L-148.65 34.1" fill="#8d6d3f" fill-opacity="0.3019608" fill-rule="evenodd" stroke="none"/>
    <path d="M-153.0 28.35 Q-153.0 24.2 -145.3 24.25 -142.35 24.3 -140.05 25.05 -137.65 25.85 -137.65 26.9 -137.65 27.65 -138.05 28.5 L-138.65 29.6 Q-134.05 31.9 -132.85 29.35 -132.4 28.35 -132.0 28.45 -131.35 28.6 -129.4 30.85 L-128.8 31.4 Q-128.4 31.8 -128.4 32.55 -128.4 33.35 -128.6 33.55 L-129.15 33.85 -129.9 34.6 Q-123.3 35.25 -122.45 36.35 -122.15 36.75 -122.3 37.5 L-122.4 38.85 Q-122.5 39.1 -123.5 39.5 -124.65 40.0 -125.5 40.0 -144.7 40.0 -146.25 38.3 -146.65 37.85 -145.85 37.05 -145.2 36.45 -146.0 36.35 -147.95 36.35 -148.1 34.95 -148.2 34.1 -147.65 33.1 -151.6 31.8 -152.55 30.6 -153.0 30.1 -153.0 28.35" fill="#8d6d3f" fill-opacity="0.3019608" fill-rule="evenodd" stroke="none"/>
    <path d="M-38.75 35.55 Q-38.75 36.35 -41.1 38.25 -43.6 40.25 -45.0 40.25 -46.65 40.25 -47.5 39.55 L-48.1 38.85 -50.85 39.0 Q-50.75 42.1 -53.0 42.1 -55.65 42.1 -57.8 41.3 -60.6 40.3 -60.75 38.35 L-61.2 38.2 -62.0 38.0 -72.5 40.35 -73.85 39.0 Q-73.85 37.35 -70.45 36.65 L-63.5 35.1 Q-64.45 34.15 -65.8 33.45 -66.6 33.05 -66.6 32.5 -66.6 26.95 -56.65 26.55 -52.9 26.4 -49.85 27.15 -46.75 27.9 -46.75 29.05 -46.75 30.05 -47.95 31.15 -49.55 32.6 -52.25 32.5 L-52.35 33.6 -52.35 33.85 -50.3 33.25 -48.0 32.75 -45.0 33.0 -42.0 33.25 Q-39.65 33.25 -39.0 34.35 -38.75 34.7 -38.75 35.55" fill="#8d6d3f" fill-opacity="0.3019608" fill-rule="evenodd" stroke="none"/>
    <path d="M-62.35 39.1 Q-62.35 37.95 -60.35 36.25 -58.35 34.55 -55.95 33.75 -49.6 31.65 -49.6 38.5 -49.6 40.1 -51.5 40.1 -53.7 40.1 -53.85 38.8 L-53.6 36.85 -56.3 38.9 Q-58.95 40.85 -60.0 40.85 -61.75 40.85 -62.2 40.05 L-62.35 39.1" fill="#8d6d3f" fill-opacity="0.3019608" fill-rule="evenodd" stroke="none"/>
    <path d="M-54.1 28.5 Q-56.85 31.0 -58.5 31.0 -59.9 31.0 -61.45 30.15 -63.1 29.25 -63.1 28.35 -63.1 26.45 -61.5 25.75 L-57.5 25.25 -54.1 23.75 Q-51.6 22.8 -51.6 25.55 -51.6 26.2 -54.1 28.5" fill="#8d6d3f" fill-opacity="0.3019608" fill-rule="evenodd" stroke="none"/>
    <path d="M17.5 -22.0 Q17.5 -31.5 19.8 -26.75 22.05 -21.95 22.05 -16.55 22.05 -12.75 22.65 -5.25 L23.25 2.3 23.25 5.15 Q23.0 7.25 21.5 7.25 19.05 7.25 18.0 -7.3 17.5 -14.6 17.5 -22.0" fill="#8d6d3f" fill-opacity="0.3019608" fill-rule="evenodd" stroke="none"/>
    <path d="M31.0 -25.9 Q31.0 -24.05 26.5 -24.0 26.9 -23.35 27.25 -20.6 L27.5 -17.4 Q27.5 -14.8 26.9 -12.85 25.75 -8.95 23.0 -11.55 L22.3 -10.2 21.8 -8.55 Q21.5 -8.3 21.0 -8.25 18.55 -10.5 19.2 -11.95 20.55 -14.95 20.55 -15.8 L20.5 -19.75 20.3 -20.5 Q18.6 -19.3 18.3 -15.55 18.0 -12.5 16.0 -12.5 14.75 -12.5 11.5 -19.05 8.5 -25.15 8.5 -25.85 8.5 -28.0 11.0 -28.0 12.05 -28.0 13.55 -27.0 15.05 -26.0 16.0 -26.0 19.6 -27.8 20.0 -27.8 L21.65 -27.3 Q22.65 -26.8 23.25 -26.8 24.85 -26.8 28.3 -28.55 31.0 -29.45 31.0 -25.9" fill="#8d6d3f" fill-opacity="0.3019608" fill-rule="evenodd" stroke="none"/>
    <path d="M24.05 -28.5 Q27.9 -28.5 28.6 -29.1 29.25 -29.75 29.75 -29.75 30.65 -29.75 31.9 -28.85 33.1 -28.0 33.8 -28.0 34.45 -28.0 35.15 -28.6 35.9 -29.25 36.5 -29.25 39.1 -29.25 43.55 -25.05 43.55 -23.95 42.55 -23.5 L39.25 -23.05 Q36.65 -23.05 36.0 -23.6 L35.5 -24.5 Q34.6 -23.05 31.45 -21.85 28.7 -20.75 27.0 -20.75 L24.25 -19.9 Q21.05 -19.05 18.5 -19.05 16.65 -19.05 15.25 -17.55 13.85 -16.05 13.0 -16.05 10.6 -16.05 8.9 -17.65 7.0 -19.4 7.5 -22.0 3.6 -23.45 2.4 -24.2 1.0 -25.0 1.0 -26.1 1.0 -28.0 3.75 -28.0 L17.25 -26.5 Q17.15 -31.2 18.7 -30.5 L20.85 -29.3 Q22.5 -28.5 24.05 -28.5" fill="#8d6d3f" fill-opacity="0.3019608" fill-rule="evenodd" stroke="none"/>
    <path d="M31.85 -6.45 Q29.45 -1.5 26.0 -1.5 22.3 -1.5 21.55 -5.9 21.15 -8.15 21.5 -10.6 21.5 -16.75 25.7 -23.95 30.45 -32.0 34.25 -25.0 36.45 -25.0 42.35 -26.5 L48.0 -28.0 Q48.55 -28.0 50.3 -26.85 52.2 -25.6 53.0 -24.5 51.8 -20.95 46.3 -18.35 37.2 -14.05 36.0 -13.25 34.75 -12.45 31.85 -6.45" fill="#8d6d3f" fill-opacity="0.3019608" fill-rule="evenodd" stroke="none"/>
    <path d="M80.25 -26.5 Q80.25 -29.5 94.0 -29.5 L122.0 -28.85 125.5 -29.35 129.0 -29.85 133.9 -29.6 139.05 -29.1 Q139.3 -29.6 139.3 -28.35 139.3 -26.7 136.55 -25.35 131.85 -23.1 120.75 -23.1 113.9 -23.1 108.05 -24.9 103.2 -26.4 93.0 -25.6 L84.75 -24.75 Q81.05 -24.75 80.3 -25.55 L80.25 -26.5" fill="#8d6d3f" fill-opacity="0.3019608" fill-rule="evenodd" stroke="none"/>
    <path d="M115.0 -28.6 Q117.4 -28.6 127.3 -30.75 136.05 -32.2 136.05 -29.5 136.05 -28.35 133.8 -27.25 L134.25 -26.1 134.9 -26.3 136.5 -26.5 137.65 -26.15 138.05 -25.5 Q138.55 -26.2 138.45 -27.15 139.2 -27.75 145.0 -27.75 147.45 -27.75 149.0 -26.5 150.25 -25.5 150.25 -24.4 150.25 -23.35 149.35 -22.75 148.6 -22.25 147.5 -22.25 146.9 -22.25 146.0 -22.75 145.15 -23.25 144.5 -23.25 L138.3 -18.85 Q132.1 -14.5 131.75 -14.5 129.1 -14.5 128.55 -16.25 128.25 -17.15 128.5 -18.1 L128.6 -20.0 Q128.85 -21.45 129.8 -21.75 L130.0 -21.85 129.3 -22.15 128.05 -22.35 Q127.6 -22.35 125.1 -20.85 122.65 -19.35 120.75 -19.35 L117.15 -19.75 Q113.85 -20.35 112.25 -21.35 L113.75 -21.85 Q114.85 -22.15 117.3 -23.35 L117.75 -23.5 110.45 -22.9 105.5 -22.1 Q96.7 -22.1 94.0 -23.75 93.0 -24.35 93.0 -25.6 93.0 -27.2 102.3 -28.75 L111.75 -30.0 Q112.85 -30.0 113.85 -29.3 114.85 -28.6 115.0 -28.6" fill="#8d6d3f" fill-opacity="0.3019608" fill-rule="evenodd" stroke="none"/>
    <path d="M133.85 31.9 Q134.55 31.05 135.5 31.05 136.95 31.05 138.0 33.35 138.8 35.05 138.8 35.8 138.8 37.7 136.5 38.8 132.15 40.8 120.0 40.8 114.1 40.8 112.75 39.7 112.3 39.35 112.4 38.9 L112.55 38.5 Q112.55 37.4 114.25 35.8 L114.3 35.75 Q113.55 36.25 112.9 37.35 112.55 38.0 111.5 38.0 104.8 38.0 102.85 36.95 101.95 36.45 101.55 34.55 L101.25 34.4 Q101.05 34.25 101.85 34.25 102.5 34.25 103.95 34.8 L106.0 35.3 109.8 35.25 Q109.8 31.5 111.4 31.35 L113.0 31.35 Q113.0 30.3 113.75 29.8 L116.75 29.75 Q116.3 27.55 116.3 26.4 116.4 24.25 119.0 24.25 120.15 24.25 121.55 26.15 L122.8 28.05 Q130.35 21.9 131.2 24.75 131.75 26.35 130.75 31.75 L130.8 32.3 130.8 32.5 131.45 32.65 133.0 32.75 133.85 31.9" fill="#8d6d3f" fill-opacity="0.3019608" fill-rule="evenodd" stroke="none"/>
    <path d="M129.1 37.75 Q127.85 38.55 126.5 38.55 124.3 38.55 123.1 37.45 121.95 36.45 120.25 36.5 L119.45 38.55 Q119.0 39.55 118.0 39.55 116.45 39.55 115.55 38.9 114.65 38.25 112.6 38.25 111.55 38.25 110.85 38.9 110.1 39.55 109.5 39.55 108.0 39.55 107.5 38.25 L107.3 36.85 Q107.3 36.1 109.5 34.0 112.3 31.3 115.5 31.3 L118.25 31.8 121.0 32.3 Q122.75 32.3 127.05 31.3 130.5 31.2 130.5 35.5 130.5 36.8 129.1 37.75" fill="#8d6d3f" fill-opacity="0.3019608" fill-rule="evenodd" stroke="none"/>
    <path d="M-113.75 22.5 L-114.25 24.15 Q-114.85 25.85 -115.5 26.5 -116.2 25.8 -116.75 24.45 L-117.25 22.5 Q-117.45 14.25 -117.3 6.0 -117.05 -10.2 -115.5 -16.35 -114.2 -10.85 -113.85 5.4 L-113.75 22.5" fill="#8d6d3f" fill-opacity="0.3019608" fill-rule="evenodd" stroke="none"/>
    <path d="M-24.0 16.05 Q-23.6 16.9 -23.05 25.2 -22.6 32.75 -22.6 35.85 -22.6 37.75 -22.75 39.25 L-22.95 39.55 -24.0 39.8 -24.95 39.65 -25.35 39.25 -25.35 33.25 -25.2 24.5 Q-25.15 19.0 -24.0 16.05" fill="#8d6d3f" fill-opacity="0.3019608" fill-rule="evenodd" stroke="none"/>
    <path d="M-144.2 40.75 L-150.5 40.8 -150.7 40.75 -152.45 40.4 -152.45 40.25 -152.55 38.85 -152.15 38.8 -152.1 35.75 -152.4 35.75 -152.85 23.45 -152.9 15.25 -152.65 -27.75 -152.75 -27.75 -151.95 -28.7 -151.7 -28.75 -151.7 -28.6 -151.55 -28.6 -151.4 -28.95 -144.2 -28.95 Q-87.25 -29.0 -87.25 -29.2 L-75.8 -28.9 -71.8 -28.7 -52.0 -28.75 -45.35 -28.6 -46.2 -28.75 Q-22.75 -29.05 -0.1 -29.6 22.45 -30.15 26.0 -29.6 L29.6 -28.95 29.6 -29.6 41.55 -28.95 56.55 -29.05 60.25 -28.7 Q88.2 -28.3 134.2 -28.75 L138.85 -28.7 140.45 -28.5 195.35 -28.75 195.75 -28.7 195.75 -26.75 139.4 -27.0 139.1 -26.95 136.4 -26.75 83.2 -27.2 28.4 -27.5 26.95 -27.7 24.65 -27.7 Q-15.25 -28.0 -45.5 -27.9 L-45.9 -27.9 -52.0 -27.75 -73.5 -27.75 -84.65 -27.45 -144.2 -27.5 -151.4 -27.5 -151.5 -27.55 -151.6 -27.75 -151.65 -27.75 -151.5 -21.75 Q-151.2 -7.85 -151.15 15.05 L-151.25 23.35 -151.35 27.5 -150.85 37.75 -150.8 38.85 -144.2 38.95 -95.0 39.05 -94.7 39.0 -92.0 38.8 -38.8 39.25 16.0 39.55 17.45 39.75 19.75 39.75 Q59.65 40.05 89.9 39.95 L90.3 39.95 96.4 39.8 117.9 39.8 129.05 39.5 194.8 39.55 194.8 39.5 195.15 39.5 195.75 39.45 195.75 40.75 193.4 40.75 193.4 41.0 Q131.65 41.05 131.65 41.25 L120.2 40.95 116.25 40.75 96.4 40.8 89.75 40.65 90.6 40.8 Q67.15 41.1 44.5 41.65 L41.15 41.75 32.95 41.3 Q23.4 40.95 15.85 41.25 L14.8 41.0 14.8 41.3 11.85 41.5 2.85 41.0 -12.15 41.1 -15.85 40.75 Q-43.75 40.35 -89.8 40.8 L-94.45 40.75 -96.05 40.55 -144.2 40.75 -144.2 38.95 -144.2 40.75 M-144.2 -27.5 L-144.2 -28.95 -144.2 -27.5 M29.5 -28.15 L29.6 -28.2 29.55 -28.2 29.5 -28.15 M-144.2 44.5 L-86.4 44.45 -75.25 44.75 -53.7 44.75 -47.65 44.9 -47.25 44.9 Q-17.0 45.0 22.9 44.7 L25.2 44.7 26.65 44.5 81.45 44.2 134.65 43.75 137.4 43.95 137.7 44.0 191.85 43.8 190.8 43.3 195.75 43.7 195.75 45.6 193.4 45.65 192.85 45.75 138.7 45.5 137.1 45.7 132.45 45.75 Q86.45 45.3 58.5 45.7 L54.8 46.05 39.85 45.95 27.0 46.6 27.85 45.95 22.55 46.4 Q17.8 46.75 -4.75 46.4 -27.35 46.05 -61.05 46.75 L-73.55 45.7 -77.55 45.9 -89.0 46.2 Q-89.0 46.0 -144.2 45.95 L-152.9 45.95 -153.05 45.6 -153.2 45.6 -153.2 45.75 -153.45 45.7 -153.45 38.75 -153.0 38.75 -153.15 44.75 -153.1 44.75 -153.0 44.55 -152.9 44.5 -144.2 44.5 -144.2 45.95 -144.2 44.5 M14.9 40.2 L14.8 40.25 14.85 40.25 14.9 40.2 M27.75 45.15 L27.8 45.2 27.85 45.2 27.75 45.15" fill="#5b5546" fill-rule="evenodd" stroke="none"/>
    <path d="M23.6 -27.4 L23.85 -21.4 23.6 -10.5 23.5 -10.4 Q23.1 -16.0 23.1 -21.3 L23.25 -27.4 23.6 -27.4 M20.0 -15.75 L20.35 -15.75 20.6 -4.65 20.4 8.0 20.25 8.15 Q19.85 3.9 19.85 -4.55 19.85 -12.0 20.0 -15.75 M23.1 -2.65 L23.25 1.6 23.1 11.75 22.85 11.75 22.65 1.65 22.75 -2.65 23.1 -2.65 M58.75 -6.15 L58.6 -6.15 58.25 -21.3 58.05 -24.6 Q58.0 -27.7 58.85 -28.5 L59.15 -21.35 58.75 -6.15 M60.85 -13.25 L60.75 -13.15 Q60.6 -14.4 60.6 -17.3 60.6 -23.3 61.25 -23.75 60.85 -20.4 60.85 -13.25 M103.35 -28.0 L103.6 -25.7 Q103.6 -23.0 103.25 -20.9 L103.1 -20.9 102.85 -23.5 102.85 -28.0 103.35 -28.0 M106.1 -28.0 Q106.35 -28.3 106.35 -27.65 L105.6 -25.25 105.35 -25.15 Q105.1 -25.9 105.1 -26.75 L105.15 -27.5 Q105.35 -28.0 106.1 -28.0 M114.6 -0.4 L114.75 0.85 114.6 2.75 114.5 3.0 114.25 0.85 114.25 -0.4 114.6 -0.4 M112.75 -7.0 L112.85 11.5 112.6 11.5 112.5 0.95 112.6 -7.0 112.75 -7.0 M160.25 13.6 L160.4 13.6 160.65 19.5 160.5 21.85 160.15 21.85 160.05 19.5 160.25 13.6 M157.8 16.35 L158.0 16.45 158.15 22.3 158.0 26.6 157.65 26.6 157.55 22.3 157.8 16.35 M152.55 8.85 L152.75 8.95 153.05 21.2 152.75 26.95 152.25 26.95 152.05 21.15 Q152.05 17.05 152.55 8.85 M193.75 -16.65 L194.0 -0.35 193.75 12.95 193.3 12.95 193.25 -0.3 Q193.25 -11.2 193.5 -16.65 L193.75 -16.65 M198.55 -12.55 L198.75 -12.45 199.0 -5.7 198.75 -3.45 Q198.25 -3.6 198.25 -5.6 L198.55 -12.55 M94.75 19.9 L95.1 21.1 95.35 22.15 94.85 37.9 94.75 38.0 94.5 29.0 94.6 19.9 94.75 19.9 M92.75 24.4 L92.85 34.0 92.6 34.0 92.6 24.4 92.75 24.4 M61.0 14.15 L61.25 20.05 61.1 27.65 61.0 27.75 Q60.75 25.25 60.75 20.05 L60.85 14.15 61.0 14.15 M56.5 11.5 L57.7 11.7 57.85 7.4 58.0 7.4 58.2 11.85 59.35 12.25 58.25 12.5 58.3 16.85 58.85 17.25 58.3 17.0 58.35 20.0 58.1 28.75 57.85 28.85 Q57.6 25.1 57.6 19.9 L57.65 16.7 55.6 16.25 55.6 15.9 Q56.6 15.9 57.65 16.45 L57.7 12.5 56.6 12.4 56.5 12.35 56.5 11.95 56.5 11.5 M22.0 38.4 Q23.2 37.5 24.0 37.65 L22.45 38.8 Q21.3 39.7 20.75 39.75 20.9 39.25 22.0 38.4 M-149.5 -1.3 L-151.05 -1.4 -151.05 -2.5 -150.05 -2.15 -147.3 -1.65 Q-147.75 -1.3 -149.5 -1.3 M-95.3 -27.25 Q-95.0 -25.4 -95.0 -21.5 L-95.3 -9.25 -95.5 -9.15 -96.0 -21.45 -95.8 -27.25 -95.3 -27.25 M-90.05 -26.9 Q-89.9 -25.55 -89.9 -22.6 L-90.05 -16.75 -90.25 -16.65 -90.5 -22.6 -90.4 -26.9 -90.05 -26.9 M-117.0 -14.15 Q-116.5 -13.05 -116.5 -3.85 L-116.8 15.15 -117.0 15.25 -117.5 -3.95 Q-117.5 -13.4 -117.0 -14.15 M-87.9 -22.15 L-87.55 -22.15 Q-87.4 -21.4 -87.4 -19.8 L-87.65 -13.9 -87.8 -13.9 -88.0 -19.8 -87.9 -22.15 M-54.3 -13.25 Q-54.05 -8.9 -54.05 0.05 -54.05 10.95 -54.3 16.35 L-54.3 16.5 -54.55 16.6 -54.55 16.35 -54.8 0.0 -54.75 -13.25 -54.3 -13.25 M-0.9 -29.5 Q-0.7 -26.4 -0.8 -22.0 L-1.0 -21.9 -1.15 -26.0 -1.05 -29.5 -0.9 -29.5 M-2.3 -29.05 L-2.55 -27.4 -3.15 -25.4 -3.3 -25.4 -3.5 -26.9 -3.4 -28.3 Q-3.2 -29.15 -2.4 -29.3 -2.3 -29.7 -2.3 -29.05 M-24.65 4.65 Q-24.4 19.15 -24.65 33.5 L-24.8 33.5 -24.8 32.7 -24.9 35.25 -25.05 35.25 -25.15 29.8 -25.05 25.15 -24.9 25.15 -24.85 26.4 -24.9 16.3 -24.8 4.65 -24.65 4.65 M-21.55 24.3 L-21.75 25.15 -21.45 28.0 -21.15 30.8 -21.3 38.25 -21.55 38.35 -21.95 31.2 -22.25 25.25 Q-21.65 24.3 -21.55 23.65 L-21.4 23.65 -21.55 24.3 M-8.75 37.5 L-8.8 37.65 -9.0 37.85 Q-9.55 36.8 -10.55 35.85 -12.0 34.4 -13.65 34.15 -11.75 33.9 -10.1 35.05 -8.65 36.0 -8.65 36.75 L-8.75 37.5 M-49.05 5.4 L-49.3 12.15 -49.5 12.25 -49.8 5.3 Q-49.8 3.3 -49.3 3.15 -49.05 3.9 -49.05 5.4 M-73.7 23.1 L-73.75 25.05 Q-73.75 29.45 -74.05 37.75 L-74.3 37.75 -74.75 25.0 Q-75.2 21.4 -74.25 20.5 -73.7 21.05 -73.7 23.1 M-140.65 5.35 Q-140.4 10.25 -140.4 19.85 L-140.55 33.5 -140.8 33.5 -140.95 25.2 -141.0 19.8 -140.9 5.35 -140.65 5.35 M-137.3 14.0 L-137.25 17.8 Q-137.25 22.1 -137.4 24.35 L-137.55 24.35 -137.75 17.85 -137.65 14.0 -137.3 14.0 M-147.55 0.75 L-148.45 1.4 -150.55 1.9 -150.75 1.15 -148.5 0.7 -148.0 0.5 -147.55 0.75 M-143.65 32.1 Q-143.45 33.55 -143.55 35.5 L-143.8 35.5 -143.9 34.6 -143.9 32.1 -143.65 32.1 M-146.05 31.0 Q-145.9 31.75 -145.9 33.4 -145.9 35.5 -146.15 36.6 L-146.3 36.6 -146.5 35.85 -146.5 31.0 -146.05 31.0" fill="#5b5546" fill-rule="evenodd" stroke="none"/>
    <path d="M168.65 38.8 L168.25 39.1 167.6 40.15 Q166.65 41.1 165.05 41.1 162.7 41.1 161.65 40.55 160.95 40.25 160.95 39.95 L161.05 39.35 160.8 39.35 160.4 39.1 160.3 38.55 Q159.8 37.8 156.85 37.8 156.25 37.8 155.7 38.35 155.1 38.85 155.1 39.35 L155.0 39.45 154.65 39.55 154.45 39.7 Q153.25 40.8 151.95 40.8 L149.0 40.4 148.95 40.35 Q147.95 39.95 147.85 39.2 147.15 39.0 146.75 38.35 L146.3 37.75 144.75 37.6 144.1 37.65 Q143.1 37.9 142.2 38.55 L142.05 38.7 Q141.75 40.15 139.25 41.0 L139.25 40.75 138.55 40.8 135.15 40.25 Q134.45 39.95 134.45 39.65 L134.55 39.05 134.3 39.05 133.9 38.8 133.8 38.25 Q133.3 37.5 130.35 37.5 129.75 37.5 129.2 38.05 128.6 38.55 128.6 39.05 L128.5 39.15 128.15 39.25 127.95 39.4 Q126.75 40.5 125.45 40.5 L122.5 40.1 121.75 39.3 121.75 38.95 Q120.75 38.9 120.25 38.05 119.7 37.15 119.05 37.15 117.2 37.15 115.7 38.25 L115.55 38.4 Q115.25 40.0 112.3 40.8 109.0 41.65 107.45 38.8 L106.85 38.3 Q106.1 37.7 104.7 37.7 103.05 37.7 102.15 38.55 L101.65 39.0 Q101.5 40.5 98.2 40.6 94.8 40.65 94.8 38.9 L94.8 38.85 94.75 38.9 94.3 38.25 94.3 37.9 91.75 37.6 Q89.95 37.6 89.15 38.5 L88.75 38.8 88.1 39.85 Q87.15 40.8 85.55 40.8 83.2 40.8 82.15 40.25 81.45 39.95 81.45 39.65 L81.55 39.05 81.3 39.05 80.9 38.8 80.8 38.25 Q80.3 37.5 77.35 37.5 76.75 37.5 76.2 38.05 75.6 38.55 75.6 39.05 L75.5 39.15 75.15 39.25 74.95 39.4 Q73.75 40.5 72.45 40.5 L69.5 40.1 68.75 39.3 68.75 38.95 Q67.75 38.9 67.25 38.05 66.7 37.15 66.05 37.15 64.2 37.15 62.7 38.25 L62.55 38.4 Q62.25 39.85 59.75 40.7 L59.3 40.8 Q56.0 41.65 54.45 38.8 L53.85 38.3 Q53.1 37.7 51.7 37.7 50.05 37.7 49.15 38.55 L48.65 39.0 Q48.5 40.5 45.2 40.6 41.8 40.65 41.8 38.9 L41.8 38.85 41.75 38.9 41.3 38.25 41.3 37.9 38.75 37.6 Q36.95 37.6 36.15 38.5 L35.75 38.8 35.1 39.85 Q34.15 40.8 32.55 40.8 30.2 40.8 29.15 40.25 28.45 39.95 28.45 39.65 L28.55 39.05 28.3 39.05 27.9 38.8 27.8 38.25 Q27.3 37.5 24.35 37.5 23.75 37.5 23.2 38.05 22.6 38.55 22.6 39.05 L22.5 39.15 22.15 39.25 21.95 39.4 Q20.75 40.5 19.45 40.5 L16.5 40.1 15.75 39.3 15.75 38.95 Q14.75 38.9 14.25 38.05 13.7 37.15 13.05 37.15 11.2 37.15 9.7 38.25 L9.55 38.4 Q9.25 40.0 6.3 40.8 3.0 41.65 1.45 38.8 L0.85 38.3 Q0.1 37.7 -1.3 37.7 -2.95 37.7 -3.85 38.55 L-4.35 39.0 Q-4.5 40.5 -7.8 40.6 -11.2 40.65 -11.2 38.9 L-11.2 38.85 -11.25 38.9 -11.7 38.25 -11.7 37.9 -14.25 37.6 Q-16.05 37.6 -16.85 38.5 L-17.25 38.8 Q-17.3 39.25 -17.9 39.85 -18.85 40.8 -20.45 40.8 -22.8 40.8 -23.85 40.25 L-24.55 39.65 -24.45 39.05 -24.7 39.05 -25.1 38.8 -25.2 38.25 Q-25.7 37.5 -28.65 37.5 -29.25 37.5 -29.8 38.05 -30.4 38.55 -30.4 39.05 L-30.5 39.15 -30.85 39.25 -31.05 39.4 Q-32.25 40.5 -33.55 40.5 L-36.5 40.1 -37.25 39.3 -37.25 38.95 Q-38.25 38.9 -38.75 38.05 -39.3 37.15 -39.95 37.15 -41.8 37.15 -43.3 38.25 L-43.75 38.65 -44.45 39.35 -44.65 39.55 -44.7 39.5 -46.7 40.3 Q-50.0 41.15 -51.55 38.3 L-52.15 37.8 Q-52.9 37.2 -54.3 37.2 -55.95 37.2 -56.85 38.05 L-57.35 38.5 Q-57.5 40.0 -60.8 40.1 -64.2 40.15 -64.2 38.4 L-64.2 38.35 -64.25 38.4 -64.7 37.75 -64.7 37.4 -67.25 37.1 Q-69.05 37.1 -69.85 38.0 L-70.25 38.3 Q-70.3 38.75 -70.9 39.35 -71.85 40.3 -73.45 40.3 -75.8 40.3 -76.85 39.75 L-77.55 39.15 -77.45 38.55 -77.7 38.55 -78.1 38.3 -78.2 37.75 Q-78.7 37.0 -81.65 37.0 -82.25 37.0 -82.8 37.55 -83.4 38.05 -83.4 38.55 L-83.5 38.65 -83.85 38.75 -84.05 38.9 Q-85.25 40.0 -86.55 40.0 L-89.5 39.6 -90.25 38.8 -90.25 38.45 Q-91.25 38.4 -91.75 37.55 -92.3 36.65 -92.95 36.65 -94.8 36.65 -96.3 37.75 L-96.45 37.9 Q-96.75 39.5 -99.7 40.3 -103.0 41.15 -104.55 38.3 L-105.15 37.8 Q-105.9 37.2 -107.3 37.2 -108.95 37.2 -109.85 38.05 L-110.35 38.5 Q-110.5 40.0 -113.8 40.1 -117.2 40.15 -117.2 38.4 L-117.2 38.35 -117.25 38.4 -117.7 37.75 -117.7 37.4 -120.25 37.1 Q-122.05 37.1 -122.85 38.0 L-123.25 38.3 Q-123.3 38.75 -123.9 39.35 -124.85 40.3 -126.45 40.3 -128.8 40.3 -129.85 39.75 -130.55 39.45 -130.55 39.15 L-130.45 38.55 -130.7 38.55 -131.1 38.3 -131.2 37.75 Q-131.7 37.0 -134.65 37.0 -135.25 37.0 -135.8 37.55 -136.4 38.05 -136.4 38.55 L-136.5 38.65 -136.85 38.75 -137.05 38.9 Q-138.25 40.0 -139.55 40.0 L-142.5 39.6 -143.25 38.8 -143.25 38.45 Q-144.25 38.4 -144.75 37.55 -145.3 36.65 -145.95 36.65 -147.8 36.65 -149.3 37.75 L-150.65 39.05 -150.9 38.9 -150.95 38.55 Q-150.95 36.75 -147.7 35.85 -144.35 34.95 -142.85 37.85 L-142.25 38.35 Q-141.5 38.9 -140.1 38.9 -138.4 38.9 -137.55 38.1 L-137.05 37.65 Q-136.9 36.15 -133.6 36.05 -130.15 35.95 -130.15 37.75 -129.75 38.1 -129.7 38.4 L-129.7 38.75 -127.1 39.05 Q-125.35 39.05 -124.55 38.15 L-124.1 37.85 Q-124.05 37.35 -123.45 36.8 -122.55 35.85 -120.95 35.85 -118.6 35.85 -117.5 36.4 L-116.85 37.0 -116.95 37.6 -116.7 37.6 Q-116.4 37.6 -116.3 37.85 L-116.2 38.4 Q-115.7 39.15 -112.75 39.15 -112.15 39.15 -111.55 38.6 -111.0 38.05 -111.0 37.6 L-110.9 37.5 -110.55 37.4 -110.35 37.2 Q-109.1 36.15 -107.85 36.15 L-104.9 36.55 -104.15 37.35 -104.15 37.7 Q-103.15 37.7 -102.65 38.55 -102.1 39.45 -101.45 39.45 -99.6 39.45 -98.1 38.4 L-97.9 38.3 Q-97.7 36.7 -94.7 35.85 -91.35 34.95 -89.85 37.85 L-89.25 38.35 Q-88.5 38.9 -87.1 38.9 -85.4 38.9 -84.55 38.1 L-84.05 37.65 Q-83.9 36.15 -80.6 36.05 -77.15 35.95 -77.15 37.75 -76.75 38.1 -76.7 38.4 L-76.7 38.75 -74.1 39.05 Q-72.35 39.05 -71.55 38.15 L-71.1 37.85 Q-71.05 37.35 -70.45 36.8 -69.55 35.85 -67.95 35.85 -65.6 35.85 -64.5 36.4 -63.85 36.7 -63.85 37.0 L-63.95 37.6 -63.7 37.6 Q-63.4 37.6 -63.3 37.85 L-63.2 38.4 Q-62.7 39.15 -59.75 39.15 -59.15 39.15 -58.55 38.6 -58.0 38.05 -58.0 37.6 L-57.9 37.5 -57.55 37.4 -57.35 37.2 Q-56.1 36.15 -54.85 36.15 L-51.9 36.55 -51.15 37.35 -51.15 37.7 Q-50.15 37.7 -49.65 38.55 -49.1 39.45 -48.45 39.45 -46.6 39.45 -45.1 38.4 L-44.65 38.05 -43.9 37.35 -43.75 37.1 -43.65 37.15 Q-42.9 36.7 -41.7 36.35 -38.35 35.45 -36.85 38.35 L-36.25 38.85 Q-35.5 39.4 -34.1 39.4 -32.4 39.4 -31.55 38.6 L-31.05 38.15 Q-30.9 36.65 -27.6 36.55 -24.15 36.45 -24.15 38.25 -23.75 38.6 -23.7 38.9 L-23.7 39.25 -21.1 39.55 Q-19.35 39.55 -18.55 38.65 L-18.1 38.35 Q-18.05 37.85 -17.45 37.3 -16.55 36.35 -14.95 36.35 -12.6 36.35 -11.5 36.9 L-10.85 37.5 -10.95 38.1 -10.7 38.1 Q-10.4 38.1 -10.3 38.35 L-10.2 38.9 Q-9.7 39.65 -6.75 39.65 -6.15 39.65 -5.55 39.1 -5.0 38.55 -5.0 38.1 L-4.9 38.0 -4.55 37.9 -4.35 37.7 Q-3.1 36.65 -1.85 36.65 L1.1 37.05 1.85 37.85 1.85 38.2 Q2.85 38.2 3.35 39.05 3.9 39.95 4.55 39.95 6.4 39.95 7.9 38.9 L8.1 38.8 Q8.3 37.2 11.3 36.35 14.65 35.45 16.15 38.35 L16.75 38.85 Q17.5 39.4 18.9 39.4 20.6 39.4 21.45 38.6 L21.95 38.15 Q22.1 36.65 25.4 36.55 28.85 36.45 28.85 38.25 L29.3 38.9 29.3 39.25 31.9 39.55 Q33.65 39.55 34.45 38.65 L34.9 38.35 Q34.95 37.85 35.55 37.3 36.45 36.35 38.05 36.35 40.4 36.35 41.5 36.9 L42.15 37.5 42.05 38.1 42.3 38.1 Q42.6 38.1 42.7 38.35 L42.8 38.9 Q43.3 39.65 46.25 39.65 46.85 39.65 47.45 39.1 48.0 38.55 48.0 38.1 L48.1 38.0 48.45 37.9 48.65 37.7 Q49.9 36.65 51.15 36.65 L54.1 37.05 54.85 37.85 54.85 38.2 Q55.85 38.2 56.35 39.05 56.9 39.95 57.55 39.95 L59.75 39.55 60.9 38.9 61.1 38.8 Q61.3 37.2 64.3 36.35 67.65 35.45 69.15 38.35 L69.75 38.85 Q70.5 39.4 71.9 39.4 73.6 39.4 74.45 38.6 L74.95 38.15 Q75.1 36.65 78.4 36.55 81.85 36.45 81.85 38.25 L82.3 38.9 82.3 39.25 84.9 39.55 Q86.65 39.55 87.45 38.65 L87.9 38.35 Q87.95 37.85 88.55 37.3 89.45 36.35 91.05 36.35 93.4 36.35 94.5 36.9 L95.15 37.5 95.05 38.1 95.3 38.1 Q95.6 38.1 95.7 38.35 L95.8 38.9 Q96.3 39.65 99.25 39.65 99.85 39.65 100.45 39.1 101.0 38.55 101.0 38.1 L101.1 38.0 101.45 37.9 101.65 37.7 Q102.9 36.65 104.15 36.65 L107.1 37.05 107.85 37.85 107.85 38.2 Q108.85 38.2 109.35 39.05 109.9 39.95 110.55 39.95 112.4 39.95 113.9 38.9 L114.1 38.8 Q114.3 37.2 117.3 36.35 120.65 35.45 122.15 38.35 L122.75 38.85 Q123.5 39.4 124.9 39.4 126.6 39.4 127.45 38.6 L127.95 38.15 Q128.1 36.65 131.4 36.55 134.85 36.45 134.85 38.25 L135.3 38.9 135.3 39.25 137.9 39.55 Q139.65 39.55 140.45 38.65 L140.85 38.35 140.9 38.3 141.55 37.3 Q142.45 36.35 144.05 36.35 146.4 36.35 147.5 36.9 148.15 37.2 148.15 37.5 L148.15 37.85 148.35 38.1 148.7 38.35 148.75 38.75 149.25 39.15 149.75 39.45 152.05 39.65 152.05 39.7 Q153.25 39.55 153.95 38.9 L154.45 38.45 Q154.6 36.95 157.9 36.85 161.35 36.75 161.35 38.55 L161.8 39.2 161.8 39.55 164.4 39.85 Q166.15 39.85 166.95 38.95 L167.4 38.65 Q167.45 38.15 168.05 37.6 168.95 36.65 170.55 36.65 172.9 36.65 174.0 37.2 L174.65 37.8 174.55 38.4 174.8 38.4 Q175.1 38.4 175.2 38.65 L175.3 39.2 Q175.8 39.95 178.75 39.95 179.35 39.95 179.95 39.4 L180.5 38.4 180.6 38.3 180.95 38.2 181.15 38.0 Q182.4 36.95 183.65 36.95 L186.6 37.35 187.35 38.15 187.35 38.5 Q188.35 38.5 188.85 39.35 189.4 40.25 190.05 40.25 L190.25 40.25 190.25 41.3 Q188.1 41.25 186.95 39.1 L186.35 38.6 Q185.6 38.0 184.2 38.0 182.55 38.0 181.65 38.85 L181.15 39.3 Q181.0 40.8 177.7 40.9 174.3 40.95 174.3 39.2 L174.3 39.15 174.25 39.2 Q173.85 38.85 173.8 38.55 L173.8 38.2 171.25 37.9 Q169.45 37.9 168.65 38.8" fill="#5b5546" fill-rule="evenodd" stroke="none"/>
    <path d="M-78.15 47.0 Q-76.6 53.9 -75.1 64.6 -73.75 74.2 -73.75 77.2 -73.75 88.15 -74.65 91.7 -75.6 95.25 -75.6 106.35 L-74.9 118.95 -74.25 134.25 -74.35 163.25 Q-74.65 176.75 -75.7 187.45 L-75.45 189.45 -75.15 192.1 -75.0 192.1 Q-73.2 192.1 -72.75 194.5 -72.5 195.75 -72.6 197.15 -72.6 207.75 -74.15 219.85 L-73.75 224.25 Q-72.5 237.45 -72.5 241.9 -72.5 245.0 -74.6 259.9 L-73.5 266.6 Q-73.5 268.2 -74.0 269.6 -74.7 271.6 -76.0 271.6 L-76.35 271.6 Q-78.6 286.2 -79.0 286.2 -82.65 286.2 -84.35 256.35 L-85.05 234.7 -85.7 231.15 -85.85 224.0 Q-85.85 206.85 -84.6 168.7 -83.35 130.15 -83.35 112.85 L-83.65 84.9 Q-83.9 67.75 -83.6 56.9 -83.15 40.8 -81.5 39.5 -80.15 38.3 -78.15 47.0" fill="#8d6d3f" fill-opacity="0.3019608" fill-rule="evenodd" stroke="none"/>
    <path d="M-77.35 44.55 Q-74.8 42.45 -72.25 54.3 -70.1 64.25 -70.1 69.6 L-70.1 73.4 Q-70.4 75.75 -72.25 75.75 -74.15 75.75 -74.35 74.15 L-74.25 72.45 Q-74.25 71.7 -74.55 71.15 L-75.1 70.15 -75.35 70.15 -75.75 72.25 -76.0 74.3 -74.85 94.05 -74.85 99.75 Q-75.3 104.8 -77.5 104.8 -80.35 104.8 -80.45 101.4 -79.95 97.25 -80.1 95.75 L-80.35 96.0 -81.5 96.25 Q-84.1 96.25 -84.6 87.3 L-84.6 78.1 Q-84.6 74.6 -83.25 58.55 L-81.85 40.8 Q-79.4 39.15 -77.35 44.55" fill="#8d6d3f" fill-opacity="0.3019608" fill-rule="evenodd" stroke="none"/>
    <path d="M-82.0 44.05 L-81.0 43.8 Q-80.45 43.8 -80.0 44.95 -79.6 45.9 -79.6 46.55 -76.1 41.8 -75.15 44.5 -74.85 45.4 -74.85 49.9 -74.85 52.4 -75.15 53.6 -75.85 56.45 -78.25 57.25 L-77.8 57.65 -77.25 58.05 -77.5 58.15 -78.6 58.25 -78.25 65.15 Q-78.35 69.75 -80.5 69.75 L-81.5 69.55 -82.1 69.05 -82.35 60.6 -82.1 44.3 -82.0 44.05" fill="#8d6d3f" fill-opacity="0.3019608" fill-rule="evenodd" stroke="none"/>
    <path d="M-72.5 78.25 Q-73.75 78.25 -74.1 77.25 L-74.25 76.25 Q-64.75 64.4 -55.3 54.85 -36.35 35.75 -36.35 46.6 -36.35 47.25 -40.75 52.2 -45.55 57.6 -51.1 63.0 -66.75 78.25 -72.5 78.25" fill="#8d6d3f" fill-opacity="0.3019608" fill-rule="evenodd" stroke="none"/>
    <path d="M-58.0 64.75 Q-59.65 64.75 -60.1 63.65 L-60.25 62.35 Q-55.3 56.05 -50.35 51.3 -40.5 41.8 -40.5 48.85 -40.5 49.6 -47.95 57.0 -55.8 64.75 -58.0 64.75" fill="#8d6d3f" fill-opacity="0.3019608" fill-rule="evenodd" stroke="none"/>
    <path d="M-84.65 78.5 Q-86.55 80.5 -87.0 80.5 -89.3 80.5 -103.1 63.5 -116.5 47.05 -116.5 46.35 -116.5 42.45 -114.35 41.6 -112.4 40.85 -109.25 42.85 -102.1 47.3 -97.35 57.5 -97.15 58.1 -89.75 66.05 -82.6 73.75 -82.6 75.4 -82.6 76.35 -84.65 78.5" fill="#8d6d3f" fill-opacity="0.3019608" fill-rule="evenodd" stroke="none"/>
    <path d="M-105.1 49.25 Q-98.7 55.85 -92.25 65.0 -92.25 66.1 -93.15 66.75 -93.8 67.25 -94.5 67.25 -97.0 67.25 -107.6 58.25 -118.0 49.45 -118.0 48.1 -118.0 36.0 -105.1 49.25" fill="#8d6d3f" fill-opacity="0.3019608" fill-rule="evenodd" stroke="none"/>
    <path d="M-76.15 125.35 Q-76.5 125.25 -76.5 126.5 L-75.6 180.0 Q-74.75 237.5 -74.75 270.75 -74.75 274.05 -74.9 275.05 -75.3 278.3 -77.0 278.3 -78.5 278.3 -80.6 271.35 -80.6 257.85 -79.25 196.55 -77.85 135.2 -77.35 124.95 -76.6 124.95 -75.85 125.35 -75.8 125.6 -76.15 125.35" fill="#8d6d3f" fill-opacity="0.3019608" fill-rule="evenodd" stroke="none"/>
    <path d="M-76.0 284.35 Q-78.35 286.8 -81.5 286.8 -84.0 286.8 -84.6 285.0 L-84.75 282.85 Q-82.0 269.8 -79.25 262.95 -73.75 249.25 -73.75 279.1 -73.75 282.0 -76.0 284.35" fill="#8d6d3f" fill-opacity="0.3019608" fill-rule="evenodd" stroke="none"/>
    <path d="M-83.7 46.5 L-82.25 46.5 -82.2 139.95 -82.5 155.95 -82.5 186.8 -82.65 195.5 -82.65 196.05 -82.5 281.1 -84.3 281.1 -84.15 257.0 Q-83.8 224.6 -84.5 176.25 L-83.45 158.35 -83.65 152.65 -83.95 136.2 Q-83.75 136.2 -83.7 46.5 M-81.55 46.5 L-81.5 44.85 -81.05 44.85 -80.35 47.0 -80.25 49.0 -80.65 59.35 -81.05 68.75 -81.25 68.9 -81.75 52.3 -81.55 46.5 M-76.05 46.6 L-76.0 46.5 -74.1 46.5 -74.3 127.6 -74.25 128.0 -74.05 131.9 -74.5 208.15 -74.8 281.1 -76.7 281.1 -76.75 280.8 -76.25 267.85 -76.35 246.4 Q-76.35 242.4 -76.0 241.1 -75.6 201.05 -76.05 135.05 L-76.0 128.4 -75.8 126.1 -76.05 46.6 M-78.3 124.45 L-78.75 83.1 Q-78.75 60.3 -78.05 45.55 -77.75 57.95 -77.75 83.1 L-78.15 124.45 -78.3 124.45 M-79.5 173.25 L-79.55 188.7 -79.8 188.7 -80.0 173.2 -79.9 164.4 -79.65 164.4 Q-79.5 167.15 -79.5 173.25 M-78.65 236.95 Q-78.4 245.65 -78.4 262.95 L-78.55 288.6 -78.8 288.6 -78.95 273.1 -79.0 262.95 -78.9 236.95 -78.65 236.95 M-79.75 277.0 Q-79.75 280.05 -79.9 282.8 L-80.05 282.8 -80.25 277.0 -80.05 262.3 -79.9 262.3 Q-79.75 269.45 -79.75 277.0" fill="#5b5546" fill-rule="evenodd" stroke="none"/>
    <path d="M-39.15 43.8 Q-38.8 43.85 -38.75 44.0 -41.2 45.8 -44.2 49.25 L-49.4 54.75 -49.55 54.75 -44.75 49.0 Q-41.85 45.5 -39.5 43.75 L-39.15 43.8 M-42.6 44.75 L-42.55 45.2 Q-42.55 46.05 -45.05 48.3 L-47.9 50.75 -48.05 50.75 -45.5 47.65 -42.8 44.65 -42.6 44.75 M-36.75 45.6 L-36.75 46.35 Q-48.85 58.55 -48.75 57.4 -51.5 61.35 -56.65 66.0 L-59.45 68.55 -68.3 78.45 -75.7 86.05 -75.45 84.05 -75.55 83.3 -73.4 81.0 -59.05 66.65 -51.85 59.05 -38.3 45.5 -36.75 45.6 M-59.65 65.75 L-59.8 65.75 Q-54.6 59.9 -51.8 57.75 -53.7 60.6 -59.65 65.75 M-82.9 80.3 L-83.0 81.0 -82.75 82.8 -90.7 75.15 -97.65 66.8 -100.2 64.45 -107.45 57.7 -118.45 46.45 -118.45 45.75 -117.05 45.65 -104.6 58.05 -98.0 65.05 -84.85 78.2 -82.9 80.3 M-83.2 70.5 L-83.2 72.7 -110.25 45.5 -109.25 44.5 -83.2 70.5 M-84.35 73.4 L-87.0 70.85 -86.9 70.5 -84.15 72.65 Q-82.4 74.15 -81.75 75.25 L-84.35 73.4 M-75.25 74.2 L-45.85 44.85 -44.2 45.25 -75.25 76.7 -75.25 74.2 M-117.0 44.6 L-116.55 44.5 -114.1 47.35 -111.15 50.15 -111.25 50.25 Q-117.0 45.7 -117.0 45.25 L-117.0 44.6 M-110.4 47.2 L-107.3 50.75 -113.8 44.4 Q-112.4 44.9 -110.4 47.2" fill="#5b5546" fill-rule="evenodd" stroke="none"/>
    <path d="M61.85 47.0 Q63.4 53.9 64.9 64.6 66.25 74.2 66.25 77.2 66.25 88.15 65.35 91.7 64.4 95.25 64.4 106.35 L65.1 118.95 65.75 134.25 65.65 163.25 Q65.35 176.75 64.3 187.45 L64.55 189.45 64.85 192.1 65.0 192.1 Q66.8 192.1 67.25 194.5 67.5 195.75 67.4 197.15 67.4 207.75 65.85 219.85 L66.25 224.25 Q67.5 237.45 67.5 241.9 67.5 245.0 65.4 259.9 L66.5 266.6 Q66.5 268.2 66.0 269.6 65.3 271.6 64.0 271.6 L63.65 271.6 Q61.4 286.2 61.0 286.2 57.35 286.2 55.65 256.35 L54.95 234.7 Q54.5 233.2 54.3 231.15 54.15 229.65 54.15 224.0 54.15 206.85 55.4 168.7 56.65 130.15 56.65 112.85 L56.35 84.9 Q56.1 67.75 56.4 56.9 56.85 40.8 58.5 39.5 59.85 38.3 61.85 47.0" fill="#8d6d3f" fill-opacity="0.3019608" fill-rule="evenodd" stroke="none"/>
    <path d="M62.65 44.55 Q65.2 42.45 67.75 54.3 69.9 64.25 69.9 69.6 L69.9 73.4 Q69.6 75.75 67.75 75.75 65.85 75.75 65.65 74.15 L65.75 72.45 65.45 71.15 64.9 70.15 64.65 70.15 64.25 72.25 64.0 74.3 65.15 94.05 65.15 99.75 Q64.7 104.8 62.5 104.8 59.65 104.8 59.55 101.4 60.05 97.25 59.9 95.75 L59.65 96.0 58.5 96.25 Q55.9 96.25 55.4 87.3 L55.4 78.1 Q55.4 74.6 56.75 58.55 L58.15 40.8 Q60.6 39.15 62.65 44.55" fill="#8d6d3f" fill-opacity="0.3019608" fill-rule="evenodd" stroke="none"/>
    <path d="M58.0 44.05 Q58.25 43.8 59.0 43.8 59.55 43.8 60.0 44.95 60.4 45.9 60.4 46.55 63.9 41.8 64.85 44.5 65.15 45.4 65.15 49.9 65.15 52.4 64.85 53.6 64.15 56.45 61.75 57.25 L62.2 57.65 62.75 58.05 62.5 58.15 61.4 58.25 Q61.4 59.8 61.75 65.15 61.65 69.75 59.5 69.75 L58.5 69.55 57.9 69.05 Q57.65 66.5 57.65 60.6 L57.9 44.3 58.0 44.05" fill="#8d6d3f" fill-opacity="0.3019608" fill-rule="evenodd" stroke="none"/>
    <path d="M67.5 78.25 Q66.25 78.25 65.9 77.25 L65.75 76.25 Q75.25 64.4 84.7 54.85 103.65 35.75 103.65 46.6 103.65 47.25 99.25 52.2 94.45 57.6 88.9 63.0 73.25 78.25 67.5 78.25" fill="#8d6d3f" fill-opacity="0.3019608" fill-rule="evenodd" stroke="none"/>
    <path d="M82.0 64.75 Q80.35 64.75 79.9 63.65 79.75 63.3 79.75 62.35 84.7 56.05 89.65 51.3 99.5 41.8 99.5 48.85 99.5 49.6 92.05 57.0 84.2 64.75 82.0 64.75" fill="#8d6d3f" fill-opacity="0.3019608" fill-rule="evenodd" stroke="none"/>
    <path d="M55.35 78.5 Q53.45 80.5 53.0 80.5 50.7 80.5 36.9 63.5 23.5 47.05 23.5 46.35 23.5 42.45 25.65 41.6 27.6 40.85 30.75 42.85 37.9 47.3 42.65 57.5 42.85 58.1 50.25 66.05 57.4 73.75 57.4 75.4 57.4 76.35 55.35 78.5" fill="#8d6d3f" fill-opacity="0.3019608" fill-rule="evenodd" stroke="none"/>
    <path d="M34.9 49.25 Q41.3 55.85 47.75 65.0 47.75 66.1 46.85 66.75 46.2 67.25 45.5 67.25 43.0 67.25 32.4 58.25 22.0 49.45 22.0 48.1 22.0 36.0 34.9 49.25" fill="#8d6d3f" fill-opacity="0.3019608" fill-rule="evenodd" stroke="none"/>
    <path d="M63.85 125.35 Q63.5 125.25 63.5 126.5 L64.4 180.0 Q65.25 237.5 65.25 270.75 L65.1 275.05 Q64.7 278.3 63.0 278.3 61.5 278.3 59.4 271.35 59.4 257.85 60.75 196.55 62.15 135.2 62.65 124.95 63.4 124.95 64.15 125.35 64.2 125.6 63.85 125.35" fill="#8d6d3f" fill-opacity="0.3019608" fill-rule="evenodd" stroke="none"/>
    <path d="M64.0 284.35 Q61.65 286.8 58.5 286.8 56.0 286.8 55.4 285.0 L55.25 282.85 Q58.0 269.8 60.75 262.95 66.25 249.25 66.25 279.1 66.25 282.0 64.0 284.35" fill="#8d6d3f" fill-opacity="0.3019608" fill-rule="evenodd" stroke="none"/>
    <path d="M63.95 46.6 L64.0 46.5 65.9 46.5 65.7 127.6 65.75 128.0 65.95 131.9 65.5 208.15 65.2 281.1 63.3 281.1 63.25 280.8 63.75 267.85 63.65 246.4 Q63.65 242.4 64.0 241.1 64.4 201.05 63.95 135.05 L64.0 128.4 64.2 126.1 63.95 46.6 M58.45 46.5 L58.5 44.85 58.95 44.85 59.65 47.0 59.75 49.0 59.35 59.35 58.95 68.75 58.75 68.9 Q58.25 58.15 58.25 52.3 L58.45 46.5 M56.3 46.5 L57.75 46.5 57.8 139.95 57.5 155.95 57.5 186.8 57.35 195.5 57.35 196.05 Q57.25 233.45 57.5 281.1 L55.7 281.1 55.85 257.0 Q56.2 224.6 55.5 176.25 L56.55 158.35 56.35 152.65 Q56.05 142.0 56.05 136.2 56.25 136.2 56.3 46.5 M61.7 124.45 L61.25 83.1 Q61.25 60.3 61.95 45.55 62.25 57.95 62.25 83.1 L61.85 124.45 61.7 124.45 M60.5 173.25 L60.45 188.7 60.2 188.7 60.0 173.2 60.1 164.4 60.35 164.4 60.5 173.25 M61.35 236.95 L61.6 262.95 61.45 288.6 61.2 288.6 61.05 273.1 61.0 262.95 61.1 236.95 61.35 236.95 M60.25 277.0 L60.1 282.8 59.95 282.8 59.75 277.0 59.95 262.3 60.1 262.3 60.25 277.0" fill="#5b5546" fill-rule="evenodd" stroke="none"/>
    <path d="M103.25 45.6 L103.25 46.35 Q91.15 58.55 91.25 57.4 88.5 61.35 83.35 66.0 L80.55 68.55 71.7 78.45 64.3 86.05 64.55 84.05 64.45 83.3 66.6 81.0 80.95 66.65 88.15 59.05 101.7 45.5 103.25 45.6 M97.4 44.75 L97.45 45.2 Q97.45 46.05 94.95 48.3 L92.1 50.75 91.95 50.75 94.5 47.65 97.2 44.65 97.4 44.75 M100.85 43.8 L101.25 44.0 Q98.8 45.8 95.8 49.25 L90.6 54.75 90.45 54.75 95.25 49.0 Q98.15 45.5 100.5 43.75 L100.85 43.8 M80.35 65.75 L80.2 65.75 Q85.4 59.9 88.2 57.75 86.3 60.6 80.35 65.75 M57.1 80.3 L57.0 81.0 57.25 82.8 49.3 75.15 42.35 66.8 39.8 64.45 32.55 57.7 21.55 46.45 21.55 45.75 22.95 45.65 35.4 58.05 42.0 65.05 55.15 78.2 57.1 80.3 M56.8 70.5 L56.8 72.7 29.75 45.5 30.75 44.5 56.8 70.5 M64.75 74.2 L94.15 44.85 95.8 45.25 64.75 76.7 64.75 74.2 M55.65 73.4 L53.0 70.85 53.1 70.5 55.85 72.65 Q57.6 74.15 58.25 75.25 57.4 74.95 55.65 73.4 M29.6 47.2 L32.7 50.75 26.2 44.4 Q27.6 44.9 29.6 47.2 M23.0 44.6 L23.45 44.5 25.9 47.35 28.85 50.15 28.75 50.25 Q23.0 45.7 23.0 45.25 L23.0 44.6" fill="#5b5546" fill-rule="evenodd" stroke="none"/>
    <path d="M195.35 78.5 Q193.45 80.5 193.0 80.5 190.7 80.5 176.9 63.5 163.5 47.05 163.5 46.35 163.5 42.45 165.65 41.6 167.6 40.85 170.75 42.85 177.9 47.3 182.65 57.5 182.85 58.1 190.25 66.05 197.4 73.75 197.4 75.4 197.4 76.35 195.35 78.5" fill="#8d6d3f" fill-opacity="0.3019608" fill-rule="evenodd" stroke="none"/>
    <path d="M174.9 49.25 Q181.3 55.85 187.75 65.0 187.75 66.1 186.85 66.75 186.2 67.25 185.5 67.25 183.0 67.25 172.4 58.25 162.0 49.45 162.0 48.1 162.0 36.0 174.9 49.25" fill="#8d6d3f" fill-opacity="0.3019608" fill-rule="evenodd" stroke="none"/>
    <path d="M169.75 45.5 L170.75 44.5 196.8 70.5 196.8 72.7 169.75 45.5 M163.0 44.6 L163.45 44.5 165.9 47.35 168.85 50.15 168.75 50.25 Q163.0 45.7 163.0 45.25 L163.0 44.6 M169.6 47.2 L172.7 50.75 166.2 44.4 Q167.6 44.9 169.6 47.2 M193.1 70.5 L195.85 72.65 Q197.6 74.15 198.25 75.25 L195.65 73.4 193.0 70.85 193.1 70.5 M175.4 58.05 L182.0 65.05 195.15 78.2 197.1 80.3 197.0 81.0 197.25 82.8 189.3 75.15 182.35 66.8 179.8 64.45 172.55 57.7 161.55 46.45 161.55 45.75 162.95 45.65 175.4 58.05" fill="#5b5546" fill-rule="evenodd" stroke="none"/>
  </g>
</svg>
