<?xml version="1.0" encoding="UTF-8" standalone="no"?>
<svg xmlns:xlink="http://www.w3.org/1999/xlink" height="36.75px" width="108.45px" xmlns="http://www.w3.org/2000/svg">
  <g transform="matrix(1.0, 0.0, 0.0, 1.0, 14.65, 33.95)">
    <path d="M40.25 -29.25 Q41.75 -29.25 44.25 -28.25 L46.55 -27.25 Q48.2 -27.25 52.55 -28.75 L57.0 -30.25 Q59.2 -30.25 59.6 -29.55 60.0 -28.85 60.5 -28.85 67.95 -28.85 74.15 -32.95 76.0 -34.2 76.7 -33.9 77.65 -33.5 78.8 -30.35 L81.2 -31.35 83.0 -31.85 Q84.8 -31.85 85.45 -29.95 L85.8 -27.85 85.8 -27.35 Q86.7 -28.85 90.0 -28.85 92.35 -28.85 93.3 -27.5 93.8 -26.8 93.8 -26.0 93.8 -25.5 93.05 -24.55 L90.75 -21.85 Q90.8 -21.45 91.55 -20.35 L92.3 -19.05 Q92.3 -17.9 90.45 -14.7 88.55 -11.5 87.05 -10.0 L87.0 -9.85 Q89.85 -10.5 91.1 -8.95 91.8 -8.05 91.8 -7.0 91.8 -6.15 87.25 -1.75 82.5 2.8 81.0 2.8 78.45 2.8 78.05 1.1 77.9 0.45 78.25 -1.35 L78.25 -1.5 71.8 -0.7 68.5 -0.1 Q63.15 -0.1 62.35 -0.75 L61.3 -3.25 51.0 -1.75 Q48.85 -1.75 48.35 -3.1 L48.25 -5.0 48.05 -5.75 Q47.4 -4.95 45.5 -4.3 L43.0 -3.75 Q40.95 -3.75 40.3 -4.6 L39.6 -5.5 Q39.0 -5.5 36.65 -4.4 34.35 -3.35 33.5 -3.35 31.65 -3.35 30.7 -4.05 L30.05 -4.75 Q27.85 -4.75 22.1 -1.75 16.3 1.25 15.5 1.25 14.15 1.25 13.35 0.15 12.85 -0.55 12.75 -1.25 6.75 1.55 4.5 1.55 2.65 1.55 2.05 0.25 1.8 -0.3 1.8 -1.25 1.8 -1.65 3.95 -5.25 6.1 -8.85 6.75 -9.5 L7.0 -9.85 1.3 -6.3 Q-4.45 -2.85 -6.25 -2.85 -8.35 -2.85 -9.65 -5.0 -10.25 -6.05 -10.5 -7.25 -10.5 -9.15 -9.0 -10.6 L-10.35 -9.85 Q-11.25 -9.35 -12.0 -9.35 -13.95 -9.35 -14.5 -10.8 -14.75 -11.55 -14.6 -12.4 -14.6 -14.25 -13.4 -15.2 L-11.3 -16.85 -11.5 -16.85 Q-12.65 -16.85 -13.0 -17.75 L-13.1 -18.8 -10.75 -20.7 -11.45 -21.45 Q-11.85 -21.95 -11.85 -23.5 -11.85 -24.7 -8.5 -28.4 -4.75 -32.5 -2.25 -32.5 L2.45 -31.5 7.0 -30.5 17.5 -29.75 Q19.0 -29.75 19.7 -28.5 L20.25 -26.85 22.8 -27.85 Q24.85 -28.6 26.0 -28.6 27.6 -28.6 28.6 -27.9 L29.35 -27.25 34.2 -28.25 40.25 -29.25" fill="#5b5546" fill-opacity="0.3019608" fill-rule="evenodd" stroke="none"/>
    <path d="M17.5 -18.65 Q16.3 -17.5 15.0 -17.5 13.1 -17.5 12.4 -18.4 12.0 -18.9 11.75 -20.0 3.75 -19.0 2.1 -19.9 L1.3 -20.6 Q0.9 -21.0 -0.15 -21.0 -1.6 -21.0 -3.85 -19.55 L-7.0 -17.5 Q-8.15 -17.8 -8.4 -18.5 L-8.5 -19.4 Q-8.5 -21.2 -4.25 -23.05 -0.2 -24.85 5.05 -25.55 L14.3 -25.2 Q18.55 -23.95 18.55 -20.5 18.55 -19.65 17.5 -18.65" fill="#5b5546" fill-opacity="0.3019608" fill-rule="evenodd" stroke="none"/>
    <path d="M28.5 -18.85 L25.3 -19.35 25.3 -19.25 25.25 -20.1 Q25.25 -20.6 27.05 -19.2 30.25 -18.45 36.55 -22.25 L43.65 -22.6 Q50.35 -22.6 51.9 -24.2 53.45 -25.85 56.0 -25.85 58.5 -25.85 59.3 -24.65 60.15 -23.5 62.0 -23.5 64.45 -23.5 65.95 -24.3 67.5 -25.1 73.0 -25.1 75.15 -25.1 76.05 -23.65 76.55 -22.85 76.55 -22.05 76.55 -19.85 74.0 -19.85 L71.4 -20.4 68.75 -21.0 67.6 -20.0 Q66.55 -19.0 65.5 -19.0 61.15 -19.0 58.25 -20.55 L56.0 -22.1 Q55.4 -22.1 52.0 -20.15 48.55 -18.25 43.5 -18.25 L32.25 -18.6 28.5 -18.85" fill="#5b5546" fill-opacity="0.3019608" fill-rule="evenodd" stroke="none"/>
    <path d="M35.9 -11.15 L34.5 -12.6 Q27.95 -12.6 25.4 -11.45 22.85 -10.35 21.5 -10.35 19.15 -10.35 18.5 -11.15 18.3 -11.4 18.3 -12.1 18.3 -15.1 27.0 -15.65 L51.5 -15.75 Q53.4 -15.75 54.25 -14.45 54.75 -13.75 54.75 -13.05 54.75 -11.85 52.5 -10.75 50.35 -9.75 48.25 -9.75 47.65 -9.75 46.9 -10.25 46.15 -10.75 45.5 -10.75 L42.4 -10.25 39.25 -9.75 Q36.8 -9.75 35.9 -11.15" fill="#5b5546" fill-opacity="0.3019608" fill-rule="evenodd" stroke="none"/>
    <path d="M70.5 -6.85 Q68.1 -6.85 65.5 -8.7 63.25 -10.3 63.25 -11.05 63.25 -13.0 64.75 -13.1 L68.8 -12.85 76.05 -13.85 Q82.05 -14.2 82.05 -11.0 81.65 -9.9 79.95 -8.85 76.7 -6.85 70.5 -6.85" fill="#5b5546" fill-opacity="0.3019608" fill-rule="evenodd" stroke="none"/>
    <path d="M11.25 -2.1 Q10.65 -2.1 9.9 -2.6 9.2 -3.1 8.55 -3.1 7.4 -3.1 6.15 -1.65 4.85 -0.25 4.0 -0.25 2.85 -0.25 -0.75 -2.0 -3.95 -3.55 -4.85 -4.25 L-4.85 -5.0 -3.1 -5.1 -0.75 -4.75 Q-0.9 -6.35 -0.5 -6.95 -0.05 -7.75 1.5 -7.75 5.2 -7.75 4.5 -5.5 7.15 -9.65 10.45 -8.65 13.55 -7.7 13.55 -4.55 13.55 -2.1 11.25 -2.1" fill="#669900" fill-opacity="0.3019608" fill-rule="evenodd" stroke="none"/>
    <path d="M59.85 -20.0 L61.15 -20.25 62.65 -20.0 62.8 -19.95 62.9 -19.15 Q62.9 -18.55 60.0 -15.0 57.15 -11.45 56.65 -11.45 54.75 -11.45 53.8 -13.95 L53.15 -16.6 Q56.1 -25.4 58.9 -19.7 L59.85 -20.0" fill="#669900" fill-opacity="0.3019608" fill-rule="evenodd" stroke="none"/>
    <path d="M63.15 -13.95 Q57.7 -13.95 56.4 -14.6 56.15 -14.75 56.15 -15.4 56.15 -17.35 59.65 -18.05 63.7 -18.9 69.95 -17.2 68.95 -15.9 66.15 -14.8 63.9 -13.95 63.15 -13.95" fill="#669900" fill-opacity="0.3019608" fill-rule="evenodd" stroke="none"/>
    <path d="M2.3 -17.25 Q-0.05 -16.25 -2.5 -15.5 -3.1 -15.5 -4.0 -16.05 -4.9 -16.6 -5.55 -16.6 L-7.65 -15.95 Q-9.1 -15.35 -9.75 -15.35 L-11.25 -15.6 -11.5 -15.75 -11.6 -16.55 -11.25 -19.35 -11.3 -19.55 -10.5 -19.75 Q-8.4 -19.75 -8.25 -19.25 -8.3 -19.0 -8.85 -18.65 L-9.6 -18.1 -9.6 -17.85 Q-4.75 -19.35 2.35 -23.45 4.75 -24.5 5.8 -23.9 7.05 -23.2 7.05 -20.05 7.05 -19.15 2.3 -17.25" fill="#669900" fill-opacity="0.3019608" fill-rule="evenodd" stroke="none"/>
    <path d="M9.55 -29.75 L9.8 -29.4 10.0 -28.4 Q10.0 -27.6 9.05 -27.25 L6.05 -26.0 6.35 -25.15 6.5 -23.9 Q6.5 -23.3 6.1 -22.4 5.6 -21.4 5.0 -21.1 3.15 -21.6 2.65 -23.45 2.5 -24.0 2.5 -25.65 2.5 -28.0 3.05 -28.6 4.35 -29.85 9.55 -29.75" fill="#669900" fill-opacity="0.3019608" fill-rule="evenodd" stroke="none"/>
    <path d="M79.2 -20.1 Q79.05 -20.25 79.05 -21.0 79.05 -21.55 80.4 -22.25 82.25 -23.15 83.55 -24.75 L83.7 -24.55 83.8 -25.3 82.9 -26.25 Q82.0 -27.0 82.0 -27.35 82.0 -29.6 84.5 -28.7 87.0 -27.8 87.0 -25.15 87.0 -23.75 84.55 -21.6 82.3 -19.6 81.5 -19.6 L79.3 -19.85 79.2 -20.1" fill="#669900" fill-opacity="0.3019608" fill-rule="evenodd" stroke="none"/>
    <path d="M80.05 -22.35 Q81.2 -22.6 86.3 -22.35 86.55 -22.85 86.55 -21.6 86.55 -20.95 86.05 -20.65 L84.75 -20.1 86.5 -18.2 88.0 -16.05 Q88.0 -15.05 87.3 -14.35 L86.5 -13.85 Q86.3 -13.85 78.75 -20.4 78.75 -22.05 80.05 -22.35" fill="#669900" fill-opacity="0.3019608" fill-rule="evenodd" stroke="none"/>
    <path d="M34.05 -28.85 Q34.8 -29.3 40.5 -28.0 L45.25 -30.05 Q49.8 -31.35 50.25 -27.35 L48.05 -27.4 47.3 -27.6 Q46.1 -27.6 43.2 -26.1 40.35 -24.6 35.35 -24.6 32.35 -24.6 31.75 -23.95 L30.5 -22.75 Q29.25 -23.35 29.25 -24.5 L28.2 -23.75 Q27.75 -23.35 27.0 -23.35 26.2 -23.35 25.8 -24.5 L25.55 -25.85 Q25.55 -27.3 29.25 -28.35 L34.5 -29.25 34.05 -28.85" fill="#669900" fill-opacity="0.3019608" fill-rule="evenodd" stroke="none"/>
    <path d="M28.9 -25.65 L28.85 -24.25 28.75 -24.05 28.9 -22.65 28.7 -21.5 28.55 -20.7 28.8 -20.45 Q29.85 -19.4 32.5 -20.25 L34.25 -20.25 34.4 -20.15 34.5 -19.75 34.25 -19.5 34.35 -19.5 34.9 -19.5 35.1 -20.5 35.35 -21.75 35.5 -21.75 35.6 -21.2 35.35 -20.2 35.1 -19.55 Q37.85 -19.8 38.5 -22.2 38.9 -23.5 38.6 -24.9 38.6 -25.95 38.4 -26.25 37.85 -27.15 36.0 -27.05 L36.25 -26.75 36.25 -26.4 35.75 -26.25 Q35.1 -26.25 34.2 -27.55 L34.15 -27.65 33.75 -27.7 Q33.6 -27.75 33.6 -28.15 L33.65 -28.3 33.0 -28.9 Q30.25 -28.9 29.45 -28.3 28.65 -27.75 28.25 -27.75 L27.7 -27.75 Q28.9 -26.8 28.9 -25.65 M27.05 -28.2 Q31.4 -29.75 33.55 -29.1 L34.45 -28.6 38.2 -29.25 39.85 -29.35 40.85 -29.35 Q43.2 -31.1 44.0 -29.15 44.95 -29.95 45.95 -30.05 L54.05 -29.45 Q54.85 -30.2 55.9 -30.45 L58.45 -30.5 Q60.3 -30.2 61.1 -29.5 L61.1 -29.65 Q61.1 -30.15 62.05 -30.55 L65.25 -31.0 65.75 -30.05 Q66.55 -31.3 70.3 -31.2 74.25 -31.1 74.95 -28.7 79.8 -31.6 82.3 -29.85 84.8 -28.1 84.95 -27.4 88.75 -28.8 89.85 -26.95 90.25 -26.3 90.25 -24.3 90.25 -23.2 89.7 -22.2 L89.0 -21.3 89.0 -21.25 88.65 -20.6 89.75 -19.7 Q90.1 -19.15 90.1 -18.15 90.1 -17.65 88.85 -17.2 90.05 -16.35 91.0 -13.75 L90.85 -12.3 Q90.85 -12.0 90.25 -12.0 L89.75 -12.1 89.5 -12.3 89.3 -14.7 Q88.8 -16.0 86.75 -16.6 L86.35 -16.55 86.85 -16.4 84.75 -16.15 83.8 -16.05 83.25 -15.95 82.7 -15.35 Q80.05 -14.95 79.45 -13.7 78.65 -13.35 78.65 -12.8 L78.75 -12.0 78.95 -11.4 79.15 -11.0 79.0 -10.8 79.0 -10.4 78.5 -8.9 Q77.85 -7.75 77.0 -7.75 L75.3 -8.15 73.75 -8.6 73.75 -8.5 73.5 -8.4 69.45 -8.4 68.25 -7.9 68.0 -7.25 67.25 -7.0 67.15 -6.9 Q67.0 -6.85 67.0 -7.25 67.0 -7.75 67.35 -7.95 L67.35 -8.0 67.45 -8.0 68.0 -8.05 Q69.7 -8.3 69.75 -10.55 L70.0 -10.6 70.15 -11.5 69.9 -12.1 69.65 -12.75 69.85 -13.2 70.35 -13.75 71.15 -12.2 71.35 -10.6 Q71.35 -9.85 70.7 -9.2 L73.25 -8.8 73.1 -8.9 73.75 -8.75 74.75 -8.5 Q77.5 -8.5 77.9 -10.05 L78.3 -11.45 77.95 -12.0 77.75 -13.0 Q77.75 -14.55 78.9 -15.7 L79.4 -16.1 77.75 -16.4 Q76.85 -16.65 76.85 -16.9 L76.9 -17.15 76.7 -16.95 76.5 -16.5 Q76.5 -15.9 75.75 -15.5 74.8 -15.0 72.75 -15.0 L69.85 -15.0 70.25 -14.75 Q70.25 -14.4 69.75 -14.0 L69.45 -13.9 Q69.1 -13.85 69.1 -14.25 L69.25 -15.05 69.35 -15.05 Q68.5 -15.15 67.95 -15.4 L68.45 -16.45 70.85 -16.25 73.7 -16.5 73.75 -16.5 Q75.35 -16.5 75.9 -17.45 L76.15 -18.75 76.6 -18.75 76.9 -17.55 76.9 -17.9 82.75 -17.15 83.9 -17.55 89.0 -19.0 88.3 -20.2 88.25 -20.2 Q87.5 -19.5 87.25 -19.5 L83.9 -20.15 83.85 -20.25 83.75 -20.75 Q83.75 -21.6 85.25 -21.75 L88.35 -21.75 89.05 -23.5 89.25 -25.85 Q89.25 -26.45 88.75 -26.7 L84.95 -27.4 85.0 -26.9 Q85.0 -25.85 84.6 -24.9 L84.1 -24.9 83.75 -27.7 Q83.35 -29.15 81.35 -29.8 79.3 -30.45 75.1 -28.05 L75.1 -27.55 Q75.1 -26.85 74.6 -26.15 L73.75 -28.65 Q73.25 -30.4 70.25 -30.4 67.75 -30.4 66.55 -29.6 L66.2 -29.2 66.5 -28.65 66.5 -28.9 66.85 -28.9 66.75 -26.6 66.75 -26.4 66.75 -26.15 Q66.8 -24.7 67.75 -24.0 67.85 -24.95 68.25 -25.4 68.75 -24.75 68.75 -23.5 L68.75 -22.9 70.15 -22.85 70.1 -24.15 Q70.1 -24.85 70.4 -25.45 L71.0 -27.25 71.35 -27.25 71.6 -25.9 70.95 -22.75 71.15 -22.75 Q72.25 -23.1 72.75 -23.9 73.7 -25.5 74.35 -25.65 L74.1 -24.4 Q74.1 -23.8 73.45 -22.9 L76.0 -22.75 79.0 -22.65 82.8 -23.1 83.25 -24.0 84.0 -23.75 83.75 -23.6 Q83.6 -23.55 83.6 -23.15 83.6 -22.2 82.85 -21.8 81.85 -21.3 79.1 -21.3 L77.45 -21.35 77.1 -20.85 76.65 -20.25 76.5 -18.9 76.35 -18.9 76.1 -20.75 75.7 -21.55 74.45 -21.8 74.9 -21.5 74.75 -21.2 74.75 -20.75 74.65 -20.05 74.35 -20.0 74.25 -20.25 74.25 -20.95 Q73.6 -21.45 72.45 -21.75 71.9 -21.25 71.5 -21.25 L70.6 -21.25 70.5 -20.9 70.4 -21.25 68.15 -21.35 67.6 -21.15 67.65 -21.4 67.35 -21.5 66.95 -21.95 66.05 -21.9 65.85 -21.8 65.8 -21.95 65.75 -22.0 65.8 -22.0 65.7 -22.4 65.0 -21.95 63.25 -21.5 Q61.8 -21.5 61.25 -22.0 L61.2 -22.1 Q60.0 -20.7 55.9 -20.5 L55.15 -20.5 55.1 -20.25 54.85 -20.15 54.85 -20.5 54.65 -20.5 55.0 -19.15 Q55.0 -18.05 54.5 -17.05 53.7 -15.4 51.85 -15.4 50.15 -15.4 49.25 -15.75 L48.75 -15.85 Q48.7 -16.75 48.1 -17.2 L49.25 -17.25 50.1 -16.85 Q50.9 -16.5 51.25 -16.5 53.9 -16.5 54.15 -18.5 L53.9 -20.5 52.75 -20.65 52.8 -20.75 50.55 -20.65 47.25 -20.75 Q45.25 -20.75 44.45 -22.0 L44.05 -23.15 43.8 -21.6 Q43.35 -19.3 43.35 -17.8 L43.5 -17.25 43.45 -17.05 43.9 -17.05 43.4 -16.25 42.75 -16.2 42.5 -16.0 Q41.2 -16.0 39.85 -16.55 38.65 -17.1 38.65 -17.4 L38.65 -17.85 36.95 -18.5 36.1 -18.5 Q34.05 -18.5 33.3 -19.1 33.8 -18.65 34.85 -18.4 L34.85 -18.15 Q34.85 -18.0 34.5 -18.0 34.9 -17.4 34.9 -16.05 L34.85 -14.9 Q34.7 -14.25 34.0 -13.65 L33.75 -13.75 Q33.6 -13.85 33.6 -14.25 L34.1 -17.5 Q34.1 -17.75 32.85 -18.05 L32.7 -18.1 28.25 -19.0 29.0 -19.05 28.1 -19.6 26.75 -18.95 22.45 -18.35 22.35 -18.0 22.1 -17.9 22.0 -18.15 21.95 -18.3 20.75 -18.3 18.0 -18.75 Q16.25 -14.4 14.5 -14.4 L13.65 -14.5 13.25 -15.0 Q16.2 -16.65 17.2 -19.4 L17.15 -19.5 17.25 -20.3 17.25 -20.4 17.5 -20.45 17.9 -25.25 18.35 -25.25 Q18.75 -23.1 18.75 -21.0 L18.5 -20.15 18.75 -20.0 22.0 -19.55 22.25 -21.3 22.5 -21.3 22.75 -19.95 22.75 -19.5 24.25 -19.5 Q24.75 -19.95 24.75 -20.6 L24.75 -21.8 25.0 -21.8 25.25 -20.45 25.25 -20.0 Q25.1 -19.65 24.25 -19.5 L24.5 -19.5 Q26.6 -19.5 27.4 -20.5 27.25 -20.9 27.25 -21.25 L27.8 -21.2 27.9 -21.7 Q28.2 -23.6 28.45 -24.2 28.2 -25.3 27.6 -26.2 26.3 -28.15 20.75 -28.15 L18.0 -28.5 26.95 -28.25 27.05 -28.2 M38.55 -27.9 L37.9 -27.85 Q38.65 -27.4 39.05 -25.7 L39.4 -21.55 39.35 -19.75 39.15 -19.4 39.45 -18.5 39.65 -18.4 39.65 -17.95 39.85 -17.65 Q40.45 -17.0 41.65 -17.0 42.5 -17.0 42.65 -17.4 L43.0 -18.15 43.15 -18.0 43.25 -21.3 Q43.4 -26.1 42.95 -28.0 L42.75 -28.0 42.9 -28.15 42.7 -28.65 Q41.8 -28.25 39.85 -28.0 L38.55 -27.9 M36.3 -27.75 L35.4 -27.7 35.7 -27.4 36.3 -27.75 M2.8 -28.45 Q2.05 -29.3 2.05 -29.85 2.05 -30.75 4.3 -31.2 6.7 -31.7 7.9 -29.95 L7.55 -29.5 3.05 -29.6 Q2.8 -29.35 3.2 -28.7 L2.8 -28.45 M1.7 -28.85 L2.0 -24.6 2.45 -21.15 Q2.45 -21.35 2.8 -21.15 L3.65 -20.6 4.35 -20.65 Q4.2 -21.15 4.2 -21.7 L4.3 -24.1 4.65 -24.1 4.8 -21.8 4.75 -20.7 8.3 -21.6 9.5 -21.35 10.45 -22.85 Q11.7 -24.8 11.7 -25.55 L11.3 -28.3 10.4 -29.15 8.15 -30.35 Q11.45 -31.0 12.45 -28.25 12.9 -27.05 12.9 -24.1 12.9 -23.6 11.75 -22.05 L10.75 -20.85 11.95 -19.2 Q13.45 -17.0 13.45 -16.35 13.45 -15.65 12.0 -13.8 12.7 -14.35 13.5 -14.25 L12.75 -13.0 13.2 -12.5 13.5 -12.3 13.35 -12.8 13.35 -13.0 13.75 -12.75 14.5 -12.55 25.8 -13.8 Q30.15 -14.4 31.35 -12.05 L31.2 -11.55 Q30.95 -11.25 30.0 -11.25 L28.95 -11.85 Q27.95 -12.45 26.15 -12.5 26.75 -11.95 26.75 -10.8 L26.5 -8.8 26.45 -8.75 26.65 -6.75 Q26.65 -6.25 25.0 -5.5 L23.25 -4.9 23.75 -5.0 21.75 -4.65 19.35 -4.5 18.75 -4.5 18.7 -4.75 19.75 -4.7 Q19.1 -4.8 19.0 -5.0 23.3 -5.35 25.05 -7.35 25.8 -8.15 26.15 -9.05 L25.75 -11.05 Q25.65 -11.9 24.8 -12.5 L20.85 -12.1 17.75 -11.75 14.35 -11.8 14.4 -11.8 14.5 -11.65 Q14.6 -11.3 14.0 -11.3 12.85 -11.3 12.15 -13.05 L12.0 -12.55 12.0 -12.5 Q12.55 -12.05 12.8 -10.75 L13.05 -7.9 13.15 -9.15 Q13.1 -10.85 14.0 -11.05 13.75 -10.3 13.75 -8.65 13.75 -6.05 14.7 -5.5 L14.65 -5.75 14.7 -6.15 14.85 -6.25 15.0 -6.25 15.5 -5.85 Q15.1 -5.7 14.8 -5.3 L14.75 -5.4 14.75 -5.25 14.7 -5.15 14.25 -5.15 Q13.4 -5.15 12.9 -5.95 L12.85 -6.05 11.0 -5.5 8.85 -5.45 8.15 -6.6 6.95 -6.4 7.1 -6.15 5.5 -4.75 Q4.1 -3.9 1.0 -3.9 L-2.8 -4.2 Q-3.0 -4.4 -3.0 -5.15 L-2.75 -5.5 -2.4 -5.15 -1.85 -5.0 Q4.1 -5.0 5.7 -5.7 6.45 -6.0 6.8 -6.4 L7.3 -9.45 6.0 -10.15 5.85 -10.35 Q6.05 -10.9 6.65 -10.7 L7.5 -10.35 7.65 -10.7 7.75 -10.2 8.55 -9.85 8.05 -9.0 7.95 -9.05 8.05 -7.5 8.8 -8.25 9.1 -8.2 9.55 -8.0 9.65 -7.85 9.1 -7.3 9.15 -7.3 Q10.0 -7.4 11.2 -6.3 L12.5 -6.7 12.45 -6.75 11.8 -6.9 12.05 -9.05 11.9 -10.6 10.25 -12.05 Q9.45 -11.45 8.8 -11.45 L8.3 -11.45 8.15 -11.35 8.05 -11.0 Q8.15 -10.75 7.55 -10.75 L5.35 -10.75 Q4.1 -11.55 1.25 -11.4 L-0.05 -11.25 -0.15 -11.3 -2.05 -10.85 -4.65 -10.15 -4.85 -10.4 Q-5.75 -9.75 -5.75 -8.65 L-6.1 -7.95 Q-6.4 -7.5 -6.05 -6.4 -6.4 -6.15 -6.9 -6.15 L-7.25 -7.75 Q-7.25 -8.5 -6.05 -9.9 L-5.1 -10.85 -5.25 -11.05 -6.0 -11.45 -5.15 -12.15 -4.35 -13.15 Q-5.05 -13.95 -5.05 -15.55 L-4.85 -16.95 -4.95 -17.3 -5.15 -18.95 -5.45 -18.95 -5.8 -19.35 -6.45 -19.25 -6.7 -19.25 Q-7.15 -18.1 -7.95 -18.1 L-8.45 -18.1 Q-11.0 -17.9 -11.65 -17.4 -11.85 -17.25 -11.85 -16.5 L-11.5 -13.55 -11.35 -12.65 Q-11.1 -11.4 -9.0 -11.4 -8.7 -11.4 -8.45 -10.9 L-8.25 -10.4 Q-8.25 -9.9 -8.7 -9.75 L-9.3 -9.65 -10.5 -7.05 Q-12.05 -3.9 -12.05 -1.0 L-12.1 0.35 Q-12.3 1.1 -12.9 1.25 -13.3 0.4 -13.3 -1.0 -13.3 -4.7 -13.0 -5.7 -12.5 -7.35 -10.55 -9.7 -12.55 -10.1 -12.55 -12.5 L-12.5 -13.3 -12.65 -13.2 -12.7 -15.3 Q-12.7 -17.75 -11.4 -18.45 L-12.95 -19.25 Q-13.45 -19.75 -13.45 -20.95 -13.45 -22.1 -12.45 -24.2 -11.3 -26.55 -10.2 -26.7 L-10.6 -27.2 Q-8.75 -26.45 -7.85 -25.9 L-7.85 -25.95 Q-7.85 -28.65 -7.45 -30.1 L-7.05 -30.0 -7.1 -30.35 Q-7.1 -31.7 -5.2 -32.25 -3.0 -32.85 -0.6 -30.7 L-0.85 -30.5 -2.35 -31.35 -5.55 -30.7 -6.95 -30.1 -7.0 -29.95 -6.95 -29.95 -7.2 -28.45 -7.05 -25.3 Q-6.35 -24.55 -6.35 -23.55 L-6.35 -22.05 Q-5.9 -20.75 -5.15 -20.2 L-4.55 -20.6 Q-5.2 -21.7 -5.2 -22.65 L-5.2 -24.5 -4.95 -24.5 -4.1 -22.4 Q-3.95 -21.9 -3.95 -21.1 L-3.95 -20.75 -3.85 -20.8 -2.25 -20.85 -2.1 -20.9 -2.2 -22.05 Q-2.2 -23.9 -1.7 -24.35 -1.3 -23.95 -1.3 -21.95 L-1.3 -21.3 Q0.2 -22.2 0.2 -23.25 L-0.05 -24.4 -0.3 -25.6 -0.05 -29.85 0.4 -29.85 0.9 -26.35 1.1 -25.0 1.1 -26.65 Q1.15 -29.45 2.05 -30.25 L1.9 -29.65 1.7 -28.85 M12.75 -27.9 L12.6 -27.9 Q12.7 -30.9 15.25 -30.7 17.75 -30.5 17.75 -28.15 L17.5 -26.15 17.35 -26.15 16.75 -29.75 15.75 -29.75 14.25 -29.0 Q13.0 -28.4 12.75 -27.9 M10.15 -20.3 L9.8 -20.1 9.7 -19.45 Q9.55 -19.25 9.3 -19.2 L7.95 -20.6 6.55 -20.15 Q5.5 -19.7 4.55 -19.7 3.15 -19.7 2.95 -20.0 L2.95 -20.1 2.7 -20.05 2.9 -19.35 2.55 -19.1 1.85 -20.05 -0.35 -20.0 -1.5 -19.4 -1.55 -19.35 -1.7 -19.2 -1.75 -19.35 -2.6 -19.2 -2.8 -19.2 Q-2.8 -18.75 -2.95 -18.95 L-4.35 -18.95 -4.3 -18.45 -3.85 -18.35 Q-3.75 -18.15 -3.9 -17.85 L-4.05 -17.1 -4.0 -16.55 -3.6 -15.1 -3.65 -15.05 -3.2 -13.95 -1.95 -13.25 -1.45 -12.95 -1.15 -12.95 -0.9 -13.05 3.35 -12.9 6.05 -12.75 Q7.65 -12.65 8.05 -12.0 L8.45 -12.6 9.8 -14.35 10.1 -14.25 10.2 -13.85 Q10.2 -13.35 9.2 -12.3 L8.85 -11.95 Q10.8 -12.5 12.15 -15.85 L11.4 -17.4 10.15 -19.75 10.15 -20.3 M14.35 -16.65 Q14.95 -18.15 15.75 -18.5 L15.7 -17.4 Q15.5 -16.9 14.6 -16.65 L14.35 -16.65 M7.05 -23.35 Q7.45 -23.1 7.45 -22.45 L7.35 -21.9 7.05 -21.5 Q6.55 -21.9 6.55 -22.55 L6.65 -23.15 7.05 -23.35 M1.25 -21.5 L0.6 -20.7 1.55 -20.6 1.25 -21.45 1.25 -21.5 M2.8 -20.45 L2.65 -20.6 2.5 -20.95 2.6 -20.5 2.8 -20.45 M5.9 -12.95 L7.4 -14.95 7.6 -14.85 7.65 -14.4 Q7.65 -13.6 6.05 -12.85 L5.9 -12.95 M38.75 -18.85 L38.8 -19.05 38.6 -18.95 38.75 -18.85 M33.95 -22.95 L34.0 -22.55 34.0 -22.15 33.9 -22.15 33.75 -22.0 33.55 -22.05 33.5 -22.45 33.5 -23.05 33.75 -23.05 Q33.85 -22.95 33.95 -22.95 M37.45 -12.4 L39.85 -12.85 41.45 -12.9 Q43.4 -12.9 43.7 -14.2 44.05 -13.8 44.65 -13.6 L44.65 -13.55 45.1 -12.85 45.1 -12.8 45.35 -12.75 Q45.35 -12.55 45.65 -12.25 L45.65 -12.2 Q46.75 -11.25 49.25 -11.25 L50.0 -11.5 50.6 -11.75 50.85 -11.4 50.5 -11.1 Q52.55 -11.95 54.55 -11.5 L54.35 -12.8 Q54.35 -13.9 54.75 -14.05 55.35 -14.0 55.5 -13.75 L55.2 -12.45 54.9 -11.4 55.35 -11.3 55.9 -11.5 58.35 -11.7 Q58.9 -11.9 59.5 -12.25 L59.75 -12.5 59.65 -12.65 Q59.5 -12.95 59.5 -13.95 L59.7 -14.7 59.6 -14.9 59.45 -15.35 Q57.45 -15.6 56.2 -16.25 L55.9 -16.4 Q54.85 -16.95 54.85 -17.4 54.85 -18.05 55.0 -18.15 L55.35 -18.15 55.65 -17.5 55.9 -17.2 Q56.25 -16.95 56.85 -16.8 L57.45 -16.55 58.25 -16.3 60.8 -16.25 Q61.65 -15.85 63.1 -15.75 L63.2 -15.55 Q63.4 -15.0 63.85 -14.75 L61.6 -14.4 61.4 -14.4 60.5 -14.25 60.45 -13.9 60.75 -11.75 Q59.9 -11.75 59.55 -11.0 L59.5 -11.0 57.2 -10.55 56.5 -10.15 55.9 -9.75 54.25 -8.75 53.5 -9.5 53.9 -10.4 52.85 -10.4 53.3 -9.4 53.35 -8.1 53.3 -6.85 53.1 -6.35 54.4 -6.4 55.9 -6.3 Q58.05 -6.15 59.9 -5.4 L60.1 -5.25 55.9 -5.2 55.6 -5.2 52.4 -5.05 52.35 -4.85 52.25 -4.8 52.05 -4.8 Q51.25 -5.25 49.85 -5.5 L50.15 -5.6 50.8 -5.7 52.4 -6.25 52.6 -6.85 52.6 -7.95 52.35 -8.95 52.1 -10.0 52.15 -10.45 50.95 -10.6 50.35 -10.95 49.6 -10.35 Q49.15 -10.0 47.75 -10.0 45.3 -10.0 44.25 -11.55 L44.05 -11.85 43.7 -11.6 Q43.3 -11.25 43.0 -11.25 L42.7 -11.35 41.7 -11.2 41.95 -9.35 42.25 -7.35 42.25 -7.2 41.75 -7.25 40.75 -7.05 40.35 -7.35 40.95 -7.65 Q41.25 -7.85 41.25 -8.55 41.25 -9.9 40.1 -10.95 L39.85 -11.15 37.85 -11.55 36.85 -12.15 37.2 -12.3 35.6 -12.55 37.45 -12.4 M26.75 -5.9 L28.25 -5.8 Q32.8 -5.8 33.6 -6.6 L34.35 -7.75 Q34.75 -7.2 34.75 -6.5 L34.1 -5.55 36.8 -5.7 37.45 -4.7 36.0 -4.65 31.9 -4.8 28.7 -5.15 26.75 -5.9 M35.1 -11.75 L34.25 -11.75 31.85 -12.15 34.75 -13.15 Q35.25 -12.85 35.25 -12.25 L35.2 -11.9 35.1 -11.75 M61.75 -28.15 L61.65 -27.8 61.55 -27.65 61.65 -26.25 61.65 -25.3 Q61.9 -23.8 61.65 -22.8 L62.1 -22.5 Q64.75 -22.5 65.25 -23.0 65.5 -23.3 65.35 -24.0 L65.65 -24.0 65.25 -25.9 65.1 -29.9 62.85 -29.9 61.75 -29.75 61.75 -28.55 61.75 -28.5 61.75 -28.15 M44.15 -28.5 L44.25 -25.3 44.2 -24.0 44.25 -24.0 Q45.75 -22.9 44.9 -22.15 44.95 -22.0 52.1 -22.0 L53.9 -21.85 54.65 -21.75 54.6 -21.8 54.6 -24.65 55.2 -24.7 55.65 -24.25 55.55 -23.5 55.6 -22.5 55.4 -22.4 55.3 -21.65 55.9 -21.5 56.0 -21.5 55.9 -21.45 55.85 -21.45 55.9 -21.45 56.8 -21.55 Q57.45 -22.25 57.6 -23.1 L57.35 -24.65 Q57.35 -24.9 58.1 -24.9 L58.35 -23.25 58.25 -22.35 57.5 -21.7 Q59.6 -22.2 60.35 -23.3 L60.85 -24.6 Q60.75 -25.2 60.8 -26.05 L60.7 -27.8 59.85 -28.5 Q58.55 -29.2 55.9 -29.25 L55.25 -29.3 55.9 -29.2 58.1 -28.9 55.9 -28.75 53.85 -28.7 53.35 -28.65 53.4 -28.7 49.75 -28.65 Q49.05 -28.65 48.6 -29.05 L47.5 -29.5 Q45.85 -29.5 44.35 -28.65 L44.15 -28.5 M41.75 -29.25 L42.35 -29.1 42.0 -29.25 41.75 -29.25 M53.05 -24.35 L53.15 -23.9 52.8 -23.3 52.35 -22.75 Q52.0 -22.85 51.9 -23.0 51.75 -23.2 51.75 -23.65 L51.85 -24.2 52.75 -24.4 53.05 -24.35 M51.25 -12.9 L51.25 -11.8 51.0 -11.5 Q50.65 -11.7 50.65 -12.4 L50.75 -13.0 51.1 -13.0 51.25 -12.9 M76.35 -21.3 L76.35 -21.4 76.35 -21.45 76.2 -21.45 76.35 -21.3 M67.7 -23.5 L67.15 -23.5 Q66.85 -23.5 66.7 -23.85 L66.65 -23.3 67.25 -23.4 67.7 -23.2 67.7 -23.4 67.7 -23.5 M65.9 -22.6 L66.15 -22.7 66.1 -22.8 66.05 -22.9 65.9 -22.6 M66.75 -22.15 L66.4 -22.05 66.8 -22.1 66.75 -22.15 M64.15 -7.25 L65.75 -7.25 65.85 -6.75 Q65.85 -6.25 65.45 -6.15 L64.75 -6.0 64.25 -6.1 Q64.1 -6.25 64.1 -6.65 L64.15 -7.25 M74.4 -3.75 L79.55 -4.2 Q81.75 -4.4 84.5 -3.5 L84.6 -3.4 82.2 -3.1 79.75 -2.9 74.4 -3.4 74.4 -3.75 M86.55 -24.55 L86.65 -24.0 85.9 -22.85 85.0 -22.0 84.95 -21.9 84.9 -22.25 85.15 -23.4 Q85.55 -24.55 86.35 -24.75 L86.55 -24.55 M86.75 -12.55 L87.2 -10.9 87.55 -10.05 90.0 -12.0 90.4 -11.6 90.5 -11.0 Q90.5 -10.3 89.75 -9.4 L88.8 -8.55 89.15 -7.85 Q89.65 -6.55 89.65 -4.6 L88.9 -2.7 88.7 -2.2 Q89.85 -1.1 90.35 0.0 L90.25 0.45 89.75 0.6 88.05 -0.95 88.0 -0.9 87.65 -1.35 85.1 -3.5 Q86.2 -3.75 87.4 -3.1 L87.9 -4.95 88.5 -7.5 87.85 -7.85 86.25 -8.25 85.6 -8.4 86.3 -8.85 83.85 -8.5 83.7 -8.5 83.6 -8.4 83.65 -8.5 Q82.95 -8.55 82.8 -8.8 L82.0 -9.25 83.75 -9.35 84.2 -9.35 84.4 -9.5 Q84.15 -9.95 84.15 -10.75 L84.25 -12.15 84.6 -12.15 84.8 -10.65 85.05 -9.45 85.1 -9.4 85.05 -9.4 85.1 -9.3 85.35 -9.3 Q85.85 -9.3 86.75 -9.9 L87.2 -9.8 87.25 -9.85 86.85 -10.7 86.5 -12.55 86.75 -12.55 M84.45 -9.35 L84.35 -9.35 84.5 -9.35 84.45 -9.35 M-3.9 -19.95 L-4.2 -19.95 -4.25 -19.85 -4.3 -19.75 -3.95 -19.7 -3.95 -19.9 -3.9 -19.95 M-7.8 -20.95 Q-7.55 -21.35 -7.55 -21.7 -7.55 -25.95 -10.05 -25.25 -12.55 -24.55 -12.55 -21.1 -12.55 -20.4 -11.95 -19.8 -11.3 -19.1 -10.2 -19.1 L-9.5 -19.1 Q-10.35 -19.25 -11.0 -19.75 L-11.55 -20.45 Q-11.55 -21.45 -10.95 -21.85 -10.7 -21.7 -10.2 -20.75 -9.55 -20.05 -8.0 -20.4 L-7.8 -20.95 M-6.35 -20.55 L-6.4 -20.65 -6.45 -20.55 -6.45 -20.5 -6.35 -20.55 M-8.6 -12.85 L-8.5 -12.9 -8.45 -12.75 -8.65 -12.85 -8.6 -12.85 M-6.9 -11.4 Q-6.9 -10.75 -7.15 -10.3 L-7.5 -10.3 -7.5 -12.25 -7.05 -12.25 Q-6.9 -12.0 -6.9 -11.4" fill="#5b5546" fill-rule="evenodd" stroke="none"/>
  </g>
</svg>
