<?xml version="1.0" encoding="UTF-8" standalone="no"?>
<svg xmlns:xlink="http://www.w3.org/1999/xlink" height="54.3px" width="92.25px" xmlns="http://www.w3.org/2000/svg">
  <g transform="matrix(1.0, 0.0, 0.0, 1.0, 48.0, 63.5)">
    <path d="M43.25 -58.0 Q43.25 -57.3 42.5 -56.8 41.55 -56.15 39.5 -56.15 39.15 -56.15 38.8 -56.45 L38.15 -56.75 32.95 -55.55 Q28.5 -54.4 27.35 -54.4 25.6 -54.4 25.35 -55.25 25.2 -55.65 25.4 -56.25 L7.85 -54.5 Q5.85 -54.5 5.6 -55.0 L5.0 -55.5 -13.95 -54.95 Q-17.65 -55.1 -24.95 -54.7 -29.35 -54.5 -30.65 -56.05 -31.8 -57.4 -34.0 -57.6 L-36.0 -57.5 -46.0 -54.65 Q-47.25 -54.65 -47.75 -55.4 L-48.0 -56.25 Q-48.0 -58.55 -37.5 -61.5 -32.4 -62.95 -31.0 -63.0 L-27.75 -62.75 -19.75 -63.5 Q-15.75 -63.5 -15.3 -62.9 L-15.5 -61.65 -14.25 -61.55 -8.7 -62.25 Q-1.25 -62.75 16.5 -62.75 24.6 -62.75 25.0 -62.55 L25.6 -62.25 26.1 -61.65 26.25 -60.55 31.25 -61.15 39.1 -60.75 39.5 -60.25 39.6 -59.05 42.65 -58.75 Q43.25 -58.45 43.25 -58.0" fill="#5b5546" fill-opacity="0.3019608" fill-rule="evenodd" stroke="none"/>
    <path d="M32.5 -60.3 L34.85 -60.55 Q36.95 -60.55 38.6 -59.3 39.9 -58.35 39.9 -57.75 39.9 -56.0 37.85 -56.0 L35.55 -56.6 34.3 -57.25 25.05 -56.3 Q13.8 -55.4 -14.25 -55.4 -33.8 -55.4 -35.45 -55.55 -36.15 -55.65 -36.0 -55.9 -35.85 -56.25 -36.75 -56.5 L-40.3 -57.35 Q-41.0 -57.55 -41.0 -58.3 L-32.0 -60.75 -28.8 -60.35 Q-28.75 -60.0 -28.5 -60.0 L-21.45 -61.3 Q-15.15 -62.1 -18.75 -59.55 -10.25 -59.5 -4.75 -59.75 L-1.75 -59.4 Q-1.6 -59.05 -1.25 -59.05 25.55 -59.05 30.8 -59.8 L32.5 -60.3" fill="#5b5546" fill-opacity="0.3019608" fill-rule="evenodd" stroke="none"/>
    <path d="M2.55 -9.2 L-5.15 -9.2 -4.75 -24.65 -4.95 -38.15 Q-5.15 -46.4 -4.95 -51.65 -4.55 -59.4 -3.25 -60.05 -2.15 -60.6 -0.55 -56.4 0.65 -53.1 1.85 -47.95 2.95 -43.3 2.95 -41.85 2.95 -36.55 2.25 -34.85 1.45 -33.15 1.45 -27.75 L2.05 -21.7 2.55 -14.35 2.55 -9.2" fill="#8d6d3f" fill-opacity="0.3019608" fill-rule="evenodd" stroke="none"/>
    <path d="M0.05 -56.05 Q2.1 -57.75 4.15 -48.35 5.85 -40.5 5.85 -36.25 L5.85 -33.25 Q5.65 -31.4 4.15 -31.4 2.65 -31.4 2.45 -32.65 L2.55 -34.0 2.3 -35.05 1.85 -35.8 1.65 -35.8 1.35 -34.15 1.15 -32.55 2.05 -16.95 2.05 -12.4 1.85 -11.0 Q0.0 -10.95 -2.25 -10.15 L-2.3 -10.15 -2.4 -11.15 Q-2.0 -14.4 -2.15 -15.6 L-2.35 -15.4 -3.25 -15.2 Q-5.35 -15.2 -5.75 -22.25 L-5.75 -29.55 -4.65 -45.0 -3.55 -59.0 Q-1.55 -60.35 0.05 -56.05" fill="#8d6d3f" fill-opacity="0.3019608" fill-rule="evenodd" stroke="none"/>
    <path d="M-3.65 -57.6 L-2.85 -57.8 Q-2.4 -57.8 -2.05 -56.9 -1.75 -56.15 -1.75 -55.6 1.05 -59.4 1.85 -57.25 2.05 -56.55 2.05 -52.95 L1.85 -49.95 Q1.25 -47.7 -0.65 -47.05 L-0.3 -46.75 0.15 -46.4 -0.05 -46.35 -0.95 -46.25 -0.65 -40.75 Q-0.75 -37.05 -2.45 -37.05 L-3.25 -37.2 -3.75 -37.6 -3.95 -44.35 -3.75 -57.4 -3.65 -57.6" fill="#8d6d3f" fill-opacity="0.3019608" fill-rule="evenodd" stroke="none"/>
    <path d="M3.95 -30.25 Q2.95 -30.25 2.65 -31.05 L2.55 -31.85 Q10.15 -41.35 17.7 -48.95 32.85 -64.25 32.85 -55.55 32.85 -55.05 29.35 -51.1 25.5 -46.75 21.05 -42.45 8.55 -30.25 3.95 -30.25" fill="#8d6d3f" fill-opacity="0.3019608" fill-rule="evenodd" stroke="none"/>
    <path d="M15.55 -41.05 Q14.25 -41.05 13.85 -41.95 L13.75 -42.95 Q17.7 -48.0 21.65 -51.8 29.55 -59.4 29.55 -53.75 29.55 -53.15 23.6 -47.25 17.3 -41.05 15.55 -41.05" fill="#8d6d3f" fill-opacity="0.3019608" fill-rule="evenodd" stroke="none"/>
    <path d="M-5.75 -30.05 L-7.65 -28.45 Q-9.5 -28.45 -20.55 -42.05 -31.25 -55.2 -31.25 -55.75 -31.25 -58.9 -29.55 -59.55 -27.95 -60.15 -25.45 -58.55 -19.75 -55.0 -15.95 -46.85 L-9.85 -40.0 Q-4.15 -33.85 -4.15 -32.55 -4.15 -31.75 -5.75 -30.05" fill="#8d6d3f" fill-opacity="0.3019608" fill-rule="evenodd" stroke="none"/>
    <path d="M-22.15 -53.45 Q-17.0 -48.15 -11.85 -40.85 -11.85 -39.95 -12.55 -39.45 -13.1 -39.05 -13.65 -39.05 -15.65 -39.05 -24.15 -46.25 -32.45 -53.3 -32.45 -54.35 -32.45 -64.05 -22.15 -53.45" fill="#8d6d3f" fill-opacity="0.3019608" fill-rule="evenodd" stroke="none"/>
    <path d="M1.05 -18.6 Q0.75 -18.65 0.75 -18.05 L0.95 -10.95 -0.35 -10.7 0.05 -18.8 1.25 -18.6 1.05 -18.6" fill="#8d6d3f" fill-opacity="0.3019608" fill-rule="evenodd" stroke="none"/>
    <path d="M1.1 -56.6 L1.15 -56.65 2.65 -56.65 Q2.5 -44.35 2.5 -17.55 L2.55 -17.35 2.7 -15.45 2.65 -9.7 1.15 -9.7 1.1 -13.95 1.15 -17.15 1.3 -18.25 1.1 -56.6 M-3.3 -56.65 L-3.25 -57.45 -2.9 -57.45 -2.35 -56.4 -2.25 -55.45 -2.55 -50.45 -2.9 -45.95 -3.05 -45.85 -3.45 -53.85 Q-3.3 -55.15 -3.3 -56.65 M-5.0 -56.65 L-3.85 -56.65 -3.8 -11.55 -3.85 -9.7 -5.1 -9.7 -5.2 -13.35 Q-5.05 -13.35 -5.0 -56.65 M-0.7 -19.05 L-1.05 -39.0 Q-1.05 -50.0 -0.5 -57.15 -0.25 -51.15 -0.25 -39.0 L-0.55 -19.05 -0.7 -19.05" fill="#5b5546" fill-rule="evenodd" stroke="none"/>
    <path d="M32.55 -56.35 L32.55 -55.75 Q22.85 -46.0 22.95 -46.95 20.75 -43.75 16.65 -40.05 L14.4 -38.0 7.3 -30.1 1.4 -24.0 1.6 -25.6 1.5 -26.2 3.25 -28.05 14.7 -39.55 20.45 -45.6 31.3 -56.45 32.55 -56.35 M27.85 -57.05 L27.9 -56.7 Q27.9 -56.0 25.9 -54.2 L23.65 -52.25 23.5 -52.25 25.55 -54.75 27.7 -57.15 27.85 -57.05 M30.65 -57.8 L30.95 -57.65 Q29.0 -56.2 26.6 -53.45 L22.45 -49.05 22.3 -49.05 26.15 -53.65 Q28.45 -56.45 30.35 -57.85 L30.65 -57.8 M14.25 -40.25 L14.1 -40.25 Q18.25 -44.95 20.5 -46.65 19.0 -44.35 14.25 -40.25 M-4.35 -28.6 L-4.45 -28.05 -4.25 -26.6 -10.6 -32.75 -16.15 -39.4 -18.2 -41.3 -24.0 -46.7 -32.8 -55.7 -32.8 -56.25 -31.7 -56.35 -21.75 -46.4 -16.45 -40.8 -5.95 -30.3 -4.35 -28.6 M-4.6 -36.45 L-4.6 -34.7 -26.25 -56.45 -25.45 -57.25 -4.6 -36.45 M1.75 -33.5 L25.25 -56.95 26.6 -56.65 1.75 -31.5 1.75 -33.5 M-5.55 -34.15 L-7.65 -36.15 -7.55 -36.45 -5.35 -34.75 Q-3.95 -33.55 -3.45 -32.65 L-5.55 -34.15 M-26.35 -55.1 L-23.9 -52.25 -29.1 -57.35 Q-27.95 -56.95 -26.35 -55.1 M-31.65 -57.15 L-31.3 -57.25 -29.35 -54.95 -26.95 -52.75 -27.05 -52.65 Q-31.65 -56.3 -31.65 -56.65 L-31.65 -57.15" fill="#5b5546" fill-rule="evenodd" stroke="none"/>
    <path d="M43.75 -62.75 L43.85 -62.25 44.05 -61.85 Q44.1 -61.7 43.6 -61.65 L43.95 -60.6 44.25 -59.15 43.85 -55.9 43.75 -55.5 42.75 -55.3 41.65 -55.5 41.65 -55.55 40.5 -55.5 -43.75 -55.8 -43.9 -55.55 -43.85 -55.5 -44.25 -55.5 Q-44.8 -55.5 -44.8 -58.05 -44.85 -61.15 -45.4 -62.15 L-46.0 -62.25 -45.35 -62.25 -45.3 -62.35 -45.3 -62.4 -45.25 -62.8 -45.0 -62.8 Q-44.55 -63.35 -44.2 -62.8 L-34.0 -62.95 -32.0 -63.0 Q-5.75 -63.0 -4.25 -62.8 L-3.15 -62.7 24.0 -62.8 43.25 -62.8 43.75 -62.75 M43.25 -60.4 L42.9 -61.15 42.6 -61.6 33.6 -61.55 -20.25 -61.75 -34.0 -61.85 -34.55 -61.85 -42.15 -62.0 -43.9 -62.0 -43.75 -60.95 -43.5 -56.65 -43.5 -56.55 -41.0 -56.75 -34.0 -56.75 -10.45 -56.8 -10.65 -57.8 -10.55 -59.0 -10.4 -59.0 -10.2 -56.8 -8.45 -56.8 -8.55 -57.95 -8.5 -59.75 -8.05 -59.75 -7.8 -57.85 -7.9 -56.8 17.7 -56.9 Q17.35 -57.7 17.35 -59.0 L17.85 -59.0 Q18.0 -58.9 18.05 -58.9 L18.1 -58.5 17.9 -57.0 17.85 -56.9 20.15 -56.9 20.1 -57.05 20.1 -58.75 20.6 -58.75 20.85 -57.85 20.8 -56.9 39.5 -57.0 41.95 -56.65 42.85 -58.3 43.1 -59.0 42.85 -59.0 41.25 -58.9 Q39.95 -58.9 39.75 -59.25 L41.25 -59.5 43.15 -59.3 43.25 -60.4 M-33.65 -59.3 Q-33.5 -59.0 -33.5 -58.25 -33.5 -57.4 -33.65 -56.9 L-33.8 -56.9 -34.0 -58.15 -34.0 -58.4 -33.9 -59.3 -33.65 -59.3 M-35.05 -57.85 L-35.5 -56.9 -35.65 -57.7 Q-35.65 -58.65 -34.9 -59.05 -34.75 -59.35 -34.75 -58.75 L-35.05 -57.85 M-36.6 -59.5 L-36.5 -58.95 Q-36.5 -57.05 -37.75 -57.0 -37.25 -57.35 -37.35 -58.45 -37.5 -59.55 -37.0 -59.9 L-36.6 -59.5" fill="#5b5546" fill-rule="evenodd" stroke="none"/>
  </g>
</svg>
