<?xml version="1.0" encoding="UTF-8" standalone="no"?>
<svg xmlns:xlink="http://www.w3.org/1999/xlink" height="25.6px" width="29.5px" xmlns="http://www.w3.org/2000/svg">
  <g transform="matrix(1.0, 0.0, 0.0, 1.0, 14.75, 13.35)">
    <path d="M4.5 -10.35 Q8.95 -10.35 11.3 -6.5 12.5 -4.55 12.8 -2.55 12.8 -1.45 11.25 1.0 9.95 3.05 8.8 3.6 14.75 4.4 14.75 8.85 14.75 9.9 14.0 10.6 13.2 11.25 12.0 11.25 L-4.35 12.2 Q-12.3 12.6 -13.5 10.3 -14.0 10.1 -14.0 8.85 -14.0 7.75 -9.5 6.2 -7.0 5.3 -4.25 4.7 L-4.15 2.85 -7.6 2.3 -8.55 3.3 Q-9.5 4.3 -10.0 4.3 -10.5 4.3 -14.35 -0.9 -14.35 -2.15 -9.35 -7.5 -3.85 -13.35 -0.75 -13.35 2.55 -13.35 3.1 -12.1 3.1 -10.65 3.3 -10.25 L4.5 -10.35" fill="#ffffff" fill-rule="evenodd" stroke="none"/>
    <path d="M11.75 -5.1 Q13.05 -3.75 13.05 -1.55 13.05 0.35 12.55 0.8 11.1 2.05 5.25 2.05 -2.15 2.05 -2.75 1.2 -3.1 0.65 -2.0 -0.75 L-4.8 0.05 -11.0 0.8 Q-14.75 0.8 -14.75 -1.55 -14.75 -2.6 -12.75 -5.15 -10.65 -7.75 -9.5 -7.75 -8.85 -7.75 -8.4 -7.15 -7.95 -6.6 -7.35 -6.6 L-3.45 -9.1 Q0.4 -11.0 5.5 -8.5 10.1 -6.85 11.75 -5.1" fill="#cc3300" fill-opacity="0.3019608" fill-rule="evenodd" stroke="none"/>
    <path d="M13.75 -3.4 L14.05 -1.9 Q14.05 -0.65 12.75 0.5 11.35 1.75 9.5 1.75 L6.4 1.15 3.3 0.55 Q1.25 0.55 -0.75 1.8 -2.8 3.05 -5.0 3.05 -8.85 3.05 -13.1 -2.05 -13.1 -5.75 -6.0 -5.65 L10.5 -4.75 Q12.95 -4.75 13.75 -3.4" fill="#cc3300" fill-opacity="0.3019608" fill-rule="evenodd" stroke="none"/>
    <path d="M12.8 -1.05 Q12.8 1.35 12.1 1.75 L8.0 2.05 -2.0 3.0 Q-7.8 3.0 -11.0 0.5 -12.6 -0.75 -13.0 -1.9 -13.0 -3.75 -8.95 -6.3 -4.85 -8.85 -0.1 -9.85 5.4 -11.05 8.75 -9.25 12.8 -7.1 12.8 -1.05" fill="#cc3300" fill-opacity="0.3019608" fill-rule="evenodd" stroke="none"/>
    <path d="M11.75 -0.05 Q11.75 1.35 9.8 2.25 7.55 3.25 3.25 3.25 -7.6 3.25 -11.1 1.3 -12.6 0.5 -12.6 -1.05 -12.6 -3.25 -8.8 -5.6 -5.05 -7.9 -0.4 -8.6 4.75 -9.4 7.95 -7.6 11.75 -5.45 11.75 -0.05" fill="#cc3300" fill-opacity="0.3019608" fill-rule="evenodd" stroke="none"/>
    <path d="M1.25 7.6 Q-2.85 7.6 -4.45 6.7 -5.3 6.25 -5.3 5.7 -5.3 3.1 -0.7 2.65 3.9 2.2 3.9 5.05 3.9 7.6 1.25 7.6" fill="#666666" fill-opacity="0.3019608" fill-rule="evenodd" stroke="none"/>
    <path d="M5.25 3.85 Q5.15 6.4 3.75 6.4 3.5 6.4 3.1 6.1 L2.75 5.75 Q2.4 5.75 1.65 6.45 0.9 7.1 0.25 7.1 -1.65 7.1 -2.05 5.6 L-2.15 4.0 Q-2.15 1.75 -1.45 1.9 -0.2 2.65 1.0 2.65 1.3 2.65 1.6 2.9 L2.25 3.15 3.05 2.7 Q3.65 2.25 4.0 2.25 5.05 2.25 5.25 3.0 L5.25 3.85" fill="#666666" fill-opacity="0.3019608" fill-rule="evenodd" stroke="none"/>
    <path d="M13.4 9.85 Q13.5 10.1 12.6 10.25 L-2.0 10.5 -14.1 9.9 Q-15.15 9.6 -14.25 9.2 L-14.4 8.05 Q-14.4 7.75 -13.25 7.75 L3.2 7.9 9.45 7.25 Q13.15 7.05 13.15 9.15 L13.4 9.85" fill="#666666" fill-opacity="0.3019608" fill-rule="evenodd" stroke="none"/>
    <path d="M13.55 8.25 Q14.4 8.8 14.25 9.5 L14.45 10.3 Q14.4 10.6 13.35 10.75 L-2.5 11.0 Q-6.75 11.0 -7.75 10.25 -8.25 9.85 -7.9 9.45 -7.9 8.45 -6.4 8.2 L6.5 7.4 Q11.75 7.1 13.55 8.25" fill="#666666" fill-opacity="0.3019608" fill-rule="evenodd" stroke="none"/>
    <path d="M9.75 9.6 Q9.05 10.5 8.5 10.5 L-0.7 9.8 Q-2.0 9.35 -2.0 8.45 -2.0 7.7 -1.25 7.45 L4.75 6.9 9.8 7.15 Q10.45 7.55 10.35 8.15 10.35 8.75 9.75 9.6" fill="#666666" fill-opacity="0.3019608" fill-rule="evenodd" stroke="none"/>
    <path d="M13.55 7.1 L13.35 7.5 12.35 7.6 -5.05 7.45 -13.35 7.3 Q-12.85 8.25 -12.85 10.5 L-11.15 10.35 -11.15 10.1 -11.35 8.95 -10.9 8.85 Q-10.75 9.4 -10.75 10.15 L-10.75 10.35 -9.35 10.25 -9.5 8.7 -9.4 8.15 Q-8.75 7.65 -8.75 9.5 L-8.8 10.25 -7.3 10.2 -7.35 9.95 -7.4 9.6 -7.35 8.9 Q-7.25 8.5 -6.85 8.45 L-6.65 8.5 -6.6 8.7 -6.8 9.65 -6.8 10.2 -0.85 10.05 Q6.8 9.95 9.95 10.2 L11.2 10.2 11.15 9.85 11.25 8.95 11.45 8.3 11.6 9.3 11.8 10.25 12.85 10.3 12.95 8.7 Q13.2 7.7 13.95 7.25 L14.1 7.55 13.85 11.1 Q13.85 11.9 13.3 11.9 11.6 11.9 9.55 11.3 L9.15 11.2 8.3 11.2 -8.95 11.1 -9.0 11.2 -9.2 11.25 -9.2 11.1 -10.8 11.1 -10.85 11.2 -11.1 11.2 -11.1 11.1 -12.85 11.05 Q-12.95 11.45 -13.25 11.45 L-13.75 11.0 -13.8 11.0 -13.9 10.7 -14.1 10.1 -13.95 8.2 -13.75 6.8 -13.55 7.0 -10.35 6.75 Q-5.0 6.6 11.65 6.6 13.6 6.4 13.55 7.1 M10.15 10.05 L9.55 9.35 9.6 8.95 Q10.3 9.05 10.3 9.5 L10.15 10.05" fill="#594637" fill-rule="evenodd" stroke="none"/>
    <path d="M3.9 1.85 Q4.65 2.05 4.65 2.35 L4.0 3.1 4.05 3.85 4.25 6.6 Q4.3 7.3 3.65 7.3 3.2 7.3 3.1 6.95 L3.1 6.85 1.6 6.9 0.5 6.75 0.45 6.45 1.75 6.3 3.05 6.35 3.05 5.9 1.45 5.95 -0.95 5.75 -1.05 5.45 Q-1.05 5.0 1.35 4.95 L3.1 5.05 3.1 4.85 0.0 4.85 -0.9 4.65 -0.75 4.3 Q-1.3 4.25 -1.45 3.9 L-1.45 3.45 -3.65 3.4 Q-3.2 5.25 -3.2 5.95 -3.2 6.65 -3.9 6.65 -4.3 6.65 -4.55 4.9 L-4.75 3.15 -4.75 2.9 -5.65 2.05 Q-5.65 1.55 -4.65 1.5 -4.55 0.45 -4.15 1.5 L0.75 1.5 3.5 1.75 3.85 1.45 3.9 1.85 M3.1 4.3 L3.15 3.55 2.15 3.9 3.1 4.3" fill="#594637" fill-rule="evenodd" stroke="none"/>
    <path d="M4.7 -4.7 L5.0 -3.4 5.1 -2.05 5.0 -1.5 Q4.35 -1.55 4.15 -2.2 L4.1 -3.2 Q4.0 -3.6 4.05 -3.95 4.1 -4.65 4.7 -4.7 M1.8 -3.8 L1.85 -4.6 Q2.3 -4.6 2.5 -4.2 L2.5 -2.6 2.25 -2.5 Q2.05 -2.5 1.9 -3.1 L1.8 -3.8 M6.7 -3.05 L6.4 -2.85 Q5.2 -5.3 5.2 -5.8 L5.25 -6.0 Q6.6 -6.1 6.75 -3.55 L6.7 -3.05 M-6.15 -2.7 L-6.15 -4.6 -5.6 -5.4 -5.3 -4.85 -5.6 -2.7 -5.9 -2.6 -6.15 -2.7 M-3.9 -4.3 L-3.6 -4.35 Q-3.3 -4.2 -3.3 -3.6 -3.3 -2.75 -3.55 -2.5 L-3.9 -2.95 -3.9 -4.3" fill="#594637" fill-rule="evenodd" stroke="none"/>
    <path d="M-11.55 0.85 L-11.6 1.15 -11.0 1.1 -10.65 1.1 Q-10.15 -0.7 -7.2 -2.95 L-7.15 -2.8 Q-7.15 -2.4 -9.55 1.1 L-7.5 1.05 -7.35 -0.5 Q-7.1 -1.3 -6.3 -1.9 L-6.25 -1.9 -6.2 -1.75 -6.45 -0.15 -6.7 1.05 -4.85 1.05 Q-4.8 0.35 -4.35 -0.3 -3.85 -1.1 -3.2 -1.3 L-3.1 -1.3 -3.05 -1.1 Q-3.05 -0.7 -3.55 -0.1 L-4.0 1.05 -1.05 1.05 -1.15 0.2 -1.25 -1.05 Q-1.2 -1.55 -0.2 -1.7 L-0.1 -1.7 -0.05 -1.5 -0.15 -0.35 -0.6 1.05 3.05 1.0 3.0 0.85 2.95 0.45 3.0 -0.25 3.85 -0.35 Q3.45 -0.15 3.45 0.35 L3.5 1.0 6.55 1.0 6.5 0.9 6.5 0.2 Q6.4 -0.15 6.45 -0.45 6.55 -1.05 7.2 -1.05 L7.5 1.0 9.4 0.95 Q7.9 -1.35 7.9 -2.0 L7.95 -2.45 Q9.0 -2.5 9.85 0.45 L9.7 0.9 9.55 0.95 11.3 0.95 10.45 -0.4 8.55 -3.15 8.5 -3.3 Q8.5 -4.1 10.25 -2.15 11.7 -0.55 11.95 0.95 L12.0 0.95 13.15 1.0 Q9.85 -5.7 6.2 -8.4 3.25 -10.6 -0.8 -10.6 -4.8 -10.6 -7.85 -7.7 L-10.3 -4.55 -11.95 -0.85 -12.75 1.2 -12.6 1.2 Q-12.35 0.15 -11.35 -1.6 -9.95 -4.15 -8.95 -4.2 L-8.9 -4.05 -9.8 -2.7 -11.05 -0.8 -11.55 0.85 M-10.35 -6.15 Q-6.75 -10.8 -2.25 -11.6 7.05 -13.7 13.85 0.8 L13.85 1.25 13.9 1.45 Q13.9 1.85 13.7 1.9 L11.8 1.95 -10.05 1.8 -10.35 2.25 Q-10.75 2.25 -10.75 1.8 L-11.9 1.8 -12.35 2.35 -12.7 1.8 -12.95 1.8 -13.0 1.85 -13.2 1.8 -13.7 1.8 -13.8 1.6 -13.5 1.35 -13.5 0.9 Q-13.5 -2.1 -10.35 -6.15" fill="#594637" fill-rule="evenodd" stroke="none"/>
  </g>
</svg>
