<?xml version="1.0" encoding="UTF-8" standalone="no"?>
<svg xmlns:xlink="http://www.w3.org/1999/xlink" height="19.6px" width="29.5px" xmlns="http://www.w3.org/2000/svg">
  <g transform="matrix(1.0, 0.0, 0.0, 1.0, 14.75, 7.35)">
    <path d="M11.3 -0.5 Q12.5 1.45 12.8 3.45 L12.5 4.75 Q14.75 6.1 14.75 8.85 14.75 9.9 14.0 10.6 13.2 11.25 12.0 11.25 L-4.35 12.2 Q-12.3 12.6 -13.5 10.3 -14.0 10.1 -14.0 8.85 -14.0 8.25 -12.55 7.5 L-14.35 5.1 Q-14.35 3.85 -9.35 -1.5 -3.85 -7.35 -0.75 -7.35 2.55 -7.35 3.1 -6.1 3.1 -4.65 3.3 -4.25 L4.5 -4.35 Q8.95 -4.35 11.3 -0.5" fill="#ffffff" fill-rule="evenodd" stroke="none"/>
    <path d="M11.75 0.9 Q13.05 2.25 13.05 4.45 13.05 6.35 12.55 6.8 11.1 8.05 5.25 8.05 -2.15 8.05 -2.75 7.2 -3.1 6.65 -2.0 5.25 L-4.8 6.05 -11.0 6.8 Q-14.75 6.8 -14.75 4.45 -14.75 3.4 -12.75 0.85 -10.65 -1.75 -9.5 -1.75 -8.85 -1.75 -8.4 -1.15 -7.95 -0.6 -7.35 -0.6 L-3.45 -3.1 Q0.4 -5.0 5.5 -2.5 10.1 -0.85 11.75 0.9" fill="#9fd26c" fill-opacity="0.3019608" fill-rule="evenodd" stroke="none"/>
    <path d="M13.75 2.6 L14.05 4.1 Q14.05 5.35 12.75 6.5 11.35 7.75 9.5 7.75 L6.4 7.15 3.3 6.55 Q1.25 6.55 -0.75 7.8 -2.8 9.05 -5.0 9.05 -8.85 9.05 -13.1 3.95 -13.1 0.25 -6.0 0.35 L10.5 1.25 Q12.95 1.25 13.75 2.6" fill="#9fd26c" fill-opacity="0.3019608" fill-rule="evenodd" stroke="none"/>
    <path d="M12.8 4.95 Q12.8 7.35 12.1 7.75 L8.0 8.05 -2.0 9.0 Q-7.8 9.0 -11.0 6.5 -12.6 5.25 -13.0 4.1 -13.0 2.25 -8.95 -0.3 -4.85 -2.85 -0.1 -3.85 5.4 -5.05 8.75 -3.25 12.8 -1.1 12.8 4.95" fill="#9fd26c" fill-opacity="0.3019608" fill-rule="evenodd" stroke="none"/>
    <path d="M11.75 5.95 Q11.75 7.35 9.8 8.25 7.55 9.25 3.25 9.25 -7.6 9.25 -11.1 7.3 -12.6 6.5 -12.6 4.95 -12.6 2.75 -8.8 0.4 -5.05 -1.9 -0.4 -2.6 4.75 -3.4 7.95 -1.6 11.75 0.55 11.75 5.95" fill="#9fd26c" fill-opacity="0.3019608" fill-rule="evenodd" stroke="none"/>
    <path d="M13.4 9.85 Q13.5 10.1 12.6 10.25 L-2.0 10.5 -14.1 9.9 Q-15.15 9.6 -14.25 9.2 L-14.4 8.05 Q-14.4 7.75 -13.25 7.75 L3.2 7.9 9.45 7.25 Q13.15 7.05 13.15 9.15 L13.4 9.85" fill="#666666" fill-opacity="0.3019608" fill-rule="evenodd" stroke="none"/>
    <path d="M13.55 8.25 Q14.4 8.8 14.25 9.5 L14.45 10.3 Q14.4 10.6 13.35 10.75 L-2.5 11.0 Q-6.75 11.0 -7.75 10.25 -8.25 9.85 -7.9 9.45 -7.9 8.45 -6.4 8.2 L6.5 7.4 Q11.75 7.1 13.55 8.25" fill="#666666" fill-opacity="0.3019608" fill-rule="evenodd" stroke="none"/>
    <path d="M9.75 9.6 Q9.05 10.5 8.5 10.5 L-0.7 9.8 Q-2.0 9.35 -2.0 8.45 -2.0 7.7 -1.25 7.45 L4.75 6.9 9.8 7.15 Q10.45 7.55 10.35 8.15 10.35 8.75 9.75 9.6" fill="#666666" fill-opacity="0.3019608" fill-rule="evenodd" stroke="none"/>
    <path d="M13.55 7.1 L13.35 7.5 12.35 7.6 -5.05 7.45 -13.35 7.3 Q-12.85 8.25 -12.85 10.5 L-11.15 10.35 -11.15 10.1 -11.35 8.95 -10.9 8.85 Q-10.75 9.4 -10.75 10.15 L-10.75 10.35 -9.35 10.25 -9.5 8.7 -9.4 8.15 Q-8.75 7.65 -8.75 9.5 L-8.8 10.25 -7.3 10.2 -7.35 9.95 -7.4 9.6 -7.35 8.9 Q-7.25 8.5 -6.85 8.45 L-6.65 8.5 -6.6 8.7 -6.8 9.65 -6.8 10.2 -0.85 10.05 Q6.8 9.95 9.95 10.2 L11.2 10.2 11.15 9.85 11.25 8.95 11.45 8.3 11.6 9.3 11.8 10.25 12.85 10.3 12.95 8.7 Q13.2 7.7 13.95 7.25 L14.1 7.55 13.85 11.1 Q13.85 11.9 13.3 11.9 11.6 11.9 9.55 11.3 L9.15 11.2 8.3 11.2 -8.95 11.1 -9.0 11.2 -9.2 11.25 -9.2 11.1 -10.8 11.1 -10.85 11.2 -11.1 11.2 -11.1 11.1 -12.85 11.05 Q-12.95 11.45 -13.25 11.45 L-13.75 11.0 -13.8 11.0 -13.9 10.7 -14.1 10.1 -13.95 8.2 -13.75 6.8 -13.55 7.0 -10.35 6.75 Q-5.0 6.6 11.65 6.6 13.6 6.4 13.55 7.1 M10.15 10.05 L9.55 9.35 9.6 8.95 Q10.3 9.05 10.3 9.5 L10.15 10.05" fill="#594637" fill-rule="evenodd" stroke="none"/>
    <path d="M4.7 1.3 L5.0 2.6 5.1 3.95 5.0 4.5 Q4.35 4.45 4.15 3.8 L4.1 2.8 4.05 2.05 Q4.1 1.35 4.7 1.3 M1.8 2.2 L1.85 1.4 Q2.3 1.4 2.5 1.8 L2.5 3.4 2.25 3.5 Q2.05 3.5 1.9 2.9 L1.8 2.2 M6.7 2.95 L6.4 3.15 Q5.2 0.7 5.2 0.2 L5.25 0.0 Q6.6 -0.1 6.75 2.45 L6.7 2.95 M-6.15 1.4 L-5.6 0.6 -5.3 1.15 -5.6 3.3 -5.9 3.4 -6.15 3.3 -6.15 1.4 M-3.9 1.7 L-3.6 1.65 Q-3.3 1.8 -3.3 2.4 -3.3 3.25 -3.55 3.5 L-3.9 3.05 -3.9 1.7" fill="#594637" fill-rule="evenodd" stroke="none"/>
    <path d="M-10.35 -0.15 Q-6.75 -4.8 -2.25 -5.6 7.05 -7.7 13.85 6.8 L13.85 7.25 13.9 7.45 Q13.9 7.85 13.7 7.9 L11.8 7.95 -10.05 7.8 -10.35 8.25 Q-10.75 8.25 -10.75 7.8 L-11.9 7.8 -12.35 8.35 -12.7 7.8 -12.95 7.8 -13.0 7.85 -13.2 7.8 -13.7 7.8 -13.8 7.6 -13.5 7.35 -13.5 6.9 Q-13.5 3.9 -10.35 -0.15 M-11.55 6.85 L-11.6 7.15 -11.0 7.1 -10.65 7.1 Q-10.15 5.3 -7.2 3.05 L-7.15 3.2 -9.55 7.1 -7.5 7.05 -7.35 5.5 Q-7.1 4.7 -6.3 4.1 L-6.25 4.1 -6.2 4.25 -6.45 5.85 -6.7 7.05 -4.85 7.05 Q-4.8 6.35 -4.35 5.7 -3.85 4.9 -3.2 4.7 L-3.1 4.7 -3.05 4.9 Q-3.05 5.3 -3.55 5.9 L-4.0 7.05 -1.05 7.05 -1.15 6.2 -1.25 4.95 Q-1.2 4.45 -0.2 4.3 L-0.1 4.3 -0.05 4.5 -0.15 5.65 -0.6 7.05 3.05 7.0 3.0 6.85 2.95 6.45 3.0 5.75 3.85 5.65 Q3.45 5.85 3.45 6.35 L3.5 7.0 6.55 7.0 6.5 6.9 6.5 6.2 6.45 5.55 Q6.55 4.95 7.2 4.95 L7.5 7.0 9.4 6.95 Q7.9 4.65 7.9 4.0 L7.95 3.55 Q9.0 3.5 9.85 6.45 L9.7 6.9 9.55 6.95 11.3 6.95 10.45 5.6 8.55 2.85 8.5 2.7 Q8.5 1.9 10.25 3.85 11.7 5.45 11.95 6.95 L12.0 6.95 13.15 7.0 Q9.85 0.3 6.2 -2.4 3.25 -4.6 -0.8 -4.6 -4.8 -4.6 -7.85 -1.7 L-10.3 1.45 -11.95 5.15 -12.75 7.2 -12.6 7.2 Q-12.35 6.15 -11.35 4.4 -9.95 1.85 -8.95 1.8 L-8.9 1.95 -9.8 3.3 -11.05 5.2 -11.55 6.85" fill="#594637" fill-rule="evenodd" stroke="none"/>
  </g>
</svg>
