<?xml version="1.0" encoding="UTF-8" standalone="no"?>
<svg xmlns:xlink="http://www.w3.org/1999/xlink" height="25.55px" width="26.5px" xmlns="http://www.w3.org/2000/svg">
  <g transform="matrix(1.0, 0.0, 0.0, 1.0, 12.85, 12.9)">
    <path d="M8.85 -11.8 Q11.35 -14.55 11.65 -6.75 L11.7 -4.0 Q12.15 -3.45 12.15 -1.55 L12.1 4.7 11.75 8.3 11.85 8.9 Q11.85 11.0 9.9 11.0 L8.95 10.75 8.05 10.5 6.0 11.0 -7.0 11.35 Q-10.45 11.35 -11.15 9.5 L-11.25 6.9 -10.85 1.1 Q-10.5 -4.2 -10.5 -6.9 -10.5 -7.7 -11.0 -8.5 -11.55 -9.25 -11.55 -9.95 -11.55 -10.95 -11.1 -11.2 L-6.9 -11.65 -3.75 -11.0 Q-1.75 -10.25 0.0 -10.15 L1.75 -10.15 Q2.2 -11.15 6.1 -11.7 L8.85 -11.8 M-1.4 -4.1 L-1.1 -4.0 -0.55 -4.35 -1.4 -4.1" fill="#ffffff" fill-rule="evenodd" stroke="none"/>
    <path d="M7.25 -11.05 Q12.35 -11.05 11.5 -8.25 12.6 -8.4 13.2 -7.65 L13.65 -6.5 12.5 -4.35 Q11.3 -2.35 11.3 -1.55 L11.3 3.2 Q11.65 5.65 11.3 7.55 L11.3 7.65 11.3 7.7 Q11.5 8.85 10.8 9.5 L10.55 9.7 Q9.55 11.3 7.4 11.3 L5.55 11.05 -2.3 11.35 -4.8 10.85 -4.9 10.85 -9.75 10.75 Q-12.75 10.25 -12.75 7.8 -12.75 6.35 -11.6 2.2 -10.45 -2.15 -10.3 -4.35 L-10.3 -10.4 -10.15 -12.05 Q-9.75 -13.15 -8.3 -12.85 -7.2 -12.65 -7.3 -12.2 L-7.45 -11.35 Q-6.95 -10.35 2.7 -10.35 L7.25 -11.05" fill="#cc9966" fill-opacity="0.3019608" fill-rule="evenodd" stroke="none"/>
    <path d="M9.6 -3.75 Q10.65 -3.75 11.3 2.6 L11.75 9.0 Q11.75 10.35 10.4 10.35 L3.75 10.1 -3.45 10.6 -6.0 11.1 Q-8.85 11.1 -10.65 8.0 -12.0 5.7 -12.0 4.3 L-11.25 2.05 Q-10.5 0.35 -10.5 -1.15 -10.5 -4.3 -8.3 -3.75 L-3.0 -2.4 Q-1.35 -2.4 0.35 -1.4 2.0 -0.5 2.5 0.5 L7.8 0.15 Q7.5 -1.25 7.55 -2.15 7.65 -3.75 9.6 -3.75" fill="#cc9966" fill-opacity="0.3019608" fill-rule="evenodd" stroke="none"/>
    <path d="M11.3 9.25 Q8.65 12.05 0.0 12.05 -5.95 12.05 -7.45 10.95 -8.2 10.4 -7.75 9.8 -7.75 4.95 -5.3 1.85 -1.85 -2.55 7.5 -5.75 10.05 -4.2 12.55 4.8 12.55 7.95 11.3 9.25" fill="#cc9966" fill-opacity="0.3019608" fill-rule="evenodd" stroke="none"/>
    <path d="M4.25 -5.75 L4.4 -8.35 Q4.65 -10.15 6.5 -10.15 8.0 -10.15 8.3 -9.0 L8.3 -7.5 Q9.65 -8.95 10.8 -2.15 11.75 3.5 11.75 7.25 11.75 8.0 11.35 8.6 10.85 9.35 9.85 9.35 9.0 9.35 8.45 8.55 L7.8 7.35 5.2 9.55 Q2.2 11.5 -0.75 11.5 L-2.3 11.15 -3.0 10.75 -3.8 11.05 -4.65 11.3 Q-5.85 11.3 -6.2 10.65 -6.7 9.8 -7.8 9.5 L-7.8 11.2 Q-8.05 12.65 -9.6 12.65 -10.55 12.65 -12.85 8.65 -12.85 7.8 -11.95 6.85 -11.05 5.9 -11.05 5.4 L-11.3 4.35 -11.55 3.25 Q-11.55 2.6 -10.7 1.6 L-9.85 0.3 -11.55 -8.7 Q-11.55 -11.6 -8.95 -10.1 -7.15 -9.05 -4.9 -6.55 -4.75 -7.1 -4.9 -8.9 -4.65 -10.4 -2.8 -10.4 -0.8 -10.4 -0.6 -7.55 L-0.55 -3.75 1.2 -5.35 Q2.55 -6.3 4.25 -5.75" fill="#cc9966" fill-opacity="0.3019608" fill-rule="evenodd" stroke="none"/>
    <path d="M2.25 -10.65 Q3.05 -10.65 2.85 -9.55 L2.75 -8.05 Q2.35 -7.05 0.8 -7.05 L-0.35 -6.75 Q-1.15 -6.75 -0.95 -7.7 0.0 -12.6 1.6 -9.8 1.6 -10.65 2.25 -10.65" fill="#999966" fill-rule="evenodd" stroke="none"/>
    <path d="M2.75 -10.05 L3.15 -7.6 3.1 -6.6 2.85 -6.55 2.15 -6.95 1.6 -6.65 Q1.45 -6.7 1.25 -7.1 L0.9 -7.45 Q0.35 -7.45 -0.15 -6.95 L-0.85 -6.3 -0.9 -6.35 -0.3 -7.1 Q0.4 -7.75 1.05 -7.75 1.45 -7.75 1.65 -7.2 L2.7 -7.35 2.7 -8.25 2.3 -9.7 2.35 -10.05 -0.55 -10.15 -0.75 -8.65 -0.9 -6.5 -0.95 -6.45 -1.1 -6.4 -1.25 -7.7 -1.05 -10.2 -3.95 -10.6 -9.75 -10.65 -10.3 -10.65 -10.0 -10.05 -10.0 -9.9 -10.35 -9.9 -10.3 -9.3 -10.15 -7.15 -10.2 -6.05 -10.45 -2.1 -10.45 -1.3 -10.2 -1.25 -8.85 -0.95 -8.8 -0.7 Q-8.95 -0.55 -9.3 -0.55 L-10.45 -0.95 -10.55 0.25 -8.95 0.4 -8.85 0.75 -9.1 0.8 -10.55 0.45 -10.65 1.8 -10.45 6.0 -10.25 10.05 -10.25 10.2 -9.5 10.25 -9.6 9.2 Q-9.6 7.2 -8.95 6.55 L-8.85 6.8 -9.25 10.2 -9.25 10.25 -7.95 10.25 -8.0 9.7 -7.75 7.6 -7.45 7.6 -7.4 8.35 -7.6 10.25 -6.8 10.25 -6.85 9.45 -6.8 8.85 -6.6 8.95 -6.65 9.35 -6.65 10.25 -3.55 10.3 -3.55 10.1 Q-3.55 9.25 -3.85 8.95 -3.25 8.8 -3.1 9.35 L-3.05 10.3 0.1 10.3 0.05 9.65 0.15 8.5 0.25 8.5 0.4 9.75 0.4 10.3 0.5 10.3 2.1 10.3 2.1 10.2 2.2 9.05 2.65 9.0 2.7 9.3 2.65 10.3 3.55 10.3 3.45 10.05 3.4 9.35 3.7 9.15 3.9 9.75 3.9 10.3 7.15 10.25 7.1 9.75 7.15 8.45 7.25 8.45 7.35 10.25 10.7 10.1 10.65 9.3 10.95 4.15 10.85 4.2 10.4 4.25 9.55 4.15 Q10.25 3.6 11.0 3.7 L11.05 2.2 11.05 -2.15 11.05 -5.7 11.1 -10.25 10.95 -10.25 10.95 -10.35 10.75 -10.35 10.75 -10.25 7.95 -10.2 3.1 -10.05 2.75 -10.05 M4.2 -1.6 L4.0 -4.05 Q3.95 -5.15 4.35 -5.55 L4.35 -5.7 Q4.35 -6.3 7.8 -6.15 L7.55 -5.75 7.6 -0.75 7.6 -0.4 9.55 -0.65 9.55 -0.05 5.85 3.45 5.85 3.5 5.75 3.6 5.55 3.65 5.5 3.45 Q4.9 1.95 2.55 -0.05 L2.55 -0.35 4.35 -0.2 Q4.2 -0.75 4.2 -1.6 M10.6 -10.9 L11.5 -11.05 11.55 -11.05 11.6 -10.65 11.9 -7.15 11.6 -3.9 11.65 2.6 11.7 8.85 11.65 10.1 11.5 10.4 11.6 10.55 11.35 11.1 10.75 11.2 10.55 11.2 6.55 11.15 2.35 11.1 2.3 11.15 2.25 11.1 -1.95 11.15 -3.1 11.2 -3.2 11.35 -3.35 11.2 -10.0 10.95 -10.0 11.05 -10.15 11.05 -11.85 10.9 -11.85 10.6 -11.65 10.5 Q-11.45 10.05 -11.45 6.25 L-11.35 0.25 -11.65 0.15 -11.6 0.05 -11.35 0.15 -11.35 -1.1 -11.45 -1.15 -11.35 -1.25 -11.35 -1.4 -11.05 -9.9 -11.05 -10.05 -11.15 -10.65 -11.1 -11.0 -11.2 -11.05 -11.1 -11.2 -9.75 -11.3 -4.9 -11.25 6.4 -10.8 10.6 -10.9 M10.95 2.2 L11.0 2.35 10.6 2.55 9.55 2.55 9.5 2.3 9.55 2.15 10.2 2.1 10.95 2.2 M8.2 0.0 L8.05 0.05 8.05 0.15 8.2 0.0 M5.65 5.0 L5.75 5.0 5.8 5.2 5.65 5.4 5.65 5.0 M3.15 5.2 L3.25 6.2 3.1 7.45 Q2.95 7.1 2.95 6.35 L3.0 5.2 3.15 5.2 M1.55 9.15 L1.4 9.3 1.25 9.0 1.25 7.6 1.65 7.65 1.55 9.15 M9.75 7.7 L9.85 8.55 9.8 9.65 9.65 9.7 9.55 8.75 9.6 7.7 9.75 7.7 M5.15 10.0 L5.05 10.05 5.15 9.75 5.25 9.8 5.15 10.0 M-9.75 -10.05 L-9.7 -9.9 -9.75 -9.9 -9.75 -10.05 M-3.65 4.95 L-3.5 6.4 -3.75 6.45 -4.15 5.95 -4.15 5.35 Q-4.15 3.7 -3.85 3.55 L-3.65 4.95 M-1.3 5.4 L-1.3 6.75 -1.15 8.1 Q-1.8 7.9 -1.75 6.95 L-1.85 5.35 -1.3 5.4 M-6.05 5.45 Q-5.9 5.9 -5.9 6.4 L-6.0 6.9 -6.2 6.85 -6.35 6.85 -6.2 5.45 -6.05 5.45 M-8.7 5.45 Q-8.5 5.55 -8.5 6.1 -8.55 6.65 -8.25 6.9 L-8.3 7.0 -8.85 6.5 -8.85 5.45 -8.7 5.45 M-5.25 8.2 L-5.05 10.0 -5.45 10.15 -5.35 8.6 -5.3 8.2 -5.25 8.2" fill="#5a493f" fill-rule="evenodd" stroke="none"/>
  </g>
</svg>
