<?xml version="1.0" encoding="UTF-8" standalone="no"?>
<svg xmlns:xlink="http://www.w3.org/1999/xlink" height="80.3px" width="555.2px" xmlns="http://www.w3.org/2000/svg">
  <g transform="matrix(1.0, 0.0, 0.0, 1.0, 273.55, 6.0)">
    <path d="M165.25 11.0 Q166.0 13.3 166.0 20.0 166.0 27.55 164.8 29.5 163.7 31.35 159.1 32.05 140.1 35.0 122.0 44.4 122.75 46.1 124.05 47.3 125.0 49.25 125.0 56.3 125.0 67.15 121.5 70.7 118.3 74.1 109.0 74.3 10.05 73.3 -76.2 57.1 L-75.75 55.95 Q-75.75 54.7 -76.95 53.65 -78.45 52.45 -79.25 49.05 L-79.55 44.6 Q-79.7 41.95 -80.9 40.9 -82.25 39.45 -83.1 42.3 -83.75 44.35 -83.75 46.65 -84.1 48.45 -85.15 50.2 -86.0 51.45 -86.0 53.75 L-85.85 55.1 Q-107.5 50.85 -128.3 45.65 -236.1 18.25 -259.5 16.75 L-261.0 16.75 Q-261.0 13.35 -262.0 6.55 -211.3 5.6 -157.15 6.6 -107.05 7.5 -36.0 5.85 L30.7 7.3 Q106.3 8.7 164.5 8.05 164.5 8.75 165.25 11.0" fill="#9fd26c" fill-opacity="0.3019608" fill-rule="evenodd" stroke="none"/>
    <path d="M271.6 6.95 L271.6 69.35 Q226.15 65.05 183.8 57.1 L184.25 55.95 Q184.25 54.7 183.05 53.6 181.55 52.45 180.75 49.05 L180.45 44.6 Q180.3 42.0 179.1 40.85 177.75 39.45 176.9 42.25 176.25 44.35 176.25 46.65 175.9 48.45 174.85 50.2 174.0 51.55 174.0 53.75 L174.15 55.2 Q152.5 50.85 131.7 45.65 23.9 18.3 0.5 16.75 L-1.0 16.8 Q-1.0 13.4 -2.0 6.55 48.7 5.65 102.85 6.65 152.95 7.55 224.0 5.9 L271.6 6.95" fill="#9fd26c" fill-opacity="0.3019608" fill-rule="evenodd" stroke="none"/>
    <path d="M-94.75 11.0 Q-94.0 13.25 -94.0 19.95 -94.0 27.5 -95.2 29.5 -96.3 31.3 -100.9 32.0 -119.9 34.95 -138.0 44.4 -137.25 46.05 -135.95 47.3 -135.0 49.2 -135.0 56.25 -135.0 67.1 -138.5 70.75 -141.7 74.15 -151.0 74.3 -214.95 73.65 -273.55 66.7 L-273.55 6.45 -229.3 7.3 Q-153.7 8.7 -95.5 8.1 L-94.75 11.0" fill="#9fd26c" fill-opacity="0.3019608" fill-rule="evenodd" stroke="none"/>
    <path d="M18.75 -0.9 Q20.5 1.55 20.5 3.5 21.8 10.1 21.65 13.4 L21.25 20.9 Q21.25 30.75 -10.85 39.0 L-35.8 44.65 Q-49.45 47.55 -53.25 49.05 L-56.5 49.9 -42.65 47.65 -36.5 46.55 Q-29.75 46.55 -27.5 51.55 -26.5 53.75 -26.5 57.75 -26.5 64.7 -30.5 67.35 -36.0 71.0 -52.5 71.0 -78.4 71.0 -87.2 66.05 -93.25 62.65 -93.25 54.2 -93.25 48.4 -92.15 46.25 -90.3 42.5 -82.75 37.45 -106.45 38.95 -115.4 36.1 -128.35 32.05 -133.25 16.3 L-186.4 19.05 -247.0 21.7 Q-248.25 21.7 -249.45 19.95 -251.35 17.25 -253.0 15.9 -250.7 9.05 -173.9 4.45 L-72.0 -0.65 Q-29.75 -4.25 -5.3 -4.0 L11.0 -3.55 Q16.05 -4.7 18.75 -0.9" fill="#9fd26c" fill-opacity="0.3019608" fill-rule="evenodd" stroke="none"/>
    <path d="M278.75 -0.9 Q280.5 1.55 280.5 3.5 281.8 10.1 281.65 13.4 L281.25 20.9 Q281.25 30.75 249.15 39.0 L224.2 44.65 Q210.55 47.55 206.75 49.05 L203.5 49.9 217.35 47.65 223.5 46.55 Q230.25 46.55 232.5 51.55 233.5 53.75 233.5 57.75 233.5 64.7 229.5 67.35 224.0 71.0 207.5 71.0 181.6 71.0 172.8 66.05 166.75 62.65 166.75 54.2 166.75 48.4 167.85 46.25 169.7 42.5 177.25 37.45 153.55 38.95 144.6 36.1 131.65 32.05 126.75 16.3 L73.6 19.05 13.0 21.7 Q11.75 21.7 10.55 19.95 8.65 17.25 7.0 15.9 9.3 9.05 86.1 4.45 L188.0 -0.65 Q230.25 -4.25 254.7 -4.0 L271.0 -3.55 Q276.05 -4.7 278.75 -0.9" fill="#9fd26c" fill-opacity="0.3019608" fill-rule="evenodd" stroke="none"/>
    <path d="M89.45 -0.2 L91.2 -1.15 91.2 0.6 89.15 2.0 89.0 2.15 90.05 1.95 91.7 1.8 101.6 2.9 105.8 2.05 Q108.85 1.35 115.85 1.8 118.5 2.7 121.9 2.75 L125.45 2.6 126.95 3.0 128.45 3.35 138.4 3.2 Q138.5 2.8 143.15 2.55 L143.2 3.15 139.45 3.4 137.15 3.9 132.6 4.1 127.3 4.2 126.45 3.95 Q126.25 3.65 125.9 3.65 125.6 3.65 125.35 4.0 L121.6 4.35 118.05 3.65 115.4 2.9 106.05 3.55 101.35 4.2 94.95 4.5 Q90.4 4.35 88.65 2.4 L87.05 3.4 86.8 3.2 Q86.65 3.05 86.65 2.65 86.65 1.55 89.45 -0.2 M87.8 -5.6 L88.25 -5.6 88.4 -3.9 87.4 -0.7 85.65 3.55 85.35 3.45 85.25 2.9 Q85.25 2.1 86.45 -1.45 L87.8 -5.6 M53.2 -2.15 Q54.05 -1.45 54.9 -1.45 56.55 -1.45 58.2 -3.75 59.8 -6.0 60.15 -6.0 L59.95 -2.65 Q60.0 -0.35 61.3 -0.35 L61.95 -0.45 62.4 -0.6 62.4 -0.5 62.55 -0.65 Q63.2 -1.3 64.0 -1.1 L63.65 -0.7 Q63.5 -0.5 63.5 -0.1 63.5 0.4 63.75 0.65 L65.35 1.2 Q66.65 0.1 70.4 0.15 76.05 0.15 77.4 2.4 L76.9 3.15 Q75.75 2.7 74.15 1.4 72.5 0.4 69.65 0.4 69.3 0.4 67.7 1.85 L65.4 3.3 Q64.75 3.3 64.75 2.55 64.75 1.95 65.1 1.5 L64.15 1.55 63.5 0.95 62.75 0.0 62.4 0.25 62.45 0.35 62.0 0.5 61.9 0.55 61.25 0.9 60.8 0.8 60.8 0.55 60.55 0.55 Q59.15 0.55 59.15 -3.7 56.65 -0.35 54.55 -0.35 L53.55 -0.8 52.4 -1.25 52.4 0.25 52.25 1.35 Q51.9 2.3 50.65 2.3 L49.75 1.8 48.9 1.15 48.85 1.8 Q48.6 2.25 47.65 2.25 47.25 2.25 47.15 2.05 L47.05 1.65 Q47.05 1.15 47.45 0.5 48.0 -0.35 48.9 -0.35 L49.85 0.2 Q50.45 0.75 51.0 0.75 51.35 0.75 51.4 0.6 L51.4 0.4 51.5 -2.75 52.15 -2.85 53.2 -2.15 M174.35 -0.55 L175.25 0.6 175.55 2.0 175.25 1.65 175.25 1.35 174.3 1.75 173.45 2.15 173.75 1.45 174.05 0.6 174.05 0.3 173.9 -0.1 173.15 1.4 Q172.45 2.45 172.7 3.0 172.65 3.2 171.9 3.2 L170.4 2.75 170.0 2.6 169.4 2.45 168.35 2.25 167.6 2.4 167.75 3.3 167.6 4.05 165.8 4.2 164.45 4.0 161.6 4.45 157.35 4.95 155.35 4.3 152.9 3.6 Q149.45 3.45 148.65 2.9 147.95 2.45 145.65 2.45 L145.1 2.75 144.8 3.2 144.3 2.8 144.2 2.05 144.2 1.2 Q146.7 0.6 152.5 2.05 L157.9 3.65 164.6 2.9 165.6 3.0 166.85 1.8 Q167.2 1.3 169.0 2.1 169.05 1.7 169.5 1.25 L170.15 0.8 170.6 1.25 Q170.8 1.55 170.6 2.1 L170.85 2.2 171.65 2.3 172.45 1.15 Q173.15 -0.2 173.65 -0.6 L174.35 -0.55 M179.1 -0.3 L179.2 0.2 Q179.2 0.75 177.65 1.95 L177.4 2.1 Q178.4 2.15 179.3 2.75 L179.25 2.85 Q187.25 1.85 201.7 2.45 L216.9 3.45 Q223.3 1.25 229.65 2.0 L242.0 3.65 241.1 3.05 Q240.95 2.85 240.95 1.8 240.95 0.2 242.1 -0.1 243.6 -0.5 246.7 1.8 L245.9 1.8 243.75 1.5 243.65 0.65 241.75 0.75 241.7 1.8 243.5 3.3 243.5 3.6 243.45 4.05 243.1 4.05 242.75 3.95 239.3 4.05 Q234.8 4.05 232.65 3.25 L232.4 3.15 229.35 3.2 230.0 2.9 231.75 2.95 Q230.25 2.4 229.25 2.4 226.6 2.4 225.15 3.15 223.95 3.75 220.1 3.9 L211.55 4.35 207.7 3.85 192.1 3.35 192.75 3.55 189.25 3.55 190.85 3.35 182.2 3.3 180.05 4.05 175.7 3.45 176.15 3.35 176.0 3.35 176.0 2.4 175.65 2.1 176.15 1.85 176.9 0.8 Q177.9 -0.25 179.0 -0.25 L179.1 -0.3 M253.0 -2.75 L253.25 0.25 253.25 0.4 254.3 -2.45 Q254.85 -4.1 255.75 -4.75 256.15 -4.35 256.15 -3.5 L255.65 1.65 254.4 2.05 255.0 -0.6 254.2 1.0 253.6 2.15 254.2 2.15 254.05 2.2 252.8 3.05 251.9 3.05 251.9 3.3 251.75 3.5 251.35 3.0 250.95 3.0 247.6 3.05 247.6 2.6 247.55 2.15 251.0 2.1 251.0 1.45 251.1 0.35 251.25 0.35 251.8 2.15 252.5 2.15 252.5 1.95 252.75 -2.6 253.0 -2.75 M247.95 -0.25 L250.25 1.35 250.25 1.55 Q250.6 1.8 250.0 1.8 247.3 1.8 246.35 -0.7 247.05 -0.95 247.95 -0.25 M260.5 3.1 L260.5 4.85 257.1 4.95 256.95 4.95 255.4 4.8 254.15 4.5 254.0 4.2 257.1 3.9 Q259.4 3.6 260.5 3.1 M257.1 1.8 L257.2 1.8 257.35 2.35 257.2 3.6 257.0 3.8 256.35 3.4 Q256.05 3.15 255.55 3.05 L255.55 3.45 Q255.5 3.65 255.05 3.65 L254.55 3.6 254.3 3.45 Q254.15 3.85 254.15 3.1 254.15 2.35 254.95 2.15 L256.85 1.65 257.1 1.8 M215.25 6.0 L215.85 5.95 215.35 6.15 215.25 6.0 M197.4 6.0 L197.25 6.9 195.2 6.5 Q193.85 6.25 193.6 5.8 L193.6 5.4 195.6 5.55 194.7 5.75 193.85 5.95 195.75 6.35 197.1 6.55 Q196.85 5.9 195.35 5.05 L195.5 4.95 197.1 5.45 Q197.4 5.65 197.4 6.0 M163.75 5.5 L164.35 5.45 164.95 5.25 165.1 5.25 165.25 5.85 165.2 6.0 163.25 5.85 163.5 5.1 164.1 5.25 163.75 5.5 M0.5 3.15 L1.55 3.2 1.65 3.15 9.1 2.35 Q10.7 2.05 22.65 2.0 L28.3 2.0 35.95 2.35 42.9 2.75 Q42.9 1.8 43.05 1.4 L44.8 1.4 46.65 1.55 45.0 1.8 43.4 1.9 Q43.6 2.55 43.4 3.5 L37.9 3.5 28.2 2.8 22.65 2.85 9.6 3.5 4.3 4.15 4.2 4.15 4.55 4.25 3.4 4.5 2.7 4.35 1.2 4.1 0.5 3.7 -0.1 3.35 0.5 3.7 0.5 4.85 -2.9 4.95 -3.05 4.95 -4.6 4.8 -5.85 4.5 -6.0 4.2 -2.9 3.9 -0.1 3.35 -0.55 3.1 0.4 3.15 0.5 3.15 0.4 3.15 0.5 3.1 0.5 3.15 M82.65 2.3 L83.15 0.25 Q83.65 -0.8 84.8 -0.45 L84.15 2.05 Q83.4 3.9 82.15 3.9 81.55 3.9 81.75 3.65 L81.65 2.9 80.55 2.9 76.9 4.15 Q76.55 4.15 76.55 4.0 L76.55 3.65 Q76.85 3.3 78.75 2.6 80.8 1.9 81.9 1.9 L82.45 2.1 82.65 2.3 M137.95 5.1 L137.8 4.9 138.15 4.95 137.95 5.1 M-170.55 -0.2 L-168.8 -1.15 -168.8 0.6 -170.85 2.0 -171.0 2.15 -169.95 1.95 -168.3 1.8 -158.4 2.9 -154.2 2.05 Q-151.15 1.35 -144.15 1.8 -141.5 2.7 -138.1 2.75 L-134.55 2.6 -133.05 3.0 -131.55 3.35 -121.6 3.2 Q-121.5 2.8 -116.85 2.55 L-116.8 3.15 -120.55 3.4 -122.85 3.9 -127.4 4.1 -132.7 4.2 -133.55 3.95 Q-133.75 3.65 -134.1 3.65 L-134.65 4.0 -138.4 4.35 -141.95 3.65 -144.6 2.9 -153.95 3.55 -158.65 4.2 -165.05 4.5 Q-169.6 4.35 -171.35 2.4 L-172.95 3.4 -173.2 3.2 -173.35 2.65 Q-173.35 1.55 -170.55 -0.2 M-173.55 -1.45 L-172.2 -5.6 -171.75 -5.6 -171.6 -3.9 -172.6 -0.7 Q-173.7 2.4 -174.35 3.55 L-174.65 3.45 -174.75 2.9 Q-174.75 2.1 -173.55 -1.45 M-206.8 -2.15 Q-205.95 -1.45 -205.1 -1.45 -203.45 -1.45 -201.8 -3.75 -200.2 -6.0 -199.85 -6.0 L-200.05 -2.65 Q-200.0 -0.35 -198.7 -0.35 L-198.05 -0.45 -197.6 -0.6 -197.6 -0.5 -197.45 -0.65 Q-196.8 -1.3 -196.0 -1.1 L-196.35 -0.7 -196.5 -0.1 -196.25 0.65 Q-195.8 1.05 -194.65 1.2 -193.35 0.1 -189.6 0.15 -183.95 0.15 -182.6 2.4 L-183.1 3.15 Q-184.25 2.7 -185.85 1.4 -187.5 0.4 -190.35 0.4 L-192.3 1.85 Q-193.9 3.3 -194.6 3.3 -195.25 3.3 -195.25 2.55 -195.25 1.95 -194.9 1.5 L-195.85 1.55 -196.5 0.95 -197.25 0.0 -197.6 0.25 -197.55 0.35 -198.0 0.5 -198.1 0.55 -198.75 0.9 -199.2 0.8 -199.2 0.55 -199.45 0.55 Q-200.85 0.55 -200.85 -3.7 -203.35 -0.35 -205.45 -0.35 L-206.45 -0.8 -207.6 -1.25 -207.6 0.25 Q-207.6 1.05 -207.75 1.35 -208.1 2.3 -209.35 2.3 L-210.25 1.8 -211.1 1.15 -211.15 1.8 Q-211.4 2.25 -212.35 2.25 -212.75 2.25 -212.85 2.05 L-212.95 1.65 -212.55 0.5 Q-212.0 -0.35 -211.1 -0.35 L-210.15 0.2 Q-209.55 0.75 -209.0 0.75 -208.65 0.75 -208.6 0.6 L-208.6 0.4 -208.5 -2.75 -207.85 -2.85 -206.8 -2.15 M-85.65 -0.55 L-84.75 0.6 Q-84.45 1.0 -84.45 2.0 L-84.75 1.65 -84.75 1.35 -85.7 1.75 Q-86.4 2.15 -86.55 2.15 L-86.25 1.45 -85.95 0.6 -85.95 0.3 Q-85.95 0.05 -86.1 -0.1 -86.1 0.2 -86.85 1.4 -87.55 2.45 -87.3 3.0 -87.35 3.2 -88.1 3.2 L-89.6 2.75 -90.0 2.6 -90.6 2.45 -91.65 2.25 -92.4 2.4 Q-92.25 2.6 -92.25 3.3 -92.25 4.0 -92.4 4.05 L-94.2 4.2 -95.55 4.0 -98.4 4.45 -102.65 4.95 -104.65 4.3 Q-106.5 3.6 -107.1 3.6 -110.55 3.45 -111.35 2.9 L-114.35 2.45 Q-114.75 2.45 -114.9 2.75 L-115.2 3.2 -115.7 2.8 -115.8 2.05 -115.8 1.2 Q-113.3 0.6 -107.5 2.05 -104.55 2.8 -102.1 3.65 L-95.4 2.9 -94.4 3.0 -93.15 1.8 Q-92.8 1.3 -91.0 2.1 -90.95 1.7 -90.5 1.25 L-89.85 0.8 -89.4 1.25 Q-89.2 1.55 -89.4 2.1 L-89.15 2.2 -88.35 2.3 -87.55 1.15 Q-86.85 -0.2 -86.35 -0.6 L-85.65 -0.55 M-80.9 -0.3 L-80.8 0.2 Q-80.8 0.75 -82.35 1.95 L-82.6 2.1 Q-81.6 2.15 -80.7 2.75 L-80.75 2.85 Q-72.75 1.85 -58.3 2.45 L-43.1 3.45 Q-36.7 1.25 -30.35 2.0 L-18.0 3.65 -18.9 3.05 -19.05 1.8 Q-19.05 0.2 -17.9 -0.1 -16.4 -0.5 -13.3 1.8 L-14.1 1.8 -16.25 1.5 -16.35 0.65 -18.25 0.75 -18.3 1.8 -16.5 3.3 -16.5 3.6 -16.55 4.05 -16.9 4.05 -17.25 3.95 -20.7 4.05 Q-25.2 4.05 -27.35 3.25 L-27.6 3.15 -30.65 3.2 -30.0 2.9 -28.25 2.95 Q-29.75 2.4 -30.75 2.4 -33.4 2.4 -34.85 3.15 -36.05 3.75 -39.9 3.9 L-48.45 4.35 -52.3 3.85 -67.9 3.35 -67.25 3.55 -70.75 3.55 -69.15 3.35 -77.8 3.3 -79.95 4.05 -84.3 3.45 -83.85 3.35 -84.0 3.35 -84.0 2.4 -84.35 2.1 -83.85 1.85 -83.1 0.8 Q-82.1 -0.25 -81.0 -0.25 L-80.9 -0.3 M-4.25 -4.75 Q-3.85 -4.35 -3.85 -3.5 -3.85 -2.3 -4.35 1.65 -4.95 1.65 -5.6 2.05 L-5.0 -0.6 -5.8 1.0 -6.4 2.15 -5.8 2.15 -5.95 2.2 -7.2 3.05 -8.1 3.05 -8.1 3.3 -8.25 3.5 -8.65 3.0 -9.05 3.0 -12.4 3.05 -12.4 2.6 -12.45 2.15 -9.0 2.1 -9.0 1.45 -8.9 0.35 -8.75 0.35 -8.2 2.15 -7.5 2.15 -7.5 1.95 -7.25 -2.6 -7.0 -2.75 -6.75 0.25 -6.75 0.4 -5.7 -2.45 Q-5.15 -4.1 -4.25 -4.75 M-12.05 -0.25 L-9.75 1.35 -9.75 1.55 Q-9.4 1.8 -10.0 1.8 -12.7 1.8 -13.65 -0.7 -12.95 -0.95 -12.05 -0.25 M-2.9 1.8 L-2.8 1.8 Q-2.65 1.85 -2.65 2.35 -2.65 3.1 -2.8 3.6 L-3.0 3.8 -3.65 3.4 Q-3.95 3.15 -4.45 3.05 L-4.45 3.45 Q-4.5 3.65 -4.95 3.65 L-5.45 3.6 -5.7 3.45 Q-5.85 3.85 -5.85 3.1 -5.85 2.35 -5.05 2.15 L-3.15 1.65 -2.9 1.8 M-44.75 6.0 L-44.15 5.95 -44.65 6.15 -44.75 6.0 M-65.3 5.75 L-66.15 5.95 -64.25 6.35 -62.9 6.55 Q-63.15 5.9 -64.65 5.05 L-64.5 4.95 -62.9 5.45 Q-62.6 5.65 -62.6 6.0 -62.6 6.75 -62.75 6.9 L-64.8 6.5 Q-66.15 6.25 -66.4 5.8 L-66.4 5.4 -64.4 5.55 -65.3 5.75 M-94.9 5.25 L-94.75 5.85 -94.8 6.0 -96.75 5.85 -96.5 5.1 -95.9 5.25 -96.25 5.5 -95.65 5.45 -95.05 5.25 -94.9 5.25 M-213.35 1.55 L-215.0 1.8 -216.6 1.9 Q-216.4 2.55 -216.6 3.5 L-222.1 3.5 -231.8 2.8 -237.35 2.85 -250.4 3.5 -255.7 4.15 -255.8 4.15 -255.45 4.25 -256.6 4.5 -257.3 4.35 -258.8 4.1 -260.55 3.1 -258.45 3.2 -258.35 3.15 -250.9 2.35 Q-249.3 2.05 -237.35 2.0 L-231.7 2.0 -224.05 2.35 -217.1 2.75 -216.95 1.4 -215.2 1.4 -213.35 1.55 M-178.1 1.9 L-177.55 2.1 -177.35 2.3 -176.85 0.25 Q-176.35 -0.8 -175.2 -0.45 L-175.85 2.05 Q-176.6 3.9 -177.85 3.9 -178.45 3.9 -178.25 3.65 L-178.35 2.9 -179.45 2.9 -183.1 4.15 Q-183.45 4.15 -183.45 4.0 L-183.45 3.65 Q-183.15 3.3 -181.25 2.6 L-178.1 1.9 M-122.05 5.1 L-122.2 4.9 -121.85 4.95 -122.05 5.1" fill="#5b5546" fill-rule="evenodd" stroke="none"/>
  </g>
</svg>
