<?xml version="1.0" encoding="UTF-8" standalone="no"?>
<svg xmlns:xlink="http://www.w3.org/1999/xlink" height="142.5px" width="657.25px" xmlns="http://www.w3.org/2000/svg">
  <g transform="matrix(1.0, 0.0, 0.0, 1.0, 17.25, -124.5)">
    <path d="M628.5 239.85 L640.0 243.4 640.0 261.0 523.35 261.0 Q523.25 259.15 522.75 257.5 521.9 254.8 520.1 253.75 522.1 250.75 522.1 247.0 522.1 241.55 518.75 240.05 516.95 239.3 516.4 238.7 515.35 237.5 515.35 234.75 515.35 233.5 516.35 232.5 517.35 231.5 517.35 230.25 517.35 229.0 516.25 227.25 515.1 225.5 515.1 224.25 515.1 223.55 516.5 222.0 L517.85 220.1 Q517.85 215.45 522.85 210.2 L523.95 209.05 531.4 211.5 Q549.85 217.45 567.3 221.6 577.7 224.05 584.4 225.05 608.55 233.55 628.5 239.85" fill="url(#gradient0)" fill-rule="evenodd" stroke="none"/>
    <path d="M331.85 125.05 L346.35 124.75 345.6 170.5 345.95 177.05 Q346.45 184.75 347.35 191.15 L348.05 195.55 347.6 196.25 Q346.2 198.5 339.25 199.25 L328.15 199.8 310.4 199.5 296.9 216.25 Q284.25 231.8 278.5 237.9 L278.6 267.0 268.3 267.0 267.95 261.5 266.5 234.35 Q256.2 228.8 238.3 210.55 L227.8 199.45 217.35 199.5 224.5 200.75 170.75 201.2 157.4 214.0 Q145.45 225.2 138.4 231.2 L138.5 237.95 138.5 267.0 127.65 267.0 127.75 252.75 128.05 237.75 128.0 237.75 Q127.7 237.75 103.85 212.5 L93.35 201.35 70.55 201.25 34.7 201.05 Q27.8 208.45 16.55 219.25 L-3.65 238.0 -13.0 246.25 -15.15 245.9 -16.75 245.0 -17.0 244.15 -17.25 242.0 Q-17.25 239.65 -7.4 228.7 2.05 218.2 14.25 206.7 L20.55 200.9 0.0 200.7 0.0 126.8 163.5 124.5 Q250.75 124.5 331.85 125.05 M130.35 201.4 L105.2 201.4 Q118.65 215.65 128.25 230.8 128.95 212.9 130.35 201.4 M160.4 201.25 L136.85 201.35 Q137.75 209.55 138.2 222.4 145.45 214.95 152.75 208.15 L160.4 201.25 M296.35 199.35 L278.5 199.3 278.5 221.2 Q285.65 211.75 292.8 203.4 L296.35 199.35 M264.85 222.05 L266.15 223.35 Q266.0 210.4 267.0 199.3 L240.85 199.35 243.7 201.9 Q253.9 211.15 264.85 222.05" fill="url(#gradient1)" fill-rule="evenodd" stroke="none"/>
  </g>
  <defs>
    <linearGradient gradientTransform="matrix(0.0, 0.293, -0.2841, 0.0, 320.0, 240.0)" gradientUnits="userSpaceOnUse" id="gradient0" spreadMethod="pad" x1="-819.2" x2="819.2">
      <stop offset="0.0" stop-color="#9fdfdf"/>
      <stop offset="1.0" stop-color="#ffffff"/>
    </linearGradient>
    <linearGradient gradientTransform="matrix(0.0, 0.293, -0.2841, 0.0, 320.0, 240.0)" gradientUnits="userSpaceOnUse" id="gradient1" spreadMethod="pad" x1="-819.2" x2="819.2">
      <stop offset="0.0" stop-color="#9fdfdf"/>
      <stop offset="1.0" stop-color="#ffffff"/>
    </linearGradient>
  </defs>
</svg>
