<?xml version="1.0" encoding="UTF-8" standalone="no"?>
<svg xmlns:xlink="http://www.w3.org/1999/xlink" height="227.85px" width="159.6px" xmlns="http://www.w3.org/2000/svg">
  <g transform="matrix(1.0, 0.0, 0.0, 1.0, 201.0, 111.85)">
    <path d="M-179.0 -78.75 Q-184.7 -80.25 -186.35 -82.1 -187.25 -83.15 -187.25 -85.5 -187.25 -89.5 -175.6 -88.95 -165.35 -88.45 -150.4 -84.8 -135.75 -81.25 -126.1 -76.95 -115.5 -72.25 -117.25 -69.25 L-113.25 -71.05 Q-110.6 -72.25 -104.5 -72.25 -97.15 -72.25 -94.75 -69.25 -93.75 -68.0 -93.75 -65.85 -93.75 -62.75 -97.25 -60.55 -99.35 -59.25 -103.45 -57.9 -92.75 -60.5 -86.0 -60.5 L-76.1 -59.85 -65.0 -59.25 Q-61.45 -59.25 -59.75 -56.25 -58.75 -54.45 -58.75 -52.85 -58.75 -50.0 -61.6 -48.15 -64.35 -46.4 -70.75 -45.0 -69.2 -40.2 -64.05 -32.3 -59.75 -25.8 -59.75 -22.75 L-59.95 -20.2 Q-60.6 -18.0 -62.75 -16.75 L-61.1 -13.9 Q-59.75 -11.8 -59.75 -11.1 -59.75 -9.05 -61.6 -7.0 -64.0 -4.3 -68.5 -3.25 -66.0 -2.0 -64.7 -0.15 -63.5 1.5 -63.5 3.25 -63.5 4.85 -64.1 5.9 L-65.5 7.75 -66.25 8.25 Q-60.25 7.85 -57.45 10.6 -55.5 12.55 -55.5 15.25 -55.5 15.75 -56.4 17.4 -57.35 19.2 -58.25 20.25 L-58.5 20.5 Q-52.3 19.75 -49.45 22.6 -47.5 24.5 -47.5 27.25 -47.5 29.9 -50.35 31.95 -52.65 33.65 -58.3 35.75 -79.8 43.9 -85.5 46.75 L-87.25 47.5 -73.85 43.15 Q-69.1 41.5 -65.0 41.5 -58.65 41.5 -56.5 44.5 -55.5 45.9 -55.5 48.25 -55.5 51.5 -58.95 53.9 -61.85 55.85 -68.6 58.05 L-83.15 62.5 Q-93.45 65.7 -101.5 69.0 -97.75 68.4 -86.4 65.05 -75.9 62.0 -75.0 62.0 -69.9 62.0 -69.0 64.8 L-69.0 70.0 Q-64.5 70.55 -62.6 72.6 -61.25 74.05 -61.25 76.0 -61.25 79.7 -66.4 82.4 L-82.5 89.0 -75.9 86.8 Q-71.65 85.25 -70.5 85.25 -66.1 85.25 -64.75 88.35 -64.05 89.95 -64.25 91.75 -64.25 94.4 -64.75 95.45 -65.35 96.8 -67.2 97.65 -68.8 98.35 -84.25 101.75 L-87.5 103.0 Q-78.9 103.55 -75.95 105.6 -74.25 106.8 -74.25 109.0 -74.25 111.35 -75.75 113.55 -77.5 116.0 -80.0 116.0 -101.85 116.0 -121.0 112.75 -138.75 109.75 -138.75 107.0 -138.75 104.85 -137.85 103.75 -136.6 102.3 -131.25 98.75 -135.55 100.05 -142.15 103.75 -149.6 106.75 -163.0 106.75 -173.95 106.75 -179.05 102.5 -182.25 99.85 -182.25 96.85 -182.25 94.3 -180.05 92.05 L-173.5 86.75 -178.9 81.65 Q-180.25 80.3 -180.25 79.1 -180.25 76.7 -179.6 75.35 -178.75 73.65 -176.5 72.25 -179.25 70.2 -180.45 68.05 -181.5 66.2 -181.5 64.0 -181.5 61.05 -178.55 58.45 -175.5 55.8 -168.0 52.25 -177.25 48.8 -180.2 46.9 -188.0 41.95 -180.5 37.75 -187.15 38.0 -189.75 35.1 -191.25 33.45 -191.25 30.85 -191.25 28.2 -188.8 25.65 -185.75 22.45 -179.25 20.0 L-178.25 19.5 Q-184.35 20.05 -186.8 17.1 -188.25 15.4 -188.25 12.85 -188.25 10.2 -184.4 7.15 L-176.5 1.25 Q-177.75 0.4 -179.05 0.3 L-183.0 0.25 Q-189.0 0.25 -190.7 -3.15 -191.6 -4.9 -191.25 -6.85 -191.25 -9.3 -190.6 -10.65 -189.85 -12.15 -187.25 -14.5 L-187.0 -14.75 Q-190.2 -15.9 -194.55 -23.9 -198.25 -30.75 -198.25 -31.85 -198.25 -36.2 -192.6 -40.5 -187.0 -44.8 -187.0 -49.1 -187.0 -51.65 -186.25 -52.85 -185.2 -54.6 -181.75 -56.25 -182.55 -57.4 -182.8 -58.95 -183.1 -60.55 -182.75 -62.0 -190.4 -63.25 -192.45 -65.1 -193.5 -66.05 -193.5 -68.85 -193.5 -72.55 -190.55 -74.65 -187.65 -76.7 -180.0 -78.5 L-179.0 -78.75 M-113.1 -55.3 L-122.0 -53.1 Q-132.95 -50.35 -141.25 -47.75 -135.25 -48.7 -113.8 -55.1 L-113.1 -55.3 M-150.15 -44.65 L-147.75 -45.5 Q-149.0 -45.5 -152.75 -44.0 -151.65 -44.15 -150.15 -44.65 M-62.0 21.5 Q-66.3 21.8 -69.75 23.25 L-74.25 25.25 Q-73.5 25.4 -67.9 23.55 L-62.0 21.5" fill="#857a50" fill-opacity="0.3019608" fill-rule="evenodd" stroke="none"/>
    <path d="M-162.8 -85.6 L-148.0 -80.15 Q-129.4 -73.0 -105.25 -73.0 L-93.6 -74.0 -82.0 -75.0 Q-79.0 -75.0 -78.4 -71.35 -78.05 -69.05 -78.5 -67.25 -72.4 -67.5 -73.5 -61.25 -62.8 -59.4 -60.0 -56.85 L-58.3 -55.5 -54.0 -55.0 Q-51.0 -55.0 -49.7 -53.2 -49.0 -52.2 -49.0 -51.1 -49.0 -48.75 -50.5 -47.05 -52.5 -44.75 -56.5 -44.75 -65.05 -44.75 -69.75 -48.3 -75.4 -52.65 -81.5 -53.75 -94.45 -56.15 -97.5 -58.65 -98.8 -59.7 -99.25 -61.3 L-99.75 -64.75 -122.95 -63.85 -139.0 -63.0 Q-141.7 -63.0 -142.45 -65.2 -142.75 -66.0 -142.75 -68.0 -159.95 -67.7 -161.7 -69.25 -162.3 -69.8 -161.5 -71.05 -160.5 -72.6 -160.5 -73.25 -171.9 -73.45 -186.65 -78.75 -201.0 -83.9 -201.0 -87.25 -201.0 -88.85 -198.3 -91.05 -195.6 -93.15 -192.25 -94.25 -183.4 -97.05 -182.75 -89.25 -171.95 -88.4 -162.8 -85.6" fill="#857a50" fill-opacity="0.3019608" fill-rule="evenodd" stroke="none"/>
    <path d="M-176.5 -34.0 Q-176.5 -38.9 -147.15 -38.6 -118.6 -38.3 -105.75 -34.25 -108.05 -32.65 -112.85 -31.4 -117.3 -30.25 -120.0 -30.25 L-151.15 -28.75 Q-151.7 -28.55 -151.15 -28.2 L-155.0 -28.0 Q-159.65 -28.0 -168.0 -30.25 -176.5 -32.55 -176.5 -34.0" fill="#857a50" fill-opacity="0.3019608" fill-rule="evenodd" stroke="none"/>
    <path d="M-165.5 -2.5 L-124.9 -15.3 Q-103.75 -21.5 -103.75 -19.0 -103.75 -17.05 -104.1 -14.9 -104.5 -12.75 -104.5 -10.0 -104.5 -7.25 -105.25 -4.25 L-106.3 -3.75 Q-107.45 -3.25 -109.0 -3.25 -111.4 -3.25 -111.95 -5.6 L-112.25 -8.75 Q-118.4 -5.7 -139.4 -4.05 L-164.75 -1.75 -165.5 -2.5" fill="#857a50" fill-opacity="0.3019608" fill-rule="evenodd" stroke="none"/>
    <path d="M-74.25 34.15 Q-73.85 36.05 -74.0 38.1 -74.0 42.4 -80.05 46.0 -87.15 50.25 -98.5 50.25 -103.95 50.25 -104.05 48.0 L-104.1 46.2 Q-104.4 45.2 -106.0 44.75 L-107.35 46.05 Q-108.45 47.0 -110.0 47.0 -124.55 47.0 -128.2 45.5 L-130.45 44.2 Q-131.8 43.4 -134.0 43.0 -104.45 35.3 -97.7 30.9 -96.65 30.2 -94.25 30.25 L-78.0 30.5 Q-75.1 30.5 -74.25 34.15" fill="#857a50" fill-opacity="0.3019608" fill-rule="evenodd" stroke="none"/>
    <path d="M-152.75 35.55 L-164.5 36.5 Q-171.7 36.5 -174.75 34.05 -176.5 32.6 -176.5 31.0 -176.5 24.25 -159.85 25.05 -145.65 25.75 -132.5 30.25 -139.85 33.9 -152.75 35.55" fill="#857a50" fill-opacity="0.3019608" fill-rule="evenodd" stroke="none"/>
    <path d="M-193.5 -106.0 Q-193.5 -115.7 -124.0 -93.4 -98.4 -85.2 -76.2 -76.7 -54.5 -68.35 -54.5 -66.85 -54.5 -62.5 -61.0 -62.5 -70.1 -62.5 -92.4 -68.0 -113.05 -73.1 -136.75 -80.8 -160.85 -88.6 -176.35 -95.3 -193.5 -102.7 -193.5 -106.0" fill="#5b5546" fill-opacity="0.3019608" fill-rule="evenodd" stroke="none"/>
    <path d="M-170.0 -98.0 Q-168.15 -99.25 -162.5 -99.25 -159.9 -99.25 -147.9 -95.0 -135.85 -90.75 -127.0 -90.75 L-118.1 -88.0 Q-109.65 -85.25 -105.5 -85.25 -100.55 -85.25 -99.7 -86.75 -98.8 -88.25 -93.0 -88.25 -77.25 -88.25 -73.6 -80.95 -72.85 -79.45 -71.8 -74.9 -71.0 -71.35 -69.5 -70.0 -74.2 -66.25 -76.0 -66.25 -100.0 -71.2 -123.75 -77.25 -171.25 -89.35 -171.25 -95.0 -171.25 -97.15 -170.0 -98.0" fill="#5b5546" fill-opacity="0.3019608" fill-rule="evenodd" stroke="none"/>
    <path d="M-192.7 -96.1 Q-192.9 -96.25 -192.9 -97.0 -192.9 -99.75 -167.5 -92.1 -137.0 -82.4 -126.8 -79.5 L-84.65 -71.15 Q-45.65 -62.9 -45.65 -59.4 -45.65 -57.25 -48.9 -57.25 -64.55 -57.25 -123.85 -74.95 -154.4 -84.1 -192.55 -96.0 L-192.7 -96.1" fill="#336633" fill-opacity="0.3019608" fill-rule="evenodd" stroke="none"/>
    <path d="M-196.55 -98.0 Q-193.45 -97.6 -142.55 -85.05 L-92.05 -72.4 Q-92.05 -70.6 -94.4 -70.6 -105.15 -70.6 -149.9 -83.5 -172.55 -90.05 -196.55 -97.35 L-196.55 -98.0" fill="#336633" fill-opacity="0.3019608" fill-rule="evenodd" stroke="none"/>
    <path d="M-41.4 -53.0 L-41.4 -52.75 -46.4 -54.25 -41.4 -53.0 M-41.65 -60.8 L-41.4 -60.75 -41.4 -59.95 -41.65 -59.3 -41.8 -59.35 -41.8 -60.45 -41.65 -60.8 M-78.35 -68.15 L-77.75 -68.3 -77.55 -68.05 -78.3 -68.0 -78.35 -68.15 M-152.4 -90.95 L-152.55 -91.1 -152.5 -92.0 -152.35 -92.45 -152.2 -92.6 -151.9 -92.5 Q-152.2 -91.25 -152.4 -90.95 M-147.05 -91.5 L-147.0 -91.45 -147.1 -91.0 -147.6 -90.05 Q-148.2 -89.15 -148.95 -88.9 -148.65 -89.2 -148.1 -90.25 L-147.15 -91.55 -147.05 -91.5 M-148.95 -94.0 L-148.65 -93.55 -148.3 -93.05 Q-148.85 -92.6 -149.3 -90.9 -149.7 -89.3 -150.8 -88.8 L-150.85 -88.95 Q-150.35 -90.0 -149.8 -91.55 L-148.95 -94.0 M-135.25 -83.65 L-134.95 -85.35 -134.5 -86.2 -134.1 -86.05 -134.6 -84.2 -135.0 -83.55 -135.25 -83.65 M-131.55 -86.95 L-131.1 -86.8 -131.5 -85.2 -132.5 -83.6 Q-133.05 -82.7 -133.55 -82.5 L-133.65 -82.6 -131.55 -86.95 M-81.15 -60.5 Q-81.25 -60.05 -81.9 -59.6 L-82.05 -59.8 -82.25 -60.15 Q-82.6 -60.35 -83.2 -61.5 L-81.35 -61.35 -81.1 -60.9 -81.15 -60.5 M-83.9 -63.55 L-82.45 -63.5 -92.75 -66.25 -96.35 -68.1 -51.2 -55.4 Q-51.35 -54.75 -51.45 -55.05 L-76.4 -61.8 -76.35 -61.45 -76.6 -61.6 -79.3 -62.2 Q-80.05 -62.2 -80.85 -62.85 -80.6 -62.55 -80.7 -62.1 L-80.9 -61.8 -81.25 -61.75 -82.4 -62.5 -83.9 -63.55 M-104.35 -78.55 L-104.15 -78.55 -104.55 -76.85 Q-104.7 -76.2 -105.15 -75.3 L-105.35 -75.3 -105.1 -77.0 Q-104.8 -78.15 -104.35 -78.55 M-107.2 -75.8 L-107.4 -75.45 -107.7 -75.6 -107.7 -75.9 -107.35 -77.15 -106.55 -79.15 -106.3 -79.1 -106.8 -77.0 -107.2 -75.8 M-90.05 -76.3 Q-89.65 -75.75 -89.95 -74.6 L-90.8 -72.55 -90.85 -72.4 -91.3 -72.7 -91.25 -72.75 -90.8 -74.85 Q-90.5 -75.95 -90.05 -76.3 M-88.3 -75.0 L-87.7 -76.45 -87.3 -76.3 -87.95 -72.75 Q-88.65 -73.0 -88.6 -73.7 L-88.3 -75.0 M-181.5 -98.5 L-181.05 -98.4 -181.2 -97.9 -181.5 -97.0 -181.65 -97.05 -181.6 -98.1 -181.5 -98.5 M-178.3 -100.45 L-177.95 -100.4 -178.45 -98.6 Q-179.0 -96.55 -179.45 -95.8 L-179.55 -95.85 -178.85 -98.75 -178.3 -100.45 M-189.9 -111.4 L-189.55 -111.85 -188.25 -111.5 -187.5 -111.3 -48.45 -73.4 -41.4 -71.45 -41.4 -70.15 -99.7 -86.15 -146.05 -99.1 Q-172.5 -106.5 -180.35 -107.95 L-188.05 -109.55 -188.75 -109.75 -189.45 -110.5 -189.5 -110.5 -190.55 -105.85 Q-191.05 -102.6 -191.7 -99.5 L-191.95 -98.4 -190.45 -98.0 -177.7 -94.55 -177.6 -95.15 -177.45 -95.55 -176.4 -98.25 -176.3 -98.2 -177.0 -95.4 -177.1 -95.1 -177.3 -94.4 -161.65 -90.1 -161.6 -90.6 -161.15 -92.65 -160.8 -93.35 -160.35 -93.25 -160.95 -90.35 -160.95 -90.25 -161.05 -89.95 -137.25 -83.45 -134.15 -82.6 -131.1 -81.75 -129.75 -85.45 -129.6 -85.4 -130.45 -81.7 -130.5 -81.6 -91.75 -71.3 -88.75 -70.55 -78.8 -67.95 -76.15 -67.2 -75.9 -68.4 -74.65 -71.9 -74.5 -71.85 -75.35 -68.35 -75.8 -67.1 -74.75 -66.85 -74.55 -67.6 -73.9 -68.95 -73.65 -68.85 -73.95 -67.35 -74.25 -66.75 Q-54.45 -61.45 -47.5 -58.8 L-47.35 -59.25 -41.4 -57.65 -41.4 -56.2 -47.85 -57.55 -47.75 -57.7 -131.1 -80.45 -131.75 -80.15 -131.55 -80.55 -137.55 -82.2 -190.05 -96.65 Q-189.4 -95.75 -189.0 -94.65 -188.45 -93.95 -186.3 -92.9 L-186.15 -92.95 -161.1 -86.2 -105.05 -70.45 -106.3 -70.2 -112.1 -71.55 -112.55 -71.6 -122.3 -74.25 Q-123.2 -74.0 -123.85 -73.45 L-124.2 -73.7 -122.75 -74.35 -127.2 -75.6 -127.35 -75.5 -129.8 -76.15 -130.3 -76.35 -162.9 -85.15 -163.8 -85.1 -166.15 -85.75 -166.1 -85.85 -165.8 -85.95 -172.4 -87.7 -179.1 -89.6 -179.25 -89.3 -187.75 -91.65 -187.4 -92.1 Q-188.9 -92.65 -189.9 -94.0 -191.05 -95.5 -190.8 -96.4 L-190.6 -96.8 -193.25 -97.6 -193.4 -97.8 -193.45 -98.0 -193.25 -99.05 -191.55 -106.65 Q-191.45 -108.2 -190.95 -109.45 -190.5 -110.85 -189.85 -111.3 L-189.9 -111.4" fill="#5b5546" fill-rule="evenodd" stroke="none"/>
    <path d="M-54.1 -62.8 L-54.1 -61.35 -54.15 -61.35 -56.4 -61.5 -57.9 -61.85 -54.1 -62.8 M-57.7 3.15 L-60.9 2.8 -67.6 2.35 -61.95 2.25 -59.05 2.55 Q-57.8 2.65 -57.6 3.0 L-57.7 3.15 M-149.9 68.85 Q-157.35 69.4 -158.2 69.85 L-158.3 70.25 Q-158.2 70.5 -158.65 70.65 L-158.9 69.65 Q-157.05 68.3 -153.6 68.45 L-149.9 68.85 M-141.9 53.7 L-141.8 52.85 -141.7 52.9 -138.4 57.15 Q-139.5 56.7 -141.9 53.7 M-179.2 67.2 L-179.15 66.05 -178.9 65.6 -177.95 65.65 -177.95 68.9 -178.15 70.4 -178.9 70.4 -179.2 67.2 M-175.45 69.65 L-175.95 68.0 -175.85 67.2 -175.7 67.35 Q-175.3 67.55 -174.6 69.45 -173.95 71.3 -173.9 72.15 L-174.2 72.15 -175.45 69.65 M-174.85 50.0 L-173.7 51.45 Q-171.8 54.05 -164.9 53.35 L-171.65 55.1 -173.95 53.45 -177.7 50.4 Q-175.65 49.6 -174.85 50.0 M-161.35 33.2 L-155.9 32.9 -161.4 33.95 -172.65 34.9 -174.8 34.25 -177.9 33.15 Q-177.8 32.95 -176.95 32.8 L-176.15 32.65 -173.1 33.45 -170.65 33.9 -161.35 33.2 M-142.4 33.15 L-146.65 33.6 Q-149.35 33.6 -151.95 32.15 -153.65 31.2 -154.2 30.3 L-154.3 30.4 -154.9 31.15 Q-155.4 31.1 -155.4 30.65 L-154.85 29.7 -154.45 29.1 -155.4 28.65 Q-155.3 28.5 -154.7 28.3 L-154.15 28.15 -153.85 28.25 Q-153.7 28.3 -153.7 29.1 L-153.7 29.15 Q-152.85 29.7 -151.55 30.95 -148.9 32.5 -142.4 33.15 M-183.95 72.6 L-183.95 73.15 Q-186.95 74.1 -187.8 76.3 L-189.15 79.15 Q-188.45 80.5 -189.6 82.85 -189.4 85.6 -179.05 86.85 -179.9 88.05 -182.3 87.9 L-185.55 87.5 -186.0 89.95 -186.3 93.15 Q-186.3 94.85 -185.7 97.6 L-185.95 97.8 -182.15 100.0 Q-181.2 100.5 -181.2 100.85 -181.2 101.7 -182.55 101.7 -185.9 101.7 -186.8 100.95 L-186.95 100.8 Q-187.35 101.1 -187.45 101.75 L-187.3 103.1 Q-187.3 104.3 -188.95 108.1 -190.6 111.8 -191.05 111.85 L-189.5 104.25 Q-188.8 101.05 -187.1 100.15 L-187.15 99.75 -186.9 98.65 Q-186.7 97.9 -186.35 97.65 L-187.25 95.25 -187.3 93.2 -187.2 89.65 Q-187.0 88.25 -186.45 87.45 -189.0 87.05 -189.95 84.5 L-190.4 81.45 -190.25 79.65 -189.95 78.6 Q-189.6 75.45 -188.75 74.05 -187.25 71.55 -183.95 72.6 M-183.75 52.35 L-183.6 52.35 -183.65 52.4 -183.75 52.35 M-184.65 23.4 L-184.45 23.8 -184.4 24.3 Q-184.15 25.55 -184.35 28.5 L-184.05 29.6 Q-182.65 29.5 -181.65 30.55 L-181.35 30.9 Q-181.1 30.7 -180.3 31.8 L-180.25 31.85 -180.2 31.9 -178.15 33.1 -179.65 33.65 -181.55 32.95 -182.55 33.65 Q-183.45 34.25 -183.65 37.65 -183.85 41.05 -182.9 42.2 L-176.15 42.85 Q-175.6 42.85 -173.6 41.85 L-171.65 40.85 -170.45 41.0 -170.15 41.1 -170.15 41.65 Q-170.5 42.2 -172.35 43.15 -174.6 44.35 -176.15 44.35 -180.3 44.35 -182.7 43.1 L-182.45 43.85 -183.15 44.1 -183.2 44.1 -183.2 44.45 -184.0 52.3 -183.9 52.3 -183.9 52.6 -181.05 53.8 -181.4 54.55 -181.4 54.65 -181.45 54.65 Q-183.55 56.0 -184.35 59.15 -185.15 62.25 -185.4 64.65 L-184.9 67.05 -184.85 67.4 -184.7 66.9 -183.65 66.85 -183.55 66.95 -183.45 67.0 -183.2 64.35 -182.7 64.35 Q-182.7 68.8 -182.15 71.35 L-179.35 71.85 Q-177.05 72.55 -176.45 73.35 L-177.15 73.6 Q-179.5 73.5 -181.55 72.65 L-183.4 71.65 -183.2 71.35 -182.95 71.35 -183.4 69.7 -183.45 67.25 -183.45 67.15 Q-184.2 67.3 -184.35 67.6 L-184.4 68.5 Q-184.4 69.65 -183.4 71.15 L-183.95 71.1 -184.15 70.9 Q-184.15 71.9 -184.4 71.4 -185.0 70.75 -185.85 67.6 -186.65 64.6 -186.65 63.6 L-186.6 62.85 -186.45 62.7 Q-186.3 60.35 -185.6 58.25 -184.7 55.45 -183.2 54.35 L-183.7 54.25 Q-185.1 53.95 -185.4 53.6 L-185.4 49.0 Q-185.3 47.4 -183.65 43.6 -184.1 44.45 -183.95 43.3 L-184.6 41.75 Q-185.5 38.35 -184.6 34.9 -184.2 33.85 -183.2 32.7 -184.4 32.2 -185.1 30.85 -185.8 29.5 -185.8 28.45 L-185.8 27.0 -185.9 25.35 -185.85 23.95 -185.6 23.25 Q-185.3 21.15 -184.65 23.4 M-179.4 22.35 L-180.4 21.85 -180.2 19.9 -174.4 20.35 Q-173.9 20.8 -175.9 21.0 -178.6 21.3 -179.4 22.35 M-167.7 5.35 L-167.2 5.35 -167.2 7.4 -169.15 9.1 -171.4 10.85 -171.9 10.35 -168.8 6.95 -167.7 5.35 M-174.65 -7.35 Q-174.65 -7.15 -174.2 -7.1 -175.2 -6.1 -181.5 -5.35 -182.75 -5.35 -181.9 -5.65 -181.1 -6.15 -178.15 -6.65 L-174.65 -7.35 M-176.2 -16.3 L-176.7 -17.7 Q-177.3 -19.05 -177.9 -19.65 -177.9 -19.35 -178.4 -19.35 L-178.55 -20.15 -178.65 -20.4 Q-176.55 -20.8 -175.6 -18.8 -174.95 -17.55 -174.95 -16.0 -174.95 -14.7 -175.2 -14.4 -176.3 -13.15 -180.65 -13.15 L-183.15 -13.4 -184.9 -13.85 Q-179.7 -14.15 -177.5 -15.15 -176.2 -15.75 -176.2 -16.3 M-156.3 -4.4 Q-156.8 -4.55 -156.65 -4.9 -156.5 -5.2 -156.9 -5.35 L-156.2 -5.7 -155.65 -5.85 -148.6 -5.25 -141.45 -4.75 Q-138.75 -7.0 -136.5 -5.65 L-135.65 -5.0 -135.7 -5.4 Q-134.2 -6.55 -131.65 -6.45 L-128.4 -6.15 -131.55 -5.3 -134.9 -4.15 -135.0 -4.2 Q-134.45 -3.3 -134.45 -2.15 -134.45 -0.85 -134.7 -0.4 L-135.65 -0.6 Q-135.2 -2.3 -135.45 -3.25 -135.85 -4.9 -140.15 -4.9 L-140.5 -4.7 -139.9 -4.65 -140.8 -4.15 -142.65 -3.9 -156.3 -4.4 M-158.7 -40.1 L-156.5 -38.35 -154.4 -35.85 Q-157.1 -37.45 -158.7 -40.1 M-164.65 -33.95 L-170.4 -34.35 -159.45 -34.85 -160.4 -35.85 -159.5 -36.5 -159.2 -37.1 -158.25 -36.1 -157.65 -35.15 Q-157.4 -34.75 -157.4 -34.1 L-153.75 -33.9 Q-150.65 -33.65 -150.65 -32.9 -150.65 -32.1 -152.45 -32.2 L-155.15 -32.4 Q-158.1 -32.4 -158.45 -33.2 L-158.6 -33.5 -164.65 -33.95 M-161.65 -51.4 L-162.0 -51.2 -159.7 -51.1 Q-159.85 -50.8 -162.55 -50.45 L-164.1 -50.25 -164.5 -50.15 -165.0 -50.15 -166.15 -50.1 -166.5 -50.1 -166.65 -49.85 -170.1 -50.4 -177.15 -50.9 -171.5 -51.3 -166.4 -51.1 -166.4 -50.75 -166.15 -50.85 -163.85 -51.15 -161.8 -51.6 -161.1 -51.65 -161.65 -51.4 M-184.3 -50.85 L-184.2 -51.15 Q-181.2 -52.15 -179.8 -51.2 -178.8 -50.55 -178.8 -49.3 L-178.8 -48.0 Q-179.0 -46.85 -180.2 -46.85 -181.7 -46.85 -182.3 -47.35 -181.85 -48.25 -181.1 -48.6 L-180.3 -48.85 Q-180.85 -49.5 -182.25 -50.05 L-184.3 -50.85 M-182.1 -81.35 L-182.1 -79.85 -182.3 -79.1 -182.55 -79.1 -182.7 -80.55 -182.55 -81.35 -182.1 -81.35 M-172.45 -76.05 L-174.05 -76.35 -173.6 -76.6 Q-171.85 -76.85 -168.55 -78.3 -166.55 -79.2 -166.1 -78.1 L-167.8 -76.95 Q-169.7 -75.85 -170.7 -75.85 L-172.45 -76.05 M-176.95 -75.1 Q-178.4 -75.1 -180.1 -76.15 -181.85 -77.2 -182.95 -77.2 L-185.15 -76.4 Q-186.05 -76.25 -186.75 -76.4 L-187.05 -76.3 -187.55 -74.75 -186.4 -75.05 -186.3 -73.9 -186.55 -73.25 -186.8 -72.65 -187.05 -71.5 -187.25 -70.35 Q-187.25 -68.75 -185.7 -66.65 L-185.35 -66.2 Q-184.15 -66.35 -182.8 -65.55 -181.15 -64.6 -181.15 -64.1 L-181.35 -63.9 -173.3 -64.65 -173.2 -66.8 -173.3 -68.6 Q-173.45 -69.35 -174.3 -70.35 L-173.65 -70.6 -173.05 -70.65 -173.05 -70.6 -172.25 -68.05 Q-171.7 -65.95 -171.7 -64.4 L-172.3 -63.4 Q-173.45 -62.4 -176.05 -62.4 L-182.25 -63.05 -183.4 -62.0 -184.35 -59.5 Q-185.3 -56.85 -185.3 -55.85 -185.3 -51.35 -184.85 -48.75 -184.4 -46.15 -184.4 -40.9 L-184.4 -40.2 Q-184.45 -39.95 -184.65 -39.8 L-183.95 -39.1 -183.65 -39.15 -182.5 -38.05 -182.9 -38.1 Q-181.25 -36.6 -179.95 -36.35 -180.1 -36.1 -180.9 -35.95 L-184.3 -33.6 Q-186.3 -32.35 -187.15 -31.1 L-186.4 -30.85 Q-186.15 -30.75 -186.15 -30.0 -186.15 -29.25 -186.3 -29.05 L-186.45 -28.9 -186.65 -28.9 Q-185.65 -28.5 -184.25 -27.35 L-181.75 -25.5 Q-172.55 -28.0 -169.7 -25.15 L-170.05 -24.75 -171.15 -24.6 Q-172.7 -24.6 -173.2 -25.35 L-175.35 -25.7 -178.45 -25.85 Q-179.25 -25.85 -180.3 -25.3 L-181.4 -24.6 -181.85 -24.7 -182.05 -24.65 Q-183.35 -22.6 -185.8 -22.05 -187.55 -21.65 -187.4 -19.15 L-187.2 -16.25 Q-187.25 -14.8 -187.65 -14.0 L-182.4 -13.15 Q-182.4 -12.85 -182.9 -12.15 -183.4 -11.5 -183.4 -10.8 -183.4 -10.15 -182.9 -9.65 -182.4 -9.15 -182.4 -8.55 L-182.6 -7.35 -183.2 -6.85 -182.7 -6.35 Q-185.6 -3.9 -186.0 -0.15 L-186.7 4.5 -186.6 4.7 -185.25 7.0 Q-184.45 8.25 -181.1 9.6 -177.85 10.9 -176.45 10.7 L-177.55 11.1 -178.9 11.4 Q-181.4 11.4 -183.6 10.45 -184.6 11.4 -184.85 12.85 L-184.95 15.7 -184.45 18.4 Q-183.95 20.5 -183.95 21.1 -183.95 21.9 -184.2 22.25 L-184.65 22.65 Q-185.85 20.8 -186.1 19.0 L-186.2 15.45 -186.05 12.05 Q-185.8 10.95 -185.2 10.4 -186.4 9.9 -187.05 8.4 L-187.65 6.15 -187.65 5.65 -187.95 5.35 -187.95 -1.85 -186.4 -4.65 Q-185.3 -6.4 -183.65 -7.35 L-183.3 -6.95 Q-184.2 -8.4 -184.5 -10.0 L-184.9 -12.1 -188.5 -13.05 Q-189.45 -13.4 -189.1 -14.1 -189.4 -14.4 -188.8 -14.35 L-188.9 -18.65 Q-188.9 -22.2 -188.45 -23.3 -187.5 -25.6 -184.9 -25.75 L-185.6 -26.5 -187.6 -28.9 -188.95 -29.15 -189.15 -29.65 -189.15 -30.55 Q-189.15 -32.85 -185.8 -35.0 L-183.55 -36.1 Q-185.35 -37.6 -186.1 -39.5 -186.8 -39.7 -186.8 -40.4 L-186.5 -44.1 Q-186.15 -46.5 -186.15 -47.75 L-186.4 -48.8 -186.65 -49.9 Q-186.65 -52.95 -186.15 -56.4 -185.6 -60.0 -184.75 -61.5 L-184.9 -61.65 -184.9 -62.35 -185.0 -62.4 -184.9 -62.45 -184.6 -63.45 -183.65 -64.65 -184.25 -64.85 -184.15 -64.65 -184.15 -64.15 Q-184.3 -63.65 -184.9 -63.65 -185.5 -63.65 -187.05 -66.0 -188.55 -68.3 -188.55 -68.85 L-188.5 -72.3 -188.55 -72.3 -188.65 -74.3 Q-188.6 -75.5 -188.2 -76.1 L-188.3 -76.1 Q-189.15 -76.1 -190.35 -77.25 L-191.3 -78.25 Q-192.4 -79.05 -192.5 -81.55 L-192.2 -84.75 Q-192.2 -87.95 -191.85 -89.5 L-191.15 -91.3 -191.15 -91.6 -182.25 -91.6 -182.35 -91.5 -190.4 -90.95 -190.8 -90.2 Q-191.2 -89.2 -191.2 -87.6 L-190.7 -79.55 -189.0 -78.55 -187.65 -77.6 -180.0 -77.0 Q-177.3 -76.2 -173.1 -75.85 L-173.1 -75.6 -174.8 -75.25 -176.95 -75.1 M-178.85 -83.45 L-178.8 -82.1 Q-178.8 -80.4 -179.8 -79.85 -179.6 -80.5 -179.5 -81.65 L-179.3 -83.45 -178.85 -83.45 M-177.7 -81.5 L-177.45 -81.5 -177.45 -79.35 Q-177.45 -78.5 -177.7 -78.2 L-177.85 -78.35 -177.95 -79.45 -177.7 -81.5 M-179.55 -90.75 L-179.5 -90.75 -177.5 -90.7 -176.85 -90.15 -176.9 -89.8 -177.05 -89.7 -177.55 -89.6 Q-179.6 -90.0 -179.6 -90.4 L-179.55 -90.75 M-168.55 -91.15 L-168.7 -91.6 -166.25 -91.6 -167.8 -91.1 -168.55 -91.15 M-91.15 -32.1 L-92.9 -32.35 Q-84.7 -32.95 -82.65 -34.7 L-82.95 -34.15 Q-84.5 -32.1 -91.15 -32.1 M-83.5 -38.1 L-83.65 -39.15 -83.2 -40.25 -83.2 -41.1 -82.9 -41.1 -82.9 -40.5 Q-82.3 -41.0 -81.25 -41.35 L-71.9 -41.65 Q-77.0 -40.05 -82.3 -38.6 L-83.2 -37.65 -83.5 -38.1 M-111.05 -34.3 L-110.9 -34.1 -93.9 -33.65 -96.85 -33.15 -101.65 -32.85 -110.95 -32.85 -111.15 -32.85 -111.2 -33.6 -111.05 -34.3 M-137.95 -55.05 L-136.7 -58.1 -136.4 -58.1 Q-136.4 -55.9 -137.15 -54.3 L-136.3 -53.45 -135.6 -52.5 -128.9 -52.15 -131.55 -51.8 -134.9 -51.65 -136.0 -51.35 Q-137.25 -51.35 -137.2 -51.65 L-137.5 -52.75 -137.8 -53.15 Q-139.4 -51.1 -142.65 -51.1 L-143.9 -51.35 -143.2 -51.7 -142.65 -51.85 Q-140.35 -52.65 -139.0 -53.85 L-139.15 -53.9 -138.5 -54.35 -137.95 -55.05 M-108.0 -65.65 Q-106.95 -65.65 -104.95 -67.05 -103.05 -68.45 -100.7 -68.35 L-100.65 -67.9 Q-102.5 -66.85 -103.85 -65.25 -105.45 -64.15 -110.65 -64.15 L-120.7 -65.1 -122.7 -64.6 -124.65 -64.15 -126.8 -64.4 Q-127.95 -64.65 -128.15 -64.9 -126.0 -64.8 -123.6 -65.7 -120.85 -66.65 -111.65 -66.65 L-109.85 -66.15 Q-108.65 -65.65 -108.0 -65.65 M-106.4 -66.85 L-106.7 -66.85 Q-107.05 -68.6 -106.7 -70.6 L-106.4 -70.6 -106.4 -66.85 M-101.45 -66.15 L-101.4 -66.9 -101.2 -67.1 -98.3 -66.5 -95.65 -65.85 -83.2 -66.35 Q-83.2 -64.9 -83.65 -64.65 -86.35 -66.8 -92.2 -65.7 L-98.15 -64.15 Q-99.6 -64.15 -100.65 -65.05 -101.45 -65.75 -101.45 -66.15 M-54.1 44.0 L-54.1 44.4 -58.65 45.75 -64.65 46.85 Q-66.25 46.85 -67.7 46.05 L-70.4 44.15 Q-70.3 44.0 -69.7 43.8 L-69.15 43.65 Q-68.45 43.5 -66.9 44.4 -65.3 45.35 -64.65 45.35 L-59.85 44.4 -54.1 44.0 M-55.25 -16.5 L-54.1 -16.3 -54.1 -15.1 -64.65 -15.4 Q-65.15 -15.4 -66.35 -15.95 L-68.9 -16.85 -67.85 -17.2 -67.6 -17.25 -68.2 -17.9 Q-68.4 -18.2 -68.4 -19.05 L-68.2 -20.6 -67.9 -20.6 Q-67.9 -19.55 -66.95 -18.45 L-66.1 -17.35 -55.25 -16.5 M-69.95 2.25 Q-69.95 2.65 -72.45 2.75 L-75.45 2.75 Q-78.6 2.75 -80.7 0.45 L-81.3 -0.25 Q-81.3 0.1 -82.2 0.9 L-83.45 1.75 Q-84.3 1.75 -84.7 1.35 L-81.7 -0.75 -81.6 -0.7 Q-82.35 -1.85 -82.35 -2.9 L-82.3 -3.6 -81.85 -3.6 Q-80.2 0.5 -74.9 1.75 L-69.95 2.25 M-61.7 7.1 L-62.5 5.2 Q-63.1 3.8 -63.95 3.15 -62.35 2.7 -61.55 4.45 -61.05 5.6 -61.05 6.5 L-61.25 7.0 -61.35 7.1 -61.6 7.25 -61.7 7.1 M-160.9 85.0 L-159.9 84.65 Q-157.5 87.0 -155.5 87.15 -158.55 88.5 -161.65 85.4 L-160.9 85.0 M-148.65 86.9 L-149.9 87.1 -151.05 86.45 -148.65 86.9 M-128.65 101.9 Q-128.45 101.55 -127.2 101.45 L-124.3 101.15 -118.65 101.25 -125.35 101.7 -128.55 102.05 -128.65 101.9 M-124.65 106.15 L-125.0 105.9 -125.2 105.4 Q-125.2 104.5 -124.7 103.35 -123.9 101.6 -122.3 102.05 -123.15 102.7 -123.75 104.1 L-124.65 106.15 M-123.45 85.9 L-123.6 86.3 Q-123.55 86.75 -124.25 87.1 L-124.75 86.6 -123.45 85.9 M-137.9 100.25 Q-139.2 100.2 -140.4 100.8 -141.65 101.4 -144.3 101.4 -146.6 101.4 -148.4 100.65 L-150.05 99.55 Q-150.4 100.25 -151.55 100.55 L-165.9 101.4 -169.25 101.35 -169.3 101.4 -169.8 101.35 -171.65 101.15 -171.1 101.15 -172.7 100.8 Q-173.7 100.5 -173.7 99.85 L-173.6 99.3 -173.3 99.15 Q-172.7 99.65 -169.7 101.05 L-155.9 100.3 Q-151.1 99.95 -150.4 97.9 -149.9 98.05 -149.9 98.75 L-149.9 98.8 -143.1 99.75 -137.9 100.25 M-116.3 101.15 L-111.35 100.65 Q-106.05 99.4 -104.4 95.3 L-103.95 95.3 -103.9 96.0 Q-103.9 97.05 -104.65 98.2 L-104.55 98.15 -101.55 100.25 Q-101.95 100.65 -102.8 100.65 L-104.05 99.8 -104.95 98.65 -105.55 99.35 Q-107.65 101.65 -110.8 101.65 L-113.8 101.65 Q-116.3 101.55 -116.3 101.15 M-109.5 87.35 L-110.7 86.2 Q-111.55 85.4 -113.0 85.4 L-123.3 85.8 Q-119.55 83.9 -115.85 84.15 -112.4 84.4 -107.25 86.9 L-109.5 87.35 M-73.75 89.9 L-66.0 89.55 -61.25 89.6 -67.9 90.05 -73.75 89.9 M-73.75 90.15 L-77.5 89.85 Q-86.05 89.05 -87.15 87.55 L-87.6 86.5 Q-87.9 86.05 -89.25 85.9 L-88.55 85.55 -88.0 85.4 Q-84.4 87.45 -80.3 87.8 -76.65 88.1 -73.75 90.15 M-87.9 69.15 Q-87.85 68.65 -89.05 68.55 -91.35 68.25 -94.9 65.65 -90.4 64.7 -88.45 65.95 -87.2 66.7 -87.2 67.95 L-87.25 68.95 -87.4 69.35 -87.9 69.15 M-82.75 76.1 L-82.75 76.4 Q-87.8 76.85 -88.55 79.0 L-88.8 80.7 Q-88.85 81.7 -89.25 82.1 L-89.75 81.9 -90.05 79.85 Q-90.05 78.45 -87.9 76.6 -85.35 74.35 -82.75 76.1 M-97.4 53.35 L-98.9 52.65 Q-98.8 52.45 -98.2 52.3 L-97.65 52.15 -97.45 52.05 Q-97.2 51.95 -97.2 52.7 -97.2 53.95 -97.4 53.35 M-95.85 47.5 L-98.2 47.9 Q-97.45 45.7 -96.4 44.5 -94.4 42.15 -89.7 43.9 -94.45 46.15 -95.85 47.5 M-84.9 38.65 L-84.2 38.65 -83.95 41.85 Q-83.95 42.35 -84.85 43.15 -86.25 44.35 -88.75 44.35 L-89.9 44.15 Q-85.8 43.05 -85.25 41.5 -85.35 39.65 -84.9 38.65 M-69.15 45.6 Q-69.6 46.15 -72.15 46.15 -78.2 46.15 -81.65 41.9 -84.15 38.8 -84.15 35.95 -84.15 33.75 -83.7 31.85 L-83.2 31.85 -83.2 35.4 Q-83.15 37.65 -82.35 39.15 -79.95 43.55 -69.15 45.6 M-114.6 74.0 L-114.7 72.45 Q-114.7 71.75 -110.85 70.4 L-110.15 70.2 -110.15 70.1 Q-111.95 65.15 -103.9 64.5 L-94.9 64.85 Q-94.9 65.05 -96.05 65.25 L-98.15 65.4 Q-106.15 65.4 -107.2 68.0 L-107.55 69.8 Q-106.95 69.9 -106.95 70.45 -106.95 71.7 -107.2 71.1 -111.85 71.2 -113.1 71.85 -113.45 72.05 -113.45 72.65 L-113.2 74.2 -112.9 75.35 Q-114.25 75.15 -114.6 74.0 M-128.75 52.35 Q-125.15 52.2 -125.15 52.35 L-120.95 52.7 Q-117.9 53.2 -116.9 53.65 -119.65 53.4 -128.4 53.9 L-132.8 53.75 Q-132.8 53.35 -132.95 52.85 L-128.75 52.35 M-139.35 51.8 L-140.7 49.35 Q-140.4 49.35 -138.4 51.25 -136.55 53.0 -134.4 52.35 -134.4 52.65 -135.65 52.9 L-137.65 53.15 Q-138.35 53.15 -139.35 51.8 M-106.9 14.1 Q-106.0 12.85 -103.65 11.65 L-103.2 11.9 -106.9 14.1 M-109.9 14.0 L-102.4 14.35 -105.55 14.75 -109.65 14.9 -113.15 14.6 -115.9 14.15 -109.9 14.0 M-121.15 20.55 L-121.2 19.35 Q-121.2 17.35 -120.8 16.5 -119.75 14.2 -116.2 14.65 L-116.15 15.1 Q-118.75 15.95 -119.6 18.0 L-120.2 21.1 -120.9 21.1 -121.15 20.55 M-124.25 14.65 L-128.4 14.15 -124.2 13.9 Q-120.75 14.1 -119.7 14.85 L-119.9 15.15 -124.25 14.65 M-109.8 -8.85 L-108.55 -9.4 Q-108.3 -9.35 -106.9 -8.35 L-108.7 -6.35 Q-109.8 -5.15 -112.15 -5.15 L-124.4 -6.35 Q-113.65 -7.05 -109.8 -8.85 M-108.4 -16.35 L-107.7 -16.35 -107.55 -15.6 Q-107.4 -15.05 -107.4 -14.3 L-107.5 -12.9 Q-107.65 -12.4 -108.15 -11.9 L-108.7 -12.6 Q-108.9 -12.85 -108.9 -14.1 L-108.75 -15.4 -108.4 -16.35 M-161.65 86.1 L-162.85 87.1 Q-164.35 88.1 -166.05 88.1 L-172.15 88.35 Q-175.95 88.4 -177.8 87.25 L-171.5 87.15 Q-165.45 86.85 -162.05 85.5 L-161.65 86.1 M-162.05 103.55 L-162.45 103.05 -161.6 102.15 Q-160.7 101.4 -159.55 101.55 -160.5 102.15 -161.05 102.85 -161.45 103.4 -162.05 103.55" fill="#5b5546" fill-rule="evenodd" stroke="none"/>
  </g>
</svg>
