<?xml version="1.0" encoding="UTF-8" standalone="no"?>
<svg xmlns:xlink="http://www.w3.org/1999/xlink" height="27.95px" width="27.25px" xmlns="http://www.w3.org/2000/svg">
  <g transform="matrix(1.0, 0.0, 0.0, 1.0, 13.85, 13.75)">
    <path d="M-0.65 -13.55 Q4.75 -14.5 8.45 -11.05 12.55 -7.2 12.55 0.9 12.55 3.8 9.8 7.3 5.35 13.0 -3.75 13.0 -9.9 13.0 -12.45 8.4 -13.75 6.1 -13.85 3.65 -13.85 -3.2 -9.7 -8.15 -5.95 -12.65 -0.65 -13.55" fill="#ffffff" fill-rule="evenodd" stroke="none"/>
    <path d="M12.35 -3.45 L10.6 6.4 Q10.2 8.6 4.6 11.6 L-0.05 13.7 -1.75 13.5 -6.05 13.15 -6.5 13.0 Q-7.75 12.55 -8.65 12.1 L-9.4 11.0 Q-10.5 9.3 -10.9 7.5 L-11.95 4.45 Q-13.05 1.65 -13.05 -0.95 -13.05 -5.35 -9.1 -8.45 -5.5 -11.25 -0.35 -11.85 4.85 -12.45 8.4 -10.45 12.35 -8.2 12.35 -3.45" fill="#669933" fill-opacity="0.3019608" fill-rule="evenodd" stroke="none"/>
    <path d="M10.6 -0.95 Q11.75 1.65 11.75 2.65 11.75 4.6 8.0 8.25 3.5 12.6 -1.5 12.6 -8.0 12.6 -10.95 7.45 -12.75 4.25 -12.75 0.75 L-12.75 -1.35 Q-12.5 -3.25 -11.25 -3.25 -9.5 -3.25 -7.4 1.0 L-8.05 3.0 Q-3.4 5.6 -4.0 8.0 L-4.0 8.1 Q-0.55 7.65 2.35 5.75 L6.25 2.75 5.5 0.5 5.2 1.05 Q4.95 1.4 4.25 1.4 2.9 1.4 3.0 0.0 6.3 -7.55 9.35 -4.25 9.4 -3.6 10.6 -0.95" fill="#669933" fill-opacity="0.3019608" fill-rule="evenodd" stroke="none"/>
    <path d="M8.9 -4.45 L6.75 -2.55 Q3.85 -2.55 2.85 -4.7 2.35 -5.8 2.4 -7.05 L-1.05 -7.25 Q-5.6 -7.25 -7.3 -4.1 L-8.35 -2.0 Q-8.9 -1.0 -9.85 -1.0 -11.9 -1.0 -11.9 -1.9 L-11.5 -5.4 Q-11.5 -7.9 -8.0 -9.85 -4.75 -11.7 -0.3 -12.2 4.3 -12.7 7.35 -11.3 10.85 -9.7 10.85 -6.1 L8.9 -4.45" fill="#669933" fill-opacity="0.3019608" fill-rule="evenodd" stroke="none"/>
    <path d="M8.0 0.15 Q9.95 -4.5 10.7 -2.05 11.1 -0.7 11.1 2.6 11.1 5.75 9.9 8.7 7.85 13.9 3.1 13.9 L1.15 13.85 -1.75 13.5 -2.85 13.4 Q-6.75 12.7 -9.75 11.0 L-10.45 10.6 -10.75 10.0 Q-11.85 8.25 -13.75 7.45 L-13.8 7.05 Q-13.8 6.55 -13.0 5.7 L-12.25 4.9 -12.5 3.5 -12.8 2.05 -12.7 0.75 Q-12.45 -0.05 -11.25 -0.05 -9.9 -0.05 -9.2 1.4 L-8.1 4.6 Q-6.35 9.25 -1.05 9.25 5.8 9.25 7.4 5.65 8.3 3.7 8.0 0.15" fill="#669933" fill-opacity="0.3019608" fill-rule="evenodd" stroke="none"/>
    <path d="M11.65 -2.4 L11.85 4.45 Q11.85 5.8 9.85 8.6 8.0 11.15 7.05 11.4 L7.1 11.2 7.0 10.9 6.5 10.9 Q6.45 12.2 5.0 13.75 L3.4 14.2 -1.75 13.5 -6.05 13.15 -6.5 13.0 -8.15 12.35 -9.8 10.0 Q-11.75 6.9 -12.65 3.75 L-12.55 1.75 Q-12.3 0.5 -11.0 0.5 -9.25 0.5 -8.4 3.3 -7.55 6.1 -4.35 6.1 -3.7 6.1 -2.3 5.1 -0.85 4.1 0.5 4.1 3.8 4.1 4.5 1.0 5.3 -2.6 6.9 -3.3 5.5 -4.5 5.7 -5.05 L6.25 -6.5 5.85 -7.35 Q5.4 -7.95 5.4 -8.25 5.4 -9.1 5.75 -9.5 6.6 -10.45 9.25 -10.05 11.1 -8.7 11.65 -2.4" fill="#669933" fill-opacity="0.3019608" fill-rule="evenodd" stroke="none"/>
    <path d="M9.55 -2.35 Q9.65 -0.9 9.25 1.85 10.7 2.85 11.0 3.2 L11.1 3.75 Q11.1 4.45 10.3 6.95 L9.5 9.75 Q9.5 11.0 3.6 12.25 L-3.8 13.35 -5.9 13.2 Q-7.3 12.6 -9.45 10.45 L-12.0 7.5 Q-12.0 6.25 -11.25 2.95 -10.35 -1.0 -9.5 -1.0 -7.45 -1.0 -7.4 0.7 -7.35 1.6 -7.75 3.4 L-5.45 3.9 -1.9 4.35 Q6.25 4.35 7.0 1.3 7.35 -0.35 6.4 -3.0 9.4 -5.05 9.55 -2.35" fill="#669933" fill-opacity="0.3019608" fill-rule="evenodd" stroke="none"/>
    <path d="M5.15 -13.25 L6.05 -12.5 6.05 -12.05 5.9 -11.9 6.1 -11.55 6.25 -11.1 7.4 -11.05 8.15 -10.9 8.6 -10.8 8.9 -10.4 8.2 -9.05 8.95 -8.55 9.6 -8.1 Q10.05 -7.95 10.25 -7.5 L10.45 -6.65 10.45 -6.35 10.85 -6.4 11.2 -6.3 11.45 -6.35 11.6 -6.1 Q11.6 -5.2 10.75 -3.6 L11.15 -2.8 11.9 -0.95 12.05 -0.3 11.8 0.45 12.45 0.45 12.55 0.4 Q13.4 0.2 13.4 0.75 L13.05 1.3 12.6 1.75 12.7 1.75 12.75 1.9 12.6 2.4 12.4 3.4 12.1 4.05 Q11.9 5.75 10.85 7.7 L9.55 9.6 9.9 9.9 9.75 10.05 9.3 9.9 Q8.3 11.0 7.0 11.7 L6.95 11.7 Q4.45 13.7 1.3 13.7 -0.5 13.7 -2.1 13.05 L-3.2 12.85 -4.0 12.95 -4.15 12.95 -4.35 13.0 Q-8.25 13.0 -11.1 8.65 -13.4 5.25 -13.4 3.0 L-13.15 -0.65 -12.95 -2.95 -13.2 -3.5 -13.1 -4.4 -12.9 -4.4 -12.85 -4.25 Q-12.65 -4.6 -12.1 -4.1 L-11.9 -3.9 Q-11.85 -5.1 -11.4 -5.8 L-11.85 -6.05 -12.05 -6.4 -12.0 -6.65 -12.05 -7.05 Q-12.05 -8.4 -10.65 -8.85 -8.3 -9.6 -6.9 -10.2 -6.3 -10.7 -5.0 -11.1 L1.7 -11.35 Q1.8 -11.95 2.5 -12.15 L3.65 -12.6 3.8 -13.4 Q3.9 -13.8 4.3 -13.7 L4.6 -13.55 5.15 -13.25 M4.6 -13.1 L4.6 -13.05 4.8 -12.95 4.6 -13.1 M7.8 -10.2 L7.9 -10.45 6.85 -10.4 6.4 -10.2 6.35 -10.2 6.15 -10.15 Q5.75 -10.15 5.55 -10.9 L5.4 -11.6 4.5 -12.75 4.25 -12.3 4.05 -12.1 3.9 -11.9 Q3.8 -11.7 3.3 -11.6 L3.25 -11.6 2.65 -11.0 2.45 -10.7 2.1 -10.25 Q1.8 -10.35 1.8 -10.8 L1.8 -10.9 1.75 -10.95 1.2 -10.95 -1.2 -11.15 -2.4 -11.1 -2.5 -11.1 -4.6 -10.85 -5.6 -10.45 Q-6.7 -9.8 -8.6 -7.2 L-8.7 -7.35 Q-8.7 -8.45 -7.4 -9.55 -8.4 -9.0 -9.75 -8.55 -11.55 -8.05 -11.55 -7.0 L-11.5 -6.75 -9.95 -6.0 -10.1 -5.8 -10.8 -5.7 -10.85 -5.7 -11.25 -4.35 -11.45 -3.45 -10.2 -1.55 -9.95 -1.65 -9.95 -1.75 -9.2 -2.85 -8.0 -4.25 -7.7 -5.5 -7.5 -6.05 -7.55 -6.25 -7.3 -6.95 -6.9 -7.25 Q-6.65 -7.55 -5.85 -7.8 L-4.6 -8.2 -4.35 -8.35 -1.95 -9.9 -1.95 -9.85 -1.85 -9.95 -1.8 -9.9 -1.85 -9.8 Q1.1 -9.55 2.5 -7.3 L5.05 -3.4 5.5 -3.3 Q7.05 -5.05 8.7 -5.2 7.1 -4.3 6.05 -3.2 L6.3 -3.15 5.85 -2.95 5.75 -2.95 Q4.45 -1.5 4.05 0.3 5.05 0.55 6.45 1.6 L6.95 1.35 7.25 1.35 7.35 1.3 7.1 1.3 7.7 1.2 7.7 1.25 7.95 1.6 8.05 1.75 8.6 2.7 10.0 1.45 Q10.85 0.85 11.5 0.6 L11.45 0.45 11.55 0.05 10.85 -1.5 Q10.1 -3.3 10.1 -3.75 L9.9 -4.55 9.95 -5.05 10.05 -5.05 10.3 -4.45 Q10.35 -5.45 10.85 -5.85 L10.6 -5.85 10.05 -5.85 Q9.75 -5.5 9.55 -5.5 L9.15 -5.55 9.1 -5.75 9.35 -6.05 9.35 -6.1 9.6 -6.3 9.65 -6.3 9.9 -6.7 9.7 -7.25 9.35 -7.55 Q8.5 -7.55 8.0 -8.2 7.7 -8.6 7.7 -9.0 7.7 -9.65 7.85 -10.0 L7.8 -10.2 M6.35 -10.65 L6.4 -10.7 6.35 -10.7 6.35 -10.65 M2.7 -5.2 L2.1 -4.7 0.9 -4.0 0.7 -3.95 0.7 -4.1 Q0.7 -4.5 1.5 -5.25 L2.35 -5.75 2.2 -6.05 2.15 -6.15 Q1.45 -5.75 -0.45 -4.85 L-0.55 -4.95 0.65 -5.95 1.9 -6.55 Q0.2 -9.15 -1.9 -9.75 L-2.05 -9.6 Q-2.25 -9.15 -3.1 -8.55 L-3.75 -8.05 Q-5.55 -7.1 -6.35 -6.85 L-6.8 -6.2 -6.8 -6.05 Q-6.8 -4.15 -8.5 -2.5 L-8.1 -2.4 -6.9 -3.25 -5.65 -3.85 -5.55 -3.9 -4.8 -4.05 -4.45 -4.15 -4.4 -4.1 -4.25 -4.1 -3.35 -3.9 Q-1.95 -3.55 -1.8 -1.25 L-2.0 0.05 Q-2.0 1.55 -1.65 2.1 L-1.6 2.8 -1.6 2.85 -1.35 2.95 -0.1 3.05 1.15 2.9 1.1 2.85 1.1 2.65 Q1.1 2.3 1.55 1.45 2.15 0.5 2.7 0.4 L2.65 0.35 3.75 0.2 3.7 0.0 Q3.7 -1.05 5.15 -2.85 4.5 -2.85 4.45 -3.1 3.75 -3.45 2.7 -5.2 M9.45 -1.5 L8.45 -1.7 6.7 -2.25 8.5 -2.3 9.6 -1.6 9.45 -1.5 M9.05 -0.8 L10.4 -0.25 10.2 -0.1 7.55 -1.05 9.05 -0.8 M12.25 1.3 L12.35 1.1 12.45 1.0 12.45 0.95 Q10.15 1.6 8.65 3.8 L8.5 3.85 8.3 3.3 Q7.85 3.1 7.3 1.85 L7.1 1.85 Q6.75 1.85 6.05 2.6 L5.75 3.1 5.75 3.25 5.5 3.8 5.45 4.4 5.15 4.75 5.05 4.75 4.65 5.2 3.7 5.0 Q1.45 5.25 1.2 5.9 L1.3 6.35 1.45 6.25 1.65 7.0 Q1.65 7.65 1.15 7.65 L0.55 7.3 0.25 7.3 -0.55 6.9 -1.3 6.9 -1.25 7.4 Q-1.25 7.7 -2.55 8.25 L-1.6 8.9 -1.6 8.95 -1.05 9.3 Q-0.75 9.65 -0.75 10.15 L-0.95 10.9 -0.95 10.95 Q-0.95 11.45 -1.7 12.1 L-2.15 12.45 -0.3 12.8 0.85 12.75 0.75 12.6 0.65 11.85 0.4 11.35 0.45 10.55 0.65 10.55 1.0 11.8 Q1.15 12.4 1.55 12.7 L2.4 12.6 2.35 12.5 2.1 11.65 2.3 10.8 2.65 11.85 3.0 12.5 4.5 12.0 4.45 11.85 4.05 11.2 4.35 11.0 4.8 11.6 4.95 11.85 7.05 10.65 5.75 9.55 4.65 8.15 4.7 7.95 Q5.45 8.25 7.7 10.25 L8.6 9.3 8.5 9.2 7.35 8.05 Q7.6 8.0 8.85 9.05 L8.95 8.9 Q10.3 7.3 11.0 5.5 L11.1 5.1 Q11.25 4.5 11.5 4.05 L11.6 3.45 11.65 3.45 11.8 2.85 11.95 2.55 11.9 2.45 11.8 1.95 12.1 1.45 12.25 1.3 M6.05 2.0 L5.05 1.5 3.8 0.85 3.2 0.6 2.9 0.45 3.0 0.65 3.0 0.7 Q2.35 0.95 2.1 1.65 1.5 2.85 1.4 3.4 L-0.25 3.6 -1.5 3.4 -1.45 3.5 -1.55 3.55 -1.8 3.85 -1.85 3.8 -1.9 3.9 -2.25 4.35 -2.3 4.35 -2.4 4.5 Q-2.9 5.85 -3.6 5.85 L-3.9 5.7 -2.65 4.0 -2.5 3.85 -2.3 3.2 -2.1 3.0 -2.1 2.95 Q-2.75 2.3 -2.75 1.45 -2.55 0.2 -2.65 -0.4 -2.35 -1.6 -2.45 -2.25 -2.65 -3.15 -4.8 -3.75 L-5.7 -3.45 -7.8 -2.15 Q-7.55 -1.7 -7.7 -0.7 L-7.7 0.2 -7.75 0.45 -6.55 0.8 Q-6.2 0.9 -6.2 1.55 L-6.9 2.55 Q-7.6 3.45 -7.6 4.0 L-7.1 4.5 Q-5.2 3.85 -4.55 5.05 -4.15 5.7 -4.25 6.65 -4.25 7.35 -4.65 7.95 -3.85 7.55 -3.0 7.95 -1.85 7.35 -1.75 7.0 -1.5 5.7 -0.35 6.2 L0.4 6.65 0.45 6.65 Q0.5 5.6 1.05 5.0 2.0 4.05 4.2 4.5 4.3 3.95 4.95 3.2 L5.3 2.75 5.35 2.7 6.05 2.0 M0.95 8.8 Q1.55 9.1 2.25 10.2 L2.05 10.3 1.35 9.75 0.9 9.2 0.95 8.8 M2.5 8.4 L3.05 9.25 Q3.35 9.8 4.0 10.2 L4.1 10.25 3.8 10.3 Q3.2 10.3 2.75 9.45 L2.35 8.6 2.4 8.4 2.5 8.4 M-11.65 -2.65 L-11.75 -2.8 -12.65 -3.5 -12.6 -2.95 -12.45 -1.75 -12.65 0.4 Q-12.65 3.65 -11.45 6.25 L-11.1 5.55 Q-10.75 4.95 -10.35 4.9 L-10.15 5.2 -10.6 6.2 -11.1 6.95 -10.95 7.3 -8.7 10.05 -8.35 9.05 -7.7 7.65 -7.45 7.65 -7.3 7.8 -7.9 8.95 -8.25 10.4 -7.8 10.75 -7.7 9.85 -6.5 8.0 -6.35 8.2 -7.15 10.05 -7.25 11.0 -7.25 11.05 -6.35 11.55 -6.5 10.65 -6.05 9.85 -5.4 9.2 -5.25 9.35 -5.7 10.05 Q-6.25 10.75 -6.25 11.65 L-4.6 12.25 -4.4 12.2 -4.4 12.1 Q-4.4 11.1 -3.8 10.6 L-3.7 10.85 -3.95 12.1 -3.55 11.95 -2.15 11.5 -1.85 11.05 -2.05 11.0 -1.85 10.25 -1.95 9.7 -2.8 9.15 -3.3 8.75 -5.4 8.55 -5.6 8.15 -5.3 7.2 -4.85 6.25 -4.85 5.0 -6.55 4.95 Q-6.75 5.15 -7.05 5.15 L-7.85 4.85 -8.2 4.5 Q-8.2 3.5 -7.45 2.4 L-6.7 1.3 Q-6.7 1.0 -7.45 0.85 L-7.9 0.75 -8.35 0.95 -8.7 0.8 -8.7 0.55 Q-8.35 -0.5 -8.35 -0.9 L-8.55 -1.75 -9.45 -1.0 Q-9.9 -0.65 -9.7 -0.25 -9.7 -0.15 -9.95 -0.15 L-10.95 -1.75 -11.65 -2.65 M-9.5 7.15 Q-9.05 6.5 -8.45 6.45 L-9.0 7.5 -9.7 8.15 Q-9.8 7.75 -9.5 7.15 M-1.25 10.15 L-1.3 9.95 -1.25 10.25 -1.25 10.15" fill="#5a493f" fill-rule="evenodd" stroke="none"/>
  </g>
</svg>
