<?xml version="1.0" encoding="UTF-8" standalone="no"?>
<svg xmlns:xlink="http://www.w3.org/1999/xlink" height="176.1px" width="640.0px" xmlns="http://www.w3.org/2000/svg">
  <g transform="matrix(1.0, 0.0, 0.0, 1.0, 0.0, -88.9)">
    <path d="M638.75 89.2 L640.0 88.9 640.0 265.0 0.0 265.0 0.0 213.0 17.85 214.2 41.3 216.25 87.5 220.3 Q119.85 223.0 172.0 229.25 173.45 229.25 174.5 228.45 176.0 229.25 178.0 229.25 181.6 229.25 185.55 201.75 188.75 174.2 187.95 175.5 187.1 176.75 182.4 167.9 177.7 159.0 178.65 149.2 168.7 143.45 167.0 140.25 L167.0 131.25 263.05 123.35 366.55 113.55 439.2 108.3 519.8 102.45 595.55 96.3 Q621.45 93.75 638.75 89.2" fill="url(#gradient0)" fill-rule="evenodd" stroke="none"/>
  </g>
  <defs>
    <linearGradient gradientTransform="matrix(0.0, 0.293, -0.2841, 0.0, 320.0, 240.0)" gradientUnits="userSpaceOnUse" id="gradient0" spreadMethod="pad" x1="-819.2" x2="819.2">
      <stop offset="0.0" stop-color="#9fdfdf"/>
      <stop offset="1.0" stop-color="#ffffff"/>
    </linearGradient>
  </defs>
</svg>
