<?xml version="1.0" encoding="UTF-8" standalone="no"?>
<svg xmlns:xlink="http://www.w3.org/1999/xlink" height="257.4px" width="23.0px" xmlns="http://www.w3.org/2000/svg">
  <g transform="matrix(1.0, 0.0, 0.0, 1.0, 11.5, 126.65)">
    <path d="M7.65 -29.15 Q6.8 -24.5 6.75 -22.5 6.65 -20.4 7.45 -16.2 L8.25 -10.85 Q8.25 -5.9 7.95 -4.8 7.1 -1.8 3.25 0.5 L3.25 1.75 8.5 2.25 8.9 2.9 Q9.25 3.4 9.25 4.85 9.25 5.55 7.25 7.85 5.25 10.2 5.25 11.25 5.25 12.0 7.25 15.05 9.25 18.05 9.25 18.35 9.25 19.8 6.75 25.15 4.25 30.5 4.25 31.85 L7.9 40.8 11.5 50.0 Q11.5 53.9 8.5 58.3 5.5 62.7 5.5 65.75 L5.75 77.75 Q5.75 78.4 7.15 81.5 8.5 84.55 8.5 86.0 8.5 87.15 7.0 89.4 5.5 91.65 5.5 92.75 5.5 94.0 6.4 96.9 7.25 99.75 7.25 101.0 7.25 102.1 9.4 105.9 11.5 109.75 11.5 110.35 11.5 112.85 6.2 121.25 0.2 130.75 -4.0 130.75 -4.5 130.75 -8.05 126.85 L-11.5 122.6 Q-11.5 122.05 -8.5 115.2 -5.5 108.35 -5.5 106.5 -5.5 105.25 -4.35 101.65 -3.25 98.0 -3.25 96.75 -3.25 95.5 -4.35 93.95 -5.5 92.35 -5.5 91.1 -5.5 89.85 -4.5 88.7 -3.5 87.5 -3.5 86.25 -3.5 85.65 -5.5 81.1 -7.5 76.55 -7.5 74.25 -7.5 73.0 -6.5 71.65 -5.5 70.25 -5.5 69.0 -5.5 67.75 -6.5 66.0 -7.5 64.25 -7.5 63.0 -7.5 61.75 -6.35 58.9 -5.25 56.0 -5.25 54.75 L-6.85 53.3 Q-8.5 51.75 -8.5 51.0 L-7.35 45.85 Q-6.25 41.35 -6.25 38.6 -6.25 37.35 -5.25 31.7 -4.25 26.0 -4.25 24.75 -4.25 20.4 -5.75 16.8 -7.25 13.25 -7.25 9.75 L-6.25 4.5 -5.25 -0.75 Q-5.25 -2.0 -6.25 -4.85 -7.25 -7.75 -7.25 -9.0 L-4.75 -19.6 Q-2.25 -30.25 -2.25 -31.85 L-4.0 -37.0 Q-5.75 -42.25 -5.75 -44.0 L-4.75 -54.5 -3.75 -65.0 -4.0 -71.45 -4.25 -80.0 Q-9.15 -81.25 -10.2 -88.05 -10.7 -91.45 -10.25 -94.75 -10.25 -102.15 -7.35 -110.85 -4.5 -119.4 -1.0 -122.75 2.9 -126.5 5.35 -121.0 8.25 -114.4 8.25 -96.0 L8.5 -34.85 7.65 -29.15" fill="#5b5546" fill-opacity="0.3019608" fill-rule="evenodd" stroke="none"/>
    <path d="M5.55 -110.05 Q5.55 -108.15 4.55 -107.2 3.05 -105.85 -1.0 -105.85 -3.6 -105.85 -5.6 -108.2 L-7.1 -110.6 Q-7.1 -111.8 -4.95 -112.35 -1.2 -113.35 0.3 -114.1 L-0.15 -114.75 Q-0.6 -115.25 -0.6 -116.0 -0.6 -118.05 0.45 -118.75 L2.5 -118.6 Q5.45 -116.5 3.0 -111.75 5.55 -111.75 5.55 -110.05" fill="#5b5546" fill-opacity="0.3019608" fill-rule="evenodd" stroke="none"/>
    <path d="M8.9 -84.2 Q6.3 -83.75 3.25 -82.75 L3.95 -81.2 4.3 -79.55 Q4.3 -78.65 3.55 -77.5 2.75 -76.25 2.0 -76.25 0.0 -76.25 -2.1 -78.1 -3.85 -79.7 -3.85 -80.35 L-3.4 -81.25 -1.85 -82.5 -2.45 -83.1 Q-3.1 -83.6 -3.1 -84.35 -3.1 -86.95 3.35 -87.05 9.8 -87.2 9.8 -84.9 9.8 -84.4 8.9 -84.2" fill="#5b5546" fill-opacity="0.3019608" fill-rule="evenodd" stroke="none"/>
    <path d="M3.8 -50.95 Q1.55 -49.9 1.55 -48.35 1.55 -45.65 5.3 -41.9 9.05 -38.2 9.05 -36.75 9.05 -33.35 3.25 -33.35 -1.0 -33.35 -2.65 -35.05 -3.45 -35.95 -3.75 -37.1 L0.3 -37.5 4.75 -37.25 Q1.75 -41.3 -1.75 -42.7 -3.75 -43.5 -3.75 -46.35 -3.75 -47.95 -2.75 -49.4 -1.75 -50.8 -1.75 -52.35 -1.75 -54.05 2.15 -54.55 6.05 -55.1 6.05 -53.05 6.05 -52.0 3.8 -50.95" fill="#5b5546" fill-opacity="0.3019608" fill-rule="evenodd" stroke="none"/>
    <path d="M3.3 -12.0 L0.0 -11.6 Q-3.3 -11.6 -4.95 -13.55 -6.0 -14.85 -6.0 -16.25 L-0.25 -15.7 Q4.25 -14.75 4.25 -13.5 4.25 -12.4 3.3 -12.0" fill="#5b5546" fill-opacity="0.3019608" fill-rule="evenodd" stroke="none"/>
    <path d="M6.45 10.8 Q5.75 11.65 4.5 11.75 5.25 12.45 4.9 14.2 4.45 16.0 3.0 16.0 -0.5 16.0 -3.0 12.85 -4.85 10.45 -4.85 9.1 -4.85 7.55 1.1 7.0 7.0 6.4 7.0 9.1 7.0 10.1 6.45 10.8" fill="#5b5546" fill-opacity="0.3019608" fill-rule="evenodd" stroke="none"/>
    <path d="M3.8 46.75 L4.8 47.75 5.05 49.1 Q5.05 50.25 3.45 51.55 1.6 53.05 -1.0 53.05 -5.6 52.65 -6.6 51.55 -6.75 52.1 -6.75 50.85 -6.75 50.05 -5.85 49.85 L-2.6 49.3 -1.85 48.75 Q-5.4 48.65 -6.55 47.95 -7.1 47.6 -7.1 46.85 -7.1 44.7 -0.5 43.4 6.05 42.05 6.05 44.6 6.05 46.85 3.8 46.75" fill="#5b5546" fill-opacity="0.3019608" fill-rule="evenodd" stroke="none"/>
    <path d="M4.25 38.55 Q3.3 40.25 0.5 40.25 -1.95 40.25 -2.6 39.4 L-2.75 38.4 Q-2.75 36.8 0.3 36.5 L-1.25 36.05 Q-2.45 35.65 -3.0 35.0 -1.65 29.95 1.6 31.35 4.75 32.7 4.75 36.0 4.75 37.65 4.25 38.55" fill="#5b5546" fill-opacity="0.3019608" fill-rule="evenodd" stroke="none"/>
    <path d="M2.0 76.0 Q-1.9 76.0 -2.15 73.3 -1.6 70.25 -1.6 69.5 L-7.0 69.8 -7.85 68.85 -8.1 67.85 Q-8.1 67.05 -7.15 66.9 L-2.5 66.5 Q-3.7 60.7 -0.2 66.65 3.55 72.95 3.55 73.85 3.55 76.0 2.0 76.0" fill="#5b5546" fill-opacity="0.3019608" fill-rule="evenodd" stroke="none"/>
    <path d="M7.25 106.85 Q7.25 107.9 6.05 108.7 4.1 109.95 -0.25 109.8 L-0.35 110.55 -0.35 113.35 0.5 113.3 Q2.95 113.3 3.75 114.9 4.15 115.7 4.05 116.6 L3.75 118.85 Q3.05 120.3 0.8 119.55 L0.9 119.9 1.0 120.85 Q1.0 123.05 -1.0 123.05 -3.1 123.05 -3.65 115.55 L-3.75 107.85 Q-3.75 107.1 -3.2 105.8 -2.45 104.0 -1.25 103.5 L-1.9 102.85 Q-2.25 102.4 -2.25 101.6 -2.25 97.7 0.0 98.5 2.25 99.3 2.25 104.5 7.25 104.15 7.25 106.85" fill="#5b5546" fill-opacity="0.3019608" fill-rule="evenodd" stroke="none"/>
    <path d="M4.8 -87.7 Q3.55 -86.75 2.5 -86.75 2.35 -86.75 0.5 -91.85 L-1.35 -97.1 -1.3 -97.85 -1.1 -98.1 Q2.35 -97.95 4.35 -95.15 6.05 -92.75 6.05 -89.6 6.05 -88.7 4.8 -87.7" fill="#5b5546" fill-opacity="0.3019608" fill-rule="evenodd" stroke="none"/>
    <path d="M1.75 -118.0 Q1.75 -117.4 1.0 -116.9 0.4 -116.5 0.0 -116.5 -1.35 -116.5 -3.0 -121.6 -4.35 -121.0 -5.15 -119.45 -5.95 -117.95 -7.0 -117.6 -8.3 -118.85 -8.3 -119.95 L-8.0 -121.1 Q-8.0 -121.85 -8.8 -122.0 L-9.75 -122.25 Q-3.3 -126.05 -0.85 -126.55 2.55 -127.15 2.55 -123.05 L1.75 -118.0" fill="#669900" fill-opacity="0.3019608" fill-rule="evenodd" stroke="none"/>
    <path d="M5.5 -109.5 Q3.4 -105.85 1.85 -104.75 1.3 -104.35 1.3 -102.55 1.3 -101.6 0.7 -101.35 L-2.0 -101.1 Q-5.55 -101.1 -6.85 -102.15 -7.5 -102.65 -7.5 -103.35 -7.5 -104.45 -6.6 -104.75 -5.0 -105.15 -3.5 -105.75 L-3.7 -106.15 -3.75 -107.25 Q-3.75 -108.8 -2.8 -109.0 0.25 -109.4 4.5 -110.5 L5.5 -109.5" fill="#669900" fill-opacity="0.3019608" fill-rule="evenodd" stroke="none"/>
    <path d="M1.5 -75.0 L1.3 -74.6 -0.65 -74.65 -3.0 -74.75 Q-4.35 -74.75 -5.1 -74.0 L-5.5 -73.85 Q-3.85 -72.25 -3.85 -67.6 -3.85 -66.3 -4.8 -66.2 -6.55 -66.15 -7.85 -65.0 -8.25 -67.95 -8.25 -70.6 -8.25 -74.35 -3.35 -76.65 -1.4 -77.55 0.0 -77.4 1.5 -77.2 1.5 -75.75 L1.5 -75.0" fill="#669900" fill-opacity="0.3019608" fill-rule="evenodd" stroke="none"/>
    <path d="M4.1 -79.2 Q4.3 -79.15 4.3 -78.35 4.3 -77.8 2.75 -76.1 1.05 -74.25 0.0 -74.25 -0.9 -74.25 -1.05 -74.65 L-1.2 -75.4 Q-1.65 -76.45 -6.6 -76.0 L-6.8 -76.1 Q-7.0 -76.25 -7.0 -77.0 L-5.7 -76.9 Q-3.35 -76.25 0.5 -77.6 1.45 -77.9 2.35 -78.55 L3.5 -79.35 4.1 -79.2" fill="#669900" fill-opacity="0.3019608" fill-rule="evenodd" stroke="none"/>
    <path d="M8.3 -35.0 Q8.3 -33.55 5.5 -33.35 L5.75 -33.05 5.8 -32.05 Q5.8 -31.05 4.75 -30.0 3.9 -29.1 3.5 -29.1 2.55 -29.1 0.05 -33.1 L-1.8 -32.6 -5.1 -32.5 -5.3 -32.6 Q-5.5 -32.75 -5.5 -33.5 -5.5 -34.55 -4.45 -34.9 -2.45 -35.55 -1.75 -36.0 L-2.7 -36.85 Q-3.0 -37.25 -3.0 -38.05 L-3.0 -38.85 -2.85 -39.25 -2.35 -39.25 Q-1.05 -36.85 3.9 -36.6 8.3 -36.4 8.3 -35.0" fill="#669900" fill-opacity="0.3019608" fill-rule="evenodd" stroke="none"/>
    <path d="M2.0 -34.0 Q3.95 -33.95 4.85 -33.25 L5.75 -32.1 Q4.6 -31.0 2.8 -30.85 L3.8 -29.0 3.3 -28.2 Q2.95 -27.6 2.5 -27.6 0.45 -27.6 0.0 -29.9 -0.2 -31.05 0.0 -32.5 0.0 -35.65 1.0 -36.5 2.0 -35.7 2.0 -34.0" fill="#669900" fill-opacity="0.3019608" fill-rule="evenodd" stroke="none"/>
    <path d="M6.15 -0.05 Q5.3 0.45 3.0 0.55 L4.2 2.3 Q4.75 3.15 4.75 4.0 4.75 6.25 1.0 6.25 -0.25 6.25 -0.25 4.25 -2.55 4.25 -3.1 3.55 -3.25 4.1 -3.25 2.85 L-2.15 0.95 Q-1.1 -0.8 -1.1 -1.55 -1.1 -2.65 2.85 -2.9 6.8 -3.2 6.8 -1.1 6.8 -0.4 6.15 -0.05" fill="#669900" fill-opacity="0.3019608" fill-rule="evenodd" stroke="none"/>
    <path d="M0.4 6.45 Q-0.2 7.15 -3.0 7.55 L-5.75 7.55 -5.9 7.35 -6.1 6.35 Q-6.1 5.5 -2.9 4.15 0.55 2.7 2.75 3.55 1.2 5.1 0.4 6.45" fill="#669900" fill-opacity="0.3019608" fill-rule="evenodd" stroke="none"/>
    <path d="M3.75 33.1 Q3.75 35.65 1.55 38.05 -1.15 41.05 -5.5 41.05 -7.05 41.05 -7.5 40.15 L-7.6 39.1 Q-7.6 38.3 -6.05 36.1 -4.35 33.65 -3.0 33.25 L-1.25 33.0 Q-5.5 32.85 -5.5 31.1 -5.5 29.5 -4.45 28.45 -2.65 26.7 -1.85 25.3 L-3.7 23.35 Q-2.15 24.45 -1.0 24.05 0.15 25.0 0.15 26.75 L-0.1 29.55 Q1.15 31.05 2.75 31.75 3.75 32.2 3.75 33.1" fill="#669900" fill-opacity="0.3019608" fill-rule="evenodd" stroke="none"/>
    <path d="M4.65 36.7 L5.5 37.8 Q5.15 38.8 2.55 40.0 L-2.5 42.25 Q-3.45 41.85 -3.7 41.2 L-3.75 40.1 Q-3.75 38.6 -2.25 37.45 -0.7 36.3 1.5 36.3 L4.65 36.7" fill="#669900" fill-opacity="0.3019608" fill-rule="evenodd" stroke="none"/>
    <path d="M4.25 98.55 L4.4 98.9 4.55 99.85 1.0 109.25 -0.85 108.75 -5.35 107.8 -2.0 107.5 Q-2.0 107.4 -1.7 107.25 L-1.0 107.0 -4.1 105.55 Q-4.25 106.1 -4.25 104.85 -4.25 104.1 -3.45 103.9 -2.4 103.6 -2.0 103.05 -2.4 101.9 -4.55 100.95 -6.5 100.05 -6.5 99.1 -6.5 97.7 -4.5 97.95 L2.0 98.3 4.25 98.55" fill="#669900" fill-opacity="0.3019608" fill-rule="evenodd" stroke="none"/>
    <path d="M3.85 102.75 L4.0 104.1 Q4.0 105.95 0.5 108.5 -0.75 108.2 -0.95 107.25 -0.9 106.1 -1.0 105.55 -5.7 105.6 -7.0 104.5 L-7.35 103.35 Q-6.9 100.75 -5.8 98.25 -3.65 93.35 -0.35 93.3 L-0.2 93.6 -0.1 94.5 Q-0.1 95.4 -1.8 98.55 L-3.6 101.75 -3.6 102.5 -0.15 101.95 1.75 101.55 Q3.35 101.55 3.85 102.75" fill="#669900" fill-opacity="0.3019608" fill-rule="evenodd" stroke="none"/>
    <path d="M0.3 71.0 Q0.5 71.3 0.5 72.5 L0.75 72.5 1.0 71.15 Q1.1 70.3 0.3 71.0 M3.8 71.5 Q3.8 72.4 2.75 74.5 1.65 76.75 1.0 76.75 0.4 76.75 0.0 76.4 -0.35 76.0 -1.0 76.0 -3.2 76.0 -3.35 73.0 -3.45 70.75 -2.6 68.3 L-2.6 68.25 Q-8.6 67.9 -8.6 65.25 -8.6 64.3 -8.2 63.95 -6.9 62.95 -2.0 63.25 L-2.4 62.6 -2.6 61.35 Q-2.6 57.75 1.25 59.45 5.05 61.15 5.05 63.5 5.05 64.25 4.55 64.65 L1.55 67.0 3.45 69.85 Q3.8 70.35 3.8 71.5" fill="#669900" fill-opacity="0.3019608" fill-rule="evenodd" stroke="none"/>
    <path d="M1.65 56.85 Q2.35 56.95 2.55 57.25 L2.75 57.55 Q3.25 58.25 2.0 58.25 0.75 58.25 0.25 57.75 L0.65 57.1 1.0 56.75 1.65 56.85" fill="#669900" fill-opacity="0.3019608" fill-rule="evenodd" stroke="none"/>
    <path d="M8.15 -107.75 L7.4 -107.05 7.55 -104.35 Q7.55 -101.95 3.8 -101.95 L2.1 -102.15 1.8 -102.35 0.6 -102.3 Q-0.85 -102.3 -1.7 -103.1 -1.9 -102.55 -3.15 -101.9 -4.8 -101.05 -6.45 -101.05 L-6.6 -101.05 -6.85 -100.15 -7.1 -99.2 -6.95 -97.85 Q-6.6 -97.05 -5.45 -97.05 L-3.6 -97.05 Q-2.5 -97.7 -1.85 -97.45 L-1.7 -97.4 -1.2 -97.7 Q-0.1 -97.7 0.15 -97.3 L-0.65 -97.15 0.9 -96.9 0.7 -98.05 1.15 -98.05 Q1.25 -97.95 1.3 -98.0 L1.3 -97.6 1.15 -96.9 2.55 -96.8 2.5 -98.15 Q2.55 -99.0 3.3 -99.55 L3.9 -99.3 Q3.4 -99.05 3.15 -98.1 L2.9 -96.8 3.05 -96.8 Q7.55 -96.8 7.55 -100.05 L7.3 -100.5 Q7.05 -100.6 7.05 -100.9 7.05 -101.95 7.65 -102.15 L8.45 -100.15 8.55 -98.55 Q8.55 -97.6 6.55 -96.55 4.45 -95.45 1.9 -95.4 L2.4 -95.05 2.55 -93.8 Q2.55 -92.7 2.05 -91.55 L1.95 -91.3 Q2.9 -90.6 5.95 -90.75 L6.25 -93.25 6.55 -96.05 6.55 -96.3 Q7.9 -95.9 7.55 -93.45 L7.45 -91.5 Q7.3 -90.75 6.8 -90.3 L6.6 -89.95 5.15 -89.8 Q2.65 -89.8 1.75 -90.8 L1.7 -90.9 Q1.1 -89.95 0.05 -89.95 L-1.45 -90.05 -2.1 -90.3 0.15 -92.35 Q1.45 -93.4 1.45 -93.75 L0.85 -94.7 0.25 -95.45 -1.4 -95.75 -3.3 -96.15 -3.95 -96.15 Q-5.9 -96.15 -6.85 -96.7 -7.45 -95.2 -7.45 -93.9 -7.45 -92.7 -6.85 -91.75 -6.0 -90.35 -4.1 -90.3 L-3.35 -90.05 -3.95 -89.85 -4.95 -89.7 Q-6.7 -89.7 -7.55 -91.8 -8.05 -93.05 -8.05 -94.05 L-7.95 -95.7 Q-7.7 -96.7 -6.95 -96.8 L-7.7 -97.55 -7.85 -99.2 -7.8 -100.5 -7.3 -101.25 -7.65 -101.6 -7.95 -102.25 -7.85 -102.75 Q-8.55 -103.5 -8.55 -105.55 -8.55 -107.4 -8.2 -108.3 L-7.6 -108.05 Q-8.0 -107.15 -8.0 -105.6 L-7.7 -103.25 -7.35 -104.3 -7.2 -104.4 -6.95 -103.2 Q-6.6 -102.65 -5.6 -102.65 -3.05 -102.65 -2.4 -104.35 L-2.6 -104.8 Q-2.6 -107.95 -1.45 -108.3 L-0.85 -108.05 -1.35 -107.35 -1.3 -106.55 -1.55 -104.35 -1.45 -104.2 Q-0.65 -103.05 1.25 -102.95 2.95 -103.75 5.85 -104.55 7.65 -105.35 7.35 -107.0 L6.4 -106.55 7.2 -108.85 Q7.2 -109.7 4.45 -109.85 L3.4 -109.2 Q2.2 -108.55 1.4 -108.55 L-0.65 -108.6 Q-1.0 -108.4 -1.35 -108.3 L-1.0 -108.6 -4.3 -108.65 Q-4.45 -108.4 -4.45 -109.05 L-3.2 -109.15 -0.2 -109.5 0.2 -110.0 Q1.3 -111.1 2.05 -110.8 L0.85 -109.75 2.45 -110.2 3.15 -110.5 Q2.55 -110.95 2.15 -112.2 1.7 -113.55 1.7 -114.3 L1.45 -114.9 1.2 -115.35 0.65 -115.8 1.25 -117.85 Q-0.2 -115.8 -1.1 -115.8 L-5.2 -116.0 -6.1 -115.8 Q-6.45 -115.8 -6.7 -116.05 -8.85 -115.25 -8.85 -111.9 -8.85 -111.1 -8.45 -110.8 L-4.95 -108.8 -5.95 -108.5 -7.35 -108.3 Q-9.05 -108.3 -9.55 -109.05 L-9.7 -109.9 Q-9.7 -112.6 -9.3 -113.85 -8.7 -115.9 -7.0 -116.4 L-7.45 -117.55 -7.6 -119.4 Q-7.6 -122.1 -7.25 -123.4 -6.35 -126.7 -3.7 -125.05 -4.4 -124.05 -4.95 -124.65 -5.5 -125.3 -6.35 -124.3 L-6.95 -123.55 -6.95 -121.8 -6.8 -119.05 Q-6.55 -117.7 -5.75 -117.3 L-5.2 -117.15 -4.95 -117.15 -4.75 -116.8 0.05 -116.8 -0.05 -118.15 0.1 -119.55 Q0.4 -120.15 1.4 -120.1 L1.4 -123.5 1.75 -122.6 2.2 -120.0 2.3 -119.55 2.25 -119.45 2.3 -116.75 2.25 -116.2 Q3.2 -114.2 4.1 -112.95 L4.85 -111.9 5.1 -111.95 Q6.65 -112.2 6.8 -113.15 L6.8 -117.65 6.75 -120.85 Q6.75 -122.95 7.3 -123.55 7.8 -118.3 7.8 -113.2 L7.7 -112.25 6.05 -111.05 4.85 -111.05 4.7 -110.8 7.95 -110.1 Q8.3 -109.9 8.3 -109.0 L8.15 -107.75 M3.5 -124.35 L2.05 -123.2 1.85 -123.3 1.8 -123.8 Q1.8 -126.0 3.95 -125.95 6.0 -125.85 7.05 -124.05 L6.9 -123.8 5.95 -124.7 Q5.55 -125.15 4.65 -125.15 4.5 -125.15 3.5 -124.35 M-1.1 -120.55 Q-1.1 -119.25 -1.25 -118.75 -1.5 -117.95 -2.35 -117.3 L-2.55 -118.15 -2.05 -119.4 -1.1 -120.55 M-3.1 -119.8 L-3.35 -119.7 -3.45 -120.65 -3.2 -120.7 Q-3.0 -120.5 -3.1 -119.8 M0.2 -111.65 L-0.35 -111.1 -1.45 -110.15 -2.35 -110.3 -2.0 -110.4 Q-1.7 -110.5 -1.7 -110.9 L0.05 -112.4 0.2 -111.65 M4.05 -104.3 L3.9 -104.3 3.9 -105.4 4.05 -105.4 4.05 -104.3 M-2.8 -124.75 L-4.45 -125.65 Q-0.35 -126.7 1.3 -123.7 -1.5 -124.15 -2.8 -124.75 M-1.7 -93.15 Q-1.55 -92.85 -1.55 -92.4 -1.6 -91.2 -2.85 -91.05 L-2.2 -91.95 Q-1.65 -92.65 -1.85 -93.15 L-1.7 -93.15 M-2.4 -92.95 L-2.35 -92.5 -2.65 -92.0 -3.45 -91.05 -3.6 -91.05 Q-3.95 -91.7 -3.3 -92.2 L-2.45 -92.9 -2.4 -92.95 M-6.55 -88.9 Q-6.55 -88.4 -6.9 -87.5 -7.3 -86.6 -7.3 -85.9 -7.3 -84.85 -6.55 -83.9 -5.9 -83.05 -4.95 -82.85 -4.95 -83.2 -5.15 -83.15 L-5.45 -83.15 -3.85 -82.95 0.95 -83.3 1.05 -83.4 1.05 -83.35 1.6 -83.6 Q2.0 -83.9 4.4 -83.6 L4.3 -83.7 Q6.05 -85.9 6.45 -87.0 6.8 -88.0 6.55 -89.55 8.45 -89.75 8.5 -87.55 8.55 -86.4 8.2 -85.2 8.2 -84.7 7.7 -84.1 7.15 -83.4 6.2 -83.2 L6.2 -83.05 6.2 -82.95 7.65 -83.05 8.05 -78.05 Q8.05 -77.65 6.95 -77.15 L7.3 -76.15 Q7.65 -74.85 7.65 -72.15 L7.5 -70.3 7.05 -69.15 Q8.75 -68.65 9.35 -66.6 9.75 -65.35 9.75 -62.65 L9.6 -61.8 Q9.1 -61.05 7.4 -61.05 L6.0 -61.25 5.0 -61.55 Q8.05 -63.15 8.5 -63.55 8.9 -63.85 8.9 -64.65 8.9 -68.0 6.75 -68.8 L6.15 -68.55 5.25 -68.75 1.15 -68.55 Q0.25 -68.55 -1.2 -70.6 L-0.6 -68.55 -1.15 -68.1 -1.4 -67.65 -1.65 -67.05 Q-1.65 -66.3 -2.1 -64.95 -2.5 -63.7 -3.1 -63.25 L-2.4 -62.95 -0.8 -62.5 -2.0 -63.55 Q-1.25 -63.85 -0.15 -62.75 L0.25 -62.25 3.25 -61.9 4.5 -61.8 Q4.5 -61.15 4.35 -61.4 L1.05 -61.35 1.4 -61.05 0.7 -61.35 -1.35 -61.3 Q-2.15 -61.3 -3.35 -61.95 L-4.4 -62.6 Q-7.15 -62.45 -7.15 -61.6 L-6.35 -59.3 -7.3 -59.75 Q-7.6 -58.1 -5.8 -57.3 -2.9 -56.5 -1.2 -55.7 0.7 -55.8 1.5 -56.95 L1.6 -57.1 1.35 -59.3 1.4 -59.8 1.4 -60.1 0.9 -60.8 1.5 -61.05 Q2.15 -60.85 2.45 -59.8 L2.65 -57.55 2.45 -57.1 Q3.1 -55.4 5.65 -55.4 6.65 -55.4 7.0 -55.95 L7.25 -57.15 7.4 -57.05 7.75 -56.0 8.05 -58.35 7.95 -59.8 7.65 -60.8 8.25 -61.05 8.55 -59.8 8.6 -58.3 Q8.6 -56.25 7.9 -55.5 L8.0 -55.0 7.7 -54.35 7.35 -54.0 7.85 -53.25 7.9 -51.95 7.75 -50.3 7.0 -49.55 Q7.75 -49.45 8.0 -48.45 L8.1 -46.8 Q8.1 -45.8 7.6 -44.55 6.75 -42.45 5.0 -42.45 L4.0 -42.6 3.4 -42.8 4.15 -43.05 Q6.05 -43.1 6.9 -44.5 7.5 -45.45 7.5 -46.65 7.5 -47.95 6.9 -49.45 5.95 -48.9 4.0 -48.9 L3.35 -48.9 1.45 -48.5 -0.2 -48.2 -0.8 -47.45 -1.4 -46.5 Q-1.4 -46.15 -0.1 -45.1 L2.15 -43.05 Q1.5 -42.9 1.5 -42.8 L0.0 -42.7 Q-1.05 -42.7 -1.65 -43.65 L-1.7 -43.55 Q-2.6 -42.55 -5.1 -42.55 L-6.55 -42.7 -6.75 -43.05 Q-7.25 -43.5 -7.4 -44.25 L-7.5 -46.2 Q-7.85 -48.65 -6.5 -49.05 L-6.5 -48.8 -6.2 -46.0 -5.9 -43.5 Q-2.85 -43.35 -1.9 -44.05 L-2.0 -44.3 Q-2.5 -45.45 -2.5 -46.55 L-2.35 -47.8 -1.85 -48.15 Q-4.4 -48.2 -6.5 -49.3 -8.5 -50.35 -8.5 -51.3 L-8.4 -52.9 -7.6 -54.9 Q-7.0 -54.7 -7.0 -53.65 L-7.25 -53.25 -7.5 -52.8 Q-7.5 -49.55 -3.0 -49.55 L-2.85 -49.55 -3.1 -50.85 Q-3.35 -51.8 -3.85 -52.05 L-3.25 -52.3 Q-2.5 -51.75 -2.45 -50.9 L-2.5 -49.55 -1.1 -49.65 -1.25 -50.35 -1.25 -50.75 -1.1 -50.8 -0.65 -50.8 -0.85 -49.65 0.7 -49.9 -0.1 -50.05 Q0.15 -50.45 1.25 -50.45 L1.75 -50.15 1.9 -50.2 Q2.55 -50.45 3.65 -49.8 L5.5 -49.8 Q6.65 -49.8 7.0 -50.6 L7.15 -51.95 6.9 -52.9 6.65 -53.8 6.5 -53.8 Q4.85 -53.8 3.2 -54.65 1.95 -55.3 1.75 -55.85 0.9 -55.05 -0.55 -55.05 L-1.75 -55.1 -2.05 -54.9 -3.75 -54.7 Q-7.5 -54.7 -7.5 -57.1 L-7.35 -59.8 -8.1 -60.5 -8.25 -61.75 Q-8.25 -62.65 -7.9 -62.85 L-4.65 -63.55 -4.8 -63.8 -6.0 -63.8 -7.65 -65.0 -7.75 -65.95 Q-7.75 -71.05 -7.25 -76.3 -6.7 -75.7 -6.7 -73.6 L-6.75 -70.4 -6.75 -65.9 Q-6.6 -64.95 -5.05 -64.7 L-4.8 -64.65 -4.05 -65.7 Q-3.15 -66.95 -2.2 -68.95 L-2.25 -69.5 -2.2 -72.2 -2.25 -72.3 -2.15 -72.75 -1.7 -75.35 -1.35 -76.25 -1.35 -72.85 Q-0.35 -72.9 -0.05 -72.3 L0.1 -70.9 0.0 -69.55 4.8 -69.55 5.0 -69.9 5.25 -69.9 5.8 -70.05 Q6.6 -70.45 6.85 -71.8 L7.0 -74.55 7.0 -76.3 6.45 -76.95 3.9 -76.55 2.55 -76.7 1.55 -76.95 1.6 -77.05 -1.25 -76.45 -0.55 -77.4 0.3 -78.3 0.45 -78.2 0.5 -78.2 0.05 -78.6 -0.7 -79.65 Q-0.7 -81.2 -0.1 -82.2 L-0.85 -82.15 -4.25 -82.25 Q-4.45 -81.55 -5.2 -81.55 L-6.1 -81.7 -7.35 -80.35 -8.2 -79.2 Q-8.2 -78.7 -6.95 -78.4 L-5.8 -78.1 Q-5.0 -78.65 -3.9 -78.7 -1.75 -78.75 -1.75 -76.55 L-1.8 -76.05 -2.0 -75.95 -2.8 -76.6 Q-3.75 -76.05 -5.2 -76.05 -7.35 -76.05 -8.55 -77.2 -9.35 -77.95 -9.35 -78.5 L-9.05 -80.85 Q-8.5 -82.05 -6.8 -82.15 -7.4 -82.7 -7.75 -83.7 L-8.2 -85.95 -7.75 -88.15 Q-7.25 -89.75 -6.85 -89.8 -6.55 -89.5 -6.55 -88.9 M-4.2 -77.65 L-4.6 -77.9 -4.9 -77.85 -4.2 -77.65 M3.05 -84.55 L2.9 -84.55 Q2.85 -85.2 3.55 -85.65 L3.05 -84.55 M5.7 -82.7 L2.05 -82.55 0.65 -82.3 0.55 -81.55 0.3 -81.3 Q0.05 -81.35 0.05 -81.05 0.05 -80.05 0.4 -79.7 L2.1 -78.65 2.7 -78.65 2.7 -78.9 3.35 -79.3 4.3 -79.55 4.7 -79.05 4.05 -78.5 4.5 -78.4 2.95 -77.55 3.9 -77.6 3.75 -77.8 Q5.15 -78.65 6.05 -78.15 6.85 -78.55 7.15 -79.15 L7.2 -81.25 7.1 -82.1 Q6.9 -82.5 6.05 -82.8 L5.7 -82.7 M1.15 -85.0 L0.95 -84.8 0.65 -84.8 Q1.55 -85.7 1.3 -85.05 L1.15 -85.0 M-1.7 -78.4 L-1.45 -78.45 Q-1.25 -78.25 -1.35 -77.55 L-1.6 -77.45 -1.7 -78.4 M-4.0 -58.15 L-3.85 -58.15 -3.85 -57.05 -4.0 -57.05 -4.0 -58.15 M-0.15 -64.4 L0.0 -65.15 1.75 -63.65 Q1.75 -63.25 2.05 -63.15 L2.4 -63.05 1.5 -62.9 0.4 -63.85 -0.15 -64.4 M2.1 -72.15 L2.6 -70.9 Q2.6 -70.25 2.4 -70.05 1.55 -70.7 1.3 -71.5 1.15 -72.0 1.15 -73.3 L2.1 -72.15 M3.25 -73.45 L3.5 -73.4 3.4 -72.45 3.15 -72.55 Q3.05 -73.25 3.25 -73.45 M8.6 -29.95 L7.05 -29.05 6.9 -28.8 6.7 -28.95 5.25 -28.8 3.25 -29.15 2.05 -28.2 1.85 -28.3 1.8 -28.8 Q1.8 -31.0 3.95 -30.95 L5.2 -30.7 7.0 -31.15 Q8.25 -31.45 8.25 -31.95 L7.4 -33.1 6.15 -34.45 5.25 -34.3 Q4.5 -34.3 4.3 -35.0 L0.9 -34.9 0.15 -34.95 Q0.75 -33.95 0.75 -32.4 0.75 -32.05 0.0 -31.35 -0.5 -30.9 -0.95 -30.7 L-0.65 -30.55 -0.25 -31.05 0.75 -29.95 0.5 -29.75 1.3 -28.7 -2.2 -29.5 -2.5 -29.45 -3.85 -29.3 -6.05 -29.6 -6.35 -29.3 -6.95 -28.55 -6.95 -26.8 -6.8 -24.05 Q-6.55 -22.7 -5.75 -22.3 L-5.2 -22.15 -4.95 -22.15 -4.75 -21.8 0.05 -21.8 -0.05 -23.15 0.1 -24.55 Q0.4 -25.15 1.4 -25.1 L1.4 -28.5 1.75 -27.6 2.2 -25.0 2.3 -24.55 2.25 -24.45 2.3 -21.75 2.25 -21.2 Q3.2 -19.2 4.1 -17.95 L4.85 -16.9 5.1 -16.95 Q6.65 -17.2 6.8 -18.15 L6.8 -22.65 6.75 -25.85 Q6.75 -27.95 7.3 -28.55 7.8 -23.3 7.8 -18.2 L7.7 -17.25 6.05 -16.05 4.85 -16.05 4.7 -15.8 7.95 -15.1 Q8.3 -14.9 8.3 -14.0 L8.15 -12.75 7.4 -12.05 7.55 -9.35 Q7.55 -6.95 3.8 -6.95 L2.1 -7.15 1.8 -7.35 0.6 -7.3 Q-0.85 -7.3 -1.7 -8.1 -1.9 -7.55 -3.15 -6.9 -4.8 -6.05 -6.45 -6.05 L-6.6 -6.05 -6.85 -5.15 -7.1 -4.2 -6.95 -2.85 Q-6.6 -2.05 -5.45 -2.05 L-3.6 -2.05 Q-2.5 -2.7 -1.85 -2.45 L-1.7 -2.4 -1.2 -2.7 Q-0.1 -2.7 0.15 -2.3 L-0.65 -2.15 0.9 -1.9 0.7 -3.05 1.15 -3.05 Q1.25 -2.95 1.3 -3.0 L1.3 -2.6 1.15 -1.9 2.55 -1.8 2.5 -3.15 Q2.55 -4.0 3.3 -4.55 L3.9 -4.3 Q3.4 -4.05 3.15 -3.1 L2.9 -1.8 3.05 -1.8 Q7.55 -1.8 7.55 -5.05 L7.3 -5.5 Q7.05 -5.6 7.05 -5.9 7.05 -6.95 7.65 -7.15 L8.45 -5.15 8.55 -3.55 Q8.55 -2.6 6.55 -1.55 4.45 -0.45 1.9 -0.4 L2.4 -0.05 2.55 1.2 Q2.55 2.3 2.05 3.45 L1.95 3.7 Q2.9 4.4 5.95 4.25 L6.25 1.75 6.55 -1.05 6.55 -1.3 Q7.9 -0.9 7.55 1.55 L7.45 3.5 Q7.3 4.25 6.8 4.7 L6.6 5.05 5.15 5.2 Q2.65 5.2 1.75 4.2 L1.7 4.1 Q1.1 5.05 0.05 5.05 L-1.45 4.95 -2.1 4.7 0.15 2.65 Q1.45 1.6 1.45 1.25 L0.85 0.3 0.25 -0.45 -1.4 -0.75 -3.3 -1.15 -3.95 -1.15 Q-5.9 -1.15 -6.85 -1.7 -7.45 -0.2 -7.45 1.1 -7.45 2.3 -6.85 3.25 -6.0 4.65 -4.1 4.7 L-3.35 4.95 -3.95 5.15 -4.95 5.3 Q-6.7 5.3 -7.55 3.2 -8.05 1.95 -8.05 0.95 L-7.95 -0.7 Q-7.7 -1.7 -6.95 -1.8 L-7.7 -2.55 -7.85 -4.2 -7.8 -5.5 -7.3 -6.25 -7.65 -6.6 -7.95 -7.25 -7.85 -7.75 Q-8.55 -8.5 -8.55 -10.55 -8.55 -12.4 -8.2 -13.3 L-7.6 -13.05 Q-8.0 -12.15 -8.0 -10.6 L-7.7 -8.25 -7.35 -9.3 -7.2 -9.4 -6.95 -8.2 Q-6.6 -7.65 -5.6 -7.65 -3.05 -7.65 -2.4 -9.35 L-2.6 -9.8 Q-2.6 -12.95 -1.45 -13.3 L-0.85 -13.05 -1.35 -12.35 -1.3 -11.55 -1.55 -9.35 -1.45 -9.2 Q-0.65 -8.05 1.25 -7.95 2.95 -8.75 5.85 -9.55 7.65 -10.35 7.35 -12.0 L6.4 -11.55 7.2 -13.85 Q7.2 -14.7 4.45 -14.85 L3.4 -14.2 Q2.2 -13.55 1.4 -13.55 L-0.65 -13.6 Q-1.0 -13.4 -1.35 -13.3 L-1.0 -13.6 -4.3 -13.65 Q-4.45 -13.4 -4.45 -14.05 L-3.2 -14.15 -0.2 -14.5 0.2 -15.0 Q1.3 -16.1 2.05 -15.8 L0.85 -14.75 2.45 -15.2 3.15 -15.5 Q2.55 -15.95 2.15 -17.2 1.7 -18.55 1.7 -19.3 L1.45 -19.9 1.2 -20.35 0.65 -20.8 1.25 -22.85 Q-0.2 -20.8 -1.1 -20.8 L-5.2 -21.0 -6.1 -20.8 Q-6.45 -20.8 -6.7 -21.05 -8.85 -20.25 -8.85 -16.9 -8.85 -16.1 -8.45 -15.8 L-4.95 -13.8 -5.95 -13.5 -7.35 -13.3 Q-9.05 -13.3 -9.55 -14.05 L-9.7 -14.9 Q-9.7 -17.6 -9.3 -18.85 -8.7 -20.9 -7.0 -21.4 L-7.45 -22.55 -7.6 -24.4 Q-7.6 -27.1 -7.25 -28.4 L-6.65 -29.8 -6.85 -29.9 Q-8.0 -30.4 -8.0 -30.8 L-7.6 -35.8 -6.15 -35.7 -6.15 -35.8 -6.15 -35.95 Q-7.1 -36.15 -7.65 -36.85 L-8.15 -37.95 Q-8.5 -39.15 -8.45 -40.3 -8.4 -42.5 -6.5 -42.3 -6.75 -40.75 -6.4 -39.75 -6.0 -38.65 -4.25 -36.45 L-4.35 -36.35 Q-1.95 -36.65 -1.55 -36.35 L-1.0 -36.1 -1.0 -36.15 -0.9 -36.05 3.9 -35.7 5.5 -35.9 5.2 -35.9 5.0 -35.6 Q5.95 -35.8 6.6 -36.65 7.35 -37.6 7.35 -38.65 7.35 -39.35 6.95 -40.25 6.6 -41.15 6.6 -41.65 6.6 -42.25 6.9 -42.55 7.3 -42.5 7.8 -40.9 L8.25 -38.7 7.8 -36.45 6.85 -34.9 Q8.55 -34.8 9.1 -33.6 L9.4 -31.25 Q9.4 -30.7 8.6 -29.95 M1.4 -30.3 Q1.3 -31.0 1.5 -31.2 L1.75 -31.15 1.65 -30.2 1.4 -30.3 M-1.25 -37.8 Q-1.5 -38.45 -0.6 -37.55 L-0.9 -37.55 -1.1 -37.75 -1.25 -37.8 M-2.65 -31.65 Q-2.65 -31.0 -2.75 -31.3 L-3.75 -31.15 Q-4.0 -31.15 -4.65 -31.8 L-4.25 -32.3 -3.3 -32.05 Q-2.65 -31.75 -2.65 -31.65 M-3.0 -37.3 L-3.5 -38.4 Q-2.8 -37.95 -2.85 -37.3 L-3.0 -37.3 M-5.65 -35.45 L-6.0 -35.55 Q-6.85 -35.25 -7.05 -34.85 L-7.15 -34.0 -7.1 -31.9 Q-6.6 -30.95 -5.0 -30.55 L-4.65 -30.5 -3.9 -30.4 -4.45 -30.65 -2.6 -30.9 -2.75 -31.05 Q-0.75 -32.05 -0.35 -32.45 0.0 -32.8 0.0 -33.8 0.0 -34.1 -0.25 -34.05 L-0.5 -34.3 -0.6 -35.05 -2.0 -35.3 -5.65 -35.45 M1.6 -45.15 L1.75 -45.9 1.9 -45.9 Q1.7 -45.4 2.25 -44.7 L2.9 -43.8 Q1.65 -43.95 1.6 -45.15 M2.45 -45.7 L2.5 -45.65 3.35 -44.95 Q4.0 -44.45 3.65 -43.8 L3.5 -43.8 2.7 -44.75 2.4 -45.25 2.45 -45.7 M-1.1 -25.55 Q-1.1 -24.25 -1.25 -23.75 -1.5 -22.95 -2.35 -22.3 L-2.55 -23.15 -2.05 -24.4 -1.1 -25.55 M-0.35 -16.1 L-1.45 -15.15 -2.35 -15.3 -2.0 -15.4 Q-1.7 -15.5 -1.7 -15.9 L0.05 -17.4 0.2 -16.65 -0.35 -16.1 M-3.45 -25.65 L-3.2 -25.7 Q-3.0 -25.5 -3.1 -24.8 L-3.35 -24.7 -3.45 -25.65 M4.05 -10.4 L4.05 -9.3 3.9 -9.3 3.9 -10.4 4.05 -10.4 M-1.7 1.85 Q-1.55 2.15 -1.55 2.6 -1.6 3.8 -2.85 3.95 L-2.2 3.05 Q-1.65 2.35 -1.85 1.85 L-1.7 1.85 M1.3 9.95 L1.15 10.0 0.95 10.2 0.65 10.2 Q1.55 9.3 1.3 9.95 M6.55 5.45 Q8.45 5.25 8.5 7.45 8.55 8.6 8.2 9.8 L7.7 10.9 Q7.15 11.6 6.2 11.8 L6.2 11.95 6.2 12.05 7.65 11.95 8.05 16.95 Q8.05 17.35 6.95 17.85 L7.3 18.85 Q7.65 20.15 7.65 22.85 L7.5 24.7 7.05 25.85 Q8.75 26.35 9.35 28.4 9.75 29.65 9.75 32.35 L9.6 33.2 Q9.1 33.95 7.4 33.95 L6.0 33.75 5.0 33.45 Q8.05 31.85 8.5 31.45 8.9 31.15 8.9 30.35 8.9 27.0 6.75 26.2 L6.15 26.45 5.25 26.25 1.15 26.45 Q0.25 26.45 -1.2 24.4 L-0.6 26.45 -1.15 26.9 -1.4 27.35 -1.65 27.95 Q-1.65 28.7 -2.1 30.05 -2.5 31.3 -3.1 31.75 L-2.4 32.05 -0.8 32.5 -2.0 31.45 Q-1.25 31.15 -0.15 32.25 L0.25 32.75 3.25 33.1 4.5 33.2 Q4.5 33.85 4.35 33.6 L1.05 33.65 1.4 33.95 0.7 33.65 -1.35 33.7 Q-2.15 33.7 -3.35 33.05 L-4.4 32.4 Q-7.15 32.55 -7.15 33.4 L-6.35 35.7 -7.3 35.25 Q-7.6 36.9 -5.8 37.7 -2.9 38.5 -1.2 39.3 0.7 39.2 1.5 38.05 L1.6 37.9 1.35 35.7 1.4 34.9 0.9 34.2 1.5 33.95 Q2.65 34.3 2.65 37.45 L2.45 37.9 Q3.1 39.6 5.65 39.6 6.65 39.6 7.0 39.05 L7.25 37.85 7.4 37.95 7.75 39.0 8.05 36.65 Q8.05 35.1 7.65 34.2 7.9 33.95 8.25 33.95 8.6 34.85 8.6 36.7 8.6 38.75 7.9 39.5 L8.0 40.0 7.7 40.65 7.35 41.0 7.85 41.75 7.9 43.05 7.75 44.7 7.0 45.45 Q7.75 45.55 8.0 46.55 L8.1 48.2 Q8.1 49.2 7.6 50.45 6.75 52.55 5.0 52.55 L4.0 52.4 3.4 52.2 4.15 51.95 Q6.05 51.9 6.9 50.5 7.5 49.55 7.5 48.35 7.5 47.05 6.9 45.55 5.95 46.1 4.0 46.1 L3.35 46.1 1.45 46.5 -0.2 46.8 -0.8 47.55 -1.4 48.5 -0.1 49.9 2.15 51.95 Q1.5 52.1 1.5 52.2 L0.0 52.3 Q-1.05 52.3 -1.65 51.35 L-1.7 51.45 Q-2.6 52.45 -5.1 52.45 L-6.55 52.3 -6.75 51.95 Q-7.25 51.5 -7.4 50.75 L-7.5 48.8 Q-7.85 46.35 -6.5 45.95 L-6.5 46.2 -6.2 49.0 -5.9 51.5 Q-2.85 51.65 -1.9 50.95 L-2.0 50.7 Q-2.5 49.55 -2.5 48.45 L-2.35 47.2 -1.85 46.85 Q-4.4 46.8 -6.5 45.7 -8.5 44.65 -8.5 43.7 L-8.4 42.1 -7.6 40.1 Q-7.0 40.3 -7.0 41.35 L-7.25 41.75 -7.5 42.2 Q-7.5 45.45 -3.0 45.45 L-2.85 45.45 -3.1 44.15 Q-3.35 43.2 -3.85 42.95 L-3.25 42.7 Q-2.5 43.25 -2.45 44.1 L-2.5 45.45 -1.1 45.35 -1.25 44.65 -1.25 44.25 -1.1 44.2 -0.65 44.2 -0.85 45.35 0.7 45.1 -0.1 44.95 Q0.15 44.55 1.25 44.55 L1.75 44.85 1.9 44.8 Q2.55 44.55 3.65 45.2 L5.5 45.2 Q6.65 45.2 7.0 44.4 L7.15 43.05 6.9 42.1 6.65 41.2 6.5 41.2 Q4.85 41.2 3.2 40.35 1.95 39.7 1.75 39.15 0.9 39.95 -0.55 39.95 L-1.75 39.9 -2.05 40.1 -3.75 40.3 Q-7.5 40.3 -7.5 37.9 L-7.35 35.2 -8.1 34.5 -8.25 33.25 Q-8.25 32.35 -7.9 32.15 L-4.65 31.45 -4.8 31.2 -6.0 31.2 -7.65 30.0 -7.75 29.05 Q-7.75 23.95 -7.25 18.7 -6.7 19.3 -6.7 21.4 L-6.75 24.6 -6.75 29.1 Q-6.6 30.05 -5.05 30.3 L-4.8 30.35 -4.05 29.3 Q-3.15 28.05 -2.2 26.05 L-2.25 25.5 -2.2 22.8 -2.25 22.7 -2.15 22.25 -1.7 19.65 -1.35 18.75 -1.35 22.15 Q-0.35 22.1 -0.05 22.7 L0.1 24.1 0.0 25.45 4.8 25.45 5.0 25.1 5.25 25.1 5.8 24.95 Q6.6 24.55 6.85 23.2 L7.0 20.45 7.0 18.7 6.45 18.05 3.9 18.45 2.55 18.3 1.55 18.05 1.6 17.95 -1.25 18.55 -0.55 17.6 0.3 16.7 0.45 16.8 0.5 16.8 0.05 16.4 -0.7 15.35 Q-0.7 13.8 -0.1 12.8 L-0.85 12.85 -4.25 12.75 Q-4.45 13.45 -5.2 13.45 L-6.1 13.3 -7.35 14.65 -8.2 15.8 Q-8.2 16.3 -6.95 16.6 L-5.8 16.9 Q-5.0 16.35 -3.9 16.3 -1.75 16.25 -1.75 18.45 L-1.8 18.95 -2.0 19.05 -2.8 18.4 Q-3.75 18.95 -5.2 18.95 -7.35 18.95 -8.55 17.8 -9.35 17.05 -9.35 16.5 -9.35 14.8 -9.05 14.15 -8.5 12.95 -6.8 12.85 L-7.75 11.3 -8.2 9.05 -7.75 6.85 Q-7.25 5.25 -6.85 5.2 -6.55 5.5 -6.55 6.1 -6.55 6.6 -6.9 7.5 -7.3 8.4 -7.3 9.1 -7.3 10.15 -6.55 11.1 -5.9 11.95 -4.95 12.15 -4.95 11.8 -5.15 11.85 L-5.45 11.85 -3.85 12.05 0.95 11.7 1.05 11.6 1.05 11.65 1.6 11.4 Q2.0 11.1 4.4 11.4 L4.3 11.3 Q6.05 9.1 6.45 8.0 6.8 7.0 6.55 5.45 M3.05 10.45 L2.9 10.45 Q2.85 9.8 3.55 9.35 L3.05 10.45 M-2.4 2.05 L-2.35 2.5 -2.65 3.0 -3.45 3.95 -3.6 3.95 Q-3.95 3.3 -3.3 2.8 L-2.45 2.1 -2.4 2.05 M-4.2 17.35 L-4.6 17.1 -4.9 17.15 -4.2 17.35 M6.05 12.2 L5.7 12.3 2.05 12.45 0.65 12.7 0.55 13.45 0.3 13.7 Q0.05 13.65 0.05 13.95 0.05 14.95 0.4 15.3 L2.1 16.35 2.7 16.35 2.7 16.1 3.35 15.7 Q4.0 15.4 4.3 15.45 L4.7 15.95 4.05 16.5 4.5 16.6 2.95 17.45 3.9 17.4 3.75 17.2 Q5.15 16.35 6.05 16.85 6.85 16.45 7.15 15.85 L7.2 13.75 7.1 12.9 Q6.9 12.5 6.05 12.2 M-1.45 16.55 Q-1.25 16.75 -1.35 17.45 L-1.6 17.55 -1.7 16.6 -1.45 16.55 M-4.0 36.85 L-3.85 36.85 -3.85 37.95 -4.0 37.95 -4.0 36.85 M1.75 31.35 Q1.75 31.75 2.05 31.85 L2.4 31.95 1.5 32.1 0.4 31.15 -0.15 30.6 0.0 29.85 1.75 31.35 M3.15 22.45 Q3.05 21.75 3.25 21.55 L3.5 21.6 3.4 22.55 3.15 22.45 M1.15 21.7 Q1.55 21.8 2.1 22.85 L2.6 24.1 2.4 24.95 Q1.55 24.3 1.3 23.5 1.15 23.0 1.15 21.7 M8.6 65.05 Q8.05 65.6 7.3 65.9 L7.3 65.95 Q7.3 71.05 6.8 76.3 6.25 75.7 6.25 73.6 L6.3 70.4 6.3 66.15 5.25 66.2 3.45 65.95 Q2.6 67.1 1.75 68.95 L1.8 69.5 1.75 72.2 1.8 72.3 1.7 72.75 1.25 75.35 0.9 76.25 0.9 72.85 Q-0.1 72.9 -0.4 72.3 L-0.55 70.9 -0.45 69.55 -5.25 69.55 -5.45 69.9 -5.7 69.9 -6.25 70.05 Q-7.05 70.45 -7.3 71.8 L-7.45 74.55 -7.45 76.3 -6.9 76.95 -4.35 76.55 -3.0 76.7 -2.0 76.95 -2.05 77.05 0.8 76.45 0.1 77.4 -0.75 78.3 -0.9 78.2 -0.95 78.2 -0.5 78.6 0.25 79.65 Q0.25 81.2 -0.35 82.2 L0.4 82.15 3.8 82.25 Q4.0 81.55 4.75 81.55 L5.65 81.7 6.9 80.35 7.75 79.2 Q7.75 78.7 6.5 78.4 L5.35 78.1 Q4.55 78.65 3.45 78.7 1.3 78.75 1.3 76.55 L1.35 76.05 1.55 75.95 2.35 76.6 Q3.3 76.05 4.75 76.05 6.9 76.05 8.1 77.2 8.9 77.95 8.9 78.5 8.9 80.2 8.6 80.85 8.05 82.05 6.35 82.15 6.95 82.7 7.3 83.7 L7.75 85.95 7.3 88.15 Q6.8 89.75 6.4 89.8 6.1 89.5 6.1 88.9 6.1 88.4 6.45 87.5 6.85 86.6 6.85 85.9 6.85 84.85 6.1 83.9 5.45 83.05 4.5 82.85 4.5 83.2 4.7 83.15 L5.0 83.15 3.4 82.95 -1.4 83.3 -1.5 83.4 -1.5 83.35 -2.05 83.6 Q-2.45 83.9 -4.85 83.6 L-4.75 83.7 Q-6.5 85.9 -6.9 87.0 -7.25 88.0 -7.0 89.55 -8.9 89.75 -8.95 87.55 -9.0 86.4 -8.65 85.2 -8.65 84.7 -8.15 84.1 -7.6 83.4 -6.65 83.2 L-6.65 83.05 -6.65 82.95 -8.1 83.05 -8.5 78.05 Q-8.5 77.65 -7.4 77.15 L-7.75 76.15 Q-8.1 74.85 -8.1 72.15 L-7.95 70.3 -7.5 69.15 -7.65 69.1 -7.95 69.1 -9.35 68.95 -9.55 67.1 -9.3 65.15 Q-8.9 64.15 -8.0 64.2 L-7.6 59.2 -6.15 59.3 -6.15 59.2 -6.15 59.05 -7.65 58.15 -8.15 57.05 Q-8.5 55.85 -8.45 54.7 -8.4 52.5 -6.5 52.7 -6.75 54.25 -6.4 55.25 -6.0 56.35 -4.25 58.55 L-4.35 58.65 Q-1.95 58.35 -1.55 58.65 L-1.0 58.9 -1.0 58.85 -0.9 58.95 3.9 59.3 5.5 59.1 5.2 59.1 5.0 59.4 6.6 58.35 Q7.35 57.4 7.35 56.35 7.35 55.65 6.95 54.75 6.6 53.85 6.6 53.35 6.6 52.75 6.9 52.45 7.3 52.5 7.8 54.1 L8.25 56.3 7.8 58.55 6.85 60.1 Q8.55 60.2 9.1 61.4 9.4 62.05 9.4 63.75 9.4 64.3 8.6 65.05 M1.65 64.8 L1.4 64.7 Q1.3 64.0 1.5 63.8 L1.75 63.85 1.65 64.8 M-3.05 70.9 Q-3.05 70.25 -2.85 70.05 -2.0 70.7 -1.75 71.5 -1.6 72.0 -1.6 73.3 L-2.55 72.15 -3.05 70.9 M-4.25 62.7 Q-3.95 62.65 -3.3 62.95 -2.65 63.25 -2.65 63.35 -2.65 64.0 -2.75 63.7 L-3.75 63.85 -4.65 63.2 -4.25 62.7 M-3.5 56.6 Q-2.8 57.05 -2.85 57.7 L-3.0 57.7 -3.5 56.6 M-0.6 59.95 L-2.0 59.7 -5.65 59.55 -6.0 59.45 Q-6.85 59.75 -7.05 60.15 L-7.15 61.0 -7.1 63.1 Q-6.25 64.7 -2.15 64.7 -1.75 64.7 -1.65 64.85 L-1.5 65.3 -2.5 65.55 -3.85 65.7 Q-5.55 65.7 -6.85 65.1 L-7.55 64.75 Q-8.95 65.45 -8.95 66.25 L-8.9 67.2 -8.25 68.15 -5.7 68.35 -5.6 68.45 -5.9 68.65 -5.7 68.75 -1.6 68.55 Q-0.7 68.55 0.75 70.6 L0.15 68.55 0.7 68.1 0.95 67.65 1.2 67.05 Q1.2 66.3 1.65 64.95 L2.1 63.95 5.85 63.95 6.05 64.1 7.0 63.85 Q8.25 63.55 8.25 63.05 L7.4 61.9 6.15 60.55 5.25 60.7 Q4.5 60.7 4.3 60.0 L0.9 60.1 0.15 60.05 Q0.75 61.05 0.75 62.6 L0.0 63.65 -0.55 64.1 -0.45 64.15 -0.25 63.95 0.75 65.05 0.25 65.35 -0.35 64.95 -0.45 65.15 -1.35 64.4 -1.75 64.45 Q-2.25 64.45 -2.75 63.95 -0.75 62.95 -0.35 62.55 0.0 62.2 0.0 61.2 0.0 60.9 -0.25 60.95 L-0.5 60.7 -0.6 59.95 M-1.1 57.25 L-1.25 57.2 Q-1.5 56.55 -0.6 57.45 L-0.9 57.45 -1.1 57.25 M1.6 49.85 Q1.6 49.4 1.75 49.1 L1.9 49.1 Q1.7 49.6 2.25 50.3 L2.9 51.2 Q1.65 51.05 1.6 49.85 M3.65 51.2 L3.5 51.2 2.7 50.25 2.4 49.75 2.45 49.3 2.5 49.35 3.35 50.05 Q4.0 50.55 3.65 51.2 M-1.1 66.75 L-1.05 67.15 Q-1.05 67.85 -1.85 67.95 L-1.95 67.45 Q-1.95 66.8 -1.2 66.8 L-1.1 66.75 M4.15 77.9 L4.45 77.85 3.75 77.65 4.15 77.9 M0.9 77.55 L1.15 77.45 1.25 78.4 1.0 78.45 Q0.8 78.25 0.9 77.55 M-0.5 81.05 Q-0.5 80.05 -0.85 79.7 -1.15 79.4 -2.55 78.65 L-3.15 78.65 -3.15 78.9 Q-3.15 79.0 -3.8 79.3 L-4.75 79.55 -5.15 79.05 -4.5 78.5 -4.95 78.4 -3.4 77.55 -4.35 77.6 -4.2 77.8 Q-5.6 78.65 -6.5 78.15 -7.3 78.55 -7.6 79.15 L-7.65 81.25 -7.55 82.1 -6.5 82.8 -6.15 82.7 -2.5 82.55 -1.1 82.3 -1.0 81.55 -0.75 81.3 Q-0.5 81.35 -0.5 81.05 M-1.1 84.8 Q-2.0 85.7 -1.75 85.05 L-1.6 85.0 -1.4 84.8 -1.1 84.8 M-3.7 73.45 L-3.95 73.4 -3.85 72.45 -3.6 72.55 Q-3.5 73.25 -3.7 73.45 M-3.35 84.55 Q-3.3 85.2 -4.0 85.65 L-3.5 84.55 -3.35 84.55 M-2.15 90.9 Q-1.55 89.95 -0.5 89.95 L1.0 90.05 1.65 90.3 -0.6 92.35 Q-1.9 93.4 -1.9 93.75 L-1.3 94.7 -0.7 95.45 0.95 95.75 2.85 96.15 3.5 96.15 Q5.45 96.15 6.4 96.7 7.0 95.2 7.0 93.9 7.0 92.7 6.4 91.75 5.55 90.35 3.65 90.3 L2.9 90.05 3.5 89.85 4.5 89.7 Q6.25 89.7 7.1 91.8 7.6 93.05 7.6 94.05 L7.5 95.7 Q7.25 96.7 6.5 96.8 L7.25 97.55 7.4 99.2 7.35 100.5 6.85 101.25 7.2 101.6 7.5 102.25 7.4 102.75 Q8.1 103.5 8.1 105.55 8.1 107.4 7.75 108.3 L7.15 108.05 Q7.55 107.15 7.55 105.6 L7.25 103.25 6.9 104.3 6.75 104.4 6.5 103.2 Q6.15 102.65 5.15 102.65 2.6 102.65 1.95 104.35 L2.15 104.8 Q2.15 107.95 1.0 108.3 L0.4 108.05 0.9 107.35 0.85 106.55 1.1 104.35 1.0 104.2 Q0.2 103.05 -1.7 102.95 -3.4 103.75 -6.3 104.55 -8.1 105.35 -7.8 107.0 L-6.85 106.55 -7.65 108.85 Q-7.65 109.7 -4.9 109.85 L-3.85 109.2 Q-2.65 108.55 -1.85 108.55 L0.2 108.6 Q0.55 108.4 0.9 108.3 L0.55 108.6 3.85 108.65 Q4.0 108.4 4.0 109.05 L2.75 109.15 -0.25 109.5 -0.65 110.0 Q-1.75 111.1 -2.5 110.8 L-1.3 109.75 -2.9 110.2 -3.6 110.5 Q-3.0 110.95 -2.6 112.2 -2.15 113.55 -2.15 114.3 L-1.9 114.9 -1.65 115.35 -1.1 115.8 Q-1.5 116.7 -1.7 117.85 -0.25 115.8 0.65 115.8 L4.75 116.0 5.65 115.8 6.25 116.05 Q8.4 115.25 8.4 111.9 8.4 111.1 8.0 110.8 7.55 110.4 4.5 108.8 L5.5 108.5 6.9 108.3 Q8.6 108.3 9.1 109.05 L9.25 109.9 Q9.25 112.6 8.85 113.85 8.25 115.9 6.55 116.4 L7.0 117.55 7.15 119.4 Q7.15 122.1 6.8 123.4 5.9 126.7 3.25 125.05 3.95 124.05 4.5 124.65 5.05 125.3 5.9 124.3 L6.5 123.55 6.5 121.8 6.35 119.05 Q6.1 117.7 5.3 117.3 L4.75 117.15 4.5 117.15 4.3 116.8 -0.5 116.8 -0.4 118.15 Q-0.4 119.25 -0.55 119.55 -0.85 120.15 -1.85 120.1 L-1.85 123.5 -2.2 122.6 -2.65 120.0 -2.75 119.55 -2.7 119.45 -2.75 116.75 -2.7 116.2 Q-3.65 114.2 -4.55 112.95 L-5.3 111.9 -5.55 111.95 Q-7.1 112.2 -7.25 113.15 L-7.25 117.65 -7.2 120.85 Q-7.2 122.95 -7.75 123.55 -8.25 118.3 -8.25 113.2 L-8.15 112.25 Q-7.85 111.8 -6.5 111.05 L-5.3 111.05 -5.15 110.8 -8.4 110.1 Q-8.75 109.9 -8.75 109.0 L-8.6 107.75 -7.85 107.05 -8.0 104.35 Q-8.0 101.95 -4.25 101.95 L-2.55 102.15 -2.25 102.35 -1.05 102.3 Q0.4 102.3 1.25 103.1 1.45 102.55 2.7 101.9 4.35 101.05 6.0 101.05 L6.15 101.05 6.4 100.15 6.65 99.2 6.5 97.85 Q6.15 97.05 5.0 97.05 L3.15 97.05 Q2.05 97.7 1.4 97.45 L1.25 97.4 0.75 97.7 Q-0.35 97.7 -0.6 97.3 L0.2 97.15 -1.35 96.9 -1.15 98.05 -1.6 98.05 Q-1.7 97.95 -1.75 98.0 L-1.75 97.6 -1.6 96.9 -3.0 96.8 -2.95 98.15 Q-3.0 99.0 -3.75 99.55 L-4.35 99.3 Q-3.85 99.05 -3.6 98.1 L-3.35 96.8 -3.5 96.8 Q-8.0 96.8 -8.0 100.05 L-7.75 100.5 -7.5 100.9 Q-7.5 101.95 -8.1 102.15 L-8.9 100.15 -9.0 98.55 Q-9.0 97.6 -7.0 96.55 -4.9 95.45 -2.35 95.4 L-2.85 95.05 -3.0 93.8 Q-3.0 92.7 -2.5 91.55 L-2.4 91.3 Q-3.35 90.6 -6.4 90.75 L-6.7 93.25 -7.0 96.05 -7.0 96.3 Q-8.35 95.9 -8.0 93.45 L-7.9 91.5 Q-7.75 90.75 -7.25 90.3 L-7.05 89.95 -5.6 89.8 Q-3.1 89.8 -2.2 90.8 L-2.15 90.9 M2.2 92.0 L3.0 91.05 3.15 91.05 Q3.5 91.7 2.85 92.2 L2.0 92.9 1.95 92.95 1.9 92.5 2.2 92.0 M1.75 91.95 Q1.2 92.65 1.4 93.15 L1.25 93.15 1.1 92.4 Q1.15 91.2 2.4 91.05 L1.75 91.95 M-4.5 105.4 L-4.5 104.3 -4.35 104.3 -4.35 105.4 -4.5 105.4 M-0.65 111.65 L-0.1 111.1 1.0 110.15 1.9 110.3 1.55 110.4 Q1.25 110.5 1.25 110.9 L-0.5 112.4 -0.65 111.65 M1.9 117.3 L2.1 118.15 1.6 119.4 0.65 120.55 Q0.65 119.25 0.8 118.75 1.05 117.95 1.9 117.3 M2.9 119.7 L3.0 120.65 2.75 120.7 Q2.55 120.5 2.65 119.8 L2.9 119.7 M-1.75 123.7 Q1.05 124.15 2.35 124.75 L4.0 125.65 Q-0.1 126.7 -1.75 123.7 M-5.1 125.15 Q-4.95 125.15 -3.95 124.35 L-2.5 123.2 -2.3 123.3 -2.25 123.8 Q-2.25 126.0 -4.4 125.95 -6.45 125.85 -7.5 124.05 L-7.35 123.8 -6.4 124.7 Q-6.0 125.15 -5.1 125.15" fill="#5b5546" fill-rule="evenodd" stroke="none"/>
  </g>
</svg>
