<?xml version="1.0" encoding="UTF-8" standalone="no"?>
<svg xmlns:xlink="http://www.w3.org/1999/xlink" height="77.05px" width="79.4px" xmlns="http://www.w3.org/2000/svg">
  <g transform="matrix(1.0, 0.0, 0.0, 1.0, 41.25, 38.3)">
    <path d="M18.15 -31.75 Q22.2 -29.15 29.7 -17.95 37.15 -6.8 37.15 -3.3 37.15 -0.85 36.2 4.3 34.75 11.95 32.05 18.25 23.8 37.7 7.15 37.7 -13.15 37.7 -28.7 22.85 -34.4 17.45 -38.05 11.3 -41.25 5.95 -41.25 3.15 -41.25 -1.7 -40.2 -4.4 -39.1 -7.3 -36.85 -8.55 L-36.85 -8.8 Q-36.85 -16.0 -30.55 -21.4 L-29.45 -22.25 -29.45 -22.4 Q-29.45 -25.35 -23.7 -29.5 L-13.85 -36.15 Q-11.45 -38.0 2.45 -35.7 15.65 -33.5 18.15 -31.75 M15.15 17.6 Q17.7 16.7 17.9 15.6 L15.15 17.6 15.05 17.7 Q16.35 18.1 15.15 17.6" fill="#ffffff" fill-rule="evenodd" stroke="none"/>
    <path d="M19.5 -28.1 Q24.9 -26.9 28.1 -23.55 31.4 -20.1 30.25 -16.6 35.3 -18.0 36.65 -9.35 37.05 -6.8 37.05 1.5 37.05 7.2 36.25 10.8 35.0 16.3 31.5 20.8 26.4 27.3 17.35 32.65 8.2 38.0 2.0 38.0 -18.5 38.0 -28.7 25.0 -33.85 18.5 -34.85 12.0 L-35.85 3.8 Q-35.85 -0.35 -33.4 -9.45 -30.5 -20.25 -27.1 -24.5 -22.35 -30.4 -13.75 -33.25 -6.4 -35.65 2.2 -35.5 9.95 -35.3 15.15 -33.2 20.4 -31.05 19.55 -28.35 L19.5 -28.1 M5.0 -19.3 L2.65 -19.35 -0.55 -20.15 -3.95 -20.25 -4.9 -19.3 -6.5 -20.0 Q-8.25 -20.0 -10.5 -17.75 -15.75 -15.35 -19.3 -10.5 -22.6 -6.0 -22.6 -2.35 -22.6 1.3 -21.5 6.25 -19.85 13.5 -17.0 13.5 -15.75 13.5 -14.65 14.6 L-12.4 17.0 Q-8.6 20.5 -0.15 20.5 10.05 20.5 14.4 14.95 17.05 13.1 18.95 9.95 21.75 5.2 21.75 1.2 21.45 -2.4 21.5 -4.05 21.5 -5.05 20.1 -6.55 18.5 -8.3 18.1 -9.5 16.55 -14.35 15.65 -15.85 13.15 -20.25 9.0 -20.25 L5.0 -19.3" fill="#333333" fill-opacity="0.3019608" fill-rule="evenodd" stroke="none"/>
    <path d="M-9.0 35.8 Q-10.35 35.8 -10.75 35.05 L-10.85 34.1 Q-10.85 30.45 -5.25 29.9 0.3 29.3 0.3 32.5 0.3 33.9 -4.25 35.0 L-9.0 35.8" fill="#333333" fill-opacity="0.3019608" fill-rule="evenodd" stroke="none"/>
    <path d="M25.05 23.35 L22.25 26.55 Q19.1 29.75 17.5 29.75 15.7 29.75 15.3 28.45 L15.25 27.0 Q15.25 21.95 20.15 21.8 21.85 21.75 23.5 22.35 25.05 22.9 25.05 23.35" fill="#333333" fill-opacity="0.3019608" fill-rule="evenodd" stroke="none"/>
    <path d="M33.05 2.1 L32.85 5.8 Q32.25 8.8 30.5 8.8 L29.45 8.65 28.75 8.25 28.55 5.25 Q28.55 2.9 30.8 1.1 33.05 -0.75 33.05 2.1" fill="#333333" fill-opacity="0.3019608" fill-rule="evenodd" stroke="none"/>
    <path d="M26.05 -20.5 L26.05 -17.1 27.3 -16.9 29.5 -17.35 30.1 -17.2 Q30.3 -17.15 30.3 -16.35 L30.05 -14.15 Q29.5 -12.75 27.5 -12.75 24.25 -12.75 22.8 -16.55 22.1 -18.45 22.0 -20.5 22.0 -22.25 22.8 -23.7 24.15 -26.3 27.3 -24.85 27.55 -25.35 27.55 -24.1 L26.05 -20.5" fill="#333333" fill-opacity="0.3019608" fill-rule="evenodd" stroke="none"/>
    <path d="M9.25 -33.05 Q9.25 -32.25 7.75 -29.85 L6.6 -29.85 Q6.0 -29.95 6.0 -30.75 6.0 -31.5 3.1 -31.55 L-0.75 -31.6 -0.9 -32.05 Q-1.1 -32.35 -1.1 -33.1 -1.1 -35.65 4.1 -36.2 9.25 -36.75 9.25 -33.05" fill="#333333" fill-opacity="0.3019608" fill-rule="evenodd" stroke="none"/>
    <path d="M-13.85 -28.05 Q-13.85 -23.75 -20.0 -23.75 -21.6 -23.75 -23.5 -25.0 L-23.55 -24.8 -23.6 -25.55 Q-23.6 -26.25 -18.7 -28.6 -13.85 -30.9 -13.85 -28.05" fill="#333333" fill-opacity="0.3019608" fill-rule="evenodd" stroke="none"/>
    <path d="M-28.35 -1.1 Q-28.35 -0.7 -30.35 0.3 -32.35 1.3 -33.0 1.3 -36.0 1.3 -36.7 0.0 -37.1 -0.65 -36.85 -1.4 -36.85 -2.35 -35.35 -4.6 -33.85 -6.85 -33.85 -8.0 -33.85 -13.05 -31.1 -7.7 -28.35 -2.4 -28.35 -1.1" fill="#333333" fill-opacity="0.3019608" fill-rule="evenodd" stroke="none"/>
    <path d="M-24.5 25.3 Q-25.8 25.3 -29.15 22.5 -32.1 20.05 -32.1 20.35 -32.1 15.75 -27.1 19.05 -24.6 20.7 -22.1 23.35 -22.1 25.3 -24.5 25.3" fill="#333333" fill-opacity="0.3019608" fill-rule="evenodd" stroke="none"/>
    <path d="M23.25 10.15 L23.4 10.3 23.5 10.75 Q11.35 24.5 6.1 24.5 -6.15 24.5 -13.0 22.15 -18.4 20.25 -18.4 17.95 -18.4 16.5 -17.0 16.5 L-12.6 19.0 Q-7.9 21.5 -3.75 21.5 7.35 21.5 10.15 20.2 11.35 19.6 12.3 18.3 L14.5 15.4 15.3 14.3 Q17.4 12.55 18.95 9.95 L19.65 8.75 Q20.6 8.35 20.6 10.9 L20.15 12.15 Q19.7 12.9 19.75 13.25 L19.75 13.4 21.55 11.85 23.25 10.15" fill="#333333" fill-opacity="0.3019608" fill-rule="evenodd" stroke="none"/>
    <path d="M31.5 15.3 Q31.5 17.6 24.0 27.0 16.15 36.8 13.0 36.8 -11.15 36.8 -23.25 27.5 -27.3 24.35 -29.45 20.6 -31.0 17.9 -31.0 16.35 L-30.9 15.35 -30.85 14.75 Q-30.6 14.3 -30.0 14.05 -26.45 19.25 -21.9 23.65 -12.95 32.25 -2.75 32.25 L4.55 32.2 Q12.3 31.75 15.5 29.55 L15.2 28.7 Q15.05 28.3 15.05 27.5 15.05 25.25 15.75 24.6 16.15 24.2 17.7 24.0 21.7 23.4 24.8 18.8 27.85 14.25 28.85 13.25 31.5 10.55 31.5 15.3" fill="#333333" fill-opacity="0.3019608" fill-rule="evenodd" stroke="none"/>
    <path d="M15.25 -16.5 Q12.8 -20.25 9.0 -20.25 L7.05 -19.8 Q1.75 -22.0 1.05 -22.0 -2.6 -22.0 -6.65 -20.0 -8.35 -19.9 -10.45 -17.75 L-15.5 -14.5 -16.2 -14.6 Q-16.5 -14.7 -16.5 -15.5 -16.5 -19.7 -11.1 -22.1 -6.4 -24.1 0.8 -24.2 7.6 -24.25 12.65 -22.55 18.05 -20.7 18.05 -17.85 L18.0 -16.9 17.8 -16.35 17.85 -16.15 17.0 -16.0 Q16.65 -16.0 15.25 -16.5" fill="#333333" fill-opacity="0.3019608" fill-rule="evenodd" stroke="none"/>
    <path d="M4.9 -34.05 Q6.7 -36.0 9.35 -35.45 L10.3 -35.25 12.75 -36.25 13.8 -35.9 14.25 -33.25 Q22.45 -30.1 27.75 -23.4 L27.75 -21.4 Q39.3 -12.35 34.4 1.75 L35.2 3.6 34.8 4.7 Q32.75 27.75 9.95 37.75 5.9 39.6 1.8 37.95 L2.1 36.15 1.25 36.0 1.05 35.35 -8.4 33.55 Q-21.55 37.45 -24.3 22.75 -38.3 21.1 -37.85 4.65 -37.4 -12.25 -26.9 -24.55 -25.75 -25.9 -24.0 -25.15 -14.9 -37.6 0.4 -36.25 L1.6 -34.25 4.9 -34.05 M16.75 -13.4 L16.2 -14.8 Q13.75 -20.35 7.9 -20.0 L4.75 -19.3 3.95 -20.0 Q2.75 -21.55 2.4 -23.55 L-0.15 -20.05 -2.4 -20.75 -3.95 -20.25 -4.9 -20.65 Q-5.45 -22.25 -5.05 -23.75 L-7.05 -19.95 -8.8 -19.15 -9.5 -21.5 -20.2 -11.1 -19.35 -9.55 -22.7 -2.55 Q-20.8 2.3 -22.05 7.4 -20.6 7.9 -19.75 8.95 -19.25 9.6 -19.3 10.55 L-17.9 12.25 Q-17.15 13.3 -17.5 14.5 -15.5 15.3 -15.0 17.25 -14.35 19.9 -12.05 19.85 -5.95 19.75 -1.05 22.05 L-1.25 23.35 15.85 18.1 20.85 12.5 19.95 11.75 21.9 6.75 20.7 6.45 Q22.4 2.25 21.55 -2.15 L22.5 -3.9 21.5 -4.25 Q18.7 -7.85 19.6 -12.25 L16.75 -13.4 M28.0 -16.25 L24.0 -11.0 Q26.9 -12.4 27.85 -15.5 L28.0 -16.25" fill="#333333" fill-opacity="0.3019608" fill-rule="evenodd" stroke="none"/>
    <path d="M-25.0 -7.8 Q-25.0 -8.85 -23.5 -12.75 -21.9 -17.0 -21.0 -17.0 -19.75 -17.0 -19.5 -16.05 L-19.5 -15.0 -19.4 -14.9 Q-19.3 -14.95 -19.35 -15.1 L-19.4 -15.7 Q-19.4 -19.1 -13.45 -22.5 -7.55 -25.9 -7.55 -22.0 -7.55 -19.25 -9.0 -18.0 L-15.15 -12.75 Q-16.75 -10.0 -18.1 -8.1 -20.6 -4.55 -23.5 -4.55 -24.2 -4.55 -25.0 -7.8" fill="#8d6d3f" fill-opacity="0.3019608" fill-rule="evenodd" stroke="none"/>
    <path d="M2.4 -24.4 Q2.4 -23.75 1.6 -23.6 L-2.3 -22.65 -4.8 -21.85 -5.95 -21.75 Q-13.9 -17.35 -16.25 -14.4 L-19.8 -10.1 Q-20.65 -8.85 -20.65 -6.25 -20.65 -4.05 -19.5 -1.4 -18.4 1.3 -18.4 4.05 -18.4 5.85 -19.3 6.5 -20.4 7.25 -23.6 7.25 -25.35 7.25 -25.25 5.5 L-24.75 3.0 Q-24.75 1.25 -25.65 0.65 -26.55 0.05 -26.55 -0.85 L-26.3 -1.9 -26.05 -2.9 Q-27.55 -7.1 -27.55 -8.0 L-25.9 -10.5 Q-24.25 -12.7 -24.25 -15.1 -24.25 -16.7 -22.9 -19.0 -21.0 -22.25 -17.85 -22.25 L-16.8 -22.0 -16.0 -21.75 Q-14.95 -24.05 -13.15 -25.35 -10.0 -27.5 -6.4 -24.3 L-5.0 -25.15 Q-4.0 -25.75 -3.5 -25.75 L-2.55 -25.55 -0.1 -25.4 Q1.75 -25.4 2.25 -24.9 L2.4 -24.4 M-18.75 -19.15 L-18.25 -18.75 Q-18.0 -18.85 -18.0 -19.5 L-18.0 -19.55 -18.75 -19.15 M-21.9 0.25 L-22.15 1.9 -22.05 3.1 -21.55 3.15 -21.45 1.5 Q-21.45 0.5 -21.9 0.25" fill="#8d6d3f" fill-opacity="0.3019608" fill-rule="evenodd" stroke="none"/>
    <path d="M28.4 -2.05 Q31.9 -3.45 34.65 -6.5 36.6 -8.6 37.45 -5.8 37.9 -4.25 37.9 -2.15 37.9 1.1 35.45 4.5 32.95 8.0 30.35 8.0 L29.8 8.65 Q29.35 9.25 28.35 9.25 26.2 9.25 26.45 7.1 L27.1 4.25 Q25.7 4.6 25.15 3.85 L24.9 2.95 Q24.9 2.5 25.65 2.0 L26.35 1.25 26.0 0.25 25.6 -0.95 Q25.6 -1.25 28.4 -2.05" fill="#8d6d3f" fill-opacity="0.3019608" fill-rule="evenodd" stroke="none"/>
    <path d="M33.5 -3.5 L33.15 -4.05 32.5 -4.9 32.5 -5.25 33.9 -5.0 Q34.4 -8.6 36.15 -5.65 37.85 -2.75 37.85 -0.5 L37.75 0.8 Q37.5 1.9 36.6 2.1 L37.35 3.15 37.4 3.9 Q37.4 4.4 33.5 8.75 32.8 8.75 30.0 5.55 L27.35 2.3 Q27.35 0.4 30.45 -1.45 L33.5 -3.5 M33.0 3.75 L33.85 3.5 34.0 3.4 Q33.0 2.9 31.9 2.85 L33.0 3.75" fill="#8d6d3f" fill-opacity="0.3019608" fill-rule="evenodd" stroke="none"/>
    <path d="M-22.4 25.5 L-23.05 24.7 -23.05 24.4 -22.9 24.4 -22.4 25.5" fill="#8d6d3f" fill-opacity="0.3019608" fill-rule="evenodd" stroke="none"/>
    <path d="M-18.7 21.85 L-20.3 24.6 -20.4 24.75 Q-18.0 25.0 -18.0 26.2 -18.0 27.5 -20.25 27.75 L-17.9 29.3 Q-16.1 30.25 -13.5 30.1 L-13.4 31.2 Q-13.4 32.6 -16.25 32.6 -21.25 32.6 -24.75 29.2 L-27.4 26.35 Q-28.95 24.65 -30.15 23.85 -32.65 22.3 -34.8 19.25 -36.9 16.25 -36.9 14.35 -36.9 12.65 -36.6 12.25 -36.15 11.5 -34.4 11.75 -32.7 8.35 -31.8 7.85 -31.1 7.5 -30.3 8.95 L-28.7 11.85 Q-27.4 13.5 -25.5 13.5 L-23.95 13.7 -22.35 13.85 Q-21.1 13.85 -20.7 14.65 L-20.55 15.5 Q-20.55 16.7 -22.25 17.5 L-22.5 17.75 -21.95 17.9 -21.25 18.0 -20.6 17.75 Q-20.3 17.5 -20.0 17.5 -18.75 17.5 -18.5 18.65 -18.35 19.25 -18.5 19.9 L-18.7 21.85" fill="#8d6d3f" fill-opacity="0.3019608" fill-rule="evenodd" stroke="none"/>
    <path d="M-17.9 23.25 Q-17.75 22.75 -16.5 22.75 -15.2 22.75 -13.85 25.05 -13.15 26.2 -12.75 27.4 -12.75 27.9 -13.25 29.1 -9.0 29.35 -6.1 29.2 L-5.0 30.0 Q-3.9 30.85 -3.9 31.9 L-4.1 33.05 -5.65 34.25 Q-4.9 34.45 -4.75 35.5 -4.75 36.05 -5.45 36.5 -6.1 36.9 -6.75 36.9 L-10.0 35.7 Q-13.1 34.45 -14.0 34.25 L-18.7 33.25 Q-21.05 32.65 -21.5 32.1 -23.7 29.35 -26.25 28.3 -27.65 27.75 -27.65 25.6 L-29.85 22.8 Q-32.05 20.1 -32.05 19.5 -32.05 13.7 -26.4 17.7 -19.85 23.45 -18.05 24.65 L-17.9 23.25" fill="#8d6d3f" fill-opacity="0.3019608" fill-rule="evenodd" stroke="none"/>
    <path d="M23.85 24.25 L24.1 24.95 21.6 27.0 Q18.95 29.1 18.4 30.0 L17.15 32.65 Q15.95 34.85 14.75 34.85 L12.1 34.5 Q11.65 34.2 11.65 33.35 11.65 31.35 13.0 28.65 14.8 25.0 17.75 25.0 L19.35 24.25 Q21.1 23.5 22.0 23.5 23.35 23.5 23.85 24.25" fill="#8d6d3f" fill-opacity="0.3019608" fill-rule="evenodd" stroke="none"/>
    <path d="M1.25 -28.0 Q-0.15 -28.0 -1.25 -32.25 L-1.15 -33.9 Q-1.1 -34.15 -0.5 -34.15 0.65 -34.15 0.15 -32.65 L2.0 -30.3 Q2.75 -29.75 4.8 -29.75 5.35 -29.75 6.25 -30.3 L7.25 -31.0 Q6.4 -31.8 6.4 -32.2 6.4 -33.2 8.0 -33.85 L11.5 -34.8 Q17.1 -35.4 17.1 -32.75 17.1 -32.6 11.85 -29.95 6.45 -27.25 5.5 -27.25 L1.25 -28.0" fill="#8d6d3f" fill-opacity="0.3019608" fill-rule="evenodd" stroke="none"/>
    <path d="M20.5 -31.15 Q22.15 -30.7 22.15 -29.2 22.15 -27.75 21.0 -27.75 19.15 -27.75 11.0 -30.25 2.85 -32.7 2.85 -33.2 2.85 -33.75 4.65 -35.1 6.65 -36.55 8.6 -37.2 14.25 -39.1 13.75 -32.5 L20.5 -31.15" fill="#8d6d3f" fill-opacity="0.3019608" fill-rule="evenodd" stroke="none"/>
    <path d="M9.5 -14.1 Q8.05 -13.0 7.25 -13.0 L2.05 -13.9 -4.9 -12.85 Q-9.85 -11.75 -10.8 -11.0 L-12.2 -8.65 Q-13.1 -6.9 -14.0 -6.9 -15.0 -6.9 -15.2 -7.65 L-15.25 -8.45 Q-15.25 -17.05 -2.2 -18.45 L6.75 -18.1 Q10.85 -17.15 10.85 -15.5 10.85 -15.1 9.5 -14.1" fill="#8d6d3f" fill-opacity="0.3019608" fill-rule="evenodd" stroke="none"/>
    <path d="M12.3 15.05 Q9.25 16.6 6.6 16.6 5.45 16.6 5.2 16.2 L5.1 15.7 Q5.1 14.6 7.05 14.15 L11.85 13.15 13.75 11.4 Q15.25 10.15 15.25 12.15 15.25 13.5 12.3 15.05" fill="#8d6d3f" fill-opacity="0.3019608" fill-rule="evenodd" stroke="none"/>
    <path d="M11.5 -1.15 Q11.5 2.35 9.75 6.1 6.8 12.25 0.6 12.25 -3.9 12.25 -6.8 10.0 -9.0 8.35 -9.0 7.25 L-8.75 5.9 Q-8.35 5.25 -7.25 5.25 -6.85 5.25 -4.6 6.7 -2.4 8.15 -1.5 8.15 0.45 8.15 2.5 5.95 4.5 3.75 5.0 3.75 5.6 3.75 6.25 4.35 L7.75 -0.4 Q8.3 -2.8 9.9 -2.95 11.5 -3.1 11.5 -1.15" fill="#8d6d3f" fill-opacity="0.3019608" fill-rule="evenodd" stroke="none"/>
    <path d="M14.0 -16.3 L14.5 -15.25 Q14.5 -14.35 13.35 -13.5 L13.25 -13.4 16.25 -14.0 Q18.3 -14.0 18.25 -12.4 18.25 -11.7 7.25 -8.1 L-4.55 -4.4 Q-2.4 -4.85 6.5 -7.65 14.1 -10.05 15.85 -10.05 18.6 -10.05 18.6 -8.4 18.6 -6.95 15.4 -6.25 L15.0 -6.15 19.75 -4.85 Q20.85 -4.45 20.85 -3.4 20.85 -2.8 20.3 -2.3 19.6 -1.7 18.5 -1.75 L18.25 -1.65 Q20.15 -1.7 20.65 -0.8 L20.75 0.5 Q22.0 0.4 22.65 1.1 23.1 1.6 23.1 2.3 23.1 3.95 19.4 4.25 L20.85 4.1 Q22.85 4.1 22.85 5.8 22.85 7.1 21.1 7.35 L17.5 8.1 Q18.85 8.8 18.85 9.8 18.85 10.9 17.25 11.4 17.85 12.25 17.85 12.7 17.85 13.45 17.3 13.85 16.55 14.4 14.0 15.15 L13.5 15.35 Q14.6 15.8 14.85 16.25 L15.0 17.0 Q15.0 18.7 9.85 20.25 4.8 21.75 -0.6 21.75 -13.0 21.75 -19.0 9.5 -22.65 2.15 -22.65 -3.65 -22.65 -7.1 -19.5 -9.75 -16.4 -12.35 -16.4 -12.9 L-16.7 -13.4 Q-17.0 -13.6 -17.0 -13.95 -17.0 -15.25 -13.2 -17.75 -9.0 -20.5 -5.65 -20.5 -4.2 -20.5 -1.55 -21.6 1.1 -22.75 4.6 -22.75 6.85 -22.75 7.5 -22.25 L7.75 -21.5 Q7.75 -21.15 6.75 -20.15 10.5 -21.1 10.5 -19.15 10.5 -18.5 9.15 -18.15 6.7 -17.55 4.75 -16.5 L5.0 -16.0 Q9.8 -17.4 11.85 -17.4 13.25 -17.4 14.0 -16.3 M8.6 -4.55 L8.35 -4.5 9.9 -4.9 8.6 -4.55 M-5.25 -13.5 L-5.5 -13.5 -7.0 -12.75 -6.2 -12.95 -5.25 -13.5 M-19.05 -0.15 L-18.5 2.25 Q-18.1 -0.05 -17.9 -3.75 L-19.05 -0.15 M-3.5 18.5 L-3.55 18.4 -4.9 18.6 -3.5 18.5" fill="#cc9933" fill-opacity="0.3019608" fill-rule="evenodd" stroke="none"/>
    <path d="M5.0 -19.75 Q5.35 -20.25 6.35 -20.25 10.05 -20.25 15.25 -16.3 20.05 -12.6 20.65 -10.25 L22.2 -4.1 22.1 0.0 Q22.1 6.25 16.1 11.9 8.2 19.4 -6.0 19.4 -17.65 19.4 -17.55 15.85 L-17.5 10.75 Q-17.5 8.25 -18.6 5.4 -19.75 2.5 -19.75 0.65 L-19.7 -6.15 Q-19.5 -10.1 -18.5 -12.75 -17.45 -15.6 -9.8 -19.6 -1.9 -23.75 -1.75 -19.65 L-1.75 -19.55 2.8 -19.25 Q4.65 -19.25 5.0 -19.75 M14.0 -10.4 Q9.95 -13.6 4.15 -13.4 -1.7 -13.2 -5.75 -9.7 -10.25 -5.85 -10.25 0.5 -10.25 1.4 -8.85 7.15 -7.5 12.95 -7.5 15.15 L-1.8 15.25 Q8.85 15.25 14.75 7.25 17.7 3.25 18.5 -0.65 18.5 -6.9 14.0 -10.4 M-12.05 -8.5 L-12.05 -8.4 -12.4 -8.0 -12.25 -7.55 Q-11.9 -8.2 -12.05 -8.5 M-14.45 -3.35 Q-14.3 -3.3 -14.3 -3.25 L-14.25 -3.25 Q-14.35 -4.0 -14.5 -4.0 L-14.5 -3.75 -14.45 -3.35" fill="#cc9933" fill-opacity="0.3019608" fill-rule="evenodd" stroke="none"/>
    <path d="M-8.75 34.6 L-5.1 34.95 -2.1 35.3 -0.65 35.5 Q-0.75 33.5 -1.0 33.0 L-2.5 31.4 Q-3.65 30.45 -5.0 30.7 -6.4 30.95 -7.45 32.0 -8.3 32.9 -8.75 34.6 M-28.3 21.2 L-26.2 23.75 -25.4 24.9 Q-24.05 23.6 -23.8 22.9 L-23.8 22.85 Q-23.6 22.0 -23.9 20.55 -24.15 19.1 -25.15 18.2 -26.15 17.3 -27.65 17.45 -29.05 17.6 -30.55 18.45 L-28.3 21.2 M-31.65 -7.45 Q-31.85 -7.8 -34.55 -8.45 L-35.15 -5.05 -35.45 -1.65 -35.55 -0.2 Q-34.35 -0.3 -33.05 -0.9 -31.6 -1.5 -31.15 -2.5 -30.75 -3.6 -31.1 -5.1 L-31.15 -5.15 -31.65 -7.45 M-18.2 -30.3 L-19.05 -29.7 Q-23.55 -26.75 -23.95 -26.05 L-24.8 -25.0 Q-24.0 -24.05 -22.75 -23.55 L-20.05 -23.4 Q-18.05 -23.6 -17.4 -25.25 -16.8 -27.0 -16.8 -27.65 -16.85 -28.2 -18.2 -30.25 L-18.2 -30.3 M16.7 27.9 Q16.8 28.7 18.0 30.75 L21.0 28.65 21.05 28.65 23.15 27.1 23.15 27.05 24.6 25.7 Q23.45 24.3 22.35 23.95 21.15 23.55 19.6 24.35 18.0 25.2 17.3 26.2 16.7 27.05 16.7 27.85 L16.7 27.9 M30.85 3.1 Q30.25 4.5 30.5 6.15 30.7 7.55 31.2 7.8 L34.2 8.9 34.65 5.35 34.65 5.3 Q35.0 3.6 34.95 2.55 L35.1 0.75 Q33.65 0.7 32.65 1.2 31.45 1.85 30.85 3.15 L30.85 3.1 M28.3 -20.7 L26.25 -23.05 25.2 -24.3 Q24.0 -23.15 23.6 -22.05 23.15 -20.85 23.8 -19.35 24.55 -17.75 25.8 -17.0 L25.8 -17.05 Q27.0 -16.35 27.55 -16.4 L27.55 -16.45 Q28.15 -16.6 30.4 -17.85 L28.3 -20.7 M6.1 -5.75 L3.6 -7.6 Q2.25 -8.35 -0.2 -8.7 -2.0 -8.6 -3.6 -7.75 -5.25 -6.85 -6.5 -5.6 -7.7 -4.4 -8.3 -2.55 -8.9 -0.7 -8.5 1.45 -8.15 3.6 -7.4 4.9 -6.65 6.2 -5.0 7.4 -3.3 8.55 -1.6 8.9 L2.0 8.7 2.05 8.7 Q4.0 8.15 5.25 7.0 6.5 5.8 7.25 4.05 L7.25 4.0 Q8.0 2.2 8.25 0.2 8.5 -1.7 7.9 -3.1 7.3 -4.55 6.1 -5.75 M3.7 -8.4 L6.1 -6.5 Q7.9 -5.25 8.7 -3.55 9.5 -1.9 9.25 0.3 9.0 2.5 8.15 4.4 L8.2 4.4 Q7.4 6.4 5.95 7.75 4.5 9.05 2.3 9.65 0.3 10.05 -1.5 9.65 L-5.55 8.2 -5.6 8.2 Q-7.45 6.9 -8.25 5.4 -9.05 4.0 -9.5 1.6 -9.9 -0.8 -9.25 -2.85 -8.6 -4.9 -7.2 -6.3 -5.85 -7.65 -4.1 -8.6 L-4.05 -8.65 Q-2.25 -9.6 -0.15 -9.7 L-0.05 -9.7 Q2.85 -9.25 3.7 -8.4 M12.85 -12.75 L12.8 -12.8 Q11.8 -14.35 9.9 -15.2 L6.15 -16.8 2.5 -17.95 -1.05 -18.1 -4.85 -17.1 -8.75 -15.7 -8.75 -15.75 Q-10.5 -15.05 -11.7 -13.95 L-14.35 -11.0 -16.6 -7.4 Q-17.5 -5.7 -17.95 -3.65 L-17.95 -3.7 Q-18.4 -1.65 -18.35 0.45 L-18.05 4.4 Q-17.85 6.1 -16.8 7.9 L-14.5 11.65 Q-13.25 13.5 -11.9 14.4 L-8.9 16.2 -5.55 17.7 -1.55 18.45 2.25 18.5 Q3.8 18.3 5.75 17.55 L9.6 15.8 Q11.5 14.75 12.75 13.6 L15.15 10.9 Q16.3 9.4 16.95 7.55 L17.85 3.6 18.1 -0.55 Q18.05 -2.5 17.55 -4.2 L16.4 -7.65 Q15.8 -9.35 14.3 -10.8 L12.85 -12.75 M13.65 -13.35 L13.6 -13.4 15.1 -11.35 15.1 -11.4 16.8 -8.35 18.35 -4.6 Q19.05 -2.7 19.1 -0.55 L18.85 3.75 Q18.55 6.0 17.7 7.95 16.9 9.9 15.75 11.5 14.6 13.1 13.0 14.35 L9.6 16.65 5.95 18.5 5.95 18.45 Q4.05 19.3 2.4 19.5 L2.35 19.5 -1.85 19.3 -6.1 18.4 Q-7.75 17.95 -9.45 16.95 -11.2 15.95 -12.65 14.75 L-15.4 11.9 -17.65 8.4 Q-18.85 6.4 -19.05 4.5 L-19.35 0.5 -19.35 0.45 Q-19.4 -1.75 -18.95 -3.9 L-18.9 -3.9 Q-18.4 -6.1 -17.5 -7.85 L-17.45 -7.9 -15.15 -11.55 -15.15 -11.6 Q-13.7 -13.6 -12.35 -14.7 -11.0 -15.85 -9.15 -16.65 -7.3 -17.45 -5.15 -18.05 L-1.25 -19.1 -1.2 -19.1 2.7 -18.95 6.55 -17.7 10.3 -16.1 Q12.5 -15.15 13.65 -13.35 M12.1 -19.05 L12.05 -19.05 15.1 -17.1 Q16.7 -16.0 18.05 -13.95 L20.05 -10.2 21.5 -6.65 22.5 -3.05 Q21.9 -3.1 21.3 -5.35 20.7 -7.65 19.55 -9.55 L17.2 -13.4 Q16.0 -15.3 14.55 -16.25 L14.55 -16.3 11.55 -18.2 8.25 -20.05 Q6.4 -20.95 4.5 -21.3 L1.35 -21.75 -0.95 -21.95 -4.35 -21.85 Q-6.45 -21.75 -8.0 -20.65 -9.75 -20.05 -11.35 -18.9 L-14.5 -16.2 -17.65 -13.25 Q-19.1 -11.85 -19.75 -10.0 L-21.05 -6.5 -21.95 -2.8 -22.1 1.05 -22.1 1.1 -21.55 4.9 Q-21.15 6.9 -20.35 8.8 L-18.6 12.25 Q-17.7 13.85 -16.1 15.35 L-13.6 18.1 Q-12.7 19.2 -9.95 20.25 L-4.6 21.8 -1.0 22.35 1.85 22.15 5.85 21.3 9.65 20.1 Q11.15 19.65 12.65 18.25 L12.7 18.25 15.7 15.3 18.1 12.45 18.1 12.4 19.95 9.05 19.95 9.0 21.35 4.9 22.0 0.8 Q22.05 -1.25 22.5 -3.05 22.9 -1.2 22.8 0.9 L22.25 5.2 20.85 9.4 20.9 9.4 Q20.05 11.5 18.9 13.0 L16.4 16.0 16.45 16.0 13.35 19.0 Q11.65 20.55 9.9 21.05 L6.2 22.25 Q4.0 23.05 1.9 23.15 L-2.25 23.0 -6.2 22.3 Q-8.1 21.9 -10.2 20.95 -12.35 20.05 -13.75 18.85 L-16.8 16.05 -16.8 16.1 Q-18.5 14.45 -19.45 12.75 L-19.5 12.75 -21.05 9.1 -22.3 5.15 Q-22.95 3.1 -23.1 1.15 L-22.95 -2.95 Q-22.65 -5.2 -22.0 -6.85 L-20.7 -10.35 Q-20.0 -12.35 -18.35 -13.95 L-15.2 -16.95 -11.95 -19.7 Q-10.25 -20.95 -8.3 -21.6 L-4.25 -22.5 -4.2 -22.5 -0.2 -22.9 -0.15 -22.9 1.45 -22.75 4.65 -22.3 Q6.7 -21.95 8.7 -20.95 L12.1 -19.05 M7.6 -31.6 Q8.5 -32.65 8.65 -34.1 L5.4 -34.65 Q3.1 -34.9 2.0 -35.3 1.2 -35.55 0.4 -35.3 0.6 -32.9 0.85 -32.25 1.05 -31.75 2.15 -31.3 3.4 -30.75 5.1 -30.65 6.65 -30.5 7.6 -31.6 M24.65 -28.0 L24.65 -28.05 Q25.4 -26.7 25.75 -25.3 L25.8 -25.25 26.95 -23.75 27.0 -23.75 29.05 -21.35 31.4 -18.1 Q32.85 -17.65 33.8 -16.5 34.75 -15.3 35.45 -13.25 L36.85 -9.4 36.85 -9.45 Q37.65 -7.4 37.8 -5.25 L38.1 -1.65 Q38.25 -0.6 37.6 0.05 37.15 0.55 36.15 0.75 35.9 1.6 35.95 2.5 36.0 3.6 35.65 5.5 35.35 7.15 35.2 9.4 36.85 10.75 36.25 12.35 L34.85 15.45 32.9 19.2 30.85 22.75 Q29.8 24.3 28.25 25.0 L25.55 26.15 23.8 27.85 23.75 27.85 21.6 29.5 18.35 31.75 Q18.2 32.8 16.8 34.15 L16.8 34.1 Q15.4 35.5 13.45 36.25 L9.45 37.45 5.35 38.15 2.05 38.35 Q0.8 38.35 -0.55 36.55 L-2.05 36.3 -2.1 36.3 -5.25 35.95 -9.3 35.55 -9.4 35.55 -12.0 35.9 Q-13.55 36.0 -15.6 35.0 -17.5 34.05 -19.2 33.5 -21.0 32.85 -22.7 31.55 L-25.65 29.35 Q-27.2 28.2 -26.05 25.75 L-27.0 24.35 -29.05 21.85 -31.5 18.85 -33.1 18.9 Q-34.0 18.6 -34.25 17.6 -34.6 16.15 -35.6 14.55 -36.7 12.8 -37.25 10.9 -37.8 9.0 -38.0 6.55 L-38.05 2.7 Q-37.95 1.2 -36.55 0.1 L-36.45 -1.75 -36.15 -5.15 Q-36.0 -6.95 -35.45 -8.85 -37.3 -10.4 -36.6 -12.2 L-35.1 -15.65 -35.1 -15.7 -33.25 -18.75 -33.25 -18.8 -31.2 -21.85 Q-29.95 -23.75 -28.8 -24.65 L-28.75 -24.65 Q-27.6 -25.5 -25.7 -25.6 L-24.4 -26.65 -21.55 -29.05 -21.55 -29.1 -18.5 -31.3 Q-17.75 -32.95 -16.75 -33.75 L-16.75 -33.8 Q-15.7 -34.6 -13.75 -35.3 L-9.85 -36.7 -5.8 -37.7 -2.5 -38.2 -2.5 -38.25 Q-0.8 -38.7 0.15 -36.25 1.25 -36.6 2.3 -36.25 L2.35 -36.25 5.5 -35.65 8.95 -35.05 Q10.2 -36.65 12.0 -36.1 13.65 -35.6 15.55 -34.6 L19.1 -32.55 19.15 -32.55 22.3 -30.55 Q23.9 -29.5 24.65 -28.0 M23.75 -27.55 Q23.1 -28.8 21.75 -29.7 L18.6 -31.7 15.1 -33.7 15.05 -33.7 Q13.25 -34.7 11.7 -35.15 L11.75 -35.15 Q10.5 -35.5 9.65 -34.35 9.55 -32.35 8.35 -30.95 7.05 -29.5 5.05 -29.65 L5.0 -29.65 Q3.15 -29.75 1.75 -30.4 L1.75 -30.35 Q0.15 -31.05 -0.1 -31.9 L-0.65 -35.55 Q-1.3 -37.35 -2.25 -37.25 L-5.65 -36.7 -9.55 -35.75 -9.5 -35.75 -13.4 -34.35 Q-15.15 -33.7 -16.1 -33.0 L-16.15 -33.0 Q-16.95 -32.3 -17.55 -31.0 -15.75 -28.4 -15.8 -27.65 -15.75 -26.8 -16.9 -24.9 -18.1 -22.95 -19.75 -22.45 L-19.7 -22.45 -23.15 -22.6 -23.1 -22.6 Q-24.75 -23.25 -25.8 -24.6 -27.25 -24.5 -28.2 -23.85 L-30.35 -21.4 -32.4 -18.45 -34.2 -15.2 -35.65 -11.85 Q-36.05 -10.65 -34.7 -9.5 -30.85 -8.65 -30.7 -7.7 L-30.15 -5.35 Q-29.75 -3.5 -30.2 -2.15 -30.7 -0.8 -32.65 0.0 -34.3 0.75 -35.85 0.8 -36.95 1.65 -37.05 2.75 L-37.0 6.5 -36.3 10.65 -36.3 10.6 Q-35.8 12.4 -34.75 14.0 -33.7 15.75 -33.3 17.35 L-32.8 17.95 -31.55 17.85 Q-29.6 16.6 -27.4 16.8 -25.25 16.95 -24.25 17.8 -23.25 18.6 -22.9 20.35 -22.5 22.1 -22.85 23.15 -23.15 24.2 -25.1 26.05 -25.9 27.75 -25.05 28.55 L-22.1 30.75 -18.85 32.55 -18.9 32.55 Q-17.1 33.15 -15.15 34.1 -13.35 35.0 -12.05 34.9 L-9.8 34.65 Q-9.3 32.45 -8.1 31.3 -6.9 30.1 -5.25 29.95 -3.65 29.8 -2.0 30.85 -0.4 31.85 -0.1 32.55 0.3 33.2 0.35 36.15 0.75 37.65 1.6 37.65 L5.05 37.25 9.2 36.5 13.1 35.3 Q14.8 34.6 16.1 33.4 17.2 32.35 17.35 31.6 15.8 28.95 15.7 27.95 15.6 26.85 16.45 25.65 L16.45 25.6 Q17.25 24.45 19.1 23.45 L19.15 23.45 Q21.15 22.45 22.65 23.0 24.0 23.4 25.4 25.1 L27.85 24.1 Q29.1 23.5 30.25 22.15 31.35 20.8 32.25 18.75 L33.95 15.05 35.3 12.0 Q35.6 10.95 34.45 10.05 L30.9 8.75 Q29.8 8.5 29.85 6.45 29.85 4.35 30.4 2.7 30.95 1.05 32.3 0.35 33.6 -0.4 35.7 -0.2 L35.75 -0.2 Q36.5 -0.35 36.9 -0.65 L37.1 -1.55 36.8 -5.2 Q36.65 -7.2 35.9 -9.05 36.0 -11.0 35.0 -12.85 L33.05 -15.85 33.0 -15.9 Q32.25 -16.8 31.15 -17.15 28.45 -15.6 27.75 -15.45 L27.8 -15.45 Q27.0 -15.25 25.3 -16.15 23.75 -17.05 22.9 -18.95 22.05 -20.85 22.65 -22.4 L22.65 -22.45 Q23.15 -23.8 24.75 -25.25 L23.8 -27.55 23.75 -27.55" fill="#5a493f" fill-rule="evenodd" stroke="none"/>
    <path d="M11.7 -13.5 L11.1 -12.9 9.6 -12.3 Q9.2 -12.45 9.15 -12.55 L10.35 -12.95 Q11.2 -13.3 11.2 -13.8 L11.65 -13.75 11.7 -13.5 M11.55 -14.9 Q10.95 -14.1 7.75 -13.4 L7.75 -13.35 7.7 -13.5 Q7.7 -14.0 11.25 -15.15 L11.55 -14.9 M0.35 -18.65 Q-1.45 -17.3 -3.45 -14.5 L-3.65 -14.6 -2.4 -16.9 Q-1.25 -18.3 0.65 -19.0 L0.7 -18.8 0.55 -18.25 Q0.35 -18.25 0.35 -18.6 L0.35 -18.65 M2.85 -16.35 Q1.8 -15.6 1.6 -15.25 1.35 -15.35 1.35 -15.6 1.35 -16.0 2.55 -17.0 3.8 -18.05 4.25 -17.7 L4.35 -17.5 2.85 -16.35 M1.4 -17.95 L1.3 -17.5 Q0.75 -15.85 -0.25 -15.25 L-0.4 -15.6 0.25 -16.9 Q0.95 -17.9 1.4 -17.95 M2.1 -12.5 L2.9 -13.45 3.45 -14.6 3.65 -14.6 3.7 -14.2 3.2 -13.25 Q2.7 -12.7 2.2 -12.4 L2.1 -12.5 M2.35 -13.25 Q2.35 -12.85 1.75 -12.55 1.5 -12.65 1.5 -12.9 1.5 -13.4 2.3 -13.4 L2.35 -13.25 M3.65 -14.9 L5.0 -15.95 7.15 -16.75 7.3 -16.55 7.2 -16.3 6.7 -16.35 Q6.4 -16.35 5.25 -15.65 L3.7 -14.8 3.65 -14.9 M9.15 -16.2 Q9.15 -15.95 7.75 -15.25 L6.15 -14.5 6.15 -14.45 6.1 -14.6 Q6.1 -15.05 7.45 -15.65 L9.1 -16.4 9.15 -16.2 M8.2 -9.2 L8.15 -9.35 Q8.15 -9.65 8.95 -10.3 9.75 -11.0 9.75 -11.55 L9.85 -11.55 10.0 -10.75 9.35 -10.0 8.25 -9.2 8.2 -9.2 M4.65 -11.65 L6.1 -13.15 5.1 -11.5 4.9 -11.45 4.65 -11.65 M4.75 -0.5 Q4.4 -0.15 4.0 -0.15 3.0 -0.15 2.75 -0.75 L3.5 -1.0 3.2 -1.1 2.85 -1.3 4.85 -1.5 Q5.0 -1.8 5.0 -1.15 L4.75 -0.5 M12.9 -11.35 Q12.35 -10.8 11.75 -10.8 11.55 -10.8 11.3 -11.05 L13.1 -12.4 Q13.35 -12.25 13.55 -12.15 L12.9 -11.35 M14.9 -10.35 L15.05 -9.6 14.35 -8.95 13.6 -8.35 13.6 -8.3 Q13.6 -7.9 12.85 -7.25 L12.6 -7.5 12.9 -8.5 12.95 -8.75 13.35 -8.8 13.55 -8.5 14.2 -9.2 Q14.7 -9.8 14.7 -10.35 L14.9 -10.35 M11.5 -4.3 L11.35 -4.4 12.15 -6.05 12.25 -6.05 12.4 -5.65 Q12.4 -5.2 11.5 -4.3 M16.05 -4.0 Q16.0 -4.0 15.85 -4.15 L15.85 -5.6 16.05 -5.6 16.15 -4.5 16.05 -4.0 M26.6 -19.85 Q26.6 -19.5 24.0 -18.0 L23.9 -18.0 23.8 -18.15 24.8 -19.3 Q25.85 -20.15 26.55 -20.2 L26.6 -19.85 M24.25 -20.25 L24.3 -19.95 23.1 -19.4 22.85 -19.45 Q23.35 -20.4 24.25 -20.25 M22.05 -12.55 L21.0 -11.85 19.65 -11.4 21.75 -12.8 22.05 -12.55 M22.9 -11.5 Q22.9 -11.3 22.3 -11.05 L21.4 -10.8 21.2 -10.85 21.1 -10.95 21.8 -11.6 22.85 -11.65 22.9 -11.5 M32.7 -7.15 Q32.7 -7.4 33.5 -7.6 L34.6 -7.95 34.25 -7.25 Q33.9 -6.75 33.3 -6.75 32.8 -6.75 32.7 -6.95 L32.7 -7.15 M33.95 -3.75 L35.65 -3.55 35.7 -3.45 34.4 -3.15 33.4 -3.15 33.3 -3.4 Q33.3 -3.65 33.95 -3.75 M35.4 -5.4 L33.75 -4.95 32.25 -4.65 31.3 -4.85 31.25 -4.95 33.35 -5.4 35.4 -5.4 M34.25 0.8 Q34.25 0.2 34.6 0.0 34.95 0.2 34.95 0.8 L34.7 1.95 Q34.4 1.75 34.3 1.25 L34.25 0.8 M33.25 2.3 L32.5 1.2 Q32.5 0.4 32.85 0.2 33.6 0.8 33.6 1.7 L33.45 2.2 33.25 2.3 M31.45 3.5 L31.35 3.0 Q31.7 2.9 31.95 3.15 L32.3 3.55 32.05 3.85 Q31.6 3.85 31.45 3.5 M34.3 6.4 L34.8 6.6 35.7 7.1 Q35.6 7.3 35.25 7.3 L34.65 7.05 34.3 6.4 M20.5 14.35 L19.7 14.05 18.65 13.45 Q19.2 12.6 20.7 14.1 L20.7 14.2 Q20.75 14.35 20.5 14.35 M22.35 13.25 L22.2 13.35 18.95 12.45 18.95 12.25 20.6 12.6 Q21.95 13.0 22.35 13.25 M24.6 22.25 Q26.45 23.9 27.45 25.7 L27.25 25.85 24.5 22.6 24.6 22.25 M21.85 24.25 L21.8 25.3 21.5 25.4 Q21.05 25.4 21.05 24.55 L20.8 23.35 21.8 23.4 21.85 24.25 M29.15 19.3 Q28.55 18.7 28.2 18.7 28.7 18.15 29.3 18.55 L30.6 19.6 30.25 19.9 Q29.7 19.9 29.15 19.3 M27.3 21.05 L27.4 21.0 Q29.7 22.25 30.25 22.75 L30.0 23.1 Q27.2 21.7 27.2 21.25 L27.3 21.05 M3.55 10.45 L3.2 11.35 Q2.85 11.15 2.85 10.4 L2.9 9.9 3.4 9.5 3.7 9.85 3.55 10.45 M5.0 20.15 L5.75 20.9 6.5 22.1 6.3 22.45 Q5.9 22.25 5.5 21.45 L5.15 20.75 4.95 20.25 5.0 20.15 M0.65 23.5 L0.05 22.5 -0.4 21.3 Q-0.4 20.4 0.3 20.6 L0.8 21.9 1.1 22.55 1.25 22.7 Q1.6 23.1 1.6 23.7 1.6 24.1 1.1 24.1 0.6 24.1 0.65 23.5 M3.75 22.85 Q3.45 22.85 2.9 22.0 L2.4 21.25 Q2.4 19.2 3.3 20.6 L4.2 22.4 4.1 22.7 3.75 22.85 M7.75 20.7 L7.85 20.7 9.75 21.85 9.8 21.95 9.35 22.1 Q9.2 22.1 8.55 21.55 L7.75 20.7 M17.5 14.7 Q17.8 14.75 18.1 15.15 L18.8 15.95 18.65 16.1 Q18.05 16.1 17.75 15.5 L17.4 14.75 17.5 14.7 M10.95 20.85 Q10.4 20.75 10.3 20.45 L10.0 19.85 10.6 19.9 11.05 20.7 10.95 20.85 M19.1 23.5 Q19.0 23.7 19.5 24.15 L20.25 24.85 20.0 25.1 Q19.65 25.1 19.15 24.7 18.65 24.3 19.1 23.5 M19.05 26.5 Q18.5 26.45 18.05 25.95 17.55 25.5 17.6 25.1 L17.85 25.1 18.35 25.6 19.05 26.5 M13.3 29.4 L12.3 28.95 13.6 28.9 Q14.05 29.1 14.2 29.45 L13.65 29.55 13.3 29.4 M12.8 32.2 Q13.2 31.9 13.75 32.65 L14.8 33.95 14.4 34.25 Q13.9 34.25 13.4 33.4 L12.8 32.2 M11.3 33.25 L11.55 33.25 12.95 35.7 12.7 35.85 Q12.3 35.85 11.75 34.9 L11.25 33.9 11.3 33.25 M11.0 31.5 Q10.7 31.35 10.15 30.45 L9.65 29.4 9.8 29.2 9.9 29.15 Q11.1 30.05 11.25 31.25 L11.0 31.5 M16.25 32.9 L15.95 32.6 16.0 32.6 16.7 33.2 16.25 32.9 M7.95 28.95 Q8.15 30.4 9.2 32.2 L9.1 32.5 9.0 32.55 8.25 31.0 7.75 29.4 7.8 28.95 7.95 28.95 M4.8 30.9 L5.0 31.8 5.0 32.9 4.8 33.0 4.55 33.0 4.5 32.3 4.65 30.9 4.8 30.9 M2.15 35.0 L2.4 35.0 2.6 35.7 2.4 37.0 2.1 37.85 Q1.8 37.6 1.8 37.0 L2.0 36.05 2.15 35.0 M4.35 34.7 L5.35 37.7 5.25 37.85 Q4.55 37.75 4.15 37.05 3.95 36.5 3.7 34.2 L4.2 34.2 4.35 34.7 M5.4 31.95 L5.4 31.75 5.75 32.1 5.65 32.2 5.4 31.95 M9.2 36.85 L8.75 37.15 Q8.4 37.15 7.95 36.1 L7.55 35.0 Q7.55 34.55 7.9 34.25 L8.5 35.5 9.2 36.85 M5.05 35.25 L5.95 37.35 6.55 38.65 6.4 38.65 5.1 35.65 5.05 35.25 M-4.0 -37.15 L-3.95 -37.0 -4.15 -33.8 -4.25 -33.75 -4.45 -35.65 -4.4 -37.15 -4.0 -37.15 M-7.6 -35.1 L-7.5 -35.35 -7.25 -34.9 -7.35 -34.55 -7.5 -34.5 -7.75 -34.9 -7.6 -35.1 M-5.55 -26.4 L-5.55 -24.8 -5.25 -23.1 -5.35 -23.05 Q-5.75 -23.45 -5.75 -24.45 L-5.65 -26.4 -5.55 -26.4 M-22.55 -10.15 L-19.5 -9.5 -20.65 -9.25 Q-22.1 -9.25 -24.05 -10.15 -23.6 -10.35 -22.55 -10.15 M-22.9 -12.05 Q-22.35 -12.75 -20.85 -12.4 -19.35 -12.1 -19.15 -11.15 L-19.1 -11.05 -19.5 -11.0 Q-20.15 -11.0 -21.35 -11.5 L-22.9 -12.05 M-4.55 -23.85 L-4.45 -24.6 -4.3 -24.6 -4.15 -23.85 -4.25 -23.3 -4.35 -23.25 -4.55 -23.85 M-2.05 -18.95 L-2.15 -18.95 -2.25 -19.3 -2.25 -19.9 -2.05 -19.9 -1.95 -19.6 -2.05 -18.95 M-9.05 -23.7 L-8.7 -22.75 -8.75 -22.4 -8.9 -22.25 -9.2 -22.9 -9.65 -23.6 -9.05 -23.7 M-5.25 -19.65 L-5.0 -19.4 -5.0 -18.4 Q-5.4 -18.3 -5.5 -18.6 L-5.75 -19.2 -5.25 -19.65 M-7.0 -20.8 Q-7.7 -21.5 -7.75 -23.0 L-8.0 -25.35 Q-7.35 -24.9 -7.2 -23.35 L-7.0 -20.8 M-6.75 -16.9 L-7.85 -18.05 -7.8 -18.35 -7.75 -18.4 -6.95 -17.8 -6.5 -17.25 -6.6 -16.95 -6.75 -16.9 M-9.3 -14.1 L-9.35 -14.25 -8.8 -14.85 -7.45 -15.05 -7.3 -14.8 -9.25 -14.1 -9.3 -14.1 M-8.5 -12.6 Q-8.5 -13.05 -7.75 -13.75 -7.0 -14.55 -6.25 -14.75 L-6.2 -14.6 -7.2 -13.6 -8.4 -12.55 -8.5 -12.6 M-6.0 -15.0 L-5.1 -16.4 -3.9 -17.65 -3.65 -17.35 -4.65 -15.8 -5.7 -14.55 -6.0 -15.0 M-2.7 -13.1 L-1.8 -14.2 -0.5 -15.1 -0.2 -14.45 -1.25 -13.55 -2.35 -12.8 -2.6 -12.85 -2.7 -13.1 M-11.5 -13.35 Q-11.5 -12.9 -11.75 -12.5 L-12.25 -13.4 -11.75 -14.0 -11.5 -13.35 M-1.0 -2.25 Q-1.55 -1.7 -3.15 -1.4 L-3.3 -1.4 -3.5 -2.0 -1.75 -2.5 -1.0 -2.25 M-6.0 8.1 Q-6.0 8.35 -7.65 8.9 L-7.9 8.45 -6.95 7.85 Q-6.0 7.5 -6.0 8.1 M-5.75 10.6 L-3.7 8.85 Q-3.55 9.0 -3.55 9.25 L-5.65 10.8 -5.75 10.6 M-6.5 10.5 L-5.0 8.25 Q-4.75 8.35 -4.75 8.65 L-5.4 9.6 -6.5 10.5 M-3.1 11.9 L-3.6 12.55 -3.9 12.25 -3.7 11.4 -3.2 10.65 -2.95 11.2 -3.1 11.9 M-0.8 9.45 L-1.05 12.45 -1.3 12.55 Q-1.9 12.55 -1.75 11.4 L-1.7 10.4 -0.8 9.45 M-13.5 17.7 L-12.7 16.75 -13.2 16.7 -12.85 16.55 -12.3 16.5 -12.25 16.85 -12.75 17.9 Q-13.25 18.75 -13.6 18.75 L-13.85 18.7 -13.95 18.45 -13.5 17.7 M-15.05 16.85 Q-15.4 16.6 -15.4 16.05 L-15.3 15.95 -16.65 16.45 -17.7 16.3 -17.7 16.1 -17.15 15.4 -16.3 14.6 -17.95 14.5 -17.45 13.75 -16.95 13.2 -17.3 13.7 -17.85 14.4 -16.0 14.35 -15.95 14.75 -17.05 15.85 -17.05 16.0 -16.6 16.0 Q-16.35 15.7 -14.9 15.45 -14.6 15.6 -14.6 15.9 -14.6 16.3 -14.85 16.5 L-13.95 16.7 -15.05 16.85 M-10.5 18.0 Q-10.5 18.65 -11.35 20.2 L-11.5 20.25 -11.75 20.2 -11.8 19.45 -10.7 17.55 -10.5 18.0 M-5.1 19.8 L-4.85 20.1 -4.65 20.5 -5.3 22.5 Q-5.95 22.5 -5.8 21.85 L-5.5 20.9 Q-5.25 20.3 -5.3 19.85 L-5.1 19.8 M-9.35 20.0 L-8.5 18.95 -8.15 19.2 -9.0 20.5 Q-9.55 21.4 -9.45 21.85 L-9.55 21.95 Q-9.95 21.6 -9.95 21.15 -9.95 20.9 -9.35 20.0 M-3.1 21.4 L-2.9 22.6 -2.9 23.35 -3.15 23.5 -3.45 22.9 -3.25 21.4 -3.1 21.4 M-35.05 11.8 Q-34.85 11.25 -33.6 10.65 -32.45 10.1 -31.85 10.05 L-31.75 10.25 -33.1 11.05 -35.05 11.8 M-31.55 13.25 L-31.45 13.45 -32.15 14.5 -33.15 15.55 -33.35 15.55 -33.4 15.35 -32.65 14.15 -31.75 13.2 -31.55 13.25 M-31.95 16.8 Q-30.65 15.5 -30.1 15.55 L-30.0 15.75 -31.9 16.85 -31.95 16.8 M-36.35 13.8 Q-34.15 11.45 -32.95 12.2 -35.85 14.35 -36.0 14.35 L-36.35 13.8 M-23.85 18.0 Q-23.85 18.25 -24.8 18.85 L-25.75 19.4 -26.3 19.35 -25.45 18.5 Q-24.6 17.9 -24.0 17.75 L-23.85 18.0 M-30.0 18.5 L-30.1 18.35 Q-30.1 17.9 -28.5 16.95 -27.0 16.05 -26.7 16.05 L-26.55 16.45 Q-26.55 16.9 -28.05 17.7 -29.35 18.4 -30.0 18.5 M-26.15 17.45 L-28.4 19.05 -28.65 18.8 Q-26.85 17.0 -26.4 16.95 -26.15 17.15 -26.15 17.45 M-22.5 27.15 Q-22.5 27.45 -23.4 28.7 L-24.8 30.15 Q-23.1 27.45 -22.9 26.75 L-22.55 26.75 -22.5 27.15 M-20.55 30.0 Q-20.25 31.5 -20.25 32.35 -20.25 33.2 -20.75 33.4 L-21.1 33.0 -21.15 32.35 -21.0 30.0 -20.55 30.0 M-5.45 30.5 Q-4.95 31.45 -4.95 32.25 L-5.05 32.8 -5.2 32.85 -5.8 31.55 -5.65 30.5 -5.45 30.5 M-6.4 32.35 L-6.45 32.45 Q-6.9 32.2 -6.9 31.8 L-6.8 31.2 -6.7 31.2 -6.6 31.75 -6.4 32.35 M-8.4 32.05 Q-8.05 32.55 -7.45 34.1 L-7.45 34.2 -7.65 34.25 Q-8.25 34.25 -8.7 32.45 L-8.4 32.05 M-9.8 35.05 Q-10.0 36.25 -10.55 37.5 L-10.9 37.5 -11.05 37.4 -11.05 37.0 -11.1 35.3 -11.5 35.5 -11.75 35.4 -11.8 35.05 -11.55 34.05 -11.25 33.0 -10.8 33.0 -10.55 33.75 -9.65 32.85 -9.8 35.05 M-12.5 30.55 L-12.5 30.5 -12.2 30.55 -12.15 30.85 -12.35 31.0 -12.4 30.95 -12.8 32.0 Q-13.35 32.9 -14.0 33.0 L-13.3 31.55 Q-12.9 30.75 -12.55 30.5 L-12.5 30.55 M-15.6 27.75 L-15.55 27.95 -16.8 30.0 -16.9 30.0 -16.5 28.85 -15.7 27.75 -15.6 27.75 M-17.85 27.1 L-17.8 27.55 -18.3 28.4 -19.3 29.25 -17.9 27.15 -17.85 27.1 M-18.25 29.85 L-17.55 30.0 -18.0 30.85 Q-18.0 31.35 -18.15 31.5 L-18.3 31.5 -18.3 29.9 -18.25 29.85 M-17.3 33.25 Q-17.15 31.1 -15.8 30.75 -16.0 32.35 -17.0 34.25 L-17.3 33.25" fill="#5a493f" fill-rule="evenodd" stroke="none"/>
    <path d="M2.8 -3.85 L2.65 -3.95 Q2.3 -3.95 1.9 -2.6 1.9 -1.95 2.3 -1.95 4.5 -1.95 4.65 -3.05 4.65 -3.55 4.05 -3.85 L2.25 -4.7 Q3.8 -5.25 4.75 -4.4 5.45 -3.8 5.45 -3.05 5.45 -2.55 5.0 -2.1 4.3 -1.35 2.85 -1.35 1.45 -1.35 1.45 -2.15 L1.75 -3.4 Q2.05 -4.35 2.35 -4.35 L2.95 -4.2 2.8 -3.85 M0.8 3.25 Q0.8 1.05 2.85 1.45 4.9 1.9 4.9 3.55 4.9 4.85 2.9 4.85 1.55 4.85 1.05 4.1 L0.8 3.25 M1.4 3.25 Q1.4 4.1 2.5 4.1 4.1 4.1 4.1 3.55 4.1 2.7 2.75 2.15 1.4 1.6 1.4 3.25 M-4.4 -4.3 Q-5.0 -3.1 -5.0 -2.5 -5.0 -1.95 -4.0 -1.95 -2.65 -1.95 -2.9 -2.65 -2.9 -3.05 -3.35 -3.55 -3.8 -4.15 -4.4 -4.3 M-5.45 -2.5 Q-5.45 -5.15 -3.8 -4.65 -2.2 -4.2 -2.2 -2.75 -2.2 -1.35 -3.3 -1.35 -5.45 -1.35 -5.45 -2.5 M-4.05 0.95 Q-2.85 0.95 -2.3 2.2 L-1.95 3.5 -1.95 4.3 Q-2.05 4.9 -2.55 4.9 -5.35 4.9 -5.35 3.3 -4.7 1.75 -4.15 1.55 L-4.7 1.3 -4.05 0.95 M-3.9 4.35 L-2.7 4.3 -2.65 3.8 Q-2.65 2.3 -3.8 1.9 -4.95 1.55 -4.95 3.3 L-4.7 3.95 Q-4.35 4.35 -3.9 4.35" fill="#5a493f" fill-rule="evenodd" stroke="none"/>
  </g>
</svg>
