<?xml version="1.0" encoding="UTF-8" standalone="no"?>
<svg xmlns:xlink="http://www.w3.org/1999/xlink" height="104.5px" width="82.75px" xmlns="http://www.w3.org/2000/svg">
  <g transform="matrix(1.0, 0.0, 0.0, 1.0, 39.25, 53.65)">
    <path d="M39.25 -41.55 Q39.75 -40.9 39.75 -39.1 39.75 -38.4 37.4 -36.15 35.0 -33.85 35.0 -32.75 L42.0 -15.85 Q42.0 -13.55 38.65 -12.0 32.6 -9.2 30.0 -7.25 32.85 4.75 33.3 7.9 34.0 12.35 34.0 20.5 34.0 25.55 32.25 27.3 29.8 29.75 22.0 29.75 15.75 29.75 11.4 27.8 4.4 24.65 4.25 17.0 -4.85 10.95 -10.45 5.3 -16.4 -0.6 -20.25 -7.75 L-25.55 -6.05 Q-28.85 -5.0 -32.0 -5.0 -37.05 -5.0 -38.5 -7.35 -39.0 -8.15 -39.0 -10.0 -39.0 -11.65 -37.55 -12.95 L-31.75 -18.25 Q-37.1 -21.0 -37.95 -21.75 -39.25 -22.95 -39.25 -25.75 -39.25 -26.45 -31.2 -32.75 -23.3 -38.95 -21.5 -39.75 L-20.75 -40.5 -24.2 -40.7 -29.5 -41.25 -29.85 -42.1 Q-30.25 -42.8 -30.25 -44.25 -30.25 -44.75 -25.7 -47.4 -20.45 -50.45 -15.55 -52.1 -0.45 -57.15 1.5 -45.75 5.25 -46.35 9.55 -48.2 13.1 -49.75 16.5 -49.75 23.5 -49.75 24.35 -47.0 24.6 -46.1 24.2 -44.85 L23.75 -43.25 23.25 -42.5 27.15 -43.1 32.0 -43.75 Q37.65 -43.75 39.25 -41.55" fill="#cc6666" fill-opacity="0.3019608" fill-rule="evenodd" stroke="none"/>
    <path d="M26.5 -47.25 Q35.8 -47.25 39.05 -44.25 40.5 -42.85 40.5 -40.85 40.5 -39.4 39.4 -37.95 37.95 -36.1 35.75 -36.25 L36.35 -35.2 Q36.75 -34.4 36.75 -32.85 36.75 -31.6 35.5 -30.8 34.25 -30.0 34.25 -28.75 L36.65 -24.15 Q39.0 -19.65 39.0 -19.0 39.0 -17.65 38.25 -16.4 36.95 -14.25 33.75 -13.75 L34.7 -12.55 Q35.25 -11.55 35.25 -10.0 35.25 -9.35 34.25 -6.25 33.25 -3.15 33.25 -2.1 33.25 -0.8 32.1 0.85 30.7 2.9 28.5 3.5 L28.5 8.5 Q32.9 9.05 34.9 11.1 36.25 12.5 36.25 14.1 36.25 16.3 33.95 17.85 31.45 19.55 27.0 19.75 27.5 21.85 29.25 25.1 30.75 27.85 30.75 29.1 30.75 30.85 28.55 32.5 26.5 34.0 25.0 34.0 L14.75 31.95 Q4.2 29.3 1.0 26.0 -1.0 24.0 -2.35 21.8 -4.0 19.05 -4.0 17.0 -4.0 15.4 -3.35 14.4 L-1.75 12.5 Q-6.3 11.45 -10.15 7.3 -13.9 3.35 -13.0 1.25 -23.65 0.8 -24.25 -2.8 -24.55 -4.75 -22.75 -7.75 -22.75 -9.45 -25.75 -12.1 -28.75 -14.8 -28.75 -16.85 -28.75 -18.45 -28.25 -19.25 L-27.0 -20.75 -26.75 -21.0 Q-33.6 -21.55 -35.2 -23.55 -35.75 -24.2 -35.75 -27.0 -35.75 -31.55 -33.3 -34.0 -31.65 -35.6 -27.85 -36.9 -23.65 -38.3 -22.45 -39.15 -20.0 -40.85 -20.0 -44.25 L-18.45 -47.35 Q-16.55 -50.4 -15.0 -50.5 9.8 -52.1 16.65 -50.25 19.15 -49.55 19.7 -48.3 L20.0 -46.25 23.25 -46.85 26.5 -47.25" fill="#cc6666" fill-opacity="0.3019608" fill-rule="evenodd" stroke="none"/>
    <path d="M21.75 -38.5 L27.2 -39.45 31.5 -40.25 36.5 -39.75 36.9 -39.1 Q37.25 -38.55 37.25 -37.1 37.25 -35.05 34.05 -33.75 29.15 -31.75 17.5 -31.75 9.75 -31.75 3.95 -33.25 L-2.0 -34.75 Q-20.25 -34.65 -25.25 -36.0 -27.0 -36.5 -27.3 -37.2 L-27.25 -38.25 Q-27.25 -40.0 -19.2 -41.95 -11.35 -43.85 -1.65 -44.6 9.05 -45.45 15.45 -44.3 23.05 -42.9 22.25 -39.0 L21.75 -38.5" fill="#cc6666" fill-opacity="0.3019608" fill-rule="evenodd" stroke="none"/>
    <path d="M33.15 -4.8 Q31.5 -2.75 31.5 -1.5 31.5 -0.4 34.25 1.8 37.0 4.05 37.0 6.0 37.0 7.8 32.25 12.75 27.25 18.0 24.5 18.0 19.05 18.0 18.2 14.75 17.9 13.5 18.5 11.0 16.05 9.45 15.0 9.45 L7.0 9.75 Q-0.65 9.75 -4.45 5.45 -6.5 3.15 -8.5 -0.75 -17.85 -10.9 -26.95 -9.8 -29.1 -9.55 -31.8 -8.7 -33.5 -8.4 -33.5 -10.1 -33.5 -16.6 -32.8 -17.85 -31.6 -19.9 -26.05 -20.0 L-6.4 -19.35 Q13.05 -18.5 33.0 -18.5 40.9 -18.5 43.0 -16.3 43.5 -15.75 43.5 -13.85 43.5 -11.95 41.9 -10.95 38.95 -9.15 30.5 -9.0 34.0 -6.8 33.15 -4.8" fill="#cc6666" fill-opacity="0.3019608" fill-rule="evenodd" stroke="none"/>
    <path d="M-11.5 45.75 Q-11.5 46.9 -12.2 48.0 -13.2 49.5 -15.0 49.5 -17.5 49.5 -18.25 47.7 L-18.5 45.6 Q-18.5 40.2 -16.7 20.8 -15.0 1.75 -14.5 0.75 -11.5 38.6 -11.5 45.75" fill="#cc6666" fill-opacity="0.3019608" fill-rule="evenodd" stroke="none"/>
    <path d="M32.0 49.0 L31.25 49.65 Q30.5 50.25 29.0 50.25 26.7 50.25 25.75 47.9 25.25 46.6 25.25 45.25 25.25 37.55 26.35 32.75 27.35 28.35 28.75 28.05 30.2 27.7 31.15 31.75 32.25 36.3 32.25 44.5 L32.0 49.0" fill="#cc6666" fill-opacity="0.3019608" fill-rule="evenodd" stroke="none"/>
    <path d="M32.5 38.25 Q31.9 41.75 29.0 41.75 26.1 41.75 25.5 37.5 L25.5 34.1 Q25.5 25.7 29.0 26.55 30.4 26.9 31.4 28.95 32.5 31.1 32.5 34.1 L32.5 38.25" fill="#cc6666" fill-opacity="0.3019608" fill-rule="evenodd" stroke="none"/>
    <path d="M-12.8 28.3 Q-13.3 37.25 -16.0 37.25 -18.8 37.25 -19.3 27.0 -19.55 21.95 -19.25 17.25 -19.25 6.9 -18.25 0.95 -17.3 -4.35 -16.0 -4.25 -14.7 -4.1 -13.75 1.3 -12.75 7.35 -12.75 17.35 L-12.8 28.3" fill="#cc6666" fill-opacity="0.3019608" fill-rule="evenodd" stroke="none"/>
    <path d="M-16.75 2.35 L-14.4 2.45 Q-12.6 3.65 -12.6 4.9 -12.6 5.4 -13.4 5.6 L-13.35 5.75 Q-12.6 6.1 -12.6 6.95 L-13.2 7.9 Q-12.65 16.55 -12.95 34.55 L-13.0 50.5 Q-13.0 50.85 -13.6 50.85 -14.2 50.85 -14.35 42.75 L-14.35 34.6 Q-14.35 15.75 -14.05 8.45 L-14.6 8.5 Q-15.2 8.5 -15.4 7.9 L-15.45 7.25 Q-15.45 6.5 -14.35 6.5 L-16.5 5.4 Q-16.2 10.65 -16.2 20.25 L-16.35 46.85 -16.45 50.35 -17.1 50.5 Q-17.8 50.5 -17.95 48.75 L-17.95 46.85 -17.45 0.15 Q-17.45 -0.2 -17.6 -0.4 L-17.95 -0.75 Q-17.85 -1.0 -17.5 -1.0 -17.05 -0.5 -16.75 2.35 M-16.6 3.7 L-16.65 3.6 -16.55 4.6 Q-16.35 4.3 -15.6 4.35 -16.25 4.25 -16.6 3.7 M30.8 27.9 L31.5 28.5 30.85 29.1 31.15 46.5 31.05 50.25 30.65 50.5 Q30.25 50.05 30.15 48.3 L30.05 46.5 30.15 35.9 30.05 32.2 28.8 32.25 27.25 32.1 Q28.25 30.35 28.85 30.5 L30.05 31.45 30.05 30.7 30.1 29.45 29.0 29.6 29.9 29.65 30.05 30.0 29.85 30.3 29.25 30.4 27.0 30.3 27.15 35.1 27.4 44.0 27.4 48.6 26.9 48.75 Q25.8 44.65 25.75 39.1 L25.9 29.7 Q25.9 28.9 26.15 28.3 L25.15 27.65 27.2 27.15 Q28.85 26.7 30.35 27.15 L30.65 25.75 30.8 27.9 M30.25 27.7 L30.25 27.55 29.9 27.65 30.25 27.7 M27.15 28.1 L27.7 28.0 27.4 28.0 27.15 28.1" fill="#5b5546" fill-rule="evenodd" stroke="none"/>
    <path d="M-9.75 -40.0 Q-9.6 -39.65 -9.6 -38.95 -9.6 -38.15 -9.75 -37.75 L-10.1 -37.75 -10.2 -38.0 -10.2 -40.0 -9.75 -40.0 M-21.1 -49.2 L-21.1 -47.75 -21.35 -44.75 -21.45 -44.75 -21.25 -37.6 -21.25 -37.25 -19.45 -37.25 Q-18.95 -41.9 -18.35 -43.0 -17.85 -42.35 -17.85 -41.2 L-18.45 -39.2 Q-18.9 -37.8 -19.3 -37.25 L-16.85 -37.25 -14.1 -37.25 -14.35 -37.5 -14.35 -39.25 -14.0 -39.25 -13.8 -38.0 -13.65 -37.25 22.15 -37.25 21.15 -38.0 21.15 -39.65 21.4 -39.65 21.55 -38.5 Q21.5 -37.8 22.15 -37.4 L22.15 -37.25 32.65 -37.25 Q31.65 -38.25 31.65 -39.1 31.65 -40.15 32.25 -40.35 L32.85 -38.95 33.15 -37.5 33.15 -37.25 34.9 -37.25 Q34.55 -38.2 34.5 -40.7 L34.1 -41.35 Q33.4 -42.4 33.4 -42.6 L33.45 -43.0 33.55 -43.25 34.0 -43.25 34.55 -42.6 34.7 -46.15 34.95 -49.25 18.75 -49.1 -21.1 -49.35 -21.1 -49.2 M-22.1 -49.35 L-22.6 -49.35 Q-22.75 -49.1 -22.75 -49.75 L-22.7 -49.85 -22.4 -50.15 -21.85 -50.15 -21.8 -50.75 -21.7 -50.85 -21.7 -50.4 -21.6 -50.5 -21.4 -50.15 16.15 -50.5 34.0 -50.35 35.15 -50.2 35.15 -50.25 35.2 -50.2 35.65 -49.85 35.5 -49.25 35.35 -49.25 35.55 -46.1 35.75 -41.45 35.7 -37.25 35.95 -37.25 36.4 -37.75 36.45 -37.25 36.65 -37.25 36.8 -36.75 36.55 -36.4 36.65 -34.95 36.9 -26.8 36.85 -26.2 36.9 -18.9 36.9 -15.9 Q36.65 -15.75 36.4 -15.75 L36.15 -16.35 Q36.0 -16.1 35.4 -16.0 L34.65 -15.9 34.7 -14.9 35.5 -14.9 35.6 -14.95 35.65 -14.6 35.65 -14.25 35.55 -14.25 34.75 -14.2 35.15 -0.2 35.15 15.85 35.15 27.85 34.65 28.0 34.35 27.65 32.15 27.8 20.65 28.0 15.75 28.0 14.4 27.95 12.9 28.05 12.85 28.0 12.8 28.0 12.7 27.85 -22.15 -3.25 -35.45 -15.5 -35.35 -15.9 -36.0 -15.95 -36.1 -15.85 -36.15 -15.95 -36.6 -16.25 -36.25 -16.35 -36.8 -19.8 -36.85 -24.0 -36.6 -37.5 -35.7 -37.5 -35.65 -37.05 -22.45 -37.25 -22.5 -37.6 -22.2 -45.05 -22.1 -46.6 -22.2 -47.85 -22.1 -49.35 M-16.55 -42.95 Q-16.55 -44.55 -15.75 -45.0 L-15.6 -44.95 -15.6 -44.55 Q-15.6 -41.05 -16.75 -40.6 -16.5 -41.05 -16.55 -42.95 M-21.85 -35.65 L-22.3 -36.4 -35.1 -36.4 -35.65 -36.3 -35.45 -24.05 -35.25 -20.4 Q-35.2 -17.8 -35.7 -16.5 L-32.7 -16.75 -20.85 -16.85 27.85 -16.8 28.95 -17.1 30.8 -17.15 30.8 -19.5 31.25 -19.5 31.4 -18.05 31.4 -17.15 35.9 -17.0 36.0 -16.95 35.8 -18.95 35.9 -26.4 35.9 -26.85 35.25 -32.9 Q35.05 -35.05 35.5 -36.35 L-21.3 -36.4 -21.35 -35.9 -21.85 -35.65 M29.25 -41.25 L29.0 -39.85 28.65 -39.85 28.5 -41.35 Q28.5 -42.1 29.0 -42.1 L29.25 -41.25 M-26.5 -24.75 L-27.1 -23.75 -27.25 -23.75 Q-26.85 -24.75 -26.85 -26.0 L-26.4 -26.0 -26.35 -25.6 -26.5 -24.75 M-31.2 -18.25 L-30.6 -19.35 Q-29.95 -20.3 -29.85 -21.0 L-29.5 -21.0 -29.35 -20.25 Q-29.35 -19.8 -30.85 -17.5 -31.2 -17.75 -31.2 -18.25 M-33.15 -21.3 L-33.1 -20.85 Q-33.1 -20.6 -33.65 -19.75 -34.35 -18.8 -34.85 -18.75 L-34.05 -20.4 -33.35 -21.4 Q-33.25 -21.3 -33.15 -21.3 M-34.05 -15.7 L1.25 16.1 13.45 27.15 Q15.2 26.9 20.65 27.0 31.05 27.0 34.0 27.15 33.05 25.4 33.3 22.35 34.05 17.8 34.05 15.8 L34.15 -0.25 33.05 -8.8 Q32.65 -12.2 33.45 -14.2 L31.85 -14.15 31.9 -13.55 31.8 -12.9 31.5 -12.85 31.4 -13.6 31.45 -14.15 30.75 -14.15 29.05 -14.15 29.15 -13.2 28.9 -12.0 28.75 -12.0 28.55 -13.2 28.7 -14.15 5.8 -14.3 Q-19.25 -14.45 -22.0 -14.65 L29.15 -14.9 31.5 -14.9 31.5 -15.35 31.65 -15.35 31.75 -14.9 32.4 -14.9 32.4 -15.0 33.6 -14.9 33.8 -14.9 34.6 -15.9 32.1 -15.85 32.0 -15.75 5.4 -15.75 -14.35 -15.75 -34.25 -15.85 -34.05 -15.7 M34.4 -22.0 Q32.35 -23.75 32.25 -24.5 L32.25 -24.6 33.25 -23.55 34.4 -22.0 M29.85 -22.3 L30.4 -21.4 30.4 -21.25 Q29.65 -21.45 29.35 -22.0 L28.9 -23.0 29.15 -23.15 29.85 -22.3 M33.05 -19.25 L33.5 -19.25 33.65 -18.55 33.5 -17.75 33.15 -17.75 33.05 -18.0 33.05 -19.25 M23.15 -24.9 L22.9 -24.6 Q22.5 -25.05 22.1 -26.2 L21.4 -27.85 22.5 -27.0 Q23.15 -26.3 23.15 -25.85 L23.15 -24.9 M25.25 -17.4 Q24.55 -17.7 24.5 -18.45 L24.15 -19.85 24.4 -19.9 25.5 -17.6 25.25 -17.4 M24.4 -13.6 L24.3 -13.0 24.15 -12.75 Q23.9 -12.9 23.9 -13.5 L23.9 -14.0 24.35 -14.0 24.4 -13.6 M30.5 -10.75 L30.75 -9.7 30.45 -8.4 29.0 -6.85 29.6 -8.6 30.05 -10.75 30.5 -10.75 M19.0 22.05 L19.05 22.45 18.15 24.25 Q17.9 24.1 17.9 23.5 L17.9 23.0 Q18.0 22.7 18.9 22.1 L19.0 22.05 M31.9 19.85 L31.2 19.6 Q30.55 19.25 30.15 18.4 L31.1 18.65 Q31.85 19.0 32.05 19.5 L31.9 19.85 M16.8 -19.65 L16.5 -19.6 16.4 -20.5 16.4 -21.9 16.65 -21.9 16.9 -20.5 16.8 -19.65 M-20.35 -20.7 L-20.45 -19.85 -21.1 -18.75 Q-21.45 -19.0 -21.45 -19.5 L-21.2 -20.3 -20.95 -21.25 -20.5 -21.25 -20.35 -21.15 -20.35 -20.7 M-20.75 -12.75 L-20.35 -11.75 Q-20.35 -11.15 -20.45 -11.4 L-20.75 -11.15 -21.75 -13.75 -21.6 -13.85 -20.75 -12.75 M12.5 20.25 L11.9 22.35 11.75 22.35 11.65 21.25 Q11.65 20.55 12.5 20.25 M6.3 16.9 Q5.75 17.3 5.25 17.35 L5.15 17.15 6.15 16.55 6.55 16.5 Q6.85 16.55 6.3 16.9 M15.0 23.75 L13.65 24.75 Q14.4 22.15 15.15 21.0 15.65 21.5 15.65 22.3 L15.0 23.75 M31.3 27.0 Q30.0 26.8 29.7 25.85 L29.15 23.65 29.4 23.6 30.4 25.3 31.3 27.0 M19.65 32.85 L19.85 33.5 19.5 33.3 19.4 32.65 19.65 32.85" fill="#5b5546" fill-rule="evenodd" stroke="none"/>
  </g>
</svg>
