<?xml version="1.0" encoding="UTF-8" standalone="no"?>
<svg xmlns:xlink="http://www.w3.org/1999/xlink" height="53.0px" width="136.4px" xmlns="http://www.w3.org/2000/svg">
  <g transform="matrix(1.0, 0.0, 0.0, 1.0, 44.9, 31.65)">
    <path d="M37.5 -27.6 Q41.8 -29.05 43.15 -29.05 44.55 -29.05 46.9 -27.6 L49.05 -26.1 Q50.6 -26.1 54.7 -28.3 L58.85 -30.5 Q60.9 -30.5 61.3 -29.5 61.65 -28.45 62.1 -28.45 66.5 -28.45 70.5 -30.85 74.55 -30.5 84.0 -30.5 L85.35 -30.55 85.45 -30.1 85.8 -27.0 85.8 -26.25 Q86.65 -28.45 89.75 -28.45 L91.05 -28.25 91.35 -27.05 91.5 -22.8 91.35 -19.85 90.45 -18.2 90.95 -16.65 90.9 -16.5 90.25 -12.15 Q90.25 -11.0 91.0 -10.0 L90.15 -7.7 89.05 -4.85 87.0 -4.95 Q83.9 -4.75 83.9 -3.8 83.9 -3.25 84.25 -3.05 L86.35 -2.75 88.1 -2.85 86.95 -0.8 86.9 -0.6 Q89.6 -1.55 90.75 0.7 L90.95 1.1 Q89.5 1.25 88.6 3.5 88.05 4.8 87.85 6.2 L87.9 6.8 Q88.2 7.35 89.25 7.35 L89.7 7.25 87.15 11.3 85.8 13.3 Q86.65 13.35 87.1 14.0 L87.4 14.95 Q87.4 15.8 86.1 16.6 84.7 17.5 83.1 17.5 L82.35 17.45 81.3 17.95 Q79.35 17.95 78.75 16.3 L78.25 16.15 75.6 15.3 74.1 14.75 70.45 15.25 68.25 15.75 Q67.3 15.75 66.55 15.2 L65.85 14.6 Q65.6 14.6 62.9 15.7 60.15 16.75 59.0 16.75 56.95 16.75 56.5 15.8 L56.5 14.65 56.5 14.5 54.2 15.25 Q52.25 16.0 51.0 16.0 48.95 16.0 48.4 15.25 L48.15 14.1 46.2 14.65 43.0 15.0 40.8 14.55 40.25 13.5 Q38.75 13.65 35.7 15.05 32.75 16.4 32.1 16.4 30.85 16.4 30.1 15.25 L27.5 16.0 Q23.0 16.0 22.55 14.15 20.45 15.7 20.0 15.7 18.75 15.7 18.0 14.05 17.55 13.05 17.45 12.0 11.8 16.1 9.7 16.1 8.0 16.1 7.4 14.2 7.25 13.65 7.25 12.9 6.1 13.85 5.75 13.85 4.8 13.85 4.4 13.1 L4.1 12.35 3.4 12.9 2.25 13.25 Q0.85 13.25 0.25 9.7 1.45 8.85 3.0 7.75 L2.5 7.25 Q1.85 7.45 -1.5 9.35 -2.7 8.65 -3.55 6.5 L-4.35 3.2 Q-4.35 0.45 -2.9 -1.7 L-4.2 -0.6 -5.05 0.0 Q-4.5 -0.7 -4.5 -1.25 -4.5 -2.75 -7.95 -1.75 L-8.05 -2.0 Q-8.3 -3.1 -8.15 -4.35 -8.15 -7.05 -7.05 -8.45 L-5.1 -10.85 -5.25 -10.85 Q-6.35 -10.85 -6.65 -12.2 L-6.75 -13.7 -4.55 -16.5 -5.2 -17.6 Q-5.6 -18.35 -5.6 -20.6 -5.6 -22.4 -2.45 -27.8 L-0.7 -30.5 -0.2 -30.5 4.5 -31.65 4.85 -31.4 5.9 -31.15 9.8 -31.55 Q11.6 -30.9 12.05 -30.9 L21.9 -29.8 Q23.3 -29.8 23.95 -27.95 L24.45 -25.55 26.85 -27.0 Q28.75 -28.1 29.85 -28.1 31.35 -28.1 32.25 -27.05 L32.95 -26.1 37.5 -27.6 M91.35 2.6 L91.0 2.5 91.25 2.05 91.35 2.6" fill="#5b5546" fill-opacity="0.3019608" fill-rule="evenodd" stroke="none"/>
    <path d="M18.9 -23.1 Q22.85 -21.3 22.85 -16.2 22.85 -14.95 21.9 -13.5 20.75 -11.8 19.55 -11.8 17.75 -11.8 17.1 -13.15 16.75 -13.85 16.5 -15.5 9.0 -14.0 7.45 -15.35 L6.7 -16.35 Q6.35 -16.95 5.35 -16.95 4.0 -16.95 1.9 -14.8 L-1.05 -11.8 Q-2.15 -12.25 -2.35 -13.3 L-2.45 -14.6 Q-2.45 -17.25 1.5 -19.95 5.3 -22.6 10.25 -23.6 15.5 -24.7 18.9 -23.1" fill="#5b5546" fill-opacity="0.3019608" fill-rule="evenodd" stroke="none"/>
    <path d="M29.2 -14.55 L29.2 -14.4 29.15 -15.65 Q29.15 -16.35 30.8 -14.3 33.8 -13.2 39.7 -18.8 L46.35 -19.3 Q52.6 -19.3 54.05 -21.65 55.5 -24.05 57.9 -24.05 60.25 -24.05 61.0 -22.3 61.8 -20.6 63.55 -20.6 65.8 -20.6 67.2 -21.8 68.65 -22.95 73.8 -22.95 75.85 -22.95 76.7 -20.85 L77.15 -18.5 Q77.15 -15.25 74.75 -15.25 L72.3 -16.05 Q70.45 -16.95 69.85 -16.95 L68.75 -15.5 Q67.8 -14.0 66.8 -14.0 62.75 -14.0 60.0 -16.3 L57.9 -18.55 Q57.35 -18.55 54.15 -15.7 50.95 -12.9 46.2 -12.9 L35.7 -13.45 32.15 -13.8 Q29.45 -14.15 29.2 -14.55" fill="#5b5546" fill-opacity="0.3019608" fill-rule="evenodd" stroke="none"/>
    <path d="M22.65 -3.9 Q22.65 -8.3 30.75 -9.1 L53.7 -9.25 Q55.5 -9.25 56.25 -7.35 56.75 -6.3 56.75 -5.3 56.75 -3.55 54.65 -1.9 52.6 -0.45 50.65 -0.45 50.1 -0.45 49.4 -1.2 48.7 -1.9 48.1 -1.9 L45.2 -1.2 Q42.85 -0.45 42.25 -0.45 39.95 -0.45 39.1 -2.5 38.2 -4.65 37.8 -4.65 31.65 -4.65 29.25 -2.95 26.9 -1.35 25.6 -1.35 23.4 -1.35 22.8 -2.5 22.65 -2.85 22.65 -3.9" fill="#5b5546" fill-opacity="0.3019608" fill-rule="evenodd" stroke="none"/>
    <path d="M66.8 1.1 Q64.7 -1.25 64.7 -2.35 64.7 -5.2 66.1 -5.35 L69.9 -5.0 76.7 -6.45 Q82.3 -7.0 82.3 -2.3 81.9 -0.65 80.35 0.85 77.3 3.8 71.5 3.8 69.25 3.8 66.8 1.1" fill="#5b5546" fill-opacity="0.3019608" fill-rule="evenodd" stroke="none"/>
    <path d="M-24.8 -0.4 L-24.1 0.3 Q-13.7 -0.15 -10.2 0.05 -4.6 0.4 -4.6 3.75 -4.6 6.45 -5.3 7.0 -6.25 7.8 -12.25 9.5 L-13.0 9.8 -10.2 9.45 -7.75 9.05 Q-5.15 9.05 -4.35 10.15 -4.1 10.5 -4.1 11.35 -4.1 12.15 -4.8 12.9 -5.9 14.1 -8.35 14.05 L-8.2 14.25 Q-8.1 14.25 -8.1 15.0 -8.1 15.55 -9.5 17.05 -11.1 18.8 -12.5 18.8 L-30.5 17.8 Q-37.35 16.65 -37.35 13.8 -37.35 11.9 -36.3 9.95 -34.8 7.15 -31.5 5.3 L-31.75 4.0 Q-32.8 3.0 -38.1 2.5 L-38.3 2.35 Q-38.5 2.15 -38.5 1.4 -29.0 -1.1 -27.0 -1.1 -25.5 -1.1 -24.8 -0.4" fill="#5b5546" fill-opacity="0.3019608" fill-rule="evenodd" stroke="none"/>
    <path d="M-5.1 7.0 L-5.5 10.35 Q-5.5 12.3 -6.3 14.0 -7.35 16.3 -9.5 16.3 -12.05 16.3 -12.65 14.25 L-12.75 12.1 -12.65 10.3 Q-12.45 9.65 -11.1 8.0 L-11.0 7.8 Q-14.55 7.35 -14.75 6.0 L-14.35 3.75 Q-14.35 3.05 -14.75 2.8 L-17.0 1.5 Q-11.7 -1.85 -7.85 0.0 -4.75 1.5 -4.75 4.0 L-5.1 7.0" fill="#5b5546" fill-opacity="0.3019608" fill-rule="evenodd" stroke="none"/>
    <path d="M-22.35 5.85 L-23.6 5.85 Q-25.75 5.75 -29.25 8.05 L-29.35 8.25 Q-27.8 8.95 -22.75 9.9 -19.35 10.5 -19.35 11.85 -19.35 13.15 -20.35 13.5 L-23.5 13.75 Q-25.1 13.75 -30.05 11.75 -35.8 9.4 -37.25 7.25 -33.0 5.1 -27.95 4.35 -22.35 3.55 -22.35 5.85" fill="#5b5546" fill-opacity="0.3019608" fill-rule="evenodd" stroke="none"/>
    <path d="M14.9 -2.1 Q14.35 -2.1 13.65 -2.6 12.95 -3.1 12.35 -3.1 11.25 -3.1 10.05 -1.65 8.8 -0.25 8.0 -0.25 6.9 -0.25 3.5 -2.0 L-0.4 -4.25 -0.4 -5.0 1.25 -5.1 3.5 -4.75 Q3.35 -6.35 3.7 -6.95 4.15 -7.75 5.65 -7.75 9.15 -7.75 8.5 -5.5 11.0 -9.65 14.15 -8.65 17.1 -7.7 17.1 -4.55 17.1 -2.1 14.9 -2.1" fill="#669900" fill-opacity="0.3019608" fill-rule="evenodd" stroke="none"/>
    <path d="M61.15 -20.0 L62.4 -20.25 63.85 -20.0 64.0 -19.95 64.1 -19.15 Q64.1 -18.55 61.3 -15.0 58.6 -11.45 58.15 -11.45 56.3 -11.45 55.4 -13.95 L54.8 -16.6 Q57.6 -25.4 60.25 -19.7 L61.15 -20.0" fill="#669900" fill-opacity="0.3019608" fill-rule="evenodd" stroke="none"/>
    <path d="M64.3 -13.95 Q59.15 -13.95 57.9 -14.6 57.65 -14.75 57.65 -15.4 57.65 -17.35 61.0 -18.05 64.85 -18.9 70.8 -17.2 69.85 -15.9 67.15 -14.8 65.05 -13.95 64.3 -13.95" fill="#669900" fill-opacity="0.3019608" fill-rule="evenodd" stroke="none"/>
    <path d="M6.4 -17.25 L1.8 -15.5 Q1.25 -15.5 0.4 -16.05 -0.45 -16.6 -1.1 -16.6 L-3.1 -15.95 Q-4.45 -15.35 -5.1 -15.35 L-6.5 -15.6 -6.75 -15.75 -6.85 -16.55 -6.5 -19.35 -6.55 -19.55 -5.8 -19.75 Q-3.8 -19.75 -3.65 -19.25 -3.7 -19.0 -4.25 -18.65 L-4.95 -18.1 -4.95 -17.85 Q-0.3 -19.35 6.45 -23.45 8.7 -24.5 9.7 -23.9 10.9 -23.2 10.9 -20.05 10.9 -19.15 6.4 -17.25" fill="#669900" fill-opacity="0.3019608" fill-rule="evenodd" stroke="none"/>
    <path d="M13.3 -29.75 L13.55 -29.4 13.7 -28.4 Q13.7 -27.6 12.8 -27.25 L9.95 -26.0 10.25 -25.15 10.4 -23.9 Q10.4 -23.3 10.0 -22.4 9.55 -21.4 8.95 -21.1 7.2 -21.6 6.7 -23.45 L6.6 -25.65 Q6.6 -28.0 7.1 -28.6 8.35 -29.85 13.3 -29.75" fill="#669900" fill-opacity="0.3019608" fill-rule="evenodd" stroke="none"/>
    <path d="M79.6 -20.1 L79.5 -21.0 Q79.5 -21.55 80.75 -22.25 82.55 -23.15 83.75 -24.75 L83.9 -24.55 84.0 -25.3 83.15 -26.25 Q82.3 -27.0 82.3 -27.35 82.3 -29.6 84.65 -28.7 87.05 -27.8 87.05 -25.15 87.05 -23.75 84.7 -21.6 82.6 -19.6 81.8 -19.6 L79.7 -19.85 79.6 -20.1" fill="#669900" fill-opacity="0.3019608" fill-rule="evenodd" stroke="none"/>
    <path d="M80.45 -22.35 Q81.55 -22.6 86.4 -22.35 86.6 -22.85 86.6 -21.6 86.6 -20.95 86.15 -20.65 L84.9 -20.1 86.6 -18.2 Q88.0 -16.4 88.0 -16.05 88.0 -15.05 87.35 -14.35 L86.6 -13.85 79.2 -20.4 Q79.2 -22.05 80.45 -22.35" fill="#669900" fill-opacity="0.3019608" fill-rule="evenodd" stroke="none"/>
    <path d="M36.65 -28.85 Q37.35 -29.3 42.75 -28.0 L47.3 -30.05 Q51.65 -31.35 52.05 -27.35 L49.95 -27.4 49.25 -27.6 Q48.1 -27.6 45.35 -26.1 42.65 -24.6 37.85 -24.6 35.0 -24.6 34.45 -23.95 L33.25 -22.75 Q32.05 -23.35 32.05 -24.5 L31.05 -23.75 Q30.65 -23.35 29.9 -23.35 29.15 -23.35 28.75 -24.5 L28.55 -25.85 Q28.55 -27.3 32.05 -28.35 34.9 -29.25 37.05 -29.25 L36.65 -28.85" fill="#669900" fill-opacity="0.3019608" fill-rule="evenodd" stroke="none"/>
    <path d="M89.75 4.3 Q89.45 5.0 88.75 5.0 87.85 5.0 87.2 3.85 L86.4 2.4 Q83.05 4.75 82.25 4.75 81.25 4.75 80.9 4.35 80.55 3.9 80.2 3.9 79.95 3.9 77.8 5.65 75.7 7.35 73.1 7.35 L68.85 6.8 67.5 5.65 Q67.8 5.25 69.55 5.65 71.8 6.2 75.15 4.15 L77.1 2.65 Q79.2 1.15 80.25 1.15 81.3 1.15 81.8 1.55 L82.5 1.9 84.55 0.45 Q86.1 -1.0 88.75 -1.0 89.55 -1.0 90.0 3.3 L89.75 4.3" fill="#669900" fill-opacity="0.3019608" fill-rule="evenodd" stroke="none"/>
    <path d="M87.7 6.95 Q87.15 7.75 86.35 7.75 85.55 7.75 84.75 6.95 L83.65 6.15 Q81.2 6.15 80.7 7.1 80.25 8.0 79.5 8.0 77.6 8.0 77.6 6.2 77.6 3.7 83.4 3.25 84.5 0.15 86.4 2.3 88.1 4.2 88.1 5.65 88.1 6.25 87.7 6.95" fill="#669900" fill-opacity="0.3019608" fill-rule="evenodd" stroke="none"/>
    <path d="M35.3 -2.2 L38.85 -1.75 45.25 -2.2 46.45 -2.7 Q46.95 -2.7 47.25 -2.25 L47.45 -1.7 47.3 -1.1 46.95 -0.7 Q48.25 0.5 49.05 0.55 L51.7 0.4 Q53.8 0.4 54.4 0.85 L54.85 1.55 53.8 2.45 Q52.35 3.15 49.45 3.15 L46.6 1.9 Q44.15 0.65 43.9 0.65 L33.7 1.15 Q32.85 1.15 32.6 0.55 L32.55 -0.15 Q32.55 -2.25 35.3 -2.2" fill="#669900" fill-opacity="0.3019608" fill-rule="evenodd" stroke="none"/>
    <path d="M43.25 -2.15 L43.8 -2.05 46.75 -3.7 Q48.35 -4.8 48.35 -2.65 L47.9 -2.1 47.0 -1.05 46.85 -0.75 Q47.95 -0.45 48.35 0.0 L48.6 0.8 46.75 6.4 Q45.7 6.4 45.35 5.2 L45.25 3.95 Q45.25 2.7 45.75 1.75 L45.75 1.65 Q43.9 1.8 43.75 0.35 L42.25 0.95 40.25 1.25 Q38.75 1.25 38.1 0.4 L37.75 -0.45 42.0 -3.55 Q42.55 -3.55 42.8 -2.95 L42.85 -2.25 43.25 -2.15" fill="#669900" fill-opacity="0.3019608" fill-rule="evenodd" stroke="none"/>
    <path d="M28.75 9.25 Q28.75 9.8 28.3 9.9 L25.25 10.1 22.5 9.5 21.15 11.0 Q20.05 12.0 19.5 12.0 18.45 12.0 18.15 11.25 L18.1 10.5 Q18.1 9.75 18.35 8.9 18.75 7.65 19.5 7.65 19.95 7.65 20.5 8.5 21.7 7.15 25.3 7.85 28.75 8.45 28.75 9.25" fill="#669900" fill-opacity="0.3019608" fill-rule="evenodd" stroke="none"/>
    <path d="M-5.85 3.75 Q-6.25 4.8 -7.5 4.8 -8.7 4.8 -9.2 3.7 -9.55 2.8 -9.35 2.3 -12.1 2.95 -14.75 1.8 -16.1 1.25 -17.0 0.55 L-23.0 0.8 -25.45 1.2 -29.5 1.8 -30.05 1.8 Q-30.25 1.75 -30.25 1.0 L-30.0 0.25 Q-21.4 -1.25 -14.95 -1.4 -5.6 -1.6 -5.6 1.6 -5.6 3.1 -5.85 3.75" fill="#669900" fill-opacity="0.3019608" fill-rule="evenodd" stroke="none"/>
    <path d="M-26.6 -3.05 L-22.35 -2.65 Q-11.7 -0.25 -6.85 -0.25 L-6.65 0.0 Q-6.5 0.25 -6.5 1.0 -6.5 2.05 -8.0 2.5 L-14.0 3.05 -21.4 2.05 -27.75 0.8 -27.9 0.45 -28.1 -0.6 Q-28.1 -2.65 -26.6 -3.05" fill="#669900" fill-opacity="0.3019608" fill-rule="evenodd" stroke="none"/>
    <path d="M-7.5 3.25 Q-6.15 3.25 -4.85 3.75 L-4.65 3.65 Q-4.5 3.7 -4.5 4.5 -4.5 5.15 -10.5 10.5 -16.65 16.0 -18.0 16.0 -19.65 16.0 -20.25 15.0 L-20.5 13.85 Q-20.5 12.25 -19.6 11.25 L-16.1 8.25 Q-17.3 8.05 -17.65 7.0 L-17.75 5.65 Q-17.75 2.3 -16.0 3.25 -12.3 5.3 -10.65 5.3 L-9.45 4.3 Q-8.3 3.25 -7.5 3.25" fill="#669900" fill-opacity="0.3019608" fill-rule="evenodd" stroke="none"/>
    <path d="M-13.0 17.75 Q-14.35 17.75 -15.05 16.3 L-15.75 14.5 -21.1 13.8 Q-22.1 13.45 -22.1 12.35 -22.1 10.6 -20.4 10.0 L-16.65 10.1 Q-11.25 11.7 -11.25 15.65 -11.25 17.75 -13.0 17.75" fill="#669900" fill-opacity="0.3019608" fill-rule="evenodd" stroke="none"/>
    <path d="M-34.2 10.2 L-34.1 11.05 Q-34.1 12.65 -35.55 13.55 -37.7 14.9 -43.5 15.25 L-44.5 14.25 -44.75 13.5 -43.65 11.55 -42.6 9.85 Q-42.6 9.1 -40.35 9.35 L-34.35 10.3 -34.2 10.2" fill="#669900" fill-opacity="0.3019608" fill-rule="evenodd" stroke="none"/>
    <path d="M-30.85 12.55 Q-34.6 14.95 -35.15 14.5 -36.65 13.35 -40.5 13.8 L-42.7 13.8 -42.85 13.0 Q-42.85 11.7 -40.65 11.5 L-31.0 12.25 -30.85 12.55" fill="#669900" fill-opacity="0.3019608" fill-rule="evenodd" stroke="none"/>
    <path d="M21.5 -26.15 L21.35 -26.15 21.25 -27.3 20.8 -28.9 19.85 -28.9 18.45 -28.4 Q17.25 -28.0 17.0 -27.7 L16.9 -27.7 Q16.95 -29.65 19.35 -29.55 21.75 -29.4 21.75 -27.85 L21.7 -27.3 21.5 -26.15 M22.3 -25.25 L22.65 -21.0 22.45 -20.15 22.65 -20.0 25.75 -19.55 25.95 -21.3 26.2 -21.3 26.45 -19.95 26.45 -19.5 27.85 -19.5 Q28.35 -19.95 28.35 -20.6 L28.35 -21.8 28.55 -21.8 28.8 -20.45 28.8 -20.0 Q28.65 -19.65 27.85 -19.5 L28.1 -19.5 Q30.05 -19.5 30.85 -20.5 30.7 -20.9 30.7 -21.25 L31.2 -21.2 31.3 -21.7 31.8 -24.2 Q31.6 -25.3 31.0 -26.2 L29.75 -27.3 24.55 -27.85 21.95 -28.1 Q27.55 -29.05 30.4 -27.9 L30.5 -27.9 Q34.6 -28.9 36.6 -28.5 L37.45 -28.15 41.0 -28.6 42.55 -28.65 43.5 -28.65 Q45.7 -29.8 46.45 -28.5 47.35 -29.05 48.3 -29.1 L55.95 -28.7 Q57.5 -29.75 60.1 -29.4 L62.6 -28.75 62.6 -28.85 Q62.6 -29.15 63.5 -29.45 L66.5 -29.75 66.95 -29.1 Q67.75 -29.95 71.25 -29.85 75.0 -29.8 75.65 -28.2 78.2 -29.3 80.05 -29.4 81.35 -29.55 83.0 -28.8 L84.4 -27.95 85.05 -27.35 85.7 -27.5 86.65 -27.65 Q88.6 -27.95 89.45 -27.3 L89.7 -26.95 Q90.05 -26.3 90.05 -24.3 90.05 -23.2 89.55 -22.2 L88.9 -21.3 88.9 -21.25 88.55 -20.6 89.6 -19.7 89.9 -18.15 Q89.9 -17.65 88.75 -17.2 89.9 -16.35 90.75 -13.75 L90.65 -12.3 Q90.65 -12.0 90.05 -12.0 L89.6 -12.1 89.35 -12.3 89.15 -14.7 Q88.7 -16.0 86.75 -16.6 L86.4 -16.55 86.85 -16.4 84.9 -16.15 84.0 -16.05 83.45 -15.95 82.95 -15.35 Q80.45 -14.95 79.9 -13.7 79.15 -13.35 79.15 -12.8 L79.25 -12.0 79.4 -11.4 79.6 -11.0 79.45 -10.8 79.45 -10.4 79.0 -8.9 78.45 -8.1 78.55 -8.05 79.55 -7.3 79.55 -6.85 Q79.5 -6.7 79.25 -6.7 L78.4 -7.3 77.8 -7.75 77.6 -7.75 75.95 -8.15 74.5 -8.6 74.5 -8.5 74.3 -8.4 70.45 -8.4 69.35 -7.9 69.1 -7.25 68.4 -7.0 68.3 -6.9 Q68.15 -6.85 68.15 -7.25 68.15 -7.75 68.5 -7.95 L68.5 -8.0 68.6 -8.0 69.1 -8.05 Q70.7 -8.3 70.75 -10.55 L71.0 -10.6 71.1 -11.5 70.9 -12.1 Q70.65 -12.4 70.65 -12.75 L70.85 -13.2 71.3 -13.75 72.05 -12.2 72.25 -10.6 Q72.25 -9.85 71.65 -9.2 L74.05 -8.8 73.9 -8.9 74.5 -8.75 75.45 -8.5 Q78.05 -8.5 78.4 -10.05 L78.8 -11.45 78.45 -12.0 Q78.3 -12.4 78.3 -13.0 78.3 -14.55 79.35 -15.7 L79.85 -16.1 78.3 -16.4 Q77.45 -16.65 77.45 -16.9 L77.5 -17.15 77.3 -16.95 77.1 -16.5 Q77.1 -15.9 76.4 -15.5 75.5 -15.0 73.55 -15.0 L70.85 -15.0 71.2 -14.75 70.75 -14.0 70.45 -13.9 Q70.15 -13.85 70.15 -14.25 L70.25 -15.05 70.35 -15.05 69.05 -15.4 69.5 -16.45 71.8 -16.25 74.45 -16.5 74.5 -16.5 Q76.0 -16.5 76.55 -17.45 76.85 -18.05 76.8 -18.75 L77.2 -18.75 77.5 -17.55 77.5 -17.9 83.0 -17.15 84.1 -17.55 88.9 -19.0 88.25 -20.2 88.2 -20.2 87.25 -19.5 84.1 -20.15 84.05 -20.25 83.95 -20.75 Q83.95 -21.6 85.35 -21.75 L88.25 -21.75 88.95 -23.5 89.1 -25.85 Q89.1 -26.45 88.65 -26.7 L86.5 -27.25 85.05 -26.2 84.75 -24.9 84.25 -24.9 84.05 -27.1 82.3 -28.05 80.15 -29.0 Q78.4 -28.85 75.8 -27.8 L75.8 -27.45 75.8 -27.3 75.3 -26.15 74.9 -27.3 74.5 -28.2 Q74.05 -29.35 71.2 -29.35 68.85 -29.35 67.75 -28.8 L67.4 -28.55 67.7 -28.2 67.7 -28.35 68.0 -28.35 67.95 -27.3 67.9 -26.6 67.9 -26.4 67.9 -26.15 Q67.95 -24.7 68.85 -24.0 68.95 -24.95 69.35 -25.4 69.8 -24.75 69.8 -23.5 L69.8 -22.9 71.1 -22.85 71.05 -24.15 Q71.05 -24.85 71.35 -25.45 71.8 -26.2 71.9 -27.25 L72.25 -27.25 72.5 -25.9 71.85 -22.75 72.05 -22.75 Q73.1 -23.1 73.55 -23.9 74.45 -25.5 75.1 -25.65 L74.85 -24.4 Q74.85 -23.8 74.25 -22.9 L76.65 -22.75 79.45 -22.65 83.05 -23.1 Q83.35 -23.4 83.45 -24.0 L84.15 -23.75 Q84.15 -23.7 83.95 -23.6 83.8 -23.55 83.8 -23.15 83.8 -22.2 83.1 -21.8 82.15 -21.3 79.55 -21.3 L78.0 -21.35 77.65 -20.85 77.25 -20.25 77.1 -18.9 76.95 -18.9 76.75 -20.75 76.35 -21.55 75.15 -21.8 75.6 -21.5 75.45 -21.2 75.45 -20.75 75.35 -20.05 75.1 -20.0 75.0 -20.25 75.0 -20.95 Q74.35 -21.45 73.3 -21.75 72.75 -21.25 72.4 -21.25 L71.55 -21.25 71.45 -20.9 71.35 -21.25 69.25 -21.35 68.7 -21.15 68.75 -21.4 68.5 -21.5 68.1 -21.95 67.25 -21.9 67.05 -21.8 67.0 -21.95 67.0 -22.0 66.95 -22.4 66.25 -21.95 Q65.35 -21.5 64.6 -21.5 63.25 -21.5 62.75 -22.0 L62.7 -22.1 Q61.45 -20.6 57.0 -20.5 L56.95 -20.25 56.7 -20.15 56.7 -20.5 56.5 -20.5 56.85 -19.15 Q56.85 -18.05 56.35 -17.05 55.6 -15.4 53.85 -15.4 L51.4 -15.75 50.95 -15.85 Q50.9 -16.75 50.35 -17.2 L51.4 -17.25 52.2 -16.85 53.3 -16.5 Q55.8 -16.5 56.05 -18.5 L55.8 -20.5 54.7 -20.65 54.75 -20.75 52.65 -20.65 49.55 -20.75 Q47.65 -20.75 46.9 -22.0 L46.5 -23.15 46.3 -21.6 Q45.85 -19.3 45.85 -17.8 L46.0 -17.25 45.95 -17.05 46.4 -17.05 45.9 -16.25 45.3 -16.2 45.05 -16.0 Q43.85 -16.0 42.55 -16.55 41.45 -17.1 41.45 -17.4 L41.45 -17.85 39.85 -18.5 39.05 -18.5 Q37.1 -18.5 36.4 -19.1 36.85 -18.65 37.85 -18.4 L37.85 -18.15 Q37.85 -18.0 37.5 -18.0 37.9 -17.4 37.9 -16.05 L37.85 -14.9 37.05 -13.65 36.8 -13.75 Q36.65 -13.85 36.65 -14.25 L37.15 -17.5 Q37.15 -17.75 35.95 -18.05 L35.8 -18.1 31.65 -19.0 32.35 -19.05 Q31.85 -19.3 31.5 -19.6 31.05 -19.25 30.2 -18.95 L26.15 -18.35 26.05 -18.0 25.85 -17.9 25.75 -18.15 25.7 -18.3 24.55 -18.3 Q22.8 -18.3 21.95 -18.75 20.3 -14.4 18.65 -14.4 L17.85 -14.5 17.5 -15.0 Q20.25 -16.65 21.2 -19.4 L21.15 -19.5 21.25 -20.3 21.25 -20.4 21.5 -20.45 21.85 -25.25 22.3 -25.25 M31.6 -27.3 Q32.25 -26.55 32.25 -25.65 L32.2 -24.25 32.1 -24.05 32.25 -22.65 32.05 -21.5 31.9 -20.7 32.15 -20.45 Q33.15 -19.4 35.65 -20.25 L37.3 -20.25 37.4 -20.15 37.5 -19.75 37.3 -19.5 37.4 -19.5 37.9 -19.5 38.1 -20.5 38.3 -21.75 38.45 -21.75 38.55 -21.2 38.3 -20.2 38.1 -19.55 Q40.7 -19.8 41.3 -22.2 41.65 -23.5 41.4 -24.9 L41.2 -26.25 Q40.7 -27.15 38.95 -27.05 L39.15 -26.75 39.15 -26.4 38.7 -26.25 Q38.15 -26.25 37.45 -27.3 L37.25 -27.45 37.2 -27.55 36.8 -27.55 Q36.65 -27.6 36.65 -27.85 L36.7 -27.95 Q36.3 -28.35 36.1 -28.35 L32.75 -27.95 Q32.0 -27.6 31.65 -27.6 L31.1 -27.6 31.6 -27.3 M39.2 -27.6 L38.35 -27.55 38.65 -27.35 39.2 -27.6 M2.8 -29.95 L-0.25 -29.55 -1.55 -29.15 -1.6 -29.05 -1.55 -29.05 -1.8 -28.05 -1.75 -27.3 -1.65 -25.3 Q-1.0 -24.55 -1.0 -23.55 L-1.0 -22.05 Q-0.55 -20.75 0.15 -20.2 L0.7 -20.6 Q0.1 -21.7 0.1 -22.65 L0.1 -24.5 0.35 -24.5 1.15 -22.4 1.3 -21.1 1.3 -20.75 1.35 -20.8 2.9 -20.85 3.0 -20.9 2.95 -22.05 Q2.95 -23.9 3.4 -24.35 3.75 -23.95 3.75 -21.95 L3.75 -21.3 Q5.2 -22.2 5.2 -23.25 L4.95 -24.4 4.7 -25.6 4.95 -28.95 5.4 -28.95 5.75 -27.3 5.85 -26.35 6.05 -25.0 6.05 -26.65 6.1 -27.3 Q6.2 -28.8 6.95 -29.25 L6.8 -28.85 6.6 -28.3 6.7 -27.3 6.9 -24.6 7.3 -21.15 Q7.3 -21.35 7.65 -21.15 L8.45 -20.6 9.1 -20.65 Q8.95 -21.15 8.95 -21.7 L9.05 -24.1 9.4 -24.1 9.5 -21.8 9.5 -20.7 12.8 -21.6 Q13.6 -21.8 13.95 -21.35 L14.85 -22.85 Q16.05 -24.8 16.05 -25.55 L15.75 -27.3 15.65 -27.95 Q15.65 -28.2 14.8 -28.5 L12.7 -29.3 Q15.8 -29.75 16.75 -27.9 L17.0 -27.3 17.15 -24.1 Q17.15 -23.6 16.05 -22.05 L15.15 -20.85 16.25 -19.2 Q17.7 -17.0 17.7 -16.35 17.7 -15.65 16.3 -13.8 16.95 -14.35 17.7 -14.25 L17.0 -13.0 Q17.15 -12.7 17.45 -12.5 L17.7 -12.3 17.6 -12.8 17.6 -13.0 17.95 -12.75 18.65 -12.55 29.3 -13.8 Q33.4 -14.4 34.55 -12.05 L34.4 -11.55 Q34.15 -11.25 33.3 -11.25 L32.3 -11.85 Q31.35 -12.45 29.65 -12.5 30.2 -11.95 30.2 -10.8 L30.0 -8.8 29.95 -8.75 30.1 -6.75 29.45 -5.95 31.0 -5.9 31.65 -5.8 Q35.9 -5.8 36.65 -6.6 L37.4 -7.75 Q37.75 -7.2 37.75 -6.5 37.75 -6.15 37.15 -5.55 L39.7 -5.7 40.3 -4.7 38.95 -4.65 35.05 -4.8 32.05 -5.15 30.65 -5.75 28.7 -5.55 28.55 -5.5 26.9 -4.9 27.4 -5.0 25.5 -4.65 23.25 -4.5 22.65 -4.5 22.65 -4.75 23.6 -4.7 Q23.0 -4.8 22.9 -5.0 26.95 -5.35 28.6 -7.35 L29.65 -9.05 29.25 -11.05 Q29.2 -11.9 28.4 -12.5 L24.65 -12.1 21.75 -11.75 18.55 -11.8 18.65 -11.65 Q18.75 -11.3 18.2 -11.3 17.1 -11.3 16.45 -13.05 L16.3 -12.55 16.3 -12.5 Q16.85 -12.05 17.05 -10.75 L17.3 -7.9 17.4 -9.15 Q17.35 -10.85 18.2 -11.05 17.95 -10.3 17.95 -8.65 17.95 -6.05 18.85 -5.5 L18.8 -5.75 18.85 -6.15 19.0 -6.25 19.15 -6.25 19.6 -5.85 18.95 -5.3 18.9 -5.4 18.9 -5.25 18.85 -5.15 18.45 -5.15 Q17.65 -5.15 17.15 -5.95 L17.1 -6.05 15.35 -5.5 13.35 -5.45 12.7 -6.6 11.55 -6.4 11.7 -6.15 Q10.9 -5.2 10.2 -4.75 8.85 -3.9 5.95 -3.9 L2.35 -4.2 Q2.15 -4.4 2.15 -5.15 L2.4 -5.5 2.75 -5.15 Q2.9 -5.0 3.25 -5.0 8.85 -5.0 10.35 -5.7 L11.4 -6.4 11.9 -9.45 10.65 -10.15 10.5 -10.35 Q10.65 -10.7 10.95 -10.75 L10.05 -10.75 Q8.85 -11.55 6.2 -11.4 L4.95 -11.25 4.85 -11.3 3.05 -10.85 Q1.55 -10.35 0.6 -10.15 L0.45 -10.4 Q-0.4 -9.75 -0.4 -8.65 L-0.75 -7.95 Q-1.05 -7.5 -0.7 -6.4 L-1.5 -6.15 -1.85 -7.75 Q-1.85 -8.5 -0.7 -9.9 L0.2 -10.85 0.05 -11.05 -0.65 -11.45 0.15 -12.15 0.9 -13.15 Q0.25 -13.95 0.25 -15.55 L0.45 -16.95 0.35 -17.3 0.15 -18.95 -0.15 -18.95 -0.45 -19.35 -1.1 -19.25 -1.3 -19.25 Q-1.75 -18.1 -2.5 -18.1 L-2.95 -18.1 Q-5.35 -17.9 -6.0 -17.4 L-6.15 -16.5 -5.85 -13.55 -5.7 -12.65 Q-5.45 -11.4 -3.5 -11.4 -3.2 -11.4 -2.95 -10.9 L-2.8 -10.4 Q-2.8 -9.9 -3.2 -9.75 L-3.75 -9.65 -4.9 -7.05 Q-6.0 -4.7 -6.25 -2.45 L-5.3 -1.8 -5.35 -1.7 -6.25 -2.35 -6.35 -1.0 -6.4 0.35 -6.4 0.45 -5.65 0.4 Q-4.3 0.45 -4.1 0.95 -1.85 0.7 -1.05 -0.7 -0.55 -1.6 -0.2 -3.05 L-0.05 -2.65 Q-0.05 -1.75 -0.9 -0.3 -2.0 1.65 -3.75 1.65 L-4.5 1.6 -4.7 2.25 -4.95 3.1 -4.95 3.65 Q-3.25 2.6 -2.05 3.35 -4.2 3.85 -4.2 4.0 L-4.3 4.05 -4.95 3.9 -4.9 5.5 -4.6 6.85 Q-4.3 7.45 -4.3 7.75 L-4.4 8.05 -4.75 8.15 Q-5.6 8.15 -5.8 6.7 L-5.8 5.15 -5.7 2.95 Q-5.55 2.0 -5.1 1.6 L-5.55 1.6 -7.2 1.25 -7.25 1.0 -7.55 -1.0 Q-7.55 -4.7 -7.25 -5.7 -6.8 -7.35 -4.95 -9.7 -6.85 -10.1 -6.85 -12.5 L-6.8 -13.3 -6.9 -13.2 -6.95 -15.3 Q-6.95 -17.75 -5.75 -18.45 L-7.2 -19.25 Q-7.7 -19.75 -7.7 -20.95 -7.7 -22.1 -6.75 -24.2 -5.65 -26.55 -4.6 -26.7 L-5.0 -27.2 Q-3.25 -26.45 -2.4 -25.9 L-2.4 -25.95 -2.35 -27.3 -2.0 -29.15 -1.65 -29.05 -1.7 -29.3 Q-1.7 -30.2 0.1 -30.55 2.15 -30.95 4.45 -29.55 L4.2 -29.4 2.8 -29.95 M8.0 -28.2 L7.65 -28.05 Q6.95 -28.6 6.95 -28.95 6.95 -29.55 9.05 -29.85 11.3 -30.2 12.45 -29.05 L12.1 -28.75 7.85 -28.8 Q7.65 -28.65 8.0 -28.2 M11.65 -23.35 Q12.0 -23.1 12.0 -22.45 L11.95 -21.9 11.65 -21.5 Q11.15 -21.9 11.15 -22.55 L11.25 -23.15 11.65 -23.35 M11.15 -20.15 Q10.2 -19.7 9.3 -19.7 7.95 -19.7 7.8 -20.0 L7.8 -20.1 7.55 -20.05 7.75 -19.35 7.4 -19.1 6.75 -20.05 4.65 -20.0 3.6 -19.4 3.55 -19.35 3.4 -19.2 3.35 -19.35 2.55 -19.2 2.35 -19.2 Q2.35 -18.75 2.2 -18.95 L0.9 -18.95 0.95 -18.45 1.35 -18.35 1.3 -17.85 1.2 -17.1 1.25 -16.55 Q1.35 -15.85 1.6 -15.1 L1.55 -15.05 2.0 -13.95 Q2.0 -13.8 3.15 -13.25 L3.65 -12.95 3.9 -12.95 4.15 -13.05 8.15 -12.9 10.7 -12.75 Q12.2 -12.65 12.6 -12.0 L12.95 -12.6 14.25 -14.35 Q14.4 -14.25 14.5 -14.25 L14.6 -13.85 Q14.6 -13.35 13.65 -12.3 L13.35 -11.95 Q15.2 -12.5 16.45 -15.85 L15.75 -17.4 14.55 -19.75 14.55 -20.3 14.25 -20.1 14.15 -19.45 13.75 -19.2 12.5 -20.6 11.15 -20.15 M10.55 -12.95 L11.95 -14.95 Q12.05 -14.85 12.15 -14.85 L12.2 -14.4 Q12.2 -13.6 10.7 -12.85 L10.55 -12.95 M18.55 -16.65 Q19.1 -18.15 19.85 -18.5 L19.8 -17.4 Q19.6 -16.9 18.75 -16.65 L18.55 -16.65 M7.45 -20.5 L7.65 -20.45 7.5 -20.6 7.35 -20.95 7.45 -20.5 M5.55 -20.7 L6.45 -20.6 Q6.25 -21.0 6.2 -21.45 L6.2 -21.5 5.55 -20.7 M0.95 -19.75 L1.3 -19.7 1.3 -19.9 1.3 -19.95 1.05 -19.95 1.0 -19.85 0.95 -19.75 M7.75 -6.4 L7.7 -5.9 7.6 -5.75 Q7.45 -5.95 7.45 -6.3 L7.5 -6.8 7.6 -6.8 7.75 -6.4 M10.05 -6.75 L10.15 -6.65 10.15 -5.9 10.0 -5.75 9.85 -6.0 9.85 -6.75 10.05 -6.75 M9.6 -7.45 Q9.6 -5.9 8.75 -5.65 L8.6 -5.7 9.35 -8.5 9.6 -7.45 M1.65 -4.3 Q1.3 -3.95 0.4 -3.95 -0.3 -3.95 -0.95 -4.4 -1.5 -4.8 -1.5 -5.1 L-1.45 -5.5 -0.85 -5.5 -0.9 -5.15 Q-0.9 -4.65 0.25 -4.45 L1.65 -4.3 M9.6 -0.4 L9.45 -0.45 9.5 -0.45 9.75 -0.4 9.75 -0.5 Q9.75 -2.6 10.0 -2.95 10.55 -2.5 10.4 -0.4 10.3 1.2 13.2 2.05 L12.25 2.15 11.25 2.35 Q10.0 2.35 9.75 0.95 L9.75 -0.35 9.6 -0.4 M8.35 -0.05 Q7.0 1.1 4.35 1.2 L4.25 1.25 4.2 1.25 3.95 1.3 Q3.5 1.45 3.0 2.15 L3.75 4.3 3.85 4.2 5.05 4.9 Q6.35 5.55 8.2 5.55 L9.4 5.4 10.05 5.2 10.15 5.3 9.35 6.05 7.45 6.5 Q6.1 6.5 4.75 5.9 L3.85 5.4 3.45 6.7 Q2.9 7.8 2.15 7.85 L2.1 7.85 Q1.3 8.5 -0.15 8.5 L-2.8 8.25 -3.05 7.8 -2.75 7.4 -2.55 7.65 -2.55 7.8 -2.35 7.75 Q1.3 7.75 1.75 7.05 1.65 6.25 2.25 5.95 L2.6 6.4 2.6 6.35 3.1 4.8 2.65 2.65 2.35 2.05 2.45 1.9 2.2 1.35 2.2 1.2 0.45 0.6 -0.45 -0.25 -0.4 -0.55 3.05 0.1 Q4.3 0.25 4.55 0.7 6.45 0.35 7.55 -0.85 L9.15 -3.0 9.45 -2.25 Q9.45 -0.95 8.35 -0.05 M16.75 -6.75 L16.1 -6.9 16.35 -9.05 16.2 -10.6 14.65 -12.05 Q13.9 -11.45 13.3 -11.45 L12.8 -11.45 12.7 -11.35 12.6 -11.0 Q12.7 -10.75 12.1 -10.75 L11.05 -10.75 11.25 -10.7 12.05 -10.35 12.2 -10.7 12.3 -10.2 13.05 -9.85 12.6 -9.0 12.5 -9.05 12.6 -7.5 13.3 -8.25 13.6 -8.2 14.0 -8.0 14.1 -7.85 13.6 -7.3 Q14.45 -7.4 15.55 -6.3 L16.8 -6.7 16.75 -6.75 M36.6 -23.05 L36.8 -23.05 37.0 -22.95 37.05 -22.55 37.05 -22.15 36.95 -22.15 36.8 -22.0 36.6 -22.05 36.6 -23.05 M40.3 -12.4 L42.55 -12.85 44.05 -12.9 Q45.9 -12.9 46.2 -14.2 L47.1 -13.6 47.1 -13.55 47.5 -12.85 47.5 -12.8 47.75 -12.75 Q47.75 -12.55 48.05 -12.25 L48.05 -12.2 Q49.05 -11.25 51.4 -11.25 L52.15 -11.5 52.7 -11.75 52.95 -11.4 52.6 -11.1 Q54.55 -11.95 56.4 -11.5 L56.25 -12.8 Q56.25 -13.9 56.6 -14.05 57.15 -14.0 57.3 -13.75 L57.05 -12.45 56.75 -11.4 57.15 -11.3 57.7 -11.5 60.0 -11.7 61.1 -12.25 61.3 -12.5 61.2 -12.65 61.1 -13.95 61.25 -14.7 61.2 -14.9 61.05 -15.35 Q59.15 -15.6 57.95 -16.25 56.7 -16.9 56.7 -17.4 56.7 -18.05 56.85 -18.15 L57.15 -18.15 57.45 -17.5 Q57.75 -17.0 58.6 -16.8 L59.15 -16.55 59.9 -16.3 62.3 -16.25 Q63.1 -15.85 64.45 -15.75 L64.55 -15.55 Q64.75 -15.0 65.2 -14.75 L63.05 -14.4 62.85 -14.4 62.0 -14.25 62.0 -13.9 62.25 -11.75 Q61.45 -11.75 61.15 -11.0 L61.1 -11.0 58.9 -10.55 58.25 -10.15 56.15 -8.75 55.45 -9.5 Q55.45 -10.0 55.8 -10.4 L54.8 -10.4 55.25 -9.4 55.3 -8.1 55.25 -6.85 55.05 -6.35 56.25 -6.4 Q59.15 -6.4 61.45 -5.4 L61.65 -5.25 57.4 -5.2 54.4 -5.05 54.35 -4.85 54.25 -4.8 54.05 -4.8 53.7 -4.95 50.85 -4.5 48.0 -4.6 47.9 -4.85 50.7 -5.55 53.05 -5.8 Q53.55 -6.1 54.4 -6.25 L54.6 -6.85 54.6 -7.95 54.35 -8.95 54.1 -10.0 54.15 -10.45 53.0 -10.6 52.45 -10.95 51.75 -10.35 Q51.35 -10.0 50.0 -10.0 47.7 -10.0 46.7 -11.55 L46.5 -11.85 46.2 -11.6 Q45.8 -11.25 45.55 -11.25 L45.25 -11.35 44.3 -11.2 44.55 -9.35 44.8 -7.35 44.8 -7.2 44.35 -7.25 43.4 -7.05 43.05 -7.35 43.6 -7.65 Q43.9 -7.85 43.9 -8.55 43.9 -9.9 42.8 -10.95 L42.55 -11.15 40.7 -11.55 39.75 -12.15 40.05 -12.3 38.55 -12.55 40.3 -12.4 M21.05 -0.45 L20.15 0.15 20.05 0.1 20.35 -0.25 21.05 -0.45 M23.3 -0.35 L22.65 0.2 22.6 0.05 Q22.6 -0.35 22.95 -0.7 23.3 -1.1 23.85 -1.05 L23.3 -0.35 M24.95 -0.5 Q24.95 0.1 24.65 0.25 L23.15 0.95 24.65 -1.2 24.95 -0.5 M25.7 -3.9 Q26.55 -3.85 26.95 -2.7 L27.2 -0.95 Q27.2 1.95 25.6 2.3 L25.4 2.45 24.4 2.7 23.2 2.45 22.65 2.5 21.0 2.3 21.2 2.95 20.5 4.2 19.8 4.85 Q19.4 5.3 19.4 5.7 19.4 7.1 19.7 7.4 20.1 7.8 21.25 8.1 22.35 8.4 22.9 8.95 23.85 8.35 25.95 8.6 L26.8 8.7 27.55 8.55 Q30.75 8.0 30.75 8.85 L30.75 9.05 Q34.45 8.75 35.3 7.65 L36.2 6.2 36.1 6.95 Q36.1 7.45 35.3 8.3 34.35 9.35 33.25 9.35 L32.0 9.2 30.75 9.05 30.7 9.2 30.5 9.25 30.35 9.15 30.15 9.05 29.7 9.05 Q28.95 9.2 28.8 9.6 L25.5 9.8 22.7 9.8 22.45 9.35 22.6 9.2 21.4 9.4 Q20.5 9.4 19.85 8.9 19.8 11.85 14.95 12.6 L15.35 12.4 14.4 12.55 12.75 12.75 Q10.95 12.75 9.2 11.5 7.65 10.4 7.65 9.8 L7.75 8.9 8.45 9.1 Q7.95 10.0 10.2 11.15 12.45 12.25 15.4 12.4 L18.4 10.65 Q19.15 9.95 19.15 8.85 L18.85 7.55 18.55 6.85 18.3 6.25 18.35 5.2 17.2 5.0 14.3 4.75 11.8 4.5 11.2 4.7 11.0 4.6 Q11.4 4.5 11.55 4.2 L14.15 3.95 16.4 4.5 16.3 4.35 16.35 4.05 Q16.75 4.55 17.45 4.55 L18.5 4.45 18.55 4.4 19.7 3.8 20.25 3.0 Q20.25 2.05 18.55 1.8 L18.7 1.8 15.1 1.6 13.8 1.8 12.6 1.6 Q13.4 1.55 14.05 1.1 L18.65 0.75 Q22.5 0.9 23.25 1.6 L23.4 1.55 23.65 1.7 23.75 1.8 Q23.8 1.5 24.75 1.45 25.8 1.4 26.0 0.5 L26.25 -0.95 26.1 -2.65 25.9 -3.1 25.65 -3.75 25.7 -3.9 M27.55 -0.95 L27.7 -0.95 Q28.1 -0.2 28.55 -0.2 L32.0 -0.15 31.4 -0.3 32.15 -0.45 32.4 -0.65 33.6 -0.4 37.85 -0.2 41.4 -0.3 42.0 -1.05 42.05 -0.85 41.75 -0.5 41.55 -0.35 42.55 -0.45 42.6 -0.5 43.2 -0.75 43.35 -0.95 43.4 -1.05 43.9 -1.8 44.05 -2.7 43.7 -3.55 42.6 -4.35 Q44.1 -4.6 44.6 -3.9 44.95 -3.5 44.95 -2.45 44.95 -1.4 44.55 -0.9 L44.65 0.35 Q44.95 1.25 47.3 1.7 L47.35 1.8 46.5 2.1 Q45.7 2.1 45.1 1.75 L45.45 2.05 Q45.45 3.3 44.95 3.95 L44.85 3.95 Q44.75 4.05 44.75 3.8 L44.9 3.55 45.0 3.25 Q45.0 2.25 44.55 1.75 43.8 0.95 41.55 0.5 L41.5 0.5 38.6 0.65 Q37.15 1.35 37.05 2.45 L36.75 4.4 36.7 4.4 36.5 3.3 Q36.5 2.5 37.05 1.35 L37.5 0.65 35.05 0.6 Q36.5 1.1 36.5 1.8 L36.2 3.5 36.1 3.55 35.35 1.75 Q34.1 0.65 29.7 0.55 L30.4 0.4 27.9 0.1 Q27.45 -0.05 27.45 -0.4 L27.55 -0.95 M38.2 -11.9 L38.1 -11.75 37.3 -11.75 35.0 -12.15 37.75 -13.15 38.2 -12.25 38.2 -11.9 M63.2 -27.85 L63.1 -27.65 63.0 -27.55 63.05 -27.3 63.1 -26.25 63.1 -25.3 Q63.35 -23.8 63.1 -22.8 L63.55 -22.5 Q66.05 -22.5 66.5 -23.0 66.75 -23.3 66.6 -24.0 L66.9 -24.0 66.5 -25.9 66.45 -27.3 66.35 -29.0 64.25 -29.0 63.2 -28.9 63.2 -28.1 63.2 -27.85 M62.2 -27.65 L61.4 -28.1 57.1 -28.6 59.75 -28.35 55.75 -28.2 55.35 -28.2 55.3 -28.2 51.9 -28.2 50.8 -28.45 49.75 -28.75 Q48.2 -28.75 46.8 -28.2 L46.6 -28.1 46.7 -27.3 46.7 -25.3 46.65 -24.0 46.7 -24.0 Q48.1 -22.9 47.3 -22.15 47.35 -22.0 54.1 -22.0 L55.8 -21.85 56.5 -21.75 56.45 -21.8 56.45 -24.65 57.05 -24.7 57.45 -24.25 57.35 -23.5 57.4 -22.5 57.2 -22.4 57.1 -21.65 57.8 -21.5 57.75 -21.45 58.55 -21.55 Q59.15 -22.25 59.3 -23.1 L59.05 -24.65 Q59.05 -24.9 59.75 -24.9 L60.0 -23.25 59.9 -22.35 59.2 -21.7 Q61.2 -22.2 61.9 -23.3 L62.35 -24.6 Q62.25 -25.2 62.3 -26.05 L62.3 -27.3 62.2 -27.65 M44.35 -28.6 L44.9 -28.5 44.6 -28.6 44.35 -28.6 M45.25 -28.2 L42.55 -27.75 41.35 -27.7 40.7 -27.65 41.25 -27.3 41.8 -25.7 42.15 -21.55 42.1 -19.75 41.9 -19.4 42.2 -18.5 42.35 -18.4 42.35 -17.95 42.55 -17.65 Q43.15 -17.0 44.25 -17.0 45.05 -17.0 45.2 -17.4 L45.55 -18.15 45.65 -18.0 45.75 -21.3 Q45.9 -25.3 45.65 -27.3 L45.5 -27.75 45.3 -27.75 45.45 -27.85 45.25 -28.2 M55.1 -23.9 L54.75 -23.3 54.35 -22.75 Q54.0 -22.85 53.9 -23.0 L53.8 -23.65 53.85 -24.2 54.7 -24.4 55.0 -24.35 55.1 -23.9 M53.3 -12.9 L53.3 -11.8 53.05 -11.5 Q52.75 -11.7 52.75 -12.4 L52.85 -13.0 53.15 -13.0 53.3 -12.9 M41.55 -19.05 L41.4 -18.95 41.5 -18.85 41.55 -19.05 M43.15 -0.65 L43.0 -0.5 43.05 -0.55 43.4 -0.6 43.15 -0.65 M56.65 -1.8 L56.6 -0.85 Q56.6 -0.05 56.75 0.1 57.45 0.65 60.2 0.7 L59.2 0.45 60.9 0.25 62.25 0.4 63.6 0.7 63.75 0.65 65.9 1.4 66.7 1.55 68.2 1.5 69.0 0.8 Q69.1 0.2 69.35 -0.05 L69.35 -0.1 69.7 -0.95 69.7 -2.15 70.05 -2.15 70.1 -1.45 70.1 -1.2 70.3 -1.15 70.35 -1.0 70.2 -0.05 70.35 0.0 70.0 0.5 69.8 0.95 69.95 2.6 Q70.35 4.2 71.65 4.2 L75.1 4.1 74.95 4.0 75.2 3.95 75.5 3.85 76.1 4.0 80.65 4.2 80.65 4.25 81.3 4.15 Q84.6 3.55 84.6 2.0 84.6 1.25 83.9 0.25 L83.95 -0.05 85.25 0.1 Q85.45 0.2 85.45 0.55 L85.1 1.0 85.1 1.1 85.25 0.9 85.9 1.95 Q86.45 2.85 87.65 2.85 88.05 2.85 89.35 0.45 L89.4 0.4 88.0 -0.95 87.95 -0.9 87.6 -1.35 85.2 -3.5 Q86.25 -3.75 87.4 -3.1 L87.85 -4.95 88.4 -7.5 87.8 -7.85 86.3 -8.25 85.7 -8.4 86.35 -8.85 84.05 -8.5 83.9 -8.5 83.8 -8.4 83.85 -8.5 Q83.2 -8.55 83.05 -8.8 L82.3 -9.25 83.95 -9.35 84.35 -9.35 84.55 -9.5 Q84.3 -9.95 84.3 -10.75 L84.4 -12.15 84.75 -12.15 84.95 -10.65 85.15 -9.45 85.2 -9.4 85.15 -9.4 85.2 -9.3 85.45 -9.3 Q85.9 -9.3 86.75 -9.9 L87.2 -9.8 87.25 -9.85 86.85 -10.7 Q86.65 -11.25 86.55 -12.55 L86.75 -12.55 87.2 -10.9 87.5 -10.05 89.85 -12.0 90.2 -11.6 90.3 -11.0 Q90.3 -10.3 89.6 -9.4 L88.7 -8.55 89.05 -7.85 Q89.5 -6.55 89.5 -4.6 L88.8 -2.7 88.6 -2.2 Q89.7 -1.1 90.15 0.0 L90.15 0.15 90.2 1.2 Q89.6 3.95 87.55 3.95 L87.5 3.95 Q88.1 4.45 88.25 5.55 L88.35 8.1 Q88.35 11.15 87.95 11.85 L87.75 11.6 87.65 11.85 Q88.7 12.3 88.85 16.05 L89.05 16.1 89.1 16.25 88.85 16.55 88.85 17.0 88.55 18.8 88.4 18.85 Q88.05 18.85 88.0 17.5 86.7 18.7 85.65 18.7 84.15 18.7 83.1 18.2 L82.05 17.6 81.75 17.8 78.25 18.1 Q75.7 18.1 74.05 17.45 71.85 16.6 71.85 14.8 L72.05 14.05 72.25 13.5 Q72.75 13.8 73.0 15.65 74.45 17.3 81.15 17.3 L82.1 17.1 82.4 17.2 82.45 17.3 82.2 17.5 84.0 17.6 85.15 17.8 Q86.65 17.8 87.55 16.75 L88.0 16.35 88.0 14.9 87.85 13.45 Q87.55 12.75 86.8 12.4 L85.45 12.7 Q84.35 12.7 82.8 12.05 L81.2 11.3 81.1 11.4 79.85 12.3 Q79.05 12.3 78.35 11.8 77.6 11.3 77.0 11.25 77.25 10.95 77.9 10.95 L79.8 11.35 80.4 10.5 80.9 9.75 80.85 8.95 Q80.85 7.05 81.45 6.95 L81.35 7.45 81.5 9.0 81.6 9.55 81.75 10.15 81.75 10.35 81.95 10.8 81.9 10.85 81.55 10.7 81.45 10.95 84.85 11.95 Q86.6 11.95 87.1 11.3 L87.45 10.85 87.35 10.0 Q87.2 10.45 87.2 11.1 L87.1 11.1 87.0 10.3 87.1 9.8 86.7 10.95 86.6 10.95 86.5 10.8 Q86.5 10.3 87.05 8.5 L87.2 8.5 87.25 8.65 87.25 7.9 87.45 7.9 87.45 7.85 87.1 5.6 86.85 3.9 Q85.95 3.7 85.35 2.95 L85.25 2.75 84.0 4.2 Q82.4 5.35 79.65 5.35 L78.2 5.1 76.75 4.9 77.45 4.75 76.5 4.7 76.0 4.9 73.35 5.25 Q70.9 5.25 69.75 4.0 L69.05 2.65 69.0 1.8 68.55 1.95 Q67.8 2.35 66.9 2.35 65.15 2.35 62.95 1.6 L61.0 0.95 60.8 1.2 58.7 1.45 Q57.15 1.45 56.35 0.55 L56.3 0.5 55.75 1.45 Q54.5 2.35 50.3 2.35 L49.35 2.3 49.25 2.1 49.3 1.9 Q53.35 2.15 54.9 0.9 55.7 0.2 55.7 -0.85 L55.25 -1.55 55.9 -1.35 56.05 -2.15 56.0 -2.1 55.8 -2.25 55.65 -2.55 55.75 -2.55 56.05 -2.2 56.25 -2.7 56.65 -1.8 M76.95 -21.3 L76.95 -21.4 76.95 -21.45 76.8 -21.45 76.95 -21.3 M68.8 -23.2 L68.8 -23.4 68.8 -23.5 68.3 -23.5 Q68.0 -23.5 67.85 -23.85 L67.8 -23.3 68.4 -23.4 68.8 -23.2 M67.95 -22.1 L67.9 -22.15 67.6 -22.05 67.95 -22.1 M67.25 -22.9 L67.1 -22.6 67.35 -22.7 67.3 -22.8 67.25 -22.9 M67.05 -6.75 Q67.05 -6.25 66.7 -6.15 L66.05 -6.0 65.55 -6.1 Q65.4 -6.25 65.4 -6.65 L65.45 -7.25 66.95 -7.25 67.05 -6.75 M62.5 -3.05 Q63.5 -4.4 66.0 -4.35 68.3 -4.3 69.9 -3.3 L69.95 -3.25 69.6 -3.05 69.0 -3.25 66.2 -3.15 63.5 -3.0 Q63.4 -2.75 63.15 -2.75 L62.5 -3.05 M75.15 -3.75 L80.0 -4.2 Q81.9 -4.4 84.35 -3.6 85.35 -3.4 85.35 -2.35 L85.2 -1.4 Q85.25 -1.3 85.0 -1.3 84.7 -1.3 84.65 -1.7 L84.65 -2.15 84.5 -2.8 83.95 -3.25 82.5 -3.1 80.15 -2.9 75.15 -3.4 75.15 -3.75 M85.05 -27.35 L85.1 -27.3 85.1 -27.1 85.35 -27.3 85.45 -27.35 85.05 -27.35 M86.6 -24.55 L86.65 -24.0 85.95 -22.85 85.1 -22.0 85.05 -21.9 85.0 -22.25 85.25 -23.4 Q85.65 -24.55 86.4 -24.75 L86.6 -24.55 M82.2 2.35 L82.05 2.4 81.9 2.6 80.8 4.0 80.65 4.0 80.6 3.85 Q80.6 3.55 81.15 2.9 L81.75 2.25 82.2 2.35 M85.65 9.7 L85.7 10.25 85.5 11.3 85.45 11.3 85.25 10.3 85.3 9.7 85.65 9.7 M84.1 10.1 L84.05 10.2 83.6 10.1 83.75 9.95 84.1 10.1 M85.85 17.0 Q85.85 16.45 86.55 16.55 L85.9 17.1 85.85 17.0 M88.5 21.35 L88.15 21.0 88.45 19.55 Q88.75 18.5 88.95 18.55 L89.2 20.4 Q89.2 21.25 88.5 21.35 M80.2 3.45 L79.95 3.65 79.85 3.55 79.75 3.45 79.55 3.6 79.5 3.75 79.3 3.5 79.45 3.2 80.15 3.1 80.2 3.45 M72.45 11.55 L72.4 11.8 71.15 11.85 Q69.45 11.85 69.45 10.75 L69.55 10.2 69.7 10.2 70.05 10.95 Q70.65 11.5 72.4 11.35 L72.45 11.55 M61.25 3.45 Q61.25 4.2 60.35 5.25 59.2 6.55 57.55 6.55 L52.3 6.0 52.2 5.85 52.25 5.65 53.85 5.55 55.5 5.35 56.6 5.6 Q59.05 5.6 59.5 5.0 L59.75 4.1 60.75 3.15 Q61.25 2.85 61.25 3.45 M65.2 9.55 L64.6 9.45 64.65 9.45 65.2 9.55 M63.05 11.05 L59.6 11.3 57.9 11.6 57.95 11.6 56.65 11.85 Q54.75 11.85 53.85 10.85 53.25 10.15 53.25 9.3 53.25 8.7 53.4 8.3 53.65 7.45 54.25 8.25 L54.1 8.25 53.95 8.45 Q53.95 9.7 54.3 10.1 54.95 11.0 57.15 11.45 L58.1 11.25 59.25 11.1 61.0 10.85 63.05 11.05 M62.9 10.95 Q66.5 11.25 67.6 9.7 68.0 9.1 68.0 7.5 L67.65 7.0 67.0 6.35 Q68.4 4.65 68.6 9.9 68.6 10.5 68.1 10.95 67.5 11.45 66.55 11.45 L64.45 11.25 62.9 10.95 M66.35 10.35 L66.2 10.1 Q66.2 9.4 66.95 9.2 L66.8 9.8 66.35 10.35 M44.05 0.5 L44.1 -0.2 42.7 0.35 Q43.6 0.6 44.6 1.35 44.05 0.8 44.05 0.5 M44.85 8.6 Q44.85 6.5 45.9 6.35 L45.95 6.5 45.6 8.1 Q45.6 9.1 45.8 9.35 46.15 9.8 47.95 10.45 L47.85 10.65 47.6 10.8 Q45.75 10.8 45.15 9.9 44.85 9.45 44.85 8.6 M32.95 8.05 L33.55 7.1 Q34.0 6.5 34.2 6.45 L34.3 6.65 32.95 8.05 M32.15 6.95 L32.55 6.65 32.0 7.65 31.85 7.3 32.15 6.95 M29.0 10.45 Q30.4 10.45 31.2 11.45 31.7 12.1 31.7 12.5 L31.5 13.15 31.35 13.2 Q30.95 12.05 28.1 10.6 L29.0 10.45 M2.85 1.3 L2.65 1.25 2.75 1.4 2.85 1.3 M1.85 4.35 L1.8 4.45 1.35 4.35 1.5 4.2 1.85 4.35 M2.0 5.45 L1.85 5.1 2.15 5.2 2.0 5.45 M2.2 8.95 L2.5 9.4 2.95 9.35 3.4 8.45 3.8 9.3 3.6 11.0 Q3.6 12.35 4.05 13.2 4.75 14.5 6.7 15.35 L6.7 15.6 6.4 15.8 Q4.2 15.8 3.25 13.5 L2.75 11.4 2.6 11.6 2.6 11.35 1.8 11.35 0.75 12.1 0.7 12.05 1.15 11.3 Q1.4 10.95 2.25 10.9 L1.75 9.75 1.4 9.9 0.1 10.55 Q0.2 10.25 1.3 9.8 L1.7 9.65 1.1 8.55 Q1.6 8.25 2.2 8.95 M1.15 9.35 L0.8 8.95 -0.35 9.1 -0.9 9.4 -0.95 9.3 Q-0.55 8.75 0.2 8.7 1.0 8.7 1.2 9.3 L1.15 9.35 M2.95 9.4 L2.55 9.5 2.7 10.15 2.65 10.85 2.7 10.85 2.75 9.85 2.95 9.4 M8.35 7.4 L8.35 7.55 8.15 7.85 7.75 8.1 7.2 9.1 Q6.55 10.05 5.75 10.05 L5.3 9.8 6.75 8.45 Q7.3 7.95 7.3 7.35 L6.85 6.95 Q7.5 6.85 7.7 7.4 L8.3 7.45 8.35 7.4 M1.9 14.7 L1.85 14.55 Q1.85 14.2 2.4 14.3 2.25 14.7 1.9 14.7 M-3.95 -19.1 Q-4.75 -19.25 -5.35 -19.75 L-5.9 -20.45 Q-5.9 -21.45 -5.3 -21.85 L-4.6 -20.75 Q-4.0 -20.05 -2.55 -20.4 L-2.35 -20.95 -2.1 -21.7 Q-2.1 -25.95 -4.45 -25.25 -6.85 -24.55 -6.85 -21.1 -6.85 -20.4 -6.25 -19.8 -5.65 -19.1 -4.6 -19.1 L-3.95 -19.1 M-1.1 -20.5 L-1.0 -20.55 -1.05 -20.65 -1.1 -20.55 -1.1 -20.5 M-3.1 -12.85 L-3.0 -12.9 -2.95 -12.75 -3.15 -12.85 -3.1 -12.85 M-1.75 -10.3 L-2.05 -10.3 -2.05 -12.25 -1.65 -12.25 Q-1.5 -12.0 -1.5 -11.4 -1.5 -10.75 -1.75 -10.3 M-4.1 5.15 L-3.1 4.95 -2.95 4.9 -2.8 5.1 -3.8 5.45 -4.5 5.95 -4.75 5.65 -4.1 5.15 M-3.2 7.9 L-3.3 8.25 -2.85 8.75 -3.9 8.95 Q-5.1 9.65 -5.95 12.4 L-5.95 12.45 -5.7 13.45 Q-5.55 14.05 -5.55 15.65 -5.1 17.0 -2.55 17.35 L-2.4 17.55 -3.05 18.1 -4.1 18.25 -4.15 18.25 -4.9 18.55 Q-5.7 18.55 -6.05 17.6 L-6.2 16.75 Q-7.0 15.35 -7.0 13.35 -7.0 12.05 -6.0 10.6 L-3.5 7.85 -3.2 7.9" fill="#5b5546" fill-rule="evenodd" stroke="none"/>
    <path d="M-25.0 14.65 L-24.8 15.1 -25.05 15.75 -25.15 16.0 -26.25 15.8 -26.2 15.65 -25.45 14.1 -25.0 14.65 M-38.9 15.7 L-38.55 15.7 -38.45 17.1 Q-38.45 17.9 -38.7 18.35 L-38.5 18.5 -38.1 18.5 -40.3 19.1 -40.5 19.0 -40.3 19.1 -43.0 19.6 -42.85 19.3 -43.75 18.45 Q-44.45 17.55 -44.45 16.85 L-44.35 16.25 -44.0 15.85 -41.65 17.8 -41.35 16.95 -40.9 15.3 -40.7 15.3 Q-40.8 16.6 -41.0 17.15 L-41.4 18.0 -41.35 18.05 -40.9 17.95 Q-40.05 18.55 -39.6 18.55 L-39.35 18.55 -39.3 18.45 -39.35 18.45 -39.3 18.4 -39.1 17.2 -38.9 15.7 M-30.95 6.4 L-31.1 6.4 -31.1 6.45 -31.1 6.55 -30.95 6.4 M-39.4 4.45 L-39.15 5.6 -39.2 5.95 -39.25 5.85 -40.1 5.0 -40.8 3.85 -40.75 3.3 -40.55 3.1 Q-39.8 3.3 -39.4 4.45 M-21.45 5.05 L-21.5 5.15 -21.25 5.25 -21.4 4.95 -21.45 5.05 M-22.05 5.7 L-22.1 5.75 -21.75 5.8 -22.05 5.7 M-22.95 4.45 L-22.95 4.65 -22.55 4.45 -21.95 4.55 -22.0 4.0 -22.45 4.35 -22.95 4.35 -22.95 4.45 M-18.7 12.3 L-18.6 12.1 -16.45 11.6 -14.05 11.55 -13.3 11.3 -12.75 11.05 Q-11.9 10.85 -11.6 10.35 L-11.3 9.7 -11.0 9.7 Q-10.85 9.8 -10.85 10.45 -10.85 10.95 -12.1 11.6 -13.3 12.25 -15.2 12.5 L-15.35 12.95 -15.4 13.15 Q-15.25 13.5 -15.25 13.9 L-15.35 15.2 -15.45 15.35 -15.25 15.6 -14.15 16.15 -11.85 16.35 -11.3 16.55 -10.9 16.45 -11.2 15.4 -11.45 14.1 Q-11.3 13.85 -10.75 13.8 -10.4 13.95 -10.4 15.05 L-10.55 16.35 Q-11.8 17.0 -12.55 17.6 L-13.05 17.3 -15.25 16.85 -15.3 16.85 Q-15.6 16.1 -16.4 16.1 L-16.15 13.95 -16.15 13.6 -17.0 13.45 -17.2 13.45 -19.35 13.1 -18.7 12.3 M-8.0 3.65 L-7.95 4.2 -8.05 4.85 -8.5 5.1 -8.9 4.55 -9.25 3.95 -9.15 3.5 -8.85 3.45 Q-8.2 3.4 -8.0 3.65 M-17.35 -0.25 L-17.35 -1.05 -18.4 -1.15 -20.5 -1.15 -20.6 0.55 -20.65 1.95 -21.05 3.85 -20.75 3.85 Q-20.9 4.55 -20.65 4.85 -20.2 5.35 -17.7 5.35 L-17.25 5.05 Q-17.5 4.05 -17.25 2.55 L-17.25 1.6 -17.2 0.55 -17.15 0.3 -17.25 0.2 -17.35 0.0 -17.35 -0.25 M-38.55 -0.1 L-37.15 -0.95 Q-35.5 -1.7 -34.2 -1.55 -32.35 -1.45 -29.8 -0.35 -29.15 -1.95 -25.4 -2.0 -21.9 -2.1 -21.1 -1.25 L-20.65 -1.9 -17.65 -1.6 Q-16.75 -1.3 -16.75 -1.0 L-16.75 -0.9 -14.25 -1.55 Q-11.65 -1.9 -10.1 -0.85 L-7.75 -1.05 -7.75 -1.0 -7.65 -0.35 -9.45 -0.35 -9.5 -0.35 -9.9 -0.35 -13.9 -0.5 -11.25 -0.75 -15.55 -0.25 -16.35 0.2 -16.45 0.55 -16.45 1.8 Q-16.4 2.65 -16.5 3.25 L-16.05 4.55 Q-15.35 5.65 -13.35 6.15 L-14.05 5.5 -14.15 4.6 -13.9 2.95 Q-13.2 2.95 -13.2 3.2 -13.55 3.95 -13.45 4.75 L-12.7 6.3 -11.9 6.4 -11.95 6.35 -11.25 6.2 -11.35 5.45 -11.55 5.35 -11.5 4.35 -11.6 3.6 Q-11.6 3.2 -11.2 3.15 L-10.6 3.2 -10.6 6.05 -10.6 6.1 -9.95 6.0 -8.25 5.85 -4.95 5.85 -5.0 6.9 -5.0 7.15 -6.8 7.2 -8.9 7.1 -8.85 7.2 -9.95 7.35 -10.2 9.35 Q-9.95 11.35 -7.45 11.35 L-6.35 11.0 -5.55 10.6 -4.55 10.65 -4.55 10.7 Q-5.05 11.15 -5.1 12.0 L-5.55 12.1 -8.0 12.45 Q-9.75 12.45 -10.5 10.8 -11.0 9.8 -11.0 8.7 L-10.65 7.35 -10.85 7.35 -10.85 7.7 -11.1 7.6 -11.15 7.35 Q-15.6 7.25 -16.85 5.75 L-16.9 5.85 Q-17.4 6.35 -18.75 6.35 L-20.4 5.9 -21.1 5.45 -21.15 5.85 -21.15 5.9 -21.2 6.05 -21.4 5.95 -22.25 5.9 -22.65 6.35 -22.9 6.45 -22.85 6.7 -23.4 6.5 -25.5 6.6 -25.6 6.95 -25.7 6.6 -26.55 6.6 Q-26.9 6.6 -27.45 6.1 -28.5 6.4 -29.15 6.9 L-29.15 7.6 -29.25 7.85 -29.5 7.8 -29.6 7.1 -29.6 6.65 -29.75 6.35 -29.3 6.05 -30.5 6.3 -30.9 7.1 -31.1 8.95 -31.25 8.95 -31.4 7.6 -31.8 7.0 -32.15 6.5 -33.7 6.55 -37.25 6.05 Q-37.95 5.65 -37.95 4.7 -37.95 4.3 -38.1 4.25 L-38.3 4.1 -37.6 3.85 -37.2 4.75 -33.6 5.2 -30.8 5.1 -28.4 4.95 Q-29.0 4.05 -29.0 3.45 -29.0 2.8 -29.25 2.2 -28.6 2.35 -27.7 3.95 -27.25 4.75 -26.2 5.1 L-26.0 5.1 -26.65 1.95 -26.4 0.6 -26.05 0.6 Q-25.95 1.65 -25.5 2.4 -25.2 3.0 -25.2 3.7 L-25.25 5.0 -23.95 4.95 -23.95 4.35 Q-23.95 3.1 -23.5 2.45 -23.1 2.9 -23.0 3.85 -22.1 3.15 -22.05 1.7 L-22.05 1.45 -22.05 1.25 -22.1 0.55 -22.15 -0.5 -21.85 -0.5 -21.85 -0.35 -21.55 -0.7 -21.9 -0.95 Q-23.0 -1.5 -25.35 -1.5 -28.2 -1.5 -28.65 -0.35 L-29.05 0.55 -29.45 1.7 -29.95 0.55 -29.95 0.4 -29.95 0.05 Q-32.55 -1.0 -34.3 -1.15 L-36.45 -0.2 -38.2 0.75 -38.4 2.95 -38.9 2.95 -39.2 1.65 -40.65 0.6 Q-42.2 0.8 -42.8 1.15 -43.25 1.4 -43.25 2.0 L-43.1 4.35 -42.4 6.1 -39.5 6.1 Q-38.1 6.25 -38.1 7.1 L-38.2 7.6 -38.25 7.7 -41.4 8.35 -42.35 7.65 -42.4 7.65 -43.05 8.85 -38.25 10.3 -37.15 10.7 -31.65 9.95 -31.65 10.3 -31.35 9.1 -30.95 9.1 -30.7 10.4 Q-30.15 11.35 -28.65 11.35 L-28.6 11.35 -25.95 11.6 -23.65 11.4 -23.2 12.45 -24.5 12.8 -24.4 12.8 -24.3 13.6 Q-24.3 14.0 -24.6 13.95 L-24.9 13.85 -25.35 13.1 -25.0 12.85 -27.7 12.85 -30.55 12.35 Q-31.25 11.95 -31.25 11.35 L-31.45 10.9 -31.65 10.7 -31.6 10.95 Q-31.6 11.2 -32.45 11.45 L-34.0 11.75 -33.5 12.15 Q-32.45 13.3 -32.45 14.85 -32.45 15.45 -32.6 15.85 L-32.95 16.4 -32.9 16.5 -33.75 16.9 -33.75 16.85 -33.55 16.45 -33.4 15.85 -33.3 15.05 Q-33.3 14.5 -34.05 14.15 -34.6 12.9 -37.1 12.5 L-37.6 11.9 -38.15 11.8 -39.05 11.7 -41.0 11.45 -40.55 11.3 -40.9 11.25 Q-42.85 11.85 -43.3 13.15 L-43.5 15.55 -43.75 15.75 -44.2 15.85 Q-44.8 15.85 -44.8 15.55 L-44.9 14.1 Q-44.05 11.5 -42.9 10.65 -44.05 10.2 -44.05 9.7 L-43.75 8.15 Q-43.4 7.55 -42.7 7.25 L-43.05 6.6 -43.05 6.55 -43.7 5.65 Q-44.2 4.65 -44.2 3.55 -44.2 1.55 -43.85 0.9 L-43.6 0.55 Q-42.75 -0.1 -40.8 0.2 L-39.85 0.35 -39.2 0.5 -39.6 0.5 -39.5 0.55 -39.25 0.75 -39.25 0.55 -39.2 0.5 -38.55 -0.1" fill="#5b5546" fill-rule="evenodd" stroke="none"/>
  </g>
</svg>
