<?xml version="1.0" encoding="UTF-8" standalone="no"?>
<svg xmlns:xlink="http://www.w3.org/1999/xlink" height="9.95px" width="90.9px" xmlns="http://www.w3.org/2000/svg">
  <g transform="matrix(1.0, 0.0, 0.0, 1.0, 44.9, 5.25)">
    <path d="M24.75 -1.0 L30.8 -1.5 39.4 -2.25 39.3 -3.2 Q39.3 -4.4 40.3 -4.95 L41.4 -5.25 Q42.1 -5.25 43.75 -4.25 45.55 -3.15 45.55 -2.2 45.55 -0.85 43.7 0.2 45.75 0.5 45.75 0.8 45.75 2.05 33.1 2.55 L31.25 2.8 27.9 2.75 10.3 2.95 Q-7.45 2.95 -25.35 2.55 L-39.4 3.9 Q-42.65 3.9 -43.3 0.7 -43.65 -0.85 -42.85 -1.65 -45.15 -2.6 -44.85 -3.25 -44.4 -4.25 -38.05 -4.25 L-31.7 -1.85 -26.9 -1.7 -26.7 -1.7 -22.3 -2.75 Q-16.65 -4.2 -14.6 -4.2 -9.45 -3.4 -9.05 -1.55 L3.6 -1.4 13.85 -2.0 24.75 -1.0" fill="#ffffff" fill-rule="evenodd" stroke="none"/>
    <path d="M-40.45 -3.3 L-39.8 -3.25 Q-39.3 -3.05 -39.0 -2.2 -38.8 -3.0 -37.75 -3.1 -37.15 -3.1 -36.85 -2.65 L-35.75 -1.05 -34.5 -1.7 Q-35.0 -2.2 -35.0 -2.7 -35.0 -3.75 -33.55 -3.95 -32.05 -3.95 -29.35 -2.55 -26.7 -1.1 -25.75 -1.1 -25.45 -1.1 -24.7 -1.55 L-23.9 -1.95 Q-22.85 -1.95 -21.3 -1.2 L-20.8 -2.25 -20.0 -2.7 Q-19.45 -2.7 -18.85 -2.15 L-17.3 -0.6 Q-17.45 -2.55 -16.5 -3.05 L-15.15 -3.2 -10.9 -2.55 -5.75 -1.45 -5.55 -1.45 -5.8 -1.75 -6.0 -2.45 Q-6.0 -3.5 -4.55 -3.7 L-2.15 -2.85 Q0.1 -1.95 1.4 -1.95 2.5 -2.95 2.9 -2.95 L4.05 -2.6 5.5 -1.2 Q6.05 -2.2 6.7 -2.45 L7.65 -2.05 8.6 -1.3 Q8.95 -2.7 10.05 -2.7 10.8 -2.7 11.35 -2.15 L13.1 -0.55 13.25 -0.45 14.2 -2.0 Q14.6 -2.6 15.25 -2.45 L15.4 -2.45 15.3 -2.75 Q15.15 -3.05 15.15 -3.45 15.15 -4.7 16.5 -4.7 17.35 -4.7 18.1 -3.35 18.8 -1.95 19.85 -1.95 20.45 -1.95 20.95 -2.7 21.4 -3.45 22.0 -3.45 L25.4 -1.95 Q26.0 -1.95 26.45 -1.55 L28.0 -0.2 28.1 -0.2 Q28.4 -0.95 29.9 -1.95 31.35 -2.95 31.9 -2.95 32.45 -2.95 32.85 -2.5 L34.35 -1.1 35.35 -2.2 35.75 -2.45 Q36.8 -2.45 37.15 -1.6 38.45 -2.9 38.6 -3.95 L38.75 -4.7 Q40.35 -4.7 42.4 -3.45 45.0 -1.85 45.0 0.4 45.0 1.85 41.55 2.55 L40.9 2.3 40.25 2.05 36.95 3.3 35.45 2.65 33.85 1.7 32.3 2.95 Q31.2 3.8 30.6 3.8 L27.05 2.9 21.5 2.05 18.95 2.8 Q17.45 2.05 17.1 2.05 16.95 2.05 16.05 2.55 L14.95 3.05 13.95 2.8 13.0 2.55 Q12.65 2.55 12.25 2.8 L11.5 3.05 10.05 2.55 Q9.15 2.05 8.9 2.05 8.75 2.05 8.2 2.4 L7.45 2.8 4.3 2.05 0.6 1.35 -4.15 2.55 Q-5.0 2.55 -7.25 1.3 -7.75 2.75 -8.7 2.7 L-10.4 2.45 Q-10.55 3.85 -11.05 4.3 L-11.9 4.55 -13.15 4.25 -14.4 3.95 -15.25 4.25 -16.15 4.55 Q-17.3 4.55 -20.05 3.45 -22.9 2.25 -23.9 2.2 -24.3 3.9 -24.65 4.2 L-25.2 4.2 -28.5 3.95 Q-29.35 3.95 -31.1 2.95 L-33.5 1.55 Q-35.8 3.85 -36.15 3.85 L-38.25 3.45 -38.75 3.7 -39.3 3.95 -41.8 3.8 Q-44.0 3.35 -44.0 2.05 L-43.75 1.5 -43.3 1.05 Q-43.95 0.25 -43.25 -1.95 -43.25 -2.45 -40.45 -3.3 M-33.9 -1.45 Q-31.4 0.15 -30.65 0.45 L-30.55 0.45 Q-31.05 -0.9 -32.1 -1.25 L-33.9 -1.45 M-14.05 1.35 L-14.0 1.3 Q-14.35 0.8 -15.05 0.8 L-14.05 1.35" fill="#666666" fill-opacity="0.3019608" fill-rule="evenodd" stroke="none"/>
    <path d="M-40.3 -3.65 L-39.45 -4.2 Q-39.05 -4.2 -38.45 -3.8 L-37.65 -3.35 Q-36.75 -3.35 -36.45 -2.85 -36.0 -2.0 -36.0 1.3 -36.0 3.2 -36.4 3.6 L-36.9 3.7 -37.7 3.2 -38.5 -0.35 -38.7 -0.1 -39.25 0.05 Q-39.7 0.05 -40.25 -1.2 L-40.95 -0.95 -41.8 -0.7 Q-43.7 -0.7 -43.7 -1.9 -43.75 -3.1 -41.3 -3.1 -41.05 -3.1 -40.3 -3.65" fill="#666666" fill-opacity="0.3019608" fill-rule="evenodd" stroke="none"/>
    <path d="M-27.3 -2.6 L-21.25 -3.1 -15.7 -3.1 Q-12.5 -2.85 -10.75 -1.45 -13.45 -0.35 -17.75 -0.3 L-25.05 -0.45 -27.65 0.05 -30.0 0.6 Q-30.15 2.3 -31.0 2.4 L-32.5 2.05 Q-32.4 4.05 -32.95 4.55 L-33.7 4.7 Q-34.4 4.7 -34.65 4.3 -35.25 3.55 -35.5 0.8 L-35.9 0.3 -36.15 0.9 -36.55 1.6 Q-35.7 -2.3 -34.9 -2.5 L-32.5 -2.05 -27.3 -2.6" fill="#666666" fill-opacity="0.3019608" fill-rule="evenodd" stroke="none"/>
    <path d="M26.4 -2.15 L32.8 -3.2 Q34.4 -3.2 36.3 -2.45 38.85 -1.4 38.85 0.3 38.85 2.0 36.6 2.45 L34.0 2.6 Q31.9 2.6 31.45 1.25 30.9 -0.1 26.9 -0.2 L23.15 -0.1 Q20.75 -0.1 19.5 -0.7 L26.4 -2.15" fill="#666666" fill-opacity="0.3019608" fill-rule="evenodd" stroke="none"/>
    <path d="M44.2 -2.4 Q46.0 -1.6 46.0 -0.45 46.0 1.45 44.9 1.3 43.95 1.3 43.5 0.05 43.3 0.8 40.65 1.95 39.15 0.7 38.55 -0.5 37.35 -2.95 42.0 -2.95 L44.2 -2.4" fill="#666666" fill-opacity="0.3019608" fill-rule="evenodd" stroke="none"/>
    <path d="M-43.95 -3.4 L-42.15 -3.35 -39.25 -3.4 -36.65 -3.4 -37.0 -3.5 -36.7 -3.65 -36.35 -3.4 -36.25 -2.35 -36.2 -2.2 10.7 -2.5 37.15 -2.3 37.25 -2.25 37.3 -2.6 37.25 -2.85 37.25 -2.9 37.15 -3.15 37.45 -3.6 37.8 -3.6 41.6 -3.45 42.65 -3.4 44.15 -3.4 44.6 -3.3 44.8 -3.3 45.1 -3.15 45.25 -3.15 45.15 -3.1 45.25 -2.7 45.15 -2.3 45.35 0.45 45.25 3.1 Q45.45 3.4 45.2 3.55 L44.95 4.05 Q44.8 4.05 44.95 4.0 L43.15 4.0 40.25 4.05 38.05 3.85 37.35 4.0 37.25 3.15 25.35 3.4 15.05 3.5 -35.7 2.9 -36.25 2.9 -36.3 3.25 -36.25 3.5 -36.25 3.55 -36.15 3.8 Q-36.15 4.15 -36.45 4.25 L-36.8 4.25 -40.6 4.1 -41.65 4.05 -43.15 4.05 -43.6 3.95 -43.8 3.95 -44.1 3.8 -44.25 3.8 -44.15 3.75 -44.25 3.35 -44.15 2.95 -44.35 0.2 -44.3 -2.0 -43.95 -3.4 M-41.4 -0.7 L-41.1 -1.85 -40.9 -1.7 Q-40.85 -1.45 -41.05 -1.25 L-41.2 -0.75 -41.4 -0.7 M-37.7 -1.4 L-37.7 -1.85 -37.15 -1.9 -37.15 -2.15 -37.1 -2.75 -40.4 -2.5 -43.55 -2.45 -43.35 2.65 -43.35 3.05 -41.1 3.05 -39.45 3.45 -37.05 3.35 -37.05 2.9 Q-37.55 2.9 -37.05 2.7 L-37.15 -1.4 -37.7 -1.4 M-39.4 -2.5 L-39.35 -2.05 Q-39.4 -1.1 -39.95 -0.9 L-39.4 -2.5 M-36.0 -1.35 L-35.55 -0.1 -35.5 -0.05 -35.5 0.05 -35.6 0.25 -36.25 -1.05 -36.25 0.1 -35.75 1.35 -35.85 1.55 -35.95 1.55 -36.25 1.35 -36.25 2.0 -25.5 2.4 7.6 2.4 10.6 2.45 10.45 2.1 10.2 1.0 10.3 0.95 Q10.6 0.95 10.7 1.5 L10.9 2.45 12.15 2.45 12.15 2.25 12.4 0.9 12.6 1.4 12.35 2.45 36.7 2.35 Q37.0 2.0 37.25 2.05 L37.25 1.7 37.25 -1.45 4.0 -1.5 -7.3 -1.55 -7.3 -1.25 Q-7.3 -0.3 -7.8 -0.3 -7.95 -0.55 -7.7 -1.55 L-8.5 -1.55 -8.15 -0.25 -8.2 0.25 -8.35 0.3 Q-8.6 0.3 -8.85 -0.5 L-9.0 -1.55 -27.6 -1.5 -35.1 -1.4 -35.0 -1.2 -34.7 -0.55 -34.75 -0.4 -34.9 -0.35 Q-35.1 -0.35 -35.3 -0.85 L-35.45 -1.4 -36.0 -1.4 -36.0 -1.35 M-34.65 0.3 L-34.75 0.35 -34.9 -0.1 -34.65 0.3 M-33.9 -0.95 L-33.9 -1.0 -33.65 -1.3 -33.7 -0.9 -33.9 -0.95 M-32.0 -0.8 Q-32.05 -0.4 -32.3 -0.3 L-32.35 -0.35 -32.05 -0.7 -32.0 -0.8 M39.05 -2.1 L38.05 -2.05 38.15 2.05 38.7 2.05 38.7 2.5 38.15 2.55 38.15 2.8 38.1 3.4 41.4 3.15 44.55 3.1 44.35 -2.0 44.35 -2.4 42.1 -2.4 40.45 -2.8 38.05 -2.7 38.05 -2.25 39.05 -2.25 39.05 -2.1 M41.9 2.35 L42.05 1.9 42.2 1.4 42.4 1.35 42.1 2.5 41.9 2.35 M40.35 2.7 Q40.4 1.75 40.95 1.55 L40.4 3.15 40.35 2.7" fill="#5a493f" fill-rule="evenodd" stroke="none"/>
  </g>
</svg>
