<?xml version="1.0" encoding="UTF-8" standalone="no"?>
<svg xmlns:xlink="http://www.w3.org/1999/xlink" height="12.2px" width="59.2px" xmlns="http://www.w3.org/2000/svg">
  <g transform="matrix(1.0, 0.0, 0.0, 1.0, 29.1, 5.7)">
    <path d="M26.7 -0.8 Q26.15 0.0 25.25 0.0 25.65 0.75 25.65 1.95 25.65 3.45 25.45 3.65 24.4 4.8 19.65 4.8 14.05 4.8 13.75 4.2 14.4 3.55 13.7 3.55 9.6 3.55 7.6 4.35 5.55 5.1 1.35 5.1 L-2.35 4.65 -6.1 4.15 Q-7.9 4.15 -10.15 5.1 -12.45 6.05 -16.1 6.05 -19.45 6.05 -20.25 5.15 -20.65 4.65 -20.4 4.1 L-20.15 3.1 -19.4 2.45 Q-23.05 2.15 -24.1 1.35 -24.6 1.0 -24.6 0.05 L-24.5 -0.9 Q-24.1 -1.75 -22.7 -2.0 L-23.5 -2.8 -23.8 -3.45 -23.55 -4.7 -21.95 -4.95 -10.2 -4.55 -4.4 -4.7 2.45 -4.3 24.95 -3.4 Q26.75 -3.1 27.1 -2.7 L27.15 -1.95 26.7 -0.8" fill="#ffffff" fill-rule="evenodd" stroke="none"/>
    <path d="M25.65 -1.25 Q26.6 0.55 26.4 2.4 L26.3 3.85 Q25.95 5.2 24.6 5.2 L20.3 4.75 16.0 4.25 9.7 4.75 -4.9 5.25 Q-21.2 5.25 -26.3 3.95 -29.1 3.25 -29.1 1.5 -29.1 0.4 -28.2 -0.15 -27.0 -0.9 -23.55 -1.35 -24.95 -1.2 -25.5 -2.05 L-25.8 -3.05 Q-25.8 -5.8 -14.55 -5.6 3.85 -4.85 18.15 -4.85 23.8 -4.85 25.65 -1.25" fill="#8d6d3f" fill-opacity="0.3019608" fill-rule="evenodd" stroke="none"/>
    <path d="M27.15 -0.25 Q27.15 3.6 18.75 5.0 L-16.45 6.5 Q-19.9 6.5 -20.7 5.8 L-20.9 4.9 Q-20.9 3.25 -16.25 1.4 -10.9 -0.7 -5.85 1.2 L-3.0 1.2 Q-3.65 0.85 -4.55 -0.3 -5.4 -1.45 -5.4 -1.95 2.75 -4.0 10.9 -4.8 27.15 -6.4 27.15 -0.25" fill="#8d6d3f" fill-opacity="0.3019608" fill-rule="evenodd" stroke="none"/>
    <path d="M21.95 6.05 L-8.85 4.95 -24.4 3.85 -24.55 3.7 -24.7 2.95 Q-24.7 2.35 -24.2 2.25 L-17.4 2.05 -16.1 2.2 -16.3 2.6 -1.05 3.1 8.6 3.0 -7.25 2.0 Q-9.15 1.7 -9.15 0.45 -9.15 -0.4 -3.25 -0.75 2.35 -1.05 9.7 -0.7 28.5 0.2 28.5 3.35 L21.95 6.05" fill="#8d6d3f" fill-opacity="0.3019608" fill-rule="evenodd" stroke="none"/>
    <path d="M30.1 -1.6 Q30.1 0.3 26.5 0.75 L26.75 2.15 Q26.75 3.35 26.4 3.85 25.75 4.8 23.65 4.8 L22.05 4.45 21.1 4.05 -21.95 3.85 Q-23.9 3.85 -23.9 1.8 -23.9 1.35 -22.95 1.1 -21.2 0.6 -19.1 -0.8 L-23.25 -1.1 Q-25.55 -1.4 -25.55 -3.05 -25.55 -3.7 -24.95 -4.0 L-18.55 -4.55 -2.45 -4.65 25.9 -3.8 Q30.1 -3.25 30.1 -1.6" fill="#8d6d3f" fill-opacity="0.3019608" fill-rule="evenodd" stroke="none"/>
    <path d="M1.25 -4.0 L-2.1 -4.1 -1.8 -4.05 -4.5 -4.1 -14.0 -4.3 -24.9 -4.4 -24.85 -4.15 -24.35 -1.5 -23.95 -1.6 -23.0 -1.25 -17.6 -0.85 -17.75 -0.6 -19.85 -0.55 -22.7 -0.4 -24.1 -0.3 -24.45 -0.35 -24.8 -0.45 -24.3 -0.3 Q-24.45 0.55 -24.2 1.35 L-24.35 2.5 -24.45 3.6 -24.55 3.9 -24.9 4.0 -22.8 4.1 -5.05 4.15 Q10.9 4.25 12.3 4.4 L12.5 4.5 12.9 4.6 24.15 4.5 25.25 4.55 25.25 4.15 15.85 3.9 25.3 3.7 Q25.55 2.45 25.15 1.7 L23.95 1.7 Q23.15 1.7 23.15 1.5 L24.3 1.35 25.5 1.25 25.5 1.2 25.75 0.3 25.5 -1.55 25.5 -1.8 22.95 -1.8 17.25 -1.85 16.8 -2.0 25.5 -2.3 25.5 -3.7 24.4 -3.7 20.5 -3.95 3.25 -4.2 1.25 -4.0 M8.45 -0.8 Q8.65 -0.6 8.85 -0.6 L9.65 -0.65 9.65 -0.8 9.25 -0.95 8.5 -0.9 8.45 -0.8 M8.4 -1.1 L8.25 -1.25 8.1 -1.25 Q10.05 -1.55 10.05 -0.7 L10.0 -0.4 9.45 -0.3 8.35 -0.55 8.2 -0.8 8.3 -0.95 8.4 -1.1 M22.0 -1.35 L22.75 -1.4 24.85 -1.3 24.15 -1.2 22.35 -1.2 Q22.0 -1.25 22.0 -1.35 M24.95 -4.55 L26.25 -4.35 26.15 -4.0 26.35 0.5 26.2 1.15 26.0 1.45 25.95 1.65 25.85 1.65 25.95 2.55 Q25.8 3.8 25.95 4.6 L26.0 4.75 26.0 4.85 25.9 5.05 22.5 5.1 14.65 5.45 11.5 5.25 8.75 5.0 Q-2.45 5.35 -13.7 5.0 L-25.25 4.8 -25.35 4.6 -25.15 4.5 -25.45 4.35 -24.9 4.0 -25.2 3.6 -25.2 3.2 -24.7 1.25 -24.85 0.65 -25.05 0.15 -25.0 -0.45 -24.8 -0.45 -24.85 -0.5 -24.1 -0.9 -24.4 -0.95 -24.45 -0.9 -24.6 -0.85 -24.85 -1.0 -25.0 -1.05 -25.0 -1.15 Q-24.8 -0.95 -25.0 -1.35 L-25.35 -4.45 -25.3 -5.15 Q-25.25 -5.9 -25.1 -5.65 L-15.7 -5.3 -6.85 -5.05 -0.6 -4.8 11.4 -4.8 Q21.4 -4.5 22.6 -4.55 L24.95 -4.55 M-12.3 -0.55 L-12.65 -0.65 -12.25 -0.9 -12.1 -0.6 -12.3 -0.55 M-11.3 -0.85 L-11.15 -0.9 -10.55 -0.7 -9.8 -0.95 Q-2.25 -1.25 -0.15 -1.05 L2.0 -0.8 -9.85 -0.55 -10.45 -0.3 -11.25 -0.45 -11.25 -0.85 -11.3 -0.85 M-20.35 2.6 Q-16.25 2.35 -8.25 2.35 -0.25 2.3 0.95 2.4 L3.6 2.6 0.9 2.75 -4.6 2.8 -20.35 2.6 M11.9 1.6 L15.75 1.5 21.5 1.55 14.5 1.75 11.9 1.6" fill="#5a493f" fill-rule="evenodd" stroke="none"/>
  </g>
</svg>
