<?xml version="1.0" encoding="UTF-8" standalone="no"?>
<svg xmlns:xlink="http://www.w3.org/1999/xlink" height="84.55px" width="440.35px" xmlns="http://www.w3.org/2000/svg">
  <g transform="matrix(1.0, 0.0, 0.0, 1.0, -199.65, -176.45)">
    <path d="M245.65 176.45 L262.0 176.75 Q269.3 176.75 273.8 178.85 L273.75 180.35 Q273.75 204.4 271.25 253.15 L270.85 261.0 199.65 261.0 199.75 260.0 Q200.25 257.15 200.15 255.7 L199.95 254.5 200.25 253.85 Q200.25 252.6 201.0 247.3 L201.75 240.75 Q201.75 238.9 204.15 233.5 L204.2 233.4 213.0 234.0 Q219.75 234.0 222.0 225.5 223.0 221.6 223.0 213.85 223.0 213.15 221.65 211.1 220.15 208.85 220.0 208.25 L226.05 206.65 Q229.45 205.75 231.0 205.75 231.8 205.75 232.85 204.7 L238.0 205.5 240.75 205.25 Q241.5 204.6 241.5 202.1 241.5 194.25 240.6 190.15 244.4 181.1 245.65 176.45 M618.5 235.15 L640.0 236.0 640.0 261.0 535.1 261.0 535.85 256.35 Q535.85 254.95 535.15 253.55 533.85 251.0 530.85 251.0 L528.3 251.15 527.6 251.25 Q529.8 242.25 527.0 239.75 L524.75 238.15 Q523.6 237.2 523.6 235.35 523.6 234.1 524.75 232.75 525.85 231.35 525.85 230.1 L525.75 227.8 525.85 227.0 Q526.95 228.0 535.7 230.9 544.9 234.0 547.85 234.0 553.45 234.0 558.85 231.05 L560.85 229.85 568.85 230.0 575.8 229.75 Q577.7 235.75 579.85 235.75 582.7 235.75 584.55 232.9 586.4 230.0 590.25 230.0 L592.5 232.15 Q595.1 234.25 596.85 234.25 L618.5 235.15" fill="url(#gradient0)" fill-rule="evenodd" stroke="none"/>
  </g>
  <defs>
    <linearGradient gradientTransform="matrix(0.0, 0.293, -0.2841, 0.0, 320.0, 240.0)" gradientUnits="userSpaceOnUse" id="gradient0" spreadMethod="pad" x1="-819.2" x2="819.2">
      <stop offset="0.0" stop-color="#9fdfdf"/>
      <stop offset="1.0" stop-color="#ffffff"/>
    </linearGradient>
  </defs>
</svg>
