<?xml version="1.0" encoding="UTF-8" standalone="no"?>
<svg xmlns:xlink="http://www.w3.org/1999/xlink" height="169.25px" width="140.4px" xmlns="http://www.w3.org/2000/svg">
  <g transform="matrix(1.0, 0.0, 0.0, 1.0, 71.75, 72.35)">
    <path d="M56.5 -66.65 Q54.65 -65.85 54.25 -65.0 57.65 -64.65 59.3 -63.3 60.5 -62.3 60.5 -61.0 60.5 -60.0 59.45 -60.45 57.85 -61.15 57.25 -61.1 54.0 -60.75 54.25 -48.0 L54.65 -40.5 55.0 -34.5 54.9 -28.1 Q54.5 -23.0 53.0 -21.75 L53.0 -17.5 Q58.1 -18.85 61.05 -17.5 60.0 -15.1 60.0 -10.85 60.0 -10.3 60.8 -8.0 L60.9 -7.8 60.4 -7.35 53.75 -1.75 Q55.5 0.55 58.45 3.5 60.5 5.9 60.5 8.75 60.5 11.45 59.25 13.25 57.5 15.7 53.0 17.75 L53.0 18.25 59.4 18.7 Q59.0 20.5 59.0 25.5 59.0 27.05 60.55 32.5 L56.75 34.5 Q59.1 35.0 60.1 37.1 60.75 38.45 60.75 40.1 60.75 42.0 58.25 44.95 55.75 47.95 55.75 51.0 55.75 51.7 53.0 54.8 L50.25 58.0 Q50.25 59.4 53.5 62.6 56.75 65.8 56.75 68.0 56.75 70.95 54.55 72.55 51.5 74.75 44.0 74.75 38.55 74.75 37.4 71.55 37.25 71.15 37.25 67.75 L25.5 66.5 Q23.5 66.5 17.9 68.65 L12.0 70.75 Q4.2 70.75 -3.05 68.15 L-9.75 65.5 Q-11.25 65.5 -14.8 67.0 -18.3 68.5 -19.0 68.5 -20.25 68.5 -21.6 67.5 -23.0 66.5 -24.25 66.5 -26.15 66.5 -29.95 68.65 -33.75 70.75 -35.0 70.75 -40.2 70.75 -41.15 69.15 -42.1 67.5 -47.5 67.5 -54.45 67.5 -56.3 60.25 -56.85 58.0 -56.85 55.2 L-56.75 52.75 -56.8 47.4 Q-56.55 45.0 -54.95 43.35 -51.45 39.7 -34.25 34.5 -34.45 32.65 -36.55 26.3 -38.5 20.45 -38.5 17.25 -38.5 13.05 -34.75 11.5 -32.55 10.55 -26.5 10.15 -20.5 9.75 -18.25 8.75 -14.5 7.15 -14.5 2.85 -14.5 -0.3 -17.5 -2.35 -20.5 -4.45 -20.5 -8.0 -20.5 -11.7 -17.4 -13.35 -12.65 -15.9 1.5 -16.5 L1.85 -18.0 Q3.25 -19.9 8.5 -22.5 2.9 -24.8 3.85 -26.6 L5.3 -28.35 Q6.25 -29.55 6.25 -30.75 L4.5 -33.3 Q2.75 -35.6 2.75 -36.75 2.75 -38.35 5.9 -39.05 L12.8 -40.15 Q22.95 -41.95 23.25 -49.25 23.3 -51.5 22.8 -56.0 22.85 -59.95 25.75 -62.75 L23.95 -64.6 Q23.25 -65.6 23.25 -67.25 23.25 -67.8 28.7 -69.2 34.45 -70.7 40.65 -71.55 58.0 -74.0 58.0 -68.85 58.0 -67.3 56.5 -66.65" fill="#5b5546" fill-opacity="0.3019608" fill-rule="evenodd" stroke="none"/>
    <path d="M54.25 -57.55 Q50.15 -52.5 37.0 -52.5 34.6 -52.5 33.45 -54.0 32.6 -55.15 32.75 -56.25 25.2 -56.55 22.9 -57.95 21.75 -58.65 21.75 -60.25 21.75 -61.7 25.0 -63.25 29.1 -65.25 35.5 -65.25 41.7 -65.25 44.35 -64.3 45.75 -63.75 47.5 -62.0 49.5 -62.9 49.65 -64.8 L50.0 -68.75 Q53.75 -69.35 55.05 -68.7 56.25 -68.05 56.25 -65.75 56.25 -59.95 54.25 -57.55" fill="#5b5546" fill-opacity="0.3019608" fill-rule="evenodd" stroke="none"/>
    <path d="M25.9 -37.1 Q26.25 -36.55 26.25 -35.1 26.25 -30.75 14.5 -30.75 10.55 -30.75 8.05 -32.8 6.25 -34.2 6.25 -35.0 6.25 -36.6 8.7 -37.55 13.4 -39.35 25.5 -37.75 L25.9 -37.1" fill="#5b5546" fill-opacity="0.3019608" fill-rule="evenodd" stroke="none"/>
    <path d="M5.25 -3.5 Q3.9 -3.25 -5.0 -3.25 -14.05 -3.25 -16.25 -4.45 -16.95 -4.85 -16.95 -5.4 L-16.75 -6.0 Q-16.75 -6.85 -13.1 -8.05 -9.35 -9.3 -5.0 -9.8 6.75 -11.2 6.75 -5.85 6.75 -3.85 5.25 -3.5" fill="#5b5546" fill-opacity="0.3019608" fill-rule="evenodd" stroke="none"/>
    <path d="M-18.2 25.5 L-27.0 26.25 Q-33.4 26.25 -35.0 24.25 -35.75 23.3 -35.25 22.75 -35.25 20.75 -32.1 19.3 -29.2 17.9 -25.25 17.65 -21.1 17.4 -18.35 18.65 -15.25 20.05 -15.25 23.0 -15.25 24.75 -18.2 25.5" fill="#5b5546" fill-opacity="0.3019608" fill-rule="evenodd" stroke="none"/>
    <path d="M-29.5 49.2 Q-29.25 49.55 -29.25 51.0 -29.25 52.4 -34.0 54.0 -39.95 56.0 -49.0 56.0 -58.3 56.0 -60.55 54.75 -61.25 54.35 -61.2 53.85 L-61.0 53.25 Q-61.0 50.65 -60.45 49.65 -59.65 48.1 -56.95 47.5 -51.05 46.15 -29.75 48.75 L-29.5 49.2" fill="#5b5546" fill-opacity="0.3019608" fill-rule="evenodd" stroke="none"/>
    <path d="M48.85 10.5 Q52.1 10.5 52.2 9.0 52.25 6.95 54.0 6.25 L56.7 6.5 Q57.5 6.7 57.5 8.25 57.5 19.0 24.0 19.0 18.15 19.0 16.3 17.75 15.5 17.25 15.5 16.25 15.5 14.75 16.65 14.1 L19.9 13.2 Q26.45 11.7 31.75 7.25 34.55 4.9 37.6 5.9 40.65 6.95 40.75 10.25 L48.85 10.5" fill="#5b5546" fill-opacity="0.3019608" fill-rule="evenodd" stroke="none"/>
    <path d="M39.0 -12.3 Q44.05 -10.85 52.25 -9.25 L52.5 -9.45 52.75 -7.75 Q52.75 -7.4 50.5 -6.7 48.25 -6.0 48.25 -5.0 48.25 -3.4 47.0 -3.05 L42.5 -2.75 34.15 -3.2 Q25.45 -4.65 22.25 -9.5 23.8 -11.35 26.8 -12.05 L32.0 -12.5 39.0 -12.3" fill="#5b5546" fill-opacity="0.3019608" fill-rule="evenodd" stroke="none"/>
    <path d="M48.75 49.25 Q48.75 51.6 47.75 51.55 46.45 51.0 45.75 51.0 L38.35 54.65 31.0 58.25 Q29.4 58.25 28.9 57.1 L28.5 55.0 Q17.65 57.15 16.2 54.3 15.75 53.35 16.15 51.55 L16.75 49.0 Q16.75 48.6 14.0 46.25 14.0 44.3 17.05 42.65 20.15 41.0 24.05 40.9 34.35 40.55 36.5 50.25 L40.45 48.65 Q43.6 47.3 45.0 47.0 47.75 48.5 48.75 49.25" fill="#5b5546" fill-opacity="0.3019608" fill-rule="evenodd" stroke="none"/>
    <path d="M53.0 -35.75 L47.5 -35.75 47.15 -36.15 Q46.75 -36.6 46.75 -38.1 46.75 -38.8 49.15 -41.1 51.45 -43.35 51.25 -45.25 L54.65 -45.05 Q56.75 -44.4 56.75 -42.75 54.35 -36.75 53.0 -35.75" fill="#5b5546" fill-opacity="0.3019608" fill-rule="evenodd" stroke="none"/>
    <path d="M-9.75 49.45 Q-9.5 49.8 -9.5 51.25 -9.5 52.65 -10.6 54.2 -11.75 55.8 -11.75 56.25 L-3.9 56.95 Q2.7 57.55 3.0 58.0 -1.5 60.0 -8.2 60.15 L-20.0 61.25 Q-21.25 60.85 -21.7 60.25 -22.25 59.5 -22.25 57.75 -22.25 56.45 -17.55 52.7 -12.6 48.75 -10.0 49.0 L-9.75 49.45" fill="#5b5546" fill-opacity="0.3019608" fill-rule="evenodd" stroke="none"/>
    <path d="M28.0 92.5 L24.1 92.0 Q17.6 92.0 14.95 93.5 12.3 95.0 6.5 95.0 -2.25 95.0 -2.85 93.0 -2.9 92.0 -3.15 91.65 -3.6 91.0 -5.75 91.0 L-13.4 93.0 Q-21.25 95.0 -23.5 95.0 L-30.4 94.3 Q-31.25 93.9 -31.35 92.8 -31.5 91.0 -41.0 91.75 -58.2 93.2 -63.55 91.2 -66.0 90.3 -66.0 87.75 -66.0 83.95 -64.0 82.45 -62.75 81.5 -59.6 81.1 -56.4 80.65 -55.25 79.85 -53.25 78.55 -53.25 75.0 -53.8 73.4 -53.45 72.35 -52.8 70.4 -48.25 69.05 -34.85 65.2 13.0 66.25 L51.4 69.75 Q55.7 70.2 56.9 71.05 58.0 71.75 58.0 73.85 58.0 75.4 56.8 76.85 55.2 78.75 52.5 78.5 L58.2 87.15 Q60.0 90.0 60.0 90.85 60.0 93.55 58.3 94.3 L50.5 95.0 44.75 94.0 39.0 93.0 28.0 92.5" fill="#5b5546" fill-opacity="0.3019608" fill-rule="evenodd" stroke="none"/>
    <path d="M33.6 69.55 Q34.2 70.2 34.5 72.0 L37.3 70.25 Q38.75 69.25 41.5 69.25 47.5 69.25 50.2 71.45 53.0 73.7 51.25 77.5 L51.25 78.0 52.2 77.65 55.0 77.25 Q57.35 77.25 58.3 79.05 58.75 79.95 58.75 81.1 58.75 83.35 56.15 84.6 L51.25 86.75 51.25 87.25 Q60.2 86.35 63.8 88.5 66.0 89.75 66.0 92.0 66.0 93.95 64.55 95.05 63.2 96.0 61.0 96.0 53.0 96.0 46.4 92.9 L41.25 89.75 Q39.45 89.75 33.1 91.15 L25.5 92.5 18.15 91.4 10.75 90.25 Q7.05 90.25 4.15 91.9 1.25 93.5 -1.0 93.5 L-15.95 94.2 Q-25.1 93.5 -25.25 86.25 L-33.3 86.9 Q-40.55 87.2 -43.0 85.0 -43.35 85.0 -43.45 85.55 L-43.5 87.25 -44.0 87.9 Q-44.5 88.5 -46.0 88.5 L-48.9 88.15 -54.0 87.75 -59.25 87.25 -59.5 86.8 -59.75 85.0 Q-59.75 82.2 -56.0 80.05 -52.25 77.9 -52.25 76.35 -52.25 75.1 -53.35 73.2 -54.5 71.25 -54.5 70.0 L-54.45 68.55 -54.0 68.0 -45.8 67.55 -36.5 67.25 -23.95 67.8 Q-23.85 67.95 -24.65 68.85 -25.45 69.8 -25.25 70.75 L-17.05 69.8 -5.25 69.0 7.85 70.5 18.2 69.5 28.5 68.5 Q32.65 68.5 33.6 69.55" fill="#5b5546" fill-opacity="0.3019608" fill-rule="evenodd" stroke="none"/>
    <path d="M22.0 73.75 L17.15 74.75 -4.25 75.75 Q-22.7 75.75 -24.8 77.5 -25.3 77.95 -25.45 78.7 -25.95 79.25 -29.0 79.25 -33.75 79.25 -34.45 77.45 L-34.25 75.0 -41.85 75.45 -45.0 75.75 -47.45 75.75 Q-40.85 74.8 -30.5 68.5 -29.35 67.85 -25.85 67.05 L-20.5 66.25 -14.9 67.25 -9.35 68.25 13.35 67.15 36.0 66.0 Q47.9 66.0 53.0 67.75 57.25 69.15 57.25 72.0 57.25 76.25 51.5 76.25 L36.75 75.0 22.0 73.75 M-53.7 75.05 L-55.75 74.25 Q-56.75 73.65 -56.75 72.0 -56.75 71.65 -56.15 72.95 -55.25 74.3 -53.7 75.05" fill="#5b5546" fill-opacity="0.3019608" fill-rule="evenodd" stroke="none"/>
    <path d="M15.5 85.9 L15.0 85.25 Q15.0 82.35 18.85 80.9 24.3 78.8 36.0 80.75 L36.25 81.2 36.5 83.0 Q36.5 84.35 36.0 84.75 35.55 85.15 33.65 85.4 24.3 86.55 18.0 88.0 L15.5 85.9" fill="#5b5546" fill-opacity="0.3019608" fill-rule="evenodd" stroke="none"/>
    <path d="M-30.85 87.8 Q-31.25 87.35 -31.25 85.85 -31.25 83.9 -25.7 82.75 -17.95 81.1 -2.5 82.25 L-2.1 83.15 -1.5 84.25 Q-5.65 87.45 -8.15 87.1 -11.75 86.55 -16.0 88.25 L-30.5 88.25 -30.85 87.8" fill="#5b5546" fill-opacity="0.3019608" fill-rule="evenodd" stroke="none"/>
    <path d="M54.25 -69.25 Q52.7 -68.15 49.75 -67.05 L42.25 -64.75 42.8 -64.45 Q43.0 -64.35 43.0 -62.85 43.0 -61.2 41.8 -60.55 40.75 -60.0 38.5 -60.0 32.65 -60.0 27.05 -62.25 21.5 -64.5 21.5 -66.75 21.5 -70.75 30.05 -71.0 35.25 -71.15 50.0 -70.5 53.0 -70.5 54.25 -69.25" fill="#669900" fill-opacity="0.3019608" fill-rule="evenodd" stroke="none"/>
    <path d="M34.0 -61.8 Q33.25 -59.75 30.0 -59.75 26.85 -59.75 24.0 -62.8 21.75 -65.2 21.75 -66.1 21.75 -66.75 23.7 -68.3 25.85 -70.0 28.0 -70.8 34.25 -73.1 34.25 -65.5 L34.0 -61.8" fill="#669900" fill-opacity="0.3019608" fill-rule="evenodd" stroke="none"/>
    <path d="M31.3 -48.7 Q34.55 -47.65 40.5 -42.5 39.1 -40.8 32.65 -38.0 26.8 -35.5 26.0 -35.5 15.35 -35.5 11.0 -37.5 8.5 -38.65 8.5 -40.25 8.5 -42.9 8.8 -43.6 9.05 -44.3 9.95 -44.05 L12.6 -43.15 Q14.85 -42.5 17.25 -42.5 20.95 -42.5 23.45 -44.55 L26.9 -48.05 Q28.75 -49.6 31.3 -48.7" fill="#669900" fill-opacity="0.3019608" fill-rule="evenodd" stroke="none"/>
    <path d="M32.25 -30.25 Q29.2 -31.25 26.5 -31.25 25.4 -31.25 24.6 -28.05 23.75 -24.85 24.5 -23.0 L19.65 -25.35 Q17.5 -26.3 17.5 -28.6 17.5 -30.8 22.85 -35.8 28.75 -41.3 33.25 -41.25 34.0 -37.85 34.0 -34.1 34.0 -30.1 32.25 -30.25" fill="#669900" fill-opacity="0.3019608" fill-rule="evenodd" stroke="none"/>
    <path d="M28.15 -42.55 Q32.25 -42.55 32.25 -37.85 L32.05 -35.4 31.5 -33.75 31.7 -33.35 Q31.55 -33.0 30.0 -33.0 28.4 -33.0 28.05 -34.2 27.8 -34.85 27.75 -36.5 L26.5 -35.25 Q25.4 -35.25 24.9 -35.6 24.0 -36.2 24.0 -37.85 24.0 -42.55 28.15 -42.55" fill="#669900" fill-opacity="0.3019608" fill-rule="evenodd" stroke="none"/>
    <path d="M9.25 -9.0 Q9.25 -7.2 8.8 -6.4 8.4 -5.75 7.0 -4.75 L-5.5 -4.75 -5.85 -5.15 Q-6.25 -5.6 -6.25 -7.1 -6.25 -8.75 -4.35 -9.05 0.5 -9.75 2.75 -10.5 L2.2 -11.3 0.0 -11.5 Q-1.25 -11.5 -3.5 -10.5 -5.75 -9.5 -7.0 -9.5 -8.65 -9.5 -9.3 -9.85 L-10.25 -10.75 Q-10.5 -9.75 -10.5 -12.25 -10.5 -13.45 -6.55 -15.05 -2.85 -16.5 -1.0 -16.5 4.4 -16.5 7.2 -13.5 9.25 -11.35 9.25 -9.0" fill="#669900" fill-opacity="0.3019608" fill-rule="evenodd" stroke="none"/>
    <path d="M54.15 2.7 Q55.35 2.95 55.5 3.25 53.95 3.9 46.8 7.6 L40.0 11.0 Q37.9 11.0 35.9 9.25 33.95 7.5 33.25 7.5 L24.65 8.75 16.0 10.0 14.1 9.8 11.25 9.25 Q9.5 8.5 9.25 7.75 11.3 6.75 31.85 5.2 51.75 3.7 53.0 2.5 L54.15 2.7" fill="#669900" fill-opacity="0.3019608" fill-rule="evenodd" stroke="none"/>
    <path d="M46.5 4.3 Q46.75 4.45 46.75 6.0 46.75 8.75 43.0 8.75 L29.2 8.3 16.75 7.25 Q16.5 8.25 16.5 5.75 16.5 4.55 21.9 2.05 27.75 -0.6 35.0 -2.25 L39.25 0.15 46.25 4.5 46.5 4.3" fill="#669900" fill-opacity="0.3019608" fill-rule="evenodd" stroke="none"/>
    <path d="M-34.2 48.55 L-37.0 51.5 Q-49.15 51.5 -52.5 49.0 -54.2 47.75 -53.5 46.35 -53.5 44.0 -42.6 43.45 -31.75 42.95 -31.75 45.75 L-34.2 48.55" fill="#669900" fill-opacity="0.3019608" fill-rule="evenodd" stroke="none"/>
    <path d="M-35.0 48.5 Q-36.6 46.9 -37.2 45.55 -37.75 44.35 -37.75 42.75 -37.75 38.0 -33.85 38.05 -32.35 38.05 -31.2 39.05 -30.0 40.15 -30.0 41.85 -30.0 46.35 -35.0 48.5" fill="#669900" fill-opacity="0.3019608" fill-rule="evenodd" stroke="none"/>
    <path d="M-10.45 24.95 Q-12.75 23.9 -13.75 22.5 L-13.75 21.0 Q-13.3 20.7 -10.45 20.95 L-5.85 21.25 Q-5.35 21.25 -4.1 20.25 L-2.0 18.75 Q0.5 17.6 0.5 23.75 0.5 26.5 -3.0 26.5 -7.25 26.5 -10.45 24.95" fill="#669900" fill-opacity="0.3019608" fill-rule="evenodd" stroke="none"/>
    <path d="M49.9 47.65 Q49.05 48.25 44.5 48.25 39.15 48.25 38.45 46.9 37.75 45.5 34.0 45.5 32.75 45.5 29.5 46.75 26.25 48.0 25.0 48.0 L21.0 47.5 21.0 42.25 Q23.15 37.65 26.2 36.7 28.75 35.95 32.8 37.6 33.75 38.0 40.95 41.7 46.55 44.6 50.75 45.75 L49.9 47.65" fill="#669900" fill-opacity="0.3019608" fill-rule="evenodd" stroke="none"/>
    <path d="M38.5 48.8 L31.0 49.25 25.45 48.55 Q21.85 47.85 20.5 47.25 L34.3 44.75 Q39.25 44.35 39.25 46.75 39.25 48.5 38.5 48.8" fill="#669900" fill-opacity="0.3019608" fill-rule="evenodd" stroke="none"/>
    <path d="M-66.5 83.2 Q-61.85 79.0 -55.95 75.6 -49.75 72.05 -46.6 72.0 -43.0 72.0 -45.25 77.0 L-40.0 76.25 Q-37.25 78.7 -37.25 79.75 -37.25 81.4 -39.2 82.15 -42.95 83.5 -54.25 83.0 -52.65 83.9 -51.85 85.3 -51.25 86.3 -51.25 87.1 L-51.75 89.0 -52.35 89.4 -54.5 89.75 Q-55.75 89.75 -57.25 88.65 -58.75 87.5 -60.0 87.5 -61.65 87.5 -64.35 90.9 -67.1 94.35 -69.0 94.5 -70.85 93.85 -71.3 92.5 -71.5 92.0 -71.5 90.25 -71.5 87.75 -66.5 83.2" fill="#669900" fill-opacity="0.3019608" fill-rule="evenodd" stroke="none"/>
    <path d="M-45.6 79.25 Q-45.25 80.55 -45.25 82.25 -45.25 83.85 -53.0 86.5 -54.75 86.5 -56.65 85.9 -58.4 85.35 -59.0 84.75 -55.4 83.1 -50.8 79.75 -47.05 77.0 -46.5 77.0 L-45.6 79.25" fill="#669900" fill-opacity="0.3019608" fill-rule="evenodd" stroke="none"/>
    <path d="M33.1 84.25 Q31.45 85.75 30.0 85.75 L19.15 84.9 17.0 83.5 16.5 82.75 Q22.15 81.6 27.45 79.55 L34.85 76.55 Q41.5 74.1 48.5 77.25 L46.5 77.75 Q51.0 78.65 54.0 80.6 56.75 82.4 56.75 84.0 56.75 85.55 54.3 87.0 51.75 88.5 49.0 88.5 44.7 88.5 41.5 85.65 38.3 82.75 36.6 82.75 34.8 82.75 33.1 84.25" fill="#669900" fill-opacity="0.3019608" fill-rule="evenodd" stroke="none"/>
    <path d="M34.25 84.25 L33.35 83.7 32.25 82.75 Q37.2 79.45 39.8 78.45 L42.25 77.5 42.8 77.95 Q43.0 78.2 43.0 79.75 L42.1 81.5 40.0 84.25 34.25 84.25" fill="#669900" fill-opacity="0.3019608" fill-rule="evenodd" stroke="none"/>
    <path d="M-3.5 80.25 Q-4.45 81.6 -4.65 83.0 L-4.75 85.5 -4.55 85.9 Q-4.45 86.25 -6.0 86.25 -10.5 86.25 -11.45 84.35 -12.45 82.35 -15.5 82.25 L-14.0 80.95 Q-12.65 80.25 -11.0 80.25 -9.55 80.25 -8.55 81.3 L-7.25 82.5 -6.8 80.4 Q-6.5 79.15 -6.0 79.0 -3.75 79.75 -3.5 80.25" fill="#669900" fill-opacity="0.3019608" fill-rule="evenodd" stroke="none"/>
    <path d="M20.95 73.75 Q21.25 74.65 22.25 75.25 22.55 75.4 21.9 75.4 19.75 75.4 19.75 73.7 19.75 72.3 20.35 72.4 L20.95 73.75 M38.15 70.75 L37.85 71.5 37.6 71.5 37.85 70.65 Q38.15 70.15 38.5 70.15 L38.15 70.75 M37.15 71.75 L37.5 71.75 Q38.0 72.25 38.0 73.0 38.0 74.2 36.5 75.4 L36.3 75.55 36.2 76.75 Q36.25 78.75 38.35 79.5 L38.0 79.75 39.3 80.25 Q44.15 80.25 44.9 79.6 45.75 78.85 46.85 78.75 L47.0 77.25 48.7 79.55 Q49.35 80.4 50.15 80.85 L51.35 80.5 52.05 80.3 Q52.5 79.2 52.5 75.55 L52.15 70.15 51.8 69.7 51.35 69.6 Q53.1 67.5 53.75 72.5 L54.0 78.65 54.0 80.0 Q53.9 81.0 53.25 81.0 L52.6 80.85 Q52.3 81.1 51.8 81.35 L53.1 81.25 52.75 82.05 53.75 82.25 53.85 83.3 53.65 84.8 Q54.9 84.65 56.2 85.9 L57.85 87.85 Q58.25 87.3 59.1 87.4 60.9 87.6 62.25 91.1 63.15 92.35 65.05 93.45 L64.9 93.5 Q63.25 94.35 62.15 93.25 L61.55 92.5 61.0 93.0 Q60.35 93.4 59.25 93.4 L57.0 93.35 56.75 93.25 Q57.6 92.0 59.1 91.75 L61.0 91.6 61.1 91.65 60.9 91.2 Q60.45 89.95 60.75 89.15 L60.75 89.0 57.75 89.75 Q57.45 90.1 57.4 89.65 L56.45 89.3 55.2 89.9 55.35 90.25 54.5 90.75 54.35 90.25 53.75 90.25 Q53.65 90.55 53.65 89.9 53.65 89.6 54.15 89.2 L53.9 87.95 53.7 87.4 54.65 88.85 54.9 88.65 55.7 88.25 Q55.3 87.4 55.15 86.0 L52.75 85.95 52.5 86.1 53.2 86.7 Q52.8 86.4 52.2 86.25 L49.25 86.65 47.85 86.55 47.65 86.5 46.5 86.6 Q44.95 86.6 44.25 85.45 43.85 84.8 43.85 84.15 43.85 83.35 44.5 82.9 L47.65 86.1 51.15 85.0 Q53.1 84.05 53.1 82.85 L52.15 82.6 51.5 82.75 Q50.35 82.75 49.1 81.95 L47.5 82.0 46.85 81.35 46.35 80.5 46.4 80.45 45.75 80.75 42.6 81.25 38.45 80.75 37.1 79.9 Q36.4 79.85 36.0 79.3 35.9 80.1 35.05 81.1 34.0 82.25 33.0 82.25 L30.35 81.75 Q32.2 81.4 33.65 79.85 L35.5 77.75 35.6 77.85 35.5 76.9 35.5 76.05 Q34.2 76.75 32.6 76.75 L29.75 75.9 Q27.0 75.0 24.0 75.0 23.65 75.0 23.25 75.25 L22.6 75.6 22.5 75.4 Q25.15 73.9 29.25 73.9 29.65 73.9 32.25 75.1 34.05 75.1 35.5 73.85 L35.65 73.75 35.65 73.5 35.9 73.5 Q36.75 72.7 36.75 72.15 36.75 71.8 37.15 71.75 M14.8 72.75 Q14.3 73.2 13.25 73.25 12.7 73.1 12.5 72.75 L13.65 70.5 14.0 68.65 Q14.05 68.0 12.85 68.0 14.25 66.45 14.8 68.95 L15.1 72.15 14.8 72.75 M12.35 73.25 Q11.65 73.3 9.85 74.0 L7.35 74.75 3.5 74.25 8.5 73.4 12.25 73.1 12.35 73.25 M12.75 79.35 Q12.75 80.85 12.05 81.75 11.1 82.95 8.5 83.9 L8.0 84.0 Q7.9 84.3 7.9 83.65 8.8 83.8 9.75 83.0 11.75 81.45 12.35 76.65 L12.5 76.65 12.75 79.35 M12.5 76.15 Q12.2 75.8 10.9 75.35 L9.5 74.75 Q11.5 73.65 12.9 75.9 12.9 76.1 12.5 76.15 M7.35 83.75 L1.6 84.65 0.75 84.35 Q1.0 83.7 1.7 83.45 L7.35 83.75 M17.7 89.4 L15.85 89.1 Q23.75 89.4 25.15 87.9 25.55 87.45 25.5 86.6 L25.5 85.5 26.1 85.75 Q25.6 86.15 25.45 87.95 L25.45 88.0 Q27.05 87.1 28.75 89.75 L28.65 90.1 28.25 90.25 25.25 89.6 Q24.6 89.9 24.55 90.6 L24.35 91.75 24.0 91.75 23.9 90.65 Q23.9 89.6 24.4 88.9 23.0 89.6 20.0 89.6 L17.7 89.4 M24.0 85.5 Q21.2 84.05 20.6 84.0 L23.15 84.15 Q24.6 84.55 25.1 85.0 24.6 85.5 24.0 85.5 M27.9 92.75 L26.75 93.25 26.6 93.15 27.5 92.3 28.25 91.75 28.55 91.8 29.0 92.0 27.9 92.75 M38.6 89.75 Q38.6 88.75 40.1 88.2 L44.35 88.0 Q42.65 88.0 41.0 89.25 L40.45 89.65 43.05 88.85 47.0 88.65 Q45.9 89.25 43.4 89.6 L40.1 89.95 39.25 90.6 Q38.6 90.45 38.6 89.75 M47.75 69.35 Q48.45 69.35 48.75 69.65 47.1 70.9 47.5 72.25 L47.0 72.5 45.95 70.9 Q45.15 69.75 43.25 69.4 L46.1 69.1 47.75 69.35 M46.75 80.15 L46.9 80.15 47.25 80.6 Q47.3 80.8 47.85 80.9 L46.95 79.9 46.75 80.15 M52.15 91.95 L52.25 91.1 Q52.9 91.1 53.55 91.6 L54.25 92.5 Q54.25 93.0 53.5 93.0 53.1 93.0 52.6 92.5 L52.15 91.95 M66.25 94.1 Q67.9 95.15 68.65 96.25 68.6 96.9 67.75 96.9 66.95 96.9 66.65 96.0 L66.4 94.75 66.25 94.1 M-52.8 67.85 L-52.75 68.25 -53.4 69.2 -54.05 70.15 -53.75 71.0 -53.5 71.85 -53.8 73.7 Q-53.25 73.55 -52.2 74.15 -50.65 75.05 -49.0 76.75 -48.7 76.8 -49.25 77.1 L-50.0 77.4 -51.35 77.25 -51.4 77.5 Q-51.4 77.9 -52.5 77.95 L-54.75 78.0 -54.0 79.25 -54.15 79.7 -53.7 79.75 -49.4 80.15 -49.25 80.45 -41.15 80.1 -39.4 80.5 Q-34.4 80.5 -33.65 79.55 -33.4 79.25 -33.9 78.4 -33.15 77.6 -32.65 78.6 -32.3 79.3 -32.3 79.9 -32.3 80.6 -33.8 81.25 -35.35 81.85 -37.25 81.85 L-49.5 80.75 -49.45 80.85 -52.1 81.0 -54.15 80.85 -56.5 81.55 Q-59.0 82.25 -59.0 82.65 -59.0 82.9 -58.6 82.95 L-57.5 83.4 -57.3 83.4 -57.1 83.5 -57.05 83.8 -56.55 84.25 -57.25 84.4 -58.3 84.85 -59.0 84.9 Q-60.2 84.9 -60.4 83.85 L-60.4 82.75 Q-60.65 81.75 -60.0 80.95 -58.9 79.65 -55.5 80.05 L-55.5 79.6 -54.85 79.65 -55.4 79.0 -56.0 77.95 Q-56.0 77.1 -55.3 77.1 L-52.5 76.75 Q-53.6 76.1 -54.4 74.9 L-54.3 74.25 Q-54.4 73.55 -54.85 72.35 L-55.4 70.8 Q-55.4 67.7 -52.9 67.75 L-52.8 67.85 M-63.55 84.35 L-58.3 85.25 -58.3 85.05 -57.55 84.9 -57.3 85.0 Q-56.85 85.1 -56.15 85.9 L-56.5 86.25 -56.4 86.35 Q-55.35 87.25 -55.25 88.0 L-55.45 88.35 -56.0 88.65 Q-56.75 88.65 -58.4 86.55 L-58.25 86.2 -59.0 86.25 -62.3 85.65 -63.7 85.85 -64.15 86.0 -64.05 86.0 Q-64.85 87.6 -64.85 88.2 L-64.75 90.15 Q-64.75 91.05 -68.1 91.35 -71.35 91.7 -71.05 93.9 -71.75 93.4 -71.75 92.2 -71.75 91.3 -68.6 90.3 -65.5 89.3 -65.5 85.75 L-65.1 85.8 -65.15 85.5 Q-65.15 84.35 -63.55 84.35 M-48.9 76.9 Q-47.9 76.05 -44.7 76.05 L-39.75 76.25 -39.75 75.15 -40.15 73.75 -40.55 72.8 -40.5 72.5 -38.9 73.7 Q-38.75 74.0 -38.75 75.2 -38.75 76.75 -39.25 76.9 L-45.75 77.25 -47.5 77.15 -48.9 76.9 M-45.75 85.0 L-43.9 84.75 -44.8 83.05 Q-45.6 82.05 -48.25 81.5 -45.4 81.1 -44.15 82.75 -43.5 83.6 -43.05 85.15 -43.15 85.3 -43.55 85.45 L-44.5 85.6 Q-45.6 85.6 -45.75 85.25 L-45.75 85.0 M-18.9 69.5 L-19.15 69.0 Q-15.4 68.1 -13.4 69.95 -12.0 71.2 -12.0 72.85 L-12.1 73.8 Q-12.5 74.45 -13.75 74.25 L-14.55 73.75 Q-13.4 73.15 -13.4 72.65 -13.4 71.7 -14.45 70.7 -16.0 69.25 -18.9 69.5 M-6.9 66.75 L-6.55 66.75 -5.65 69.05 -5.4 69.65 -5.3 69.85 Q-4.55 68.3 -2.15 68.15 L-2.0 68.5 Q-2.85 69.9 -4.0 70.55 L-4.7 71.25 -4.5 71.75 -4.5 72.45 -4.15 73.0 -4.65 73.25 -4.8 73.2 -4.85 73.25 -5.4 73.25 Q-7.2 73.25 -7.45 76.65 -7.6 78.35 -7.4 80.05 L-7.5 81.85 -7.8 81.95 Q-8.05 83.9 -11.25 83.9 L-13.85 83.5 Q-14.35 83.2 -14.4 82.4 L-14.4 82.15 -14.25 82.05 -14.3 81.4 -14.25 80.15 -13.8 80.15 Q-13.65 80.6 -13.75 81.5 L-13.5 82.15 -13.3 82.25 -12.65 82.5 Q-9.25 82.5 -8.95 81.75 L-8.4 81.1 -8.5 80.0 -8.25 75.25 Q-7.7 72.4 -6.05 72.15 L-6.25 70.9 -6.3 70.65 -6.35 70.55 Q-7.05 68.65 -7.05 67.55 L-6.9 66.75 M-5.65 72.15 L-5.75 71.9 -5.8 72.15 -5.65 72.15 M-30.55 68.4 Q-29.75 69.55 -29.75 71.5 L-29.8 72.65 -29.55 72.75 -30.35 72.95 -30.55 73.95 -30.75 73.25 -30.75 73.0 -32.25 73.15 Q-34.85 73.15 -35.0 72.75 -32.85 71.5 -31.95 71.65 L-30.7 72.2 -30.65 71.65 -30.85 71.1 -31.15 70.05 Q-31.15 68.55 -30.55 68.4 M-24.15 75.6 L-23.4 75.35 -23.3 75.5 -25.25 76.6 Q-29.0 76.6 -30.25 74.95 L-30.35 74.65 Q-29.35 75.85 -25.05 75.85 L-24.15 75.6 M-7.3 93.5 L-7.75 93.75 Q-8.7 92.35 -10.3 92.0 -9.85 91.4 -8.6 91.5 -7.25 91.55 -7.25 92.5 L-7.3 93.5" fill="#5b5546" fill-rule="evenodd" stroke="none"/>
    <path d="M56.55 -62.25 Q56.55 -60.75 56.9 -57.7 L56.8 -56.1 56.75 -56.05 56.9 -55.75 57.0 -53.1 56.7 -50.6 57.75 -50.35 57.85 -49.95 Q57.85 -48.75 55.55 -48.5 56.2 -48.15 56.95 -46.05 57.85 -43.7 57.85 -42.45 57.85 -41.15 57.4 -40.25 56.9 -39.3 55.6 -38.35 L56.0 -38.75 56.1 -39.0 55.85 -38.85 55.25 -38.4 Q57.15 -35.5 57.15 -30.6 57.15 -29.9 56.15 -28.75 L55.4 -27.9 Q57.25 -27.7 57.7 -26.95 58.0 -26.55 58.0 -24.1 58.0 -23.7 56.85 -23.15 55.75 -22.65 54.6 -22.6 56.15 -22.05 56.7 -21.3 57.1 -20.75 57.1 -19.3 L56.75 -15.15 56.5 -11.4 57.5 -11.35 56.25 -8.8 55.15 -7.45 55.25 -7.45 54.1 -6.35 54.0 -5.55 53.5 -4.85 53.45 -4.8 Q56.4 -4.4 57.4 -2.95 58.0 -2.1 58.0 0.4 L57.35 2.2 Q56.6 3.8 56.0 4.25 55.3 3.65 55.25 3.05 L55.25 3.15 54.45 3.75 Q55.1 4.15 55.35 5.0 L55.5 7.45 55.15 13.25 55.1 13.55 54.75 13.8 54.4 13.55 54.4 13.9 Q55.15 13.8 56.05 14.85 57.0 16.05 57.0 16.65 L56.85 17.45 56.9 17.45 57.0 17.9 56.05 19.4 54.65 20.5 Q55.55 21.4 56.5 24.6 56.5 26.35 56.0 27.3 L56.25 28.25 Q56.25 28.65 55.25 29.15 L54.0 29.9 Q55.2 31.65 57.1 35.65 57.1 36.0 56.5 36.0 L56.5 36.15 55.9 41.35 55.15 46.0 54.85 46.05 54.7 45.4 Q54.15 45.75 54.15 46.25 54.15 46.9 54.25 46.75 56.55 47.0 57.1 47.6 L57.25 48.75 57.05 50.0 56.4 50.7 56.0 52.9 Q56.0 53.75 56.65 56.4 L57.25 59.4 57.1 60.8 56.1 61.95 56.25 62.15 56.25 62.5 56.4 62.9 56.2 64.85 56.05 65.75 56.5 65.55 56.2 66.6 56.25 66.9 56.05 67.5 55.85 68.05 55.5 69.1 Q55.05 70.0 54.25 70.0 45.15 70.0 42.85 68.85 L42.25 68.45 Q41.15 69.9 38.6 69.9 L28.5 68.9 27.85 68.65 26.8 68.3 26.1 68.05 Q25.45 68.45 23.65 68.75 L19.75 69.15 14.05 68.6 Q12.9 67.95 12.4 67.9 L12.4 67.65 14.0 67.4 Q14.4 67.4 14.7 67.75 L17.75 68.05 25.35 67.45 25.35 67.3 Q25.35 66.7 26.45 66.75 L26.4 66.35 Q26.4 65.3 27.0 64.9 L28.05 66.7 28.2 67.0 28.55 67.05 32.6 68.15 32.3 68.25 35.75 68.4 36.25 68.6 36.95 68.8 Q40.7 68.8 41.85 67.75 L41.8 67.55 Q41.05 68.4 40.25 68.4 39.9 68.4 39.7 68.2 L39.1 67.9 40.95 65.3 42.75 62.9 Q43.25 63.4 43.25 64.4 L42.95 65.6 43.0 65.9 42.95 66.7 43.7 67.0 44.0 67.7 Q45.1 68.75 53.25 68.75 53.7 68.75 54.6 67.3 L55.5 66.15 55.25 65.1 55.1 63.75 55.1 63.65 54.95 63.6 54.75 63.15 Q54.75 62.8 54.9 62.7 L55.25 62.65 54.1 61.9 Q53.3 61.35 52.75 61.15 53.45 60.45 54.6 60.9 L54.95 61.05 55.65 59.4 55.05 57.7 Q54.4 56.15 54.4 55.65 54.15 54.1 54.2 52.6 54.35 50.5 55.3 49.7 55.45 49.4 55.75 49.05 54.75 48.2 53.15 48.15 L53.1 47.4 Q53.1 46.9 53.4 46.2 52.05 47.9 51.0 47.9 L48.6 47.85 45.35 47.15 49.05 47.0 Q52.3 46.9 53.1 45.15 L53.8 43.35 54.4 42.4 54.4 42.1 Q54.4 40.1 54.75 38.0 55.05 36.3 55.5 35.45 L53.85 33.2 Q52.5 30.8 52.5 30.35 52.5 29.0 53.25 28.6 54.7 27.9 55.5 26.9 L55.6 26.9 55.6 26.6 Q55.6 24.65 55.25 23.7 54.65 22.15 52.75 21.0 L53.3 20.35 53.15 20.3 51.85 19.9 Q52.65 18.9 54.1 18.1 55.25 17.5 56.15 17.4 L55.45 16.05 54.25 14.45 53.35 15.1 51.5 15.55 46.95 14.95 45.6 14.75 43.5 14.9 Q42.5 14.9 40.75 14.1 L39.25 13.2 38.95 14.4 37.25 16.0 Q37.1 16.45 35.5 16.9 L33.25 17.3 30.3 17.05 29.35 16.5 29.25 16.3 Q29.9 15.9 30.35 15.9 30.7 15.9 30.95 16.15 L31.5 16.4 Q35.15 16.4 36.35 15.8 L36.85 15.45 37.4 14.5 38.15 12.9 Q38.15 12.0 37.05 11.25 35.7 10.25 35.25 9.25 L35.75 8.9 38.45 11.05 38.55 11.15 39.65 7.4 40.1 7.4 40.25 7.55 40.25 8.05 39.75 9.4 39.85 9.4 Q40.05 10.2 39.85 10.8 L39.65 11.55 Q39.65 12.3 39.9 12.55 40.35 12.95 42.25 13.55 L45.4 14.0 47.4 14.25 47.95 14.2 51.65 14.05 Q52.4 14.05 53.7 12.8 53.9 12.65 54.0 12.65 L53.9 11.35 54.4 7.4 54.3 5.65 53.25 4.0 49.1 4.15 44.5 3.85 41.35 3.5 40.35 3.75 39.6 4.0 39.5 3.8 Q40.45 3.6 41.1 2.95 L43.75 2.55 44.7 2.65 44.6 2.85 48.2 3.1 Q47.75 2.6 47.75 1.95 L47.75 1.5 48.0 1.5 48.35 2.0 48.5 2.65 48.4 3.05 48.3 3.1 53.0 3.15 Q54.2 3.15 55.35 2.0 L55.75 1.65 56.5 -0.8 Q56.5 -1.9 55.65 -2.9 54.45 -4.35 52.1 -4.0 L51.95 -4.35 51.25 -4.35 50.65 -4.5 Q50.5 -4.3 50.5 -4.9 50.5 -5.55 52.45 -6.55 L53.4 -7.0 53.35 -7.0 51.8 -7.1 46.75 -6.95 Q43.5 -6.95 41.6 -7.5 L40.75 -7.35 Q40.45 -7.35 39.25 -8.1 L38.0 -9.1 Q38.0 -10.05 38.6 -10.2 L39.1 -9.85 39.0 -10.1 39.0 -10.6 39.35 -10.6 39.95 -9.25 42.0 -7.85 41.95 -7.8 49.8 -8.05 49.65 -8.1 49.65 -8.35 50.95 -8.1 51.25 -8.1 52.4 -8.05 Q54.0 -8.3 55.0 -9.6 L55.9 -10.85 Q55.55 -11.45 55.4 -12.4 L55.35 -15.25 55.85 -19.3 Q55.85 -20.05 54.55 -20.75 53.35 -21.35 53.25 -22.75 L49.5 -22.35 46.1 -23.0 51.15 -23.75 53.75 -23.85 53.8 -23.9 56.9 -24.35 57.0 -25.4 Q57.0 -26.15 56.0 -26.85 L55.0 -27.45 54.75 -27.2 54.35 -27.45 Q54.15 -27.65 54.1 -27.95 53.05 -28.0 52.2 -28.4 L51.05 -28.75 52.4 -28.85 52.35 -29.1 Q52.35 -30.0 53.25 -31.0 L54.25 -30.7 53.85 -29.35 53.4 -28.9 54.3 -28.8 55.05 -30.3 Q56.0 -31.75 56.0 -33.7 54.65 -37.15 54.65 -37.95 L54.75 -38.25 54.55 -38.25 53.0 -38.2 47.35 -38.75 47.25 -38.95 51.3 -39.2 53.15 -39.1 54.5 -39.9 56.0 -41.0 56.45 -40.35 56.6 -40.7 Q57.1 -41.85 57.1 -42.55 57.1 -43.4 56.15 -45.85 L55.15 -48.15 55.15 -48.5 54.6 -48.5 52.95 -48.7 52.75 -48.95 52.55 -48.5 52.0 -48.35 48.75 -49.4 43.1 -50.75 49.2 -50.6 Q51.05 -50.05 52.75 -48.95 L52.65 -49.1 Q53.9 -50.6 55.2 -50.75 L55.2 -50.8 Q55.9 -52.1 55.9 -53.2 L55.45 -54.75 55.1 -55.85 46.95 -55.9 Q46.1 -55.4 43.75 -55.05 L40.5 -54.7 40.15 -54.75 40.15 -53.6 Q40.1 -52.15 42.35 -51.6 41.95 -51.2 41.25 -51.2 39.75 -51.2 39.35 -52.5 L39.25 -54.05 39.35 -54.85 Q39.25 -54.95 39.25 -55.4 39.25 -55.7 39.95 -56.0 L31.7 -56.2 31.9 -55.6 31.85 -54.75 31.5 -54.45 30.8 -55.35 Q30.35 -55.9 28.35 -56.25 L28.85 -56.3 27.55 -56.45 27.15 -56.5 26.95 -56.5 25.85 -56.35 24.6 -56.45 24.75 -50.85 Q24.75 -50.0 25.35 -49.7 L28.75 -48.7 28.25 -49.95 Q27.85 -50.9 27.75 -51.5 L28.1 -51.6 Q29.15 -49.75 29.15 -48.85 L29.1 -48.6 29.25 -48.6 29.1 -48.5 28.85 -48.35 Q27.85 -47.85 26.35 -47.85 L26.1 -47.85 Q25.35 -46.7 24.85 -45.15 L24.15 -42.05 25.6 -42.1 29.25 -41.6 33.5 -42.25 Q35.25 -42.45 36.35 -41.85 L37.7 -43.15 Q38.55 -43.95 38.25 -44.5 L38.6 -44.6 Q39.25 -43.8 39.25 -42.7 39.25 -41.95 38.9 -41.6 38.4 -41.15 37.2 -41.1 L37.4 -40.85 31.5 -40.6 25.75 -41.05 25.35 -41.1 25.55 -40.55 25.75 -38.1 Q25.75 -37.6 25.25 -37.0 24.45 -35.95 22.75 -35.95 22.3 -35.95 21.9 -36.35 L24.55 -37.75 Q24.85 -38.05 24.85 -39.25 L24.2 -40.1 Q23.4 -40.65 23.15 -41.1 L23.25 -41.25 20.2 -41.4 12.25 -41.5 Q4.95 -41.45 3.9 -41.55 L2.95 -40.0 Q3.5 -39.75 3.5 -38.85 L3.4 -37.35 6.45 -37.3 6.5 -37.45 17.4 -37.25 16.45 -37.1 20.3 -37.05 Q21.1 -38.95 22.1 -38.85 L22.2 -38.9 22.25 -38.55 21.45 -37.55 20.95 -37.0 22.0 -36.95 20.7 -36.8 20.35 -36.6 20.45 -36.6 20.5 -36.2 20.5 -35.8 20.4 -35.7 18.1 -35.6 15.9 -35.6 15.65 -36.1 6.0 -36.35 Q5.95 -36.15 5.9 -36.4 L4.75 -36.35 Q5.3 -35.5 5.45 -34.3 L5.5 -31.9 Q5.8 -29.35 9.4 -27.95 L11.15 -28.2 13.7 -28.6 15.8 -28.35 17.7 -28.6 18.45 -29.4 Q18.8 -30.2 18.75 -32.0 L19.0 -32.0 19.25 -30.95 19.6 -30.85 19.3 -30.85 19.25 -30.8 19.5 -28.75 19.35 -28.25 Q19.7 -26.6 20.65 -25.0 L20.5 -24.7 Q19.05 -25.25 18.75 -25.8 18.6 -26.05 18.6 -27.05 L18.6 -27.75 18.25 -27.6 14.25 -27.1 13.35 -27.25 13.0 -27.35 12.35 -27.35 10.45 -27.55 9.55 -27.25 8.25 -27.0 Q7.4 -27.0 6.75 -27.5 L4.45 -26.75 Q3.4 -26.3 3.4 -25.8 3.4 -24.85 4.15 -24.3 L6.15 -22.85 6.0 -22.55 5.5 -22.45 Q6.35 -21.4 6.35 -20.0 6.35 -18.55 5.0 -18.3 3.6 -18.0 3.6 -16.45 L3.65 -15.75 9.15 -15.2 Q10.65 -15.2 11.1 -15.55 L11.25 -15.95 10.15 -17.45 Q9.0 -18.55 9.0 -18.95 10.0 -18.95 11.4 -18.1 12.75 -17.25 12.75 -16.6 12.75 -14.2 9.35 -14.2 L6.3 -14.55 5.65 -14.95 3.9 -14.85 4.1 -14.6 Q4.15 -14.35 3.5 -14.35 2.55 -14.35 2.35 -15.35 L2.35 -16.7 Q2.35 -17.6 2.7 -17.95 L5.0 -20.0 Q4.6 -20.35 4.6 -21.3 4.6 -22.05 5.0 -22.5 3.7 -22.75 3.05 -24.2 L2.5 -25.95 Q2.5 -27.35 3.65 -27.7 L6.25 -27.95 Q5.3 -28.95 4.7 -30.95 L4.0 -34.9 4.3 -36.35 3.0 -36.35 Q2.25 -36.35 2.15 -37.95 L1.75 -37.85 Q1.15 -37.85 1.0 -38.2 L1.9 -40.55 Q2.6 -41.6 3.75 -41.6 3.5 -41.6 3.5 -41.95 L12.25 -42.25 19.0 -42.45 23.3 -41.95 23.4 -41.95 23.25 -43.3 Q23.25 -43.8 24.3 -45.95 L25.4 -47.9 Q24.0 -48.2 23.5 -49.25 L23.25 -50.7 Q23.25 -54.8 24.0 -56.9 L23.95 -57.25 23.95 -57.45 23.8 -57.4 Q23.05 -58.0 22.85 -59.75 L22.8 -62.7 Q22.65 -64.35 22.75 -65.9 22.85 -67.8 23.45 -68.75 23.3 -68.75 23.3 -69.3 23.3 -69.9 30.75 -69.9 L54.8 -70.0 54.85 -69.85 Q56.0 -69.85 56.55 -69.2 57.05 -68.6 57.05 -67.05 L56.8 -65.0 56.55 -62.25 M55.75 -67.95 Q55.15 -68.4 52.9 -69.25 L41.65 -68.75 Q32.55 -68.5 24.65 -68.55 L24.2 -67.5 23.7 -65.7 Q23.7 -64.35 24.05 -62.15 L24.45 -59.05 26.1 -58.8 Q25.65 -58.35 26.4 -57.65 L39.1 -57.15 51.25 -57.45 51.4 -57.45 50.65 -58.85 50.75 -59.1 Q51.75 -58.7 51.75 -58.2 L51.6 -57.4 55.75 -57.1 55.5 -58.4 55.45 -61.2 56.05 -67.2 55.75 -67.95 M53.1 -62.6 L53.25 -61.1 53.1 -59.6 52.85 -59.5 52.65 -61.1 52.75 -62.6 53.1 -62.6 M54.65 -60.35 L55.1 -60.35 55.25 -59.65 55.2 -58.7 Q55.0 -58.0 54.25 -57.85 L54.1 -57.85 54.5 -59.25 54.65 -60.35 M53.25 -49.85 L53.1 -49.85 52.9 -50.75 52.9 -51.85 53.35 -51.85 53.5 -51.75 53.5 -51.3 53.25 -49.85 M25.8 -57.35 L24.45 -58.55 24.45 -58.15 24.3 -57.65 Q24.55 -57.5 24.95 -57.3 L26.2 -56.95 25.8 -57.35 M30.0 -50.25 L30.75 -48.85 Q29.95 -48.95 29.8 -49.3 L29.35 -50.35 29.35 -51.45 29.5 -51.45 30.0 -50.25 M30.75 -52.25 L31.1 -52.35 31.5 -52.0 31.75 -51.35 31.65 -51.0 31.35 -50.75 Q30.75 -51.7 30.75 -52.25 M37.55 -48.6 L37.6 -48.15 37.25 -47.0 37.0 -47.0 Q36.85 -47.5 36.85 -48.1 L36.95 -48.65 37.35 -48.7 Q37.45 -48.6 37.55 -48.6 M39.0 -39.15 Q39.0 -40.2 39.5 -40.5 L40.3 -39.3 Q40.9 -38.65 42.75 -37.95 L42.75 -37.6 41.5 -37.35 Q40.1 -37.35 39.45 -38.15 39.0 -38.7 39.0 -39.15 M39.2 -35.55 Q40.55 -35.1 41.0 -34.45 41.0 -33.85 40.6 -33.85 L39.2 -34.4 Q37.75 -34.9 36.75 -35.5 L39.2 -35.55 M18.25 -37.6 L17.35 -37.35 Q18.65 -38.4 18.25 -37.6 M2.15 -39.0 L2.0 -38.85 2.15 -38.85 2.15 -39.0 M19.05 -36.7 L20.1 -36.6 20.2 -36.75 19.05 -36.7 M12.85 -25.2 L13.1 -24.0 12.95 -22.85 Q12.55 -22.0 11.25 -22.0 L8.6 -22.1 10.85 -22.55 Q12.75 -23.1 11.9 -25.1 L12.85 -25.2 M4.0 -13.35 Q5.15 -13.35 5.85 -12.3 L6.75 -9.95 Q6.6 -9.6 6.0 -9.6 L5.6 -9.7 Q5.5 -8.1 4.75 -8.1 L-0.75 -8.15 Q-2.45 -6.7 -8.0 -6.75 L-13.5 -6.95 -13.5 -6.9 Q-13.5 -6.55 -14.1 -5.95 L-14.75 -4.9 Q-14.75 -4.5 -14.05 -3.95 L-12.75 -2.7 -12.9 -2.15 -13.65 -2.1 -13.6 -1.7 -13.8 -0.65 -14.0 0.4 -14.6 2.75 -15.25 5.8 -15.0 5.65 Q-13.8 6.25 -12.5 7.9 L-10.95 7.95 -7.85 8.0 -8.45 7.0 -9.4 5.0 Q-8.2 4.65 -7.55 6.05 -7.15 7.0 -7.15 7.8 L-7.15 8.0 -5.5 7.8 -4.7 7.35 -4.25 6.65 -2.75 4.55 -2.55 5.0 Q-2.4 5.3 -2.4 5.65 -2.4 6.2 -3.65 7.4 -5.15 8.8 -6.9 8.8 L-12.1 8.45 -11.9 8.65 -13.25 8.8 -13.4 8.8 -14.45 10.75 Q-15.8 13.35 -15.85 14.3 L-15.75 14.3 Q-14.8 14.15 -14.45 15.45 L-14.25 17.9 -14.4 18.5 Q-13.15 20.05 -9.65 20.9 L-3.65 21.4 -3.5 21.65 -4.85 22.25 -9.75 22.75 Q-12.7 22.75 -14.35 20.7 L-15.0 19.35 Q-15.85 20.05 -17.25 20.05 -17.7 20.05 -18.1 19.65 L-17.75 19.5 -24.5 20.15 -24.6 20.5 -24.3 21.6 -24.0 22.65 Q-24.0 23.4 -25.05 24.2 -26.05 24.9 -27.1 24.8 L-28.15 24.95 -28.55 25.05 -29.9 25.25 -31.0 25.2 Q-31.0 25.65 -30.65 25.9 L-30.95 25.9 -31.65 25.75 Q-34.25 25.75 -35.65 27.3 -36.6 28.4 -36.6 29.4 L-36.4 30.75 -36.15 31.3 Q-34.55 31.9 -31.0 31.9 L-29.5 31.6 -28.0 31.25 -23.95 31.3 -20.15 31.5 Q-18.8 30.95 -18.3 29.8 -17.95 28.0 -17.4 27.55 -17.0 28.5 -17.0 29.15 -17.0 29.7 -17.5 30.75 -18.15 32.15 -19.0 32.15 L-21.0 32.05 -21.5 31.95 -29.3 32.4 -32.5 32.9 Q-34.35 32.9 -35.45 32.35 L-35.65 32.25 -35.5 32.55 -35.5 32.65 -37.3 31.7 -37.5 31.65 -37.6 31.3 -37.5 30.75 -37.5 30.65 -37.5 30.35 Q-37.5 28.65 -36.25 27.0 -34.75 24.95 -32.2 25.05 L-33.4 24.65 Q-34.65 24.1 -34.65 23.7 -34.65 21.65 -33.5 20.4 L-34.0 20.4 Q-34.55 20.15 -34.6 19.65 L-37.0 19.65 Q-37.75 19.65 -37.85 18.05 L-38.25 18.15 Q-38.85 18.15 -39.0 17.8 -38.55 16.15 -38.1 15.45 -37.4 14.4 -36.25 14.4 L-36.5 14.05 -27.75 13.75 -21.0 13.55 -16.75 14.05 Q-16.65 12.7 -15.85 10.8 -15.15 9.1 -14.3 8.3 L-14.8 7.7 -15.5 6.55 -15.35 5.95 Q-16.0 4.95 -16.0 3.3 -16.0 2.6 -15.25 0.2 L-14.35 -2.15 Q-15.4 -2.4 -15.7 -3.5 L-15.85 -5.05 -15.7 -6.55 -14.65 -7.2 -15.0 -7.55 -15.0 -7.7 Q-16.7 -7.7 -17.5 -8.75 -18.0 -9.35 -18.0 -9.85 L-17.8 -12.3 Q-17.45 -13.6 -16.5 -13.45 L-11.25 -14.2 -4.5 -14.0 4.25 -13.7 Q4.25 -13.35 4.0 -13.35 M3.3 -13.25 L-4.5 -13.25 -12.45 -13.15 -15.5 -13.0 -15.4 -12.85 Q-15.65 -12.4 -16.45 -11.85 L-17.1 -11.0 Q-17.1 -9.8 -16.8 -9.5 L-14.75 -8.4 -14.05 -8.8 -6.75 -9.1 -5.35 -9.1 -3.3 -9.15 1.25 -9.2 1.3 -9.05 4.35 -9.1 4.25 -10.6 Q4.25 -11.5 4.8 -11.75 4.05 -12.75 3.85 -13.3 L3.75 -13.2 3.3 -13.25 M5.6 -10.75 L5.6 -10.6 5.75 -10.6 5.6 -10.75 M2.15 -9.7 L1.85 -9.5 1.75 -10.2 2.0 -10.25 2.15 -9.7 M0.0 -0.8 Q-0.1 -0.6 -0.5 -0.6 -2.15 -0.6 -2.15 -1.85 L-2.1 -2.6 Q-1.45 -2.55 -0.8 -2.0 L0.1 -1.1 0.0 -0.8 M16.35 -9.0 L16.35 -9.35 Q18.15 -9.35 20.1 -8.6 19.75 -8.25 19.25 -8.25 L17.6 -7.9 16.35 -9.0 M36.85 -21.85 L33.7 -22.1 32.5 -22.95 32.6 -22.85 30.95 -22.3 27.5 -21.85 22.05 -22.2 Q22.05 -22.85 21.35 -23.35 L21.35 -23.45 22.55 -22.95 Q23.3 -22.45 26.2 -22.45 L29.2 -22.6 32.5 -22.95 32.25 -23.1 35.3 -23.15 38.05 -23.25 Q41.15 -23.35 41.35 -25.85 L41.65 -29.35 42.1 -29.35 42.65 -25.15 42.65 -26.1 43.1 -26.1 44.75 -22.95 44.5 -22.6 42.65 -24.6 42.65 -24.75 Q42.65 -24.25 41.5 -23.35 40.95 -22.95 40.4 -22.65 L41.25 -22.45 39.25 -22.0 36.85 -21.85 M38.35 -16.2 L38.65 -13.85 Q38.65 -13.0 37.9 -11.85 37.0 -10.45 35.75 -10.45 L35.45 -10.45 Q34.9 -9.25 30.85 -9.25 27.5 -9.25 25.7 -11.3 L24.6 -13.45 24.9 -14.8 25.5 -16.2 25.25 -15.8 25.1 -15.2 Q25.1 -10.5 33.3 -10.5 L34.45 -10.6 Q33.85 -10.8 33.75 -10.95 37.15 -11.65 37.7 -13.6 L38.35 -16.2 M33.2 -1.7 L33.15 -2.55 33.2 -3.4 Q33.4 -4.25 34.15 -4.85 36.6 -6.7 44.0 -5.25 L44.1 -5.1 35.6 -4.8 Q34.45 -4.8 34.2 -4.2 33.95 -3.6 34.35 -1.45 L34.1 -1.1 Q33.4 -1.2 33.2 -1.7 M49.0 -28.85 L49.15 -29.05 49.25 -29.1 49.55 -29.05 50.0 -28.85 49.85 -28.7 49.0 -28.85 M51.0 -10.5 L51.1 -8.6 51.0 -8.35 50.75 -9.0 50.75 -10.5 51.0 -10.5 M55.15 0.9 L54.2 2.1 53.25 2.75 53.0 2.65 53.85 1.65 Q54.6 0.85 55.15 0.9 M51.1 9.9 Q51.95 10.4 52.0 11.6 L52.0 13.4 Q50.95 13.15 50.95 12.05 50.9 10.5 50.65 10.15 50.75 9.9 51.1 9.9 M48.75 13.05 L48.75 13.5 48.75 13.95 48.6 14.05 47.85 13.15 Q47.85 12.9 48.6 12.9 L48.75 13.05 M42.45 17.15 L42.75 17.15 43.6 19.25 43.9 19.9 49.0 19.65 49.1 19.75 49.15 20.15 Q49.15 20.8 49.0 20.55 L44.5 20.55 44.4 20.55 Q44.95 21.15 45.85 21.65 46.1 21.9 45.5 21.9 43.15 21.9 42.4 20.05 L42.4 20.0 Q42.1 19.2 42.1 17.55 42.1 17.2 42.45 17.15 M52.75 27.0 Q52.75 27.6 52.15 28.15 L51.7 28.5 51.8 28.5 52.6 28.55 52.85 28.9 51.35 30.45 Q49.8 31.3 45.85 31.3 L45.2 31.15 45.0 31.15 42.35 31.05 39.25 30.65 40.9 30.2 Q41.75 30.1 45.25 30.15 L45.35 30.5 Q46.6 29.95 48.9 29.8 51.25 29.6 51.25 28.9 L51.25 28.8 51.1 28.9 Q51.05 28.45 51.8 27.8 L52.75 27.0 M50.6 26.7 Q50.6 28.0 48.6 28.15 L49.25 26.85 Q49.7 26.05 50.0 26.0 L50.4 26.15 50.6 26.7 M49.35 42.05 L49.4 41.4 49.85 41.4 Q50.4 42.3 52.75 43.8 52.0 44.1 50.6 43.25 49.35 42.4 49.35 42.05 M49.55 43.8 L50.55 44.15 48.35 43.75 49.55 43.8 M51.85 39.75 L51.15 38.9 52.75 39.15 51.85 39.75 M54.55 44.5 L54.3 44.95 54.65 45.15 54.55 44.5 M51.0 44.65 L50.6 44.15 51.0 44.5 51.0 44.65 M39.65 3.15 L39.0 3.5 38.0 3.65 Q37.0 3.65 36.4 3.25 L35.25 2.25 Q35.8 1.7 36.65 2.0 L39.5 2.8 39.65 3.15 M39.3 10.4 L38.8 11.4 38.9 11.55 39.05 11.1 39.3 10.4 M28.5 15.25 L28.6 15.65 Q28.6 16.3 27.75 16.55 L22.5 17.0 Q21.25 17.0 21.0 16.65 L21.4 16.5 20.25 16.65 Q18.95 16.65 18.2 15.4 17.6 14.5 17.6 13.8 L17.65 13.15 18.1 13.15 Q18.65 14.3 19.25 14.75 20.1 15.4 22.55 16.1 L24.0 15.65 28.35 15.3 28.5 15.25 M36.1 13.65 L36.25 13.8 36.25 14.25 36.15 14.8 36.0 15.15 35.85 15.15 35.75 14.25 35.75 13.65 36.1 13.65 M13.0 7.15 L15.5 8.8 15.5 8.9 Q13.05 8.95 12.25 8.1 L10.9 6.65 11.0 6.4 Q11.75 6.35 13.0 7.15 M18.25 7.35 Q20.25 6.8 23.75 7.4 L18.35 8.05 16.75 8.4 16.65 8.0 Q16.9 8.05 18.25 7.35 M5.25 14.75 L3.25 15.05 Q0.3 15.05 -1.25 14.0 -2.4 13.2 -2.4 12.3 L-2.3 11.6 Q-2.1 10.85 -1.75 10.65 -0.55 11.85 1.25 12.6 L6.6 14.4 Q5.6 14.45 5.25 14.75 M4.6 17.25 Q4.6 17.9 3.9 18.6 L3.25 19.25 2.0 20.95 0.5 22.25 -1.85 21.9 -3.0 21.3 -0.25 21.5 Q0.05 21.5 1.2 20.4 2.0 19.6 2.7 19.35 L3.85 17.2 Q3.85 16.8 3.05 15.95 L2.25 15.15 Q3.4 14.85 4.1 15.9 4.6 16.6 4.6 17.25 M15.5 33.05 Q13.75 32.7 12.1 31.6 L10.75 30.4 Q10.75 29.45 11.25 28.55 11.3 31.25 14.0 31.9 L17.85 32.65 15.5 33.05 M7.75 46.9 Q6.9 47.9 3.95 47.9 L3.6 47.75 Q5.9 45.85 6.5 43.75 L6.75 40.3 Q6.75 39.6 7.25 39.4 8.15 40.45 8.1 45.1 8.1 46.45 7.75 46.9 M20.75 32.15 L19.35 32.15 20.55 31.35 Q21.15 30.9 23.1 30.9 24.05 30.9 25.0 31.5 25.95 32.05 27.0 32.05 28.3 32.05 29.15 31.1 30.05 30.15 30.85 30.15 31.25 30.85 30.3 31.95 29.3 33.1 27.95 33.15 L28.25 33.7 Q28.85 34.8 28.85 35.5 L28.8 36.15 28.0 36.9 28.0 36.7 28.15 36.05 Q28.15 35.45 27.55 34.25 L26.9 33.1 23.9 32.45 20.75 32.15 M22.6 45.65 Q23.35 44.95 26.5 43.8 L30.25 42.4 30.6 42.45 30.75 42.8 30.8 42.4 31.25 40.8 31.75 41.0 31.65 41.15 Q31.5 41.3 31.5 41.65 31.5 43.75 32.45 44.6 34.25 46.15 40.0 46.3 L40.0 46.65 36.75 47.0 Q34.2 47.0 32.2 45.65 30.65 44.6 30.65 43.9 L30.7 43.2 Q30.45 43.9 29.25 44.9 27.65 46.25 26.35 46.25 L24.55 46.1 22.6 45.65 M31.15 46.85 L32.5 46.75 32.6 46.9 30.75 48.55 Q30.4 48.15 30.4 47.55 30.4 47.05 31.15 46.85 M39.65 54.75 Q39.65 55.45 38.95 56.2 39.45 56.45 39.4 57.35 39.3 59.35 40.0 59.65 L38.75 59.9 Q38.6 59.6 38.6 58.1 38.65 57.25 38.3 56.7 37.5 57.15 36.5 57.15 L35.9 57.0 35.25 56.55 Q36.35 56.1 37.5 54.7 38.6 53.4 39.0 53.3 39.65 53.5 39.65 54.75 M34.9 51.4 L34.5 51.95 Q34.1 52.3 33.75 52.3 33.25 52.15 33.1 52.0 L33.85 51.1 34.6 50.65 34.8 50.85 34.9 51.4 M38.9 60.8 L38.85 60.35 44.75 60.1 51.35 61.15 51.1 61.4 48.55 60.7 Q45.65 60.25 39.25 60.9 L38.9 60.8 M26.6 61.75 Q27.5 62.35 27.5 63.1 27.5 63.6 26.5 64.4 26.2 63.85 26.25 63.5 L26.35 63.2 Q26.35 62.9 25.4 62.15 L24.1 61.15 Q25.6 61.1 26.6 61.75 M22.75 54.9 Q17.6 55.4 16.9 57.9 L16.75 58.05 Q16.25 57.05 16.25 56.45 16.25 55.25 17.95 54.75 L22.75 54.55 22.75 54.9 M17.25 59.55 Q17.25 60.2 16.55 61.25 15.7 62.5 14.75 62.5 L12.55 62.35 12.3 62.35 12.6 62.6 Q13.0 63.05 13.0 64.0 L12.9 65.8 12.5 66.05 11.8 65.05 11.05 66.6 10.65 67.25 12.25 66.9 12.85 67.15 10.05 68.35 Q7.2 69.3 4.6 69.3 L0.3 69.05 -4.0 69.15 Q-6.1 69.15 -7.85 67.4 L-8.35 66.85 -8.75 67.4 Q-9.45 68.05 -10.8 68.45 L-10.95 68.7 -11.85 68.85 -11.75 68.65 -13.3 68.8 -13.35 68.85 -13.75 68.85 -13.7 68.8 -14.5 68.8 -15.5 68.6 -15.85 68.45 -16.0 68.45 -16.4 68.95 -17.6 69.05 -17.2 68.65 -17.65 68.85 -18.3 69.15 -19.05 69.25 -22.5 69.6 Q-23.1 69.25 -23.5 69.25 L-24.7 69.25 Q-25.4 69.0 -25.9 68.55 L-26.4 67.95 -26.9 68.8 -27.55 69.45 -28.45 69.65 -28.65 69.75 -32.15 69.2 -33.0 68.35 -34.0 67.85 -34.95 66.75 -35.2 67.05 -36.65 68.25 -37.0 68.35 -39.15 69.05 -39.65 68.75 -43.55 68.4 -44.7 68.25 -50.9 68.65 -54.75 68.25 -56.1 67.6 -56.3 67.45 -56.3 67.5 -56.8 67.35 -57.1 66.1 -56.6 64.45 -55.65 62.55 -57.05 61.65 Q-57.85 61.1 -57.85 60.55 -57.85 59.55 -56.3 58.1 L-54.3 56.9 -54.75 55.95 -54.2 54.1 Q-53.85 53.35 -53.3 53.0 -55.15 52.8 -55.8 51.55 L-56.15 50.05 -56.0 48.2 Q-56.95 47.95 -57.5 47.25 L-58.0 46.15 -57.8 43.7 Q-57.45 42.4 -56.5 42.55 -54.5 41.95 -51.25 41.8 L-44.5 42.0 -35.75 42.3 Q-35.75 42.65 -36.0 42.65 -34.85 42.65 -34.15 43.7 -33.7 44.4 -33.25 46.05 -33.4 46.4 -34.0 46.4 L-34.4 46.3 Q-34.5 47.9 -35.25 47.9 L-38.6 47.85 -41.0 48.15 -42.65 47.8 -46.0 47.7 Q-46.85 48.0 -47.65 48.65 L-48.2 49.15 -49.25 49.5 -50.1 49.4 -50.25 48.85 -50.05 48.3 -49.75 48.15 -52.4 48.2 -54.0 48.4 -54.9 48.3 -55.0 48.3 -55.3 48.3 Q-55.15 49.05 -55.5 50.3 -55.4 52.05 -51.4 52.9 L-52.1 53.05 -52.95 54.35 -53.85 55.95 -52.7 56.65 -52.55 56.7 -51.9 56.8 -51.7 57.05 -50.9 57.4 -51.45 57.65 -52.4 57.8 -53.35 57.65 Q-54.85 57.85 -55.65 58.6 L-56.75 60.05 -55.1 61.25 -54.7 61.65 Q-54.25 61.45 -54.55 61.35 L-49.4 61.9 -50.7 62.1 -52.4 62.25 -54.2 62.15 -54.45 62.15 -54.4 62.45 Q-54.4 62.9 -55.25 64.75 L-56.0 66.55 -55.85 66.8 -53.25 67.15 -47.55 67.8 -46.75 67.85 -46.9 67.75 Q-45.35 66.45 -42.65 66.85 L-40.25 67.5 Q-36.2 67.5 -35.1 65.85 -34.75 65.3 -34.75 63.5 L-34.5 63.5 -34.2 64.15 -34.0 64.9 Q-34.0 65.3 -34.3 65.9 L-33.5 66.55 Q-31.55 68.5 -30.85 68.5 -28.35 68.5 -27.6 67.9 L-27.65 67.9 -27.75 65.45 Q-27.75 63.35 -27.25 62.9 -26.75 63.4 -26.75 65.45 L-26.85 66.85 Q-26.35 67.05 -25.9 67.6 -25.15 68.5 -22.75 68.5 L-19.15 68.0 -17.65 67.5 -16.8 67.5 -15.25 67.4 -13.3 67.4 -11.8 67.45 Q-10.75 67.0 -9.85 66.25 L-9.0 64.85 -8.95 64.5 -8.5 63.4 Q-7.95 63.8 -8.0 64.75 -8.0 65.75 -7.6 66.2 -6.35 67.65 1.1 68.25 L9.1 67.4 Q9.9 66.9 10.25 65.8 10.65 64.5 11.55 64.35 11.2 62.85 10.6 61.9 L11.4 62.0 15.7 61.65 16.6 60.8 17.25 59.55 M7.4 65.95 Q8.2 65.35 8.6 65.4 L6.25 67.15 6.1 67.05 7.4 65.95 M9.65 65.1 Q10.25 64.4 10.85 64.4 10.1 66.05 9.35 66.4 9.15 66.5 9.15 65.9 9.15 65.7 9.65 65.1 M3.75 66.9 L4.1 66.2 Q4.3 65.95 4.75 66.4 L4.0 67.05 3.75 66.9 M-11.65 -3.45 L-7.5 -3.85 -7.15 -3.35 -7.25 -3.25 -7.05 -3.15 -6.4 -3.0 Q-3.45 -3.0 -3.3 -3.9 L-2.9 -5.1 -2.6 -3.85 -2.85 -2.85 Q-3.05 -2.2 -3.25 -2.2 L-7.6 -2.35 -7.8 -3.05 -9.0 -2.95 -11.5 -3.25 -11.65 -3.45 M-9.7 5.05 Q-9.6 5.1 -9.6 5.5 L-9.65 5.8 -10.0 6.05 -10.5 5.75 Q-10.5 5.1 -10.0 4.9 L-9.7 5.05 M-6.4 4.9 L-6.05 5.8 -5.85 6.65 -6.0 6.75 -6.65 6.0 -7.25 5.05 -6.4 4.9 M-2.15 8.55 L-1.9 9.15 -2.25 9.4 -2.9 8.9 Q-2.55 8.55 -2.15 8.55 M-13.65 6.05 L-12.15 6.4 -12.9 6.35 -13.65 6.15 -13.65 6.05 M-37.85 17.15 L-37.85 17.0 -38.0 17.15 -37.85 17.15 M-15.45 18.25 L-15.25 17.95 -15.25 17.65 -15.2 17.65 -15.15 16.95 Q-16.3 16.55 -16.6 16.0 L-16.75 15.1 -16.85 14.9 -16.75 14.75 -19.8 14.6 -27.75 14.5 -36.1 14.45 -37.05 16.0 Q-36.5 16.25 -36.5 17.15 L-36.6 18.65 -33.55 18.7 -33.5 18.55 -30.05 18.6 -24.65 18.5 -20.95 18.6 -17.6 18.9 -17.4 19.3 -15.45 18.25 M-32.95 23.4 Q-30.35 23.75 -28.0 24.45 L-27.5 23.4 -27.15 23.4 -27.0 23.5 -27.0 23.9 -26.15 23.35 Q-25.0 22.75 -25.0 22.05 L-25.25 21.45 -25.5 20.8 -25.35 20.2 -27.0 20.25 -32.6 20.35 -32.6 20.4 Q-32.6 20.75 -33.5 22.2 -33.5 23.3 -32.95 23.4 M-22.65 24.15 Q-22.25 25.1 -20.65 25.95 L-17.25 27.4 Q-17.4 27.55 -17.85 27.7 L-18.75 27.9 Q-20.1 27.9 -21.75 27.15 -23.35 26.4 -23.35 25.9 L-23.1 24.15 -22.65 24.15 M-27.0 35.9 Q-27.0 36.9 -28.1 38.05 -29.35 39.4 -31.0 39.4 L-31.5 39.35 -31.9 39.15 Q-30.1 38.45 -28.95 36.6 L-27.5 34.15 Q-27.0 34.8 -27.0 35.9 M-35.5 36.9 L-33.05 37.4 Q-31.85 37.85 -31.4 38.3 L-31.5 38.7 Q-31.6 38.9 -32.0 38.9 L-32.75 38.9 -32.75 39.15 Q-32.75 39.65 -34.35 40.35 -35.95 41.05 -36.0 42.15 L-36.5 40.8 Q-36.5 40.05 -35.1 39.2 L-34.2 38.7 -35.5 38.3 Q-36.65 37.75 -36.65 37.2 L-36.35 33.15 -35.9 33.15 Q-35.5 34.9 -35.5 36.9 M-35.75 45.4 Q-35.75 44.5 -35.2 44.25 L-36.15 42.7 -44.5 42.75 -52.45 42.85 -55.5 43.0 -55.4 43.15 -56.45 44.15 Q-57.1 44.65 -57.1 45.0 -57.1 46.2 -56.8 46.5 L-54.35 47.8 -53.05 47.45 -54.25 47.3 -51.5 47.2 -49.55 47.05 -49.65 47.0 -48.55 47.0 -48.25 47.0 -46.95 46.95 -46.1 46.95 -38.75 46.8 -38.7 46.95 -35.65 46.9 -35.75 45.4 M-37.85 46.3 L-38.15 46.5 -38.25 45.8 -38.0 45.75 Q-37.85 45.9 -37.85 46.3 M-32.75 46.8 Q-32.0 46.25 -28.7 46.1 -25.95 46.0 -24.65 46.15 L-31.25 47.25 Q-32.6 47.1 -32.75 46.8 M-34.25 45.4 L-34.4 45.25 -34.4 45.4 -34.25 45.4 M-1.65 35.4 Q-1.4 36.25 -1.4 37.05 -1.45 37.8 -3.25 37.9 L-3.7 37.75 -3.4 38.15 -3.75 38.5 -8.9 38.65 Q-13.5 38.65 -15.5 37.65 -16.65 37.05 -16.65 36.4 -16.65 35.7 -16.25 35.55 L-15.65 36.25 -13.65 37.1 -3.9 37.65 Q-2.1 36.55 -2.1 35.4 L-1.65 35.4 M-18.0 32.0 L-17.75 32.0 -17.65 33.9 -17.75 34.15 -18.0 33.15 -18.0 32.0 M-9.15 46.4 Q-6.8 45.3 -5.05 45.85 -2.2 46.8 -0.25 46.8 2.05 46.8 2.25 47.15 L-0.75 47.65 -3.75 48.05 Q-8.0 47.1 -9.15 46.4 M-46.4 56.75 L-42.7 56.55 Q-40.2 57.0 -39.15 55.15 L-38.85 54.0 -38.9 52.9 -39.2 52.65 -39.75 52.05 Q-38.7 51.45 -38.25 52.95 -38.0 53.8 -38.0 55.05 -38.0 55.75 -38.75 56.4 -39.75 57.25 -41.65 57.25 L-46.4 56.75 M-6.25 60.4 L-10.35 59.7 -10.45 59.7 -10.05 59.9 Q-9.6 60.25 -9.6 61.1 L-9.75 62.3 -10.0 62.4 Q-10.4 62.4 -10.45 61.9 -10.4 61.3 -10.5 61.0 -10.15 60.15 -10.75 60.05 L-17.75 60.0 -20.0 60.55 Q-20.25 60.95 -20.25 60.3 L-18.25 59.6 -15.5 59.15 -12.65 59.2 -14.9 59.0 -8.0 59.4 -3.75 58.9 -1.15 58.9 -0.9 58.95 Q-0.6 59.0 -0.5 59.15 L-3.1 59.85 -6.25 60.4 M-14.65 52.9 L-16.1 53.65 -15.9 53.65 -15.7 53.6 -15.5 53.65 -16.25 54.45 -17.75 54.65 -19.75 54.25 -23.0 53.9 -26.0 54.1 -27.1 54.25 -26.75 55.0 Q-26.6 55.5 -26.6 57.45 L-26.75 61.75 -27.0 61.9 -27.25 58.1 Q-27.3 55.7 -28.9 54.4 L-28.5 54.2 -29.45 54.1 -31.25 53.8 Q-29.0 52.85 -22.8 53.1 L-16.9 53.55 -17.4 53.4 -15.25 51.4 Q-14.5 50.9 -14.5 50.15 -14.5 49.75 -14.65 49.5 L-15.15 49.0 Q-14.2 48.5 -13.7 49.7 -13.35 50.6 -13.35 51.65 -13.35 52.05 -14.65 52.9 M-39.1 50.3 L-38.9 50.0 -38.75 50.05 -38.0 50.3 Q-38.0 50.65 -38.25 50.65 L-38.95 50.7 -39.1 50.3 M-37.45 62.35 Q-37.9 62.0 -38.75 61.9 L-37.4 61.6 Q-37.15 61.65 -36.4 62.3 L-36.4 62.55 -36.85 62.65 -37.45 62.35" fill="#5b5546" fill-rule="evenodd" stroke="none"/>
  </g>
</svg>
