<?xml version="1.0" encoding="UTF-8" standalone="no"?>
<svg xmlns:xlink="http://www.w3.org/1999/xlink" height="131.6px" width="570.25px" xmlns="http://www.w3.org/2000/svg">
  <g transform="matrix(1.0, 0.0, 0.0, 1.0, 114.75, 65.6)">
    <path d="M1.0 -7.75 L2.75 -7.0 Q5.0 -6.25 6.25 -6.25 L4.75 -7.0 2.95 -7.75 1.0 -7.75 M11.2 -18.15 Q12.4 -20.5 15.0 -20.5 16.25 -20.5 17.5 -19.35 18.75 -18.25 20.0 -18.25 21.25 -18.25 22.5 -19.25 23.75 -20.25 25.0 -20.25 27.0 -20.25 29.15 -18.5 31.3 -16.75 33.35 -16.75 48.55 -16.75 51.85 -15.05 L55.5 -12.85 Q58.7 -11.25 64.5 -9.75 L64.5 -10.5 Q64.05 -12.0 64.3 -12.7 64.7 -14.0 67.0 -14.75 68.7 -14.7 75.0 -11.7 81.2 -8.75 85.75 -8.75 87.0 -8.75 87.9 -9.85 88.75 -11.0 90.0 -11.0 94.2 -11.0 98.45 -6.2 102.25 -2.0 102.25 0.5 102.25 2.05 102.05 2.3 L101.5 2.75 99.0 3.25 95.7 2.6 91.5 1.0 84.5 1.25 Q84.25 3.6 82.05 5.25 79.35 7.25 76.0 5.5 L76.0 5.75 75.8 9.55 Q74.95 12.0 71.0 12.0 69.4 12.0 67.4 11.15 L64.5 9.75 63.8 10.55 63.5 11.0 63.0 12.85 Q63.0 14.1 64.15 15.5 65.25 16.85 65.25 18.1 65.25 21.85 71.8 24.05 75.55 25.3 86.25 27.05 96.6 28.75 100.7 30.3 107.25 32.7 107.25 36.85 107.35 38.95 106.3 40.85 104.2 44.5 98.5 44.5 94.35 44.5 85.3 41.7 L73.75 38.0 73.25 41.8 Q71.95 45.5 68.0 45.5 65.15 45.5 60.45 43.15 55.9 40.65 54.75 40.25 L64.1 46.3 Q66.5 48.25 66.5 51.5 L66.65 53.6 Q66.65 55.95 66.05 57.9 64.1 64.0 56.5 64.0 51.15 64.0 48.4 62.4 45.45 60.15 42.5 58.75 41.5 59.75 41.55 62.65 40.55 65.0 34.0 65.0 30.7 65.0 25.8 63.0 19.15 60.2 14.0 59.0 L14.4 60.6 Q14.7 62.0 14.25 62.95 12.8 66.0 4.0 66.0 -3.75 66.0 -18.7 61.0 -33.65 56.0 -35.5 56.0 L-39.35 57.05 Q-42.3 58.05 -45.5 57.75 L-52.05 58.2 -59.0 58.75 -67.65 49.1 Q-76.0 39.4 -76.0 39.1 -76.0 38.45 -74.8 37.0 -72.95 34.95 -69.25 32.5 L-71.0 31.75 Q-75.75 29.25 -68.05 18.75 -58.45 22.15 -55.75 22.75 L-57.0 22.25 Q-60.85 20.2 -67.15 17.5 -70.35 19.1 -71.1 16.05 L-73.2 8.3 -84.2 10.7 -84.85 10.45 -90.1 8.2 Q-91.65 7.45 -77.4 7.05 -63.15 6.7 -78.25 3.3 -93.35 -0.15 -93.2 -1.3 L-93.05 -2.55 Q-89.7 -5.95 -82.75 -3.75 L-83.0 -4.0 -90.2 -8.3 Q-91.75 -9.4 -91.75 -11.0 -91.75 -12.05 -90.05 -13.85 -88.1 -15.85 -87.75 -17.0 -94.45 -22.6 -95.9 -24.25 -98.25 -26.9 -98.25 -29.75 -98.25 -40.2 -53.55 -26.75 -40.55 -22.8 -21.5 -16.15 -5.3 -10.45 -4.25 -10.25 L-4.75 -15.45 Q-4.4 -20.0 0.0 -20.0 0.9 -20.0 5.5 -17.9 L10.5 -15.75 11.2 -18.15" fill="#996600" fill-opacity="0.2" fill-rule="evenodd" stroke="none"/>
    <path d="M-80.75 -28.85 Q-80.75 -31.95 -74.85 -31.25 -69.6 -30.65 -61.85 -27.4 -54.3 -24.3 -48.9 -20.6 -43.0 -16.6 -43.0 -14.0 -43.0 -12.2 -46.5 -9.0 -42.55 -7.15 -40.95 -5.6 -39.25 -4.0 -39.25 -1.85 -39.25 -0.4 -39.4 0.0 -39.9 1.3 -42.0 2.25 L-32.0 8.3 Q-29.25 10.0 -29.25 12.0 -29.25 15.25 -30.35 16.65 -32.6 19.55 -39.5 18.5 L-39.0 18.75 Q-34.35 21.5 -32.3 23.0 -28.75 25.55 -28.75 27.85 L-28.6 29.0 Q-28.55 30.15 -29.0 31.1 -30.35 34.0 -36.0 34.0 -40.9 34.0 -42.75 33.25 -44.75 32.4 -44.75 30.1 -44.75 28.5 -44.1 27.75 L-42.75 26.75 Q-46.35 24.95 -50.75 21.6 -56.25 17.35 -56.25 15.1 -56.25 13.65 -55.05 12.1 -53.45 10.0 -50.5 9.5 L-52.25 8.75 Q-64.45 3.9 -66.55 2.7 -69.75 0.85 -69.75 -2.1 -69.75 -3.05 -68.55 -4.25 -67.2 -5.65 -64.5 -7.0 -73.8 -11.5 -74.7 -12.0 -78.5 -14.3 -78.5 -16.85 -78.45 -19.1 -77.0 -20.5 -74.45 -23.05 -68.7 -21.05 L-75.8 -24.05 Q-80.75 -26.55 -80.75 -28.85" fill="#996600" fill-opacity="0.2" fill-rule="evenodd" stroke="none"/>
    <path d="M31.5 20.0 L31.0 19.75 29.9 19.5 31.5 20.0 M49.25 -10.25 Q51.5 -9.5 52.75 -9.5 L51.25 -10.25 49.4 -11.0 47.0 -11.0 49.25 -10.25 M7.0 -16.6 Q7.0 -20.95 9.25 -21.8 11.15 -22.45 15.8 -20.9 L26.1 -17.15 Q33.45 -14.65 39.75 -13.75 40.05 -14.4 39.9 -15.6 39.7 -16.7 40.0 -17.2 41.05 -18.75 50.0 -18.75 50.55 -18.75 53.55 -17.1 56.5 -15.5 60.75 -15.5 L65.9 -16.5 71.0 -17.5 Q79.05 -17.5 89.8 -12.25 99.0 -7.75 99.0 -6.75 99.0 -4.5 97.0 -3.9 L87.0 -2.25 Q89.75 -0.3 89.75 2.25 L89.5 4.15 Q88.75 5.75 86.0 5.75 81.2 5.75 73.35 3.75 L65.5 1.75 Q64.2 1.75 62.05 3.0 59.95 4.25 59.0 4.25 L59.75 4.75 Q61.15 6.15 63.7 10.5 66.25 14.9 66.25 16.0 66.25 17.6 65.2 18.65 62.95 20.95 56.5 20.5 L59.0 20.75 Q60.95 20.95 62.15 22.2 63.25 23.35 63.25 24.85 63.3 27.2 62.3 29.1 60.45 32.75 55.5 31.5 57.45 34.6 57.35 36.85 57.15 41.0 50.0 41.0 L43.05 41.5 38.0 42.0 Q35.55 42.0 34.0 41.05 32.25 39.95 32.25 38.0 32.25 37.05 33.3 35.75 L35.5 33.5 Q26.95 29.85 23.8 27.9 19.0 24.9 19.0 21.85 19.0 20.8 19.7 19.8 21.0 18.0 24.0 18.0 25.45 18.0 27.3 18.65 L29.3 19.35 Q27.05 18.5 26.1 16.4 24.85 13.7 26.25 10.75 L13.35 6.05 Q4.75 2.65 4.75 0.0 4.75 -1.2 6.05 -2.65 8.05 -4.95 12.0 -4.5 L12.0 -4.75 Q5.75 -7.1 3.65 -8.65 1.75 -10.05 1.75 -12.0 1.75 -12.35 4.4 -14.65 7.0 -16.95 7.0 -16.6" fill="#996600" fill-opacity="0.2" fill-rule="evenodd" stroke="none"/>
    <path d="M100.75 -9.5 L100.0 -9.75 93.3 -12.25 Q91.25 -12.75 89.75 -11.75 L100.75 -9.5 M68.55 -58.1 Q71.1 -60.5 74.5 -60.5 88.8 -60.5 96.8 -57.8 112.1 -52.65 121.25 -50.75 L120.85 -52.55 Q120.55 -54.1 121.1 -55.2 122.8 -58.75 132.5 -58.75 L141.7 -57.95 147.0 -56.25 Q154.75 -53.75 175.75 -53.75 176.05 -53.75 177.7 -56.25 179.3 -58.75 183.0 -58.75 189.35 -58.75 207.3 -54.1 225.25 -49.5 234.1 -49.5 235.15 -49.5 235.15 -50.3 L235.35 -52.0 Q236.7 -54.5 248.35 -54.5 262.45 -54.5 269.1 -51.0 274.35 -48.25 274.35 -43.85 274.35 -42.25 273.9 -41.05 L272.85 -39.0 Q276.05 -37.25 277.25 -35.6 278.35 -34.1 278.35 -31.85 278.35 -30.25 277.35 -28.5 275.65 -25.5 271.85 -25.5 263.85 -25.5 253.75 -28.55 244.0 -31.85 240.6 -32.5 L241.1 -32.0 Q241.5 -30.2 241.25 -28.25 240.9 -26.1 239.85 -24.5 244.95 -22.0 246.3 -20.35 247.1 -19.35 247.1 -17.0 247.1 -14.6 245.1 -12.5 241.3 -8.5 231.85 -8.5 230.1 -8.5 225.75 -9.8 L220.85 -11.25 Q220.55 -9.0 219.95 -7.5 218.9 -4.6 216.6 -3.75 225.2 0.2 227.2 1.75 229.6 3.65 229.6 7.0 229.9 8.9 228.9 10.75 226.9 14.5 220.35 14.5 215.85 14.5 200.5 10.85 L180.5 6.0 Q189.2 9.9 199.95 14.3 206.35 17.55 206.35 22.1 206.35 24.15 205.35 25.5 203.2 28.5 197.0 28.5 192.25 28.5 167.1 21.6 L138.25 13.5 138.25 14.25 Q138.25 17.45 137.85 18.65 136.55 22.5 132.0 22.5 L122.4 21.55 112.0 20.25 Q111.4 23.7 108.8 27.3 105.25 32.25 100.5 32.25 95.2 32.25 89.7 30.15 84.2 28.0 77.25 28.0 76.0 28.0 74.65 29.0 73.25 30.0 72.0 30.0 69.6 30.0 66.75 26.5 64.25 23.4 64.25 22.0 64.25 16.6 70.1 12.95 71.85 11.85 76.1 9.45 80.1 7.1 83.0 4.5 78.75 2.4 72.65 0.35 66.2 -1.7 63.5 -2.7 54.5 -5.95 54.5 -10.75 54.5 -12.9 55.55 -14.5 57.5 -17.5 62.5 -17.5 L67.45 -16.85 72.25 -16.0 58.3 -19.4 Q50.1 -21.2 40.5 -24.0 41.85 -22.45 42.4 -21.1 43.0 -19.7 43.0 -17.85 43.2 -15.95 42.55 -14.3 41.25 -11.0 37.0 -11.0 36.15 -11.0 22.65 -15.35 7.75 -20.15 1.0 -21.5 7.2 -19.0 8.8 -17.35 9.75 -16.35 9.75 -14.0 9.8 -12.45 9.0 -11.05 7.4 -8.25 3.0 -8.25 -4.7 -8.25 -23.7 -14.85 L-53.5 -25.25 -84.45 -32.65 Q-110.75 -39.75 -110.75 -45.0 -110.75 -45.65 -112.75 -48.65 -114.75 -51.65 -114.75 -54.0 -114.75 -55.35 -113.8 -57.0 -112.2 -59.75 -109.0 -59.75 -107.95 -59.75 -100.95 -56.4 -94.1 -53.1 -91.75 -53.25 -91.55 -54.55 -90.7 -55.7 -88.95 -58.0 -85.0 -58.0 -82.8 -58.0 -66.0 -52.8 L-48.0 -47.25 -48.75 -48.0 -49.8 -49.85 Q-50.25 -50.9 -50.25 -52.5 -50.25 -54.95 -49.3 -56.25 -47.05 -59.25 -40.0 -59.25 -31.6 -59.25 -6.55 -52.15 L20.25 -44.0 17.25 -45.25 Q11.7 -48.6 0.8 -51.75 -2.5 -52.75 -3.7 -53.8 -5.25 -55.15 -5.25 -57.85 -5.25 -63.1 -1.6 -64.0 1.4 -64.75 7.65 -62.7 L19.9 -58.0 Q27.85 -54.9 32.5 -54.0 L32.45 -55.45 Q32.45 -57.05 33.0 -58.35 34.6 -62.5 40.5 -62.5 42.7 -62.5 53.7 -59.1 64.7 -55.75 66.5 -55.75 L68.55 -58.1" fill="#9fd26c" fill-opacity="0.3019608" fill-rule="evenodd" stroke="none"/>
    <path d="M17.0 -8.1 Q15.45 -6.75 11.5 -6.75 5.8 -6.75 -4.35 -10.05 L-17.75 -15.0 Q-18.5 -12.9 -19.45 -11.4 -21.3 -8.5 -26.5 -8.5 -29.75 -8.5 -51.05 -18.35 L-75.0 -29.75 Q-99.1 -40.3 -102.35 -42.65 -105.15 -44.65 -105.95 -47.1 -106.5 -48.85 -106.5 -53.35 L-105.8 -57.05 Q-104.25 -60.5 -100.0 -60.5 L-84.0 -56.45 -66.5 -52.0 Q-66.85 -54.2 -65.85 -55.6 -63.9 -58.25 -56.0 -58.25 -45.15 -58.25 -27.5 -54.25 L-8.5 -49.5 -8.25 -50.1 Q-8.25 -51.15 -10.35 -54.25 -12.5 -57.35 -12.5 -58.0 L-12.55 -59.15 Q-12.5 -60.6 -6.35 -53.7 -0.2 -46.85 4.75 -55.5 9.7 -64.15 42.35 -56.2 74.95 -48.3 104.0 -40.5 92.3 -45.6 88.5 -47.4 82.5 -50.25 82.5 -54.1 82.5 -55.7 83.25 -56.95 84.8 -59.5 89.0 -59.5 105.7 -59.5 133.35 -53.35 L166.25 -45.75 165.5 -46.0 Q146.2 -52.75 140.05 -55.0 130.5 -58.5 130.5 -61.85 130.5 -64.0 144.9 -63.35 158.4 -62.75 176.55 -60.1 195.7 -57.35 208.2 -54.0 222.6 -50.15 222.6 -46.85 222.6 -45.35 222.2 -45.3 L220.85 -45.25 Q214.9 -47.6 200.75 -49.9 L187.5 -51.75 177.75 -51.5 179.75 -50.75 Q186.25 -47.8 203.25 -42.15 207.3 -40.8 208.8 -39.6 210.6 -38.2 210.6 -35.85 211.65 -34.5 210.35 -33.4 207.8 -31.25 195.85 -31.25 185.4 -31.25 165.75 -35.4 L143.75 -40.25 Q161.75 -33.85 179.4 -28.5 184.35 -26.6 186.15 -24.6 188.0 -22.55 188.0 -18.85 188.0 -16.05 186.95 -14.7 184.7 -11.8 177.75 -11.75 L178.25 -11.5 Q187.2 -7.5 189.4 -5.7 191.5 -4.0 191.5 -0.85 191.55 0.9 190.5 2.45 188.4 5.5 183.0 5.5 180.35 5.5 176.65 3.0 172.95 0.5 169.75 0.5 169.4 0.5 166.9 1.9 164.4 3.25 162.0 3.25 158.75 3.25 148.75 0.15 L138.5 -3.0 Q137.75 -1.7 136.5 -0.35 134.05 2.25 130.5 2.25 122.85 2.25 100.15 -5.65 68.25 -16.7 64.5 -17.75 L64.75 -17.0 Q65.4 -14.85 64.75 -12.9 63.4 -9.0 56.0 -9.0 52.05 -9.0 38.95 -12.25 L25.5 -15.5 Q21.55 -15.5 19.95 -14.15 19.0 -13.3 18.5 -11.1 17.95 -8.95 17.0 -8.1" fill="#9fd26c" fill-opacity="0.3019608" fill-rule="evenodd" stroke="none"/>
    <path d="M-14.0 -35.0 L-19.3 -36.9 -23.25 -38.25 -22.75 -38.0 Q-19.9 -36.4 -16.8 -35.55 -14.8 -35.0 -14.0 -35.0 M55.15 -56.05 Q57.15 -58.5 78.5 -58.5 85.4 -58.5 88.7 -56.95 92.9 -54.95 103.5 -54.0 122.9 -52.25 129.4 -48.9 132.5 -47.3 132.5 -44.85 132.5 -43.05 131.5 -41.5 129.65 -38.5 125.0 -38.5 L120.5 -39.3 111.5 -40.25 114.75 -39.0 Q123.95 -34.5 135.75 -29.95 143.0 -26.65 143.0 -22.1 143.2 -20.4 142.55 -18.9 141.25 -16.0 137.0 -16.0 132.85 -16.0 117.1 -20.3 100.05 -24.9 95.0 -25.5 99.0 -23.3 99.0 -19.1 99.35 -17.4 98.5 -15.9 96.85 -13.0 91.0 -13.0 87.3 -13.0 64.8 -19.8 53.55 -23.2 42.5 -26.75 L42.5 -26.25 Q46.5 -24.05 46.5 -19.85 46.5 -18.4 45.75 -17.05 44.35 -14.5 41.0 -14.5 37.3 -14.5 33.7 -17.5 30.05 -20.5 26.0 -20.5 25.25 -20.5 24.9 -19.85 L24.3 -18.5 Q23.25 -16.5 19.0 -16.5 9.0 -16.5 -1.8 -19.5 L-14.5 -23.25 -7.2 -18.85 Q-5.5 -17.7 -5.5 -15.85 -5.5 -14.2 -6.2 -13.05 -7.85 -10.5 -12.5 -10.5 -16.35 -10.5 -32.45 -15.6 -48.35 -20.65 -66.25 -27.5 -112.25 -45.1 -112.25 -51.0 -112.25 -52.3 -111.55 -53.25 -110.1 -55.25 -106.0 -55.25 -102.05 -55.25 -99.1 -52.9 -96.25 -50.65 -95.0 -50.75 L-95.25 -51.25 Q-98.7 -56.85 -91.7 -58.55 L-76.0 -59.5 Q-70.5 -59.5 -56.95 -53.55 L-30.0 -41.75 -30.25 -42.5 Q-33.55 -46.9 -42.6 -50.95 -46.3 -52.6 -47.7 -53.75 -49.75 -55.5 -49.75 -58.0 -49.75 -59.5 -48.75 -61.0 -46.9 -63.75 -42.5 -63.75 -38.9 -63.75 -26.3 -60.1 -14.1 -56.65 -10.55 -55.9 -11.7 -55.5 -10.0 -49.7 -7.85 -42.45 1.0 -51.7 9.85 -60.95 19.4 -61.4 28.95 -61.85 43.0 -56.0 L57.0 -50.25 Q56.95 -51.2 55.6 -53.45 54.5 -55.25 55.15 -56.05" fill="#9fd26c" fill-opacity="0.3019608" fill-rule="evenodd" stroke="none"/>
    <path d="M77.65 -56.95 Q105.45 -57.25 110.3 -56.95 115.1 -56.65 116.55 -55.65 115.5 -56.05 96.05 -56.05 L63.8 -55.95 46.5 -55.7 Q41.1 -55.55 38.25 -55.8 L29.65 -56.15 22.2 -56.35 21.7 -56.6 19.3 -56.6 Q18.95 -56.85 18.95 -57.3 L18.2 -57.65 16.7 -58.6 14.85 -58.05 13.55 -57.7 13.35 -57.7 Q13.15 -57.25 12.55 -57.25 11.45 -57.25 11.2 -58.2 L11.2 -59.2 11.45 -61.0 11.8 -62.85 11.65 -62.95 Q8.0 -58.6 5.9 -58.6 5.55 -58.6 5.6 -58.4 L5.55 -58.1 Q5.2 -58.35 4.7 -59.35 4.15 -60.4 4.15 -61.0 L4.3 -61.2 6.65 -59.6 9.4 -62.4 Q11.45 -64.35 13.05 -64.5 L13.2 -64.55 13.3 -64.1 12.8 -62.65 12.3 -60.75 Q12.3 -60.25 12.85 -59.4 L13.35 -58.5 15.85 -59.3 19.55 -60.2 Q19.2 -59.45 19.85 -58.95 L21.05 -57.75 20.7 -57.35 44.95 -56.9 Q49.85 -56.7 77.65 -56.95 M0.8 -57.7 Q0.8 -57.25 1.9 -56.7 2.95 -56.15 2.95 -55.6 L2.9 -54.95 2.8 -54.75 2.9 -51.25 Q2.65 -50.15 2.0 -49.05 L1.1 -47.8 3.6 -48.3 Q3.95 -48.45 4.15 -49.3 L4.4 -49.3 4.65 -47.9 Q4.65 -47.35 4.0 -47.05 L0.25 -46.65 Q-1.8 -46.65 -3.25 -47.35 L-5.25 -48.5 -5.1 -48.75 -2.95 -48.25 -2.15 -47.95 Q-8.7 -50.8 -20.8 -55.4 L-24.15 -56.0 -42.75 -56.7 -52.45 -56.0 -57.95 -56.0 Q-58.15 -56.95 -57.95 -57.6 L-59.55 -57.7 -61.2 -57.95 -59.35 -58.1 -57.6 -58.1 Q-57.45 -57.7 -57.45 -56.75 L-50.5 -57.15 -42.85 -57.5 Q-25.6 -57.5 -23.65 -57.15 L-20.7 -56.7 -20.75 -56.25 -20.65 -55.95 Q-15.35 -55.2 -10.85 -53.25 L-0.6 -48.05 Q1.4 -49.2 1.85 -51.1 L2.3 -54.7 Q1.45 -54.7 1.6 -54.85 1.85 -55.05 1.7 -55.15 L0.9 -55.3 -0.65 -56.7 0.2 -56.75 Q-0.8 -57.5 -0.8 -58.45 -0.8 -59.3 0.5 -59.0 L4.65 -58.1 Q3.25 -57.3 2.7 -57.25 2.05 -57.2 0.8 -57.85 L0.8 -57.7 M4.15 -51.85 L4.05 -51.9 4.15 -51.95 4.25 -52.9 5.25 -52.9 5.5 -51.0 5.4 -50.5 5.25 -50.4 Q4.45 -50.45 4.25 -50.9 L4.15 -51.85 M22.4 -25.1 L19.05 -22.85 18.95 -22.5 18.6 -22.5 17.7 -21.85 17.55 -21.7 Q18.9 -21.9 20.05 -22.55 L26.8 -23.1 27.55 -22.95 27.65 -22.8 27.7 -22.65 28.45 -22.85 28.9 -22.6 28.3 -22.35 27.9 -21.85 27.95 -21.35 27.95 -21.25 31.5 -22.2 Q33.65 -22.95 34.3 -22.95 L35.15 -22.85 35.2 -22.7 35.3 -22.7 35.3 -22.5 35.3 -22.2 35.3 -22.05 36.2 -21.7 37.3 -21.45 37.45 -21.1 Q37.2 -20.7 36.65 -20.7 L35.5 -20.9 39.4 -17.95 Q44.6 -14.7 49.8 -14.7 L61.45 -15.55 69.65 -16.45 Q76.4 -16.45 81.15 -14.75 82.45 -14.25 85.05 -12.75 L85.05 -12.6 84.75 -12.7 85.0 -12.35 85.55 -11.1 Q87.7 -11.1 88.45 -11.65 89.15 -12.25 90.05 -12.25 L91.3 -12.1 91.4 -11.7 91.7 -11.7 94.25 -11.65 Q95.9 -12.35 97.95 -12.65 102.7 -13.4 104.25 -10.75 103.25 -9.75 101.65 -9.25 L99.55 -8.85 98.45 -8.75 Q98.25 -8.8 98.25 -9.6 L98.35 -10.3 97.5 -10.1 94.45 -10.0 Q92.2 -10.0 91.75 -10.35 92.5 -10.9 93.4 -11.3 L91.85 -11.25 90.3 -11.2 86.3 -9.75 Q83.25 -9.75 83.2 -12.95 L78.9 -13.9 Q75.35 -14.85 68.55 -14.85 L60.4 -14.2 50.9 -13.6 Q44.5 -13.6 39.15 -17.3 L34.1 -21.45 33.55 -21.45 28.15 -20.1 27.05 -20.2 Q26.95 -20.05 26.95 -20.7 26.95 -21.3 27.1 -21.75 L21.45 -20.65 Q16.4 -19.7 15.3 -19.1 L14.9 -19.2 Q14.8 -19.25 14.8 -19.65 14.8 -20.55 17.25 -22.6 L16.95 -22.6 Q13.6 -22.6 10.6 -20.45 8.25 -18.35 7.8 -18.35 7.4 -18.35 7.05 -18.95 6.75 -19.6 4.05 -19.6 3.7 -19.6 3.65 -19.4 L3.55 -19.2 5.2 -18.15 9.65 -14.5 9.45 -14.0 Q9.2 -13.7 8.55 -13.7 L5.35 -14.45 0.8 -15.1 0.9 -14.55 0.7 -10.25 0.3 -9.95 -2.35 -11.3 -5.0 -12.45 -4.6 -11.85 -4.75 -11.5 Q-4.85 -11.35 -5.2 -11.35 L-5.7 -11.55 -5.95 -11.85 -5.95 -10.1 Q-5.85 -9.85 -6.45 -9.85 L-9.5 -11.45 Q-11.65 -12.55 -12.75 -12.65 -14.45 -11.9 -18.2 -11.45 L-24.35 -11.1 Q-27.0 -11.1 -30.4 -12.65 -33.0 -13.8 -34.55 -13.65 L-35.45 -13.25 Q-36.95 -12.6 -37.6 -12.6 -39.5 -12.6 -40.05 -13.1 L-40.2 -13.7 -40.05 -15.2 -39.6 -15.2 Q-39.35 -14.85 -39.35 -13.7 L-38.7 -13.6 -35.8 -13.8 -35.95 -13.95 Q-35.6 -14.15 -35.2 -14.3 -34.9 -14.6 -34.45 -14.7 L-34.3 -14.65 Q-32.4 -15.25 -30.75 -14.25 -27.35 -12.2 -24.15 -12.2 L-17.45 -13.0 -12.45 -13.85 -11.8 -13.5 -10.8 -13.2 -7.45 -11.45 Q-7.15 -12.0 -7.15 -12.2 L-7.2 -12.85 -6.7 -12.95 Q-5.65 -12.95 -5.1 -12.55 L-5.1 -12.85 -5.15 -12.9 -4.7 -13.0 -2.55 -12.3 -0.2 -11.45 -0.4 -13.1 -0.6 -14.55 -0.55 -15.1 -0.2 -15.1 -0.3 -15.7 Q-0.3 -16.75 4.8 -16.35 L4.95 -16.35 3.35 -17.5 Q2.3 -18.2 2.3 -18.65 2.3 -19.5 3.0 -19.35 L2.8 -20.05 Q2.8 -20.4 3.05 -20.45 L4.55 -20.6 6.0 -20.3 7.45 -20.0 9.4 -21.4 11.7 -22.95 Q14.95 -24.3 17.15 -24.2 L18.75 -23.8 Q20.9 -25.35 22.3 -25.25 L22.4 -25.1 M38.5 -40.25 Q41.35 -40.05 41.75 -39.35 L38.25 -39.85 38.5 -40.25 M6.2 -45.75 L5.65 -45.8 5.55 -45.9 Q6.25 -46.45 7.0 -46.6 L8.15 -46.5 7.2 -45.95 6.2 -45.75 M34.4 -20.35 L32.7 -17.65 Q31.55 -15.35 31.55 -14.5 L36.4 -7.15 36.05 -6.35 Q35.7 -6.0 35.15 -6.0 32.95 -6.0 32.65 -7.4 L32.8 -8.8 Q32.8 -9.55 31.6 -11.55 L30.55 -13.15 Q29.25 -13.7 28.85 -14.75 28.5 -15.5 28.5 -17.15 28.5 -18.7 29.5 -19.0 30.65 -18.3 30.45 -16.1 30.35 -14.6 30.5 -13.8 30.7 -14.7 31.85 -17.05 L33.55 -20.6 34.4 -20.35 M24.45 -19.6 L24.3 -18.35 24.15 -18.35 24.05 -19.85 Q25.55 -21.25 26.05 -19.75 L26.3 -17.7 26.2 -16.65 25.35 -15.7 25.4 -16.1 25.05 -19.35 24.45 -19.6 M33.9 -1.45 L33.8 -2.2 Q33.8 -3.6 34.6 -3.2 35.4 -2.8 35.55 -1.35 L34.55 -0.75 Q34.1 -0.75 33.9 -1.45 M42.6 -44.25 L44.25 -42.05 45.75 -39.75 45.6 -39.35 43.3 -41.15 42.0 -42.5 42.1 -44.25 42.6 -44.25 M128.1 -56.45 Q127.6 -56.95 127.6 -57.2 128.95 -59.45 134.6 -59.45 138.35 -59.5 139.65 -58.4 140.8 -58.55 141.25 -58.95 L141.5 -59.7 141.35 -60.3 141.0 -60.7 Q141.8 -60.9 142.45 -60.25 L142.6 -60.1 142.6 -60.2 143.05 -60.05 143.7 -59.95 Q145.0 -59.95 145.05 -62.25 L144.85 -65.6 146.8 -63.35 Q148.45 -61.05 150.1 -61.05 150.95 -61.05 151.8 -61.75 L152.85 -62.45 153.5 -62.35 153.6 -59.2 153.6 -59.0 Q153.65 -58.85 154.0 -58.85 154.55 -58.85 155.15 -59.4 L156.1 -59.95 Q157.0 -59.95 157.55 -59.1 L157.95 -57.95 157.85 -57.55 Q157.75 -57.35 157.35 -57.35 156.4 -57.35 156.15 -57.8 L156.1 -58.45 155.25 -57.8 154.35 -57.3 Q153.1 -57.3 152.75 -58.25 152.6 -58.55 152.6 -59.35 L152.6 -60.85 151.45 -60.4 150.45 -59.95 Q148.35 -59.95 145.85 -63.3 145.85 -59.05 144.45 -59.05 L144.2 -59.05 144.2 -58.8 143.75 -58.7 Q143.65 -58.7 143.1 -59.05 L143.0 -59.1 142.55 -59.25 142.6 -59.35 142.25 -59.6 141.5 -58.65 140.85 -58.05 139.9 -58.1 Q140.25 -57.65 140.25 -57.05 140.25 -56.3 139.6 -56.3 138.9 -56.3 137.3 -57.75 L135.35 -59.2 Q132.5 -59.2 130.85 -58.2 129.25 -56.9 128.1 -56.45 M122.55 -57.5 L123.1 -57.7 126.25 -57.0 Q128.15 -56.3 128.45 -55.95 L128.45 -55.6 Q128.45 -55.45 128.1 -55.45 L124.45 -56.7 123.35 -56.7 123.25 -55.95 Q123.45 -55.7 122.85 -55.7 121.6 -55.7 120.85 -57.55 L120.2 -60.05 Q121.35 -60.4 121.85 -59.35 L122.35 -57.3 122.55 -57.5 M161.6 -57.7 L160.0 -57.8 158.35 -58.05 160.2 -58.2 161.95 -58.2 162.1 -56.85 169.05 -57.25 176.7 -57.6 182.35 -57.6 Q194.3 -57.55 195.9 -57.25 L203.35 -56.45 203.45 -56.4 209.35 -56.6 219.75 -56.85 Q218.75 -57.6 218.75 -58.55 218.75 -59.4 220.05 -59.1 L224.2 -58.2 Q222.8 -57.4 222.25 -57.35 221.6 -57.3 220.35 -57.95 L220.35 -57.8 Q220.35 -57.35 221.45 -56.8 222.5 -56.25 222.5 -55.7 L222.45 -55.05 Q222.45 -54.8 221.85 -54.8 221.0 -54.8 221.15 -54.95 221.4 -55.15 221.25 -55.25 L210.4 -55.7 204.1 -55.55 202.3 -55.25 201.6 -55.1 Q200.7 -55.1 200.45 -55.35 L200.8 -55.45 200.7 -55.45 Q197.6 -55.45 195.4 -56.1 L182.35 -56.75 176.8 -56.8 167.1 -56.1 161.6 -56.1 Q161.4 -57.05 161.6 -57.7 M116.75 -65.2 L117.2 -65.2 118.55 -61.05 Q119.75 -57.5 119.75 -56.7 L119.65 -56.15 119.35 -56.05 Q118.7 -57.2 117.6 -60.3 L116.6 -63.5 116.75 -65.2 M117.95 -56.2 L115.85 -57.6 113.8 -59.0 113.8 -60.75 115.55 -59.8 Q118.35 -58.05 118.35 -56.95 L118.2 -56.4 117.95 -56.2 M75.85 47.25 L75.75 45.5 75.85 43.8 76.25 43.8 76.35 46.3 76.45 45.9 Q76.65 45.7 78.5 45.0 L79.0 45.55 79.0 46.0 78.95 46.9 78.75 47.05 78.15 46.6 77.5 46.05 77.4 46.35 Q77.1 46.7 75.85 47.25 M71.25 30.0 L74.3 32.85 Q76.6 35.2 76.6 39.85 L76.35 43.5 75.75 43.5 Q74.7 37.1 70.4 32.35 66.5 28.0 66.5 25.6 66.5 24.8 66.65 24.85 L66.75 25.05 Q68.9 27.75 71.25 30.0 M61.85 16.75 Q63.3 19.2 61.3 20.45 L57.5 22.0 57.15 21.7 57.1 21.55 Q57.35 20.8 59.35 19.0 L61.85 16.75 M63.95 23.6 Q64.6 22.35 64.6 21.55 61.2 23.75 56.85 23.75 L56.65 23.65 56.6 22.9 Q56.6 22.1 56.75 22.1 L56.85 22.25 61.1 20.95 65.5 20.75 Q65.3 22.65 64.25 24.75 L67.25 23.1 Q70.05 21.55 70.25 21.55 L70.5 22.0 69.95 22.6 71.05 24.2 Q72.15 26.05 72.6 26.05 73.4 26.05 73.85 25.6 L74.5 24.8 Q75.1 25.55 75.1 26.75 73.5 27.55 72.5 27.55 71.75 27.55 70.6 25.35 L69.55 22.95 67.2 24.4 Q64.65 25.85 63.5 26.0 L63.15 25.55 63.1 25.3 63.95 23.6 M68.35 10.3 Q65.25 11.95 61.65 12.35 59.1 12.65 59.1 13.15 L59.35 14.5 Q58.85 15.25 54.5 15.25 53.75 15.25 53.7 15.0 L53.75 14.5 53.85 13.0 Q59.25 12.4 63.4 11.2 66.6 10.3 68.35 10.3 M75.35 7.25 Q74.8 6.95 74.7 6.25 74.55 5.65 74.75 5.05 L76.0 6.0 76.5 7.0 76.3 8.0 76.1 8.3 68.3 9.1 68.35 9.4 67.0 9.5 65.9 9.3 65.75 9.05 Q67.35 8.7 67.2 8.2 L75.35 7.25 M86.75 64.5 L86.85 63.3 87.25 63.3 87.25 65.55 86.85 65.55 86.75 64.5 M86.75 60.35 L86.5 61.55 85.85 62.05 82.5 55.55 Q79.75 50.35 79.75 50.05 79.75 49.25 79.9 48.75 L80.35 47.8 Q81.45 49.05 83.8 53.15 86.75 58.25 86.75 60.35 M83.2 45.3 L83.35 44.8 83.75 44.8 Q83.65 45.95 84.6 47.55 L86.25 50.55 84.55 48.65 Q83.1 46.8 83.1 46.35 L83.2 45.3 M92.25 29.05 L91.25 28.4 Q90.5 27.85 90.5 27.1 90.5 26.3 90.65 26.35 L90.75 26.55 92.5 27.25 92.25 29.05 M92.9 30.75 L93.6 30.8 93.6 33.05 93.35 33.5 Q91.3 32.25 89.85 30.45 88.6 28.8 88.3 27.25 L87.65 27.45 86.0 27.75 Q82.35 27.75 81.5 26.55 80.65 25.3 79.3 25.3 L77.4 25.5 76.25 25.55 Q78.55 23.75 79.4 23.45 80.15 23.2 81.0 23.75 84.6 26.15 89.75 26.8 L88.45 27.2 92.35 31.25 Q92.35 30.9 92.9 30.75 M95.25 2.3 Q96.8 1.95 97.2 1.05 L97.35 -0.1 Q99.25 1.25 98.25 2.35 96.3 4.55 82.75 4.55 L73.1 4.5 72.85 3.8 83.15 3.35 93.5 3.0 95.25 2.3 M109.6 12.55 L108.05 13.0 105.25 12.55 109.6 12.0 109.6 12.55 M102.0 7.05 Q102.0 7.25 102.35 7.3 L100.1 7.65 97.75 7.55 Q97.8 7.35 99.35 7.2 L102.0 7.05 M133.2 43.7 L133.75 45.55 132.7 45.25 131.85 45.0 Q131.85 43.35 132.35 42.3 L133.2 43.7 M129.1 37.75 L128.5 38.0 Q122.95 33.9 118.95 31.85 111.75 28.2 99.0 27.75 L98.75 28.8 Q96.85 28.8 97.05 28.1 97.25 27.3 94.0 27.0 106.2 25.85 117.3 29.95 126.8 33.5 129.1 37.75 M455.5 -55.65 L455.5 -55.4 455.35 -55.4 455.5 -55.65 M231.35 -62.95 L231.2 -63.05 Q227.55 -58.7 225.45 -58.7 225.1 -58.7 225.15 -58.5 L225.1 -58.2 Q224.75 -58.45 224.25 -59.45 223.7 -60.5 223.7 -61.1 L223.85 -61.3 226.2 -59.7 228.95 -62.5 Q231.0 -64.45 232.6 -64.6 L232.75 -64.65 232.85 -64.2 232.35 -62.75 231.85 -60.85 Q231.85 -60.35 232.4 -59.5 L232.9 -58.6 235.4 -59.4 239.1 -60.3 Q238.75 -59.55 239.4 -59.05 L240.6 -57.85 240.25 -57.45 Q259.65 -57.3 265.3 -57.65 L279.75 -58.75 278.7 -57.85 275.6 -57.7 265.45 -56.7 256.85 -56.2 249.2 -56.25 241.75 -56.45 241.25 -56.7 238.85 -56.7 Q238.5 -56.95 238.5 -57.4 L237.75 -57.75 236.25 -58.7 234.4 -58.15 233.1 -57.8 232.9 -57.8 Q232.7 -57.35 232.1 -57.35 231.0 -57.35 230.75 -58.3 L230.75 -59.3 231.0 -61.1 231.35 -62.95 M97.25 -6.35 Q97.25 -7.6 97.35 -7.1 L99.1 -7.05 Q101.2 -6.7 104.35 -4.6 104.35 -3.85 104.5 -3.5 104.25 -3.1 100.5 -2.85 L100.6 -2.75 Q101.25 -2.1 101.0 -1.85 L99.75 -2.25 98.6 -2.5 98.6 -3.1 Q99.25 -3.75 102.5 -4.1 97.25 -5.7 97.25 -6.35 M81.25 -11.1 Q82.05 -10.75 83.15 -9.4 84.25 -8.05 84.25 -7.3 84.25 -6.2 82.5 -4.85 L81.9 -5.25 81.75 -5.5 82.25 -6.35 Q82.75 -6.85 82.75 -7.55 L81.75 -9.1 80.75 -10.35 Q80.75 -11.6 81.25 -11.1 M3.25 27.35 L3.3 27.8 0.8 30.15 Q0.2 30.15 0.0 29.65 L-0.05 29.15 Q-0.05 28.35 0.75 27.65 1.75 26.8 3.15 27.15 L3.25 27.35 M0.05 36.65 Q-3.1 40.3 -7.7 40.3 -10.65 40.3 -11.9 39.55 L-12.7 38.65 -12.6 38.4 Q-12.05 38.4 -11.55 38.75 L-10.45 39.05 Q-6.4 39.05 -2.4 36.4 0.8 34.25 0.8 33.6 L0.7 33.05 0.05 32.95 -1.05 33.05 Q-1.2 33.3 -1.2 32.65 -1.2 31.25 0.55 31.25 2.3 31.25 2.3 32.75 2.3 34.0 0.05 36.65 M-102.8 -65.1 L-102.35 -65.1 -101.0 -60.95 Q-99.8 -57.4 -99.8 -56.6 L-99.9 -56.05 -100.2 -55.95 Q-100.85 -57.1 -101.95 -60.2 L-102.95 -63.4 -102.8 -65.1 M-112.6 -56.8 L-112.7 -56.95 Q-111.95 -58.1 -111.4 -57.9 L-110.45 -57.5 Q-108.25 -57.5 -108.2 -57.85 L-108.7 -57.95 -108.8 -59.65 -108.7 -61.35 Q-107.45 -61.45 -105.75 -60.65 L-104.0 -59.7 Q-101.2 -57.95 -101.2 -56.85 -101.2 -56.45 -101.35 -56.3 L-101.6 -56.1 -103.7 -57.5 -105.75 -58.9 -107.45 -60.0 -107.65 -59.95 -107.7 -59.45 -107.55 -58.85 -107.2 -58.45 -107.2 -58.3 Q-106.95 -57.75 -106.95 -56.85 L-106.95 -56.5 -107.1 -56.35 -108.65 -56.55 Q-109.5 -56.6 -109.45 -55.85 L-109.7 -55.75 Q-108.3 -54.4 -108.3 -53.85 -108.3 -53.55 -109.3 -53.3 -110.55 -52.95 -111.2 -52.35 L-111.25 -52.4 -111.35 -52.0 -110.6 -51.35 Q-109.8 -50.85 -109.6 -50.35 -110.25 -49.85 -110.7 -49.85 L-111.6 -49.9 Q-111.75 -50.1 -113.6 -50.5 L-113.7 -51.25 Q-113.7 -51.65 -112.55 -52.7 -111.3 -53.85 -110.05 -54.35 L-111.5 -55.3 -112.95 -56.5 -112.6 -56.8 M-91.95 -57.1 Q-90.6 -59.35 -84.95 -59.35 -81.2 -59.4 -79.9 -58.3 -78.75 -58.45 -78.3 -58.85 -78.05 -59.1 -78.05 -59.6 -78.05 -60.0 -78.2 -60.2 L-78.55 -60.6 Q-77.75 -60.8 -77.1 -60.15 L-76.95 -60.0 -76.95 -60.1 -76.5 -59.95 -75.85 -59.85 Q-74.55 -59.85 -74.5 -62.15 L-74.7 -65.5 Q-74.35 -65.5 -72.75 -63.25 -71.1 -60.95 -69.45 -60.95 -68.6 -60.95 -67.75 -61.65 L-66.7 -62.35 -66.05 -62.25 -65.95 -59.1 -65.95 -58.9 Q-65.9 -58.75 -65.55 -58.75 -65.0 -58.75 -64.4 -59.3 L-63.45 -59.85 Q-62.55 -59.85 -62.0 -59.0 L-61.6 -57.85 -61.7 -57.45 Q-61.8 -57.25 -62.2 -57.25 -63.15 -57.25 -63.4 -57.7 L-63.45 -58.35 -64.3 -57.7 -65.2 -57.2 Q-66.45 -57.2 -66.8 -58.15 L-66.95 -59.25 -66.95 -60.75 -68.1 -60.3 -69.1 -59.85 Q-71.2 -59.85 -73.7 -63.2 -73.7 -58.95 -75.1 -58.95 L-75.35 -58.95 -75.35 -58.7 -75.8 -58.6 Q-75.9 -58.6 -76.45 -58.95 L-76.55 -59.0 -77.0 -59.15 -76.95 -59.25 -77.3 -59.5 -78.05 -58.55 -78.7 -57.95 -79.65 -58.0 Q-79.3 -57.55 -79.3 -56.95 -79.3 -56.2 -79.95 -56.2 -80.65 -56.2 -82.25 -57.65 L-84.2 -59.1 Q-87.05 -59.1 -88.7 -58.1 -90.3 -56.8 -91.45 -56.35 L-91.95 -57.1 M-97.0 -57.4 Q-96.85 -57.6 -96.45 -57.6 L-93.3 -56.9 Q-91.4 -56.2 -91.1 -55.85 L-91.1 -55.5 Q-91.1 -55.35 -91.45 -55.35 L-95.1 -56.6 -96.2 -56.6 -96.3 -55.85 Q-96.1 -55.6 -96.7 -55.6 -97.95 -55.6 -98.7 -57.45 L-99.35 -59.95 Q-98.2 -60.3 -97.7 -59.25 L-97.2 -57.2 -97.0 -57.4 M-99.75 -37.4 Q-99.75 -37.0 -100.15 -36.5 L-96.6 -37.1 Q-95.1 -37.1 -94.75 -36.75 L-94.7 -36.35 -95.3 -35.95 -94.5 -35.25 Q-93.6 -34.35 -92.35 -34.35 -90.9 -34.35 -88.9 -35.2 L-86.7 -36.1 Q-86.25 -36.1 -86.05 -35.55 L-85.95 -34.75 -85.0 -34.7 -83.7 -34.75 -83.5 -34.8 Q-83.35 -34.75 -83.35 -34.35 L-83.4 -33.9 -82.7 -33.35 Q-81.95 -33.35 -78.05 -35.35 -74.9 -36.65 -74.5 -34.95 L-73.95 -35.2 Q-73.65 -34.65 -74.05 -34.25 L-74.05 -34.1 -71.7 -34.35 Q-70.75 -34.35 -70.95 -32.9 L-71.35 -31.45 Q-71.35 -30.7 -70.1 -30.15 L-68.75 -29.3 Q-67.8 -30.05 -66.55 -30.0 -64.6 -30.0 -64.6 -27.95 L-60.7 -27.5 -59.6 -27.25 -51.3 -27.8 -45.85 -28.35 -44.95 -28.2 -44.85 -28.05 -44.8 -27.9 -42.7 -28.25 -44.2 -29.35 Q-45.4 -30.1 -45.55 -30.6 -43.5 -30.65 -40.85 -29.55 -37.35 -28.05 -36.45 -27.85 L-35.85 -27.6 Q-35.85 -27.35 -36.45 -27.35 -37.4 -27.35 -40.0 -28.5 -42.5 -29.65 -42.85 -29.6 L-42.05 -28.6 Q-41.7 -27.95 -41.7 -27.6 -41.7 -27.15 -42.9 -27.05 L-43.8 -26.95 -43.35 -26.85 -45.55 -26.4 -44.85 -26.8 -47.7 -26.35 -48.15 -26.75 -48.2 -26.85 -50.35 -26.6 -57.2 -26.0 -63.2 -26.0 Q-64.45 -26.75 -65.45 -27.0 L-65.35 -27.95 -65.35 -29.25 Q-66.55 -29.2 -67.5 -28.7 L-68.0 -28.45 -67.8 -28.1 Q-68.2 -27.75 -69.1 -27.4 -69.85 -27.1 -70.1 -27.1 -72.8 -27.1 -73.2 -29.5 L-73.1 -32.95 -73.85 -32.85 -74.95 -32.95 -75.05 -33.1 -75.2 -33.1 Q-75.8 -33.1 -76.0 -33.6 L-76.05 -34.1 Q-76.95 -34.4 -79.5 -33.25 -82.2 -31.95 -82.35 -31.95 -83.45 -31.95 -84.3 -32.75 L-84.65 -33.15 -85.7 -33.1 Q-86.8 -33.1 -87.05 -33.6 L-87.3 -34.1 Q-88.5 -34.1 -89.65 -33.5 -90.8 -32.95 -91.2 -32.95 -93.45 -32.95 -95.05 -34.35 L-96.15 -35.65 -97.2 -35.35 -99.4 -34.7 -101.25 -33.5 -102.5 -33.75 -102.55 -34.45 Q-102.05 -36.25 -101.3 -37.15 L-101.55 -37.6 -100.55 -38.55 -100.4 -38.65 Q-100.75 -39.1 -100.75 -39.65 L-100.7 -40.0 -103.75 -39.45 -106.0 -40.0 Q-107.65 -40.05 -108.9 -39.35 L-109.2 -39.95 -109.2 -41.25 -109.1 -43.15 -107.45 -45.95 Q-107.3 -46.1 -107.3 -46.35 -110.3 -46.3 -110.3 -47.2 L-110.1 -48.6 Q-109.9 -49.75 -109.6 -49.95 -109.3 -49.2 -109.3 -47.75 -106.5 -47.55 -105.6 -47.05 -104.95 -46.75 -104.95 -45.95 L-105.65 -45.3 Q-106.65 -44.5 -107.7 -42.6 L-107.7 -40.95 -106.1 -41.0 Q-106.0 -41.65 -105.7 -41.85 L-105.45 -41.05 -94.95 -41.95 -94.85 -41.95 -94.7 -42.0 -94.65 -41.9 -93.95 -41.7 -93.35 -41.35 -94.6 -41.1 -94.7 -41.0 -94.85 -41.05 -95.8 -40.9 -98.0 -39.2 -99.75 -37.65 -99.75 -37.4 M-99.85 -39.1 L-99.3 -39.5 -99.75 -39.75 -99.85 -39.1 M-99.4 -40.25 L-98.85 -39.8 -97.75 -40.55 -99.4 -40.25 M-95.9 -33.25 Q-96.8 -34.5 -97.25 -34.8 L-97.15 -35.15 Q-94.4 -33.2 -94.3 -32.15 L-94.75 -29.4 Q-94.75 -26.7 -91.75 -23.85 L-88.75 -21.0 Q-88.75 -20.65 -88.9 -20.4 L-89.0 -20.05 Q-88.7 -20.55 -88.0 -20.65 -87.8 -17.05 -87.4 -14.55 L-87.3 -15.25 -86.15 -15.0 -86.4 -13.75 Q-85.6 -13.9 -84.75 -14.6 L-83.5 -15.5 Q-82.9 -15.5 -82.7 -15.0 L-82.65 -14.45 Q-82.65 -13.35 -82.9 -13.15 L-84.15 -13.05 -85.3 -12.65 -86.45 -12.25 -86.45 -11.9 Q-86.35 -10.0 -86.7 -8.95 L-86.5 -5.7 Q-86.5 -5.3 -87.5 -3.8 -88.5 -2.35 -88.5 -0.65 -88.5 1.1 -87.05 1.75 -85.4 2.45 -84.65 5.15 -82.6 5.6 -82.05 7.4 -81.9 7.9 -81.9 11.15 -81.85 15.05 -78.95 16.85 L-76.1 17.9 -76.1 18.1 -75.1 18.25 Q-74.7 18.25 -73.9 17.35 -73.2 16.55 -72.4 17.0 L-72.35 17.75 Q-72.35 18.05 -72.95 18.6 -73.7 19.25 -74.5 19.25 L-76.35 18.5 -76.6 18.55 -76.05 21.4 Q-75.6 23.45 -75.6 24.7 -75.6 26.1 -76.1 27.6 L-76.6 29.25 -76.1 29.6 Q-75.85 29.8 -76.5 30.45 L-76.5 30.65 Q-76.9 31.05 -78.75 31.35 L-76.55 36.7 -75.0 40.5 -74.1 41.45 Q-73.95 41.8 -73.9 43.15 -73.9 45.7 -69.6 47.65 -67.35 48.7 -64.7 51.75 -62.1 54.75 -62.1 56.2 -62.1 56.95 -61.15 58.9 -61.15 59.55 -61.25 59.25 L-64.1 53.8 Q-65.75 50.65 -69.4 49.4 -75.55 47.3 -75.7 45.05 L-75.5 42.8 Q-75.45 42.2 -75.55 41.6 L-75.75 41.6 Q-76.2 41.6 -78.35 36.85 -80.5 32.2 -80.5 31.5 -80.5 30.55 -78.95 30.3 L-77.2 30.25 -77.75 29.3 Q-76.35 26.4 -76.35 24.6 -76.35 23.4 -76.8 21.5 L-77.25 19.35 -77.2 18.6 Q-78.5 18.4 -80.45 16.25 -82.6 13.95 -82.6 12.75 L-82.65 8.9 Q-83.0 7.65 -85.15 5.6 L-85.5 5.6 Q-87.5 5.6 -90.0 -0.45 -89.3 -7.7 -88.6 -9.5 L-88.75 -9.4 -88.6 -10.0 -87.8 -12.8 Q-88.35 -13.35 -88.65 -14.4 L-89.05 -16.65 -89.4 -18.5 -89.1 -19.9 -89.5 -19.9 Q-92.3 -19.9 -94.25 -24.55 -95.25 -26.9 -95.65 -29.3 L-95.3 -30.55 Q-95.0 -31.3 -95.0 -31.75 L-95.9 -33.25 M-100.75 -35.65 L-100.8 -35.85 -101.0 -35.75 -101.0 -35.55 -100.75 -35.65 M-81.5 -14.4 Q-80.2 -15.25 -79.55 -14.0 -79.0 -12.45 -78.65 -12.25 L-79.05 -11.85 Q-79.45 -11.5 -80.0 -11.5 -80.65 -11.5 -80.9 -12.2 L-81.5 -13.9 -81.5 -14.4 M-87.35 -8.8 L-87.3 -9.05 -87.45 -9.15 -87.35 -8.8 M-47.65 -25.35 L-49.2 -24.1 -49.35 -24.0 -48.2 -24.3 -47.35 -24.5 Q-46.1 -24.5 -45.75 -23.15 L-45.7 -21.7 -46.1 -20.45 Q-46.55 -19.45 -46.95 -19.1 L-46.95 -18.8 -46.7 -18.5 -44.9 -19.1 -43.1 -19.6 Q-40.35 -15.7 -40.35 -15.35 -40.35 -14.75 -40.45 -15.0 L-40.55 -14.8 -40.95 -14.75 Q-42.4 -14.75 -43.0 -16.1 -43.45 -17.15 -43.2 -18.0 L-43.2 -18.1 Q-45.6 -16.85 -46.6 -16.85 L-47.45 -16.95 Q-47.35 -10.75 -45.3 -3.15 -43.0 5.4 -39.75 6.8 -39.2 6.15 -38.4 6.1 -39.7 4.95 -39.7 3.65 L-39.45 0.9 -39.2 0.9 -38.65 1.05 Q-38.95 1.05 -38.95 1.4 -38.95 4.55 -37.25 6.25 -35.45 6.9 -35.45 8.05 L-35.25 8.95 -35.05 9.8 Q-35.05 10.55 -34.15 10.85 L-31.75 11.75 Q-29.25 10.75 -27.45 12.6 -26.35 13.7 -25.95 15.15 L-22.1 14.7 -19.6 13.55 -19.35 13.9 -21.55 15.75 Q-23.15 17.0 -25.2 17.0 -25.75 17.0 -26.3 16.6 L-29.7 16.65 -29.85 17.7 Q-29.85 19.25 -29.05 19.95 L-27.3 20.85 -27.3 20.7 Q-27.3 19.95 -26.7 19.8 L-24.9 21.5 -23.85 21.65 -23.75 21.85 -23.7 22.3 -23.75 22.9 -23.6 23.15 Q-23.35 23.4 -23.95 23.4 L-24.8 23.35 -24.65 23.8 Q-24.2 25.3 -24.2 26.9 L-24.2 27.65 -24.95 27.9 Q-26.05 27.9 -26.55 25.6 -26.85 23.5 -27.1 22.8 -28.5 22.3 -29.65 21.25 -31.2 19.8 -31.2 18.9 -31.2 16.8 -30.55 16.1 -29.65 15.1 -27.7 15.15 L-28.2 14.35 Q-29.65 12.05 -32.6 13.15 L-32.65 12.6 Q-35.6 12.35 -36.85 10.25 L-37.6 7.8 -38.4 7.75 -38.8 7.85 -38.85 7.85 -38.85 7.9 -39.75 8.05 -39.8 7.9 Q-44.25 7.4 -46.35 0.15 L-47.6 -7.8 -48.05 -11.3 -48.55 -15.35 -48.45 -17.5 -48.4 -17.7 -48.45 -17.85 -48.45 -18.9 Q-48.45 -19.9 -47.2 -22.85 L-47.8 -22.85 -48.6 -22.75 -50.2 -22.95 -50.3 -23.45 Q-50.3 -24.4 -48.85 -24.9 L-47.65 -25.35 M-64.7 -41.85 L-63.95 -41.45 -64.35 -40.2 -63.95 -39.95 -63.95 -41.2 Q-63.8 -41.2 -63.45 -41.45 -63.05 -41.05 -63.05 -40.1 L-63.1 -39.1 -63.85 -38.95 Q-65.0 -38.95 -65.2 -39.8 L-65.2 -40.7 Q-65.2 -41.65 -64.7 -41.85 M-62.25 -17.6 L-61.8 -17.6 Q-61.65 -15.75 -59.3 -9.35 L-60.95 -11.55 Q-62.3 -13.55 -62.3 -14.25 L-62.25 -17.6 M-77.0 -15.25 Q-76.6 -14.95 -76.5 -14.45 L-76.5 -13.6 -76.5 -12.05 -76.95 -11.75 -76.75 -10.3 -77.0 -10.0 Q-77.7 -10.25 -77.85 -11.1 L-77.9 -12.4 Q-77.9 -14.05 -77.5 -14.4 L-77.4 -14.3 -77.0 -15.25 M-74.25 -13.25 L-74.65 -13.25 -75.0 -15.0 Q-75.0 -15.85 -74.5 -16.25 L-74.1 -15.45 -74.0 -15.0 -74.25 -13.25 M-50.5 -19.75 Q-50.5 -16.45 -51.25 -14.85 L-51.75 -14.75 Q-52.5 -16.8 -52.5 -19.8 -52.5 -22.25 -51.5 -23.0 -50.75 -22.4 -50.55 -21.45 L-50.5 -19.75 M-53.35 -22.65 L-53.25 -21.4 Q-53.25 -20.1 -53.75 -18.6 L-54.5 -18.6 -54.75 -21.6 Q-54.75 -23.3 -53.75 -23.5 L-53.35 -22.65 M-57.35 -23.5 L-57.25 -22.25 -57.35 -20.7 -57.5 -19.25 -57.6 -19.0 -58.0 -18.6 Q-58.75 -20.1 -58.75 -22.25 L-58.7 -23.1 Q-58.55 -23.8 -57.75 -24.1 L-57.35 -23.5 M-10.2 -32.35 L-9.05 -33.7 Q-7.6 -34.95 -6.2 -34.95 L-6.05 -33.35 Q-6.05 -32.8 -7.2 -31.6 -8.35 -30.35 -9.4 -30.2 L-9.35 -29.45 -9.4 -28.8 -8.65 -29.5 -5.95 -30.0 -6.65 -30.25 -7.45 -30.25 -7.6 -30.95 -4.8 -30.5 Q-3.7 -30.3 -3.7 -29.45 -3.7 -29.1 -4.45 -29.1 L-8.95 -28.45 -9.4 -28.7 -9.8 -27.35 Q-10.25 -25.85 -10.7 -25.85 L-12.7 -26.0 Q-12.65 -28.65 -11.5 -29.9 L-11.95 -29.85 -13.35 -29.7 Q-14.95 -29.7 -15.85 -30.4 -16.45 -30.85 -16.45 -31.15 -16.45 -34.15 -14.0 -33.9 -11.6 -33.65 -11.6 -30.45 L-11.35 -30.15 -11.3 -30.15 -11.0 -30.4 -10.5 -30.7 -10.15 -31.55 -10.2 -32.35 M-15.2 -31.05 L-14.7 -30.6 -11.95 -30.6 Q-13.05 -32.45 -14.3 -32.85 -15.6 -33.25 -15.6 -31.55 L-15.2 -31.05 M-11.35 -28.15 L-11.8 -27.1 -11.8 -26.95 Q-11.2 -27.25 -10.75 -28.05 -10.3 -28.85 -10.55 -29.25 L-11.35 -28.15 M-9.85 -31.2 Q-8.5 -31.5 -7.55 -32.5 -6.65 -33.5 -6.85 -34.2 -8.5 -34.15 -9.15 -33.1 L-9.85 -31.35 -9.85 -31.2 M-35.85 -30.55 L-35.8 -31.35 Q-34.3 -31.4 -32.85 -30.2 L-30.2 -27.95 -30.2 -27.6 -30.95 -27.45 Q-31.95 -27.45 -33.25 -28.85 L-34.85 -30.75 -35.1 -30.7 -34.8 -29.1 -34.8 -27.5 -35.1 -27.45 -35.7 -29.3 -35.85 -30.55 M-18.55 23.8 L-18.45 23.4 -16.7 23.4 -16.55 23.45 -16.45 23.9 Q-16.45 24.5 -16.6 24.25 L-16.7 24.4 -18.35 24.4 Q-18.55 24.45 -18.55 23.8 M-22.7 21.95 Q-22.7 19.45 -21.5 21.05 L-19.3 24.55 -19.7 24.8 Q-21.4 24.25 -22.1 23.55 -22.7 22.95 -22.7 21.95 M-24.95 28.25 Q-24.4 29.45 -20.5 32.2 -16.2 35.15 -15.3 36.3 L-15.3 39.5 -15.7 39.8 Q-16.8 36.8 -21.35 33.8 -25.3 31.15 -25.3 28.9 L-25.2 28.25 -24.95 28.25 M-12.85 42.05 Q-10.35 40.4 -8.95 41.0 L-8.8 41.15 -8.7 41.65 Q-8.7 42.4 -9.7 42.35 L-12.2 42.55 -12.85 42.05 M-15.3 46.55 Q-15.3 46.3 -12.6 45.0 -9.65 43.55 -7.95 43.75 L-7.8 43.9 -7.7 44.4 Q-7.7 44.8 -10.15 46.15 -12.6 47.5 -13.2 47.5 -13.9 47.5 -15.2 46.9 L-15.3 46.55 M-42.45 3.05 Q-42.35 2.3 -41.85 2.05 L-40.85 4.05 -39.55 6.4 Q-40.35 6.45 -41.45 5.4 -42.45 4.4 -42.45 3.8 L-42.45 3.05 M-72.25 17.1 L-73.0 16.15 Q-72.3 16.05 -71.4 16.6 L-70.6 17.3 -70.75 18.0 Q-71.8 17.85 -72.25 17.1 M-72.5 15.25 Q-72.4 15.05 -71.75 14.85 -70.2 15.45 -68.85 16.4 L-69.0 16.5 -72.5 15.25 M-67.8 23.8 L-67.15 22.7 Q-66.5 22.0 -65.95 21.9 L-65.6 21.95 Q-65.45 22.0 -65.45 22.4 L-65.95 23.15 -66.35 24.15 -67.2 24.65 Q-67.8 24.5 -67.8 23.8" fill="#5b5546" fill-rule="evenodd" stroke="none"/>
  </g>
</svg>
