<?xml version="1.0" encoding="UTF-8" standalone="no"?>
<svg xmlns:xlink="http://www.w3.org/1999/xlink" height="292.0px" width="625.95px" xmlns="http://www.w3.org/2000/svg">
  <g transform="matrix(1.0, 0.0, 0.0, 1.0, 441.95, 220.0)">
    <path d="M-141.3 -47.05 L-120.4 -54.0 -35.0 -54.0 -77.0 72.0 -441.95 72.0 -441.95 -54.0 -143.7 -54.0 -141.3 -47.05" fill="#006600" fill-opacity="0.5529412" fill-rule="evenodd" stroke="none"/>
    <path d="M-175.0 -220.0 L-175.0 -82.0 -288.0 -82.0 -288.0 -108.0 -268.0 -108.0 -268.0 -136.0 -248.0 -136.0 -248.0 -164.0 -228.0 -164.0 -228.0 -192.0 -208.0 -192.0 -208.0 -220.0 -175.0 -220.0" fill="#006600" fill-opacity="0.5529412" fill-rule="evenodd" stroke="none"/>
    <path d="M123.45 -15.2 L79.35 -21.05 80.0 -162.0 184.0 -162.0 184.0 72.0 119.0 72.0 123.45 -15.2" fill="#006600" fill-opacity="0.5529412" fill-rule="evenodd" stroke="none"/>
  </g>
</svg>
