<?xml version="1.0" encoding="UTF-8" standalone="no"?>
<svg xmlns:xlink="http://www.w3.org/1999/xlink" height="17.55px" width="128.4px" xmlns="http://www.w3.org/2000/svg">
  <g transform="matrix(1.0, 0.0, 0.0, 1.0, 62.85, 6.65)">
    <path d="M61.3 -5.8 Q63.3 -5.4 63.3 -3.55 62.5 1.55 62.5 2.75 62.5 6.25 60.3 7.8 57.5 9.8 50.0 9.8 45.3 9.8 45.1 8.45 L44.95 7.5 Q44.65 7.05 43.25 7.05 L32.0 8.0 22.6 7.3 22.55 6.8 21.25 6.55 4.3 8.55 -2.35 9.45 -8.75 10.0 Q-13.65 10.0 -14.35 8.65 -14.75 7.95 -14.35 6.75 L-16.0 6.55 -25.75 6.55 -25.75 8.5 Q-26.1 10.25 -28.0 10.25 L-33.0 8.0 Q-37.95 5.65 -40.25 5.55 -56.6 4.75 -60.4 3.35 -61.9 2.8 -62.1 2.0 L-62.0 0.55 Q-62.0 -1.75 -61.0 -1.75 -59.35 -1.25 -58.1 -1.25 L-53.55 -1.8 -49.0 -2.35 Q-48.9 -1.9 -44.1 -1.4 -34.5 -0.5 0.25 -0.5 11.35 -0.5 29.85 0.2 44.4 0.15 52.5 -3.6 58.5 -6.4 61.3 -5.8" fill="#ffffff" fill-rule="evenodd" stroke="none"/>
    <path d="M53.3 -2.25 L59.35 -2.05 Q61.25 -1.3 61.25 1.35 61.25 3.8 43.3 5.1 27.1 6.25 0.5 6.25 -61.5 6.25 -61.5 1.9 -61.5 0.15 -61.1 -0.25 -59.85 -1.6 -54.75 -1.6 L-41.85 -0.5 -36.95 -1.15 -22.5 -1.85 -6.35 -1.1 Q21.5 -0.65 27.05 -0.25 L42.7 -1.05 53.3 -2.25" fill="#cc6666" fill-opacity="0.3019608" fill-rule="evenodd" stroke="none"/>
    <path d="M59.15 -1.45 Q59.4 -2.1 60.0 -2.1 61.65 -2.1 62.25 2.35 62.25 3.0 58.0 9.3 L56.95 9.15 56.25 8.75 56.05 5.05 Q47.25 7.75 28.25 7.75 L9.8 8.9 -7.5 10.65 Q-25.85 12.05 -28.85 5.75 -29.2 5.0 -29.0 3.5 -40.8 3.4 -41.05 4.45 L-40.75 5.2 Q-40.8 5.55 -42.75 5.55 -52.75 5.55 -55.75 3.55 -57.25 2.55 -56.75 1.5 L-57.05 0.0 Q-57.2 -0.65 -56.7 -0.9 L-47.1 -1.45 Q-5.55 -0.85 58.25 -0.85 58.9 -0.85 59.15 -1.45" fill="#cc6666" fill-opacity="0.3019608" fill-rule="evenodd" stroke="none"/>
    <path d="M52.75 -2.5 Q65.55 -4.35 65.55 1.0 65.55 3.1 65.05 3.8 64.05 5.15 60.25 6.0 51.1 8.0 18.25 8.0 L-1.35 8.35 Q-16.2 8.35 -28.25 6.3 L-40.65 4.55 Q-43.35 4.15 -43.35 3.1 -43.85 2.6 -43.6 2.35 -43.2 1.85 -39.5 1.55 -29.0 0.7 11.5 1.0 L27.85 0.8 40.55 -0.45 52.75 -2.5" fill="#cc6666" fill-opacity="0.3019608" fill-rule="evenodd" stroke="none"/>
    <path d="M45.8 -0.85 L45.7 -1.1 Q45.55 -1.25 45.55 -2.0 L45.6 -2.75 45.8 -3.1 Q48.6 -3.65 54.25 -5.65 59.2 -7.15 61.8 -6.35 62.05 -6.85 62.05 -5.6 52.1 -0.6 47.5 -0.6 L45.8 -0.85" fill="#ffcc33" fill-opacity="0.3019608" fill-rule="evenodd" stroke="none"/>
    <path d="M57.75 -0.5 Q52.35 0.8 49.25 0.8 47.0 0.8 46.3 -0.3 46.05 -0.75 46.05 -1.6 63.55 -10.75 63.55 -3.0 63.55 -1.85 57.75 -0.5" fill="#ffcc33" fill-opacity="0.3019608" fill-rule="evenodd" stroke="none"/>
    <path d="M55.8 -0.1 Q47.8 2.3 45.5 2.3 43.35 2.3 42.75 1.2 L42.55 0.0 Q42.55 -0.7 45.95 -2.35 49.4 -4.05 53.45 -5.2 64.3 -8.4 64.3 -4.05 64.3 -2.7 55.8 -0.1" fill="#ffcc33" fill-opacity="0.3019608" fill-rule="evenodd" stroke="none"/>
    <path d="M36.25 -1.9 L43.9 -1.6 44.1 -2.75 44.1 -2.15 44.35 -2.45 Q44.9 -3.05 46.0 -3.25 L47.95 -3.05 Q48.25 -4.15 50.1 -4.35 L51.9 -4.1 Q52.3 -4.8 53.9 -4.95 L55.4 -4.95 55.6 -5.4 56.05 -5.6 Q57.2 -6.65 58.8 -6.25 L59.05 -6.15 60.85 -6.55 Q62.1 -6.5 62.65 -5.85 L62.8 -5.6 63.05 -4.45 Q63.05 -3.6 62.3 -3.35 L62.15 -3.25 62.1 -3.2 61.85 0.05 61.9 0.9 61.8 1.55 61.75 2.7 61.75 4.85 61.8 5.35 61.8 6.25 61.5 6.5 60.85 7.35 45.0 6.6 Q31.2 7.35 16.75 6.5 L16.95 6.95 16.75 7.2 Q16.5 6.95 16.75 6.5 -20.5 7.4 -57.4 6.6 L-62.0 6.5 -62.0 6.1 -62.15 6.15 -62.25 6.15 -62.65 5.9 -62.65 5.5 -62.7 5.3 -62.45 1.5 -62.2 -0.9 -62.2 -0.95 -62.85 -1.1 -62.6 -1.6 -62.45 -1.7 -62.15 -1.7 -62.1 -2.0 -61.4 -2.0 -57.4 -1.95 15.85 -1.9 36.25 -1.9 M45.0 -0.9 L45.25 -0.75 47.3 -0.35 53.1 -1.85 61.5 -4.1 61.25 -3.85 61.6 -4.1 62.0 -4.4 62.2 -4.95 61.7 -5.4 61.55 -5.5 61.15 -5.85 59.8 -5.65 59.5 -5.45 59.5 -5.4 59.55 -5.15 Q59.55 -4.65 59.2 -4.65 L59.05 -4.65 58.85 -4.6 58.4 -4.9 58.2 -4.9 Q58.1 -4.9 57.9 -5.05 L57.25 -5.2 Q56.2 -5.2 55.95 -4.65 L55.95 -4.6 56.05 -4.25 Q56.05 -3.95 55.8 -3.95 L55.75 -3.95 55.65 -3.85 55.6 -3.9 55.5 -3.65 55.25 -3.55 54.85 -3.8 53.9 -4.1 52.65 -3.65 52.3 -3.2 Q52.3 -2.8 51.95 -2.8 L51.9 -2.85 51.35 -2.35 51.3 -2.35 51.15 -2.3 Q50.8 -2.3 50.55 -2.75 L50.3 -3.25 Q49.15 -3.25 48.6 -2.7 L48.3 -2.25 48.2 -1.8 48.1 -1.7 47.8 -2.0 47.75 -2.0 47.7 -1.8 47.4 -1.7 46.25 -2.1 Q45.3 -2.1 44.9 -1.65 L45.1 -1.45 45.0 -0.9 M43.95 -0.55 L-38.75 -0.75 -56.3 -0.6 -56.3 -0.55 -60.95 -0.1 -61.7 5.3 -61.7 5.45 -61.2 5.4 -57.4 5.35 -56.3 5.35 -36.65 5.3 -36.7 4.55 -36.5 3.7 Q-36.25 4.0 -36.25 4.5 L-36.2 5.3 -19.15 5.25 15.75 5.25 15.65 5.05 15.3 3.65 15.3 2.7 15.65 2.7 16.0 4.55 16.25 5.25 36.8 5.25 36.6 3.7 Q36.6 3.2 36.85 2.95 L37.05 4.0 36.9 5.25 38.05 5.25 38.0 4.45 Q38.0 4.1 38.25 3.85 L38.5 4.45 38.45 5.25 45.0 5.25 60.2 5.4 60.35 4.1 60.55 0.6 60.45 -2.5 60.45 -2.55 59.8 -2.35 59.25 -2.35 59.2 -2.55 60.2 -2.85 60.3 -2.95 55.8 -1.8 54.6 -1.5 59.85 -2.3 Q59.85 -1.75 51.0 0.1 L50.4 -0.1 Q51.55 -0.7 53.25 -1.15 L48.25 0.15 47.8 0.15 Q47.5 0.55 46.3 0.55 45.15 0.55 44.65 -0.05 L44.45 -0.35 Q44.1 -0.35 43.95 -0.55 M59.6 2.35 L60.15 2.95 59.4 2.4 58.55 1.8 58.6 1.8 Q59.2 1.9 59.6 2.35 M58.8 2.6 L60.3 4.4 59.25 3.65 58.6 2.6 58.8 2.6 M58.1 2.45 L59.55 4.95 Q59.15 4.9 58.45 3.95 L57.8 2.95 Q57.8 2.65 58.1 2.45 M50.75 4.8 L50.6 4.95 49.85 3.45 50.4 3.05 Q50.8 3.5 50.8 4.6 L50.75 4.8 M-33.8 4.1 L-33.95 5.25 -34.05 5.25 -34.1 4.3 Q-34.15 3.75 -34.5 3.7 L-33.95 3.3 Q-33.8 3.55 -33.8 4.1" fill="#5a493f" fill-rule="evenodd" stroke="none"/>
  </g>
</svg>
