<?xml version="1.0" encoding="UTF-8" standalone="no"?>
<svg xmlns:xlink="http://www.w3.org/1999/xlink" height="113.85px" width="80.65px" xmlns="http://www.w3.org/2000/svg">
  <g transform="matrix(1.0, 0.0, 0.0, 1.0, 47.5, 55.65)">
    <path d="M25.9 -48.45 Q26.35 -47.95 26.7 -47.8 19.95 -38.9 19.95 -28.0 L20.2 -18.1 Q20.25 -11.75 19.1 -6.15 24.45 -4.75 31.75 -1.95 L32.3 -1.1 26.05 3.4 Q20.8 7.4 20.8 9.0 20.8 11.8 18.7 13.2 16.55 14.6 16.55 17.4 16.55 20.25 18.55 27.85 20.5 35.45 20.5 38.25 L29.8 51.75 Q26.1 58.2 14.3 58.2 -6.7 58.2 -17.3 53.8 -26.45 50.0 -29.0 42.2 -30.8 36.6 -29.55 25.8 -27.8 10.4 -27.8 7.0 -27.8 3.65 -47.5 -20.8 -42.7 -24.15 -38.35 -24.9 -35.95 -25.3 -31.6 -24.95 L-25.4 -25.3 Q-21.85 -26.4 -18.0 -30.35 -18.8 -31.6 -20.4 -36.6 -21.7 -40.85 -23.6 -42.45 -23.6 -43.0 -21.6 -43.15 -19.65 -43.85 -19.65 -47.25 -19.65 -49.45 -13.9 -51.45 -8.35 -53.4 -3.05 -53.4 L10.3 -52.0 Q19.55 -50.55 25.55 -48.9 L25.9 -48.45" fill="#ffffff" fill-rule="evenodd" stroke="none"/>
    <path d="M33.15 -26.4 Q33.15 -25.15 31.2 -23.85 25.75 -20.3 21.65 -17.15 26.4 -5.0 30.25 23.75 32.2 38.15 33.15 50.3 33.15 54.75 28.7 56.2 26.15 57.05 20.25 57.05 L14.5 57.3 5.5 57.05 Q-6.65 55.75 -8.4 49.2 -11.15 49.75 -12.5 50.95 L-14.15 53.2 Q-16.0 55.95 -22.5 55.95 L-26.6 55.75 -28.65 55.4 -29.2 56.45 Q-29.8 57.15 -29.8 53.7 -29.8 50.85 -27.1 44.85 -24.45 38.8 -24.45 36.0 -24.45 31.9 -25.05 30.75 -25.6 29.75 -27.6 29.75 L-33.1 29.8 Q-37.65 29.45 -42.75 27.55 L-43.0 28.95 Q-43.3 29.65 -43.3 26.15 -43.3 22.3 -39.95 10.2 -36.15 -3.65 -30.9 -16.35 -16.15 -52.3 -1.65 -52.3 13.6 -52.3 23.95 -43.35 33.15 -35.45 33.15 -26.4" fill="#666666" fill-opacity="0.3019608" fill-rule="evenodd" stroke="none"/>
    <path d="M11.95 -38.05 L17.4 -36.0 17.7 -37.55 Q18.0 -38.4 18.0 -34.85 18.0 -26.45 16.75 -12.45 15.45 1.5 15.45 22.75 13.4 26.8 11.4 31.6 7.3 41.25 7.3 46.1 7.3 49.3 -0.05 51.5 -5.5 53.15 -8.7 53.15 -16.2 53.15 -18.55 50.35 -19.95 48.7 -19.95 44.4 -19.95 42.55 -18.1 33.8 -16.3 25.1 -16.3 22.75 -16.3 18.4 -15.25 10.75 L-13.25 -2.85 Q-10.95 -19.8 -13.75 -26.4 -13.35 -27.25 -9.95 -28.9 -6.65 -30.55 -4.2 -31.2 L-5.35 -33.75 Q-6.15 -35.35 -5.95 -36.3 -5.25 -39.05 4.75 -39.05 8.45 -39.05 11.95 -38.05" fill="#666666" fill-opacity="0.3019608" fill-rule="evenodd" stroke="none"/>
    <path d="M17.9 -53.0 Q20.6 -50.0 15.45 -43.85 16.35 -42.95 21.2 -41.05 24.25 -39.9 23.6 -36.8 26.1 -36.6 28.7 -35.65 31.15 -34.75 32.9 -33.45 26.7 -14.6 27.75 -8.5 L29.3 -2.7 Q30.35 1.55 30.35 7.55 L30.65 15.5 Q30.75 20.75 29.9 24.15 27.45 34.0 15.75 34.0 2.15 34.0 2.6 25.35 2.75 23.1 4.35 16.9 5.9 11.05 5.9 7.85 5.9 1.85 -3.75 -2.05 L-12.0 -5.2 Q-16.7 -7.15 -19.1 -9.25 -18.7 -10.4 -15.45 -12.9 L-15.4 -13.75 -15.15 -15.45 Q-20.35 -16.3 -22.35 -20.0 -23.85 -22.85 -23.7 -28.2 L-23.1 -37.6 Q-22.95 -43.0 -24.45 -45.8 -21.5 -49.4 -11.4 -52.5 -1.35 -55.65 7.3 -55.65 15.5 -55.65 17.9 -53.0" fill="#666666" fill-opacity="0.3019608" fill-rule="evenodd" stroke="none"/>
    <path d="M8.25 -52.4 L0.95 -52.45 -4.55 -52.9 -10.9 -52.15 Q-23.05 -50.25 -23.05 -44.65 L-23.25 -43.0 -22.65 -42.95 Q-22.2 -38.65 -22.0 -31.95 -21.85 -27.35 -22.05 0.95 -22.3 38.05 -22.8 52.1 L-19.6 51.95 Q-10.65 51.95 -5.2 52.35 L-5.05 52.65 -5.55 52.7 21.15 52.4 22.9 52.45 22.85 52.35 Q22.25 50.25 22.1 40.95 L23.0 -43.1 23.55 -42.85 23.2 -44.1 23.2 -44.2 Q22.7 -44.6 22.8 -44.95 L22.9 -45.3 21.9 -48.35 21.65 -48.35 Q19.9 -49.3 17.35 -50.3 12.3 -52.25 8.25 -52.4 M20.2 -50.15 Q17.2 -52.1 10.9 -52.8 L7.65 -53.1 12.05 -52.3 Q17.45 -51.25 20.2 -50.15 M27.0 -40.9 L27.6 10.65 Q27.05 49.1 26.65 52.75 L28.2 53.0 28.35 53.25 26.3 53.4 26.1 53.5 24.75 53.6 5.1 53.9 Q-14.2 54.2 -27.35 53.3 L-27.75 53.25 -27.35 53.25 -27.75 42.2 Q-28.15 28.6 -28.0 10.9 -24.5 -21.0 -27.65 -44.25 L-27.25 -44.45 -26.8 -44.25 -26.8 -44.4 Q-27.05 -47.05 -25.5 -48.5 -23.6 -50.35 -18.9 -51.8 L-12.15 -53.05 -4.65 -53.7 -4.1 -53.65 -2.85 -54.0 13.0 -53.15 Q27.0 -51.35 27.0 -46.5 27.9 -45.05 27.9 -43.3 27.9 -41.4 27.0 -40.9 M3.75 -46.65 Q3.1 -45.15 0.55 -44.95 L-2.85 -44.75 0.65 -44.7 3.45 -44.7 Q5.75 -44.95 5.75 -46.15 5.75 -47.85 3.45 -47.9 L-0.1 -47.9 -0.1 -47.85 1.8 -47.6 Q3.1 -47.25 3.75 -46.65 M0.6 -43.7 L-5.35 -44.0 Q-8.25 -44.65 -8.25 -47.1 -8.25 -48.25 -3.4 -48.75 L1.85 -49.05 Q9.45 -49.05 9.45 -46.2 9.45 -44.25 5.1 -43.8 L0.6 -43.7 M9.55 -29.25 Q10.0 -28.55 10.2 -25.35 10.55 -19.5 10.55 12.35 10.55 44.8 9.9 48.85 9.7 49.9 9.15 50.05 8.55 50.15 8.2 52.3 6.85 49.0 6.4 32.45 9.75 -17.15 8.2 -23.45 6.65 -29.75 7.15 -30.0 L8.4 -29.65 Q9.4 -29.45 9.55 -29.25 M-3.95 -46.55 L-5.1 -46.2 -4.95 -46.2 Q-3.85 -45.45 -1.95 -45.45 L0.9 -45.75 Q-0.05 -46.95 -2.55 -46.95 L-3.95 -46.55 M-7.3 -3.55 Q-8.3 50.3 -8.9 51.8 L-9.5 51.6 -10.0 50.3 -10.4 28.75 Q-10.75 7.7 -10.95 7.7 -10.95 -14.8 -10.3 -22.35 -9.45 -28.3 -8.9 -28.4 -8.6 -28.2 -7.3 -3.55 M-22.85 53.1 L-21.15 53.05 -22.85 52.95 -22.85 53.1" fill="#5a493f" fill-rule="evenodd" stroke="none"/>
  </g>
</svg>
