<?xml version="1.0" encoding="UTF-8" standalone="no"?>
<svg xmlns:xlink="http://www.w3.org/1999/xlink" height="28.1px" width="31.9px" xmlns="http://www.w3.org/2000/svg">
  <g transform="matrix(1.0, 0.0, 0.0, 1.0, 15.05, 14.0)">
    <path d="M10.25 -8.3 L11.25 -4.6 12.0 -1.0 14.0 2.1 Q16.0 4.9 16.0 6.0 L13.5 12.25 Q11.45 12.25 11.4 10.65 L11.75 7.85 Q10.15 8.0 9.8 7.35 9.55 6.4 9.1 5.75 L8.9 5.85 9.2 6.3 9.35 6.95 Q9.35 8.5 3.55 10.1 -1.55 11.5 -4.25 11.5 -4.65 11.5 -7.45 12.45 L-10.6 13.35 Q-12.1 13.35 -12.45 12.4 L-12.55 11.45 -12.3 10.35 Q-11.85 9.75 -10.05 9.1 L-9.75 8.9 Q-11.65 7.85 -13.55 7.15 -14.55 6.65 -14.55 5.25 -14.55 4.65 -13.2 3.75 -11.85 2.95 -12.0 1.65 -12.25 -0.25 -9.5 -1.4 -10.5 -2.1 -10.65 -2.45 L-10.75 -3.5 Q-10.75 -10.85 -0.6 -11.95 3.35 -12.4 6.55 -11.35 9.9 -10.3 10.25 -8.3" fill="#ffffff" fill-rule="evenodd" stroke="none"/>
    <path d="M8.75 -10.35 Q9.6 -10.0 9.6 -9.25 9.6 -8.75 9.2 -8.3 L8.5 -7.25 Q10.45 -5.8 9.5 -4.75 L10.0 -4.8 Q11.35 -4.8 11.35 -3.5 L10.9 -2.9 Q10.35 -2.45 10.15 -1.9 L10.65 -1.25 10.85 -0.65 Q10.85 0.15 8.9 0.85 L8.75 1.0 Q11.6 0.55 11.6 2.15 11.6 3.5 9.4 4.0 L9.35 4.1 10.75 3.85 Q11.7 3.85 13.0 4.85 14.65 6.05 13.9 7.5 15.75 7.85 16.35 8.25 16.85 8.55 16.85 9.15 16.85 10.55 15.0 10.6 10.5 10.35 5.25 10.35 4.55 10.35 2.7 11.25 0.8 12.1 -0.1 12.1 -1.1 12.1 -1.55 11.7 L-2.05 11.25 -8.85 14.1 Q-10.0 14.1 -10.3 13.6 L-10.65 13.1 -11.9 13.5 -13.25 13.85 Q-14.55 13.85 -14.9 13.2 L-15.05 12.5 Q-15.05 11.6 -13.25 10.85 -11.5 10.1 -11.5 9.75 L-11.55 8.75 -11.65 8.6 -13.5 9.1 Q-14.55 9.1 -14.9 8.45 L-15.05 7.75 Q-15.05 6.7 -13.7 6.2 -11.75 5.5 -10.75 4.35 L-12.8 3.25 -13.05 2.2 Q-13.05 1.3 -12.45 0.6 L-10.0 -1.5 Q-10.9 -1.8 -11.15 -2.7 L-11.25 -3.9 Q-11.25 -5.15 -8.75 -8.75 -5.7 -13.25 -2.5 -13.25 -1.45 -13.25 -0.95 -12.85 L-0.5 -12.5 Q0.35 -12.5 3.5 -13.85 6.05 -14.55 5.35 -11.5 L8.75 -10.35 M-8.5 -4.0 Q-8.05 -4.55 -8.1 -4.95 L-8.25 -5.5 -8.75 -4.25 -8.5 -4.0" fill="#ffcc33" fill-opacity="0.3019608" fill-rule="evenodd" stroke="none"/>
    <path d="M9.75 -7.15 Q11.65 -6.5 11.4 -5.85 10.75 -5.1 10.75 -4.55 L11.0 -2.75 13.15 0.65 Q15.25 4.2 15.25 5.75 15.25 8.0 13.75 8.0 L12.8 7.75 11.85 7.5 Q10.5 7.5 9.75 7.85 L7.85 8.15 6.65 7.9 5.4 7.65 Q5.0 7.65 3.45 8.3 L1.0 8.9 Q-2.2 8.9 -0.55 6.15 L-0.55 6.0 -3.25 7.6 Q-5.45 8.75 -6.5 8.75 -8.0 8.75 -8.0 7.1 L-8.05 7.0 Q-10.1 7.9 -10.6 7.9 -11.95 7.9 -12.3 7.1 L-12.4 6.2 -12.2 5.25 -11.25 4.1 Q-12.55 3.95 -12.55 2.75 -12.55 1.75 -10.75 0.4 L-11.9 -0.55 -12.0 -1.2 Q-12.0 -2.4 -5.85 -9.15 0.15 -15.8 -0.75 -11.75 -0.4 -11.8 0.25 -12.35 L2.85 -12.8 Q5.2 -12.8 8.65 -10.8 L11.65 -8.75 11.3 -7.85 Q10.8 -7.3 9.9 -7.25 L9.75 -7.15 M4.65 -4.0 L-1.15 0.0 Q0.75 -0.5 2.4 -1.9 L4.65 -4.0 M10.2 1.0 L9.5 0.25 5.0 4.5 4.75 4.65 Q5.7 4.45 7.8 3.35 L10.5 1.85 Q10.6 1.45 10.2 1.0" fill="#ffcc33" fill-opacity="0.3019608" fill-rule="evenodd" stroke="none"/>
    <path d="M5.75 -6.55 Q5.05 -5.8 4.75 -4.25 L5.5 -5.65 Q6.25 -6.75 7.25 -6.75 8.5 -6.75 8.75 -5.6 L8.75 -4.25 Q10.0 -4.75 10.75 -4.0 11.25 -3.45 11.25 -2.9 10.0 0.4 10.0 0.9 10.0 2.6 11.35 2.6 L12.25 2.2 Q12.75 1.75 13.25 1.75 14.4 1.75 14.7 2.7 L14.75 3.7 Q13.3 9.5 12.0 9.5 L9.85 6.85 6.6 2.25 4.6 4.45 Q2.7 6.25 1.5 6.25 -0.1 6.25 0.0 4.7 0.0 4.05 0.5 2.9 L1.0 1.65 0.75 1.25 Q-0.9 5.2 -2.65 7.8 -5.95 12.75 -9.75 12.75 -11.3 12.75 -11.25 11.2 L-10.6 9.35 -9.4 7.0 Q-11.25 6.3 -11.25 2.45 -11.25 0.95 -8.2 -5.15 -4.6 -12.3 -1.75 -12.3 -0.45 -12.3 -0.35 -11.0 -0.35 -10.15 -0.65 -9.4 L-0.25 -9.0 Q2.45 -14.35 4.55 -12.65 6.25 -11.35 6.25 -8.25 6.25 -7.15 5.75 -6.55" fill="#ffcc33" fill-opacity="0.3019608" fill-rule="evenodd" stroke="none"/>
    <path d="M2.5 -4.05 Q1.55 -3.0 -0.35 -3.0 -1.9 -3.0 -2.3 -3.5 L-2.5 -4.2 Q-2.5 -5.65 0.4 -7.25 3.25 -8.85 3.25 -6.0 3.25 -4.9 2.5 -4.05" fill="#cc6666" fill-opacity="0.3019608" fill-rule="evenodd" stroke="none"/>
    <path d="M2.75 -2.3 Q0.5 -2.3 0.1 -2.85 -0.1 -3.15 0.1 -3.65 -1.6 -3.15 -2.1 -3.9 L-2.25 -5.0 Q-2.25 -7.05 1.2 -6.75 4.65 -6.5 4.65 -4.3 4.65 -2.3 2.75 -2.3" fill="#cc6666" fill-opacity="0.3019608" fill-rule="evenodd" stroke="none"/>
    <path d="M2.25 -3.75 Q1.9 -3.0 1.25 -3.0 L-2.05 -3.3 -2.15 -3.45 -2.25 -3.9 Q-2.25 -5.1 0.15 -5.45 2.5 -5.8 2.5 -4.65 L2.25 -3.75" fill="#cc6666" fill-opacity="0.3019608" fill-rule="evenodd" stroke="none"/>
    <path d="M-2.7 -12.0 L-3.85 -11.2 -4.9 -10.3 -7.8 -6.95 -8.45 -5.85 -8.45 -5.8 Q-9.95 -3.25 -10.6 -0.1 L-11.95 6.55 -11.6 6.55 Q-11.3 6.6 -10.6 7.0 L-11.85 7.2 -12.05 7.2 -12.25 8.05 Q-13.4 13.35 -13.9 13.35 L-14.45 13.05 -14.5 12.75 -13.25 6.15 -11.65 -0.8 Q-10.65 -5.45 -8.7 -7.55 L-8.55 -7.7 Q-8.5 -8.65 -7.4 -10.0 L-6.0 -11.15 -6.0 -11.2 Q-3.8 -13.2 1.3 -13.3 L1.25 -13.2 Q5.75 -13.2 8.05 -10.9 L9.1 -9.3 Q10.1 -8.1 10.1 -7.5 10.85 -6.1 11.4 -4.25 L12.6 0.9 12.7 1.4 13.05 1.45 12.75 1.5 13.55 5.85 14.35 10.95 14.55 11.5 14.5 11.65 14.35 11.65 Q12.95 9.75 12.5 6.85 L11.95 2.9 10.5 2.95 9.35 2.75 9.35 2.6 11.9 2.7 11.75 1.95 11.6 1.45 11.1 1.4 9.2 1.0 Q7.55 0.55 7.4 0.25 L9.6 0.6 11.5 1.1 9.15 -7.7 7.35 -9.6 5.05 -11.75 5.1 -11.8 2.8 -12.55 -1.55 -12.35 -2.7 -12.0 M-0.25 -3.65 L0.65 -4.7 1.5 -5.65 1.85 -4.95 1.35 -4.1 1.75 -4.5 2.15 -5.35 Q2.15 -6.65 0.2 -7.05 -1.75 -7.45 -1.75 -4.75 L-1.75 -4.05 Q-1.6 -3.65 -0.65 -3.65 L-0.25 -3.65 M3.15 -5.45 L2.7 -4.0 Q1.95 -2.85 0.25 -2.85 -1.65 -2.85 -2.15 -3.55 L-2.3 -4.35 Q-2.3 -8.3 0.45 -7.95 3.15 -7.65 3.15 -5.45" fill="#5a493f" fill-rule="evenodd" stroke="none"/>
  </g>
</svg>
