<?xml version="1.0" encoding="UTF-8" standalone="no"?>
<svg xmlns:xlink="http://www.w3.org/1999/xlink" height="127.8px" width="346.45px" xmlns="http://www.w3.org/2000/svg">
  <g transform="matrix(1.0, 0.0, 0.0, 1.0, -84.25, -135.2)">
    <path d="M148.7 138.1 L148.3 139.55 148.25 136.6 148.25 135.2 157.75 136.25 Q157.75 141.45 156.95 156.9 156.05 189.85 156.95 217.25 157.85 244.65 158.65 263.0 L148.85 263.0 148.75 238.25 148.75 193.05 148.5 193.05 117.7 192.75 85.75 192.25 85.65 192.0 Q85.5 191.85 85.5 191.1 85.0 190.3 85.4 190.0 85.9 189.6 89.6 189.35 L85.0 189.05 84.3 188.3 84.25 187.35 Q84.25 185.05 117.65 185.05 L148.75 186.35 148.75 182.0 Q147.5 176.7 148.25 161.75 L149.0 141.6 Q149.0 136.45 148.7 138.1 M379.1 164.25 Q385.05 171.3 381.0 171.85 381.0 185.85 379.5 197.65 378.0 209.45 378.0 212.0 L377.9 214.35 Q378.0 216.9 379.1 218.9 382.65 225.15 395.0 223.25 394.35 225.1 393.8 233.8 392.15 235.4 397.6 238.8 400.55 240.65 405.0 240.15 404.15 244.3 405.1 246.05 407.15 249.85 411.2 253.0 413.95 255.2 419.5 256.35 425.9 257.7 427.3 258.4 430.2 259.85 430.7 263.0 L251.95 263.0 257.8 259.0 Q274.0 247.7 274.0 245.0 L273.55 241.15 Q273.2 238.8 273.5 237.5 282.95 237.35 286.3 235.2 288.0 234.05 288.0 232.1 288.0 231.1 289.85 228.3 L293.9 222.15 Q299.75 212.65 299.75 205.0 299.75 196.8 301.15 180.25 L302.25 164.1 Q336.15 163.85 379.1 164.25" fill="url(#gradient0)" fill-rule="evenodd" stroke="none"/>
  </g>
  <defs>
    <linearGradient gradientTransform="matrix(0.0, 0.293, -0.2841, 0.0, 320.0, 240.0)" gradientUnits="userSpaceOnUse" id="gradient0" spreadMethod="pad" x1="-819.2" x2="819.2">
      <stop offset="0.0" stop-color="#9fdfdf"/>
      <stop offset="1.0" stop-color="#ffffff"/>
    </linearGradient>
  </defs>
</svg>
