<?xml version="1.0" encoding="UTF-8" standalone="no"?>
<svg xmlns:xlink="http://www.w3.org/1999/xlink" height="291.2px" width="48.3px" xmlns="http://www.w3.org/2000/svg">
  <g transform="matrix(1.0, 0.0, 0.0, 1.0, -128.7, -130.95)">
    <path d="M153.85 139.9 Q155.4 147.95 156.9 160.45 158.25 171.65 158.25 175.15 158.25 187.95 157.35 192.1 156.4 196.25 156.4 209.25 L157.1 224.0 157.75 241.8 157.65 275.7 Q157.35 291.5 156.3 304.0 L156.55 306.3 156.85 309.4 157.0 309.4 Q158.8 309.4 159.25 312.25 159.5 313.7 159.4 315.35 159.4 327.7 157.85 341.85 L158.25 347.0 Q159.5 362.4 159.5 367.65 159.5 371.2 157.4 388.65 L158.5 396.5 Q158.5 398.35 158.0 400.0 157.3 402.3 156.0 402.3 L155.65 402.3 Q153.4 419.35 153.0 419.35 149.35 419.35 147.65 384.5 L146.95 359.2 Q146.5 357.45 146.3 355.05 146.15 353.3 146.15 346.7 146.15 326.65 147.4 282.1 148.65 237.05 148.65 216.8 L148.35 184.15 Q148.1 164.1 148.4 151.4 148.85 132.65 150.5 131.1 151.85 129.75 153.85 139.9" fill="#8d6d3f" fill-opacity="0.3019608" fill-rule="evenodd" stroke="none"/>
    <path d="M154.65 137.0 Q157.2 134.5 159.75 148.35 161.9 160.0 161.9 166.3 L161.9 170.7 Q161.6 173.45 159.75 173.45 157.85 173.45 157.65 171.6 L157.75 169.6 157.45 168.05 156.9 166.95 156.65 166.95 156.25 169.35 156.0 171.8 157.15 194.85 157.15 201.55 Q156.7 207.4 154.5 207.4 151.65 207.4 151.55 203.4 152.05 198.55 151.9 196.8 L151.65 197.1 150.5 197.4 Q147.9 197.4 147.4 187.0 L147.4 176.2 Q147.4 172.15 148.75 153.35 L150.15 132.65 Q152.6 130.7 154.65 137.0" fill="#8d6d3f" fill-opacity="0.3019608" fill-rule="evenodd" stroke="none"/>
    <path d="M150.0 136.4 Q150.25 136.15 151.0 136.15 151.55 136.15 152.0 137.5 152.4 138.6 152.4 139.35 155.9 133.8 156.85 136.95 157.15 138.0 157.15 143.25 157.15 146.2 156.85 147.6 156.15 150.9 153.75 151.85 L154.2 152.3 154.75 152.8 154.5 152.9 153.4 153.0 Q153.4 154.85 153.75 161.1 153.65 166.45 151.5 166.45 L150.5 166.2 149.9 165.65 Q149.65 162.65 149.65 155.75 L149.9 136.7 150.0 136.4" fill="#8d6d3f" fill-opacity="0.3019608" fill-rule="evenodd" stroke="none"/>
    <path d="M155.85 231.45 Q155.5 231.35 155.5 232.8 L156.4 295.25 Q157.25 362.5 157.25 401.35 L157.1 406.4 Q156.7 410.15 155.0 410.15 153.5 410.15 151.4 402.0 151.4 386.25 152.75 314.65 154.15 242.95 154.65 230.95 155.4 230.95 156.15 231.45 156.2 231.75 155.85 231.45" fill="#8d6d3f" fill-opacity="0.3019608" fill-rule="evenodd" stroke="none"/>
    <path d="M156.0 417.2 Q153.65 420.1 150.5 420.1 148.0 420.1 147.4 417.95 L147.25 415.45 Q150.0 400.25 152.75 392.2 158.25 376.2 158.25 411.1 158.25 414.5 156.0 417.2" fill="#8d6d3f" fill-opacity="0.3019608" fill-rule="evenodd" stroke="none"/>
    <path d="M176.75 151.1 L175.9 151.5 158.65 151.5 157.85 151.45 Q157.7 181.05 157.7 234.05 L157.75 234.55 157.95 239.1 157.5 328.2 157.2 413.45 155.3 413.45 155.25 413.05 155.75 397.95 155.65 372.85 Q155.65 368.2 156.0 366.65 156.4 319.9 155.95 242.75 L156.0 235.0 156.2 232.3 156.0 151.15 Q154.85 150.9 154.55 150.5 155.05 149.85 156.0 149.55 L155.95 139.4 156.0 139.3 156.4 139.3 156.2 138.2 Q155.85 135.5 152.8 135.5 150.05 135.5 149.85 137.95 L149.75 139.3 149.75 143.15 150.05 143.55 150.2 144.2 149.75 144.55 149.8 248.5 149.5 267.2 149.5 303.2 149.35 313.4 149.35 314.05 Q149.25 357.75 149.5 413.45 L147.7 413.45 147.85 385.25 Q148.2 347.4 147.5 290.9 L148.55 270.0 148.35 263.3 Q148.05 250.9 148.05 244.15 148.25 244.15 148.3 144.7 L138.75 144.85 129.1 144.2 Q128.6 143.95 128.75 143.75 L129.0 143.55 Q129.0 142.3 139.55 142.25 L148.3 142.65 148.3 139.75 148.05 138.8 Q148.05 138.25 148.4 138.15 L148.65 138.15 Q148.7 136.8 148.9 136.3 149.7 134.25 152.8 134.25 155.7 134.25 157.1 136.05 157.85 137.0 157.95 138.0 L157.9 139.45 157.85 149.25 Q171.5 148.6 175.5 149.25 177.0 149.5 177.0 150.3 L176.75 151.1 M150.95 137.4 L151.65 139.9 151.75 142.2 151.35 154.35 150.95 165.3 150.75 165.45 Q150.25 152.9 150.25 146.1 L150.45 139.3 150.5 137.4 150.95 137.4 M154.25 182.05 L153.85 230.35 153.7 230.35 153.25 182.05 Q153.25 155.4 153.95 138.15 154.25 152.7 154.25 182.05 M152.5 287.45 L152.45 305.45 152.2 305.45 152.0 287.35 152.1 277.05 152.35 277.05 152.5 287.45 M153.35 361.8 L153.6 392.25 153.45 422.15 153.2 422.15 153.05 404.05 153.0 392.25 153.1 361.8 153.35 361.8 M152.1 391.45 L152.25 408.6 152.1 415.4 151.95 415.4 151.75 408.6 151.95 391.45 152.1 391.45" fill="#5b5546" fill-rule="evenodd" stroke="none"/>
  </g>
</svg>
