<?xml version="1.0" encoding="UTF-8" standalone="no"?>
<svg xmlns:xlink="http://www.w3.org/1999/xlink" height="41.9px" width="83.25px" xmlns="http://www.w3.org/2000/svg">
  <g transform="matrix(1.0, 0.0, 0.0, 1.0, 39.5, 21.55)">
    <path d="M9.05 -14.3 L14.75 -19.9 Q17.8 -22.45 19.3 -21.05 21.25 -19.35 21.5 -11.25 L21.25 -11.0 Q22.1 -11.3 23.75 -13.05 25.1 -14.5 27.0 -14.5 34.3 -14.5 35.25 -8.95 35.7 -6.1 34.75 -2.25 34.75 -1.55 35.55 -0.85 L37.2 0.55 Q39.35 2.95 38.25 8.0 40.8 9.0 42.4 10.6 43.75 11.95 43.75 12.85 43.75 15.15 31.75 17.1 L19.5 18.6 Q16.9 18.6 15.05 17.3 13.7 16.0 13.5 16.0 6.05 16.0 -0.85 18.2 -7.75 20.35 -10.0 20.35 -13.8 20.35 -14.5 17.7 L-14.5 14.0 Q-19.95 15.05 -21.6 17.35 L-22.7 18.75 Q-23.4 19.35 -25.0 19.35 -33.1 19.35 -37.05 16.0 -39.5 13.85 -39.5 11.85 -39.5 10.4 -32.05 -3.5 -24.55 -17.5 -23.5 -17.5 -21.0 -17.5 -20.5 -15.6 L-20.5 -13.25 -18.35 -13.5 -15.5 -13.75 Q-5.75 -13.75 -3.2 -12.35 -0.6 -11.0 3.5 -11.0 5.55 -11.0 9.05 -14.3" fill="#5b5546" fill-opacity="0.3019608" fill-rule="evenodd" stroke="none"/>
    <path d="M31.25 -3.75 Q28.15 -2.35 26.6 -1.95 20.85 -0.5 11.5 -0.5 L-5.3 -0.55 Q-18.65 -1.3 -24.75 -5.25 -22.7 -10.95 0.95 -9.15 20.3 -7.65 30.75 -4.5 L31.25 -3.75" fill="#5b5546" fill-opacity="0.3019608" fill-rule="evenodd" stroke="none"/>
    <path d="M22.0 5.0 Q16.75 8.75 8.4 11.5 4.2 12.9 1.0 13.5 -0.4 13.5 -1.15 12.95 -2.15 12.15 -2.75 12.0 L-3.0 12.35 Q-3.25 12.4 -3.25 10.85 -3.25 7.75 2.95 5.0 10.55 1.7 21.25 3.5 L22.0 5.0" fill="#5b5546" fill-opacity="0.3019608" fill-rule="evenodd" stroke="none"/>
    <path d="M-25.85 -15.5 L-15.0 -15.85 Q-14.35 -15.85 -13.85 -14.95 L-13.5 -13.9 Q-13.5 -12.65 -14.35 -11.5 -15.3 -10.25 -16.5 -10.25 -17.5 -10.25 -18.15 -10.9 L-18.75 -11.6 -21.55 -11.0 -24.1 -10.75 Q-23.75 -8.0 -23.85 -6.45 -24.0 -3.6 -26.0 -3.6 -27.6 -3.6 -28.4 -7.25 L-28.85 -11.0 Q-28.85 -14.75 -25.85 -15.5" fill="#669900" fill-opacity="0.3019608" fill-rule="evenodd" stroke="none"/>
    <path d="M-20.35 -15.5 L-20.15 -15.35 Q-20.0 -15.25 -20.0 -14.5 L-20.1 -13.45 -20.25 -13.35 -23.75 -13.75 -27.35 -13.75 Q-25.25 -9.7 -25.25 -8.5 -25.25 -7.5 -25.4 -7.2 -25.9 -6.2 -27.75 -6.75 -27.75 -7.35 -28.65 -9.8 -29.6 -12.3 -29.6 -13.1 -29.6 -14.95 -29.0 -15.35 -27.3 -16.55 -20.35 -15.5" fill="#669900" fill-opacity="0.3019608" fill-rule="evenodd" stroke="none"/>
    <path d="M9.8 -2.55 L9.75 -3.5 Q9.75 -4.65 11.0 -5.05 L20.8 -6.5 Q21.35 -11.35 27.45 -10.75 33.3 -10.25 35.75 -6.5 34.35 -5.1 33.05 -5.4 L24.5 -6.25 Q25.15 -4.5 24.25 -3.55 22.6 -1.75 13.75 -1.75 10.5 -1.75 9.8 -2.55" fill="#669900" fill-opacity="0.3019608" fill-rule="evenodd" stroke="none"/>
    <path d="M27.8 -8.4 L28.05 -7.85 23.5 -4.35 21.25 -4.35 23.15 -7.0 Q24.75 -8.7 27.55 -8.85 L27.8 -8.4" fill="#669900" fill-opacity="0.3019608" fill-rule="evenodd" stroke="none"/>
    <path d="M0.25 4.75 Q-1.6 6.5 -3.5 6.5 -4.75 6.5 -6.5 5.5 L-8.45 7.7 Q-9.35 8.75 -10.5 8.75 -12.25 8.75 -12.3 7.5 L-12.15 7.0 -15.25 6.75 -15.35 6.5 -15.5 5.6 -15.4 4.9 Q-15.1 4.15 -14.0 3.75 L-15.35 3.0 -15.5 1.8 -14.85 1.55 -13.5 1.3 Q-12.85 1.3 -12.45 1.8 L-11.4 2.25 Q-10.5 2.25 -6.5 1.25 -1.0 0.65 0.85 1.35 1.8 1.7 1.8 2.5 1.8 3.25 0.25 4.75" fill="#669900" fill-opacity="0.3019608" fill-rule="evenodd" stroke="none"/>
    <path d="M-4.35 5.1 Q-4.35 6.25 -4.6 6.7 -5.3 7.9 -7.75 7.5 L-7.15 7.9 Q-6.85 8.2 -6.85 9.0 -6.85 9.8 -7.35 10.5 -7.9 11.25 -8.5 11.25 L-13.85 4.1 Q-13.85 2.8 -11.3 0.85 -8.45 -1.4 -6.5 0.25 -6.25 -0.25 -6.25 1.0 L-7.75 2.5 -7.85 2.75 Q-5.3 2.45 -4.6 3.65 -4.35 4.0 -4.35 5.1" fill="#669900" fill-opacity="0.3019608" fill-rule="evenodd" stroke="none"/>
    <path d="M17.0 -13.65 L18.65 -13.75 19.65 -13.75 Q22.0 -15.5 22.8 -13.55 23.75 -14.35 24.75 -14.45 L32.85 -13.85 Q33.65 -14.6 34.7 -14.85 L34.7 -13.65 34.05 -13.7 34.7 -13.6 34.7 -13.15 32.65 -13.1 32.15 -13.05 32.2 -13.1 28.55 -13.05 Q27.85 -13.05 27.4 -13.45 26.95 -13.9 26.3 -13.9 24.65 -13.9 23.15 -13.05 L22.95 -12.9 23.05 -9.7 23.0 -8.4 23.05 -8.4 Q24.55 -7.3 23.7 -6.55 23.75 -6.4 30.9 -6.4 L31.75 -6.35 31.65 -6.75 31.75 -6.85 Q31.85 -7.0 32.25 -7.0 L33.4 -6.8 33.4 -9.05 34.0 -9.1 34.45 -8.65 34.35 -7.9 34.4 -6.9 34.2 -6.8 34.2 -6.65 34.85 -6.5 35.0 -11.5 34.75 -12.55 32.6 -13.05 Q36.3 -13.45 36.6 -9.85 36.75 -8.0 36.15 -6.0 36.15 -5.5 35.5 -5.2 L34.7 -5.0 34.7 -4.9 33.95 -4.9 33.9 -4.65 33.65 -4.55 33.65 -4.9 33.45 -4.9 33.8 -3.55 33.55 -1.95 33.65 -1.8 Q33.65 -2.45 33.8 -2.55 L34.15 -2.55 34.45 -1.9 34.7 -1.6 34.7 -0.8 34.1 -1.15 Q34.75 0.15 34.75 2.75 34.9 3.95 34.7 4.55 L34.7 5.85 33.05 6.85 32.3 6.1 Q32.3 5.6 32.7 5.2 L31.65 5.2 32.1 6.2 32.15 7.5 32.1 8.75 31.9 9.25 33.2 9.2 34.7 9.3 34.7 10.15 Q36.05 10.45 36.65 11.2 37.15 11.8 37.15 13.95 L36.35 16.35 35.25 18.65 Q34.5 18.5 34.5 17.7 L35.2 15.7 Q35.85 13.95 35.85 12.65 35.85 12.0 34.7 11.85 33.25 11.65 31.65 10.55 L31.2 10.55 31.15 10.75 31.05 10.8 30.85 10.8 Q30.05 10.35 28.65 10.1 L28.95 10.0 29.6 9.9 Q30.15 9.5 31.2 9.35 L31.4 8.75 31.4 7.65 31.15 6.65 30.9 5.6 30.95 5.15 29.75 5.0 29.15 4.65 28.4 5.25 Q27.95 5.6 26.55 5.6 24.1 5.6 23.05 4.05 L22.85 3.75 Q22.7 3.8 22.5 4.0 L21.8 4.35 21.5 4.25 20.5 4.4 20.75 6.25 21.05 8.25 21.05 8.4 20.55 8.35 19.55 8.55 19.15 8.25 19.75 7.95 20.05 7.05 Q20.05 5.7 18.9 4.65 L18.65 4.45 16.65 4.05 15.65 3.45 16.0 3.3 14.4 3.05 16.25 3.2 18.65 2.75 20.25 2.7 Q22.2 2.7 22.5 1.4 22.85 1.8 23.45 2.0 L23.45 2.05 23.9 2.75 23.9 2.8 24.15 2.85 24.45 3.35 24.45 3.4 Q25.55 4.35 28.05 4.35 L28.8 4.1 29.4 3.85 29.65 4.2 29.3 4.5 Q31.25 3.7 33.15 4.05 L33.35 3.9 33.15 2.8 Q33.15 1.75 33.55 1.55 L32.95 -0.1 32.75 -0.6 Q31.95 0.2 30.65 0.2 L28.05 -0.15 27.55 -0.25 Q27.5 -1.15 26.9 -1.6 L28.05 -1.65 28.9 -1.25 Q29.7 -0.9 30.05 -0.9 31.55 -0.9 32.3 -1.55 L32.25 -1.65 32.35 -2.5 32.85 -2.35 32.95 -2.9 32.7 -4.9 31.55 -5.05 31.6 -5.15 29.35 -5.05 26.05 -5.15 Q24.05 -5.15 23.25 -6.4 L22.85 -7.55 22.6 -6.0 Q22.15 -3.7 22.15 -2.2 L22.3 -1.65 22.25 -1.45 22.7 -1.45 22.2 -0.65 21.55 -0.6 21.3 -0.4 Q20.0 -0.4 18.65 -0.95 17.45 -1.5 17.45 -1.8 L17.45 -2.25 15.75 -2.9 14.9 -2.9 Q12.85 -2.9 12.1 -3.5 12.6 -3.05 13.65 -2.8 L13.65 -2.55 Q13.65 -2.4 13.3 -2.4 13.7 -1.8 13.7 -0.45 L13.65 0.7 12.8 1.95 12.55 1.85 Q12.4 1.75 12.4 1.35 L12.9 -1.9 Q12.9 -2.15 11.65 -2.45 L11.5 -2.5 7.05 -3.4 7.8 -3.45 6.9 -4.0 Q6.45 -3.65 5.55 -3.35 L1.25 -2.75 1.15 -2.4 0.9 -2.3 0.8 -2.55 0.75 -2.7 -0.45 -2.7 Q-2.3 -2.7 -3.2 -3.15 -4.95 1.2 -6.7 1.2 L-7.55 1.1 -7.95 0.6 Q-5.0 -1.05 -4.0 -3.8 L-4.05 -3.9 -3.95 -4.7 -3.95 -4.8 -3.7 -4.85 Q-3.45 -6.35 -3.3 -9.65 L-2.85 -9.65 Q-2.45 -7.5 -2.45 -5.4 L-2.7 -4.55 -2.45 -4.4 0.8 -3.95 1.05 -5.7 1.3 -5.7 1.55 -4.35 1.55 -3.9 3.05 -3.9 Q3.55 -4.35 3.55 -5.0 L3.55 -6.2 3.8 -6.2 4.05 -4.85 4.05 -4.4 Q3.9 -4.05 3.05 -3.9 L3.3 -3.9 Q5.4 -3.9 6.2 -4.9 6.05 -5.3 6.05 -5.65 L6.6 -5.6 6.7 -6.1 Q7.0 -8.0 7.25 -8.6 7.0 -9.7 6.4 -10.6 5.1 -12.55 -0.45 -12.55 -3.05 -12.55 -3.2 -12.9 L5.75 -12.65 5.85 -12.6 Q10.2 -14.15 12.35 -13.5 L13.25 -13.0 17.0 -13.65 M12.45 -12.7 L11.8 -13.3 Q9.05 -13.3 8.25 -12.7 7.45 -12.15 7.05 -12.15 L6.5 -12.15 Q7.7 -11.2 7.7 -10.05 L7.65 -8.65 7.55 -8.45 7.7 -7.05 7.5 -5.9 7.35 -5.1 7.6 -4.85 Q8.65 -3.8 11.3 -4.65 L13.05 -4.65 13.2 -4.55 13.3 -4.15 13.05 -3.9 13.15 -3.9 13.7 -3.9 13.9 -4.9 14.15 -6.15 14.3 -6.15 14.4 -5.6 14.15 -4.6 13.9 -3.95 Q16.65 -4.2 17.3 -6.6 17.7 -7.9 17.4 -9.3 17.4 -10.35 17.2 -10.65 16.65 -11.55 14.8 -11.45 L15.05 -11.15 15.05 -10.8 Q14.95 -10.65 14.55 -10.65 13.9 -10.65 13.0 -11.95 L12.95 -12.05 12.55 -12.1 Q12.4 -12.15 12.4 -12.55 L12.45 -12.7 M16.7 -12.25 Q17.45 -11.8 17.85 -10.1 L18.2 -5.95 18.15 -4.15 17.95 -3.8 18.25 -2.9 18.45 -2.8 18.45 -2.35 18.65 -2.05 Q19.25 -1.4 20.45 -1.4 21.3 -1.4 21.45 -1.8 L21.8 -2.55 21.95 -2.4 22.05 -5.7 Q22.2 -10.5 21.75 -12.4 L21.55 -12.4 21.7 -12.55 21.5 -13.05 Q20.6 -12.65 18.65 -12.4 L17.35 -12.3 16.7 -12.25 M15.1 -12.15 L14.2 -12.1 14.5 -11.8 15.1 -12.15 M12.3 -6.85 L12.3 -7.45 12.55 -7.45 Q12.65 -7.35 12.75 -7.35 L12.8 -6.95 12.8 -6.55 12.7 -6.55 12.55 -6.4 12.35 -6.45 12.3 -6.85 M17.6 -3.45 L17.4 -3.35 17.55 -3.25 17.6 -3.45 M21.15 -13.5 L20.8 -13.65 20.55 -13.65 21.15 -13.5 M31.95 -8.3 L31.6 -7.7 31.15 -7.15 30.7 -7.4 Q30.55 -7.6 30.55 -8.05 L30.65 -8.6 31.55 -8.8 31.85 -8.75 31.95 -8.3 M29.9 2.6 L30.05 2.7 30.05 3.8 29.8 4.1 Q29.45 3.9 29.45 3.2 L29.55 2.6 29.9 2.6 M23.55 12.2 L23.65 13.5 23.55 14.7 Q23.25 15.25 21.85 15.35 L21.75 15.15 22.7 14.15 22.75 13.25 22.75 12.7 Q22.6 12.3 22.1 12.25 L23.55 12.2 M22.8 11.35 Q22.65 11.3 22.65 10.9 22.65 10.45 24.8 9.75 27.05 9.05 27.5 10.0 L27.65 10.25 Q25.95 10.1 23.5 11.35 L22.8 11.35 M13.9 3.85 L13.05 3.85 10.65 3.45 13.55 2.45 Q14.05 2.75 14.05 3.35 L14.0 3.7 13.9 3.85 M12.9 10.05 L15.6 9.9 16.25 10.9 14.8 10.95 10.7 10.8 7.5 10.45 5.55 9.7 7.05 9.8 Q11.6 9.8 12.4 9.0 L13.15 7.85 Q13.55 8.4 13.55 9.1 L12.9 10.05 M7.75 3.75 Q6.75 3.15 4.95 3.1 5.55 3.65 5.55 4.8 L5.3 6.8 5.25 6.85 5.45 8.85 Q5.45 9.35 3.8 10.1 L2.05 10.7 2.55 10.6 0.55 10.95 -1.85 11.1 -2.45 11.1 -2.5 10.85 -1.45 10.9 -2.2 10.6 Q2.1 10.25 3.85 8.25 4.6 7.45 4.95 6.55 L4.55 4.55 Q4.45 3.7 3.6 3.1 L-0.35 3.5 -3.45 3.85 -6.8 3.8 -6.7 3.95 Q-6.6 4.3 -7.2 4.3 -8.35 4.3 -9.05 2.55 L-9.2 3.05 -9.2 3.1 Q-8.65 3.55 -8.4 4.85 -8.2 5.7 -8.15 7.7 L-8.05 6.45 Q-8.1 4.75 -7.2 4.55 L-7.45 6.95 Q-7.45 9.55 -6.5 10.1 L-6.55 9.85 -6.5 9.45 -6.35 9.35 -6.2 9.35 -5.7 9.75 -6.4 10.3 -6.45 10.2 -6.45 10.35 -6.5 10.45 -6.95 10.45 Q-7.8 10.45 -8.3 9.65 L-8.35 9.55 -10.2 10.1 -12.35 10.15 -13.05 9.0 -14.25 9.2 -14.1 9.45 -15.7 10.85 Q-17.1 11.7 -20.2 11.7 L-24.0 11.4 -24.2 10.45 -23.95 10.1 -23.6 10.45 -23.05 10.6 -15.5 9.9 -14.4 9.2 -13.9 6.15 -15.2 5.45 -15.35 5.25 -14.9 4.85 -15.85 4.85 Q-17.1 4.05 -19.95 4.2 L-21.25 4.35 -21.35 4.3 -23.25 4.75 -25.85 5.45 -26.05 5.2 Q-26.95 5.85 -26.95 6.95 L-27.3 7.65 Q-27.6 8.1 -27.25 9.2 L-28.1 9.45 -28.45 7.85 Q-28.45 7.1 -27.25 5.7 L-26.3 4.75 -26.45 4.55 -27.2 4.15 -26.35 3.45 -25.55 2.45 Q-26.25 1.65 -26.25 0.05 L-26.05 -1.35 -26.15 -1.7 -26.35 -3.35 -26.65 -3.35 -27.0 -3.75 -27.65 -3.65 -27.9 -3.65 Q-28.35 -2.5 -29.15 -2.5 L-29.65 -2.5 Q-32.2 -2.3 -32.85 -1.8 L-33.05 -0.9 -32.7 2.05 -32.55 2.95 Q-32.3 4.2 -30.2 4.2 -29.9 4.2 -29.65 4.7 L-29.45 5.2 Q-29.45 5.7 -29.9 5.85 L-30.5 5.95 -31.7 8.55 Q-33.25 11.7 -33.25 14.6 L-33.3 15.95 Q-33.5 16.7 -34.1 16.85 -34.5 16.0 -34.5 14.6 -34.5 10.9 -34.2 9.9 -33.7 8.25 -31.75 5.9 -33.75 5.5 -33.75 3.1 L-33.7 2.3 -33.85 2.4 -33.9 0.3 Q-33.9 -2.15 -32.6 -2.85 -33.6 -3.15 -34.15 -3.65 -34.65 -4.15 -34.65 -5.35 -34.65 -6.5 -33.65 -8.6 -32.5 -10.95 -31.4 -11.1 L-31.8 -11.6 Q-29.95 -10.85 -29.05 -10.3 L-29.05 -10.35 Q-29.05 -13.05 -28.65 -14.5 L-28.25 -14.4 -28.3 -14.75 Q-28.3 -16.1 -26.4 -16.65 -24.2 -17.25 -21.8 -15.1 L-22.05 -14.9 -23.55 -15.75 -26.75 -15.1 -28.15 -14.5 -28.2 -14.35 -28.15 -14.35 -28.4 -12.85 -28.25 -9.7 Q-27.55 -8.95 -27.55 -7.95 L-27.55 -6.45 Q-27.1 -5.15 -26.35 -4.6 L-25.75 -5.0 Q-26.4 -6.1 -26.4 -7.05 L-26.4 -8.9 -26.15 -8.9 -25.3 -6.8 Q-25.15 -6.3 -25.15 -5.5 L-25.15 -5.15 -25.05 -5.2 -23.45 -5.25 -23.3 -5.3 -23.4 -6.45 Q-23.4 -8.3 -22.9 -8.75 -22.5 -8.35 -22.5 -6.35 L-22.5 -5.7 Q-21.0 -6.6 -21.0 -7.65 L-21.25 -8.8 -21.5 -10.0 -21.25 -14.25 -20.8 -14.25 -20.3 -10.75 -20.1 -9.4 -20.1 -11.05 Q-20.05 -13.85 -19.15 -14.65 L-19.3 -14.05 -19.5 -13.25 -19.2 -9.0 -18.75 -5.55 Q-18.75 -5.75 -18.4 -5.55 L-17.55 -5.0 -16.85 -5.05 -17.0 -6.1 -16.9 -8.5 -16.55 -8.5 Q-16.4 -7.75 -16.4 -6.2 L-16.45 -5.1 -12.9 -6.0 Q-12.05 -6.2 -11.7 -5.75 L-10.75 -7.25 Q-9.5 -9.2 -9.5 -9.95 L-9.9 -12.7 Q-9.9 -13.05 -10.8 -13.55 L-13.05 -14.75 Q-9.75 -15.4 -8.75 -12.65 -8.3 -11.45 -8.3 -8.5 -8.3 -8.0 -9.45 -6.45 L-10.45 -5.25 -9.25 -3.6 Q-7.75 -1.4 -7.75 -0.75 -7.75 -0.05 -9.2 1.8 -8.5 1.25 -7.7 1.35 L-8.45 2.6 -8.0 3.1 -7.7 3.3 Q-7.65 3.0 -7.85 2.8 L-7.85 2.6 -7.45 2.85 -6.7 3.05 4.6 1.8 Q8.95 1.2 10.15 3.55 L10.0 4.05 8.8 4.35 7.75 3.75 M3.0 14.25 L1.6 14.4 Q0.05 14.4 -1.05 13.75 L-1.9 12.9 -1.75 11.25 -1.3 11.25 Q-1.35 12.0 -0.45 12.4 L4.0 14.0 3.0 14.25 M-33.15 -4.2 Q-32.5 -3.5 -31.4 -3.5 L-30.7 -3.5 Q-31.55 -3.65 -32.2 -4.15 L-32.75 -4.85 Q-32.75 -5.85 -32.15 -6.25 -31.9 -6.1 -31.4 -5.15 -30.75 -4.45 -29.2 -4.8 L-29.0 -5.35 Q-28.75 -5.75 -28.75 -6.1 -28.75 -10.35 -31.25 -9.65 -33.75 -8.95 -33.75 -5.5 -33.75 -4.8 -33.15 -4.2 M-27.65 -4.95 L-27.65 -4.9 -27.55 -4.95 -27.6 -5.05 -27.65 -4.95 M-25.5 -4.15 L-25.15 -4.1 -25.15 -4.3 -25.1 -4.35 -25.4 -4.35 -25.45 -4.25 -25.5 -4.15 M-25.5 -2.85 L-25.05 -2.75 -25.1 -2.25 -25.25 -1.5 -25.2 -0.95 -24.8 0.5 -24.85 0.55 -24.4 1.65 Q-24.4 1.8 -23.15 2.35 L-22.65 2.65 -22.35 2.65 -22.1 2.55 -17.85 2.7 -15.15 2.85 Q-13.55 2.95 -13.15 3.6 L-12.75 3.0 -11.4 1.25 -11.1 1.35 -11.0 1.75 Q-11.0 2.25 -12.0 3.3 L-12.35 3.65 Q-10.4 3.1 -9.05 -0.25 L-9.8 -1.8 -11.05 -4.15 -11.05 -4.7 -11.4 -4.5 -11.5 -3.85 -11.9 -3.6 -13.25 -5.0 -14.65 -4.55 Q-15.7 -4.1 -16.65 -4.1 -18.05 -4.1 -18.25 -4.4 L-18.25 -4.5 -18.5 -4.45 -18.3 -3.75 -18.65 -3.5 -19.35 -4.45 -21.55 -4.4 -22.7 -3.8 -22.75 -3.75 -22.9 -3.6 -22.95 -3.75 -23.8 -3.6 -24.0 -3.6 Q-24.0 -3.15 -24.15 -3.35 L-25.55 -3.35 -25.5 -2.85 M-6.95 -13.4 Q-8.2 -12.8 -8.45 -12.3 L-8.6 -12.3 Q-8.5 -15.3 -5.95 -15.1 -3.45 -14.9 -3.45 -12.55 L-3.7 -10.55 -3.85 -10.55 Q-4.1 -13.3 -4.45 -14.15 L-5.45 -14.15 Q-5.55 -14.1 -6.95 -13.4 M-19.15 -14.25 Q-19.15 -15.15 -16.9 -15.6 -14.5 -16.1 -13.3 -14.35 L-13.65 -13.9 -18.15 -14.0 Q-18.4 -13.75 -18.0 -13.1 -18.0 -12.9 -18.4 -12.85 -19.15 -13.7 -19.15 -14.25 M-13.85 -6.3 L-14.15 -5.9 Q-14.65 -6.3 -14.65 -6.95 L-14.55 -7.55 -14.15 -7.75 Q-13.75 -7.5 -13.75 -6.85 L-13.85 -6.3 M-18.55 -5.0 L-18.7 -5.35 -18.6 -4.9 -18.4 -4.85 -18.55 -5.0 M-19.95 -5.85 L-19.95 -5.9 -20.6 -5.1 -19.65 -5.0 -19.95 -5.85 M-6.85 -1.05 Q-6.25 -2.55 -5.45 -2.9 L-5.5 -1.8 Q-5.7 -1.3 -6.6 -1.05 L-6.85 -1.05 M-9.15 6.55 Q-9.15 5.3 -9.3 5.0 -9.6 4.35 -10.95 3.55 -11.75 4.15 -12.4 4.15 L-12.9 4.15 -13.05 4.25 -13.15 4.6 Q-13.05 4.85 -13.65 4.85 L-14.75 4.85 -14.55 4.9 -13.7 5.25 -13.55 4.9 -13.45 5.4 -12.65 5.75 Q-12.65 6.1 -13.15 6.6 L-13.25 6.55 -13.15 8.1 -12.4 7.35 -12.1 7.4 -11.65 7.6 -11.55 7.75 -12.1 8.3 -12.05 8.3 Q-11.2 8.2 -10.0 9.3 L-8.7 8.9 -8.75 8.85 -9.4 8.7 -9.15 6.55 M-13.6 0.75 L-13.55 1.2 Q-13.55 2.0 -15.15 2.75 L-15.3 2.65 -13.8 0.65 -13.6 0.75 M-14.05 13.5 L-14.8 14.1 -15.75 14.6 -16.85 14.4 -17.55 14.1 -15.3 13.75 -14.15 13.35 -14.05 13.5 M-29.7 2.7 L-29.65 2.85 -29.85 2.75 -29.8 2.75 -29.7 2.7 M-28.25 3.35 Q-28.1 3.6 -28.1 4.2 -28.1 4.85 -28.35 5.3 L-28.7 5.3 -28.7 3.35 -28.25 3.35" fill="#5b5546" fill-rule="evenodd" stroke="none"/>
  </g>
</svg>
