<?xml version="1.0" encoding="UTF-8" standalone="no"?>
<svg xmlns:xlink="http://www.w3.org/1999/xlink" height="39.65px" width="42.35px" xmlns="http://www.w3.org/2000/svg">
  <g transform="matrix(1.0, 0.0, 0.0, 1.0, 2.15, 20.55)">
    <path d="M22.55 -13.7 L25.45 -19.0 Q27.0 -21.4 27.75 -20.05 28.75 -18.45 28.9 -10.8 L28.75 -10.55 Q29.2 -10.85 30.05 -12.5 30.75 -13.85 31.7 -13.85 35.4 -13.85 35.9 -8.6 36.1 -5.9 35.65 -2.3 35.65 -1.6 36.05 -0.95 L36.9 0.35 Q38.0 2.65 37.4 7.4 38.7 8.35 39.55 9.9 L40.2 12.0 Q40.2 14.2 34.1 16.05 L27.85 17.45 Q26.55 17.45 25.6 16.2 L24.8 15.0 Q21.05 15.0 17.5 17.05 14.0 19.1 12.85 19.1 10.95 19.1 10.55 16.6 L10.55 13.1 Q7.8 14.1 6.95 16.25 L6.4 17.6 Q6.05 18.15 5.25 18.15 1.1 18.15 -0.9 15.0 -2.15 12.95 -2.15 11.05 -2.15 9.7 1.65 -3.45 5.45 -16.7 6.0 -16.7 7.25 -16.7 7.5 -14.9 L7.5 -12.7 8.6 -12.95 10.05 -13.15 Q15.0 -13.15 16.3 -11.85 17.65 -10.55 19.75 -10.55 20.75 -10.55 22.55 -13.7" fill="#5b5546" fill-opacity="0.3019608" fill-rule="evenodd" stroke="none"/>
    <path d="M33.85 -3.7 L31.5 -2.0 Q28.55 -0.6 23.8 -0.6 L15.25 -0.65 Q8.45 -1.4 5.35 -5.1 6.4 -10.5 18.45 -8.8 28.3 -7.4 33.6 -4.4 L33.85 -3.7" fill="#5b5546" fill-opacity="0.3019608" fill-rule="evenodd" stroke="none"/>
    <path d="M29.15 4.6 Q26.5 8.15 22.25 10.75 20.1 12.05 18.45 12.65 17.75 12.65 17.35 12.1 L16.55 11.2 16.4 11.55 16.3 10.1 Q16.3 7.2 19.45 4.6 23.3 1.45 28.75 3.15 L29.15 4.6" fill="#5b5546" fill-opacity="0.3019608" fill-rule="evenodd" stroke="none"/>
    <path d="M9.8 -2.55 L9.75 -3.5 Q9.75 -4.65 11.0 -5.05 L20.8 -6.5 Q21.35 -11.35 27.45 -10.75 33.3 -10.25 35.75 -6.5 34.35 -5.1 33.05 -5.4 L24.5 -6.25 Q25.15 -4.5 24.25 -3.55 22.6 -1.75 13.75 -1.75 10.5 -1.75 9.8 -2.55" fill="#669900" fill-opacity="0.3019608" fill-rule="evenodd" stroke="none"/>
    <path d="M27.8 -8.4 L28.05 -7.85 23.5 -4.35 21.25 -4.35 23.15 -7.0 Q24.75 -8.7 27.55 -8.85 L27.8 -8.4" fill="#669900" fill-opacity="0.3019608" fill-rule="evenodd" stroke="none"/>
    <path d="M28.8 9.3 Q26.95 11.05 25.05 11.05 23.8 11.05 22.05 10.05 L20.1 12.25 Q19.2 13.3 18.05 13.3 16.3 13.3 16.25 12.05 16.2 11.55 16.4 11.55 L13.3 11.3 13.2 11.05 Q13.05 10.9 13.05 10.15 L13.15 9.45 Q13.45 8.7 14.55 8.3 13.65 7.95 13.2 7.55 13.05 7.1 13.05 6.35 L13.7 6.1 15.05 5.85 Q15.7 5.85 16.1 6.35 16.55 6.8 17.15 6.8 L22.05 5.8 Q27.55 5.2 29.4 5.9 30.35 6.25 30.35 7.05 30.35 7.8 28.8 9.3" fill="#669900" fill-opacity="0.3019608" fill-rule="evenodd" stroke="none"/>
    <path d="M24.2 9.65 L23.95 11.25 Q23.25 12.45 20.8 12.05 L21.4 12.45 Q21.7 12.75 21.7 13.55 21.7 14.35 21.2 15.05 20.65 15.8 20.05 15.8 L14.7 8.65 Q14.7 7.35 17.25 5.4 20.1 3.15 22.05 4.8 22.3 4.3 22.3 5.55 L20.8 7.05 20.7 7.3 Q23.25 7.0 23.95 8.2 L24.2 9.65" fill="#669900" fill-opacity="0.3019608" fill-rule="evenodd" stroke="none"/>
    <path d="M12.45 -12.7 L11.8 -13.3 Q9.05 -13.3 8.25 -12.7 7.45 -12.15 7.05 -12.15 L6.5 -12.15 Q7.7 -11.2 7.7 -10.05 L7.65 -8.65 7.55 -8.45 7.7 -7.05 7.5 -5.9 7.35 -5.1 7.6 -4.85 Q8.65 -3.8 11.3 -4.65 L13.05 -4.65 13.2 -4.55 13.3 -4.15 13.05 -3.9 13.15 -3.9 13.7 -3.9 13.9 -4.9 14.15 -6.15 14.3 -6.15 14.4 -5.6 14.15 -4.6 13.9 -3.95 Q16.65 -4.2 17.3 -6.6 17.7 -7.9 17.4 -9.3 17.4 -10.35 17.2 -10.65 16.65 -11.55 14.8 -11.45 L15.05 -11.15 15.05 -10.8 Q14.95 -10.65 14.55 -10.65 13.9 -10.65 13.0 -11.95 L12.95 -12.05 12.55 -12.1 Q12.4 -12.15 12.4 -12.55 L12.45 -12.7 M17.0 -13.65 L18.65 -13.75 19.65 -13.75 Q22.0 -15.5 22.8 -13.55 23.75 -14.35 24.75 -14.45 L32.85 -13.85 Q33.65 -14.6 34.7 -14.85 L34.7 -13.65 34.05 -13.7 34.7 -13.6 34.7 -13.15 32.65 -13.1 32.15 -13.05 32.2 -13.1 28.55 -13.05 Q27.85 -13.05 27.4 -13.45 26.95 -13.9 26.3 -13.9 24.65 -13.9 23.15 -13.05 L22.95 -12.9 23.05 -9.7 23.0 -8.4 23.05 -8.4 Q24.55 -7.3 23.7 -6.55 23.75 -6.4 30.9 -6.4 L31.75 -6.35 31.65 -6.75 31.75 -6.85 Q31.85 -7.0 32.25 -7.0 L33.4 -6.8 33.4 -9.05 34.0 -9.1 34.45 -8.65 34.35 -7.9 34.4 -6.9 34.2 -6.8 34.2 -6.65 34.85 -6.5 35.0 -11.5 34.75 -12.55 32.6 -13.05 Q36.3 -13.45 36.6 -9.85 36.75 -8.0 36.15 -6.0 36.15 -5.5 35.5 -5.2 L34.7 -5.0 34.7 -4.9 33.95 -4.9 33.9 -4.65 33.65 -4.55 33.65 -4.9 33.45 -4.9 33.8 -3.55 33.55 -1.95 33.65 -1.8 Q33.65 -2.45 33.8 -2.55 L34.15 -2.55 34.45 -1.9 34.7 -1.6 34.7 -0.8 34.1 -1.15 Q34.75 0.15 34.75 2.75 34.9 3.95 34.7 4.55 L34.7 5.85 33.05 6.85 32.3 6.1 Q32.3 5.6 32.7 5.2 L31.65 5.2 32.1 6.2 32.15 7.5 32.1 8.75 31.9 9.25 33.2 9.2 34.7 9.3 34.7 10.15 Q36.05 10.45 36.65 11.2 37.15 11.8 37.15 13.95 L36.35 16.35 35.25 18.65 Q34.5 18.5 34.5 17.7 L35.2 15.7 Q35.85 13.95 35.85 12.65 35.85 12.0 34.7 11.85 33.25 11.65 31.65 10.55 L31.2 10.55 31.15 10.75 31.05 10.8 30.85 10.8 Q30.05 10.35 28.65 10.1 L28.95 10.0 29.6 9.9 Q30.15 9.5 31.2 9.35 L31.4 8.75 31.4 7.65 31.15 6.65 30.9 5.6 30.95 5.15 29.75 5.0 29.15 4.65 28.4 5.25 Q27.95 5.6 26.55 5.6 24.1 5.6 23.05 4.05 L22.85 3.75 Q22.7 3.8 22.5 4.0 L21.8 4.35 21.5 4.25 20.5 4.4 20.75 6.25 21.05 8.25 21.05 8.4 20.55 8.35 19.55 8.55 19.15 8.25 19.75 7.95 20.05 7.05 Q20.05 5.7 18.9 4.65 L18.65 4.45 16.65 4.05 15.65 3.45 16.0 3.3 14.4 3.05 16.25 3.2 18.65 2.75 20.25 2.7 Q22.2 2.7 22.5 1.4 22.85 1.8 23.45 2.0 L23.45 2.05 23.9 2.75 23.9 2.8 24.15 2.85 24.45 3.35 24.45 3.4 Q25.55 4.35 28.05 4.35 L28.8 4.1 29.4 3.85 29.65 4.2 29.3 4.5 Q31.25 3.7 33.15 4.05 L33.35 3.9 33.15 2.8 Q33.15 1.75 33.55 1.55 L32.95 -0.1 32.75 -0.6 Q31.95 0.2 30.65 0.2 L28.05 -0.15 27.55 -0.25 Q27.5 -1.15 26.9 -1.6 L28.05 -1.65 28.9 -1.25 Q29.7 -0.9 30.05 -0.9 31.55 -0.9 32.3 -1.55 L32.25 -1.65 32.35 -2.5 32.85 -2.35 32.95 -2.9 32.7 -4.9 31.55 -5.05 31.6 -5.15 29.35 -5.05 26.05 -5.15 Q24.05 -5.15 23.25 -6.4 L22.85 -7.55 22.6 -6.0 Q22.15 -3.7 22.15 -2.2 L22.3 -1.65 22.25 -1.45 22.7 -1.45 22.2 -0.65 21.55 -0.6 21.3 -0.4 Q20.0 -0.4 18.65 -0.95 17.45 -1.5 17.45 -1.8 L17.45 -2.25 15.75 -2.9 14.9 -2.9 Q12.85 -2.9 12.1 -3.5 12.6 -3.05 13.65 -2.8 L13.65 -2.55 Q13.65 -2.4 13.3 -2.4 13.7 -1.8 13.7 -0.45 L13.65 0.7 12.8 1.95 12.55 1.85 Q12.4 1.75 12.4 1.35 L12.9 -1.9 Q12.9 -2.15 11.65 -2.45 L11.5 -2.5 7.05 -3.4 7.8 -3.45 6.9 -4.0 Q6.45 -3.65 5.55 -3.35 L4.35 -3.05 4.2 -3.35 3.95 -3.3 4.0 -2.6 3.9 0.35 Q6.75 0.75 6.75 1.4 L6.75 1.7 Q9.25 1.85 10.15 3.55 L10.0 4.05 8.8 4.35 7.75 3.75 Q6.75 3.15 4.95 3.1 5.55 3.65 5.55 4.8 L5.3 6.8 5.25 6.85 5.3 7.15 4.85 6.8 4.95 6.55 4.55 4.55 Q4.45 3.8 3.75 3.2 L3.5 2.15 2.5 2.95 Q1.4 4.1 1.4 4.85 1.4 5.9 3.55 9.65 L3.5 10.0 3.05 10.2 2.5 10.25 2.4 10.25 2.15 11.25 2.15 13.25 8.45 13.4 Q8.8 13.5 8.75 13.75 7.95 13.85 7.8 14.1 L3.5 14.25 2.95 14.25 2.45 15.45 Q2.05 16.35 2.05 16.95 L2.4 17.45 2.75 18.25 2.65 18.65 2.5 18.75 1.75 18.85 Q1.1 18.85 0.9 18.45 L0.8 17.3 Q0.8 16.3 1.2 15.25 1.5 14.5 1.95 14.15 L1.6 14.05 Q1.25 13.85 1.25 13.5 L1.45 11.5 1.85 10.2 Q0.8 10.0 0.55 9.0 L0.5 7.15 Q0.35 4.9 0.85 3.25 1.5 1.2 3.0 1.15 L3.0 0.9 3.0 -3.2 2.8 -3.2 2.4 -3.15 2.45 -3.3 Q1.55 -3.55 1.2 -4.55 0.85 -5.5 1.0 -6.75 L0.6 -10.15 Q0.6 -13.2 2.4 -12.75 1.9 -12.35 1.9 -10.35 L2.0 -7.0 Q2.0 -5.8 3.25 -4.95 L3.55 -4.75 3.55 -5.0 3.55 -6.2 3.8 -6.2 4.05 -4.85 4.05 -4.35 4.5 -4.0 Q5.65 -4.2 6.2 -4.9 6.05 -5.3 6.05 -5.65 L6.6 -5.6 6.7 -6.1 Q7.0 -8.0 7.25 -8.6 7.0 -9.7 6.4 -10.6 5.6 -11.8 3.25 -12.25 L3.8 -13.35 Q4.9 -13.15 5.75 -12.65 L5.85 -12.6 Q10.2 -14.15 12.35 -13.5 L13.25 -13.0 17.0 -13.65 M16.7 -12.25 Q17.45 -11.8 17.85 -10.1 L18.2 -5.95 18.15 -4.15 17.95 -3.8 18.25 -2.9 18.45 -2.8 18.45 -2.35 18.65 -2.05 Q19.25 -1.4 20.45 -1.4 21.3 -1.4 21.45 -1.8 L21.8 -2.55 21.95 -2.4 22.05 -5.7 Q22.2 -10.5 21.75 -12.4 L21.55 -12.4 21.7 -12.55 21.5 -13.05 Q20.6 -12.65 18.65 -12.4 L17.35 -12.3 16.7 -12.25 M14.2 -12.1 L14.5 -11.8 15.1 -12.15 14.2 -12.1 M12.3 -6.85 L12.3 -7.45 12.55 -7.45 Q12.65 -7.35 12.75 -7.35 L12.8 -6.95 12.8 -6.55 12.7 -6.55 12.55 -6.4 12.35 -6.45 12.3 -6.85 M17.6 -3.45 L17.4 -3.35 17.55 -3.25 17.6 -3.45 M21.15 -13.5 L20.8 -13.65 20.55 -13.65 21.15 -13.5 M31.95 -8.3 L31.6 -7.7 31.15 -7.15 30.7 -7.4 Q30.55 -7.6 30.55 -8.05 L30.65 -8.6 31.55 -8.8 31.85 -8.75 31.95 -8.3 M29.9 2.6 L30.05 2.7 30.05 3.8 29.8 4.1 Q29.45 3.9 29.45 3.2 L29.55 2.6 29.9 2.6 M22.8 11.35 Q22.65 11.3 22.65 10.9 22.65 10.45 24.8 9.75 27.05 9.05 27.5 10.0 L27.65 10.25 Q25.95 10.1 23.5 11.35 L22.8 11.35 M23.55 12.2 L23.65 13.5 23.55 14.7 Q23.25 15.25 21.85 15.35 L21.75 15.15 22.7 14.15 22.75 13.25 22.75 12.7 Q22.6 12.3 22.1 12.25 L23.55 12.2 M13.05 3.85 L10.65 3.45 13.55 2.45 Q14.05 2.75 14.05 3.35 L14.0 3.7 13.9 3.85 13.05 3.85 M12.9 10.05 L15.6 9.9 16.25 10.9 14.8 10.95 10.7 10.8 7.5 10.45 5.55 9.7 7.05 9.8 Q11.6 9.8 12.4 9.0 L13.15 7.85 Q13.55 8.4 13.55 9.1 L12.9 10.05 M4.95 1.75 L4.1 1.9 4.6 1.8 4.95 1.75 M11.8 14.5 L12.5 14.25 Q14.0 14.3 14.75 14.7 L16.55 15.75 11.8 14.5" fill="#5b5546" fill-rule="evenodd" stroke="none"/>
  </g>
</svg>
