<?xml version="1.0" encoding="UTF-8" standalone="no"?>
<svg xmlns:xlink="http://www.w3.org/1999/xlink" height="8.65px" width="72.25px" xmlns="http://www.w3.org/2000/svg">
  <g transform="matrix(1.0, 0.0, 0.0, 1.0, 35.25, 8.5)">
    <path d="M28.85 -6.3 Q28.85 -7.55 30.9 -7.85 32.95 -8.15 32.95 -7.05 L32.6 -3.85 33.5 -1.2 33.05 -0.8 31.55 -0.6 Q29.3 -0.6 28.85 -2.25 28.65 -3.1 28.85 -4.05 L28.85 -6.3" fill="#b3ab90" fill-rule="evenodd" stroke="none"/>
    <path d="M29.0 -6.05 Q37.0 -4.15 37.0 -2.95 37.0 -1.65 35.25 -1.15 L31.0 -0.75 25.05 -0.85 10.0 -1.0 -29.75 -2.35 Q-32.65 -2.9 -32.95 -3.95 -33.15 -4.55 -32.75 -6.0 L-32.5 -6.65 Q-25.3 -6.85 -24.35 -7.75 L-23.7 -8.25 -21.0 -8.5 Q-19.75 -8.5 -19.5 -7.9 -19.25 -7.3 -18.0 -7.3 L-4.35 -7.7 13.5 -8.1 Q20.5 -8.1 29.0 -6.05" fill="#5b5546" fill-opacity="0.3019608" fill-rule="evenodd" stroke="none"/>
    <path d="M-12.2 -4.75 Q-11.5 -4.65 -11.5 -3.8 -11.5 -3.0 -12.2 -2.85 L-13.5 -2.6 9.7 -3.4 24.0 -4.2 33.25 -3.55 33.5 -3.3 33.75 -2.35 Q33.75 -0.55 25.2 -0.85 L16.35 -1.55 -0.3 -0.85 -17.0 -0.2 Q-27.85 -0.2 -27.65 -1.0 -27.55 -1.5 -28.3 -1.65 L-35.25 -2.2 Q-32.55 -3.75 -24.25 -4.3 L-14.0 -4.9 -12.2 -4.75" fill="#5b5546" fill-opacity="0.3019608" fill-rule="evenodd" stroke="none"/>
    <path d="M-34.45 -7.55 L-34.4 -7.8 -34.2 -7.8 Q-33.85 -8.25 -33.6 -7.8 L-25.7 -7.95 -24.15 -8.0 Q-3.95 -8.0 -2.8 -7.8 L-1.95 -7.75 19.0 -7.8 33.85 -7.8 34.25 -7.8 34.3 -7.85 Q34.8 -7.45 34.8 -6.8 L34.55 -6.4 34.4 -6.2 34.4 -6.15 34.5 -5.9 34.3 -5.9 34.55 -3.45 34.95 -1.25 34.35 -0.9 34.3 -0.3 34.25 -0.05 33.45 0.15 32.6 -0.05 31.75 -0.05 -33.25 -0.25 -33.35 -0.05 -33.3 -0.05 -33.6 -0.05 Q-34.05 -0.05 -34.05 -1.9 L-34.2 -1.95 -34.45 -2.1 -34.45 -2.7 Q-34.25 -4.5 -34.2 -6.3 L-34.5 -7.35 -34.95 -7.4 -34.45 -7.4 -34.45 -7.5 -34.45 -7.55 M-33.3 -6.85 Q-32.55 -5.15 -32.55 -3.95 L-32.95 -2.45 -33.05 -2.1 -33.1 -2.05 -33.05 -0.9 -33.05 -0.8 -31.1 -0.95 -25.7 -0.95 -7.55 -1.0 -7.7 -1.75 -7.65 -2.7 -7.5 -2.7 -7.35 -1.0 -6.0 -1.0 -6.1 -1.85 -6.05 -3.25 -5.7 -3.25 -5.5 -1.8 -5.6 -1.0 14.15 -1.05 Q13.9 -1.7 13.9 -2.7 L14.25 -2.7 14.4 -2.6 14.45 -2.3 14.3 -1.15 14.25 -1.05 16.05 -1.05 16.0 -1.2 16.0 -2.5 16.4 -2.5 16.6 -1.8 16.55 -1.05 30.95 -1.15 32.85 -0.9 33.1 -1.3 33.05 -1.35 33.05 -1.85 33.1 -2.6 32.3 -2.6 31.15 -2.85 32.3 -3.05 33.15 -2.95 33.5 -5.15 33.75 -6.35 33.6 -6.6 33.35 -6.9 26.4 -6.9 -15.1 -7.05 -25.7 -7.1 -26.15 -7.1 -32.0 -7.25 -33.35 -7.25 -33.3 -6.85 M-28.05 -3.35 L-27.7 -3.05 -27.65 -2.6 Q-27.65 -1.2 -28.6 -1.15 -28.2 -1.4 -28.3 -2.25 -28.4 -3.1 -28.05 -3.35 M-25.45 -2.9 L-25.35 -2.1 -25.45 -1.05 -25.55 -1.05 -25.7 -2.05 -25.7 -2.2 -25.65 -2.9 -25.45 -2.9 M-26.3 -2.5 L-26.55 -1.8 -26.85 -1.05 -27.0 -1.7 Q-27.0 -2.4 -26.4 -2.7 -26.3 -2.95 -26.3 -2.5" fill="#5b5546" fill-rule="evenodd" stroke="none"/>
  </g>
</svg>
