<?xml version="1.0" encoding="UTF-8" standalone="no"?>
<svg xmlns:xlink="http://www.w3.org/1999/xlink" height="54.65px" width="59.65px" xmlns="http://www.w3.org/2000/svg">
  <g transform="matrix(1.0, 0.0, 0.0, 1.0, 29.7, 27.6)">
    <path d="M26.95 -6.35 L25.25 5.0 Q24.45 10.55 24.15 18.15 24.0 22.9 23.1 24.0 22.0 25.35 17.5 25.4 L2.75 25.25 -19.6 24.5 -20.85 23.5 -21.05 25.35 Q-21.65 27.05 -23.5 27.05 -24.85 27.05 -26.0 10.0 L-26.85 -7.05 Q-26.85 -13.75 -25.9 -16.55 -24.45 -21.0 -19.35 -24.5 L-19.55 -24.6 -19.6 -25.4 Q-19.6 -26.85 -12.1 -27.4 -4.6 -27.95 4.35 -27.1 28.25 -24.85 28.25 -16.55 L26.95 -6.35 M17.05 19.5 L17.0 19.55 18.25 19.5 18.25 18.3 17.75 18.5 Q17.75 19.1 17.05 19.5 M-18.4 -19.65 L-19.25 -19.5 Q-18.25 -17.95 -18.25 -15.75 -18.25 -13.4 -19.35 -12.0 L-19.35 -8.5 Q-17.95 -10.6 -18.0 -13.95 L-18.1 -19.6 -18.4 -19.65" fill="#ffffff" fill-rule="evenodd" stroke="none"/>
    <path d="M2.35 -23.4 L9.55 -24.3 15.85 -23.9 21.1 -23.5 Q24.45 -23.5 25.5 -22.35 26.05 -21.75 25.9 -21.15 25.9 -20.5 24.45 -18.7 22.95 -16.95 22.95 -15.95 24.9 -11.35 24.9 -10.5 24.9 -7.55 21.25 -7.45 22.0 -5.9 23.7 -4.95 24.9 -4.25 24.9 -2.65 24.9 -1.6 24.15 -0.8 23.05 0.35 20.75 0.5 22.4 0.55 22.9 2.25 23.25 3.45 23.05 4.55 25.8 4.6 26.45 6.45 26.95 7.95 26.1 8.8 L26.0 8.9 Q28.35 8.5 29.4 10.05 29.95 10.95 29.95 11.9 29.95 12.85 29.45 13.65 28.75 14.75 27.25 15.0 L27.45 15.35 27.55 16.25 Q27.55 17.35 26.75 18.1 25.6 19.2 22.85 19.1 23.65 20.9 21.95 23.35 20.1 25.9 17.45 25.9 15.4 25.9 14.45 23.85 L10.25 24.3 6.1 24.55 Q-1.2 24.55 -2.65 23.4 -2.8 22.2 -3.65 22.2 L-6.9 22.6 -10.15 22.95 Q-19.5 22.95 -22.35 21.3 -23.65 20.55 -23.65 18.7 -23.65 17.3 -22.85 16.1 -22.05 14.9 -22.05 14.15 -22.05 13.1 -21.65 12.35 L-20.8 10.65 Q-27.0 11.2 -28.95 9.65 -29.9 8.85 -29.65 7.75 -29.65 6.6 -28.65 5.75 L-24.45 2.4 Q-26.4 2.05 -26.4 0.0 -26.4 -1.05 -23.45 -6.2 -20.5 -11.35 -19.6 -11.9 L-18.4 -12.4 Q-24.3 -12.25 -25.85 -14.55 -26.95 -16.25 -25.6 -18.2 L-26.85 -19.35 -27.2 -20.05 -27.2 -21.7 Q-26.9 -22.7 -25.5 -23.4 -21.6 -25.3 -7.5 -25.3 -2.65 -25.3 0.15 -24.35 L2.35 -23.4" fill="#666666" fill-opacity="0.3019608" fill-rule="evenodd" stroke="none"/>
    <path d="M-22.35 -11.3 L-21.7 -4.85 Q-20.45 7.7 -13.75 10.5 -14.1 8.75 -14.05 7.55 -13.85 5.25 -11.5 5.25 -8.9 5.25 -8.8 7.85 -8.75 9.25 -9.25 11.8 L-7.3 11.45 -5.5 11.05 Q-4.05 11.05 -2.3 12.4 -0.55 13.8 -0.5 15.0 2.25 14.15 4.95 16.7 7.9 19.5 9.05 19.5 17.75 19.5 18.4 8.25 L18.65 0.5 Q19.0 -3.0 21.0 -3.0 23.9 -3.0 24.5 4.6 24.8 8.4 24.5 12.35 L24.5 19.75 Q23.6 25.0 19.0 25.0 L15.55 24.6 13.25 23.0 11.6 24.25 Q10.65 25.0 8.75 25.0 6.1 25.0 5.1 24.0 4.6 23.0 4.25 23.0 L1.9 23.5 -0.5 24.0 Q-20.5 24.0 -24.5 22.5 -25.85 22.0 -25.65 21.15 -25.1 20.2 -25.1 19.8 -26.2 13.8 -26.65 7.45 -27.6 -5.1 -24.35 -10.5 -22.8 -13.15 -22.35 -11.3 M-20.85 18.75 L-20.4 17.4 -21.0 17.05 -21.0 17.25 -20.85 18.75" fill="#666666" fill-opacity="0.3019608" fill-rule="evenodd" stroke="none"/>
    <path d="M4.2 -0.4 Q6.0 0.35 6.0 1.85 6.0 3.7 4.0 4.95 1.45 6.55 -3.5 6.55 -5.1 6.55 -5.5 5.55 L-5.6 4.5 Q-5.6 -0.1 0.2 -0.8 2.5 -1.1 4.2 -0.4" fill="#666666" fill-opacity="0.3019608" fill-rule="evenodd" stroke="none"/>
    <path d="M-24.5 -3.0 Q-24.5 -3.8 -23.85 -4.15 -22.4 -4.8 -17.6 -4.85 L-17.85 -6.4 -18.0 -8.05 Q-17.0 -11.3 -16.05 -13.0 -14.1 -16.35 -14.1 -9.3 -14.1 -5.05 -14.5 -4.25 -16.1 -1.25 -23.0 -1.25 -24.5 -1.25 -24.5 -3.0" fill="#666666" fill-opacity="0.3019608" fill-rule="evenodd" stroke="none"/>
    <path d="M19.45 -19.8 L20.25 -18.6 20.0 -18.75 20.05 -18.1 19.85 -15.85 20.15 -3.2 20.45 15.75 20.45 17.35 20.1 18.55 20.1 18.75 Q20.1 19.3 19.55 19.95 18.85 20.8 17.65 20.8 L16.3 20.5 10.9 20.8 10.4 21.0 9.55 21.0 9.6 21.15 -12.5 21.15 -12.6 21.1 -11.9 21.05 -11.5 21.05 -11.5 21.0 -13.75 21.0 Q-17.6 20.9 -19.15 20.05 -20.75 19.15 -20.5 18.9 L-20.35 18.6 -20.65 18.1 -20.8 17.7 -20.8 17.4 -20.85 16.75 -21.0 16.75 -21.15 17.35 -21.6 18.15 -21.7 16.75 -22.8 16.7 -23.0 16.95 Q-23.8 17.2 -23.8 15.9 L-23.55 15.1 -23.65 10.25 -23.55 6.65 -23.75 6.4 -23.45 6.0 -23.15 5.45 Q-22.95 5.45 -22.85 5.95 L-21.0 5.9 -21.0 -0.25 -21.1 -0.25 -22.5 -0.5 -21.0 -0.6 -20.95 -5.4 -21.6 -5.45 -21.65 -5.35 -21.8 -5.35 -21.8 -5.45 -23.4 -5.55 -23.7 -5.95 -23.5 -6.2 -23.6 -9.8 -23.5 -14.65 -23.75 -15.45 Q-23.75 -16.75 -22.95 -16.5 L-22.75 -16.25 -21.5 -16.3 -20.8 -16.3 -20.8 -18.45 -20.75 -19.2 -20.15 -20.1 -19.85 -20.55 -19.25 -20.85 -18.6 -21.1 -4.55 -21.2 8.65 -20.9 9.95 -20.85 12.9 -20.9 18.0 -20.55 Q18.7 -20.65 19.4 -19.9 L19.45 -19.9 19.45 -19.8 M16.6 -19.9 L15.25 -20.1 8.8 -20.05 8.65 -20.05 Q6.05 -19.95 1.65 -20.15 -4.6 -20.45 -17.55 -20.45 -19.25 -20.45 -19.9 -19.2 L-20.15 -18.25 -20.2 -18.3 -20.2 -18.15 -20.15 -18.15 -20.15 -18.2 -19.85 -18.5 -20.05 -17.7 -20.0 -16.3 -18.2 -16.45 -17.2 -16.35 -17.0 -16.25 -16.75 -6.65 Q-16.75 -5.9 -17.25 -5.8 -17.35 -5.4 -17.95 -5.4 L-19.95 -5.4 -19.9 -2.7 -18.95 -2.8 -17.2 -2.8 Q-17.5 -2.15 -18.5 -2.15 L-19.9 -2.15 -19.9 -0.65 -18.25 -0.75 -18.05 -0.4 Q-18.25 -0.1 -19.35 -0.1 L-19.9 -0.1 -19.8 5.85 -18.0 5.85 Q-17.4 5.85 -17.3 6.25 -16.8 6.35 -16.8 7.1 L-17.05 16.7 -17.25 16.8 -18.25 16.9 -19.8 16.8 -20.0 18.15 -19.95 18.2 -19.55 18.85 Q-19.5 19.3 -18.45 19.5 L-14.7 19.95 -14.15 20.05 -13.85 17.3 Q-13.5 14.8 -12.95 14.05 -12.7 14.75 -12.7 15.8 -12.7 16.75 -13.15 18.75 L-13.5 20.1 -11.55 20.1 -11.6 19.55 -11.35 17.7 -10.95 15.85 -10.7 15.85 -10.5 18.05 -10.9 20.1 -8.8 20.1 -8.85 19.75 -8.8 18.55 -8.05 17.3 Q-7.6 17.55 -7.6 18.2 L-7.8 19.8 -7.85 20.1 -2.15 20.05 -2.3 19.4 -2.0 18.1 -1.6 16.95 Q-1.15 17.6 -1.15 18.6 L-1.65 20.05 1.95 20.05 1.9 19.35 1.75 17.4 Q2.45 16.95 2.65 17.95 L2.7 19.35 2.7 20.05 5.6 20.05 5.3 18.2 Q6.1 17.4 6.1 19.25 L6.05 20.05 9.9 20.05 10.5 20.15 10.65 20.15 10.6 19.95 Q10.6 19.7 10.95 19.65 L10.6 18.05 10.3 16.35 Q10.3 16.05 10.55 16.0 L10.8 16.0 Q11.5 16.7 11.5 18.15 L11.25 19.6 13.0 19.55 12.5 16.35 11.55 12.65 11.7 12.65 12.65 16.0 Q12.5 14.9 12.5 13.65 12.5 13.35 12.75 13.3 L12.95 13.3 13.95 18.9 13.75 19.15 13.15 17.95 13.4 19.25 13.4 19.55 15.9 19.5 16.25 19.4 16.7 19.5 16.9 19.5 18.3 19.55 Q18.95 19.15 18.9 17.9 L19.1 17.5 19.05 17.2 19.05 15.7 19.1 10.25 17.25 10.4 Q17.1 10.6 17.1 10.1 L17.2 9.9 19.0 9.9 19.1 10.05 19.2 -0.05 19.3 -4.05 Q18.65 -4.7 18.7 -6.25 L18.95 -8.95 19.15 -18.4 18.1 -19.4 16.6 -19.9 M11.1 -18.9 L11.45 -18.2 11.15 -17.4 10.6 -16.5 10.45 -16.5 10.25 -17.3 Q10.8 -18.2 10.8 -18.85 L11.1 -18.9 M7.0 -19.0 L7.2 -17.5 7.15 -16.8 6.9 -16.55 Q6.65 -16.85 6.65 -17.45 L6.75 -19.0 7.0 -19.0 M1.8 -18.95 L1.95 -17.85 1.8 -17.05 1.55 -17.05 1.5 -17.9 1.6 -18.95 1.8 -18.95 M1.4 -0.4 Q1.35 -1.35 0.2 -2.0 -0.8 -2.65 -1.6 -1.75 L-3.0 0.1 Q-3.15 0.5 -2.45 1.3 L0.35 0.95 Q1.4 0.45 1.4 -0.4 M1.85 -6.65 Q4.15 -5.9 5.15 -4.45 6.25 -2.95 6.3 -0.75 6.35 0.85 5.7 2.2 L5.7 2.25 5.65 2.25 5.55 2.5 5.65 2.6 5.8 2.7 5.6 2.65 5.45 2.6 5.15 3.05 2.5 6.05 2.55 6.1 1.8 6.3 1.5 6.4 -0.85 6.5 -1.25 6.55 -1.35 6.5 -1.7 6.5 -3.75 5.65 -4.05 5.55 -4.1 5.55 -4.15 5.5 -4.3 5.4 -4.4 5.3 -4.55 5.2 Q-6.1 3.55 -6.6 2.15 -7.15 0.7 -6.9 -1.45 -6.65 -3.65 -5.25 -5.1 -3.9 -6.5 -2.1 -6.95 L1.85 -6.65 M5.3 -0.7 Q5.25 -2.55 4.35 -3.85 3.35 -5.2 1.4 -5.85 L-1.95 -6.1 Q-3.4 -5.6 -4.55 -4.4 L-4.5 -4.4 Q-5.65 -3.15 -5.9 -1.35 -6.15 0.5 -5.65 1.8 L-4.2 4.1 -3.95 3.1 Q-3.7 2.25 -3.25 1.9 -4.5 0.5 -3.85 -0.4 L-2.35 -2.45 Q-1.0 -3.95 0.75 -2.85 L0.7 -2.85 Q2.35 -1.85 2.4 -0.45 2.5 1.05 0.75 1.85 -0.75 2.55 -2.75 2.25 L-3.05 2.1 -2.9 2.6 -3.4 3.9 -3.7 4.6 -3.4 4.75 -1.7 5.4 -1.75 4.8 Q-1.75 3.75 -1.35 3.5 -0.95 3.9 -0.95 4.9 L-1.0 5.5 1.2 5.4 0.85 4.75 Q0.85 4.15 1.25 4.05 L1.85 5.3 2.5 4.7 2.2 4.45 1.9 4.05 Q1.9 3.2 2.4 2.75 L2.8 3.65 3.05 4.1 4.35 2.5 4.35 2.45 4.55 2.2 3.1 1.4 3.1 1.05 Q3.55 1.05 4.75 1.9 L4.75 1.85 4.3 1.3 4.95 1.45 Q5.35 0.45 5.3 -0.7 M16.7 -0.3 L16.95 0.8 16.9 1.65 16.7 1.7 16.55 -0.25 16.7 -0.3 M21.85 -21.5 L21.7 -20.45 21.45 -20.45 21.35 -21.5 21.4 -22.5 21.7 -22.5 21.85 -21.5 M23.65 -24.0 L18.1 -24.35 Q9.85 -24.75 -6.6 -24.75 L-19.7 -24.35 -19.7 -24.25 -22.75 -24.25 -22.75 -24.3 -24.05 -23.95 Q-24.55 -21.8 -24.65 -18.8 L-24.5 13.3 -24.5 23.5 -24.3 23.5 -24.35 22.4 -24.3 21.0 Q-24.2 20.35 -23.55 19.6 L-23.15 19.85 Q-23.75 20.65 -23.75 22.0 L-23.65 23.55 -21.4 23.7 -21.95 21.35 -21.85 19.5 -21.55 19.5 -20.8 22.2 -20.45 23.75 -19.7 23.8 -19.7 23.95 -19.45 23.95 Q-19.45 22.45 -19.05 21.7 -18.65 22.85 -18.6 23.95 L-15.55 23.9 -15.65 23.55 -15.9 22.65 Q-15.9 21.95 -15.6 21.75 -14.85 22.75 -14.85 23.8 L-14.85 23.9 -11.3 23.9 -11.3 23.25 -11.25 22.2 -11.2 22.05 -10.55 22.05 -10.6 23.9 -7.85 23.85 Q-7.8 22.4 -7.55 22.05 L-7.35 22.05 Q-7.15 22.9 -7.1 23.85 L-2.45 23.85 -2.6 23.7 -2.3 23.7 -2.3 23.55 Q-2.3 22.55 -1.8 22.4 L-1.55 23.55 -1.55 23.85 15.05 23.75 14.95 23.1 15.05 22.05 15.2 22.05 15.4 23.05 15.35 23.75 18.55 23.75 18.45 22.1 Q18.45 21.05 18.65 20.7 L19.2 20.95 Q18.8 21.4 18.8 22.4 L18.75 23.75 20.75 23.75 21.3 21.15 21.95 18.2 22.25 18.2 22.5 19.85 Q22.5 20.85 21.6 23.75 L23.4 23.75 24.5 23.75 Q24.25 23.0 24.25 21.65 24.55 -6.1 23.95 -24.0 L23.65 -24.0 M25.1 -25.3 Q25.75 -0.55 25.75 21.6 25.9 24.4 25.0 24.95 L21.2 24.95 21.05 25.05 21.0 24.95 -7.15 24.95 Q-7.25 25.35 -7.5 25.6 L-7.75 24.95 -10.5 24.95 -10.5 25.15 -10.55 25.25 -10.95 24.95 -18.75 24.95 -18.9 25.5 -19.3 24.95 -20.4 24.95 Q-20.4 25.4 -20.6 25.45 L-20.75 25.55 -20.95 24.95 -21.0 24.95 -22.75 24.9 -22.75 24.8 -24.5 24.65 -25.15 24.85 -25.3 24.95 -25.4 24.5 -25.65 24.45 -25.4 24.45 -25.55 23.4 -25.75 18.85 -25.4 -24.35 Q-25.7 -24.5 -25.55 -25.15 L-25.5 -25.15 -22.75 -25.3 -12.4 -25.6 9.55 -25.4 25.1 -25.3 M21.7 13.1 L21.35 14.8 20.95 16.55 20.6 16.55 20.55 15.5 Q20.55 15.1 21.0 14.15 L21.7 13.1 M17.8 7.65 L16.55 7.45 16.55 7.15 17.55 7.15 18.75 7.4 17.8 7.65 M8.65 12.0 L8.9 13.25 8.45 17.4 7.9 17.65 7.8 15.45 Q7.8 14.5 7.95 14.05 L8.45 12.0 8.65 12.0 M6.6 14.95 L6.35 17.8 6.05 17.85 Q5.75 16.7 5.75 14.95 L5.9 12.8 6.2 12.75 Q6.6 13.6 6.6 14.95 M4.2 16.35 Q3.95 15.65 3.95 14.5 L3.85 13.6 Q3.85 12.8 4.4 12.65 L4.65 14.5 4.35 16.35 4.2 16.35 M4.35 22.05 L5.25 22.05 5.25 22.3 5.2 23.0 4.85 23.25 Q4.35 22.7 4.35 22.1 L4.35 22.05 M16.45 18.0 L16.4 18.6 16.15 18.8 14.95 16.8 14.95 16.55 Q15.5 16.55 16.0 17.2 L16.45 18.0 M11.75 23.2 L11.9 21.7 12.15 21.7 12.4 23.5 12.1 23.75 11.85 23.65 11.75 23.2 M-22.3 -15.6 L-23.1 -15.65 -22.9 -12.6 -22.7 -8.4 -22.7 -6.4 -21.95 -6.5 -21.85 -7.7 Q-21.65 -8.9 -21.0 -9.15 L-21.35 -6.5 -20.95 -6.55 -20.45 -6.55 -19.95 -6.55 -19.2 -6.55 -19.25 -7.3 Q-19.25 -8.25 -18.9 -8.55 -18.5 -8.1 -18.5 -7.3 L-18.55 -6.5 -18.0 -6.4 -18.05 -6.6 -18.05 -7.45 Q-18.05 -13.4 -17.65 -15.35 L-17.85 -15.35 -20.0 -15.55 -20.6 -15.55 -22.3 -15.6 M-12.2 -18.35 Q-11.85 -17.85 -11.85 -16.7 L-11.75 -14.85 -11.9 -14.6 Q-12.45 -14.9 -12.55 -15.65 L-12.6 -16.7 -12.55 -18.3 -12.2 -18.35 M-8.65 12.3 L-8.85 13.3 -9.25 13.3 -9.45 11.7 -9.3 11.4 -9.15 11.4 -8.7 11.4 -8.65 12.3 M-13.5 10.15 L-13.3 10.5 -13.95 13.25 -14.3 13.25 -14.45 11.9 Q-14.45 10.45 -13.85 10.1 L-13.5 10.15 M-18.1 7.05 L-18.05 6.85 -22.75 6.85 -22.75 8.85 -22.95 13.05 -23.15 16.1 -22.75 16.1 -22.65 16.1 -22.35 16.05 -21.75 16.05 -21.7 16.05 -21.6 15.25 -21.35 14.25 -21.1 15.3 -21.0 16.05 -20.9 16.05 -20.9 16.0 -19.7 15.95 Q-20.15 15.0 -20.15 13.6 L-20.1 13.05 -19.95 13.05 -18.95 15.05 -18.95 15.9 -17.9 15.8 -17.7 15.8 Q-18.1 13.85 -18.1 7.9 L-18.1 7.05 M-11.2 21.05 L-10.65 21.0 -11.2 21.0 -11.2 21.05 M-0.5 12.9 Q-0.1 13.35 -0.1 14.2 -0.1 14.95 -0.4 15.75 -0.85 15.15 -0.85 14.15 -0.85 13.2 -0.5 12.9 M-3.15 17.15 Q-3.15 18.05 -3.4 18.5 L-3.7 17.15 -3.6 15.6 -3.35 15.6 -3.15 17.15 M-6.2 17.95 L-6.4 18.0 -6.55 16.35 Q-6.55 15.4 -7.15 15.0 -6.0 14.35 -6.0 16.6 L-6.2 17.95" fill="#5a493f" fill-rule="evenodd" stroke="none"/>
  </g>
</svg>
