<?xml version="1.0" encoding="UTF-8" standalone="no"?>
<svg xmlns:xlink="http://www.w3.org/1999/xlink" height="184.4px" width="332.65px" xmlns="http://www.w3.org/2000/svg">
  <g transform="matrix(1.0, 0.0, 0.0, 1.0, 0.0, -81.6)">
    <path d="M207.0 188.25 L210.3 188.15 211.4 201.5 212.5 215.35 Q212.5 230.15 211.2 266.0 L192.85 266.0 191.85 265.6 Q190.5 264.6 188.05 263.8 175.8 259.75 135.5 259.75 123.1 259.75 110.6 261.65 98.15 263.5 83.75 263.5 L30.8 260.55 0.0 259.05 0.0 189.2 6.0 189.25 18.9 188.15 31.75 187.0 Q32.4 187.0 36.1 188.25 42.45 189.65 56.05 190.4 100.05 192.85 207.0 188.25 M332.65 260.25 L331.95 266.0 262.85 266.0 262.75 257.45 262.5 233.25 Q262.5 228.25 264.65 207.95 266.75 187.6 266.75 172.85 L265.65 160.5 Q264.5 149.35 264.5 148.1 264.5 135.0 262.65 108.0 L261.7 93.5 Q264.15 92.0 265.25 88.15 L266.3 83.75 Q266.85 81.75 267.75 81.75 L277.2 81.6 278.65 84.25 Q282.5 91.3 282.5 103.6 L281.4 118.25 Q280.25 131.6 280.25 132.85 280.25 156.35 279.0 180.6 278.7 201.3 283.0 238.25 281.3 239.3 278.8 243.9 276.5 248.15 276.5 249.5 276.5 252.35 280.05 255.55 285.25 260.25 295.0 260.25 L306.0 260.4 328.5 260.5 332.65 260.25" fill="url(#gradient0)" fill-rule="evenodd" stroke="none"/>
  </g>
  <defs>
    <linearGradient gradientTransform="matrix(0.0, 0.293, -0.2841, 0.0, 320.0, 240.0)" gradientUnits="userSpaceOnUse" id="gradient0" spreadMethod="pad" x1="-819.2" x2="819.2">
      <stop offset="0.0" stop-color="#9fdfdf"/>
      <stop offset="1.0" stop-color="#ffffff"/>
    </linearGradient>
  </defs>
</svg>
