<?xml version="1.0" encoding="UTF-8" standalone="no"?>
<svg xmlns:xlink="http://www.w3.org/1999/xlink" height="152.35px" width="244.5px" xmlns="http://www.w3.org/2000/svg">
  <g transform="matrix(1.0, 0.0, 0.0, 1.0, 71.75, 55.1)">
    <path d="M8.0 28.0 Q10.45 28.0 11.45 29.9 12.0 30.95 12.0 32.25 L13.5 31.9 16.5 31.5 Q20.65 31.5 22.0 34.3 22.65 35.7 22.5 37.25 22.5 39.35 21.8 40.55 21.0 41.9 17.5 45.5 18.0 46.0 21.2 48.55 23.0 49.95 23.0 51.0 23.0 53.0 19.15 56.75 L15.25 60.35 Q15.25 62.7 17.25 66.45 19.25 70.2 19.25 70.85 19.25 74.05 15.4 76.85 13.45 78.3 4.25 83.25 L3.0 84.5 Q12.55 81.65 17.55 86.3 20.75 89.25 20.75 92.1 20.75 94.95 18.05 96.25 16.05 97.25 13.0 97.25 L1.2 96.7 Q-10.65 95.8 -13.5 94.0 -16.3 92.1 -17.15 92.05 L-21.5 92.25 Q-26.3 92.25 -27.4 90.15 L-27.85 88.65 Q-28.0 88.0 -28.5 88.0 L-44.0 91.25 Q-45.3 91.25 -47.35 89.9 -49.4 88.5 -49.75 88.5 -53.45 88.5 -56.35 91.25 -59.25 94.0 -61.0 94.0 -65.25 94.0 -66.55 91.65 L-67.0 89.0 Q-67.0 85.7 -60.4 81.25 -52.15 76.4 -49.0 74.25 -52.75 72.3 -57.45 70.1 -60.25 68.45 -60.25 66.0 -60.25 62.5 -55.6 60.65 -49.8 58.4 -40.0 61.0 -36.1 57.1 -35.0 53.85 -34.5 52.4 -34.5 49.6 L-37.75 40.25 Q-37.75 39.0 -36.75 38.4 -35.75 37.75 -35.75 36.5 -35.75 35.25 -37.0 34.65 -38.25 34.0 -38.25 32.75 -38.25 26.55 -27.95 26.8 L-20.55 27.55 -16.5 28.25 Q-15.35 28.25 -10.3 29.9 L-5.25 31.5 Q-4.5 31.5 0.8 29.75 6.1 28.0 8.0 28.0" fill="#5b5546" fill-opacity="0.3019608" fill-rule="evenodd" stroke="none"/>
    <path d="M78.0 -55.0 Q79.25 -55.0 81.0 -53.75 82.75 -52.5 84.0 -52.5 89.7 -52.5 105.75 -54.8 L111.5 -54.95 Q113.5 -54.35 113.5 -52.0 113.5 -50.45 112.85 -49.8 L111.25 -48.5 115.35 -49.85 Q118.55 -51.0 120.0 -51.0 122.4 -51.0 123.2 -49.25 124.05 -47.5 127.0 -47.5 128.3 -47.5 129.75 -49.1 131.2 -50.75 133.0 -50.75 137.05 -50.75 137.8 -46.5 L137.75 -42.0 Q137.75 -39.15 137.05 -37.05 135.8 -33.5 132.75 -33.0 L134.35 -28.15 135.75 -22.75 Q137.75 -22.55 140.35 -24.35 143.1 -26.25 145.0 -26.25 L146.15 -26.15 Q143.0 -22.35 143.0 -16.85 143.0 -14.75 143.4 -12.6 L138.75 -10.0 140.05 -7.9 Q140.75 -6.65 140.75 -5.1 140.75 -3.85 139.5 -2.65 138.25 -1.5 138.25 -0.25 L139.65 2.35 141.0 5.0 Q141.0 8.35 137.25 11.0 133.5 13.65 133.5 14.85 133.5 16.3 133.9 18.1 L134.5 21.0 136.4 20.4 139.0 20.0 Q142.0 20.0 143.3 22.35 144.0 23.65 144.0 25.0 144.0 25.75 143.15 27.2 142.05 28.95 140.0 31.0 L139.75 31.75 Q144.2 31.15 146.7 33.85 145.9 35.15 145.25 36.7 143.0 42.1 143.0 47.35 L142.8 49.85 Q142.85 52.45 143.8 54.5 145.05 57.15 147.8 58.75 L147.5 61.75 Q147.5 71.95 154.15 78.1 L158.7 82.45 Q160.75 84.95 160.75 88.1 160.75 93.75 152.5 93.75 140.15 93.75 123.95 89.4 110.15 85.0 109.5 85.0 L104.55 87.15 Q99.2 89.25 97.0 89.25 91.75 89.25 90.35 87.3 89.8 85.05 89.25 84.5 84.7 87.5 82.45 88.55 78.85 90.25 71.0 90.25 61.4 90.25 56.8 85.5 L55.65 84.15 Q58.55 82.85 60.25 79.75 61.9 76.7 62.0 73.1 72.3 68.6 75.75 66.0 72.95 65.85 71.75 63.65 71.0 62.35 71.0 61.0 71.0 60.25 73.4 55.05 75.9 49.5 77.0 49.0 L74.65 42.0 Q73.7 38.8 74.0 37.0 L70.7 36.25 Q72.0 31.9 72.0 28.5 72.0 23.75 70.0 19.35 L69.1 17.2 Q70.05 16.35 71.5 15.65 75.75 13.55 75.75 10.35 75.75 8.75 73.45 5.5 71.5 2.75 72.5 -0.25 L70.7 -0.1 72.0 -7.5 Q72.0 -11.0 71.35 -12.95 L74.0 -15.75 Q72.95 -16.25 72.05 -16.7 73.0 -18.35 73.0 -20.0 73.0 -26.6 72.05 -31.1 L74.75 -32.5 Q74.25 -32.85 72.45 -36.35 70.5 -40.1 70.5 -41.25 L71.0 -43.8 71.5 -47.25 74.75 -51.25 78.0 -55.0" fill="#5b5546" fill-opacity="0.3019608" fill-rule="evenodd" stroke="none"/>
    <path d="M26.65 90.75 Q23.35 93.0 13.0 93.0 L6.95 93.5 2.0 94.0 Q0.5 94.0 -1.25 92.65 L-2.85 91.25 Q-3.8 91.25 -7.65 93.15 -11.5 95.0 -12.0 95.0 -14.85 95.0 -16.05 93.25 -16.7 91.5 -17.1 91.5 -19.05 91.5 -22.1 93.15 -25.1 94.75 -26.5 94.75 -39.35 94.75 -40.9 93.15 -41.35 92.7 -41.25 91.5 -41.1 90.25 -41.75 89.5 -43.35 90.1 -46.05 92.55 -47.65 94.0 -52.5 94.0 -57.7 94.0 -59.05 92.65 -59.5 91.25 -60.0 91.25 L-63.5 92.9 Q-66.8 94.5 -67.0 94.5 -70.0 94.5 -70.55 92.35 L-70.5 89.85 Q-70.5 88.4 -63.5 83.05 -56.8 77.95 -54.25 77.0 -54.25 76.4 -54.85 74.95 -55.5 73.5 -55.5 72.1 -55.5 70.65 -53.25 68.05 L-51.0 65.75 -39.65 67.0 -28.35 68.25 -2.4 66.7 Q13.65 66.1 16.75 70.25 22.5 83.3 26.05 85.9 L27.6 86.65 Q28.0 86.8 28.0 88.0 28.0 89.8 26.65 90.75" fill="#5b5546" fill-opacity="0.3019608" fill-rule="evenodd" stroke="none"/>
    <path d="M163.0 92.25 Q160.95 93.25 155.5 93.25 L145.75 92.4 Q136.95 90.8 133.0 87.0 126.9 90.6 121.5 90.4 L116.5 89.5 108.6 92.9 Q100.9 96.25 98.5 96.25 95.0 96.25 90.6 93.8 85.8 91.15 84.75 88.0 L82.05 89.0 Q79.45 90.0 78.0 90.0 76.5 90.0 74.75 88.65 L73.25 87.25 Q72.0 87.25 68.65 88.5 65.25 89.75 64.0 89.75 58.8 89.75 57.55 87.4 L57.25 84.75 Q57.25 80.6 64.05 71.5 72.7 59.95 74.75 55.5 L72.7 53.55 Q71.75 52.55 71.75 51.75 71.75 50.5 72.75 49.9 73.75 49.25 73.75 48.0 73.75 46.75 72.65 46.5 71.5 46.25 71.5 45.0 71.5 43.1 93.75 42.75 L125.0 42.75 Q138.7 42.75 140.3 47.0 141.15 49.35 139.25 53.35 139.25 57.75 142.75 60.5 146.25 63.25 146.25 68.0 146.25 69.5 145.55 71.95 L144.25 76.25 Q147.95 79.3 157.75 82.85 165.25 85.55 165.25 88.1 165.25 91.15 163.0 92.25" fill="#5b5546" fill-opacity="0.3019608" fill-rule="evenodd" stroke="none"/>
    <path d="M-55.85 67.8 Q-56.25 67.35 -56.25 65.85 -50.2 61.95 -44.1 59.85 -32.0 55.75 -32.0 64.0 -32.0 65.25 -33.55 67.05 -35.05 68.75 -36.0 68.75 L-40.1 68.6 -55.5 68.25 -55.85 67.8" fill="#5b5546" fill-opacity="0.3019608" fill-rule="evenodd" stroke="none"/>
    <path d="M17.25 56.25 Q17.5 56.4 17.5 57.85 17.5 59.95 16.5 60.55 15.2 61.25 10.5 61.25 2.75 61.25 -1.25 58.75 -3.75 57.2 -3.75 56.1 L-3.6 54.1 -3.5 53.0 1.3 53.75 17.0 56.0 17.25 56.25" fill="#5b5546" fill-opacity="0.3019608" fill-rule="evenodd" stroke="none"/>
    <path d="M14.95 33.45 L22.0 34.0 22.25 34.25 Q22.5 34.4 22.5 35.85 22.5 37.1 1.4 38.8 L-20.0 40.25 Q-28.5 40.25 -33.5 37.3 -37.0 35.25 -37.0 33.85 L-36.85 31.85 -36.75 30.75 Q-35.1 30.75 -34.65 31.45 -34.25 32.45 -33.65 33.0 -31.35 35.25 -19.0 35.25 L-5.75 34.25 7.5 33.25 14.95 33.45" fill="#5b5546" fill-opacity="0.3019608" fill-rule="evenodd" stroke="none"/>
    <path d="M131.3 32.75 Q121.7 34.75 109.0 34.75 107.15 34.75 106.3 33.15 105.75 32.15 105.75 31.25 105.75 29.8 105.9 28.9 L106.25 26.75 Q107.1 26.45 109.9 26.8 L114.25 27.25 Q124.25 27.25 136.05 23.5 138.65 22.65 139.3 23.5 140.0 24.4 140.0 29.0 140.0 30.95 131.3 32.75" fill="#5b5546" fill-opacity="0.3019608" fill-rule="evenodd" stroke="none"/>
    <path d="M97.65 2.15 Q98.0 2.65 98.0 4.1 98.0 5.1 93.3 8.75 88.7 12.25 88.0 12.25 84.45 12.25 80.35 11.2 L73.75 9.25 Q77.05 7.45 84.9 4.5 94.85 0.7 97.25 1.5 L97.65 2.15" fill="#5b5546" fill-opacity="0.3019608" fill-rule="evenodd" stroke="none"/>
    <path d="M74.15 -39.15 Q73.75 -39.6 73.75 -41.1 73.75 -42.3 73.95 -42.5 74.5 -43.0 77.1 -43.15 80.9 -43.35 107.0 -43.0 126.5 -43.05 130.15 -42.45 131.8 -42.15 132.0 -41.6 L132.0 -40.25 132.3 -35.0 132.25 -30.1 Q132.25 -27.35 128.0 -24.75 124.3 -22.5 122.0 -22.5 121.4 -22.5 117.55 -26.2 113.75 -29.9 113.75 -30.25 113.75 -32.2 116.55 -33.05 121.25 -34.4 124.75 -37.25 L105.15 -38.0 Q92.45 -38.6 74.5 -38.75 L74.15 -39.15" fill="#5b5546" fill-opacity="0.3019608" fill-rule="evenodd" stroke="none"/>
    <path d="M139.25 0.3 Q139.5 0.4 139.5 1.85 139.5 4.9 138.75 6.0 136.9 8.75 130.5 8.75 124.4 8.75 122.75 7.5 122.25 7.15 122.25 6.0 122.25 4.2 127.95 1.75 134.15 -0.9 139.0 0.0 L139.25 0.3" fill="#5b5546" fill-opacity="0.3019608" fill-rule="evenodd" stroke="none"/>
    <path d="M74.0 -28.75 Q74.0 -31.75 77.2 -32.1 81.3 -32.5 91.5 -29.0 90.55 -27.1 89.5 -26.65 L81.0 -26.0 Q75.95 -26.0 74.5 -27.3 74.0 -27.7 74.0 -28.75" fill="#5b5546" fill-opacity="0.3019608" fill-rule="evenodd" stroke="none"/>
    <path d="M113.0 66.5 Q110.75 66.5 101.75 64.25 L101.5 64.6 Q101.25 64.65 101.25 63.1 101.25 62.9 104.85 61.15 109.0 59.1 112.75 57.85 124.25 54.0 124.25 60.0 124.25 61.05 121.0 63.55 117.1 66.5 113.0 66.5" fill="#5b5546" fill-opacity="0.3019608" fill-rule="evenodd" stroke="none"/>
    <path d="M6.4 75.3 L6.5 77.0 Q6.5 80.0 6.0 81.55 5.2 84.0 3.0 84.0 0.35 84.0 -3.25 80.5 -6.5 77.35 -6.5 76.0 -6.5 73.5 -3.15 73.55 -0.3 73.55 6.25 75.5 L6.4 75.3" fill="#5b5546" fill-opacity="0.3019608" fill-rule="evenodd" stroke="none"/>
    <path d="M-46.5 87.75 Q-46.8 87.3 -46.4 86.15 L-45.75 84.0 -50.0 83.3 Q-51.05 83.15 -53.25 79.75 -51.25 75.6 -45.7 77.05 -40.25 78.45 -40.25 82.5 -40.25 84.75 -41.05 85.8 -42.45 87.6 -46.5 87.75" fill="#5b5546" fill-opacity="0.3019608" fill-rule="evenodd" stroke="none"/>
    <path d="M149.75 82.55 L147.0 83.0 Q144.65 83.0 137.25 78.55 130.0 74.2 130.0 73.25 130.0 70.2 136.95 66.65 144.15 63.0 147.25 66.25 L150.35 74.25 Q151.0 76.5 151.0 80.1 151.0 81.9 149.75 82.55" fill="#5b5546" fill-opacity="0.3019608" fill-rule="evenodd" stroke="none"/>
    <path d="M84.0 78.25 Q80.05 81.75 77.0 81.75 75.35 81.75 73.6 80.9 L71.5 79.5 Q77.95 70.8 81.25 67.95 88.0 62.1 88.0 71.85 88.0 74.75 84.0 78.25" fill="#5b5546" fill-opacity="0.3019608" fill-rule="evenodd" stroke="none"/>
    <path d="M109.5 48.25 Q108.85 49.65 106.55 50.4 104.75 51.0 103.0 51.0 98.45 49.45 92.15 47.9 79.6 44.75 69.5 44.75 75.95 40.2 90.75 41.95 104.85 43.6 109.5 48.25" fill="#5b5546" fill-opacity="0.3019608" fill-rule="evenodd" stroke="none"/>
    <path d="M-18.4 72.65 L-26.0 73.75 Q-29.65 73.75 -30.45 72.75 -30.8 71.5 -31.5 71.0 -26.6 63.55 -21.7 64.1 -17.7 64.55 -12.0 71.0 -12.75 71.55 -18.4 72.65" fill="#5b5546" fill-opacity="0.3019608" fill-rule="evenodd" stroke="none"/>
    <path d="M-34.0 41.5 L-30.35 41.45 -25.75 41.75 -25.5 42.2 Q-25.25 42.55 -25.25 44.0 -25.25 45.95 -29.55 47.05 L-34.0 47.75 Q-35.35 47.75 -37.0 47.05 -39.0 46.15 -39.0 45.0 -39.0 39.15 -38.0 35.5 -35.8 35.85 -34.3 37.35 -32.4 39.15 -33.75 41.25 L-34.0 41.5" fill="#669900" fill-opacity="0.3019608" fill-rule="evenodd" stroke="none"/>
    <path d="M-21.2 46.55 Q-23.1 48.05 -28.05 48.25 L-28.0 49.75 Q-28.0 51.6 -29.8 54.25 -31.8 57.25 -34.0 57.25 -37.2 57.25 -38.3 53.4 L-38.75 49.25 Q-38.75 48.55 -35.85 46.85 -32.85 45.05 -29.5 43.75 -20.25 40.25 -20.25 45.0 L-21.2 46.55" fill="#669900" fill-opacity="0.3019608" fill-rule="evenodd" stroke="none"/>
    <path d="M72.4 -37.9 L72.5 -39.0 Q72.5 -40.75 72.8 -41.25 73.25 -42.0 75.0 -42.25 76.7 -42.5 93.0 -42.5 L111.0 -42.5 Q112.75 -42.4 113.2 -41.85 113.5 -41.45 113.5 -40.1 113.5 -39.3 112.7 -39.45 L109.95 -39.95 Q104.5 -40.35 97.25 -34.75 L93.95 -33.05 Q91.2 -31.75 91.0 -31.75 L88.8 -31.95 87.0 -32.5 Q87.0 -35.25 87.5 -35.25 76.3 -35.3 73.5 -36.7 72.5 -37.2 72.4 -37.9" fill="#669900" fill-opacity="0.3019608" fill-rule="evenodd" stroke="none"/>
    <path d="M79.5 -37.35 Q79.25 -37.3 79.25 -38.85 L81.25 -38.7 85.65 -36.7 Q92.0 -34.45 92.0 -41.25 98.75 -41.25 101.25 -40.25 L101.75 -38.75 Q100.35 -36.6 97.15 -35.2 94.9 -34.25 94.0 -34.25 85.25 -35.6 79.75 -37.75 L79.5 -37.35" fill="#669900" fill-opacity="0.3019608" fill-rule="evenodd" stroke="none"/>
    <path d="M132.0 8.0 Q132.75 7.0 134.0 7.0 136.6 7.0 140.5 16.1 140.5 16.85 134.05 20.25 127.45 23.75 125.5 23.75 119.5 23.75 118.3 22.35 117.95 21.85 118.05 21.25 L118.25 20.6 Q118.25 18.6 119.3 17.9 121.25 16.65 128.0 16.5 121.6 14.9 119.75 13.25 118.75 12.35 118.75 10.35 118.75 6.15 122.05 7.0 L125.6 8.2 Q128.1 9.0 130.0 9.0 131.25 9.0 132.0 8.0" fill="#669900" fill-opacity="0.3019608" fill-rule="evenodd" stroke="none"/>
    <path d="M139.85 20.9 Q139.3 23.05 137.0 24.0 136.4 23.8 134.6 20.2 132.75 16.5 132.75 15.25 L132.8 13.4 133.0 12.25 Q137.55 10.65 139.15 13.6 140.0 15.15 140.0 18.25 L139.85 20.9" fill="#669900" fill-opacity="0.3019608" fill-rule="evenodd" stroke="none"/>
    <path d="M100.0 9.75 L91.8 7.45 Q88.4 6.45 86.35 6.25 L92.25 5.5 92.25 0.75 Q94.55 0.75 97.95 3.55 101.15 6.25 101.75 8.25 L101.65 9.3 Q101.5 9.75 100.0 9.75" fill="#669900" fill-opacity="0.3019608" fill-rule="evenodd" stroke="none"/>
    <path d="M95.6 9.95 Q92.4 11.5 81.5 11.5 L76.5 11.0 75.95 9.9 75.25 8.75 Q80.45 4.8 86.25 4.35 92.45 3.85 97.25 7.75 97.3 9.1 95.6 9.95" fill="#669900" fill-opacity="0.3019608" fill-rule="evenodd" stroke="none"/>
    <path d="M0.9 43.5 L1.0 45.85 Q1.0 47.1 0.0 48.3 -1.0 49.5 -1.0 50.75 -1.0 52.0 0.0 52.65 1.0 53.25 1.0 54.5 1.0 56.9 -1.3 58.3 -2.9 59.25 -4.0 59.25 L-7.0 58.75 -7.1 58.45 -7.25 56.85 Q-7.25 53.85 -6.55 52.1 -5.85 50.35 -3.0 46.25 L-5.2 45.55 Q-7.45 44.95 -7.75 44.5 -5.8 42.75 -3.05 42.25 L0.75 42.5 0.9 43.5" fill="#669900" fill-opacity="0.3019608" fill-rule="evenodd" stroke="none"/>
    <path d="M-4.95 47.1 Q-1.5 48.45 2.5 50.25 0.1 52.65 -0.35 53.95 -0.8 55.3 -1.5 56.0 L-2.75 56.0 Q-1.75 52.45 -5.3 49.6 -7.65 47.65 -14.0 45.0 -11.65 44.55 -4.95 47.1" fill="#669900" fill-opacity="0.3019608" fill-rule="evenodd" stroke="none"/>
    <path d="M75.0 -48.75 Q74.5 -49.25 74.5 -51.25 L99.8 -52.15 117.25 -53.25 117.75 -53.0 Q118.25 -52.75 118.25 -51.25 118.25 -49.75 117.7 -49.1 L117.0 -48.25 112.8 -48.65 108.0 -49.25 101.85 -48.85 93.25 -48.25 93.45 -47.2 Q93.5 -46.75 92.0 -46.75 87.9 -46.75 80.15 -48.55 L75.0 -48.75" fill="#669900" fill-opacity="0.3019608" fill-rule="evenodd" stroke="none"/>
    <path d="M6.5 32.25 Q6.25 32.65 5.5 32.4 L3.0 32.0 Q1.55 32.0 1.05 32.8 L0.0 34.0 Q-1.35 33.65 -1.75 33.1 L-2.0 32.0 -25.75 31.25 -26.1 31.6 Q-26.5 31.65 -26.5 30.1 L-26.0 28.5 Q1.4 27.95 3.65 28.6 4.25 28.75 4.2 29.7 4.15 30.7 6.25 31.5 L6.5 32.25" fill="#669900" fill-opacity="0.3019608" fill-rule="evenodd" stroke="none"/>
    <path d="M79.75 67.05 Q80.25 67.2 80.25 68.75 63.85 88.75 59.5 88.75 54.35 88.75 52.55 87.0 51.5 85.95 51.5 84.0 51.5 83.7 53.85 81.2 56.8 78.15 60.15 75.5 70.45 67.25 79.25 67.25 L79.75 67.05" fill="#669900" fill-opacity="0.3019608" fill-rule="evenodd" stroke="none"/>
    <path d="M72.5 67.0 L73.0 67.45 Q73.5 67.8 73.5 69.25 73.5 69.75 71.95 71.45 L69.0 74.5 72.35 75.25 77.0 76.0 77.25 76.25 Q77.5 76.4 77.5 77.85 77.5 80.1 66.0 82.5 L61.75 82.0 Q61.5 81.5 61.5 79.0 61.5 73.7 63.05 72.5 67.25 70.4 72.5 67.0" fill="#669900" fill-opacity="0.3019608" fill-rule="evenodd" stroke="none"/>
    <path d="M139.65 60.3 L137.75 62.0 Q140.25 63.85 141.15 65.05 141.75 65.9 141.75 66.75 141.75 68.3 141.45 68.9 L141.0 69.5 Q139.75 69.75 139.0 70.25 137.5 66.45 135.6 63.4 134.75 62.05 134.75 59.5 134.75 58.35 130.25 56.65 125.75 55.0 125.75 52.75 125.75 48.2 133.0 51.35 135.85 52.55 138.0 54.4 140.25 56.35 140.25 57.85 140.25 59.5 139.65 60.3" fill="#669900" fill-opacity="0.3019608" fill-rule="evenodd" stroke="none"/>
    <path d="M147.75 65.1 L147.7 66.8 147.5 67.75 147.0 68.25 Q146.5 68.75 145.0 68.75 142.45 68.75 138.25 63.0 134.5 57.9 134.5 57.0 L134.55 55.55 135.0 55.0 Q139.75 54.55 144.1 59.0 147.75 62.8 147.75 65.1" fill="#669900" fill-opacity="0.3019608" fill-rule="evenodd" stroke="none"/>
    <path d="M18.25 82.4 Q20.25 85.75 20.25 88.35 L20.0 90.25 19.85 90.75 Q19.55 91.25 18.0 91.25 L13.35 89.2 Q7.85 86.85 1.0 85.75 L0.9 85.3 Q0.75 84.95 0.75 83.5 0.75 81.1 5.0 79.55 11.2 77.75 15.0 76.25 15.6 78.0 18.25 82.4" fill="#669900" fill-opacity="0.3019608" fill-rule="evenodd" stroke="none"/>
    <path d="M17.0 78.9 L17.25 80.85 17.0 84.35 Q16.5 85.4 14.2 85.95 L-11.25 89.75 -11.5 89.7 Q-11.75 89.6 -11.75 88.1 -11.75 85.6 -7.25 84.5 -1.4 83.05 13.0 83.5 12.75 83.5 12.75 81.0 12.75 79.1 13.0 78.65 13.8 77.2 16.75 78.25 L17.0 78.9" fill="#669900" fill-opacity="0.3019608" fill-rule="evenodd" stroke="none"/>
    <path d="M19.0 91.0 L17.55 90.4 Q17.0 89.9 17.0 88.25 L17.05 86.4 17.25 85.5 Q18.8 85.5 20.3 86.65 21.75 87.75 22.25 89.25 21.0 90.5 19.0 91.0" fill="#669900" fill-opacity="0.3019608" fill-rule="evenodd" stroke="none"/>
    <path d="M167.6 92.75 Q165.7 92.75 164.25 91.4 163.1 90.4 163.1 89.9 L163.1 89.55 163.2 89.55 160.55 88.85 157.75 88.15 155.75 88.5 154.6 88.85 153.75 88.75 153.0 88.5 155.4 87.75 154.95 87.7 154.75 87.25 Q154.75 86.75 155.25 86.25 L155.75 85.15 155.6 84.4 Q155.35 84.1 154.85 83.95 L154.75 84.25 Q154.85 84.5 154.25 84.5 L151.5 83.2 149.25 84.75 Q150.35 80.95 151.8 78.7 L151.95 78.5 150.8 77.7 150.2 77.8 149.9 77.5 Q147.7 77.5 146.95 78.7 L146.25 80.15 145.8 79.8 145.75 79.15 Q145.75 78.6 146.0 78.15 145.0 77.85 145.05 76.6 145.1 75.8 145.5 74.75 L139.65 74.4 Q139.5 74.65 139.5 74.0 139.5 73.55 140.8 73.6 L147.0 73.75 146.85 74.85 146.65 75.9 Q146.65 76.4 147.0 76.6 L147.35 76.9 Q148.5 76.25 149.85 76.55 L150.0 76.35 Q150.95 76.3 151.95 77.15 L152.6 77.75 Q153.4 77.1 153.4 79.5 153.4 80.95 152.45 82.2 L153.55 82.2 Q154.6 82.35 154.8 83.05 L155.0 83.15 Q156.75 84.2 156.75 85.25 L156.1 87.5 156.0 87.6 Q158.9 87.0 161.35 87.6 164.2 88.35 164.85 89.9 L165.65 90.75 Q168.3 92.5 170.9 92.05 L172.75 92.0 Q172.75 92.65 171.5 92.75 L167.6 92.75 M127.35 44.25 Q126.05 45.25 121.35 45.25 122.15 44.35 124.4 44.15 L127.35 44.25 M125.25 42.9 Q125.75 42.25 128.75 42.5 L136.6 43.0 137.95 42.85 Q138.9 43.05 138.9 44.2 L138.85 45.1 139.75 46.75 140.0 48.25 Q140.0 48.6 138.5 49.55 L136.5 50.4 136.8 50.65 Q137.6 51.35 137.6 52.4 L137.5 53.65 137.0 53.85 136.05 52.6 Q135.6 51.8 133.85 50.85 L134.6 50.45 132.6 50.0 135.1 48.95 Q137.15 48.0 138.4 47.75 L138.5 47.5 138.25 47.0 138.0 46.45 138.2 45.85 Q138.0 45.95 137.75 46.15 L137.25 45.85 137.5 44.25 135.4 44.0 135.3 43.7 130.25 44.1 Q126.45 44.1 125.25 42.9 M100.25 43.65 L100.4 43.55 101.0 43.4 Q102.2 43.4 102.9 44.4 L103.5 45.75 Q103.4 44.45 103.55 43.8 103.9 42.65 107.0 42.9 L107.6 43.25 Q105.1 43.65 104.6 44.45 104.4 44.7 104.25 46.5 L103.0 46.75 102.15 45.3 Q101.5 44.2 100.35 43.85 L100.25 43.65 M103.05 48.45 Q103.4 48.9 103.4 49.5 L103.25 50.05 103.0 50.25 102.15 49.55 Q101.75 49.15 101.75 48.75 L102.0 47.5 102.35 47.5 103.05 48.45 M120.5 50.55 L123.25 50.9 124.85 50.45 127.0 50.0 131.65 50.4 Q132.2 50.85 132.5 50.9 L132.5 51.1 131.75 51.05 130.75 50.9 124.8 51.45 122.35 52.0 Q120.7 52.0 119.0 51.25 117.4 50.5 117.4 50.0 L117.5 49.75 118.25 49.95 119.25 50.15 120.5 50.55 M121.1 60.35 L120.9 59.3 Q120.9 58.6 121.6 58.25 L121.7 58.15 121.75 58.5 121.35 60.25 121.1 60.35 M108.0 74.0 L101.35 74.5 98.85 74.25 96.5 73.65 103.3 72.9 110.25 72.65 108.0 74.0 M110.25 69.25 L109.9 70.85 109.6 70.9 107.6 68.25 Q108.15 67.9 108.9 67.9 109.6 67.85 110.0 68.15 110.2 68.35 109.65 68.4 L110.1 68.65 110.25 69.25 M109.0 66.25 L113.1 65.9 117.9 66.05 118.6 66.75 111.95 67.55 106.1 67.75 Q99.95 67.75 97.5 66.4 96.25 65.75 96.25 64.9 L96.3 64.4 96.5 64.25 Q97.15 64.2 97.85 65.35 99.35 66.6 104.0 66.6 L109.0 66.25 M120.85 62.0 L121.1 63.3 120.8 64.95 Q120.35 66.3 119.5 66.5 L119.15 66.35 Q120.55 63.6 120.5 62.0 L120.85 62.0 M86.5 53.1 L79.35 52.75 78.0 52.75 75.95 52.45 75.5 52.5 75.35 52.5 73.6 53.55 Q71.6 54.95 72.0 56.25 L71.25 56.75 Q70.75 56.2 70.75 55.65 70.75 53.7 74.15 52.2 73.1 51.6 72.8 49.9 L72.75 47.05 Q72.75 41.9 73.7 42.45 74.65 42.95 74.65 48.25 74.65 49.05 75.35 50.35 L76.0 51.9 76.0 52.2 77.4 51.95 82.85 51.25 83.0 51.5 82.5 51.9 83.1 51.85 87.65 51.6 87.75 51.85 87.85 52.4 87.5 53.0 86.5 53.1 M90.25 58.45 Q89.55 59.75 88.0 59.75 L87.0 59.6 86.4 59.25 90.35 55.4 Q90.65 55.8 90.65 56.8 90.65 57.65 90.25 58.45 M86.1 59.25 L80.1 59.25 74.9 59.2 73.8 61.15 Q72.6 63.05 72.6 63.9 72.6 65.65 73.2 66.55 73.75 67.45 73.75 68.5 L73.4 69.15 74.2 69.05 79.25 69.4 79.4 69.75 Q78.95 70.4 76.1 70.4 L72.65 70.25 Q72.35 70.65 71.2 71.25 69.3 72.25 67.5 72.0 L67.35 73.25 Q67.3 73.75 67.4 74.05 67.6 73.5 71.65 74.6 L76.3 76.0 Q77.65 76.0 78.9 75.5 L78.85 75.5 Q79.65 75.15 81.0 73.05 L80.75 72.55 80.5 72.1 81.9 72.1 82.0 72.75 81.35 74.35 81.1 74.9 81.4 75.5 Q81.4 76.05 80.0 76.8 78.55 77.5 77.5 77.5 74.95 77.5 71.15 76.1 L67.5 74.55 67.4 74.55 67.35 74.55 67.2 74.55 67.35 74.75 Q67.05 75.05 67.3 75.35 L63.25 75.75 63.4 77.5 63.2 78.25 63.0 79.0 62.7 80.4 Q62.3 81.5 61.75 81.75 61.0 81.1 61.0 80.35 61.0 79.8 61.5 78.55 L62.1 76.9 Q62.5 75.25 63.1 75.05 L66.5 74.35 66.1 73.8 66.0 72.35 Q66.0 71.15 66.65 71.05 69.1 70.55 72.25 69.0 L72.65 69.45 72.75 69.4 72.05 68.05 71.25 66.2 Q71.25 63.65 71.65 62.4 72.2 60.85 73.75 59.2 L72.2 59.0 Q72.7 58.15 71.0 57.0 L73.3 57.45 80.35 57.9 85.7 58.15 Q86.25 58.3 86.25 58.75 86.25 59.4 86.1 59.25 M83.35 83.25 Q83.15 83.75 82.25 83.75 L75.75 82.0 81.0 81.85 83.25 83.1 83.35 83.25 M142.9 61.75 Q144.0 62.05 144.7 63.85 145.35 65.65 145.35 67.3 L145.3 68.8 Q145.75 69.45 145.75 70.5 145.75 71.4 144.5 72.5 143.25 73.6 142.0 73.6 L139.25 73.5 138.5 73.15 Q141.15 72.65 143.05 70.9 L144.6 69.4 Q143.95 68.8 144.0 67.6 L144.35 64.8 143.5 63.4 Q142.55 62.35 142.0 62.15 L141.9 62.15 138.75 62.4 136.45 62.1 132.35 61.6 Q138.15 61.8 140.9 59.95 L142.3 58.75 139.95 57.35 139.45 57.0 138.3 56.15 137.0 55.0 138.95 55.15 139.65 55.6 140.8 56.15 Q142.75 57.2 142.75 57.75 L142.7 58.3 143.0 57.75 Q143.5 58.65 143.5 60.3 143.5 61.3 143.0 61.65 L142.9 61.75 M129.5 59.25 Q130.65 59.95 132.0 62.0 132.3 62.25 131.65 62.25 130.7 62.25 129.75 61.0 129.0 59.95 129.0 59.65 129.0 59.3 129.25 59.25 L129.5 59.25 M121.5 73.25 L121.1 72.85 123.25 72.65 128.3 72.8 Q128.55 73.3 129.25 73.4 L121.5 73.25 M134.25 71.6 Q136.2 71.6 137.25 72.85 L137.35 73.0 Q137.15 73.5 136.0 73.5 135.4 73.5 134.75 73.0 L134.15 72.4 134.25 71.6 M133.6 81.0 L133.85 83.25 134.4 83.45 135.35 83.65 Q136.0 83.65 137.0 82.85 138.15 82.0 138.75 81.9 L138.15 83.4 Q137.5 84.75 136.35 84.75 L134.7 84.45 Q134.35 84.05 133.0 83.85 L133.25 81.0 133.6 81.0 M132.4 85.75 L132.9 86.75 132.25 87.4 Q131.2 87.4 131.0 86.35 L131.0 85.4 Q131.0 84.1 131.6 84.05 132.4 84.0 135.9 85.5 134.7 86.55 134.0 86.25 L133.5 85.75 132.4 85.75 M137.5 87.8 L137.35 88.55 Q137.0 88.85 135.6 89.0 L136.05 87.35 Q136.35 86.7 137.4 87.0 L137.5 87.8 M145.75 84.75 L149.4 84.85 149.75 84.9 149.25 86.0 146.75 86.25 Q145.5 86.25 145.0 85.5 L144.75 84.65 Q144.75 83.65 145.35 83.4 L145.75 84.75 M55.0 84.4 L56.8 83.5 58.65 83.25 Q58.65 82.65 58.8 82.45 59.45 81.5 61.85 82.0 L62.1 82.5 62.0 82.8 61.5 82.9 60.5 83.0 60.5 83.25 Q60.5 83.75 59.85 84.25 L59.85 84.65 60.85 85.75 60.7 86.0 60.1 86.1 Q58.9 86.1 58.6 85.05 L58.6 84.9 58.25 85.0 53.6 86.5 Q54.25 85.1 55.0 84.4 M47.75 92.5 Q47.1 92.2 47.1 91.45 47.1 89.85 48.85 88.85 L53.0 86.5 Q53.5 86.8 53.5 87.7 L51.35 88.35 Q49.05 89.45 48.1 92.4 L47.75 92.5 M65.0 82.6 L63.6 82.55 Q62.7 82.4 62.0 81.65 62.95 80.35 63.95 80.5 64.7 80.65 65.85 81.85 L66.4 81.1 Q68.05 79.55 71.0 80.65 70.55 81.2 67.8 82.0 65.85 82.55 66.15 84.85 L65.75 85.15 Q65.25 84.55 65.25 83.8 65.25 83.1 65.5 82.5 L65.0 82.6 M62.9 84.9 L63.0 84.5 65.2 84.5 65.25 84.9 64.6 85.9 63.0 85.25 Q62.9 85.55 62.9 84.9" fill="#5b5546" fill-rule="evenodd" stroke="none"/>
    <path d="M1.1 71.0 Q1.1 70.6 1.35 70.15 1.65 69.65 2.0 69.65 L1.65 70.25 1.35 71.0 1.1 71.0 M1.0 71.25 Q1.5 71.75 1.5 72.5 1.5 73.25 0.95 73.95 -0.95 74.1 -1.0 75.85 L-1.0 75.55 Q-2.3 76.25 -3.9 76.25 L-6.75 75.4 Q-9.5 74.5 -12.5 74.5 L-13.25 74.75 -13.9 75.1 -14.0 74.9 Q-11.35 73.4 -7.25 73.4 -6.85 73.4 -4.25 74.6 -2.45 74.6 -1.0 73.35 L-0.85 73.25 -0.85 73.0 -0.6 73.0 Q0.25 72.2 0.25 71.65 0.25 71.3 0.65 71.25 L1.0 71.25 M6.75 68.9 L9.6 68.6 11.25 68.85 Q11.95 68.85 12.25 69.15 10.6 70.4 11.0 71.75 L10.5 72.0 9.45 70.4 Q8.65 69.25 6.75 68.9 M15.3 69.2 L14.85 69.1 Q16.6 67.0 17.25 72.0 L17.5 78.15 17.5 79.5 Q17.4 80.5 16.75 80.5 L16.1 80.35 15.3 80.85 16.6 80.75 16.25 81.55 17.25 81.75 17.35 82.8 17.15 84.3 Q18.4 84.15 19.7 85.4 L21.35 87.35 Q21.75 86.8 22.6 86.9 24.4 87.1 25.75 90.6 L25.95 90.85 24.4 90.7 Q23.95 89.45 24.25 88.65 L24.25 88.5 21.25 89.25 Q20.95 89.6 20.9 89.15 L19.95 88.8 18.7 89.4 18.85 89.75 18.0 90.25 17.85 89.75 17.25 89.75 Q17.15 90.05 17.15 89.4 17.15 89.1 17.65 88.7 L17.4 87.45 17.2 86.9 18.15 88.35 18.4 88.15 19.2 87.75 Q18.8 86.9 18.65 85.5 L16.25 85.45 16.0 85.6 16.7 86.2 Q16.3 85.9 15.7 85.75 L12.75 86.15 11.35 86.05 11.15 86.0 10.0 86.1 Q8.45 86.1 7.75 84.95 7.35 84.3 7.35 83.65 7.35 82.85 8.0 82.4 L11.15 85.6 Q13.2 85.2 14.65 84.5 16.6 83.55 16.6 82.35 L15.65 82.1 15.0 82.25 Q13.85 82.25 12.6 81.45 L11.0 81.5 10.35 80.85 9.85 80.0 9.25 80.25 7.7 80.65 10.0 79.2 11.35 77.9 12.2 79.05 Q12.85 79.9 13.65 80.35 L14.85 80.0 15.55 79.8 Q16.0 78.7 16.0 75.05 L15.65 69.65 Q15.65 69.3 15.3 69.2 M10.75 80.1 Q10.8 80.3 11.35 80.4 L10.45 79.4 10.25 79.65 10.4 79.65 Q10.65 79.65 10.75 80.1 M3.6 87.7 L7.85 87.5 Q6.15 87.5 4.5 88.75 L3.95 89.15 6.55 88.35 10.5 88.15 Q9.4 88.75 6.9 89.1 L3.6 89.45 2.75 90.1 Q2.1 89.95 2.1 89.25 2.1 88.25 3.6 87.7 M16.85 90.95 L15.7 91.15 15.75 90.6 Q16.3 90.6 16.85 90.95 M-52.8 67.85 L-52.75 68.25 -53.4 69.2 -54.05 70.15 -53.75 71.0 -53.5 71.85 -53.8 73.7 Q-53.25 73.55 -52.2 74.15 -50.65 75.05 -49.0 76.75 -48.7 76.8 -49.25 77.1 L-50.0 77.4 -51.35 77.25 -51.4 77.5 Q-51.4 77.9 -52.5 77.95 L-54.75 78.0 -54.0 79.25 -54.15 79.7 -53.7 79.75 -49.4 80.15 -49.25 80.45 -41.15 80.1 -39.4 80.5 Q-34.4 80.5 -33.65 79.55 -33.4 79.25 -33.9 78.4 -33.15 77.6 -32.65 78.6 -32.3 79.3 -32.3 79.9 -32.3 80.6 -33.8 81.25 -35.35 81.85 -37.25 81.85 L-49.5 80.75 -49.45 80.85 -52.1 81.0 -54.15 80.85 -56.5 81.55 Q-59.0 82.25 -59.0 82.65 -59.0 82.9 -58.6 82.95 L-57.5 83.4 -57.3 83.4 -57.1 83.5 -57.05 83.8 -56.55 84.25 -57.25 84.4 -58.3 84.85 -59.0 84.9 Q-60.2 84.9 -60.4 83.85 L-60.4 82.75 Q-60.65 81.75 -60.0 80.95 -58.9 79.65 -55.5 80.05 L-55.5 79.6 -54.85 79.65 -55.4 79.0 -56.0 77.95 Q-56.0 77.1 -55.3 77.1 L-52.5 76.75 Q-53.6 76.1 -54.4 74.9 L-54.3 74.25 Q-54.4 73.55 -54.85 72.35 L-55.4 70.8 Q-55.4 67.7 -52.9 67.75 L-52.8 67.85 M-63.55 84.35 L-58.3 85.25 -58.3 85.05 -57.55 84.9 -57.3 85.0 Q-56.85 85.1 -56.15 85.9 L-56.5 86.25 -56.4 86.35 Q-55.35 87.25 -55.25 88.0 L-55.45 88.35 -56.0 88.65 Q-56.75 88.65 -58.4 86.55 L-58.25 86.2 -59.0 86.25 -62.3 85.65 -63.7 85.85 -64.15 86.0 -64.05 86.0 Q-64.85 87.6 -64.85 88.2 L-64.75 90.15 Q-64.75 91.05 -68.1 91.35 -71.35 91.7 -71.05 93.9 -71.75 93.4 -71.75 92.2 -71.75 91.3 -68.6 90.3 -65.5 89.3 -65.5 85.75 L-65.1 85.8 -65.15 85.5 Q-65.15 84.35 -63.55 84.35 M-47.5 77.15 L-48.9 76.9 Q-47.9 76.05 -44.7 76.05 L-39.75 76.25 -39.75 75.15 -40.15 73.75 -40.55 72.8 -40.5 72.5 -38.9 73.7 Q-38.75 74.0 -38.75 75.2 -38.75 76.75 -39.25 76.9 L-45.75 77.25 -47.5 77.15 M-45.75 85.0 L-43.9 84.75 -44.8 83.05 Q-45.6 82.05 -48.25 81.5 -45.4 81.1 -44.15 82.75 -43.5 83.6 -43.05 85.15 -43.15 85.3 -43.55 85.45 L-44.5 85.6 Q-45.6 85.6 -45.75 85.25 L-45.75 85.0 M-16.15 71.9 L-15.55 73.25 Q-15.25 74.15 -14.25 74.75 -13.95 74.9 -14.6 74.9 -16.75 74.9 -16.75 73.2 -16.75 71.8 -16.15 71.9 M-18.95 68.95 L-18.95 69.4 -19.15 69.0 -18.95 68.95 M-30.55 68.4 Q-29.75 69.55 -29.75 71.5 L-29.8 72.65 -29.55 72.75 -30.35 72.95 -30.55 73.95 -30.75 73.25 -30.75 73.0 -32.25 73.15 Q-34.85 73.15 -35.0 72.75 -32.85 71.5 -31.95 71.65 L-30.7 72.2 -30.65 71.65 -30.85 71.1 -31.15 70.05 Q-31.15 68.55 -30.55 68.4 M-24.15 75.6 L-23.4 75.35 -23.3 75.5 -25.25 76.6 Q-29.0 76.6 -30.25 74.95 L-30.35 74.65 Q-29.35 75.85 -25.05 75.85 L-24.15 75.6 M-20.45 88.7 L-20.45 88.6 Q-12.75 88.9 -11.35 87.4 -10.95 86.95 -11.0 86.1 L-11.0 85.0 -10.4 85.25 Q-10.9 85.65 -11.05 87.45 L-11.05 87.5 Q-9.45 86.6 -7.75 89.25 L-7.85 89.6 -8.25 89.75 -11.25 89.1 Q-11.9 89.4 -11.95 90.1 L-12.15 91.25 -12.5 91.25 -12.6 90.15 Q-12.6 89.1 -12.1 88.4 -13.5 89.1 -16.5 89.1 L-18.8 88.9 -20.45 88.7 M-1.0 75.95 L-0.6 77.2 0.4 78.25 Q-0.05 78.75 -0.15 79.15 L-0.5 78.8 Q-0.6 79.6 -1.45 80.6 -2.5 81.75 -3.5 81.75 L-6.15 81.25 Q-4.3 80.9 -2.85 79.35 L-1.0 77.25 -0.9 77.35 -1.0 76.4 -1.0 75.95 M-11.4 84.5 Q-11.9 85.0 -12.5 85.0 -15.3 83.55 -15.9 83.5 L-13.35 83.65 Q-11.9 84.05 -11.4 84.5 M-7.95 91.3 Q-7.6 91.35 -7.5 91.5 L-8.6 92.25 -9.75 92.75 -9.9 92.65 -9.0 91.8 -8.25 91.25 -7.95 91.3" fill="#5b5546" fill-rule="evenodd" stroke="none"/>
    <path d="M72.95 -51.1 L72.45 -49.3 Q72.45 -47.95 72.8 -45.75 L73.2 -42.65 74.85 -42.4 Q74.4 -41.95 75.15 -41.25 L84.2 -40.7 Q86.2 -41.4 90.25 -40.6 L98.3 -40.9 105.85 -40.95 109.35 -40.8 109.5 -40.75 109.85 -40.8 110.3 -40.65 112.15 -40.65 113.15 -40.9 114.4 -40.75 120.1 -41.25 Q122.1 -41.5 122.1 -40.75 L134.25 -41.05 134.4 -41.05 Q133.65 -42.3 133.65 -42.45 L133.75 -42.7 Q134.75 -42.3 134.75 -41.8 L134.6 -41.0 138.75 -40.7 138.5 -42.0 138.45 -44.8 139.05 -50.8 138.75 -51.55 135.9 -52.85 124.65 -52.35 119.3 -52.2 119.3 -52.35 116.25 -52.3 112.2 -52.1 112.15 -52.5 112.1 -52.65 90.2 -52.65 86.5 -52.4 85.05 -52.4 85.05 -52.2 73.4 -52.15 72.95 -51.1 M72.05 -52.9 L79.5 -53.5 85.05 -53.5 85.05 -53.4 96.2 -53.55 113.95 -53.55 115.25 -53.65 119.3 -53.45 119.3 -53.5 137.8 -53.6 137.85 -53.45 Q139.0 -53.45 139.55 -52.8 140.05 -52.2 140.05 -50.65 L139.8 -48.6 139.55 -45.85 Q139.55 -44.35 139.9 -41.3 L139.8 -39.7 139.75 -39.65 139.9 -39.35 140.0 -36.7 139.7 -34.2 140.75 -33.95 140.85 -33.55 Q140.85 -32.35 138.55 -32.1 139.2 -31.75 139.95 -29.65 140.85 -27.3 140.85 -26.05 140.85 -24.75 140.4 -23.85 139.9 -22.9 138.6 -21.95 L139.0 -22.35 139.1 -22.6 138.85 -22.45 138.25 -22.0 Q140.15 -19.1 140.15 -14.2 140.15 -13.5 139.15 -12.35 L138.4 -11.5 Q140.25 -11.3 140.7 -10.55 141.0 -10.15 141.0 -7.7 141.0 -7.3 139.85 -6.75 138.75 -6.25 137.6 -6.2 139.15 -5.65 139.7 -4.9 140.1 -4.35 140.1 -2.9 L139.75 1.25 139.5 5.0 140.5 5.05 139.25 7.6 138.15 8.95 138.25 8.95 137.1 10.05 137.0 10.85 136.5 11.55 136.45 11.6 Q138.85 11.95 140.0 12.95 L140.4 13.45 Q141.0 14.3 141.0 16.8 L140.35 18.6 Q139.6 20.2 139.0 20.65 138.3 20.05 138.25 19.45 L138.25 19.55 137.45 20.15 Q138.1 20.55 138.35 21.4 L138.5 23.85 138.15 29.65 138.1 29.95 137.75 30.2 137.4 29.95 137.4 30.3 Q138.15 30.2 139.05 31.25 140.0 32.45 140.0 33.05 L139.85 33.85 139.9 33.85 140.0 34.3 Q140.0 34.7 139.05 35.8 L137.65 36.9 Q138.45 37.7 139.3 40.35 L139.5 40.0 139.8 40.1 139.9 40.5 139.9 41.15 138.6 42.2 Q137.15 43.35 136.2 43.35 L132.15 43.45 132.2 43.3 128.1 42.5 127.2 43.1 113.1 43.65 111.25 43.85 Q101.35 43.85 97.7 43.5 L94.3 42.75 92.75 43.35 92.55 43.3 92.0 43.5 92.75 43.65 92.9 44.0 92.6 44.3 91.75 44.25 88.25 44.6 87.1 44.25 85.0 43.75 83.25 44.0 83.75 44.15 83.75 44.5 81.35 44.65 80.75 44.85 79.95 44.75 78.15 44.85 72.85 43.75 71.9 43.65 71.85 43.5 71.85 43.25 71.75 43.0 71.8 42.85 71.75 42.4 Q71.75 39.65 72.15 38.85 L74.0 36.3 74.0 36.25 Q73.85 35.75 74.4 35.4 74.2 35.15 73.65 35.1 73.1 35.0 72.5 34.4 L72.5 33.85 72.6 33.85 Q72.25 33.0 72.25 31.4 L72.3 27.75 72.5 26.2 Q72.35 25.6 72.35 24.7 72.35 23.6 72.5 23.1 72.85 21.8 74.1 21.25 L73.85 20.4 73.5 20.4 Q72.3 20.4 72.0 19.8 L72.0 19.15 Q72.0 13.35 74.25 13.0 L74.35 13.05 Q74.9 12.05 74.35 9.9 L75.1 9.65 75.4 10.8 74.5 13.1 74.85 13.5 73.75 15.15 Q73.45 16.85 74.35 19.0 L74.25 19.15 74.75 19.35 74.9 19.3 75.0 19.75 74.7 20.15 74.9 21.7 74.3 22.85 Q73.7 23.8 73.6 24.25 L73.7 25.7 73.5 26.45 73.65 27.95 73.65 31.5 73.4 33.8 Q74.45 33.8 75.1 34.3 L75.45 34.7 75.6 34.7 75.75 35.15 75.75 35.3 75.75 35.65 75.5 36.55 74.95 36.9 74.45 37.75 Q73.1 40.05 73.1 40.85 73.1 41.65 73.65 42.5 L73.85 42.8 74.0 42.85 Q77.4 44.35 79.5 44.0 L80.95 43.85 Q82.75 43.0 84.6 42.8 L91.9 43.45 91.9 42.55 91.75 41.5 Q91.75 41.1 92.05 41.0 L92.5 40.9 92.9 41.3 93.0 41.95 93.0 42.7 93.8 41.8 94.75 40.65 Q95.25 40.85 95.25 41.45 L95.2 41.85 95.25 41.85 96.3 42.0 99.5 42.15 100.5 42.5 Q109.55 42.05 110.45 42.5 L110.7 42.5 110.95 41.9 Q111.35 41.0 111.35 40.15 L111.5 40.15 111.65 41.0 111.1 42.3 111.0 42.45 Q112.35 42.2 113.15 41.8 L113.2 41.8 113.8 40.7 114.15 40.65 113.7 40.0 112.9 39.0 114.85 38.95 Q115.25 39.55 115.25 40.65 L115.25 41.15 Q118.2 42.35 125.4 41.95 L125.5 41.85 125.75 41.9 126.6 41.85 126.5 41.2 Q126.5 40.35 127.2 40.35 127.9 40.35 127.9 41.25 L128.1 42.35 128.1 42.45 130.75 42.85 132.7 42.65 Q132.85 42.45 133.0 42.4 L133.4 42.55 134.15 42.5 Q137.45 42.5 138.5 41.4 L138.55 41.4 138.25 40.1 Q137.65 38.55 135.75 37.4 L136.3 36.75 136.15 36.7 134.85 36.3 Q135.65 35.3 137.1 34.5 138.25 33.9 139.15 33.8 139.05 33.2 138.45 32.45 L137.25 30.85 136.35 31.5 134.5 31.95 129.95 31.35 128.6 31.15 126.5 31.3 Q125.5 31.3 123.75 30.5 L122.25 29.6 121.95 30.8 120.25 32.4 Q120.1 32.85 118.5 33.3 L116.25 33.7 113.3 33.45 112.35 32.9 112.25 32.7 113.35 32.3 113.95 32.55 114.5 32.8 Q118.15 32.8 119.35 32.2 L119.85 31.85 120.4 30.9 121.15 29.3 120.85 28.4 122.7 28.3 122.9 28.95 Q123.35 29.35 125.25 29.95 L128.4 30.4 130.4 30.65 130.95 30.6 134.65 30.45 Q135.4 30.45 136.7 29.2 136.9 29.05 137.0 29.05 L136.9 27.75 137.4 23.8 137.3 22.05 136.25 20.4 132.1 20.55 127.5 20.25 125.4 19.95 123.75 19.7 124.1 19.35 Q124.5 18.95 126.75 18.95 L127.7 19.05 127.6 19.25 131.2 19.5 Q130.75 19.0 130.75 18.35 L130.75 17.9 131.0 17.9 131.35 18.4 131.5 19.05 131.4 19.45 131.3 19.5 136.0 19.55 Q137.2 19.55 138.35 18.4 L138.75 18.05 139.5 15.6 Q139.5 14.5 138.65 13.5 L138.1 12.95 Q136.95 12.15 135.1 12.4 L134.95 12.05 134.25 12.05 133.65 11.9 Q133.5 12.1 133.5 11.5 133.5 10.85 135.45 9.85 L136.4 9.4 136.35 9.4 134.8 9.3 129.75 9.45 124.6 8.9 123.75 9.05 Q123.45 9.05 122.25 8.3 L121.0 7.3 Q121.0 6.35 121.6 6.2 L122.1 6.55 122.0 6.3 122.0 5.8 122.35 5.8 122.95 7.15 125.0 8.55 124.95 8.6 132.8 8.35 132.65 8.3 132.65 8.05 133.95 8.3 134.25 8.3 135.4 8.35 Q137.0 8.1 138.0 6.8 L138.9 5.55 138.4 4.0 138.35 1.15 138.85 -2.9 Q138.85 -3.65 137.55 -4.35 136.35 -4.95 136.25 -6.35 L132.5 -5.95 129.1 -6.6 134.15 -7.35 136.75 -7.45 136.8 -7.5 Q138.1 -8.15 139.9 -7.95 L140.0 -9.0 Q140.0 -9.75 139.0 -10.45 L138.0 -11.05 137.75 -10.8 137.35 -11.05 Q137.15 -11.25 137.1 -11.55 136.05 -11.6 135.2 -12.0 L134.1 -12.35 135.4 -12.45 135.35 -12.7 Q135.35 -13.6 136.25 -14.6 L137.25 -14.3 136.85 -12.95 136.4 -12.5 137.3 -12.4 138.05 -13.9 Q139.0 -15.35 139.0 -17.3 137.65 -20.75 137.65 -21.55 L137.75 -21.85 137.55 -21.85 136.0 -21.8 130.35 -22.35 130.25 -22.55 134.3 -22.8 136.15 -22.7 137.5 -23.5 Q138.45 -24.45 139.0 -24.6 L139.45 -23.95 139.6 -24.3 Q140.1 -25.45 140.1 -26.15 140.1 -27.0 139.15 -29.45 L138.15 -31.75 138.15 -32.1 137.6 -32.1 135.95 -32.3 135.75 -32.55 135.55 -32.1 Q135.4 -31.95 135.0 -31.95 L131.75 -33.0 126.1 -34.35 132.2 -34.2 Q134.05 -33.65 135.75 -32.55 L135.65 -32.7 Q136.9 -34.2 138.2 -34.35 L138.2 -34.4 Q138.9 -35.7 138.9 -36.8 L138.45 -38.35 138.1 -39.45 129.95 -39.5 Q129.1 -39.0 126.75 -38.65 L123.5 -38.3 123.15 -38.35 123.15 -37.2 Q123.1 -35.75 125.35 -35.2 124.95 -34.8 124.25 -34.8 123.15 -34.8 122.65 -35.5 L122.8 -32.55 122.55 -29.5 Q121.8 -26.9 119.15 -26.9 L118.45 -26.65 118.35 -26.75 Q122.15 -28.6 122.25 -31.4 L122.1 -33.7 Q122.0 -35.1 122.4 -36.0 L122.35 -36.1 122.25 -37.65 122.35 -38.45 Q122.25 -38.55 122.25 -39.0 L122.4 -39.25 121.45 -39.6 119.75 -39.65 115.45 -39.55 112.05 -39.55 111.9 -39.35 111.8 -38.45 Q111.75 -37.95 111.3 -37.95 110.7 -37.95 110.65 -38.4 L110.6 -39.2 110.35 -39.6 107.15 -39.7 103.2 -39.9 99.85 -39.75 85.05 -39.65 83.85 -39.65 82.85 -39.45 81.25 -39.7 81.2 -39.7 81.15 -39.75 80.45 -39.8 80.65 -39.2 80.6 -38.35 80.25 -38.05 79.55 -38.95 Q79.1 -39.5 77.1 -39.85 L77.6 -39.9 76.3 -40.05 75.9 -40.1 75.7 -40.1 74.6 -39.95 73.35 -40.05 73.5 -34.45 Q73.5 -33.85 73.8 -33.5 L73.55 -33.5 73.5 -33.5 73.65 -33.35 74.5 -32.75 74.45 -32.65 75.5 -32.75 75.65 -32.4 Q74.7 -31.25 73.75 -30.75 L72.75 -30.25 73.35 -30.25 73.5 -29.65 73.75 -29.5 73.55 -29.25 73.6 -28.35 73.1 -21.5 Q73.1 -17.9 73.25 -17.0 73.65 -15.1 75.05 -13.0 L79.25 -13.1 83.85 -12.65 Q83.0 -12.0 79.5 -12.0 L75.9 -12.35 75.4 -12.5 75.6 -12.25 75.05 -12.6 74.65 -12.65 74.65 -12.9 Q73.0 -14.35 72.55 -16.75 72.35 -17.75 72.35 -21.55 L72.4 -28.9 71.85 -29.0 71.65 -29.8 Q71.65 -31.8 73.6 -32.45 73.1 -32.6 72.85 -33.15 L72.8 -33.35 72.2 -33.25 72.0 -34.3 Q72.0 -38.4 72.75 -40.5 L72.7 -40.85 72.7 -41.05 72.55 -41.0 Q71.8 -41.6 71.6 -43.35 L71.55 -46.3 Q71.4 -47.95 71.5 -49.5 71.6 -51.4 72.2 -52.35 72.05 -52.35 72.05 -52.9 M74.55 -40.95 L73.2 -42.15 73.2 -41.75 73.05 -41.25 73.7 -40.9 Q74.2 -40.65 74.95 -40.55 L74.55 -40.95 M79.85 -35.95 L80.25 -35.6 80.5 -34.95 80.4 -34.6 80.1 -34.35 Q79.5 -35.3 79.5 -35.85 L79.85 -35.95 M78.25 -35.05 L78.7 -34.0 78.1 -34.0 78.1 -35.05 78.25 -35.05 M76.85 -35.2 L77.5 -33.95 76.85 -33.9 76.5 -35.1 76.85 -35.2 M75.0 -28.25 Q76.5 -29.35 81.9 -29.2 L87.25 -28.8 89.0 -29.4 Q89.6 -28.8 89.6 -28.25 89.6 -27.55 88.75 -27.55 L81.3 -27.7 77.0 -27.9 Q75.2 -27.9 75.0 -28.25 M74.25 -12.5 L74.35 -12.15 74.35 -12.05 74.5 -12.15 75.1 -11.9 75.0 -11.75 74.65 -11.8 74.35 -11.9 73.1 -8.4 Q73.1 -7.2 73.5 -5.7 L73.85 -4.0 73.8 -3.4 74.1 -3.4 74.55 -2.5 Q75.55 -1.8 79.35 -1.8 L79.9 -2.15 80.75 -2.5 Q80.25 -2.35 79.8 -1.5 79.55 -1.0 76.6 -1.0 75.15 -1.0 74.25 -1.7 73.6 -2.2 73.6 -2.5 L73.65 -3.1 73.25 -3.05 72.65 -3.25 Q73.0 -1.95 73.0 -0.05 L72.5 2.65 Q72.5 3.5 73.35 5.3 74.35 7.4 75.7 8.15 L75.7 7.95 82.0 7.9 84.35 7.9 87.95 8.15 Q89.6 7.2 91.15 6.4 L92.25 5.5 92.6 5.5 92.85 5.85 93.0 6.5 91.95 8.15 Q90.8 9.35 90.0 9.35 L87.4 9.25 87.35 8.9 75.5 8.9 74.5 9.1 Q73.2 9.1 72.15 6.6 L71.4 4.05 Q71.4 0.05 72.45 -3.4 L72.25 -3.75 72.1 -4.55 Q72.1 -6.95 72.4 -8.55 72.75 -10.15 73.75 -12.55 L74.25 -12.5 M112.05 -36.3 L112.0 -35.7 111.75 -35.65 111.6 -36.55 111.9 -36.55 112.05 -36.3 M90.25 -27.75 L91.7 -29.35 93.0 -31.0 Q93.5 -30.8 93.5 -30.25 93.5 -29.6 92.6 -28.7 91.65 -27.8 90.6 -27.55 L90.25 -27.75 M89.6 -16.75 L89.75 -16.75 90.0 -13.7 89.7 -12.4 89.25 -11.4 Q89.0 -11.55 89.0 -12.15 L89.3 -14.3 89.6 -16.75 M96.35 -10.85 L96.0 -10.95 95.35 -10.95 95.0 -10.95 94.55 -11.1 95.45 -12.15 96.7 -12.2 98.8 -11.95 100.7 -12.2 101.45 -13.0 Q101.8 -13.8 101.75 -15.6 L102.0 -15.6 102.25 -14.55 102.6 -14.45 102.3 -14.45 102.25 -14.4 102.5 -12.35 102.35 -11.85 Q102.7 -10.2 103.65 -8.6 L103.5 -8.3 Q102.05 -8.85 101.75 -9.4 101.6 -9.65 101.6 -10.65 L101.6 -11.35 101.25 -11.2 97.25 -10.7 96.35 -10.85 M104.35 -7.05 L105.55 -6.55 Q106.3 -6.05 109.2 -6.05 L112.2 -6.2 115.5 -6.55 115.25 -6.7 118.3 -6.75 121.05 -6.85 Q124.15 -6.95 124.35 -9.45 L124.65 -12.95 125.1 -12.95 125.65 -8.75 125.65 -9.7 126.1 -9.7 127.75 -6.55 127.5 -6.2 Q126.85 -6.65 125.65 -8.2 L125.65 -8.35 Q125.65 -7.85 124.5 -6.95 L123.4 -6.25 124.25 -6.05 122.25 -5.6 119.85 -5.45 116.7 -5.7 115.5 -6.55 115.6 -6.45 113.95 -5.9 110.5 -5.45 105.05 -5.8 Q105.05 -6.45 104.35 -6.95 L104.35 -7.05 M138.1 -43.95 L138.25 -43.25 138.2 -42.3 Q138.0 -41.6 137.25 -41.45 L137.1 -41.45 137.5 -42.85 137.65 -43.95 138.1 -43.95 M135.75 -46.2 L136.1 -46.2 136.25 -44.7 136.1 -43.2 135.85 -43.1 135.65 -44.7 135.75 -46.2 M132.3 -41.75 Q132.35 -41.6 132.1 -41.6 L131.3 -42.05 130.8 -42.85 Q131.4 -43.25 131.9 -42.6 L132.3 -41.75 M122.65 -39.45 L122.7 -39.45 122.6 -39.5 122.65 -39.45 M122.75 -39.5 L122.95 -39.6 122.7 -39.6 122.75 -39.5 M136.35 -35.45 L136.5 -35.35 136.5 -34.9 136.25 -33.45 136.1 -33.45 135.9 -34.35 135.9 -35.45 136.35 -35.45 M133.0 -12.45 L132.85 -12.3 132.0 -12.45 132.15 -12.65 132.25 -12.7 132.55 -12.65 133.0 -12.45 M122.2 -19.15 L124.0 -18.05 Q124.0 -17.45 123.6 -17.45 L122.2 -18.0 Q120.85 -18.45 119.9 -19.0 L121.55 -19.35 122.2 -19.15 M124.65 -22.0 L125.75 -21.55 125.75 -21.2 124.5 -20.95 123.9 -21.0 124.65 -22.0 M134.0 5.9 L134.1 7.8 134.0 8.05 133.75 7.4 133.75 5.9 134.0 5.9 M127.1 11.3 L118.6 11.6 Q117.45 11.6 117.2 12.2 L117.1 12.95 117.35 14.95 117.1 15.3 Q116.4 15.2 116.2 14.7 L116.15 13.85 Q116.1 13.45 116.2 13.0 L116.2 12.95 Q116.4 12.15 117.15 11.55 119.6 9.7 127.0 11.15 L127.1 11.3 M122.65 19.6 L121.25 19.6 119.5 19.75 119.4 19.65 118.25 18.65 Q118.8 18.1 119.65 18.4 121.25 19.05 122.5 19.2 L122.65 19.55 122.65 19.6 M137.2 18.5 L136.25 19.15 136.0 19.05 136.85 18.05 Q137.6 17.25 138.15 17.3 L137.2 18.5 M135.0 29.8 Q133.95 29.55 133.95 28.45 133.9 26.9 133.65 26.55 133.75 26.3 134.1 26.3 134.95 26.8 135.0 28.0 L135.0 29.8 M131.75 30.35 L131.6 30.45 130.85 29.55 Q130.85 29.3 131.6 29.3 L131.75 29.45 131.75 29.9 131.75 30.35 M132.0 36.95 L127.5 36.95 127.4 36.95 128.85 38.05 Q129.1 38.3 128.5 38.3 126.15 38.3 125.4 36.45 L125.4 36.4 Q125.1 35.6 125.1 33.95 125.1 33.6 125.45 33.55 L125.75 33.55 126.6 35.65 126.9 36.3 132.0 36.05 132.1 36.15 132.15 36.55 Q132.15 37.2 132.0 36.95 M121.35 0.2 Q121.65 1.1 121.65 2.55 121.65 3.4 120.9 4.55 120.0 5.95 118.75 5.95 L118.45 5.95 Q117.9 7.15 113.85 7.15 110.5 7.15 108.7 5.1 L107.6 2.95 107.9 1.6 Q108.2 0.45 108.5 0.2 L108.25 0.6 Q108.1 0.85 108.1 1.2 108.1 5.9 116.3 5.9 L117.45 5.8 Q116.85 5.6 116.75 5.45 120.15 4.75 120.7 2.8 L121.35 0.2 M102.25 8.15 Q101.75 8.15 100.6 8.5 L99.35 7.4 99.35 7.05 Q101.15 7.05 103.1 7.8 102.75 8.15 102.25 8.15 M101.35 24.45 L99.75 24.8 99.65 24.4 101.25 23.75 Q103.25 23.2 106.75 23.8 L101.35 24.45 M89.45 5.5 L89.5 5.9 Q89.45 7.1 88.0 7.25 L87.85 7.15 89.35 5.5 89.45 5.5 M81.0 10.2 L80.9 11.25 80.75 11.5 Q80.4 10.8 80.4 9.75 L80.85 9.75 81.0 9.8 81.0 10.2 M94.0 22.8 Q94.75 22.75 96.0 23.55 L98.5 25.2 98.5 25.3 Q96.05 25.35 95.25 24.5 L93.9 23.05 94.0 22.8 M94.7 36.0 Q96.6 37.9 96.6 38.8 L96.4 40.4 96.0 40.65 94.35 37.65 Q93.15 35.45 91.9 34.0 92.8 34.1 94.7 36.0 M100.6 30.2 L100.65 29.55 101.1 29.55 Q101.65 30.7 102.25 31.15 103.1 31.8 105.55 32.5 L107.0 32.05 111.35 31.7 111.5 31.65 111.6 32.05 Q111.6 32.7 110.75 32.95 L105.5 33.4 104.0 33.05 104.4 32.9 103.25 33.05 Q101.95 33.05 101.2 31.8 100.6 30.9 100.6 30.2 M83.0 35.5 L80.75 35.75 Q77.6 35.75 75.75 34.6 74.5 33.8 74.5 33.15 L74.6 32.5 Q75.1 32.4 78.6 33.85 81.9 35.2 84.0 34.4 L83.0 35.5 M85.25 34.35 L86.35 34.5 85.1 34.5 85.25 34.35 M88.45 33.8 Q88.9 33.85 89.0 34.0 L87.9 34.55 86.85 34.75 88.0 33.75 88.45 33.8 M118.75 30.05 L119.1 30.05 119.25 30.2 119.25 30.65 119.15 31.2 119.0 31.55 118.85 31.55 118.75 30.65 118.75 30.05 M112.9 36.9 L112.85 36.45 113.05 35.95 113.25 35.85 114.0 36.15 113.25 37.0 112.9 36.9 M74.75 13.0 L74.75 12.75 76.25 13.0 75.5 13.1 74.75 13.0 M17.7 29.05 Q18.0 29.55 18.0 31.05 L17.3 34.3 17.85 34.25 Q18.65 34.3 18.65 35.2 18.65 35.8 18.2 35.85 L17.75 35.85 18.05 37.0 18.0 37.9 18.1 37.95 17.65 41.1 16.9 45.75 16.6 45.8 16.45 45.15 Q15.9 45.5 15.9 46.0 15.9 46.65 16.0 46.5 18.3 46.75 18.85 47.35 L19.0 48.5 18.8 49.75 18.15 50.45 17.75 52.65 Q17.75 53.5 18.4 56.15 L19.0 59.15 18.85 60.55 17.85 61.7 18.0 61.9 18.0 62.25 18.15 62.65 17.95 64.6 17.8 65.5 18.25 65.3 17.95 66.35 18.0 66.65 17.8 67.25 17.6 67.8 17.25 68.85 Q16.8 69.75 16.0 69.75 6.9 69.75 4.6 68.6 L4.0 68.2 Q2.9 69.65 0.35 69.65 L-9.75 68.65 -10.4 68.4 -11.45 68.05 -12.15 67.8 Q-12.8 68.2 -14.6 68.5 L-18.5 68.9 -24.2 68.35 -25.45 67.75 -25.45 67.65 -26.05 68.4 Q-27.05 69.2 -29.0 69.2 L-29.45 69.2 -29.45 69.75 -32.15 69.2 -33.0 68.35 -34.0 67.85 -34.95 66.75 -35.2 67.05 -36.65 68.25 -37.0 68.35 -39.15 69.05 -39.65 68.75 -43.55 68.4 -44.7 68.25 -50.9 68.65 -54.75 68.25 -56.1 67.6 -56.3 67.45 -56.3 67.5 -56.8 67.35 -57.1 66.1 -56.6 64.45 -56.15 63.4 Q-55.7 64.1 -55.25 64.1 L-54.95 64.15 -55.25 64.75 -56.0 66.55 -55.85 66.8 -53.25 67.15 -47.55 67.8 -46.75 67.85 -46.9 67.75 Q-45.35 66.45 -42.65 66.85 L-40.25 67.5 Q-36.2 67.5 -35.1 65.85 L-35.0 65.7 -34.75 65.7 -34.2 65.7 -34.3 65.9 -33.5 66.55 Q-31.7 68.35 -30.95 68.5 L-28.15 67.3 Q-24.7 65.8 -24.7 64.7 -24.7 64.3 -25.75 63.8 -26.8 63.3 -26.8 62.8 -26.8 61.95 -25.15 62.7 -23.5 63.5 -23.5 64.55 L-24.25 65.7 -25.2 67.15 -25.25 67.35 -24.25 67.15 Q-23.85 67.15 -23.55 67.5 L-20.5 67.8 -12.9 67.2 -12.9 67.05 Q-12.9 66.45 -11.8 66.5 L-11.85 66.1 Q-11.85 65.05 -11.25 64.65 L-10.2 66.45 -10.05 66.75 -9.7 66.8 -5.65 67.9 -5.95 68.0 -2.5 68.15 -2.0 68.35 Q-1.65 68.55 -1.3 68.55 2.45 68.55 3.6 67.5 L3.55 67.3 Q2.8 68.15 2.0 68.15 1.65 68.15 1.45 67.95 L0.85 67.65 2.7 65.05 4.5 62.65 Q5.0 63.15 5.0 64.15 L4.7 65.35 4.75 65.65 4.7 66.45 Q5.35 66.5 5.45 66.75 L5.75 67.45 Q6.85 68.5 15.0 68.5 15.45 68.5 16.35 67.05 L17.25 65.9 17.0 64.85 16.85 63.5 16.85 63.4 16.7 63.35 Q16.5 63.3 16.5 62.9 16.5 62.55 16.65 62.45 L17.0 62.4 15.85 61.65 Q15.05 61.1 14.5 60.9 15.2 60.2 16.35 60.65 L16.7 60.8 17.4 59.15 16.8 57.45 Q16.15 55.9 16.15 55.4 15.9 53.85 15.95 52.35 16.1 50.25 17.05 49.45 L17.5 48.8 Q16.5 47.95 14.9 47.9 L14.85 47.15 Q14.85 46.65 15.15 45.95 13.8 47.65 12.75 47.65 L10.35 47.6 7.1 46.9 10.8 46.75 Q14.05 46.65 14.85 44.9 L15.55 43.1 16.15 42.15 16.15 41.85 Q16.15 39.85 16.5 37.75 L16.65 37.15 16.4 36.85 15.75 35.85 -0.75 35.8 -0.85 35.8 -2.8 35.9 -4.7 36.35 Q-5.45 36.45 -6.1 37.05 L-6.85 37.55 Q-7.5 37.55 -7.45 37.1 L-7.0 36.35 -7.0 36.3 -7.45 36.3 -7.45 36.35 Q-7.45 36.75 -7.85 36.75 L-9.1 36.3 -9.15 36.2 -13.35 36.35 -23.15 36.0 -23.25 36.4 -23.5 37.0 -23.8 36.55 -23.8 36.25 -23.95 35.95 -25.75 35.8 -25.9 35.8 -26.0 35.8 -28.7 35.55 -29.65 35.5 -30.6 35.65 -31.2 35.65 -31.6 35.9 -34.6 36.05 -36.25 35.9 -36.65 37.25 -37.1 38.2 Q-37.1 39.0 -35.75 40.05 -33.9 41.5 -33.35 42.3 L-34.0 42.55 -34.2 42.55 Q-34.45 43.25 -36.4 43.45 -38.65 43.65 -38.65 44.85 -38.65 45.4 -38.3 45.6 -38.0 45.75 -38.0 46.2 -38.0 46.65 -38.25 46.8 L-38.05 46.95 Q-37.35 47.55 -36.55 47.5 -35.95 47.5 -35.95 47.75 L-36.9 48.5 Q-37.9 49.25 -37.9 49.9 L-37.4 50.75 -36.6 50.75 -27.75 51.15 -26.45 50.9 Q-25.95 50.65 -25.85 50.65 L-25.3 50.7 -25.15 50.85 -25.85 51.6 Q-26.55 52.3 -27.2 52.3 L-28.45 52.2 -36.6 51.75 Q-37.9 51.65 -38.2 51.35 -38.95 51.2 -38.8 50.15 -38.8 48.65 -37.8 48.1 L-39.15 46.85 -39.0 46.7 -39.4 46.25 -39.6 45.5 Q-39.6 43.1 -37.85 42.75 L-34.9 42.35 Q-36.3 41.65 -37.95 38.8 L-37.75 37.8 -37.4 36.75 -37.15 35.65 Q-38.35 35.2 -39.0 34.25 -39.65 33.35 -39.65 32.4 -39.65 31.55 -39.25 31.2 -39.05 28.1 -37.4 28.4 L-32.3 27.8 -27.35 27.85 -26.55 28.1 -23.25 27.9 -18.25 27.9 -16.9 27.8 1.4 27.2 5.85 27.2 13.3 27.9 15.8 28.5 Q17.2 28.2 17.7 29.05 M16.25 29.2 L15.25 29.45 14.95 29.45 14.7 29.45 12.45 28.9 5.5 28.35 -2.5 28.3 -9.05 28.6 -10.7 28.6 -12.0 28.65 -14.7 28.5 -14.95 28.7 -16.7 28.8 -17.65 28.8 -19.45 29.1 -34.35 28.55 -37.05 28.75 Q-37.25 28.75 -37.5 29.05 L-37.65 28.95 -37.7 29.0 -38.3 30.8 -37.85 32.55 Q-37.85 32.9 -38.15 33.05 L-38.2 33.55 Q-38.15 34.0 -37.5 34.35 L-34.0 35.0 -33.8 34.75 -29.6 34.65 -28.0 34.7 -27.35 34.65 -26.9 34.7 -24.8 34.85 -23.9 34.95 -20.4 35.3 -19.2 35.2 3.3 34.45 Q9.85 34.1 11.45 34.45 L15.15 34.35 Q15.2 33.55 16.0 34.05 L16.85 30.15 16.7 29.6 16.4 29.15 16.25 29.2 M14.25 32.9 L15.2 33.15 14.8 33.45 14.3 33.4 14.2 33.1 14.25 32.9 M12.6 33.4 L13.25 33.65 Q13.9 33.9 14.2 34.15 L13.45 34.0 12.6 33.7 12.6 33.4 M1.75 46.4 L-1.5 46.75 Q-4.05 46.75 -6.05 45.4 -7.6 44.35 -7.6 43.65 L-7.55 42.95 Q-7.8 43.65 -9.0 44.65 -10.6 46.0 -11.9 46.0 L-13.7 45.85 -15.65 45.4 Q-14.9 44.7 -11.75 43.55 L-8.0 42.15 -7.65 42.2 -7.5 42.55 -7.45 42.15 -7.0 40.55 -6.5 40.75 -6.6 40.9 -6.75 41.4 Q-6.75 43.5 -5.8 44.35 -4.0 45.9 1.75 46.05 L1.75 46.4 M11.1 41.8 L11.15 41.15 11.6 41.15 Q12.15 42.05 14.5 43.55 13.75 43.85 12.35 43.0 11.1 42.15 11.1 41.8 M12.9 38.65 L14.5 38.9 13.6 39.5 12.9 38.65 M12.75 44.4 L12.35 43.9 12.75 44.25 12.75 44.4 M12.3 43.9 L10.1 43.5 11.3 43.55 Q11.9 43.65 12.3 43.9 M16.05 44.7 L16.4 44.9 16.3 44.25 16.05 44.7 M10.3 60.45 Q7.4 60.0 1.0 60.65 L0.65 60.55 0.6 60.1 6.5 59.85 13.1 60.9 12.85 61.15 10.3 60.45 M1.4 54.5 Q1.4 55.2 0.7 55.95 1.2 56.2 1.15 57.1 1.05 59.1 1.75 59.4 L0.5 59.65 Q0.35 59.35 0.35 57.85 0.4 57.0 0.05 56.45 L-1.75 56.9 -2.35 56.75 -3.0 56.3 Q-1.9 55.85 -0.75 54.45 L0.75 53.05 Q1.4 53.25 1.4 54.5 M-24.4 36.1 L-24.05 35.95 -23.9 36.3 -24.0 36.4 -24.1 36.25 Q-24.1 36.2 -24.4 36.1 M-32.05 42.1 L-30.75 42.0 -29.25 42.2 Q-27.75 42.2 -26.15 41.3 -25.2 40.8 -24.0 41.75 L-25.75 42.5 Q-27.75 43.25 -29.3 43.25 -32.3 43.25 -32.3 42.5 L-32.05 42.1 M-25.8 39.6 L-26.1 39.75 Q-27.05 39.75 -27.4 39.1 -27.15 38.75 -26.6 38.95 -26.05 39.1 -25.85 39.55 L-25.8 39.6 M-27.95 39.6 L-26.5 41.2 -26.7 41.35 -28.35 39.8 -27.95 39.6 M-28.0 47.7 Q-24.05 48.3 -24.05 49.85 L-24.2 50.5 -24.3 50.55 Q-24.4 49.35 -24.65 49.15 -25.65 48.5 -30.2 48.2 L-30.3 48.0 -30.25 47.8 -28.0 47.7 M-7.1 46.6 L-5.75 46.5 -5.65 46.65 -7.5 48.3 Q-7.85 47.9 -7.85 47.3 -7.85 46.8 -7.1 46.6 M-57.1 61.3 L-56.95 61.75 -57.05 61.65 Q-57.85 61.1 -57.85 60.55 L-57.85 60.45 -57.7 60.5 -57.05 60.8 -57.1 61.3 M-3.45 50.6 L-3.35 51.15 -3.75 51.7 Q-4.15 52.05 -4.5 52.05 L-5.15 51.75 -4.4 50.85 -3.65 50.4 -3.45 50.6 M-11.65 61.5 Q-10.75 62.1 -10.75 62.85 -10.75 63.35 -11.75 64.15 L-12.0 63.25 -11.9 62.95 Q-11.9 62.65 -12.85 61.9 L-14.15 60.9 Q-12.65 60.85 -11.65 61.5 M-15.5 54.65 Q-20.65 55.15 -21.35 57.65 L-21.5 57.8 -22.0 56.2 Q-22.0 55.0 -20.3 54.5 L-15.5 54.3 -15.5 54.65 M-37.75 51.8 L-38.15 54.75 -38.4 56.2 Q-38.3 55.8 -38.05 55.7 -37.7 56.05 -37.65 56.5 L-37.65 57.35 -37.65 58.05 Q-37.7 58.45 -38.1 58.45 L-38.65 57.95 -39.15 57.25 -39.05 57.1 -38.95 57.05 -39.0 56.5 -38.6 54.05 -38.2 51.6 -37.95 51.6 -37.8 51.65 -37.75 51.8" fill="#5b5546" fill-rule="evenodd" stroke="none"/>
    <path d="M-56.45 60.65 Q-57.1 61.15 -57.1 61.5 -57.1 62.7 -56.8 63.0 L-54.35 64.3 -53.05 63.95 -54.25 63.8 -51.5 63.7 -49.55 63.55 -49.65 63.5 -48.55 63.5 -48.25 63.5 -46.95 63.45 -46.1 63.45 -38.75 63.3 -38.7 63.45 -35.65 63.4 -35.75 61.9 Q-35.75 61.0 -35.2 60.75 L-36.15 59.2 -44.5 59.25 -52.45 59.35 -55.5 59.5 -55.4 59.65 -56.45 60.65 M-51.25 58.3 L-44.5 58.5 -35.95 58.75 -35.75 58.8 Q-35.75 59.15 -36.0 59.15 -34.85 59.15 -34.15 60.2 -33.7 60.9 -33.25 62.55 -33.4 62.9 -34.0 62.9 L-34.4 62.8 Q-34.5 64.4 -35.25 64.4 L-38.6 64.35 -41.0 64.65 -42.65 64.3 -46.0 64.2 Q-46.75 64.45 -47.5 65.05 L-47.85 65.0 -50.1 64.9 -50.05 64.8 -49.75 64.65 -52.4 64.7 -53.75 64.9 -54.0 64.9 -54.9 64.8 -55.0 64.8 -55.3 64.8 -55.25 65.05 -56.0 65.15 -56.0 64.7 Q-56.95 64.45 -57.5 63.75 L-58.0 62.65 -57.8 60.2 Q-57.45 58.9 -56.5 59.05 -54.5 58.45 -51.25 58.3 M-34.25 61.9 L-34.4 61.75 -34.4 61.9 -34.25 61.9" fill="#5b5546" fill-rule="evenodd" stroke="none"/>
  </g>
</svg>
