<?xml version="1.0" encoding="UTF-8" standalone="no"?>
<svg xmlns:xlink="http://www.w3.org/1999/xlink" height="263.4px" width="93.1px" xmlns="http://www.w3.org/2000/svg">
  <g transform="matrix(1.0, 0.0, 0.0, 1.0, 81.25, 126.65)">
    <path d="M6.5 -108.3 Q5.5 -104.85 5.5 -103.6 5.5 -92.8 7.65 -70.25 9.75 -47.75 9.75 -36.5 9.75 -33.7 9.45 -32.8 8.45 -29.95 4.75 -29.0 L6.3 -26.45 Q7.75 -24.15 7.75 -23.0 7.75 -21.55 6.6 -19.45 L4.5 -16.25 4.5 -16.0 Q6.2 -16.35 7.75 -18.05 9.1 -19.5 11.0 -19.5 L11.85 -19.45 Q10.0 -15.8 10.0 -7.75 L10.05 -7.3 Q5.35 -2.8 6.0 8.25 6.2 12.75 5.75 21.2 L5.25 30.35 Q5.25 38.0 8.15 40.6 9.6 41.9 10.1 43.05 11.0 45.15 11.0 49.5 11.0 51.8 9.8 53.25 8.25 55.0 5.0 55.0 -1.6 55.0 -5.95 48.25 -7.35 46.15 -8.3 43.6 L-9.0 41.5 Q-9.0 38.35 -6.35 35.45 -3.75 32.5 -3.75 30.6 -3.75 30.05 -6.75 24.65 -9.75 19.25 -9.75 18.6 -9.75 14.0 -7.75 8.85 -5.75 3.7 -5.75 1.0 -5.75 -2.55 -7.6 -4.6 -9.5 -6.65 -9.5 -10.25 L-8.5 -24.85 -7.6 -30.45 Q-6.75 -34.85 -6.75 -36.1 -6.75 -37.35 -5.75 -38.55 -4.75 -39.75 -4.75 -41.0 -4.75 -51.1 -7.35 -71.35 -10.0 -91.6 -10.0 -101.75 -10.0 -114.55 -7.25 -121.05 -4.95 -126.6 -1.25 -126.65 2.1 -126.65 4.75 -122.55 7.5 -118.4 7.5 -113.0 7.5 -111.75 6.5 -108.3 M-56.85 61.4 Q-56.85 62.05 -57.45 62.8 -58.35 63.85 -59.75 63.8 L-59.85 63.7 -60.0 64.55 -58.85 65.8 -57.75 67.0 Q-57.75 67.55 -59.75 69.9 L-61.75 72.5 -61.25 74.3 -60.75 76.25 -59.8 77.55 Q-58.85 78.6 -58.85 79.0 -58.85 80.05 -59.95 80.85 -61.05 81.65 -62.75 81.8 L-62.15 82.65 Q-61.85 83.1 -61.85 83.85 -61.85 84.3 -62.55 85.1 -63.3 86.0 -64.35 86.55 L-64.5 86.75 Q-62.4 87.1 -61.5 88.05 -60.85 88.7 -60.85 89.5 -60.85 90.3 -62.5 92.1 -62.5 92.75 -61.9 93.45 -61.35 94.15 -61.35 94.75 -61.35 96.25 -62.6 97.25 -63.8 98.15 -67.75 99.8 L-68.1 100.25 -66.0 100.3 -64.35 99.35 Q-63.4 98.8 -62.0 98.8 -59.8 98.8 -59.35 106.25 -59.15 109.95 -59.35 113.75 L-58.6 115.4 Q-57.85 116.6 -57.85 116.85 -57.85 117.7 -60.0 124.25 -57.35 125.2 -57.35 127.55 -57.35 128.2 -57.85 129.55 L-58.35 131.5 Q-58.35 133.2 -59.35 134.0 -60.75 135.05 -64.25 135.05 -69.5 135.05 -70.05 133.55 L-69.6 131.25 Q-76.25 132.05 -78.3 130.25 -79.1 129.55 -79.1 128.0 -79.1 125.9 -77.05 125.0 -75.0 124.1 -75.0 122.85 -75.0 122.3 -75.8 120.8 -76.6 119.25 -76.6 118.9 -76.6 116.65 -73.25 116.0 L-72.5 115.8 -71.35 115.75 Q-75.7 115.55 -77.0 114.4 -77.6 113.9 -77.6 112.75 -77.6 111.15 -76.5 110.05 L-73.0 107.25 -72.85 107.05 Q-76.8 107.55 -78.05 106.15 -78.6 105.5 -78.6 104.0 -78.6 102.4 -76.4 100.6 -74.25 98.85 -74.25 98.25 L-74.65 96.55 -75.0 95.25 Q-78.0 95.3 -78.85 93.75 L-79.1 92.0 Q-79.1 91.2 -76.45 86.6 L-73.85 82.05 Q-73.85 81.0 -75.4 80.05 -77.0 79.1 -77.0 77.55 -77.0 77.15 -76.0 76.45 -74.8 75.6 -74.0 73.5 L-74.95 72.45 -75.25 71.0 Q-75.25 70.15 -74.75 69.4 L-73.25 67.5 Q-74.35 63.6 -74.8 62.5 -75.4 60.95 -77.1 59.75 -74.0 55.95 -65.2 57.85 -62.0 58.55 -59.35 59.75 -56.85 60.85 -56.85 61.4" fill="#5b5546" fill-opacity="0.3019608" fill-rule="evenodd" stroke="none"/>
    <path d="M3.7 -110.25 Q2.25 -108.75 -3.5 -108.75 L-4.6 -108.85 -5.75 -109.1 -5.9 -109.55 Q-6.1 -109.85 -6.1 -110.6 L-2.95 -113.0 0.75 -115.35 Q0.65 -115.55 0.7 -115.85 L-0.15 -116.1 Q-0.75 -116.1 -1.3 -115.6 -1.85 -115.1 -2.5 -115.1 L-5.75 -115.35 -5.9 -115.55 Q-6.1 -115.8 -6.1 -116.55 -6.1 -117.6 -4.5 -118.3 -2.85 -119.0 -0.9 -118.85 4.25 -118.4 4.25 -113.05 4.25 -110.8 3.7 -110.25" fill="#5b5546" fill-opacity="0.3019608" fill-rule="evenodd" stroke="none"/>
    <path d="M5.7 -67.45 L0.5 -65.75 Q2.8 -64.85 4.85 -63.05 7.05 -61.05 7.05 -59.6 7.05 -58.25 6.0 -57.0 4.6 -55.35 2.25 -55.35 -1.2 -55.35 -1.6 -56.9 -1.8 -57.7 -1.35 -58.6 L-2.95 -61.4 Q-4.6 -64.1 -4.6 -65.0 L-4.5 -66.3 Q-4.2 -67.35 -3.1 -67.75 L-3.65 -68.15 Q-3.85 -68.4 -3.85 -69.25 -3.85 -70.7 1.6 -71.45 7.05 -72.15 7.05 -69.05 7.05 -67.8 5.7 -67.45" fill="#5b5546" fill-opacity="0.3019608" fill-rule="evenodd" stroke="none"/>
    <path d="M4.0 -33.75 Q-0.5 -37.65 -5.9 -36.75 L-8.9 -36.1 Q-10.0 -35.95 -10.0 -36.85 -10.0 -38.55 -1.6 -38.8 6.75 -39.1 6.75 -37.0 6.75 -36.3 5.75 -35.3 L4.0 -33.75" fill="#5b5546" fill-opacity="0.3019608" fill-rule="evenodd" stroke="none"/>
    <path d="M6.3 -14.75 Q5.35 -12.75 4.0 -12.75 1.5 -12.75 1.5 -15.3 1.55 -16.8 2.3 -18.6 -0.55 -19.0 -2.35 -20.15 -4.0 -21.2 -4.0 -22.35 -4.0 -23.0 -2.6 -24.45 -1.1 -25.95 0.65 -26.8 5.45 -29.15 6.5 -23.75 L6.9 -20.35 7.05 -17.55 Q7.05 -16.35 6.3 -14.75" fill="#5b5546" fill-opacity="0.3019608" fill-rule="evenodd" stroke="none"/>
    <path d="M5.85 5.2 Q6.25 5.55 6.25 6.35 6.25 7.45 4.55 10.0 2.9 12.5 2.25 12.5 L-4.95 12.3 Q-6.85 12.0 -6.85 10.6 -6.85 9.7 -1.25 7.35 L5.0 4.8 5.85 5.2" fill="#5b5546" fill-opacity="0.3019608" fill-rule="evenodd" stroke="none"/>
    <path d="M7.9 43.9 L7.25 45.0 Q7.25 46.25 7.55 48.75 10.0 49.0 11.05 50.0 11.75 50.65 11.75 51.5 11.75 53.75 8.5 53.75 2.85 53.75 3.3 49.8 L-5.0 54.05 Q-7.2 54.05 -7.6 52.5 L-7.6 50.8 -6.45 49.0 Q-5.35 47.5 -5.35 46.75 -5.35 46.15 -5.85 44.1 L-6.35 41.4 Q-6.35 39.65 -5.6 39.25 -4.85 38.8 -1.85 38.8 5.45 38.8 6.3 39.0 8.55 39.55 8.55 42.65 L7.9 43.9" fill="#5b5546" fill-opacity="0.3019608" fill-rule="evenodd" stroke="none"/>
    <path d="M9.5 41.5 L8.5 45.75 Q8.5 46.9 7.8 47.8 6.65 49.3 4.0 49.3 L2.9 49.15 1.8 48.75 1.7 48.5 Q1.55 48.35 1.55 47.6 3.05 46.35 3.05 45.75 L2.8 43.8 2.5 42.05 Q-3.65 42.55 -7.6 42.05 L-7.7 41.85 -7.85 40.9 -7.8 40.15 -7.6 39.8 5.9 38.55 Q9.5 38.55 9.5 41.5" fill="#5b5546" fill-opacity="0.3019608" fill-rule="evenodd" stroke="none"/>
    <path d="M2.3 27.9 Q1.85 28.85 0.25 30.0 L7.3 30.65 Q8.5 31.05 8.5 32.0 8.5 32.65 -2.5 35.0 -4.55 35.0 -5.0 33.45 L-5.0 31.75 Q-5.0 30.85 -4.25 30.2 L-0.85 26.75 -0.6 26.5 Q-3.35 25.85 -4.15 25.05 -4.6 24.6 -4.6 23.5 -4.6 19.75 -1.0 22.15 2.55 24.55 2.55 26.15 L2.3 27.9" fill="#5b5546" fill-opacity="0.3019608" fill-rule="evenodd" stroke="none"/>
    <path d="M-61.25 134.4 Q-61.25 135.35 -61.85 136.0 -62.6 136.75 -64.0 136.75 -65.85 136.75 -66.95 134.85 L-67.85 132.8 -72.1 133.55 -76.75 134.0 Q-79.5 134.0 -80.25 133.0 L-80.5 131.85 Q-80.5 131.05 -80.2 130.75 L-79.5 130.05 Q-81.25 129.55 -81.25 127.9 -81.25 123.3 -66.25 123.3 -63.75 123.3 -62.25 128.8 -61.5 131.55 -61.25 134.4" fill="#5b5546" fill-opacity="0.3019608" fill-rule="evenodd" stroke="none"/>
    <path d="M-67.55 108.6 Q-69.4 109.4 -70.5 110.3 L-71.0 111.5 -67.55 112.0 -65.25 111.4 Q-63.6 110.75 -63.0 110.75 L-62.0 110.9 -61.5 111.3 Q-61.1 113.2 -61.1 114.5 -61.1 115.3 -65.5 116.3 -69.8 117.3 -73.0 117.3 -76.65 117.3 -78.1 114.7 L-78.85 112.0 Q-78.85 110.1 -72.55 107.0 -66.25 103.85 -66.25 107.5 -66.25 108.05 -67.55 108.6" fill="#5b5546" fill-opacity="0.3019608" fill-rule="evenodd" stroke="none"/>
    <path d="M-61.2 77.6 L-61.1 78.5 -62.6 80.0 Q-62.6 80.65 -61.2 83.55 L-59.85 86.5 Q-59.85 87.4 -60.75 87.8 L-62.0 88.05 Q-63.8 88.05 -64.55 85.7 L-65.0 83.05 -74.4 82.7 Q-75.5 82.35 -75.5 81.6 -75.5 79.35 -72.1 78.8 -66.2 78.35 -61.35 77.3 L-61.2 77.6" fill="#5b5546" fill-opacity="0.3019608" fill-rule="evenodd" stroke="none"/>
    <path d="M-73.25 68.25 L-73.35 67.8 -73.5 66.75 Q-73.5 65.45 -71.6 64.05 -73.1 62.8 -73.1 62.35 -73.1 59.55 -67.95 61.45 -62.85 63.3 -62.85 65.0 -62.85 66.0 -65.9 67.25 -68.85 68.5 -71.0 68.5 L-73.25 68.25" fill="#5b5546" fill-opacity="0.3019608" fill-rule="evenodd" stroke="none"/>
    <path d="M1.75 -118.0 Q1.75 -117.4 1.0 -116.9 0.4 -116.5 0.0 -116.5 -1.35 -116.5 -3.0 -121.6 -4.35 -121.0 -5.15 -119.45 -5.95 -117.95 -7.0 -117.6 -8.3 -118.85 -8.3 -119.95 L-8.0 -121.1 Q-8.0 -121.85 -8.8 -122.0 L-9.75 -122.25 Q-3.3 -126.05 -0.85 -126.55 2.55 -127.15 2.55 -123.05 L1.75 -118.0" fill="#669900" fill-opacity="0.3019608" fill-rule="evenodd" stroke="none"/>
    <path d="M5.5 -109.5 Q3.4 -105.85 1.85 -104.75 1.3 -104.35 1.3 -102.55 1.3 -101.6 0.7 -101.35 L-2.0 -101.1 Q-5.55 -101.1 -6.85 -102.15 -7.5 -102.65 -7.5 -103.35 -7.5 -104.45 -6.6 -104.75 -5.0 -105.15 -3.5 -105.75 L-3.7 -106.15 -3.75 -107.25 Q-3.75 -108.8 -2.8 -109.0 0.25 -109.4 4.5 -110.5 L5.5 -109.5" fill="#669900" fill-opacity="0.3019608" fill-rule="evenodd" stroke="none"/>
    <path d="M1.5 -75.0 L1.3 -74.6 -0.65 -74.65 -3.0 -74.75 Q-4.35 -74.75 -5.1 -74.0 L-5.5 -73.85 Q-3.85 -72.25 -3.85 -67.6 -3.85 -66.3 -4.8 -66.2 -6.55 -66.15 -7.85 -65.0 -8.25 -67.95 -8.25 -70.6 -8.25 -74.35 -3.35 -76.65 -1.4 -77.55 0.0 -77.4 1.5 -77.2 1.5 -75.75 L1.5 -75.0" fill="#669900" fill-opacity="0.3019608" fill-rule="evenodd" stroke="none"/>
    <path d="M4.1 -79.2 Q4.3 -79.15 4.3 -78.35 4.3 -77.8 2.75 -76.1 1.05 -74.25 0.0 -74.25 -0.9 -74.25 -1.05 -74.65 L-1.2 -75.4 Q-1.65 -76.45 -6.6 -76.0 L-6.8 -76.1 Q-7.0 -76.25 -7.0 -77.0 L-5.7 -76.9 Q-3.35 -76.25 0.5 -77.6 1.45 -77.9 2.35 -78.55 L3.5 -79.35 4.1 -79.2" fill="#669900" fill-opacity="0.3019608" fill-rule="evenodd" stroke="none"/>
    <path d="M5.5 -33.35 L5.75 -33.05 5.8 -32.05 Q5.8 -31.05 4.75 -30.0 3.9 -29.1 3.5 -29.1 2.55 -29.1 0.05 -33.1 L-1.8 -32.6 -5.1 -32.5 -5.3 -32.6 Q-5.5 -32.75 -5.5 -33.5 -5.5 -34.55 -4.45 -34.9 -2.45 -35.55 -1.75 -36.0 L-2.7 -36.85 Q-3.0 -37.25 -3.0 -38.05 L-3.0 -38.85 -2.85 -39.25 -2.35 -39.25 Q-1.05 -36.85 3.9 -36.6 8.3 -36.4 8.3 -35.0 8.3 -33.55 5.5 -33.35" fill="#669900" fill-opacity="0.3019608" fill-rule="evenodd" stroke="none"/>
    <path d="M1.0 -36.5 Q2.0 -35.7 2.0 -34.0 3.95 -33.95 4.85 -33.25 L5.75 -32.1 Q4.6 -31.0 2.8 -30.85 L3.8 -29.0 3.3 -28.2 Q2.95 -27.6 2.5 -27.6 0.45 -27.6 0.0 -29.9 -0.2 -31.05 0.0 -32.5 0.0 -35.65 1.0 -36.5" fill="#669900" fill-opacity="0.3019608" fill-rule="evenodd" stroke="none"/>
    <path d="M6.8 -1.1 Q6.8 -0.4 6.15 -0.05 5.3 0.45 3.0 0.55 L4.2 2.3 Q4.75 3.15 4.75 4.0 4.75 6.25 1.0 6.25 -0.25 6.25 -0.25 4.25 -2.55 4.25 -3.1 3.55 -3.25 4.1 -3.25 2.85 L-2.15 0.95 Q-1.1 -0.8 -1.1 -1.55 -1.1 -2.65 2.85 -2.9 6.8 -3.2 6.8 -1.1" fill="#669900" fill-opacity="0.3019608" fill-rule="evenodd" stroke="none"/>
    <path d="M0.4 6.45 Q-0.2 7.15 -3.0 7.55 L-5.75 7.55 -5.9 7.35 -6.1 6.35 Q-6.1 5.5 -2.9 4.15 0.55 2.7 2.75 3.55 1.2 5.1 0.4 6.45" fill="#669900" fill-opacity="0.3019608" fill-rule="evenodd" stroke="none"/>
    <path d="M3.75 33.1 Q3.75 35.65 1.55 38.05 -1.15 41.05 -5.5 41.05 -7.05 41.05 -7.5 40.15 L-7.6 39.1 Q-7.6 38.3 -6.05 36.1 -4.35 33.65 -3.0 33.25 L-1.25 33.0 Q-5.5 32.85 -5.5 31.1 -5.5 29.5 -4.45 28.45 -2.65 26.7 -1.85 25.3 L-3.7 23.35 Q-2.15 24.45 -1.0 24.05 0.15 25.0 0.15 26.75 L-0.1 29.55 Q1.15 31.05 2.75 31.75 3.75 32.2 3.75 33.1" fill="#669900" fill-opacity="0.3019608" fill-rule="evenodd" stroke="none"/>
    <path d="M4.65 36.7 L5.5 37.8 Q5.15 38.8 2.55 40.0 L-2.5 42.25 Q-3.45 41.85 -3.7 41.2 L-3.75 40.1 Q-3.75 38.6 -2.25 37.45 -0.7 36.3 1.5 36.3 L4.65 36.7" fill="#669900" fill-opacity="0.3019608" fill-rule="evenodd" stroke="none"/>
    <path d="M-64.45 108.4 Q-65.3 109.0 -68.0 109.25 -67.5 110.65 -65.35 111.6 -63.5 112.45 -63.5 113.5 -63.5 114.05 -65.0 115.0 -66.55 116.0 -67.75 116.0 -72.35 116.0 -73.4 112.6 L-73.5 108.85 Q-73.5 106.75 -68.75 105.9 -64.0 105.05 -64.0 107.15 -64.0 108.05 -64.45 108.4" fill="#669900" fill-opacity="0.3019608" fill-rule="evenodd" stroke="none"/>
    <path d="M-69.3 109.55 Q-69.1 108.85 -69.25 108.3 L-68.85 108.3 -66.85 111.95 Q-66.35 112.85 -66.35 114.1 -66.35 115.35 -67.2 116.6 -68.25 118.0 -69.75 118.0 L-72.0 117.75 Q-71.85 117.1 -71.85 115.85 -71.85 114.7 -72.85 113.25 -73.8 111.8 -73.85 110.25 L-73.9 109.9 Q-73.8 109.55 -73.0 109.55 L-71.35 110.45 Q-69.95 111.45 -69.25 112.3 L-69.85 112.85 -70.6 113.05 -70.35 114.4 -70.1 115.75 -68.75 115.75 Q-68.5 115.1 -68.5 113.85 -68.5 113.25 -69.0 112.45 L-69.5 111.0 -69.3 109.55" fill="#669900" fill-opacity="0.3019608" fill-rule="evenodd" stroke="none"/>
    <path d="M-72.3 84.5 Q-68.5 85.25 -65.35 86.8 -65.55 87.4 -67.25 88.0 L-67.25 88.75 Q-64.7 88.75 -64.05 89.4 -63.85 89.65 -63.85 90.55 -63.85 91.25 -64.55 92.25 -65.25 93.25 -65.25 94.0 L-65.5 95.0 -65.9 95.15 -67.0 95.25 Q-70.0 95.25 -71.4 92.65 -72.65 90.3 -71.75 88.5 -74.75 87.75 -76.25 85.0 -76.25 83.75 -75.35 83.3 -75.0 84.0 -72.3 84.5" fill="#669900" fill-opacity="0.3019608" fill-rule="evenodd" stroke="none"/>
    <path d="M-63.35 88.55 L-63.25 89.35 -63.35 90.3 -63.8 90.55 -65.0 90.75 -66.6 90.5 -66.85 89.9 -67.25 89.3 Q-66.4 88.45 -66.0 88.3 L-63.5 88.5 -63.35 88.55" fill="#669900" fill-opacity="0.3019608" fill-rule="evenodd" stroke="none"/>
    <path d="M-75.0 67.55 L-75.85 67.35 -76.1 66.35 Q-76.1 64.9 -74.25 64.45 L-70.15 64.65 Q-64.25 66.2 -64.25 70.0 -64.25 71.3 -65.2 73.1 -66.25 75.15 -66.5 77.05 L-70.75 77.05 Q-71.0 77.75 -71.0 76.5 L-70.85 75.2 -70.5 74.25 Q-70.25 74.55 -70.25 75.75 L-67.85 75.75 Q-67.75 76.35 -67.75 75.1 L-68.8 74.55 Q-69.85 74.0 -69.85 73.5 L-69.4 71.7 -69.0 69.75 Q-67.35 69.75 -67.0 70.3 L-66.75 70.25 Q-67.45 68.8 -69.75 67.6 -71.75 66.55 -73.0 66.55 -73.7 66.55 -74.2 66.95 L-75.0 67.55" fill="#669900" fill-opacity="0.3019608" fill-rule="evenodd" stroke="none"/>
    <path d="M-67.6 72.3 L-61.85 73.5 -61.5 74.5 -62.3 75.1 -64.0 75.5 Q-65.8 75.5 -70.5 73.8 -69.6 70.35 -69.6 69.1 -69.6 67.75 -68.5 67.3 -67.15 67.95 -67.3 69.6 L-67.6 72.3" fill="#669900" fill-opacity="0.3019608" fill-rule="evenodd" stroke="none"/>
    <path d="M7.25 40.25 L7.0 39.6 Q7.0 38.0 7.95 39.6 8.9 41.2 8.9 42.7 8.35 45.7 7.3 46.45 L7.65 46.9 7.85 48.05 8.1 48.55 8.2 48.55 Q11.05 49.55 11.05 51.1 L11.0 51.55 11.15 51.5 11.25 51.75 10.8 52.15 10.0 52.45 9.45 52.4 9.35 52.1 9.8 51.75 10.35 51.65 Q9.85 51.1 9.15 50.5 7.3 49.0 5.45 48.75 L5.35 48.5 Q5.35 47.75 7.05 48.2 L7.1 47.8 7.05 47.2 6.95 47.05 6.6 47.55 5.2 46.45 4.45 46.3 2.65 45.95 2.45 45.95 1.2 45.9 1.4 46.35 Q1.4 46.9 0.7 47.85 0.7 48.3 0.05 48.3 L-1.25 47.0 Q-2.25 45.8 -4.4 46.3 L-4.5 46.0 -4.45 45.95 -5.0 45.9 -5.3 46.05 -6.35 47.2 Q-7.45 48.55 -7.45 49.75 L-7.05 51.35 -5.55 51.35 Q-3.05 51.5 -2.2 52.35 -2.65 52.8 -4.8 52.8 L-6.8 52.3 -7.35 52.0 Q-8.35 51.8 -8.55 49.75 -8.55 48.3 -6.9 46.65 L-6.1 45.95 Q-7.35 45.55 -8.2 43.5 L-8.15 40.85 Q-8.4 40.1 -7.4 39.35 -6.35 38.6 -6.35 39.5 L-6.45 39.9 -6.9 39.85 Q-7.15 39.85 -7.2 40.5 L-6.95 43.25 Q-6.6 44.5 -5.7 45.1 L-5.35 45.0 -3.2 45.1 Q-2.8 44.6 -1.65 44.65 L4.65 45.35 4.7 45.05 Q5.05 45.05 5.3 45.3 L6.0 45.0 Q7.0 44.65 7.15 44.3 L7.6 42.3 7.25 40.25 M1.8 47.8 L1.45 47.3 Q1.45 46.5 2.8 46.3 L2.95 46.6 2.45 47.15 1.8 47.8 M3.6 49.45 Q3.05 50.2 3.05 50.45 L3.35 50.9 3.65 51.35 3.6 51.55 3.15 51.7 Q2.9 52.1 1.35 52.1 L-0.95 51.8 1.9 51.15 2.15 51.1 2.1 50.4 Q2.1 49.9 2.85 48.85 3.65 47.65 4.3 48.6 L3.6 49.45 M-63.55 123.4 Q-62.95 123.55 -62.6 124.55 -62.3 125.45 -62.3 126.55 L-62.5 128.15 -63.0 128.5 -63.4 127.9 -64.15 129.25 -64.15 129.3 Q-61.55 128.65 -61.55 133.45 -61.55 134.05 -61.8 134.25 L-62.5 134.35 -63.25 134.25 -63.3 133.55 -62.75 131.8 Q-62.75 130.9 -62.9 130.65 -63.25 130.1 -64.55 129.8 -65.35 130.75 -66.25 130.75 L-68.8 130.35 -69.0 130.35 -69.0 130.55 -69.05 131.15 -69.5 131.5 -70.3 130.65 Q-71.05 129.9 -71.8 129.85 L-71.55 129.85 -72.3 129.6 -65.05 128.3 -63.7 126.95 -63.85 126.4 -64.25 126.4 -64.5 124.3 Q-65.0 125.0 -66.25 125.0 -66.55 125.0 -66.85 124.7 L-67.25 124.35 Q-70.25 124.35 -70.55 125.05 -70.85 125.75 -72.25 125.75 -75.25 125.75 -76.35 125.15 L-76.45 125.35 Q-76.9 126.1 -76.9 126.8 -76.9 127.9 -76.6 128.15 -75.9 128.7 -72.3 129.25 L-75.5 129.75 -76.45 129.7 -77.4 130.55 Q-78.55 131.35 -78.55 132.65 L-78.3 133.2 -78.0 133.5 -78.05 133.65 Q-79.05 133.7 -79.3 132.85 L-79.4 131.75 Q-79.4 131.05 -78.1 129.75 L-77.5 129.2 -78.0 128.35 -78.0 126.9 -77.95 125.15 Q-77.8 124.2 -77.0 123.5 L-76.8 123.55 Q-76.0 122.65 -71.8 122.65 -66.55 122.65 -64.5 124.25 L-64.65 122.9 Q-64.65 122.55 -64.45 122.5 L-64.25 122.5 Q-63.75 122.65 -63.55 123.4" fill="#5b5546" fill-rule="evenodd" stroke="none"/>
    <path d="M3.5 -124.35 L2.05 -123.2 1.85 -123.3 1.8 -123.8 Q1.8 -126.0 3.95 -125.95 6.0 -125.85 7.05 -124.05 L6.9 -123.8 5.95 -124.7 Q5.55 -125.15 4.65 -125.15 4.5 -125.15 3.5 -124.35 M7.3 -123.55 Q7.8 -118.3 7.8 -113.2 L7.7 -112.25 6.05 -111.05 4.85 -111.05 4.7 -110.8 7.95 -110.1 Q8.3 -109.9 8.3 -109.0 L8.15 -107.75 7.4 -107.05 7.55 -104.35 Q7.55 -101.95 3.8 -101.95 L2.1 -102.15 1.8 -102.35 0.6 -102.3 Q-0.85 -102.3 -1.7 -103.1 -1.9 -102.55 -3.15 -101.9 -4.8 -101.05 -6.45 -101.05 L-6.6 -101.05 -6.85 -100.15 -7.1 -99.2 -6.95 -97.85 Q-6.6 -97.05 -5.45 -97.05 L-3.6 -97.05 Q-2.5 -97.7 -1.85 -97.45 L-1.7 -97.4 -1.2 -97.7 Q-0.1 -97.7 0.15 -97.3 L-0.65 -97.15 0.9 -96.9 0.7 -98.05 1.15 -98.05 Q1.25 -97.95 1.3 -98.0 L1.3 -97.6 1.15 -96.9 2.55 -96.8 2.5 -98.15 Q2.55 -99.0 3.3 -99.55 L3.9 -99.3 Q3.4 -99.05 3.15 -98.1 L2.9 -96.8 3.05 -96.8 Q7.55 -96.8 7.55 -100.05 L7.3 -100.5 Q7.05 -100.6 7.05 -100.9 7.05 -101.95 7.65 -102.15 L8.45 -100.15 8.55 -98.55 Q8.55 -97.6 6.55 -96.55 4.45 -95.45 1.9 -95.4 L2.4 -95.05 2.55 -93.8 Q2.55 -92.7 2.05 -91.55 L1.95 -91.3 Q2.9 -90.6 5.95 -90.75 L6.25 -93.25 6.55 -96.05 6.55 -96.3 Q7.9 -95.9 7.55 -93.45 L7.45 -91.5 Q7.3 -90.75 6.8 -90.3 L6.6 -89.95 5.15 -89.8 Q2.65 -89.8 1.75 -90.8 L1.7 -90.9 Q1.1 -89.95 0.05 -89.95 L-1.45 -90.05 -2.1 -90.3 0.15 -92.35 Q1.45 -93.4 1.45 -93.75 L0.85 -94.7 0.25 -95.45 -1.4 -95.75 -3.3 -96.15 -3.95 -96.15 Q-5.9 -96.15 -6.85 -96.7 -7.45 -95.2 -7.45 -93.9 -7.45 -92.7 -6.85 -91.75 -6.0 -90.35 -4.1 -90.3 L-3.35 -90.05 -3.95 -89.85 -4.95 -89.7 Q-6.7 -89.7 -7.55 -91.8 -8.05 -93.05 -8.05 -94.05 L-7.95 -95.7 Q-7.7 -96.7 -6.95 -96.8 L-7.7 -97.55 -7.85 -99.2 -7.8 -100.5 -7.3 -101.25 -7.65 -101.6 -7.95 -102.25 -7.85 -102.75 Q-8.55 -103.5 -8.55 -105.55 -8.55 -107.4 -8.2 -108.3 L-7.6 -108.05 Q-8.0 -107.15 -8.0 -105.6 L-7.7 -103.25 -7.35 -104.3 -7.2 -104.4 -6.95 -103.2 Q-6.6 -102.65 -5.6 -102.65 -3.05 -102.65 -2.4 -104.35 L-2.6 -104.8 Q-2.6 -107.95 -1.45 -108.3 L-0.85 -108.05 -1.35 -107.35 -1.3 -106.55 -1.55 -104.35 -1.45 -104.2 Q-0.65 -103.05 1.25 -102.95 2.95 -103.75 5.85 -104.55 7.65 -105.35 7.35 -107.0 L6.4 -106.55 7.2 -108.85 Q7.2 -109.7 4.45 -109.85 L3.4 -109.2 Q2.2 -108.55 1.4 -108.55 L-0.65 -108.6 Q-1.0 -108.4 -1.35 -108.3 L-1.0 -108.6 -4.3 -108.65 Q-4.45 -108.4 -4.45 -109.05 L-3.2 -109.15 -0.2 -109.5 0.2 -110.0 Q1.3 -111.1 2.05 -110.8 L0.85 -109.75 2.45 -110.2 3.15 -110.5 Q2.55 -110.95 2.15 -112.2 1.7 -113.55 1.7 -114.3 L1.45 -114.9 1.2 -115.35 0.65 -115.8 1.25 -117.85 Q-0.2 -115.8 -1.1 -115.8 L-5.2 -116.0 -6.1 -115.8 Q-6.45 -115.8 -6.7 -116.05 -8.85 -115.25 -8.85 -111.9 -8.85 -111.1 -8.45 -110.8 L-4.95 -108.8 -5.95 -108.5 -7.35 -108.3 Q-9.05 -108.3 -9.55 -109.05 L-9.7 -109.9 Q-9.7 -112.6 -9.3 -113.85 -8.7 -115.9 -7.0 -116.4 L-7.45 -117.55 -7.6 -119.4 Q-7.6 -122.1 -7.25 -123.4 -6.35 -126.7 -3.7 -125.05 -4.4 -124.05 -4.95 -124.65 -5.5 -125.3 -6.35 -124.3 L-6.95 -123.55 -6.95 -121.8 -6.8 -119.05 Q-6.55 -117.7 -5.75 -117.3 L-5.2 -117.15 -4.95 -117.15 -4.75 -116.8 0.05 -116.8 -0.05 -118.15 0.1 -119.55 Q0.4 -120.15 1.4 -120.1 L1.4 -123.5 1.75 -122.6 2.2 -120.0 2.3 -119.55 2.25 -119.45 2.3 -116.75 2.25 -116.2 Q3.2 -114.2 4.1 -112.95 L4.85 -111.9 5.1 -111.95 Q6.65 -112.2 6.8 -113.15 L6.8 -117.65 6.75 -120.85 Q6.75 -122.95 7.3 -123.55 M0.2 -111.65 L-0.35 -111.1 -1.45 -110.15 -2.35 -110.3 -2.0 -110.4 Q-1.7 -110.5 -1.7 -110.9 L0.05 -112.4 0.2 -111.65 M4.05 -105.4 L4.05 -104.3 3.9 -104.3 3.9 -105.4 4.05 -105.4 M8.5 -87.55 Q8.55 -86.4 8.2 -85.2 8.2 -84.7 7.7 -84.1 7.15 -83.4 6.2 -83.2 L6.2 -83.05 6.2 -82.95 7.65 -83.05 8.05 -78.05 Q8.05 -77.65 6.95 -77.15 L7.3 -76.15 Q7.65 -74.85 7.65 -72.15 L7.5 -70.3 7.05 -69.15 Q8.75 -68.65 9.35 -66.6 9.75 -65.35 9.75 -62.65 L9.6 -61.8 Q9.1 -61.05 7.4 -61.05 L6.0 -61.25 5.0 -61.55 Q8.05 -63.15 8.5 -63.55 8.9 -63.85 8.9 -64.65 8.9 -68.0 6.75 -68.8 L6.15 -68.55 5.25 -68.75 1.15 -68.55 Q0.25 -68.55 -1.2 -70.6 L-0.6 -68.55 -1.15 -68.1 -1.4 -67.65 -1.65 -67.05 Q-1.65 -66.3 -2.1 -64.95 -2.5 -63.7 -3.1 -63.25 L-2.4 -62.95 -0.8 -62.5 -2.0 -63.55 Q-1.25 -63.85 -0.15 -62.75 L0.25 -62.25 3.25 -61.9 4.5 -61.8 Q4.5 -61.15 4.35 -61.4 L1.05 -61.35 1.4 -61.05 0.7 -61.35 -1.35 -61.3 Q-2.15 -61.3 -3.35 -61.95 L-4.4 -62.6 Q-7.15 -62.45 -7.15 -61.6 L-6.35 -59.3 -7.3 -59.75 Q-7.6 -58.1 -5.8 -57.3 -2.9 -56.5 -1.2 -55.7 0.7 -55.8 1.5 -56.95 L1.6 -57.1 1.35 -59.3 1.4 -59.8 1.4 -60.1 0.9 -60.8 1.5 -61.05 Q2.15 -60.85 2.45 -59.8 L2.65 -57.55 2.45 -57.1 Q3.1 -55.4 5.65 -55.4 6.65 -55.4 7.0 -55.95 L7.25 -57.15 7.4 -57.05 7.75 -56.0 8.05 -58.35 7.95 -59.8 7.65 -60.8 8.25 -61.05 8.55 -59.8 8.6 -58.3 Q8.6 -56.25 7.9 -55.5 L8.0 -55.0 7.7 -54.35 7.35 -54.0 7.85 -53.25 7.9 -51.95 7.75 -50.3 7.0 -49.55 Q7.75 -49.45 8.0 -48.45 L8.1 -46.8 Q8.1 -45.8 7.6 -44.55 L6.8 -43.2 Q7.65 -42.9 7.65 -42.25 L7.6 -41.45 7.8 -40.9 8.25 -38.7 7.8 -36.45 6.85 -34.9 Q8.55 -34.8 9.1 -33.6 L9.4 -31.25 Q9.4 -30.7 8.6 -29.95 L7.05 -29.05 6.9 -28.8 6.7 -28.95 6.45 -28.9 6.5 -28.85 7.1 -28.2 7.3 -28.55 7.35 -27.9 8.0 -27.25 7.75 -26.75 7.45 -27.0 7.8 -18.2 7.7 -17.25 6.05 -16.05 4.85 -16.05 4.7 -15.8 7.95 -15.1 Q8.3 -14.9 8.3 -14.0 L8.15 -12.75 7.4 -12.05 7.55 -9.35 Q7.55 -6.95 3.8 -6.95 L2.1 -7.15 1.8 -7.35 0.6 -7.3 Q-0.85 -7.3 -1.7 -8.1 -1.9 -7.55 -3.15 -6.9 -4.8 -6.05 -6.45 -6.05 L-6.6 -6.05 -6.85 -5.15 -7.1 -4.2 -6.95 -2.85 Q-6.6 -2.05 -5.45 -2.05 L-3.6 -2.05 Q-2.5 -2.7 -1.85 -2.45 L-1.7 -2.4 -1.2 -2.7 Q-0.1 -2.7 0.15 -2.3 L-0.65 -2.15 0.9 -1.9 0.7 -3.05 1.15 -3.05 Q1.25 -2.95 1.3 -3.0 L1.3 -2.6 1.15 -1.9 2.55 -1.8 2.5 -3.15 Q2.55 -4.0 3.3 -4.55 L3.9 -4.3 Q3.4 -4.05 3.15 -3.1 L2.9 -1.8 3.05 -1.8 Q7.55 -1.8 7.55 -5.05 L7.3 -5.5 Q7.05 -5.6 7.05 -5.9 7.05 -6.95 7.65 -7.15 L8.45 -5.15 8.55 -3.55 Q8.55 -2.6 6.55 -1.55 4.45 -0.45 1.9 -0.4 L2.4 -0.05 2.55 1.2 Q2.55 2.3 2.05 3.45 L1.95 3.7 Q2.9 4.4 5.95 4.25 L6.25 1.75 6.55 -1.05 6.55 -1.3 Q7.9 -0.9 7.55 1.55 L7.45 3.5 Q7.3 4.25 6.8 4.7 L6.6 5.05 5.15 5.2 Q2.65 5.2 1.75 4.2 L1.7 4.1 Q1.1 5.05 0.05 5.05 L-1.45 4.95 -2.1 4.7 0.15 2.65 Q1.45 1.6 1.45 1.25 L0.85 0.3 0.25 -0.45 -1.4 -0.75 -3.3 -1.15 -3.95 -1.15 Q-5.9 -1.15 -6.85 -1.7 -7.45 -0.2 -7.45 1.1 -7.45 2.3 -6.85 3.25 -6.0 4.65 -4.1 4.7 L-3.35 4.95 -3.95 5.15 -4.95 5.3 Q-6.7 5.3 -7.55 3.2 -8.05 1.95 -8.05 0.95 L-7.95 -0.7 Q-7.7 -1.7 -6.95 -1.8 L-7.7 -2.55 -7.85 -4.2 -7.8 -5.5 -7.3 -6.25 -7.65 -6.6 -7.95 -7.25 -7.85 -7.75 Q-8.55 -8.5 -8.55 -10.55 -8.55 -12.4 -8.2 -13.3 L-7.6 -13.05 Q-8.0 -12.15 -8.0 -10.6 L-7.7 -8.25 -7.35 -9.3 -7.2 -9.4 -6.95 -8.2 Q-6.6 -7.65 -5.6 -7.65 -3.05 -7.65 -2.4 -9.35 L-2.6 -9.8 Q-2.6 -12.95 -1.45 -13.3 L-0.85 -13.05 -1.35 -12.35 -1.3 -11.55 -1.55 -9.35 -1.45 -9.2 Q-0.65 -8.05 1.25 -7.95 2.95 -8.75 5.85 -9.55 7.65 -10.35 7.35 -12.0 L6.4 -11.55 7.2 -13.85 Q7.2 -14.7 4.45 -14.85 L3.4 -14.2 Q2.2 -13.55 1.4 -13.55 L-0.65 -13.6 Q-1.0 -13.4 -1.35 -13.3 L-1.0 -13.6 -4.3 -13.65 Q-4.45 -13.4 -4.45 -14.05 L-3.2 -14.15 -0.2 -14.5 0.2 -15.0 Q1.3 -16.1 2.05 -15.8 L0.85 -14.75 2.45 -15.2 3.15 -15.5 Q2.55 -15.95 2.15 -17.2 1.7 -18.55 1.7 -19.3 L1.45 -19.9 1.2 -20.35 0.65 -20.8 1.25 -22.85 Q-0.2 -20.8 -1.1 -20.8 L-5.2 -21.0 -6.1 -20.8 Q-6.45 -20.8 -6.7 -21.05 -8.85 -20.25 -8.85 -16.9 -8.85 -16.1 -8.45 -15.8 L-4.95 -13.8 -5.95 -13.5 -7.35 -13.3 Q-9.05 -13.3 -9.55 -14.05 L-9.7 -14.9 Q-9.7 -17.6 -9.3 -18.85 -8.7 -20.9 -7.0 -21.4 L-7.45 -22.55 -7.6 -24.4 Q-7.6 -27.1 -7.25 -28.4 L-6.65 -29.8 -6.85 -29.9 Q-8.0 -30.4 -8.0 -30.8 L-7.6 -35.8 -6.15 -35.7 -6.15 -35.8 -6.15 -35.95 Q-7.1 -36.15 -7.65 -36.85 L-8.15 -37.95 Q-8.5 -39.15 -8.45 -40.3 -8.4 -42.5 -6.5 -42.3 -6.75 -40.75 -6.4 -39.75 -6.0 -38.65 -4.25 -36.45 L-4.35 -36.35 Q-1.95 -36.65 -1.55 -36.35 L-1.0 -36.1 -1.0 -36.15 -0.9 -36.05 3.9 -35.7 5.5 -35.9 5.2 -35.9 5.0 -35.6 Q5.95 -35.8 6.6 -36.65 7.35 -37.6 7.35 -38.65 7.35 -39.35 6.95 -40.25 L6.7 -41.05 Q6.1 -41.1 5.8 -41.3 L4.7 -42.45 4.0 -42.6 3.4 -42.8 4.15 -43.05 5.2 -43.2 5.55 -43.3 Q6.4 -43.65 6.9 -44.5 7.5 -45.45 7.5 -46.65 7.5 -47.95 6.9 -49.45 5.95 -48.9 4.0 -48.9 L3.35 -48.9 1.45 -48.5 -0.2 -48.2 -0.8 -47.45 -1.4 -46.5 Q-1.4 -46.15 -0.1 -45.1 L2.15 -43.05 Q1.5 -42.9 1.5 -42.8 L0.0 -42.7 Q-1.05 -42.7 -1.65 -43.65 L-1.7 -43.55 Q-2.6 -42.55 -5.1 -42.55 L-6.55 -42.7 -6.75 -43.05 Q-7.25 -43.5 -7.4 -44.25 L-7.5 -46.2 Q-7.85 -48.65 -6.5 -49.05 L-6.5 -48.8 -6.2 -46.0 -5.9 -43.5 Q-2.85 -43.35 -1.9 -44.05 L-2.0 -44.3 Q-2.5 -45.45 -2.5 -46.55 L-2.35 -47.8 -1.85 -48.15 Q-4.4 -48.2 -6.5 -49.3 -8.5 -50.35 -8.5 -51.3 L-8.4 -52.9 -7.6 -54.9 Q-7.0 -54.7 -7.0 -53.65 L-7.25 -53.25 -7.5 -52.8 Q-7.5 -49.55 -3.0 -49.55 L-2.85 -49.55 -3.1 -50.85 Q-3.35 -51.8 -3.85 -52.05 L-3.25 -52.3 Q-2.5 -51.75 -2.45 -50.9 L-2.5 -49.55 -1.1 -49.65 -1.25 -50.35 -1.25 -50.75 -1.1 -50.8 -0.65 -50.8 -0.85 -49.65 0.7 -49.9 -0.1 -50.05 Q0.15 -50.45 1.25 -50.45 L1.75 -50.15 1.9 -50.2 Q2.55 -50.45 3.65 -49.8 L5.5 -49.8 Q6.65 -49.8 7.0 -50.6 L7.15 -51.95 6.9 -52.9 6.65 -53.8 6.5 -53.8 Q4.85 -53.8 3.2 -54.65 1.95 -55.3 1.75 -55.85 0.9 -55.05 -0.55 -55.05 L-1.75 -55.1 -2.05 -54.9 -3.75 -54.7 Q-7.5 -54.7 -7.5 -57.1 L-7.35 -59.8 -8.1 -60.5 -8.25 -61.75 Q-8.25 -62.65 -7.9 -62.85 L-4.65 -63.55 -4.8 -63.8 -6.0 -63.8 -7.65 -65.0 -7.75 -65.95 Q-7.75 -71.05 -7.25 -76.3 -6.7 -75.7 -6.7 -73.6 L-6.75 -70.4 -6.75 -65.9 Q-6.6 -64.95 -5.05 -64.7 L-4.8 -64.65 -4.05 -65.7 Q-3.15 -66.95 -2.2 -68.95 L-2.25 -69.5 -2.2 -72.2 -2.25 -72.3 -2.15 -72.75 -1.7 -75.35 -1.35 -76.25 -1.35 -72.85 Q-0.35 -72.9 -0.05 -72.3 L0.1 -70.9 0.0 -69.55 4.8 -69.55 5.0 -69.9 5.25 -69.9 5.8 -70.05 Q6.6 -70.45 6.85 -71.8 L7.0 -74.55 7.0 -76.3 6.45 -76.95 3.9 -76.55 2.55 -76.7 1.55 -76.95 1.6 -77.05 -1.25 -76.45 -0.55 -77.4 0.3 -78.3 0.45 -78.2 0.5 -78.2 0.05 -78.6 -0.7 -79.65 Q-0.7 -81.2 -0.1 -82.2 L-0.85 -82.15 -4.25 -82.25 Q-4.45 -81.55 -5.2 -81.55 L-6.1 -81.7 -7.35 -80.35 -8.2 -79.2 Q-8.2 -78.7 -6.95 -78.4 L-5.8 -78.1 Q-5.0 -78.65 -3.9 -78.7 -1.75 -78.75 -1.75 -76.55 L-1.8 -76.05 -2.0 -75.95 -2.8 -76.6 Q-3.75 -76.05 -5.2 -76.05 -7.35 -76.05 -8.55 -77.2 -9.35 -77.95 -9.35 -78.5 L-9.05 -80.85 Q-8.5 -82.05 -6.8 -82.15 -7.4 -82.7 -7.75 -83.7 L-8.2 -85.95 -7.75 -88.15 Q-7.25 -89.75 -6.85 -89.8 -6.55 -89.5 -6.55 -88.9 -6.55 -88.4 -6.9 -87.5 -7.3 -86.6 -7.3 -85.9 -7.3 -84.85 -6.55 -83.9 -5.9 -83.05 -4.95 -82.85 -4.95 -83.2 -5.15 -83.15 L-5.45 -83.15 -3.85 -82.95 0.95 -83.3 1.05 -83.4 1.05 -83.35 1.6 -83.6 Q2.0 -83.9 4.4 -83.6 L4.3 -83.7 Q6.05 -85.9 6.45 -87.0 6.8 -88.0 6.55 -89.55 8.45 -89.75 8.5 -87.55 M7.1 -82.1 Q6.9 -82.5 6.05 -82.8 L5.7 -82.7 2.05 -82.55 0.65 -82.3 0.55 -81.55 0.3 -81.3 Q0.05 -81.35 0.05 -81.05 0.05 -80.05 0.4 -79.7 L2.1 -78.65 2.7 -78.65 2.7 -78.9 3.35 -79.3 4.3 -79.55 4.7 -79.05 4.05 -78.5 4.5 -78.4 2.95 -77.55 3.9 -77.6 3.75 -77.8 Q5.15 -78.65 6.05 -78.15 6.85 -78.55 7.15 -79.15 L7.2 -81.25 7.1 -82.1 M2.9 -84.55 Q2.85 -85.2 3.55 -85.65 L3.05 -84.55 2.9 -84.55 M0.95 -84.8 L0.65 -84.8 Q1.55 -85.7 1.3 -85.05 L1.15 -85.0 0.95 -84.8 M1.75 -45.9 L1.9 -45.9 Q1.7 -45.4 2.25 -44.7 L2.9 -43.8 Q1.65 -43.95 1.6 -45.15 L1.75 -45.9 M2.4 -45.25 L2.45 -45.7 2.5 -45.65 3.35 -44.95 Q4.0 -44.45 3.65 -43.8 L3.5 -43.8 2.7 -44.75 2.4 -45.25 M2.4 -63.05 L1.5 -62.9 0.4 -63.85 -0.15 -64.4 0.0 -65.15 1.75 -63.65 Q1.75 -63.25 2.05 -63.15 L2.4 -63.05 M1.3 -71.5 Q1.15 -72.0 1.15 -73.3 L2.1 -72.15 2.6 -70.9 Q2.6 -70.25 2.4 -70.05 1.55 -70.7 1.3 -71.5 M3.15 -72.55 Q3.05 -73.25 3.25 -73.45 L3.5 -73.4 3.4 -72.45 3.15 -72.55 M5.25 -34.3 Q4.5 -34.3 4.3 -35.0 L0.9 -34.9 0.15 -34.95 Q0.75 -33.95 0.75 -32.4 0.75 -32.05 0.0 -31.35 -0.5 -30.9 -0.95 -30.7 L-0.65 -30.55 -0.25 -31.05 0.75 -29.95 0.5 -29.75 1.3 -28.7 -2.2 -29.5 -2.5 -29.45 -3.85 -29.3 -6.05 -29.6 -6.35 -29.3 -6.95 -28.55 -6.95 -26.8 -6.8 -24.05 Q-6.55 -22.7 -5.75 -22.3 L-5.2 -22.15 -4.95 -22.15 -4.75 -21.8 0.05 -21.8 -0.05 -23.15 0.1 -24.55 Q0.4 -25.15 1.4 -25.1 L1.4 -28.5 1.75 -27.6 2.2 -25.0 2.3 -24.55 2.25 -24.45 2.3 -21.75 2.25 -21.2 Q3.2 -19.2 4.1 -17.95 L4.85 -16.9 5.1 -16.95 Q6.65 -17.2 6.8 -18.15 L6.8 -22.65 6.75 -25.85 Q6.75 -26.85 6.9 -27.45 L5.5 -28.8 5.25 -28.8 3.25 -29.15 2.05 -28.2 1.85 -28.3 1.8 -28.8 Q1.8 -31.0 3.95 -30.95 L5.2 -30.7 7.0 -31.15 Q8.25 -31.45 8.25 -31.95 L7.4 -33.1 6.15 -34.45 5.25 -34.3 M1.5 -31.2 L1.75 -31.15 1.65 -30.2 1.4 -30.3 Q1.3 -31.0 1.5 -31.2 M0.2 -16.65 L-0.35 -16.1 -1.45 -15.15 -2.35 -15.3 -2.0 -15.4 Q-1.7 -15.5 -1.7 -15.9 L0.05 -17.4 0.2 -16.65 M4.05 -9.3 L3.9 -9.3 3.9 -10.4 4.05 -10.4 4.05 -9.3 M1.05 11.65 L1.6 11.4 Q2.0 11.1 4.4 11.4 L4.3 11.3 Q6.05 9.1 6.45 8.0 6.8 7.0 6.55 5.45 8.45 5.25 8.5 7.45 8.55 8.6 8.2 9.8 L7.7 10.9 Q7.15 11.6 6.2 11.8 L6.2 11.95 6.2 12.05 7.65 11.95 8.05 16.95 Q8.05 17.35 6.95 17.85 L7.3 18.85 Q7.65 20.15 7.65 22.85 L7.5 24.7 7.05 25.85 Q8.75 26.35 9.35 28.4 9.75 29.65 9.75 32.35 L9.6 33.2 Q9.1 33.95 7.4 33.95 L6.0 33.75 5.0 33.45 Q8.05 31.85 8.5 31.45 8.9 31.15 8.9 30.35 8.9 27.0 6.75 26.2 L6.15 26.45 5.25 26.25 1.15 26.45 Q0.25 26.45 -1.2 24.4 L-0.6 26.45 -1.15 26.9 -1.4 27.35 -1.65 27.95 Q-1.65 28.7 -2.1 30.05 -2.5 31.3 -3.1 31.75 L-2.4 32.05 -0.8 32.5 -2.0 31.45 Q-1.25 31.15 -0.15 32.25 L0.25 32.75 3.25 33.1 4.5 33.2 Q4.5 33.85 4.35 33.6 L1.05 33.65 1.4 33.95 0.7 33.65 -1.35 33.7 Q-2.15 33.7 -3.35 33.05 L-4.4 32.4 Q-7.15 32.55 -7.15 33.4 L-6.7 34.7 Q-6.4 34.95 -6.35 35.5 L-6.25 37.45 -5.8 37.7 Q-3.0 38.5 -1.3 39.25 L0.45 38.5 1.55 38.05 1.6 37.9 1.35 35.7 1.4 34.9 0.9 34.2 1.5 33.95 Q2.65 34.3 2.65 37.45 L2.5 37.8 2.5 37.9 3.7 38.05 6.55 39.45 7.0 39.05 7.25 37.85 7.4 37.95 7.75 39.0 8.05 36.65 Q8.05 35.1 7.65 34.2 7.9 33.95 8.25 33.95 8.6 34.85 8.6 36.7 8.6 38.75 7.9 39.5 L8.0 40.0 7.8 40.5 7.0 40.5 6.8 40.3 5.6 40.5 Q3.4 40.5 2.25 39.1 1.85 39.55 1.1 40.0 -0.55 41.0 -2.35 41.0 -3.05 41.0 -5.85 39.45 L-6.85 39.5 Q-7.5 38.9 -7.5 37.9 L-7.45 36.7 -7.6 36.35 -8.0 34.65 -8.1 34.5 -8.25 33.25 Q-8.25 32.35 -7.9 32.15 L-4.65 31.45 -4.8 31.2 -6.0 31.2 -7.65 30.0 -7.75 29.05 Q-7.75 23.95 -7.25 18.7 -6.7 19.3 -6.7 21.4 L-6.75 24.6 -6.75 29.1 Q-6.6 30.05 -5.05 30.3 L-4.8 30.35 -4.05 29.3 Q-3.15 28.05 -2.2 26.05 L-2.25 25.5 -2.2 22.8 -2.25 22.7 -2.15 22.25 -1.7 19.65 -1.35 18.75 -1.35 22.15 Q-0.35 22.1 -0.05 22.7 L0.1 24.1 0.0 25.45 4.8 25.45 5.0 25.1 5.25 25.1 5.8 24.95 Q6.6 24.55 6.85 23.2 L7.0 20.45 7.0 18.7 6.45 18.05 3.9 18.45 2.55 18.3 1.55 18.05 1.6 17.95 -1.25 18.55 -0.55 17.6 0.3 16.7 0.45 16.8 0.5 16.8 0.05 16.4 -0.7 15.35 Q-0.7 13.8 -0.1 12.8 L-0.85 12.85 -4.25 12.75 Q-4.45 13.45 -5.2 13.45 L-6.1 13.3 -7.35 14.65 -8.2 15.8 Q-8.2 16.3 -6.95 16.6 L-5.8 16.9 Q-5.0 16.35 -3.9 16.3 -1.75 16.25 -1.75 18.45 L-1.8 18.95 -2.0 19.05 -2.8 18.4 Q-3.75 18.95 -5.2 18.95 -7.35 18.95 -8.55 17.8 -9.35 17.05 -9.35 16.5 -9.35 14.8 -9.05 14.15 -8.5 12.95 -6.8 12.85 L-7.75 11.3 -8.2 9.05 -7.75 6.85 Q-7.25 5.25 -6.85 5.2 -6.55 5.5 -6.55 6.1 -6.55 6.6 -6.9 7.5 -7.3 8.4 -7.3 9.1 -7.3 10.15 -6.55 11.1 -5.9 11.95 -4.95 12.15 -4.95 11.8 -5.15 11.85 L-5.45 11.85 -3.85 12.05 0.95 11.7 1.05 11.6 1.05 11.65 M1.3 9.95 L1.15 10.0 0.95 10.2 0.65 10.2 Q1.55 9.3 1.3 9.95 M2.9 10.45 Q2.85 9.8 3.55 9.35 L3.05 10.45 2.9 10.45 M5.7 12.3 L2.05 12.45 0.65 12.7 0.55 13.45 0.3 13.7 Q0.05 13.65 0.05 13.95 0.05 14.95 0.4 15.3 L2.1 16.35 2.7 16.35 2.7 16.1 3.35 15.7 Q4.0 15.4 4.3 15.45 L4.7 15.95 4.05 16.5 4.5 16.6 2.95 17.45 3.9 17.4 3.75 17.2 Q5.15 16.35 6.05 16.85 6.85 16.45 7.15 15.85 L7.2 13.75 7.1 12.9 Q6.9 12.5 6.05 12.2 L5.7 12.3 M2.05 31.85 L2.4 31.95 1.5 32.1 0.4 31.15 -0.15 30.6 0.0 29.85 1.75 31.35 Q1.75 31.75 2.05 31.85 M1.15 21.7 Q1.55 21.8 2.1 22.85 L2.6 24.1 2.4 24.95 Q1.55 24.3 1.3 23.5 1.15 23.0 1.15 21.7 M3.25 21.55 L3.5 21.6 3.4 22.55 3.15 22.45 Q3.05 21.75 3.25 21.55 M-4.45 -125.65 Q-0.35 -126.7 1.3 -123.7 -1.5 -124.15 -2.8 -124.75 L-4.45 -125.65 M-3.35 -119.7 L-3.45 -120.65 -3.2 -120.7 Q-3.0 -120.5 -3.1 -119.8 L-3.35 -119.7 M-1.1 -120.55 Q-1.1 -119.25 -1.25 -118.75 -1.5 -117.95 -2.35 -117.3 L-2.55 -118.15 -2.05 -119.4 -1.1 -120.55 M-1.7 -93.15 Q-1.55 -92.85 -1.55 -92.4 -1.6 -91.2 -2.85 -91.05 L-2.2 -91.95 Q-1.65 -92.65 -1.85 -93.15 L-1.7 -93.15 M-2.4 -92.95 L-2.35 -92.5 -2.65 -92.0 -3.45 -91.05 -3.6 -91.05 Q-3.95 -91.7 -3.3 -92.2 L-2.45 -92.9 -2.4 -92.95 M-1.45 -78.45 Q-1.25 -78.25 -1.35 -77.55 L-1.6 -77.45 -1.7 -78.4 -1.45 -78.45 M-4.65 -31.8 L-4.25 -32.3 -3.3 -32.05 Q-2.65 -31.75 -2.65 -31.65 -2.65 -31.0 -2.75 -31.3 L-3.75 -31.15 Q-4.0 -31.15 -4.65 -31.8 M-0.5 -34.3 L-0.6 -35.05 -2.0 -35.3 -5.65 -35.45 -6.0 -35.55 Q-6.85 -35.25 -7.05 -34.85 L-7.15 -34.0 -7.1 -31.9 Q-6.6 -30.95 -5.0 -30.55 L-4.65 -30.5 -3.9 -30.4 -4.45 -30.65 -2.6 -30.9 -2.75 -31.05 Q-0.75 -32.05 -0.35 -32.45 0.0 -32.8 0.0 -33.8 0.0 -34.1 -0.25 -34.05 L-0.5 -34.3 M-0.9 -37.55 L-1.1 -37.75 -1.25 -37.8 Q-1.5 -38.45 -0.6 -37.55 L-0.9 -37.55 M-3.0 -37.3 L-3.5 -38.4 Q-2.8 -37.95 -2.85 -37.3 L-3.0 -37.3 M-3.85 -58.15 L-3.85 -57.05 -4.0 -57.05 -4.0 -58.15 -3.85 -58.15 M-4.6 -77.9 L-4.9 -77.85 -4.2 -77.65 -4.6 -77.9 M-3.2 -25.7 Q-3.0 -25.5 -3.1 -24.8 L-3.35 -24.7 -3.45 -25.65 -3.2 -25.7 M-2.35 -22.3 L-2.55 -23.15 -2.05 -24.4 -1.1 -25.55 Q-1.1 -24.25 -1.25 -23.75 -1.5 -22.95 -2.35 -22.3 M-2.4 2.05 L-2.35 2.5 -2.65 3.0 -3.45 3.95 -3.6 3.95 Q-3.95 3.3 -3.3 2.8 L-2.45 2.1 -2.4 2.05 M-1.85 1.85 L-1.7 1.85 Q-1.55 2.15 -1.55 2.6 -1.6 3.8 -2.85 3.95 L-2.2 3.05 Q-1.65 2.35 -1.85 1.85 M-4.6 17.1 L-4.9 17.15 -4.2 17.35 -4.6 17.1 M-1.45 16.55 Q-1.25 16.75 -1.35 17.45 L-1.6 17.55 -1.7 16.6 -1.45 16.55 M-4.0 36.85 L-3.85 36.85 -3.85 37.95 -4.0 37.95 -4.0 36.85" fill="#5b5546" fill-rule="evenodd" stroke="none"/>
    <path d="M-59.1 61.75 Q-59.1 62.3 -59.9 63.05 L-61.2 63.9 -61.2 63.95 Q-61.2 69.05 -61.7 74.3 -62.25 73.7 -62.25 71.6 L-62.2 68.4 -62.2 64.15 -63.25 64.2 -65.05 63.95 Q-65.9 65.1 -66.75 66.95 L-66.7 67.5 -66.75 70.2 -66.7 70.3 -66.8 70.75 Q-66.95 72.45 -67.25 73.35 L-67.6 74.25 -67.6 70.85 Q-68.6 70.9 -68.9 70.3 L-69.05 68.9 -68.95 67.55 -73.75 67.55 -73.95 67.9 -74.2 67.9 -74.75 68.05 Q-75.55 68.45 -75.8 69.8 L-75.95 72.55 -75.95 74.3 -75.4 74.95 -72.85 74.55 -71.5 74.7 -70.5 74.95 -70.55 75.05 -67.7 74.45 -68.4 75.4 -69.25 76.3 -69.4 76.2 -69.45 76.2 -69.0 76.6 Q-68.25 77.3 -68.25 77.65 -68.25 79.2 -68.85 80.2 L-68.1 80.15 -64.7 80.25 Q-64.5 79.55 -63.75 79.55 L-62.85 79.7 -61.6 78.35 -60.75 77.2 Q-60.75 76.7 -62.0 76.4 L-63.15 76.1 Q-63.95 76.65 -65.05 76.7 -67.2 76.75 -67.2 74.55 L-67.15 74.05 -66.95 73.95 -66.15 74.6 Q-65.2 74.05 -63.75 74.05 -61.6 74.05 -60.4 75.2 -59.6 75.95 -59.6 76.5 -59.6 78.2 -59.9 78.85 -60.45 80.05 -62.15 80.15 -61.55 80.7 -61.2 81.7 L-60.75 83.95 Q-60.75 84.65 -61.2 86.15 -61.7 87.75 -62.1 87.8 L-62.4 86.9 -62.05 85.5 Q-61.65 84.6 -61.65 83.9 -61.65 82.85 -62.4 81.9 -63.05 81.05 -64.0 80.85 L-63.8 81.15 -63.5 81.15 -65.1 80.95 -69.9 81.3 -70.0 81.4 -70.0 81.35 -70.55 81.6 Q-70.95 81.9 -73.35 81.6 L-73.25 81.7 Q-75.0 83.9 -75.4 85.0 -75.75 86.0 -75.5 87.55 -77.4 87.75 -77.45 85.55 -77.5 84.4 -77.15 83.2 -77.15 82.7 -76.65 82.1 -76.1 81.4 -75.15 81.2 L-75.15 81.05 -75.15 80.95 -76.6 81.05 -77.0 76.05 Q-77.0 75.65 -75.9 75.15 L-76.25 74.15 Q-76.6 72.85 -76.6 70.15 L-76.45 68.3 -76.0 67.15 -76.15 67.1 -76.45 67.1 -77.85 66.95 -78.05 65.1 -77.8 63.15 Q-77.4 62.15 -76.5 62.2 L-76.1 57.2 -74.65 57.3 -74.65 57.2 -74.65 57.05 -75.1 56.9 -70.25 56.55 -70.05 56.65 -69.5 56.9 -69.5 56.85 -69.4 56.95 -64.6 57.3 -63.5 57.1 -63.4 57.1 -63.5 57.4 -62.95 57.25 -62.4 57.35 -61.3 57.75 -61.65 58.1 Q-59.95 58.2 -59.4 59.4 -59.1 60.05 -59.1 61.75 M-71.05 70.15 L-71.55 68.9 Q-71.55 68.25 -71.35 68.05 -70.5 68.7 -70.25 69.5 -70.1 70.0 -70.1 71.3 L-71.05 70.15 M-72.1 70.55 Q-72.0 71.25 -72.2 71.45 L-72.45 71.4 -72.35 70.45 -72.1 70.55 M-71.8 60.95 Q-71.15 61.25 -71.15 61.35 -71.15 62.0 -71.25 61.7 L-72.25 61.85 -73.15 61.2 -72.75 60.7 Q-72.45 60.65 -71.8 60.95 M-67.0 61.8 L-66.75 61.85 -66.85 62.8 -67.1 62.7 -67.0 61.8 M-69.1 57.95 L-70.5 57.7 -74.15 57.55 -74.5 57.45 Q-75.35 57.75 -75.55 58.15 L-75.65 59.0 -75.6 61.1 Q-74.75 62.7 -70.65 62.7 -70.25 62.7 -70.15 62.85 L-70.0 63.3 -71.0 63.55 -72.35 63.7 Q-74.05 63.7 -75.35 63.1 L-76.05 62.75 Q-77.45 63.45 -77.45 64.25 L-77.4 65.2 -76.75 66.15 -74.2 66.35 -74.1 66.45 -74.4 66.65 -74.2 66.75 -70.1 66.55 Q-69.2 66.55 -67.75 68.6 L-68.35 66.55 -67.8 66.1 -67.55 65.65 -67.3 65.05 -66.85 62.95 -66.4 61.95 -62.65 61.95 -62.45 62.1 -61.5 61.85 Q-60.25 61.55 -60.25 61.05 -60.25 60.75 -61.1 59.9 L-62.35 58.55 -63.25 58.7 Q-64.0 58.7 -64.2 58.0 L-67.6 58.1 -68.35 58.05 Q-67.75 59.05 -67.75 60.6 -67.75 60.95 -68.5 61.65 L-69.05 62.1 -68.95 62.15 -68.75 61.95 Q-68.1 62.45 -67.75 63.05 L-68.25 63.35 -68.85 62.95 -68.95 63.15 -69.85 62.4 -70.25 62.45 Q-70.75 62.45 -71.25 61.95 -69.25 60.95 -68.85 60.55 -68.5 60.2 -68.5 59.2 -68.5 58.9 -68.75 58.95 L-69.0 58.7 -69.1 57.95 M-69.6 64.75 L-69.55 65.15 Q-69.55 65.85 -70.35 65.95 L-70.45 65.45 Q-70.45 64.8 -69.7 64.8 L-69.6 64.75 M-64.35 75.9 L-64.05 75.85 -64.75 75.65 -64.35 75.9 M-67.35 75.45 L-67.25 76.4 -67.5 76.45 -67.6 75.55 -67.35 75.45 M-69.35 77.7 Q-69.65 77.4 -71.05 76.65 L-71.65 76.65 -71.65 76.9 -72.3 77.3 -73.25 77.55 -73.65 77.05 -73.0 76.5 -73.45 76.4 -71.9 75.55 -72.85 75.6 -72.7 75.8 Q-74.1 76.65 -75.0 76.15 L-76.1 77.15 -76.15 79.25 -76.05 80.1 -75.0 80.8 -74.65 80.7 -71.0 80.55 -69.6 80.3 -69.5 79.55 -69.25 79.3 Q-69.0 79.35 -69.0 79.05 -69.0 78.05 -69.35 77.7 M-69.9 82.8 L-69.6 82.8 Q-70.5 83.7 -70.25 83.05 L-70.1 83.0 -69.9 82.8 M-71.85 82.55 Q-71.8 83.2 -72.5 83.65 L-72.0 82.55 -71.85 82.55 M-70.9 89.3 Q-71.85 88.6 -74.9 88.75 L-75.2 91.25 -75.5 94.05 -75.5 94.3 Q-76.85 93.9 -76.5 91.45 L-76.4 89.5 Q-76.25 88.75 -75.75 88.3 -75.75 88.05 -75.55 87.95 L-74.1 87.8 Q-71.6 87.8 -70.7 88.8 L-70.65 88.9 Q-70.05 87.95 -69.0 87.95 L-67.5 88.05 -66.85 88.3 -69.1 90.35 Q-70.4 91.4 -70.4 91.75 L-69.8 92.7 -69.2 93.45 -67.55 93.75 -65.65 94.15 -65.0 94.15 Q-63.05 94.15 -62.1 94.7 -61.5 93.2 -61.5 91.9 -61.5 90.7 -62.1 89.75 -62.95 88.35 -64.85 88.3 L-65.6 88.05 -65.0 87.85 -64.0 87.7 Q-62.25 87.7 -61.4 89.8 -60.9 91.05 -60.9 92.05 L-61.0 93.7 Q-61.25 94.7 -62.0 94.8 -61.5 95.1 -61.25 95.55 -61.1 95.85 -61.1 97.2 L-61.15 98.5 -61.65 99.25 -61.3 99.6 Q-61.0 100.0 -61.0 100.25 L-61.1 100.75 Q-60.4 101.5 -60.4 103.55 -60.4 105.4 -60.75 106.3 L-61.35 106.05 Q-60.95 105.15 -60.95 103.6 -60.95 102.3 -61.25 101.25 L-61.6 102.3 -61.75 102.4 -62.0 101.2 Q-62.35 100.65 -63.35 100.65 -65.9 100.65 -66.55 102.35 L-66.35 102.8 Q-66.35 105.95 -67.5 106.3 L-68.1 106.05 -67.6 105.35 -67.65 104.55 -67.4 102.35 -67.5 102.2 Q-68.3 101.05 -70.2 100.95 -71.9 101.75 -74.8 102.55 -76.6 103.35 -76.3 105.0 L-75.35 104.55 -76.15 106.85 Q-76.15 107.7 -73.4 107.85 L-72.35 107.2 Q-71.15 106.55 -70.35 106.55 L-68.3 106.6 Q-67.95 106.4 -67.6 106.3 L-67.95 106.6 -64.65 106.65 Q-64.5 106.4 -64.5 107.05 L-65.75 107.15 -68.75 107.5 -69.15 108.0 Q-70.25 109.1 -71.0 108.8 L-69.8 107.75 -71.4 108.2 -72.1 108.5 Q-71.5 108.95 -71.1 110.2 -70.65 111.55 -70.65 112.3 L-70.4 112.9 -70.15 113.35 Q-69.9 113.5 -69.6 113.8 L-70.2 115.85 Q-68.75 113.8 -67.85 113.8 L-63.75 114.0 -62.85 113.8 Q-62.5 113.8 -62.25 114.05 -60.1 113.25 -60.1 109.9 -60.1 109.1 -60.5 108.8 L-64.0 106.8 -63.0 106.5 -61.6 106.3 Q-59.9 106.3 -59.4 107.05 -59.25 107.3 -59.25 107.9 -59.25 110.6 -59.65 111.85 -60.25 113.9 -61.95 114.4 -61.65 114.8 -61.5 115.55 L-61.35 117.4 Q-61.35 120.1 -61.7 121.4 -62.6 124.7 -65.25 123.05 -64.55 122.05 -64.0 122.65 -63.45 123.3 -62.6 122.3 L-62.0 121.55 -62.0 119.8 Q-62.0 117.8 -62.15 117.05 -62.4 115.7 -63.2 115.3 L-63.75 115.15 -64.0 115.15 -64.2 114.8 -69.0 114.8 -68.9 116.15 Q-68.9 117.25 -69.05 117.55 -69.35 118.15 -70.35 118.1 L-70.35 121.5 -70.7 120.6 -71.15 118.0 -71.25 117.55 -71.2 117.45 -71.25 114.75 -71.2 114.2 Q-72.15 112.2 -73.05 110.95 L-73.8 109.9 -74.05 109.95 Q-75.6 110.2 -75.75 111.15 L-75.75 115.65 -75.7 118.85 Q-75.7 120.95 -76.25 121.55 -76.75 116.3 -76.75 111.2 L-76.65 110.25 -75.0 109.05 -73.8 109.05 -73.65 108.8 -76.9 108.1 Q-77.25 107.9 -77.25 107.0 L-77.1 105.75 -76.35 105.05 -76.5 102.35 Q-76.5 99.95 -72.75 99.95 L-71.05 100.15 -70.75 100.35 -69.55 100.3 Q-68.1 100.3 -67.25 101.1 -67.05 100.55 -65.8 99.9 -64.15 99.05 -62.5 99.05 L-62.35 99.05 -62.1 98.15 -61.85 97.2 Q-61.85 96.25 -62.0 95.85 -62.35 95.05 -63.5 95.05 L-65.35 95.05 Q-66.45 95.7 -67.1 95.45 L-67.25 95.4 -67.75 95.7 Q-68.85 95.7 -69.1 95.3 L-68.3 95.15 -69.85 94.9 -69.65 96.05 -70.1 96.05 -70.25 96.0 -70.25 95.6 -70.1 94.9 -71.5 94.8 -71.45 96.15 Q-71.5 97.0 -72.25 97.55 L-72.85 97.3 Q-72.35 97.05 -72.1 96.1 L-71.85 94.8 -72.0 94.8 Q-76.5 94.8 -76.5 98.05 L-76.25 98.5 Q-76.0 98.6 -76.0 98.9 -76.0 99.95 -76.6 100.15 L-77.4 98.15 -77.5 96.55 Q-77.5 95.6 -75.5 94.55 -73.4 93.45 -70.85 93.4 L-71.35 93.05 -71.5 91.8 Q-71.5 90.7 -71.0 89.55 L-70.9 89.3 M-65.35 89.05 Q-65.0 89.7 -65.65 90.2 L-66.5 90.9 -66.55 90.95 -66.6 90.5 -66.3 90.0 -65.5 89.05 -65.35 89.05 M-67.25 91.15 L-67.4 90.4 Q-67.35 89.2 -66.1 89.05 L-66.75 89.95 Q-67.3 90.65 -67.1 91.15 L-67.25 91.15 M-69.15 109.65 L-68.6 109.1 -67.5 108.15 -66.6 108.3 -66.95 108.4 -67.25 108.9 -69.0 110.4 -69.15 109.65 M-72.85 102.3 L-72.85 103.4 -73.0 103.4 -73.0 102.3 -72.85 102.3 M-71.0 121.2 L-70.8 121.3 -70.75 121.8 Q-70.75 124.0 -72.9 123.95 -74.95 123.85 -76.0 122.05 L-75.85 121.8 -74.9 122.7 -73.6 123.15 -72.45 122.35 -71.0 121.2 M-66.9 117.4 Q-67.45 118.45 -67.85 118.55 L-67.7 116.75 Q-67.45 115.95 -66.6 115.3 -66.4 115.5 -66.4 116.15 L-66.9 117.4 M-66.15 122.75 L-64.5 123.65 Q-68.6 124.7 -70.25 121.7 -67.45 122.15 -66.15 122.75 M-65.5 118.65 L-65.75 118.7 -65.85 117.8 -65.6 117.7 -65.5 118.65" fill="#5b5546" fill-rule="evenodd" stroke="none"/>
  </g>
</svg>
