<?xml version="1.0" encoding="UTF-8" standalone="no"?>
<svg xmlns:xlink="http://www.w3.org/1999/xlink" height="158.1px" width="478.75px" xmlns="http://www.w3.org/2000/svg">
  <g transform="matrix(1.0, 0.0, 0.0, 1.0, -161.25, -104.9)">
    <path d="M523.25 236.7 L524.45 236.0 529.45 242.45 534.95 249.45 534.95 263.0 514.9 263.0 514.75 261.45 Q514.1 254.2 514.1 250.75 L514.15 247.6 Q515.55 241.6 523.25 236.7 M333.0 248.55 Q350.05 258.7 352.9 263.0 L167.55 263.0 168.75 246.1 Q168.25 236.0 168.25 231.5 168.25 224.9 169.65 222.2 171.0 219.55 171.0 216.5 171.0 210.2 166.15 204.25 L162.75 200.3 Q161.25 198.35 161.25 197.0 161.25 191.0 173.4 189.25 L200.15 188.3 226.85 187.2 227.65 187.1 Q232.75 191.4 242.75 197.7 256.25 206.15 287.9 223.4 322.65 242.4 333.0 248.55 M627.3 125.65 Q639.7 107.45 640.0 104.9 L640.0 263.0 552.95 263.0 552.95 251.0 553.35 250.5 Q556.5 246.35 556.8 238.2 L556.2 224.2 Q555.8 216.5 557.35 213.75 561.35 206.75 576.8 190.6 591.45 175.3 603.2 159.55 614.9 143.8 627.3 125.65" fill="url(#gradient0)" fill-rule="evenodd" stroke="none"/>
  </g>
  <defs>
    <linearGradient gradientTransform="matrix(0.0, 0.293, -0.2841, 0.0, 320.0, 240.0)" gradientUnits="userSpaceOnUse" id="gradient0" spreadMethod="pad" x1="-819.2" x2="819.2">
      <stop offset="0.0" stop-color="#9fdfdf"/>
      <stop offset="1.0" stop-color="#ffffff"/>
    </linearGradient>
  </defs>
</svg>
