<?xml version="1.0" encoding="UTF-8" standalone="no"?>
<svg xmlns:xlink="http://www.w3.org/1999/xlink" height="80.35px" width="685.9px" xmlns="http://www.w3.org/2000/svg">
  <g transform="matrix(1.0, 0.0, 0.0, 1.0, 322.5, 14.55)">
    <path d="M271.05 1.15 Q272.3 1.8 271.6 3.7 270.5 6.55 270.5 7.8 270.5 12.9 269.75 13.8 268.0 15.9 259.45 16.8 L162.0 19.85 165.8 24.8 Q167.5 26.85 167.5 27.4 167.5 30.15 167.2 30.9 166.15 33.3 162.1 35.05 150.55 39.8 113.0 39.8 42.1 39.8 -63.95 33.25 L-122.2 29.2 -122.9 28.65 Q-124.05 27.9 -124.8 29.0 -228.1 20.75 -296.0 8.15 -295.3 6.7 -290.0 5.7 -285.3 4.7 -281.0 4.7 L-239.75 8.15 -198.5 11.6 Q-149.9 11.6 -126.95 10.3 -125.4 14.0 -122.5 14.0 -121.35 14.0 -119.0 12.0 L-117.7 13.1 Q-116.65 14.0 -115.5 14.0 -109.6 14.0 -90.75 7.05 L-81.1 3.35 Q115.35 2.25 242.1 -0.25 268.2 -0.45 271.05 1.15" fill="#9fd26c" fill-opacity="0.3019608" fill-rule="evenodd" stroke="none"/>
    <path d="M289.2 11.45 Q290.5 14.2 290.5 19.15 290.5 24.25 249.05 31.55 208.85 38.6 144.05 45.3 -8.9 61.1 -141.0 61.1 -174.45 61.1 -193.15 63.85 -199.45 64.75 -203.15 65.8 -200.35 62.15 -201.5 55.6 L-202.1 54.45 Q-202.5 53.55 -202.5 49.4 -202.5 44.45 -200.1 40.15 -197.05 34.55 -191.0 32.9 -188.0 32.2 -187.0 31.55 L-226.8 35.25 Q-224.0 20.55 -224.0 -1.5 -185.35 4.05 -128.0 6.8 L-127.4 9.1 Q-125.8 14.0 -122.5 14.0 -121.35 14.0 -119.0 12.0 L-117.7 13.1 Q-116.65 14.0 -115.5 14.0 -110.1 14.0 -93.8 8.15 L-58.75 9.05 Q-34.2 9.55 68.25 9.55 82.7 9.55 121.05 5.75 159.35 1.95 174.0 1.95 L207.9 3.95 286.0 8.85 Q287.95 8.85 289.2 11.45 M-117.75 37.8 Q-117.75 37.05 -118.95 36.4 -120.45 35.65 -121.25 33.6 L-121.55 30.9 Q-121.7 29.35 -122.9 28.65 -124.25 27.75 -125.1 29.45 -125.75 30.7 -125.75 32.1 -126.1 33.2 -127.15 34.2 -128.0 35.0 -128.0 36.35 L-127.55 37.95 Q-126.85 39.25 -125.3 39.1 L-125.3 39.25 Q-126.0 40.15 -126.0 41.6 L-125.75 43.15 Q-125.25 44.6 -123.75 44.6 L-120.7 41.3 -117.75 37.8 M-318.25 9.0 L-315.15 12.75 -321.0 11.6 -321.75 10.4 Q-322.5 9.2 -322.5 5.05 -322.5 4.05 -318.25 9.0" fill="#9fd26c" fill-opacity="0.3019608" fill-rule="evenodd" stroke="none"/>
    <path d="M123.25 14.05 Q124.0 15.45 124.0 19.5 124.0 24.05 122.8 25.2 121.7 26.3 117.1 26.65 98.1 28.15 80.0 33.6 80.75 34.65 82.05 35.4 83.0 36.55 83.0 40.8 83.0 47.35 79.5 49.5 76.3 51.5 67.0 51.5 -31.95 49.5 -118.2 38.5 L-117.75 37.8 Q-117.75 37.05 -118.95 36.4 -120.45 35.65 -121.25 33.6 L-121.55 30.9 Q-121.7 29.35 -122.9 28.65 -124.25 27.75 -125.1 29.45 -125.75 30.7 -125.75 32.1 -126.1 33.2 -127.15 34.2 -128.0 35.0 -128.0 36.35 L-127.85 37.2 -170.3 30.85 Q-278.1 12.85 -301.5 11.6 L-303.0 11.6 Q-303.0 9.55 -304.0 5.4 -253.3 5.55 -199.15 6.9 -167.6 7.65 -127.75 8.0 L-127.4 9.1 Q-125.8 14.0 -122.5 14.0 -121.35 14.0 -119.0 12.0 L-117.7 13.1 Q-116.65 14.0 -115.5 14.0 -110.1 14.0 -93.7 8.15 L-78.0 8.15 -11.3 9.95 Q64.3 11.85 122.5 12.3 122.5 12.7 123.25 14.05" fill="#9fd26c" fill-opacity="0.3019608" fill-rule="evenodd" stroke="none"/>
    <path d="M351.9 -14.25 Q359.95 -15.25 362.4 -12.7 L363.4 -11.25 351.9 -14.25 M318.6 11.65 L314.5 12.05 Q274.4 16.2 234.05 19.15 94.7 29.45 -74.0 29.45 -97.7 29.45 -121.4 32.55 L-121.55 30.9 Q-121.7 29.35 -122.9 28.65 -124.25 27.75 -125.1 29.45 -125.75 30.7 -125.75 32.1 L-126.3 33.25 Q-146.65 36.15 -166.95 41.3 -227.85 44.8 -271.9 33.75 -316.0 22.6 -316.0 17.1 L-315.85 9.45 Q-315.5 6.3 -314.05 4.85 -311.2 1.8 -297.55 1.95 -273.0 2.95 -242.3 0.15 -221.75 -1.75 -136.7 -1.2 L-135.9 -0.5 Q-134.1 0.6 -128.5 2.05 -128.5 5.8 -127.4 9.1 -125.8 14.0 -122.5 14.0 -121.35 14.0 -119.0 12.0 L-117.7 13.1 Q-116.65 14.0 -115.5 14.0 -109.6 14.0 -90.75 7.05 -76.6 1.8 -73.1 -0.6 L-37.2 -0.1 Q137.2 2.35 174.05 5.35 210.9 8.3 231.35 4.1 251.8 -0.1 289.0 2.8 326.15 5.7 318.6 11.65" fill="#9fd26c" fill-opacity="0.3019608" fill-rule="evenodd" stroke="none"/>
    <path d="M19.3 -2.5 L22.75 2.8 24.8 0.45 Q26.4 -0.95 27.7 0.8 27.9 1.3 26.8 1.3 L25.95 1.0 25.45 0.55 24.0 2.0 22.75 2.8 23.15 3.45 23.15 3.6 Q23.45 3.9 22.7 3.9 21.7 3.9 20.6 1.6 L19.4 -1.2 19.6 2.0 Q19.6 2.5 18.95 2.6 L17.75 2.6 15.35 2.2 14.0 1.65 11.7 1.2 10.9 0.9 8.8 0.9 9.15 1.7 9.65 2.45 9.5 2.9 Q9.8 3.15 9.05 3.15 8.55 3.15 7.85 2.05 L7.25 0.85 Q7.25 0.0 7.4 -0.1 L11.05 -0.45 13.65 0.4 16.85 1.2 18.35 1.2 18.2 -0.15 18.05 -1.35 Q18.05 -4.05 19.3 -2.5 M30.6 -7.2 L30.6 -6.85 30.15 -3.55 Q29.7 -0.7 29.7 1.55 L29.6 2.05 28.95 2.4 28.45 1.95 28.35 1.3 Q28.35 -3.3 30.45 -7.25 30.55 -7.15 30.6 -7.2 M37.1 -1.9 L37.1 0.15 Q37.15 1.5 38.0 2.45 L37.9 2.85 37.3 3.05 Q36.05 3.05 36.0 1.85 L36.2 -0.15 34.95 1.8 33.5 3.9 31.85 3.1 Q30.95 2.45 30.95 1.65 L31.05 1.05 31.25 0.9 31.95 1.6 33.2 2.45 34.95 -0.05 Q36.35 -2.0 37.1 -1.9 M45.5 -1.85 L45.55 -1.3 45.05 -0.1 44.15 1.2 45.25 2.05 49.65 2.2 55.4 2.75 Q55.4 -0.1 56.6 -0.1 L59.0 0.5 59.75 0.2 60.05 -0.25 60.2 -0.15 60.2 0.3 60.15 1.1 Q60.7 0.65 61.6 0.15 L64.4 -1.5 Q64.9 -0.9 64.9 0.9 69.25 -1.35 73.2 -2.7 77.55 -4.15 78.3 -3.15 L78.8 -3.25 79.1 -2.8 78.15 -1.7 78.05 -1.6 77.85 -1.45 76.7 -0.25 82.25 -0.05 82.9 1.1 86.25 0.75 122.9 0.65 148.2 2.7 Q153.85 3.05 173.25 2.9 L172.9 2.5 174.1 1.3 Q174.75 0.8 174.4 0.05 L178.1 0.95 180.6 1.75 181.1 0.85 181.65 -0.5 181.15 -2.4 180.65 -3.85 180.75 -4.3 180.9 -4.25 Q182.5 -4.1 184.55 -2.15 L187.3 0.65 189.65 -0.95 189.8 -0.75 Q189.8 -0.15 189.25 0.9 L188.4 2.15 Q188.3 2.1 188.35 1.85 188.4 1.65 188.05 1.65 185.95 1.65 182.3 -2.7 L182.15 -2.6 182.5 -0.75 182.75 1.05 182.75 2.05 Q182.5 3.0 181.4 3.0 180.8 3.0 180.6 2.55 L180.4 2.55 179.1 2.2 177.25 1.65 175.75 2.6 175.0 2.95 Q175.0 3.4 174.65 3.65 L172.25 3.65 171.75 3.9 164.3 4.1 156.65 4.15 148.05 3.65 137.9 2.65 Q121.55 1.6 82.45 1.65 82.0 2.35 81.95 3.5 L80.3 3.5 80.6 4.7 Q80.55 5.65 79.05 5.95 L78.5 6.3 77.2 7.3 74.75 7.3 74.75 7.2 Q74.75 6.35 76.65 5.4 77.25 5.1 77.8 4.95 78.35 4.6 79.0 4.35 79.4 4.2 79.4 4.05 L77.5 3.5 74.55 3.5 74.6 3.2 74.55 2.55 78.8 2.25 80.0 1.9 Q75.9 1.75 74.75 1.05 74.3 0.75 74.4 0.35 L74.6 0.0 75.8 -1.6 76.9 -2.5 76.75 -2.65 Q76.05 -2.15 71.5 -0.45 L67.6 0.95 66.75 0.9 Q65.2 0.95 64.35 1.55 L63.85 1.35 63.95 0.15 63.95 0.0 Q63.15 0.25 61.95 1.0 L61.6 1.25 61.25 1.3 Q60.35 1.45 59.55 1.85 L59.3 1.8 59.6 1.5 59.45 1.5 58.4 1.2 57.35 0.75 56.95 2.1 56.7 2.85 57.75 2.95 57.6 2.65 58.25 2.65 58.05 2.8 57.9 2.95 63.05 3.35 63.2 3.75 Q62.95 4.05 62.45 4.2 L58.6 4.4 52.45 4.15 Q47.1 3.75 45.15 3.15 L44.6 3.2 Q43.75 3.2 43.2 2.15 L42.8 0.75 42.8 0.5 Q39.8 2.6 39.2 2.6 L38.3 2.4 42.1 -0.5 Q44.65 -2.35 45.4 -2.05 L45.5 -1.85 M253.3 2.15 L255.15 2.3 253.5 2.55 251.9 2.65 Q252.1 3.3 251.9 4.25 L246.4 4.25 236.7 3.55 231.15 3.6 218.1 4.25 212.8 4.9 212.7 4.9 213.05 5.0 211.9 5.25 211.2 5.1 209.4 4.8 203.1 4.65 192.25 5.1 192.35 5.4 191.65 5.55 Q191.05 5.55 191.05 5.3 L191.0 4.65 Q191.0 4.1 192.05 3.55 193.15 3.0 193.15 2.55 L193.15 2.4 Q191.9 3.05 191.25 3.0 190.7 2.95 189.3 2.15 L193.45 1.25 Q194.75 0.95 194.75 1.8 194.75 2.75 193.75 3.5 L204.15 3.75 210.05 3.95 210.15 3.9 217.6 3.1 Q219.2 2.8 231.15 2.75 L236.8 2.75 244.45 3.1 251.4 3.5 Q251.4 2.55 251.55 2.15 L253.3 2.15 M291.15 3.05 L291.65 1.0 Q292.15 -0.05 293.3 0.3 L292.65 2.8 Q291.9 4.65 290.65 4.65 290.05 4.65 290.25 4.4 L290.15 3.65 289.05 3.65 285.4 4.9 Q285.05 4.9 285.05 4.75 L285.05 4.4 Q285.35 4.05 287.25 3.35 289.3 2.65 290.4 2.65 L290.95 2.85 291.15 3.05 M295.15 3.4 Q295.15 2.3 297.95 0.55 L299.7 -0.4 299.7 1.35 297.65 2.75 295.55 4.15 295.3 3.95 295.15 3.4 M296.75 -4.85 L296.9 -3.15 295.9 0.05 294.15 4.3 293.85 4.2 293.75 3.65 Q293.75 2.85 294.95 -0.7 L296.3 -4.85 296.75 -4.85 M263.4 -0.7 Q265.05 -0.7 266.7 -3.0 268.3 -5.25 268.65 -5.25 L268.45 -1.9 Q268.5 0.4 269.8 0.4 L270.45 0.3 270.9 0.15 270.9 0.25 271.05 0.1 Q271.7 -0.55 272.5 -0.35 L272.15 0.05 Q272.0 0.25 272.0 0.65 272.0 1.15 272.25 1.4 272.7 1.8 273.85 1.95 275.15 0.85 278.9 0.9 284.55 0.9 285.9 3.15 L285.4 3.9 282.65 2.15 Q281.0 1.15 278.15 1.15 277.8 1.15 276.2 2.6 274.6 4.05 273.9 4.05 273.25 4.05 273.25 3.3 273.25 2.7 273.6 2.25 L272.65 2.3 272.0 1.7 271.25 0.75 270.9 1.0 270.95 1.1 270.5 1.25 270.4 1.3 269.75 1.65 269.3 1.55 269.3 1.3 269.05 1.3 Q267.65 1.3 267.65 -2.95 265.15 0.4 263.05 0.4 L262.05 -0.05 260.9 -0.5 260.9 1.0 260.75 2.1 Q260.4 3.05 259.15 3.05 L258.25 2.55 257.4 1.9 257.35 2.55 Q257.1 3.0 256.15 3.0 255.75 3.0 255.65 2.8 L255.55 2.4 255.95 1.25 Q256.5 0.4 257.4 0.4 257.7 0.4 258.35 0.95 258.95 1.5 259.5 1.5 L259.9 1.35 259.9 1.15 260.0 -2.0 260.65 -2.1 261.7 -1.4 Q262.55 -0.7 263.4 -0.7 M71.8 7.3 L70.2 6.6 71.35 6.05 Q72.9 6.45 74.4 7.3 L71.8 7.3 M25.9 4.4 L25.4 4.2 25.7 4.05 26.35 4.35 25.9 4.4 M5.1 4.0 L4.35 4.35 2.45 4.15 Q1.9 4.0 1.25 3.55 -18.2 3.75 -28.4 4.15 L-33.35 4.4 -42.0 4.95 -42.15 4.95 -43.7 4.8 -44.95 4.5 -45.1 4.2 -42.0 3.9 Q-39.0 3.5 -38.05 2.8 L-28.4 2.15 -26.65 2.15 -17.95 2.35 0.55 2.7 0.55 2.3 3.65 2.7 3.75 2.6 3.85 2.75 4.45 2.85 7.9 3.6 8.0 3.75 Q8.3 4.2 7.55 4.2 L6.7 3.9 5.8 3.6 Q5.45 3.6 5.1 4.0 M-212.65 -1.45 L-211.3 -5.6 -210.85 -5.6 -210.7 -3.9 -211.7 -0.7 Q-212.8 2.4 -213.45 3.55 L-213.75 3.45 -213.85 2.9 Q-213.85 2.1 -212.65 -1.45 M-209.65 -0.2 L-207.9 -1.15 -207.9 0.6 -209.95 2.0 -210.1 2.15 -209.05 1.95 -207.4 1.8 -197.5 2.9 -193.3 2.05 Q-190.25 1.35 -183.25 1.8 -180.6 2.7 -177.2 2.75 L-173.65 2.6 -172.15 3.0 -170.65 3.35 -160.7 3.2 Q-160.6 2.8 -155.95 2.55 L-155.9 3.15 -159.65 3.4 -161.95 3.9 -166.5 4.1 -171.8 4.2 -172.65 3.95 Q-172.85 3.65 -173.2 3.65 L-173.75 4.0 -177.5 4.35 -181.05 3.65 -183.7 2.9 -193.05 3.55 -197.75 4.2 -204.15 4.5 Q-208.7 4.35 -210.45 2.4 -211.75 3.3 -212.05 3.4 L-212.3 3.2 -212.45 2.65 Q-212.45 1.55 -209.65 -0.2 M-245.9 -2.15 Q-245.05 -1.45 -244.2 -1.45 -242.55 -1.45 -240.9 -3.75 -239.3 -6.0 -238.95 -6.0 L-239.15 -2.65 Q-239.1 -0.35 -237.8 -0.35 L-237.15 -0.45 -236.7 -0.6 -236.7 -0.5 -236.55 -0.65 Q-235.9 -1.3 -235.1 -1.1 L-235.45 -0.7 -235.6 -0.1 -235.35 0.65 Q-234.9 1.05 -233.75 1.2 -232.45 0.1 -228.7 0.15 -223.05 0.15 -221.7 2.4 L-222.2 3.15 Q-223.35 2.7 -224.95 1.4 -226.6 0.4 -229.45 0.4 L-231.4 1.85 Q-233.0 3.3 -233.7 3.3 -234.35 3.3 -234.35 2.55 -234.35 1.95 -234.0 1.5 L-234.95 1.55 -235.6 0.95 -236.35 0.0 -236.7 0.25 -236.65 0.35 -237.1 0.5 -237.2 0.55 -237.85 0.9 -238.3 0.8 -238.3 0.55 -238.55 0.55 Q-239.95 0.55 -239.95 -3.7 -242.45 -0.35 -244.55 -0.35 L-245.55 -0.8 -246.7 -1.25 -246.7 0.25 Q-246.7 1.05 -246.85 1.35 -247.2 2.3 -248.45 2.3 L-249.35 1.8 -250.2 1.15 -250.25 1.8 Q-250.5 2.25 -251.45 2.25 -251.85 2.25 -251.95 2.05 L-252.05 1.65 -251.65 0.5 Q-251.1 -0.35 -250.2 -0.35 L-249.25 0.2 Q-248.65 0.75 -248.1 0.75 L-247.7 0.6 -247.7 0.4 -247.6 -2.75 -246.95 -2.85 -245.9 -2.15 M-42.95 -3.5 Q-42.95 -2.3 -43.45 1.65 -44.05 1.65 -44.7 2.05 L-44.1 -0.6 -44.9 1.0 -45.5 2.15 -44.9 2.15 -45.05 2.2 -46.3 3.05 -47.2 3.05 -47.2 3.3 -47.35 3.5 -47.75 3.0 -48.15 3.0 -51.5 3.05 -51.5 2.6 -51.55 2.15 -48.1 2.1 -48.1 1.45 -48.0 0.35 -47.85 0.35 -47.3 2.15 -46.6 2.15 -46.6 1.95 -46.35 -2.6 -46.1 -2.75 -45.85 0.25 -45.85 0.4 -44.8 -2.45 Q-44.25 -4.1 -43.35 -4.75 -42.95 -4.35 -42.95 -3.5 M-51.15 -0.25 L-48.85 1.35 -48.85 1.55 Q-48.5 1.8 -49.1 1.8 -51.8 1.8 -52.75 -0.7 -52.05 -0.95 -51.15 -0.25 M-41.9 1.8 Q-41.75 1.85 -41.75 2.35 L-41.9 3.6 -42.1 3.8 -42.75 3.4 Q-43.05 3.15 -43.55 3.05 L-43.55 3.45 -44.05 3.65 -44.55 3.6 -44.8 3.45 Q-44.95 3.85 -44.95 3.1 -44.95 2.35 -44.15 2.15 L-42.25 1.65 -42.0 1.8 -41.9 1.8 M-49.9 6.0 L-51.25 6.15 -54.0 5.7 -64.4 5.15 -64.75 5.55 -65.5 5.75 -65.85 5.65 -66.0 5.15 -65.7 4.35 -65.4 3.6 -65.5 3.5 -66.75 4.25 -66.8 4.15 -65.65 2.85 Q-64.85 2.25 -64.25 2.0 L-63.85 2.4 -63.75 3.0 -64.05 4.05 -64.15 4.35 -56.75 4.25 -53.35 4.7 Q-50.25 5.25 -49.0 5.75 L-49.9 6.0 M-55.45 0.65 L-57.35 0.75 -57.4 1.8 -55.6 3.3 -55.6 3.55 -58.1 2.75 -58.15 1.8 Q-58.15 0.2 -57.0 -0.1 -55.5 -0.5 -52.4 1.8 L-53.2 1.8 -55.35 1.5 -55.45 0.65 M-70.3 2.35 Q-70.85 2.9 -71.25 4.35 L-71.8 4.25 -70.5 1.25 -69.8 1.25 Q-69.6 2.75 -68.4 5.75 L-68.55 6.05 -69.0 6.15 -69.9 5.85 -70.1 4.3 -70.25 2.65 -70.3 2.35 M-75.8 4.75 Q-77.7 3.45 -78.3 2.5 L-75.7 3.0 Q-73.45 3.55 -73.25 4.0 L-73.25 4.25 -73.75 4.4 Q-75.1 4.05 -75.3 3.75 L-76.05 3.75 -75.65 4.15 -75.8 4.75 M-75.8 5.05 L-75.75 5.5 Q-75.75 6.0 -76.25 6.0 L-83.1 5.9 -84.95 6.3 -87.75 7.0 Q-88.95 7.0 -89.15 6.65 L-85.05 5.55 -79.5 5.0 -75.9 5.0 -75.8 5.05 M-88.4 7.15 Q-95.1 10.1 -102.55 12.0 -112.95 14.6 -122.85 14.6 L-125.15 14.55 -125.7 14.7 -127.75 15.0 Q-130.25 15.0 -131.15 14.1 -130.55 13.45 -128.05 13.65 -128.2 12.35 -128.65 11.15 L-129.05 9.75 -129.75 9.65 Q-129.75 10.0 -129.15 10.75 L-129.75 11.5 Q-130.55 11.2 -130.7 10.7 L-130.75 9.8 -130.75 8.5 -129.05 8.6 -129.05 8.5 -128.7 8.6 -128.5 8.65 -127.95 7.95 -128.5 6.3 Q-129.35 4.65 -131.4 3.9 L-131.5 4.05 -133.3 4.2 -134.65 4.0 -137.5 4.45 -141.75 4.95 -143.75 4.3 -146.2 3.6 Q-149.65 3.45 -150.45 2.9 -151.15 2.45 -153.45 2.45 L-154.0 2.75 Q-154.1 3.15 -154.3 3.2 L-154.8 2.8 -154.9 2.05 -154.9 1.2 Q-152.4 0.6 -146.6 2.05 -143.65 2.8 -141.2 3.65 L-134.5 2.9 -133.5 3.0 -132.4 2.05 -131.35 3.2 -131.35 3.3 -131.35 3.45 Q-129.4 3.55 -128.0 4.85 -126.65 6.1 -126.5 7.5 L-126.25 7.6 -126.15 9.05 -126.25 9.65 -127.75 9.75 -127.35 10.8 -126.5 13.75 -125.05 13.85 Q-108.95 12.15 -101.0 10.3 -94.0 8.2 -88.4 7.15 M-126.4 3.0 L-126.65 3.15 -126.6 3.0 -126.45 2.8 -126.4 3.0 M-135.6 5.1 L-135.0 5.25 -135.35 5.5 -134.75 5.45 -134.15 5.25 -134.0 5.25 -133.85 5.85 -133.9 6.0 -135.85 5.85 -135.6 5.1 M-133.6 15.35 L-135.0 15.5 -136.1 15.35 -136.9 15.1 Q-135.85 13.9 -134.5 14.15 L-132.65 14.9 Q-132.7 15.15 -133.6 15.35 M-255.7 1.9 Q-255.5 2.55 -255.7 3.5 L-261.2 3.5 -270.9 2.8 -276.45 2.85 -289.5 3.5 -294.8 4.15 -294.9 4.15 -294.55 4.25 -295.7 4.5 -296.4 4.35 -297.9 4.1 -299.65 3.1 -297.55 3.2 -297.45 3.15 -290.0 2.35 Q-288.4 2.05 -276.45 2.0 L-270.8 2.0 -263.15 2.35 -256.2 2.75 -256.05 1.4 -254.3 1.4 -252.45 1.55 -254.1 1.8 -255.7 1.9 M-217.35 3.65 L-217.45 2.9 -218.55 2.9 -222.2 4.15 -222.55 4.0 -222.55 3.65 Q-222.25 3.3 -220.35 2.6 -218.3 1.9 -217.2 1.9 -216.8 1.9 -216.65 2.1 L-216.45 2.3 -215.95 0.25 Q-215.45 -0.8 -214.3 -0.45 L-214.95 2.05 Q-215.7 3.9 -216.95 3.9 L-217.35 3.65 M-160.95 4.95 L-161.15 5.1 -161.3 4.9 -160.95 4.95" fill="#5b5546" fill-rule="evenodd" stroke="none"/>
    <path d="M-121.05 23.4 Q-118.65 22.45 -117.35 22.75 -116.25 23.0 -116.25 24.0 -116.25 24.85 -117.55 25.95 -118.95 27.15 -120.35 27.15 L-121.5 26.85 -121.55 26.65 Q-121.05 26.2 -118.95 25.25 -117.15 24.5 -117.15 24.15 L-117.15 23.55 Q-117.25 23.4 -117.65 23.4 -118.9 23.4 -119.8 23.75 L-120.75 24.25 -121.05 23.4 M-129.5 24.05 Q-129.5 25.0 -129.15 25.3 L-126.75 25.15 -126.4 25.25 Q-126.05 25.35 -126.0 25.5 L-126.15 25.9 Q-126.5 26.25 -127.5 26.25 -129.25 26.25 -129.75 25.15 L-129.9 24.0 Q-129.9 22.45 -128.7 22.65 L-124.6 24.25 -123.65 24.35 -123.05 22.95 -122.4 21.05 Q-122.4 20.7 -122.75 20.1 L-122.9 19.85 Q-121.4 20.8 -121.4 22.9 L-122.25 24.15 -123.25 25.25 -123.6 25.15 -123.75 24.8 -124.15 24.9 -123.4 25.4 -123.5 25.75 -124.65 25.75 -124.75 25.5 -124.75 24.45 -126.0 24.0 Q-127.6 23.05 -127.75 23.0 L-129.5 23.0 -129.5 24.05 M-127.0 20.8 Q-127.0 18.4 -124.2 19.25 L-123.5 19.5 Q-126.0 19.55 -126.5 20.15 -126.75 20.45 -126.5 20.85 L-124.8 24.0 -126.6 22.35 Q-127.0 21.9 -127.0 20.8 M-125.05 25.9 Q-124.1 25.45 -123.35 26.5 L-122.15 28.25 -122.15 30.15 -122.1 30.2 -122.5 30.25 Q-124.65 30.25 -125.25 29.25 L-125.5 28.15 -125.25 27.1 Q-125.0 26.3 -125.05 25.9 M-124.95 27.45 L-125.0 28.1 -124.95 28.5 -123.65 29.65 -122.75 29.05 -122.95 27.85 Q-123.35 27.2 -124.55 27.0 L-124.95 27.45" fill="#5b5546" fill-rule="evenodd" stroke="none"/>
  </g>
</svg>
