<?xml version="1.0" encoding="UTF-8" standalone="no"?>
<svg xmlns:xlink="http://www.w3.org/1999/xlink" height="215.6px" width="194.6px" xmlns="http://www.w3.org/2000/svg">
  <g transform="matrix(1.0, 0.0, 0.0, 1.0, 97.35, 106.55)">
    <path d="M2.0 -60.35 Q3.05 -61.1 6.65 -62.2 L11.0 -63.3 Q14.8 -63.3 15.9 -59.45 16.5 -57.45 16.25 -54.75 L16.0 -54.2 Q16.6 -54.35 20.8 -57.45 24.45 -60.1 27.0 -60.1 29.75 -60.1 33.95 -55.3 37.75 -50.95 37.75 -49.7 37.75 -47.85 36.65 -46.05 35.4 -44.1 33.25 -42.75 L33.0 -42.5 Q38.25 -41.95 39.6 -38.1 40.55 -35.4 39.55 -33.3 44.0 -41.15 48.0 -41.15 53.1 -41.15 54.95 -35.6 56.3 -31.4 55.5 -27.05 L55.9 -27.1 58.0 -27.3 Q61.8 -27.3 63.25 -24.15 64.0 -22.6 64.0 -20.75 64.0 -18.9 62.65 -16.65 L60.25 -13.15 60.25 -12.9 Q61.3 -13.3 66.1 -15.6 70.7 -17.7 72.0 -17.7 76.95 -17.7 77.35 -12.95 77.6 -9.75 76.25 -6.8 78.35 -6.1 79.65 -4.0 L80.1 -3.15 80.0 -3.15 Q70.3 -6.15 75.1 19.75 55.4 31.0 51.75 33.75 L51.75 34.0 Q57.75 32.7 70.0 26.8 77.7 23.0 81.55 21.95 77.55 24.95 70.5 34.7 59.0 50.4 42.0 59.85 L42.0 60.1 Q44.95 58.75 59.3 50.4 73.55 42.8 80.0 42.8 83.65 42.8 85.3 46.0 86.25 47.85 86.25 49.55 86.25 52.85 82.45 56.0 81.0 57.2 72.75 62.5 L72.5 62.8 Q76.25 62.25 78.55 65.35 80.25 67.7 80.25 69.8 80.25 72.4 77.1 74.05 71.6 76.9 69.25 79.05 76.2 82.7 82.95 85.2 84.85 86.35 78.25 89.4 L75.6 90.6 Q73.5 90.5 72.55 91.15 70.75 91.65 70.75 93.0 L70.75 93.1 65.95 95.95 Q56.45 92.1 39.35 92.1 35.6 92.1 31.2 94.9 26.75 97.7 24.5 97.7 19.4 97.7 17.75 95.15 16.9 92.25 16.25 91.55 13.75 93.15 1.3 96.6 -0.6 99.75 -5.4 98.2 -10.2 96.65 -15.4 95.6 -20.6 94.5 -20.25 93.35 -19.9 92.2 -16.0 89.15 -12.1 86.05 -7.5 81.45 L-6.75 80.65 Q-39.8 106.9 -47.85 108.65 -55.95 110.35 -56.1 105.0 -56.3 99.6 -39.75 89.7 -40.6 90.0 -51.65 95.95 -59.6 100.2 -62.45 99.7 -65.3 99.2 -67.4 95.6 L-72.85 95.15 Q-72.85 91.0 -65.6 85.95 -56.1 80.25 -51.75 77.15 -54.7 78.2 -69.15 87.6 -82.6 96.35 -84.85 96.35 -89.1 96.35 -90.4 93.25 L-90.85 89.8 Q-90.85 86.95 -85.35 82.35 L-74.85 74.25 Q-79.55 68.0 -87.75 65.65 L-92.3 64.1 Q-94.1 63.1 -94.1 61.0 -94.1 58.45 -92.8 57.1 -91.85 56.0 -86.35 52.1 L-86.1 51.85 Q-91.25 51.9 -93.05 48.7 -93.85 47.2 -93.85 45.05 -93.85 41.4 -85.35 34.2 -75.9 26.85 -74.1 24.95 L-73.85 24.65 Q-76.3 22.25 -82.05 18.05 -86.6 14.35 -86.6 11.1 -86.6 7.7 -79.6 2.7 L-68.1 -5.7 -67.85 -6.25 -72.2 -3.1 Q-75.75 -0.9 -79.85 -0.9 -85.9 -0.9 -87.35 -5.4 -88.05 -7.7 -87.6 -10.25 -87.6 -14.95 -87.3 -15.8 -86.6 -17.85 -82.6 -22.25 -82.95 -23.4 -83.85 -24.35 -87.2 -21.7 -91.8 -21.4 -93.25 -21.3 -94.2 -20.7 -92.5 -28.6 -89.2 -47.75 L-93.05 -41.15 -92.85 -43.8 Q-92.85 -46.75 -91.1 -48.95 -89.35 -51.2 -89.35 -55.0 -89.35 -58.05 -89.15 -58.6 -88.5 -60.35 -85.1 -63.55 L-84.85 -63.8 Q-88.65 -64.4 -88.6 -67.45 -88.55 -68.75 -87.35 -71.55 -89.75 -73.3 -90.95 -74.85 -91.85 -76.0 -91.85 -76.6 -91.85 -79.25 -85.35 -82.45 -78.3 -85.95 -70.85 -85.95 -66.1 -85.95 -65.15 -84.0 L-64.85 -81.4 Q-56.8 -85.15 -51.5 -86.6 -41.15 -89.55 -45.25 -82.2 -44.45 -82.2 -40.8 -84.6 -37.1 -87.0 -35.0 -87.0 -31.75 -87.0 -26.45 -82.75 L-21.0 -78.45 -17.85 -80.35 Q-14.8 -82.2 -12.5 -82.2 -7.85 -82.2 -6.2 -79.5 -5.5 -78.25 -5.5 -76.45 -5.5 -75.2 -6.6 -73.35 -7.7 -71.45 -9.5 -69.65 L-10.5 -69.15 Q-9.75 -69.25 -7.45 -70.05 -5.4 -70.75 -4.0 -70.75 0.85 -70.75 1.55 -66.05 1.4 -61.0 2.0 -60.35 M-50.0 -78.75 Q-51.1 -78.75 -54.05 -76.8 L-58.6 -73.65 -59.6 -73.15 Q-58.4 -73.05 -55.0 -75.3 L-50.0 -78.75" fill="#857a50" fill-opacity="0.3019608" fill-rule="evenodd" stroke="none"/>
    <path d="M9.35 -66.1 Q16.15 -63.2 16.75 -58.25 26.5 -55.8 31.9 -51.35 37.35 -46.85 36.25 -42.0 43.05 -39.3 54.7 -34.9 63.95 -31.25 68.7 -28.75 80.75 -22.4 80.75 -14.0 80.75 -12.5 79.55 -11.0 78.1 -9.25 76.0 -9.25 72.8 -9.25 60.1 -17.15 46.45 -25.7 43.5 -26.5 33.3 -31.25 25.25 -37.4 17.15 -43.55 20.0 -43.75 6.8 -50.35 7.4 -55.5 7.55 -56.8 5.65 -57.0 3.65 -57.25 -12.0 -61.65 -27.7 -66.05 -29.95 -63.55 -32.25 -61.1 -33.55 -63.4 -34.9 -65.75 -34.4 -70.3 -33.9 -74.9 -44.0 -74.2 -54.1 -73.5 -86.8 -73.9 L-86.6 -75.85 Q-86.6 -87.55 -58.35 -85.5 L-35.85 -82.85 -19.0 -81.0 Q-15.85 -81.0 -9.65 -76.45 L0.75 -69.0 Q5.8 -67.6 9.35 -66.1" fill="#857a50" fill-opacity="0.3019608" fill-rule="evenodd" stroke="none"/>
    <path d="M-86.85 -46.6 Q-86.85 -55.5 -74.85 -51.55 -71.1 -50.35 -66.6 -47.95 L-62.85 -45.85 Q-62.85 -43.85 -64.35 -41.75 -66.35 -39.0 -69.85 -39.0 -80.85 -39.0 -84.85 -42.5 -86.85 -44.25 -86.85 -46.6" fill="#857a50" fill-opacity="0.3019608" fill-rule="evenodd" stroke="none"/>
    <path d="M-84.7 -18.15 Q-85.1 -18.65 -85.1 -20.1 -85.1 -22.95 -69.6 -26.1 L-48.0 -30.5 -46.0 -28.85 Q-45.5 -28.05 -45.5 -26.25 -45.5 -24.0 -45.75 -23.25 -46.4 -21.45 -49.0 -20.25 -56.05 -17.0 -79.35 -17.0 L-84.35 -17.5 -84.7 -18.15" fill="#857a50" fill-opacity="0.3019608" fill-rule="evenodd" stroke="none"/>
    <path d="M22.5 29.3 L22.75 31.0 Q23.7 31.7 20.35 32.4 13.7 33.8 -8.0 34.25 L-10.4 35.0 Q-12.55 35.75 -14.0 35.75 -29.9 35.75 -35.8 33.3 -38.75 32.05 -38.75 30.25 -38.75 27.45 -36.85 26.7 L-28.6 26.25 22.25 29.5 22.5 29.3" fill="#857a50" fill-opacity="0.3019608" fill-rule="evenodd" stroke="none"/>
    <path d="M-39.45 49.3 L-42.45 49.5 Q-51.75 49.6 -65.85 52.0 -72.6 53.1 -73.8 55.35 -74.7 57.0 -81.85 57.0 -89.0 57.0 -90.6 54.65 -91.45 53.45 -90.85 52.0 -90.85 48.1 -89.7 46.55 -88.45 44.9 -84.9 44.55 -82.25 44.25 -74.6 44.45 L-56.85 44.75 -45.75 43.9 -40.5 42.75 Q-39.15 42.5 -39.0 43.4 L-39.0 48.0 Q-39.0 49.15 -39.45 49.3" fill="#857a50" fill-opacity="0.3019608" fill-rule="evenodd" stroke="none"/>
    <path d="M75.0 20.3 L60.5 20.75 Q50.25 20.75 47.8 19.5 47.0 19.1 47.05 18.6 L47.25 18.0 Q47.25 17.65 52.4 14.85 58.5 11.6 63.75 9.85 80.25 4.5 80.25 17.1 80.25 19.6 75.0 20.3" fill="#857a50" fill-opacity="0.3019608" fill-rule="evenodd" stroke="none"/>
    <path d="M63.9 43.3 L64.25 40.75 Q68.35 40.4 73.75 45.05 78.75 49.4 78.75 51.75 78.75 52.95 75.75 55.0 72.75 57.0 71.0 57.0 65.85 57.0 64.3 51.65 L63.75 46.0 Q63.75 44.5 63.9 43.3" fill="#857a50" fill-opacity="0.3019608" fill-rule="evenodd" stroke="none"/>
    <path d="M-62.25 9.4 Q-62.1 9.8 -62.1 11.35 -62.1 12.45 -62.45 14.25 L-62.6 17.0 -63.45 17.65 Q-64.35 18.25 -65.85 18.25 -67.65 18.25 -70.95 15.75 -73.8 13.55 -74.85 12.0 -72.5 10.7 -68.8 9.55 -64.25 8.1 -62.6 8.75 L-62.25 9.4" fill="#857a50" fill-opacity="0.3019608" fill-rule="evenodd" stroke="none"/>
    <path d="M21.75 -74.5 Q36.45 -63.35 52.25 -55.35 57.2 -52.85 74.85 -45.25 85.2 -40.75 88.9 -37.1 93.75 -32.25 93.75 -23.85 93.75 -21.75 92.3 -20.5 90.75 -19.25 88.0 -19.25 73.6 -19.25 46.6 -39.0 32.9 -49.05 20.0 -60.75 6.4 -72.2 -15.4 -78.65 -30.35 -83.1 -53.85 -86.2 -80.3 -89.65 -84.7 -90.7 -97.35 -93.6 -97.35 -99.5 -83.05 -103.45 -65.7 -105.4 -31.1 -109.3 -16.0 -100.0 L2.55 -87.7 Q16.3 -78.6 21.75 -74.5" fill="#5b5546" fill-opacity="0.3019608" fill-rule="evenodd" stroke="none"/>
    <path d="M6.65 -67.0 L-6.15 -77.45 Q-13.05 -82.55 -19.95 -84.9 -28.4 -87.75 -40.0 -87.75 L-47.65 -88.25 -59.85 -88.75 -81.55 -89.65 Q-83.35 -90.0 -83.75 -90.65 L-83.85 -91.75 Q-83.85 -95.2 -74.1 -96.85 L-51.25 -97.75 Q-37.15 -97.1 -24.8 -94.45 -11.1 -91.55 -4.25 -87.0 L9.5 -76.95 24.75 -65.25 Q34.8 -57.55 63.9 -40.45 90.0 -25.05 90.0 -24.75 90.0 -23.0 89.25 -21.75 88.2 -20.0 86.0 -20.0 80.75 -20.0 52.6 -37.05 38.35 -45.7 23.5 -55.25 15.25 -60.0 6.65 -67.0" fill="#5b5546" fill-opacity="0.3019608" fill-rule="evenodd" stroke="none"/>
    <path d="M89.8 95.05 Q89.8 98.5 89.5 99.25 88.1 102.8 82.25 102.8 65.6 102.8 61.0 101.05 59.5 100.5 59.4 99.75 L59.55 99.0 Q59.55 98.15 60.0 97.5 60.7 96.55 62.25 96.5 L59.65 94.5 Q58.55 93.75 58.55 92.9 58.55 91.45 60.3 89.55 62.1 87.6 62.55 91.0 L66.35 91.25 70.75 91.5 75.2 90.4 79.0 89.3 Q88.0 89.3 89.8 92.05 90.7 93.45 89.8 95.05" fill="#5b5546" fill-opacity="0.3019608" fill-rule="evenodd" stroke="none"/>
    <path d="M90.05 98.35 Q90.05 100.2 89.05 100.5 L85.8 100.55 Q72.6 100.55 71.55 101.45 71.3 101.65 71.55 102.05 L69.75 102.3 Q67.95 102.3 66.55 100.25 65.5 98.65 65.5 97.9 65.5 90.2 77.8 92.8 82.2 93.75 86.2 95.6 90.05 97.4 90.05 98.35" fill="#5b5546" fill-opacity="0.3019608" fill-rule="evenodd" stroke="none"/>
    <path d="M-96.7 -85.15 Q-97.1 -85.6 -97.1 -87.1 -97.1 -88.6 -94.25 -90.1 -90.65 -92.0 -84.85 -91.75 -84.85 -92.3 -57.65 -91.45 -30.25 -90.55 -28.75 -89.25 -30.8 -86.65 -31.3 -86.3 -33.05 -85.0 -37.0 -85.0 -61.7 -84.5 -80.85 -84.7 L-96.35 -84.75 -96.7 -85.15" fill="#336633" fill-opacity="0.3019608" fill-rule="evenodd" stroke="none"/>
    <path d="M24.35 -46.5 Q-12.65 -72.5 -28.75 -86.75 -17.6 -82.0 83.0 -18.5 L82.95 -17.0 82.75 -16.25 82.15 -15.6 Q81.5 -15.0 80.0 -15.0 69.25 -15.0 24.35 -46.5" fill="#336633" fill-opacity="0.3019608" fill-rule="evenodd" stroke="none"/>
    <path d="M56.15 -34.55 Q55.0 -33.25 54.0 -33.25 L44.05 -39.1 Q32.35 -46.1 21.0 -53.45 -14.05 -76.1 -26.5 -89.0 -11.55 -81.95 16.05 -63.55 L57.5 -36.25 56.15 -34.55" fill="#336633" fill-opacity="0.3019608" fill-rule="evenodd" stroke="none"/>
    <path d="M12.25 -9.8 Q13.8 -9.65 14.3 -9.1 15.05 -7.6 15.05 -4.25 L15.05 5.3 15.05 13.75 Q14.5 19.5 11.25 19.5 L10.2 20.9 Q9.2 22.25 6.25 22.25 3.95 22.25 1.05 21.3 L-1.5 20.3 Q-8.8 20.3 -8.85 21.4 -8.9 22.5 -20.75 22.5 -31.2 22.5 -34.0 21.25 -35.0 20.8 -35.0 19.35 L-33.65 16.65 -32.35 14.25 Q-32.35 10.5 -32.85 3.4 L-33.35 -7.05 Q-33.35 -9.15 -32.15 -9.0 -30.25 -8.35 -29.0 -8.35 L-27.5 -8.7 -26.6 -9.1 -8.0 -9.45 10.5 -9.75 12.25 -9.8 M8.45 7.1 Q8.4 2.75 7.3 -5.6 L-10.85 -5.6 Q-9.9 -1.85 -9.9 4.95 L-10.0 16.05 -7.65 15.9 -4.75 15.75 1.95 16.35 Q4.05 16.85 4.75 17.55 8.55 14.9 8.45 7.1 M-14.4 -3.05 L-14.85 -3.35 -21.45 -3.55 -28.25 -3.6 -28.0 4.1 -27.85 10.8 Q-27.95 14.2 -29.1 17.8 L-27.15 18.05 -14.0 18.25 -14.0 -2.0 Q-14.0 -2.75 -14.4 -3.05" fill="#336633" fill-opacity="0.3019608" fill-rule="evenodd" stroke="none"/>
    <path d="M8.5 -8.5 Q12.5 -8.5 14.5 -3.0 15.75 0.4 15.75 3.0 15.75 6.6 15.05 8.25 13.6 11.75 9.0 11.75 7.1 11.75 6.75 9.9 L6.75 7.85 Q6.75 6.8 7.3 3.65 7.9 0.45 8.25 -0.1 L8.25 -4.5 Q0.6 -3.1 -6.35 -3.85 -6.6 -4.5 -6.6 -3.25 -6.6 -2.6 -6.05 -1.55 -5.5 -0.5 -5.5 0.1 -9.3 9.3 -9.5 9.3 -12.3 9.3 -12.75 4.15 -13.05 1.3 -12.75 -4.0 L-19.35 -4.0 Q-20.1 -3.85 -22.0 -2.9 -24.3 -2.05 -27.25 -2.1 L-27.25 7.55 Q-26.25 9.55 -26.25 12.5 -26.25 14.75 -28.0 14.75 -29.9 14.75 -31.5 4.2 -32.3 -1.1 -32.75 -6.5 -32.75 -7.4 -32.4 -7.55 L-30.35 -7.7 -14.85 -8.5 -9.05 -8.1 -2.25 -7.5 3.15 -8.0 8.5 -8.5" fill="#336633" fill-opacity="0.3019608" fill-rule="evenodd" stroke="none"/>
    <path d="M2.3 -76.1 L1.75 -74.5 0.6 -72.75 0.6 -72.7 0.05 -72.8 0.15 -72.95 1.0 -74.95 Q1.6 -76.0 2.3 -76.1 M0.8 -77.85 L0.15 -76.4 -0.55 -75.3 Q-1.1 -74.75 -1.7 -75.05 -0.9 -75.9 0.4 -78.05 L0.8 -77.85 M13.7 -67.55 L13.95 -67.4 13.3 -65.8 12.3 -64.4 Q12.2 -64.45 12.05 -64.55 L12.8 -66.15 13.7 -67.55 M14.5 -64.55 L15.65 -66.4 15.85 -66.3 15.0 -64.25 14.3 -63.2 14.1 -62.95 13.8 -63.05 Q26.45 -55.5 34.35 -50.9 L34.4 -50.95 36.4 -54.2 36.55 -54.15 34.9 -50.55 37.6 -48.95 40.4 -47.35 61.7 -34.9 61.8 -35.15 61.9 -35.2 63.55 -37.7 63.9 -37.45 63.65 -36.7 62.5 -34.9 62.25 -34.55 76.2 -26.35 76.55 -27.0 76.7 -27.25 78.2 -29.7 78.35 -29.65 77.15 -27.05 77.0 -26.7 76.6 -26.15 88.0 -19.5 89.3 -18.75 89.9 -19.65 93.7 -24.9 96.25 -28.85 96.35 -28.95 95.2 -28.9 94.55 -29.3 Q92.95 -30.25 88.0 -33.7 81.5 -38.25 57.7 -52.0 L16.05 -76.1 Q7.6 -81.0 -27.6 -102.75 L-51.15 -102.75 Q-78.65 -102.75 -86.55 -102.05 L-94.4 -101.55 -95.15 -101.5 -96.15 -102.15 -96.15 -102.0 Q-96.1 -98.9 -95.85 -97.25 L-95.25 -90.8 -95.15 -89.75 -93.65 -89.75 -80.45 -89.8 -80.5 -90.5 -80.5 -90.9 -80.25 -93.75 -80.05 -93.7 -80.0 -90.8 -79.95 -90.55 -80.0 -89.8 -63.85 -89.95 -63.85 -90.35 -63.95 -92.5 -63.8 -93.25 -63.35 -93.3 -63.2 -90.3 -63.15 -90.2 -63.15 -89.95 -38.5 -90.05 -35.3 -90.05 -32.15 -90.1 -31.8 -94.05 -31.6 -94.0 -31.5 -90.2 -31.45 -90.15 -31.25 -90.45 -30.75 -90.15 -30.55 -90.15 -30.4 -89.9 Q-21.6 -84.25 -15.6 -80.65 L-15.35 -81.35 -14.5 -82.6 -14.3 -82.5 Q-14.4 -81.75 -14.8 -81.1 L-15.2 -80.4 -14.25 -79.9 -13.7 -81.0 -11.75 -84.1 -11.6 -84.05 -13.25 -80.65 -13.95 -79.65 -11.55 -78.3 -2.75 -72.95 -0.15 -71.4 13.8 -63.05 13.95 -63.45 14.5 -64.55 M8.55 -61.25 L59.0 -32.2 75.45 -22.55 80.4 -22.55 39.75 -46.25 34.35 -49.35 34.2 -49.0 33.95 -49.6 Q11.65 -62.7 -31.65 -88.8 L-31.75 -88.8 -31.9 -88.65 -32.25 -88.75 -32.25 -88.8 -38.5 -88.8 -92.9 -88.6 -91.4 -86.95 Q-90.5 -86.35 -88.3 -85.95 L-88.1 -86.0 -62.15 -86.25 -32.85 -86.2 -32.85 -86.45 Q-16.9 -76.6 0.75 -66.35 L-3.05 -67.6 -12.15 -73.05 -11.15 -72.05 -12.95 -72.4 -14.25 -72.7 -14.45 -72.95 -14.4 -73.35 Q-14.15 -73.75 -13.85 -73.75 -14.8 -73.95 -15.3 -74.45 -16.25 -75.35 -17.65 -75.95 L-17.9 -76.0 -17.65 -76.2 -32.35 -85.05 -63.65 -84.8 -64.5 -84.5 -66.9 -84.45 -66.9 -84.6 -66.65 -84.8 Q-70.1 -84.7 -73.5 -84.75 L-80.45 -84.75 -80.5 -84.45 -89.35 -84.4 -89.1 -84.8 Q-90.7 -85.05 -92.0 -86.05 -93.5 -87.2 -93.5 -88.1 L-93.5 -88.55 -96.25 -88.55 -96.45 -88.8 -96.55 -88.95 -96.6 -89.95 -97.0 -97.75 -97.25 -100.65 Q-97.15 -102.05 -96.6 -102.7 L-96.7 -102.8 -96.5 -103.35 -95.15 -103.3 -94.4 -103.25 -28.3 -103.8 -27.25 -103.45 -26.85 -103.45 95.4 -30.85 96.1 -30.5 Q96.65 -30.1 97.25 -29.85 L97.15 -29.25 97.05 -29.2 Q97.2 -28.4 96.55 -27.1 L94.9 -24.75 90.7 -18.2 90.1 -17.35 89.95 -17.25 89.65 -17.15 87.25 -18.55 87.05 -18.1 Q86.6 -17.35 84.75 -17.1 L83.25 -17.1 83.25 -15.7 83.55 -12.5 Q83.45 -10.0 82.35 -9.2 L81.4 -8.2 Q80.2 -7.05 79.35 -7.05 L79.25 -7.05 Q79.65 -6.45 79.7 -5.25 L79.6 -3.25 79.55 -3.25 79.6 0.2 78.1 3.05 Q76.55 5.4 75.95 5.4 75.35 5.4 75.2 4.9 L75.2 4.4 75.3 4.2 74.7 4.4 75.65 5.6 75.95 6.6 76.05 6.65 75.95 6.7 75.95 7.4 75.8 7.55 Q76.65 9.05 77.2 12.65 77.7 16.1 77.7 19.15 L77.45 20.25 77.2 21.3 Q77.2 22.55 77.55 24.95 L77.85 28.65 Q77.85 29.35 77.15 29.55 76.4 31.45 74.6 32.95 75.6 33.25 76.85 34.05 80.2 36.2 80.2 38.5 L80.2 39.4 80.0 39.9 78.65 40.15 76.65 42.55 75.95 43.3 Q78.55 43.45 79.5 45.75 79.95 46.85 79.95 50.4 L79.85 54.7 81.25 54.95 Q80.5 55.65 79.55 56.0 L75.95 56.95 75.55 59.05 Q75.25 60.65 74.35 62.1 L74.7 61.7 Q76.35 62.65 77.45 64.4 L79.0 67.2 79.0 74.4 78.2 74.95 Q77.6 73.8 77.05 68.9 76.65 65.15 73.75 62.7 L74.25 62.2 73.65 61.7 73.45 60.5 Q73.45 59.9 73.95 59.4 74.45 58.9 74.45 58.25 74.45 57.55 73.95 56.9 73.45 56.2 73.45 55.9 L78.7 55.05 Q78.3 54.25 78.25 52.8 L78.45 49.9 Q78.6 47.4 76.85 47.0 74.4 46.45 73.1 44.4 L72.9 44.35 72.45 44.45 Q72.15 44.15 71.35 43.75 70.3 43.2 69.5 43.2 L66.4 43.35 64.25 43.7 Q63.75 44.45 62.2 44.45 L61.1 44.3 60.75 43.9 Q63.6 41.05 72.8 43.55 L75.3 41.7 Q76.7 40.55 77.7 40.15 L77.5 40.15 77.35 40.0 Q77.2 39.8 77.2 39.05 77.2 38.3 77.45 38.2 L78.2 37.95 Q77.35 36.7 75.35 35.45 L71.95 33.1 Q71.15 32.95 71.0 32.7 72.3 32.45 73.95 30.95 L73.55 31.0 74.7 29.9 75.0 29.95 75.7 29.25 75.45 28.85 75.45 28.15 Q75.45 22.9 75.9 20.3 76.35 17.7 76.35 13.2 76.35 12.2 75.4 9.55 L74.45 7.05 73.3 6.0 67.1 6.65 Q64.5 6.65 63.35 5.65 L62.75 4.65 Q62.75 3.1 63.3 1.0 L64.1 -1.55 64.1 -1.6 64.7 -1.55 65.35 -1.3 Q64.5 -0.3 64.35 0.45 L64.25 2.25 64.35 4.4 72.4 5.15 72.2 4.95 Q72.2 4.45 73.85 3.5 75.2 2.7 76.4 2.85 L76.75 2.4 Q78.3 0.3 78.3 -1.3 L78.1 -2.45 77.85 -3.6 77.6 -4.2 77.35 -4.85 77.45 -6.0 78.6 -5.7 78.1 -7.25 77.8 -7.35 Q77.1 -7.2 76.2 -7.35 L74.0 -8.15 Q72.9 -8.15 71.15 -7.1 69.45 -6.05 68.0 -6.05 L65.85 -6.2 64.15 -6.55 64.15 -6.8 Q68.35 -7.15 71.05 -7.95 L78.7 -8.55 80.05 -9.5 81.75 -10.5 82.25 -17.25 81.6 -17.5 81.6 -17.0 73.95 -21.45 74.05 -21.75 Q71.5 -23.15 68.05 -25.2 L62.15 -28.7 62.25 -28.4 62.2 -28.3 60.15 -29.5 59.55 -30.2 46.65 -37.8 46.3 -35.65 Q45.35 -34.4 41.15 -34.4 L36.1 -34.4 Q32.75 -34.6 32.0 -35.5 L37.1 -36.05 43.0 -35.5 Q43.9 -35.5 45.2 -36.65 L46.6 -37.8 30.45 -47.35 30.0 -47.55 27.8 -48.8 Q27.7 -48.85 27.7 -49.05 L23.75 -51.35 24.3 -49.9 23.85 -49.9 Q23.8 -50.75 23.35 -51.6 L14.7 -56.7 14.35 -57.0 9.3 -60.25 8.55 -61.25 M18.15 -49.65 Q20.5 -49.65 21.65 -50.4 L22.95 -51.65 23.2 -51.4 23.25 -50.85 Q23.25 -49.9 21.05 -49.4 L17.05 -48.85 17.15 -47.0 16.9 -44.9 16.65 -44.85 Q16.3 -46.45 16.5 -48.6 L15.05 -48.75 12.0 -48.65 12.85 -47.4 Q13.65 -45.8 13.65 -44.6 L13.45 -41.6 13.25 -41.5 12.6 -45.75 Q12.15 -47.5 11.2 -48.65 L8.9 -48.65 0.4 -49.15 3.4 -49.65 10.15 -49.65 9.9 -49.8 10.6 -49.65 18.15 -49.65 M37.6 -52.65 L38.45 -54.1 38.85 -53.85 37.3 -49.35 37.15 -49.3 Q36.9 -49.8 37.2 -50.8 L37.6 -52.65 M40.0 -51.4 L40.4 -51.2 40.1 -50.35 39.1 -48.9 38.85 -49.0 39.05 -49.75 40.0 -51.4 M26.65 -34.15 Q27.4 -34.75 28.95 -35.25 L31.65 -35.15 Q31.0 -34.65 29.25 -34.3 L26.8 -34.0 26.65 -34.15 M13.55 -39.4 L13.95 -39.4 14.2 -38.25 Q14.2 -37.0 13.0 -35.85 11.7 -34.6 10.05 -34.6 L4.65 -34.8 1.25 -35.4 Q10.8 -35.45 12.7 -36.5 13.45 -36.9 13.55 -37.7 L13.55 -39.4 M16.5 -23.2 L17.25 -23.25 16.8 -23.05 16.5 -23.2 M27.85 -24.3 Q24.75 -21.2 21.7 -22.55 23.7 -22.7 26.1 -25.05 26.15 -25.0 27.1 -24.7 27.8 -24.5 27.85 -24.3 M80.95 -30.05 L81.25 -29.85 80.4 -28.3 78.85 -25.8 78.7 -25.8 80.0 -28.45 80.95 -30.05 M55.0 -46.15 L55.55 -46.25 56.05 -46.35 54.95 -44.0 53.8 -41.45 53.7 -41.4 Q53.3 -42.5 54.15 -43.95 55.05 -45.45 55.0 -46.15 M52.8 -44.3 L52.5 -42.8 Q52.1 -43.5 52.35 -44.55 L52.7 -45.6 52.9 -45.95 53.05 -45.95 53.1 -45.9 52.8 -44.3 M57.2 -42.45 L56.55 -41.75 56.35 -41.8 57.1 -43.25 57.35 -43.0 57.4 -42.85 57.2 -42.45 M49.45 -33.9 Q49.4 -33.65 48.9 -33.65 L48.55 -34.0 46.3 -34.15 Q46.15 -34.4 46.15 -34.6 47.75 -35.5 48.1 -35.4 L49.45 -33.9 M57.15 -9.05 Q57.6 -10.15 59.6 -9.25 62.9 -7.8 64.65 -7.55 L65.1 -7.3 63.5 -7.0 61.75 -6.8 Q60.75 -6.8 58.85 -7.9 L57.15 -9.05 M58.85 -22.05 L57.3 -22.55 59.75 -22.55 59.6 -22.1 58.85 -22.05 M70.65 -21.35 Q70.65 -20.95 68.6 -20.55 L68.1 -20.65 67.95 -20.75 67.9 -21.1 Q67.9 -21.4 68.55 -21.65 L70.55 -21.7 70.6 -21.7 70.65 -21.35 M70.35 -14.4 L70.55 -12.6 Q70.65 -11.45 70.85 -10.8 69.85 -11.35 69.85 -13.05 L69.9 -14.4 70.35 -14.4 M68.75 -12.45 L69.0 -10.4 68.9 -9.3 68.75 -9.15 Q68.5 -9.45 68.5 -10.3 L68.5 -12.45 68.75 -12.45 M73.75 -11.5 L73.6 -10.05 73.35 -10.05 73.15 -10.8 73.15 -12.3 73.6 -12.3 73.75 -11.5 M81.9 -25.85 L81.15 -25.05 81.0 -25.1 81.4 -26.0 81.7 -26.45 82.05 -26.2 81.9 -25.85 M81.85 -21.15 L81.45 -21.9 75.8 -22.3 81.35 -19.0 81.45 -18.85 82.25 -18.6 Q82.25 -20.15 81.85 -21.15 M82.9 -20.45 L83.2 -18.35 84.65 -18.2 86.75 -18.85 82.7 -21.2 82.9 -20.45 M68.2 18.15 L61.15 18.65 Q57.85 18.9 57.7 19.2 L57.55 18.95 57.2 18.95 56.05 18.9 55.55 18.9 55.15 18.8 53.6 18.6 50.75 17.95 53.05 17.85 52.7 17.65 52.15 17.4 52.85 17.45 54.9 17.9 57.2 18.2 57.45 18.3 57.45 17.95 62.55 17.75 68.2 18.15 M70.85 17.85 Q72.25 16.9 75.25 17.9 L75.35 18.2 73.3 19.0 Q71.9 19.55 71.35 20.2 L72.15 20.45 Q72.9 20.8 73.35 21.7 72.75 22.2 71.25 22.2 70.05 22.2 69.85 21.05 L69.85 19.75 Q69.85 18.5 70.85 17.85 M49.75 28.95 Q48.15 31.6 45.45 33.2 L47.55 30.7 Q49.3 29.0 49.75 28.95 M44.8 35.15 L48.45 34.95 Q48.45 34.3 48.7 33.9 L49.3 32.95 Q49.8 32.2 50.25 31.95 L50.55 32.55 51.45 33.2 50.5 34.2 61.45 34.7 55.7 35.1 49.65 35.55 49.5 35.85 Q49.15 36.65 46.2 36.65 L43.5 36.85 Q41.7 36.95 41.7 36.15 41.7 35.4 44.8 35.15 M69.6 48.9 Q69.45 49.25 69.45 49.7 L68.95 49.4 Q68.35 50.0 67.75 51.35 L67.25 52.75 Q67.25 53.3 68.55 53.9 70.75 54.9 75.95 55.2 L74.2 55.65 71.7 55.9 Q67.35 55.9 66.25 54.65 66.0 54.35 66.0 53.05 66.0 51.5 66.65 50.25 67.6 48.25 69.7 48.65 L69.6 48.9 M28.05 11.65 L27.5 11.9 27.45 10.95 27.75 10.95 28.05 11.65 M19.95 16.9 L20.3 16.9 20.2 17.05 19.95 16.9 M2.0 36.2 L-7.3 36.2 -12.1 35.9 -15.05 35.4 1.95 34.95 2.1 34.75 Q2.25 34.65 2.25 35.45 L2.2 36.2 2.0 36.2 M27.55 63.4 Q29.8 62.05 32.5 64.3 L39.65 63.8 46.7 63.2 47.25 63.35 47.95 63.7 Q47.55 63.85 47.7 64.15 47.85 64.5 47.35 64.65 L33.7 65.15 31.85 64.9 Q30.95 64.65 30.95 64.4 L31.55 64.35 31.2 64.15 Q26.9 64.15 26.5 65.8 26.25 66.75 26.7 68.45 L25.75 68.65 Q25.5 68.2 25.5 66.9 25.5 65.75 26.05 64.85 L25.95 64.9 Q25.1 64.45 22.6 63.75 L19.45 62.9 22.7 62.6 Q25.25 62.5 26.75 63.65 L26.7 64.05 27.55 63.4 M3.2 63.9 Q0.85 63.9 -0.25 62.7 L-2.05 60.7 -0.4 59.65 Q-0.25 59.65 0.85 60.2 4.7 62.0 15.45 62.7 L3.2 63.9 M15.25 82.95 L19.45 83.2 15.3 83.7 10.95 84.2 10.75 83.9 Q11.8 83.15 15.25 82.95 M0.7 83.95 L-3.4 83.8 -6.55 83.4 0.95 83.05 6.95 83.2 4.2 83.65 0.7 83.95 M7.25 83.7 Q10.8 83.25 11.85 85.55 12.25 86.4 12.25 88.4 L12.2 89.6 11.95 90.15 11.25 90.15 10.65 87.05 Q9.8 85.0 7.2 84.15 L7.25 83.7 M72.55 63.7 Q66.25 62.95 65.25 61.95 L65.7 61.7 69.2 62.4 Q72.15 62.9 72.95 63.4 73.8 63.7 72.55 63.7 M58.25 76.45 L58.25 74.4 58.75 74.4 59.85 76.0 62.95 79.4 62.45 79.9 60.2 78.15 58.25 76.45 M44.75 98.15 Q44.75 97.35 44.9 97.3 L45.2 97.2 45.75 97.35 46.45 97.7 45.5 98.15 45.9 98.75 46.45 99.7 Q46.45 100.15 45.95 100.2 L45.35 99.45 45.25 99.35 Q44.7 100.25 43.0 101.2 40.4 102.65 37.7 102.65 L33.45 102.2 Q39.95 101.55 42.6 100.0 L44.75 98.2 44.75 98.15 M77.75 76.5 Q77.75 77.8 75.7 79.0 76.7 79.5 77.1 81.1 L77.25 84.5 77.15 88.05 Q76.95 89.4 76.25 90.75 L75.9 90.75 75.05 90.8 75.0 90.15 Q75.0 89.55 75.5 87.45 L76.0 84.75 75.9 81.9 Q75.65 80.45 74.65 79.5 72.45 80.45 69.95 80.45 L68.6 80.15 67.45 79.7 72.7 77.55 Q76.65 75.8 77.45 75.65 L77.7 75.7 77.75 76.5 M65.45 89.4 L71.25 88.95 71.45 90.9 70.45 91.4 Q69.65 90.35 66.95 90.05 64.95 89.85 65.45 89.4 M-85.2 -92.2 L-85.15 -92.6 -84.75 -92.6 -84.65 -92.05 -84.75 -91.1 -84.95 -91.15 -85.2 -92.2 M-82.65 -93.55 L-82.65 -95.35 -82.3 -95.4 -82.25 -93.5 -82.45 -90.55 -82.55 -90.65 -82.65 -93.55 M-81.05 -83.0 L-80.35 -82.75 Q-80.95 -81.95 -83.25 -81.25 L-86.05 -80.75 Q-86.6 -78.2 -86.6 -73.75 L-87.1 -73.75 -87.35 -76.4 -87.45 -76.35 -87.55 -76.25 -88.6 -76.3 -88.75 -76.8 -88.8 -76.45 -89.3 -74.05 Q-87.7 -72.15 -86.9 -69.1 L-85.7 -65.05 Q-85.1 -64.35 -81.35 -64.35 L-77.05 -64.85 Q-71.1 -64.85 -70.45 -63.9 -72.05 -62.25 -78.1 -62.6 L-84.9 -63.1 -84.85 -63.0 -85.3 -63.05 -85.35 -62.6 Q-85.65 -61.75 -87.8 -62.0 L-87.8 -61.6 -87.55 -61.8 Q-87.25 -61.05 -87.15 -59.65 L-87.05 -59.5 -87.05 -57.35 -87.05 -57.25 -87.05 -55.05 -87.1 -55.05 -87.1 -53.5 -87.05 -53.5 -86.35 -53.25 -86.6 -52.5 Q-84.2 -53.75 -80.05 -53.75 -78.5 -53.75 -76.25 -52.55 -74.4 -51.6 -74.05 -51.05 L-74.05 -50.5 -74.35 -50.4 -75.55 -50.25 -77.5 -51.25 Q-79.5 -52.25 -80.05 -52.25 L-86.8 -51.6 Q-87.35 -48.7 -87.35 -44.25 -87.35 -43.6 -85.75 -42.55 L-85.45 -42.35 -83.55 -43.05 -82.6 -42.8 -75.5 -42.45 -68.6 -41.5 -68.6 -41.4 -70.0 -40.9 -74.9 -40.4 Q-79.55 -40.4 -81.4 -41.5 L-82.2 -42.4 -84.2 -41.2 -84.1 -40.8 -84.2 -39.95 -84.3 -39.8 -84.6 -39.8 -85.25 -40.3 -85.55 -39.95 Q-86.65 -38.8 -88.3 -39.0 L-88.45 -38.85 -88.6 -39.65 Q-88.6 -40.45 -86.75 -41.65 -88.1 -43.1 -88.55 -44.45 L-88.8 -47.8 -89.1 -47.8 -89.2 -47.75 -89.3 -48.6 Q-89.3 -49.75 -88.6 -50.75 L-87.85 -52.7 -88.05 -55.9 -88.7 -59.0 -89.3 -63.0 -87.6 -63.65 -87.1 -63.75 Q-88.6 -64.85 -89.5 -67.65 -90.2 -69.75 -90.35 -72.1 L-90.5 -72.25 -90.55 -73.0 Q-90.55 -74.0 -89.75 -77.0 -88.9 -80.15 -88.3 -80.8 -88.05 -81.3 -88.05 -80.3 L-87.85 -80.5 -87.3 -80.55 Q-88.3 -79.05 -88.3 -77.9 L-88.25 -77.0 Q-88.1 -76.7 -87.35 -76.55 L-87.35 -76.65 -87.3 -79.1 -86.85 -80.75 -87.1 -80.75 -87.3 -81.05 -85.45 -82.05 Q-83.4 -82.9 -81.05 -83.0 M-88.8 -48.2 L-88.8 -48.5 -88.65 -50.5 Q-89.05 -49.95 -88.95 -49.1 L-88.8 -48.2 M-91.3 -33.35 L-91.4 -33.35 -91.4 -35.1 -89.8 -35.1 -89.6 -36.8 -89.05 -37.05 Q-88.55 -36.65 -88.4 -36.1 L-88.3 -35.0 -86.55 -34.8 -88.3 -34.35 -88.35 -33.2 Q-88.55 -32.5 -89.3 -32.3 L-89.75 -33.35 -89.75 -33.55 -91.3 -33.35 M-88.1 -31.65 Q-87.85 -31.3 -87.85 -30.5 -87.85 -29.9 -88.35 -27.8 L-88.85 -25.1 -88.75 -22.25 Q-88.5 -20.8 -87.5 -19.85 -85.3 -20.8 -82.8 -20.8 L-81.45 -20.5 -80.3 -20.05 -85.55 -17.9 -90.3 -16.0 -90.55 -16.05 -90.6 -16.85 Q-90.6 -18.15 -88.55 -19.35 -89.55 -19.85 -89.95 -21.45 L-90.1 -24.85 -90.0 -28.4 Q-89.75 -30.2 -88.55 -32.05 L-88.1 -31.65 M-86.5 -2.05 L-86.3 -0.85 Q-86.3 -0.25 -86.8 0.25 L-86.95 0.45 -86.75 0.45 Q-87.0 1.8 -84.6 3.4 L-81.6 5.45 -71.35 4.8 -69.45 4.65 Q-67.45 2.8 -67.2 0.65 L-65.8 0.65 -65.7 0.8 -65.6 1.25 Q-65.6 3.75 -66.1 4.7 -67.1 6.65 -70.1 7.05 L-73.35 7.4 -73.85 7.55 -76.2 7.95 -74.0 7.4 -79.75 6.7 -79.05 7.2 Q-81.35 7.25 -83.25 6.3 L-86.55 5.9 -84.3 5.7 -85.15 5.05 -86.5 3.75 Q-89.9 3.95 -91.55 4.6 -91.15 5.4 -91.1 6.85 L-91.3 9.75 Q-91.45 12.25 -89.7 12.65 -87.25 13.2 -85.95 15.25 L-85.75 15.3 -85.3 15.2 -84.2 15.9 -82.35 16.45 -82.0 16.45 -82.05 16.4 Q-76.25 16.0 -74.25 14.1 L-72.05 10.45 -71.75 10.45 -71.55 10.75 -71.5 11.65 Q-71.5 12.95 -73.25 14.95 L-73.8 15.55 -73.6 15.75 Q-74.45 16.6 -75.9 17.0 L-77.05 17.2 -77.1 17.2 Q-80.3 17.55 -85.65 16.1 L-88.15 17.95 Q-89.55 19.1 -90.55 19.5 L-90.35 19.5 -90.2 19.65 Q-90.05 19.85 -90.05 20.6 -90.05 21.35 -90.3 21.45 L-91.05 21.7 Q-90.2 22.95 -88.2 24.2 L-84.8 26.55 Q-84.0 26.7 -83.85 26.95 -85.15 27.2 -86.8 28.7 L-86.4 28.65 -87.55 29.75 -87.85 29.7 -88.55 30.4 Q-88.35 30.55 -88.3 30.8 L-88.3 31.5 Q-88.3 36.75 -88.75 39.35 -89.2 41.95 -89.2 46.45 -89.2 47.45 -88.25 50.1 L-87.3 52.6 -86.15 53.65 -79.95 53.0 Q-77.35 53.0 -76.2 54.0 L-75.6 55.0 Q-75.6 56.55 -76.15 58.65 L-76.95 61.2 -76.95 61.25 -77.55 61.2 -78.2 60.95 Q-77.35 59.95 -77.2 59.2 L-77.1 57.4 -77.2 55.25 -85.25 54.5 -85.05 54.7 Q-85.05 55.2 -86.7 56.15 -88.05 56.95 -89.25 56.8 L-89.6 57.25 Q-91.15 59.35 -91.15 60.95 L-90.95 62.1 -90.7 63.25 -90.45 63.85 -90.2 64.5 -90.3 65.65 -91.45 65.35 -90.95 66.9 -90.65 67.0 Q-89.95 66.85 -89.05 67.0 L-86.85 67.8 Q-85.75 67.8 -84.0 66.75 -82.3 65.7 -80.85 65.7 L-78.7 65.85 -77.0 66.2 -77.0 66.45 Q-81.2 66.8 -83.9 67.6 L-91.55 68.2 -92.9 69.15 -94.6 70.15 -95.1 78.2 -94.85 80.25 -90.75 81.15 Q-89.4 81.6 -88.4 82.0 L-86.35 82.1 -81.85 81.15 Q-77.8 80.55 -73.75 82.35 L-79.55 82.6 -87.75 82.2 -87.9 82.2 -87.1 82.6 -88.85 83.1 -90.35 83.1 -90.25 84.25 -90.95 86.7 Q-90.95 87.85 -90.25 88.4 -89.55 88.95 -88.95 90.1 L-86.35 90.15 -81.1 91.0 Q-81.15 91.25 -82.35 91.45 L-84.0 91.6 -86.9 91.05 -88.75 90.5 -88.35 91.35 Q-88.05 91.5 -88.7 91.5 L-88.85 91.5 -88.85 91.75 Q-88.85 93.0 -89.25 93.5 L-91.25 95.7 -91.25 96.85 Q-90.6 96.7 -90.15 97.05 L-89.7 97.55 -89.25 97.5 -89.05 97.6 -89.0 98.05 -89.0 98.1 Q-84.35 97.7 -81.7 98.65 -79.25 99.5 -79.25 101.0 -79.25 101.8 -79.4 102.2 L-79.75 102.7 Q-80.3 101.9 -80.0 100.9 -79.7 99.9 -79.9 99.65 -80.6 98.8 -89.6 98.45 L-92.1 99.65 Q-95.3 101.15 -95.85 102.6 L-96.0 102.6 -96.15 102.2 -96.35 101.6 Q-96.35 100.3 -94.05 99.05 L-91.8 98.05 Q-92.35 97.8 -92.5 97.2 L-92.5 96.15 Q-92.5 94.8 -91.2 92.65 L-90.0 91.1 -91.15 90.0 Q-91.95 88.85 -91.95 88.25 L-91.45 85.55 -90.95 83.25 -90.95 83.05 Q-93.35 82.85 -94.7 82.2 L-95.05 82.2 -95.05 82.05 Q-96.1 81.4 -96.1 80.85 L-96.1 80.25 -95.7 80.25 -95.75 80.1 Q-96.1 78.55 -96.1 75.35 L-96.4 72.15 Q-96.3 69.65 -95.2 68.85 L-94.25 67.85 Q-93.05 66.7 -92.2 66.7 L-92.1 66.7 Q-92.5 66.1 -92.55 64.9 L-92.45 62.9 -92.4 62.9 -92.45 59.45 Q-92.45 58.9 -90.95 56.6 -89.4 54.25 -88.8 54.25 -88.2 54.25 -88.05 54.75 L-88.05 55.25 -88.15 55.45 -87.55 55.25 -88.5 54.05 -88.8 53.05 -88.9 53.0 -88.8 52.95 -88.8 52.25 -88.65 52.1 Q-89.5 50.6 -90.05 47.0 -90.55 43.55 -90.55 40.5 L-90.3 39.4 -90.05 38.35 Q-90.05 37.1 -90.4 34.7 L-90.7 31.0 Q-90.7 30.3 -90.0 30.1 -89.25 28.2 -87.45 26.7 -88.45 26.4 -89.7 25.6 -93.05 23.45 -93.05 21.15 L-93.05 20.25 -92.85 19.75 -91.5 19.5 -89.5 17.1 -88.8 16.35 Q-91.4 16.2 -92.35 13.9 -92.8 12.8 -92.8 9.25 L-92.7 4.95 -94.1 4.7 Q-93.35 4.0 -92.4 3.65 L-88.8 2.7 -88.4 0.6 Q-88.15 -0.7 -87.5 -1.9 L-89.25 -1.15 -88.15 -2.45 Q-89.4 -3.35 -90.3 -4.75 L-91.85 -7.55 -91.85 -14.75 -91.05 -15.3 Q-90.45 -14.15 -89.9 -9.25 -89.5 -5.75 -86.95 -3.35 L-85.85 -4.0 Q-82.25 -6.0 -78.6 -5.05 L-78.55 -5.1 -78.55 -4.75 -82.65 -3.55 -86.65 -2.2 -86.5 -2.05 M-11.75 -78.75 L-11.9 -78.65 -12.35 -79.25 -12.1 -79.25 -11.75 -78.75 M-36.55 -93.4 L-36.1 -93.35 -36.15 -91.5 -36.3 -90.75 -36.6 -90.75 -36.75 -92.5 Q-36.75 -93.25 -36.55 -93.4 M-33.4 -94.95 L-33.45 -93.25 -34.0 -91.45 Q-34.25 -90.45 -34.7 -90.15 L-34.85 -90.25 -33.9 -94.95 -33.4 -94.95 M-26.1 -69.5 L-27.35 -69.9 -27.35 -70.35 -26.45 -70.3 -25.4 -70.15 -19.45 -70.5 -15.4 -70.55 -15.25 -71.35 -14.95 -71.7 -14.5 -71.8 -14.5 -71.9 -14.0 -71.9 Q-13.8 -71.75 -13.75 -71.4 L-13.1 -70.6 -13.8 -70.4 -13.85 -70.3 -13.6 -70.25 -9.6 -69.15 -11.6 -68.9 -14.65 -69.5 -14.75 -69.5 -15.2 -69.55 -19.75 -69.35 -21.55 -69.15 -26.1 -69.5 M-34.85 -53.9 L-34.75 -52.45 -33.25 -52.3 -32.1 -51.35 -26.3 -51.15 Q-20.8 -51.0 -19.7 -49.4 L-23.4 -49.0 -22.85 -46.15 -22.45 -42.5 Q-22.45 -42.05 -23.45 -41.45 -24.45 -40.85 -25.05 -40.9 -24.15 -41.95 -23.65 -44.0 -23.25 -45.65 -23.25 -47.2 L-23.65 -49.0 -26.95 -48.8 Q-30.75 -48.8 -32.95 -50.45 L-34.75 -52.3 -34.6 -49.9 Q-34.6 -49.6 -36.6 -49.05 L-39.25 -48.5 Q-41.25 -48.5 -41.35 -48.9 L-41.25 -48.95 -43.25 -48.8 -46.25 -48.65 -52.1 -49.2 -58.3 -49.9 Q-58.5 -49.6 -58.5 -50.2 L-56.1 -49.95 Q-53.75 -49.45 -53.75 -50.85 L-46.95 -50.1 -40.55 -49.2 -36.6 -50.4 Q-34.9 -51.15 -34.85 -52.4 -34.85 -53.05 -35.3 -53.9 L-34.85 -53.9 M-8.7 -65.85 L-11.55 -65.4 -16.35 -65.95 Q-19.6 -66.5 -20.25 -66.8 L-14.8 -66.8 -7.8 -67.1 -7.6 -66.85 -8.7 -65.85 M-55.3 -93.3 L-55.5 -94.2 -55.5 -94.65 -55.35 -94.8 -55.0 -94.85 -55.05 -93.25 -55.3 -93.3 M-52.2 -96.7 L-51.75 -96.3 Q-52.15 -95.75 -52.1 -94.0 -52.1 -92.3 -53.0 -91.55 L-53.05 -91.65 -52.75 -94.45 -52.55 -97.05 -52.2 -96.7 M-50.2 -95.15 L-50.15 -95.2 -50.05 -95.1 -50.0 -94.7 -50.25 -93.65 Q-50.55 -92.6 -51.25 -92.15 L-50.75 -93.6 -50.2 -95.15 M-70.45 -64.15 L-70.55 -64.35 -66.7 -64.2 -62.7 -63.65 -63.95 -63.4 -65.05 -63.65 -68.2 -63.9 -70.45 -64.15 M-51.45 -67.35 Q-51.3 -67.3 -51.3 -66.9 -51.3 -66.05 -52.5 -65.3 -53.6 -64.55 -54.65 -64.55 L-59.15 -64.85 -60.95 -65.3 Q-60.55 -65.65 -56.75 -66.5 L-51.85 -67.4 -51.45 -67.35 M-51.05 -33.6 Q-48.45 -35.35 -45.9 -33.1 -43.75 -31.25 -43.75 -29.85 -43.75 -28.6 -44.05 -27.8 L-44.55 -27.6 Q-44.95 -28.0 -45.0 -29.0 -45.05 -30.25 -45.25 -30.7 -46.0 -32.85 -51.05 -33.3 L-51.05 -33.6 M-65.95 -44.75 Q-65.95 -44.15 -67.2 -42.9 -68.45 -41.65 -69.25 -41.65 -70.5 -41.65 -70.8 -41.95 L-72.35 -42.4 Q-67.65 -43.0 -67.2 -45.2 -67.45 -47.8 -66.85 -48.9 L-66.45 -48.9 -65.95 -44.75 M-72.55 -20.1 L-67.8 -20.15 -60.05 -19.8 -65.9 -19.65 -72.55 -20.1 M-46.2 -23.2 Q-46.35 -22.55 -46.65 -22.15 -47.75 -20.65 -56.3 -19.85 L-60.05 -19.55 Q-57.15 -21.6 -53.5 -21.9 -49.4 -22.25 -45.8 -24.3 L-45.25 -24.15 -44.55 -23.8 Q-45.9 -23.65 -46.2 -23.2 M-23.1 -23.5 Q-23.85 -22.55 -24.3 -22.35 L-26.55 -22.8 Q-21.4 -25.3 -17.95 -25.55 -14.25 -25.8 -10.5 -23.9 L-20.8 -24.3 Q-22.25 -24.3 -23.1 -23.5 M-9.55 -22.6 Q-10.25 -22.95 -10.2 -23.4 L-10.35 -23.8 -9.05 -23.1 Q-9.05 -22.8 -9.55 -22.6 M-25.9 31.2 L-25.5 31.1 -25.75 31.4 -25.9 31.2 M-13.45 3.75 L-13.8 4.0 -14.95 3.75 -13.45 3.4 -13.45 3.75 M-26.3 34.35 Q-24.25 36.1 -16.05 36.7 L-17.8 36.95 Q-24.45 36.95 -26.0 34.9 L-26.3 34.35 M-52.55 7.55 L-54.8 7.7 -67.25 6.95 Q-64.9 4.4 -59.55 5.3 L-51.05 7.2 -52.55 7.55 M-71.55 47.75 Q-71.55 48.4 -72.45 49.85 -72.3 49.35 -72.4 48.4 -72.45 47.35 -71.75 46.95 L-71.65 46.9 -71.55 47.75 M-40.75 48.45 L-40.55 50.0 -40.75 51.15 -41.35 51.8 -41.1 51.85 Q-40.15 52.05 -40.05 52.2 L-42.6 53.1 -44.3 53.65 -57.8 53.95 -60.15 53.8 -61.55 53.4 -53.7 52.55 -42.85 51.7 -42.0 50.6 Q-41.05 49.5 -41.05 48.45 L-40.75 48.45 M-47.4 73.5 Q-46.6 71.75 -45.0 72.2 -45.85 72.85 -46.45 74.25 L-47.25 76.15 -47.35 76.3 -47.6 76.15 -47.7 76.05 -47.9 75.55 Q-47.9 74.65 -47.4 73.5 M-51.25 72.2 L-51.35 72.05 Q-51.15 71.7 -49.9 71.6 L-47.0 71.3 -41.35 71.4 -48.05 71.85 -51.25 72.2 M-75.3 52.95 Q-83.75 52.95 -85.65 52.0 -86.15 51.15 -87.05 50.85 -86.0 51.15 -83.45 52.2 -74.65 52.2 -72.85 50.5 L-73.0 50.7 Q-74.5 52.95 -75.3 52.95 M-73.0 54.9 Q-73.0 52.05 -60.55 52.7 L-66.85 53.85 Q-71.45 54.85 -72.3 57.2 -73.0 56.35 -73.0 54.9 M-78.6 70.45 Q-73.8 70.1 -73.1 68.05 -72.6 68.2 -72.6 68.9 L-72.6 68.95 -65.8 69.9 -60.6 70.4 Q-61.9 70.35 -63.1 70.95 -64.35 71.55 -67.0 71.55 -69.3 71.55 -71.1 70.8 -72.45 70.25 -72.75 69.7 -73.1 70.4 -74.25 70.7 L-88.6 71.55 -91.4 71.55 -91.4 71.15 -78.6 70.45 M-0.55 52.7 L-0.2 53.65 Q-0.05 54.15 -0.05 54.95 -0.05 56.2 -0.25 56.45 -0.3 56.9 -0.8 57.15 L-1.45 56.15 -1.55 54.75 -1.4 53.45 -1.25 52.7 -0.55 52.7 M-33.5 71.8 L-36.5 71.8 Q-39.0 71.7 -39.0 71.3 L-34.05 70.8 Q-28.75 69.55 -27.1 65.45 L-26.65 65.45 -26.6 66.15 Q-26.6 67.2 -27.35 68.35 L-27.25 68.3 -24.25 70.4 Q-24.65 70.8 -25.5 70.8 L-26.75 69.95 -27.65 68.8 -28.25 69.5 Q-30.35 71.8 -33.5 71.8 M-5.3 80.7 Q-2.95 81.9 -2.05 83.15 L-5.75 80.95 Q-5.3 80.9 -5.3 80.7 M-87.05 0.6 L-87.3 1.4 -87.25 1.85 -87.15 1.0 -87.05 0.6 M-25.25 100.9 Q-24.9 102.3 -24.8 103.85 L-25.75 103.85 -25.75 100.9 -25.25 100.9 M-84.3 72.3 Q-83.4 71.55 -82.25 71.7 L-83.75 73.0 -84.75 73.7 -85.15 73.2 -84.3 72.3" fill="#5b5546" fill-rule="evenodd" stroke="none"/>
    <path d="M-10.9 -23.65 L-10.95 -23.45 -11.15 -23.1 -11.25 -23.75 -10.85 -23.75 -10.9 -23.65 M-2.15 2.05 L-2.25 1.9 2.4 -2.75 5.8 -5.65 -3.9 -5.25 -8.5 -5.25 -7.95 -5.95 6.2 -5.95 7.25 -6.6 7.65 -6.1 7.45 -5.95 7.65 -5.95 7.65 -6.1 7.65 -6.35 8.1 -6.35 8.15 -5.95 9.1 -5.95 8.15 -5.8 8.15 -4.75 Q8.85 -5.2 9.5 -5.5 L9.6 -5.05 9.25 -5.1 8.15 -4.55 8.5 16.6 8.4 17.4 9.0 17.4 9.1 17.5 9.15 17.9 Q9.15 18.55 9.0 18.3 L-7.55 18.3 -8.9 18.15 -8.9 17.4 -8.65 17.9 -8.9 16.7 -8.95 12.2 -8.7 3.05 -8.5 -5.25 Q-7.9 -0.9 -7.9 6.15 L-7.9 12.15 -5.8 10.0 -2.75 7.0 -2.65 6.95 -2.6 7.35 -5.25 10.15 -7.9 12.65 -7.9 14.65 -4.55 11.5 Q0.3 7.25 2.0 7.05 L2.1 7.15 Q-3.05 10.8 -7.9 15.75 L-7.9 17.4 7.7 17.4 7.55 17.25 7.5 16.65 7.65 -4.15 5.45 -2.05 1.5 1.9 1.35 1.9 Q2.65 0.05 4.95 -2.15 L7.65 -4.4 7.65 -5.8 7.25 -5.75 3.05 -2.0 -2.15 2.05 M-12.4 -17.35 Q-10.1 -16.4 -6.9 -15.6 -9.05 -14.95 -10.9 -16.05 L-12.4 -17.35 M-21.65 -16.75 L-21.9 -16.6 -22.0 -16.75 -21.65 -16.75 M-27.55 -6.15 L-26.75 -6.35 -26.25 -6.1 -11.6 -6.0 -11.1 -5.3 -11.55 -5.3 Q-10.75 -2.4 -10.75 13.35 L-10.75 17.4 -10.6 17.4 -10.4 18.3 -21.5 18.3 -27.35 18.15 -27.35 20.3 Q-27.5 20.5 -27.75 20.55 L-28.0 18.1 -28.15 18.1 -28.4 18.25 -28.5 18.05 -28.45 18.05 -28.85 17.9 -28.85 17.65 -28.0 17.65 -28.25 7.9 -28.1 -5.45 -28.5 -5.6 -28.1 -5.8 -28.1 -5.95 -27.85 -5.95 -27.55 -6.15 M-27.35 -4.45 L-27.35 17.1 -23.4 14.0 Q-20.0 11.35 -19.25 10.3 L-19.2 10.25 -19.15 10.7 Q-19.15 11.75 -27.35 17.55 L-27.35 17.6 -21.5 17.4 -11.4 17.4 Q-11.9 15.4 -11.9 12.3 L-11.75 6.55 -11.65 -1.65 -15.25 0.65 Q-15.6 1.05 -15.6 0.4 L-14.35 -0.9 -12.25 -2.25 -11.95 -2.2 -11.65 -2.1 -11.65 -4.85 Q-11.65 -5.25 -11.9 -5.3 L-14.2 -5.3 -19.1 -1.25 Q-22.35 1.35 -24.9 2.9 -22.55 0.2 -14.95 -5.35 L-15.2 -5.35 Q-26.1 -5.45 -26.25 -5.6 L-26.9 -5.75 -27.45 -5.35 -27.35 -4.45 M-11.9 -4.35 Q-13.75 -3.8 -16.35 -1.5 -19.05 0.85 -20.0 1.15 L-16.45 -2.45 Q-13.65 -4.8 -12.0 -4.5 L-11.9 -4.35 M-17.15 6.65 L-20.9 9.75 Q-23.35 11.9 -25.15 12.65 L-18.0 6.4 -17.15 6.65 M-30.25 13.4 Q-30.3 14.65 -30.65 15.65 -31.35 14.6 -31.2 9.85 -31.05 6.2 -34.45 4.8 L-36.25 5.05 -33.75 3.15 -33.05 1.9 -32.4 1.45 -32.5 0.5 -32.5 -1.45 -32.25 -2.75 -32.0 -4.1 -32.3 -6.25 -32.65 -8.3 -32.65 -8.4 -37.0 -8.35 -37.1 -8.7 Q-37.5 -9.1 -37.15 -9.15 L-37.5 -9.5 -37.65 -10.3 Q-37.65 -11.6 -37.25 -12.0 L-36.65 -11.85 -36.7 -11.2 -36.9 -10.35 -36.7 -9.75 -36.25 -9.2 -32.7 -9.25 Q-14.35 -9.1 13.45 -9.1 L13.4 -9.45 Q13.4 -9.85 14.25 -9.95 L18.1 -10.75 17.05 -12.2 16.0 -13.35 Q16.5 -13.3 17.85 -12.15 19.25 -11.0 19.25 -10.55 19.25 -9.75 18.8 -9.4 18.25 -9.0 17.05 -8.75 L17.25 -8.6 Q17.0 -8.35 16.75 -8.25 L13.4 -8.25 13.25 -3.4 Q13.45 -0.45 16.1 0.9 L15.4 -0.1 Q15.4 -0.55 15.9 -0.7 L16.75 -0.7 16.9 0.05 16.25 1.05 16.1 0.9 14.1 1.4 Q14.55 2.75 14.5 4.8 L14.5 7.45 15.65 7.75 20.1 9.65 17.25 10.15 Q15.7 10.15 14.9 9.5 11.45 10.45 11.6 12.6 L12.1 14.8 Q12.35 16.15 11.9 17.05 L11.8 17.2 12.1 18.35 12.5 20.15 12.5 21.15 21.75 21.15 21.85 21.25 21.9 21.65 21.9 22.0 22.0 23.6 Q22.0 24.9 19.6 25.9 17.55 26.75 15.75 26.75 L14.2 26.6 1.35 26.75 0.7 26.75 3.2 27.1 -6.75 26.75 -14.85 27.45 -20.65 27.0 -7.75 26.7 -32.25 26.4 -33.15 26.0 Q-28.45 25.7 -11.5 25.5 6.8 25.5 12.35 25.65 11.6 25.3 10.6 25.25 L12.6 25.05 Q12.95 25.05 13.2 25.3 L13.8 25.55 Q17.9 25.55 19.75 24.5 21.0 23.8 21.0 22.9 21.0 22.55 20.8 22.55 L20.5 22.5 21.15 22.05 -9.25 22.15 -37.5 21.9 -38.05 21.9 -37.5 22.05 Q-37.55 22.45 -37.95 22.9 L-38.35 23.45 Q-38.35 24.35 -37.1 24.75 -35.55 25.25 -35.0 26.05 L-35.0 26.15 -37.25 25.9 Q-37.9 25.9 -38.6 25.0 L-39.25 24.05 Q-39.25 22.55 -38.3 21.85 L-38.75 21.55 -32.9 21.25 -33.1 21.0 -33.15 20.45 Q-33.15 19.2 -32.5 17.85 -31.9 16.55 -31.0 15.65 L-30.4 15.9 -30.8 18.05 Q-30.9 19.7 -31.9 20.4 L-30.4 20.9 -31.45 21.2 -23.25 21.15 11.75 21.15 Q11.0 19.8 11.0 19.05 L10.9 17.95 Q10.9 17.25 11.3 16.95 11.0 16.35 11.0 15.2 11.0 12.3 11.5 10.9 12.3 8.55 14.3 8.45 L14.2 8.15 Q13.5 7.35 13.5 5.15 13.5 2.3 13.9 1.4 12.65 1.35 12.65 -0.05 L12.9 -8.25 -2.15 -8.2 -19.4 -8.35 -31.95 -8.4 -31.25 -6.2 Q-31.1 -5.45 -31.1 -3.85 L-31.6 -1.8 -31.3 -0.7 -31.0 0.55 -31.05 2.1 Q-31.2 2.85 -31.7 3.1 L-32.15 3.65 -33.25 4.4 Q-31.15 4.1 -30.5 6.6 -30.25 7.55 -30.25 11.0 L-30.25 13.4 M-3.4 12.8 Q0.35 9.2 4.5 6.55 L-3.25 12.9 -3.4 12.8 M-9.15 17.2 L-9.15 17.1 -9.3 16.7 -9.0 17.2 -8.95 18.15 -9.0 18.15 -9.15 17.2 M30.9 2.45 L24.75 2.65 19.0 2.15 Q17.9 1.85 17.9 1.55 L18.0 0.9 24.85 1.6 Q26.35 1.95 29.9 1.65 L30.8 1.4 31.65 1.2 33.35 0.95 33.35 1.3 31.85 1.5 31.55 1.55 31.6 1.65 30.9 2.45 M14.25 -13.7 L15.0 -13.6 15.25 -13.1 Q14.9 -12.7 14.25 -12.6 L-35.5 -12.6 -35.65 -13.2 Q-28.65 -13.6 10.5 -13.7 L14.25 -13.7 M24.35 2.7 L22.35 3.05 22.25 2.9 24.35 2.7 M21.75 9.5 Q22.45 8.55 22.75 8.55 L23.15 9.3 Q23.05 9.8 22.25 9.8 L21.75 9.5 M-37.9 1.8 L-37.75 1.75 -37.65 2.15 -38.4 3.3 -39.0 4.0 Q-37.9 4.3 -36.95 4.85 L-37.0 4.55 Q-37.0 3.5 -36.55 3.05 L-35.0 1.0 -34.75 0.95 Q-34.5 0.95 -34.5 1.3 -34.5 2.05 -35.2 2.85 L-36.75 4.8 -36.85 4.95 -36.65 5.05 -37.25 5.05 Q-40.45 5.05 -41.55 4.45 -42.25 3.75 -42.9 3.55 L-40.75 3.75 -39.75 3.85 -39.1 2.9 -37.9 1.8 M-43.5 3.65 Q-44.6 3.05 -44.95 3.05 L-46.5 3.75 -46.75 3.65 Q-45.8 2.65 -45.05 2.6 -44.25 2.55 -43.5 3.55 L-43.5 3.65 M-43.9 20.05 Q-45.7 20.05 -48.15 18.85 L-48.15 18.15 -46.3 18.6 -41.0 19.65 -42.25 19.9 -43.9 20.05 M-35.65 17.9 L-36.15 18.6 -36.75 19.4 -37.1 19.25 -37.15 18.95 -36.8 18.2 Q-36.35 17.65 -35.9 17.55 L-35.75 17.5 -35.65 17.9 M-34.65 18.9 L-33.5 17.3 -32.75 17.55 -34.25 19.15 -34.65 18.9 M-37.9 19.15 L-39.65 19.4 -41.15 19.15 -39.7 18.95 -37.9 19.15 M15.85 28.25 Q22.55 27.4 25.75 28.45 L26.7 28.85 24.3 29.0 23.7 29.1 15.85 28.25" fill="#5b5546" fill-rule="evenodd" stroke="none"/>
    <path d="M86.15 89.0 L86.15 88.75 Q88.8 88.8 89.2 90.75 89.45 91.9 89.15 94.65 L89.2 99.05 Q89.0 101.65 88.0 102.65 87.45 102.15 87.3 100.9 L87.25 99.15 Q87.25 96.7 87.6 95.05 L87.9 91.9 87.6 90.85 66.1 91.1 60.85 91.15 60.6 92.2 61.2 96.3 61.75 99.8 Q61.75 102.6 60.35 103.4 L60.4 102.65 59.85 98.9 Q59.25 96.3 59.25 95.25 59.1 93.55 59.25 92.3 59.4 90.8 60.0 90.2 60.05 89.75 60.25 89.65 L62.15 89.4 71.0 89.35 84.85 89.35 86.75 89.5 86.15 89.0" fill="#5b5546" fill-rule="evenodd" stroke="none"/>
  </g>
</svg>
