<?xml version="1.0" encoding="UTF-8" standalone="no"?>
<svg xmlns:xlink="http://www.w3.org/1999/xlink" height="156.85px" width="23.0px" xmlns="http://www.w3.org/2000/svg">
  <g transform="matrix(1.0, 0.0, 0.0, 1.0, 11.5, 126.65)">
    <path d="M7.65 -66.65 Q6.8 -63.85 6.75 -62.65 6.65 -61.35 7.45 -58.8 L8.25 -55.55 Q8.25 -52.55 7.95 -51.9 7.1 -50.1 3.25 -48.7 L3.25 -47.95 8.5 -47.65 8.9 -47.25 Q9.25 -46.95 9.25 -46.05 9.25 -45.65 7.25 -44.25 5.25 -42.8 5.25 -42.2 5.25 -41.75 7.25 -39.9 L9.25 -37.9 Q9.25 -37.0 6.75 -33.75 4.25 -30.55 4.25 -29.7 L7.9 -24.3 11.5 -18.7 Q11.5 -16.35 8.5 -13.7 5.5 -11.0 5.5 -9.2 L5.75 -1.9 Q5.75 -1.5 7.15 0.35 8.5 2.2 8.5 3.1 8.5 3.8 7.0 5.15 5.5 6.5 5.5 7.2 5.5 7.95 6.4 9.7 7.25 11.4 7.25 12.15 7.25 12.85 9.4 15.15 11.5 17.45 11.5 17.85 11.5 19.35 6.2 24.45 0.2 30.2 -4.0 30.2 -4.5 30.2 -8.05 27.85 L-11.5 25.25 Q-11.5 24.9 -8.5 20.75 -5.5 16.65 -5.5 15.5 -5.5 14.75 -4.35 12.55 -3.25 10.35 -3.25 9.6 -3.25 8.85 -4.35 7.9 -5.5 6.95 -5.5 6.2 -5.5 5.4 -4.5 4.7 -3.5 4.0 -3.5 3.25 -3.5 2.9 -5.5 0.1 -7.5 -2.65 -7.5 -4.05 -7.5 -4.8 -6.5 -5.6 -5.5 -6.45 -5.5 -7.2 -5.5 -7.95 -6.5 -9.0 -7.5 -10.1 -7.5 -10.85 -7.5 -11.6 -6.35 -13.35 -5.25 -15.1 -5.25 -15.85 L-6.85 -16.7 Q-8.5 -17.65 -8.5 -18.1 L-7.35 -21.25 Q-6.25 -23.95 -6.25 -25.6 -6.25 -26.4 -5.25 -29.8 -4.25 -33.25 -4.25 -34.0 -4.25 -36.65 -5.75 -38.8 -7.25 -40.95 -7.25 -43.1 L-6.25 -46.25 -5.25 -49.45 Q-5.25 -50.2 -6.25 -51.95 -7.25 -53.7 -7.25 -54.45 L-4.75 -60.85 Q-2.25 -67.3 -2.25 -68.3 L-4.0 -71.4 Q-5.75 -74.6 -5.75 -75.65 L-4.75 -82.0 -3.75 -88.35 -4.0 -92.3 -4.25 -97.45 Q-9.15 -98.2 -10.2 -102.35 -10.7 -104.4 -10.25 -106.4 -10.25 -110.85 -7.35 -116.15 -4.5 -121.3 -1.0 -123.35 2.9 -125.6 5.35 -122.3 8.25 -118.3 8.25 -107.15 L8.5 -70.1 7.65 -66.65" fill="#5b5546" fill-opacity="0.3019608" fill-rule="evenodd" stroke="none"/>
    <path d="M5.55 -115.65 Q5.55 -114.5 4.55 -113.95 3.05 -113.1 -1.0 -113.1 -3.6 -113.1 -5.6 -114.55 -6.6 -115.25 -7.1 -116.0 -7.1 -116.7 -4.95 -117.05 L0.3 -118.1 -0.15 -118.5 Q-0.6 -118.8 -0.6 -119.25 -0.6 -120.5 0.45 -120.9 L2.5 -120.85 Q5.45 -119.55 3.0 -116.7 5.55 -116.7 5.55 -115.65" fill="#5b5546" fill-opacity="0.3019608" fill-rule="evenodd" stroke="none"/>
    <path d="M8.9 -100.0 L3.25 -99.1 3.95 -98.2 4.3 -97.2 Q4.3 -96.65 3.55 -95.95 2.75 -95.2 2.0 -95.2 0.0 -95.2 -2.1 -96.3 -3.85 -97.25 -3.85 -97.65 L-3.4 -98.2 -1.85 -98.95 -2.45 -99.35 Q-3.1 -99.65 -3.1 -100.1 -3.1 -101.65 3.35 -101.7 9.8 -101.8 9.8 -100.4 9.8 -100.1 8.9 -100.0" fill="#5b5546" fill-opacity="0.3019608" fill-rule="evenodd" stroke="none"/>
    <path d="M3.8 -79.85 Q1.55 -79.2 1.55 -78.3 1.55 -76.65 5.3 -74.4 9.05 -72.15 9.05 -71.25 9.05 -69.2 3.25 -69.2 -1.0 -69.2 -2.65 -70.25 L-3.75 -71.45 0.3 -71.7 4.75 -71.55 Q1.75 -74.0 -1.75 -74.85 -3.75 -75.35 -3.75 -77.05 -3.75 -78.05 -2.75 -78.9 -1.75 -79.75 -1.75 -80.7 -1.75 -81.75 2.15 -82.05 6.05 -82.35 6.05 -81.15 6.05 -80.5 3.8 -79.85" fill="#5b5546" fill-opacity="0.3019608" fill-rule="evenodd" stroke="none"/>
    <path d="M3.3 -56.25 L0.0 -56.05 Q-3.3 -56.05 -4.95 -57.2 -6.0 -58.0 -6.0 -58.85 L-0.25 -58.5 Q4.25 -57.95 4.25 -57.2 4.25 -56.5 3.3 -56.25" fill="#5b5546" fill-opacity="0.3019608" fill-rule="evenodd" stroke="none"/>
    <path d="M6.45 -42.45 Q5.75 -41.95 4.5 -41.9 5.25 -41.45 4.9 -40.4 4.45 -39.3 3.0 -39.3 -0.5 -39.3 -3.0 -41.2 -4.85 -42.65 -4.85 -43.5 -4.85 -44.45 1.1 -44.75 7.0 -45.1 7.0 -43.5 7.0 -42.9 6.45 -42.45" fill="#5b5546" fill-opacity="0.3019608" fill-rule="evenodd" stroke="none"/>
    <path d="M3.8 -20.7 L4.8 -20.1 5.05 -19.25 Q5.05 -18.55 3.45 -17.8 1.6 -16.85 -1.0 -16.85 -5.6 -17.1 -6.6 -17.8 -6.75 -17.45 -6.75 -18.2 -6.75 -18.7 -5.85 -18.8 L-2.6 -19.15 -1.85 -19.45 -6.55 -19.95 Q-7.1 -20.15 -7.1 -20.6 -7.1 -21.95 -0.5 -22.7 6.05 -23.55 6.05 -22.0 6.05 -20.6 3.8 -20.7" fill="#5b5546" fill-opacity="0.3019608" fill-rule="evenodd" stroke="none"/>
    <path d="M4.25 -25.65 Q3.3 -24.6 0.5 -24.6 -1.95 -24.6 -2.6 -25.15 L-2.75 -25.75 Q-2.75 -26.7 0.3 -26.9 L-1.25 -27.15 Q-2.45 -27.4 -3.0 -27.8 -1.65 -30.85 1.6 -30.0 4.75 -29.2 4.75 -27.2 4.75 -26.2 4.25 -25.65" fill="#5b5546" fill-opacity="0.3019608" fill-rule="evenodd" stroke="none"/>
    <path d="M2.0 -2.95 Q-1.9 -2.95 -2.15 -4.6 -1.6 -6.45 -1.6 -6.9 L-7.0 -6.7 -7.85 -7.3 -8.1 -7.9 Q-8.1 -8.4 -7.15 -8.5 L-2.5 -8.7 Q-3.7 -12.25 -0.2 -8.65 3.55 -4.8 3.55 -4.25 3.55 -2.95 2.0 -2.95" fill="#5b5546" fill-opacity="0.3019608" fill-rule="evenodd" stroke="none"/>
    <path d="M7.25 15.7 Q7.25 16.35 6.05 16.85 4.1 17.6 -0.25 17.5 L-0.35 17.95 -0.35 19.65 0.5 19.6 Q2.95 19.6 3.75 20.6 4.15 21.1 4.05 21.6 L3.75 23.0 Q3.05 23.85 0.8 23.4 L0.9 23.6 1.0 24.2 Q1.0 25.55 -1.0 25.55 -3.1 25.55 -3.65 21.0 L-3.75 16.3 Q-3.75 15.85 -3.2 15.1 -2.45 14.0 -1.25 13.7 L-1.9 13.3 Q-2.25 13.0 -2.25 12.55 -2.25 10.2 0.0 10.65 2.25 11.15 2.25 14.3 7.25 14.1 7.25 15.7" fill="#5b5546" fill-opacity="0.3019608" fill-rule="evenodd" stroke="none"/>
    <path d="M4.8 -102.1 Q3.55 -101.55 2.5 -101.55 2.35 -101.55 0.5 -104.65 L-1.35 -107.8 -1.3 -108.25 -1.1 -108.4 Q2.35 -108.35 4.35 -106.65 6.05 -105.2 6.05 -103.25 6.05 -102.7 4.8 -102.1" fill="#5b5546" fill-opacity="0.3019608" fill-rule="evenodd" stroke="none"/>
    <path d="M1.75 -118.0 Q1.75 -117.4 1.0 -116.9 0.4 -116.5 0.0 -116.5 -1.35 -116.5 -3.0 -121.6 -4.35 -121.0 -5.15 -119.45 -5.95 -117.95 -7.0 -117.6 -8.3 -118.85 -8.3 -119.95 L-8.0 -121.1 Q-8.0 -121.85 -8.8 -122.0 L-9.75 -122.25 Q-3.3 -126.05 -0.85 -126.55 2.55 -127.15 2.55 -123.05 L1.75 -118.0" fill="#669900" fill-opacity="0.3019608" fill-rule="evenodd" stroke="none"/>
    <path d="M5.5 -109.5 Q3.4 -105.85 1.85 -104.75 1.3 -104.35 1.3 -102.55 1.3 -101.6 0.7 -101.35 L-2.0 -101.1 Q-5.55 -101.1 -6.85 -102.15 -7.5 -102.65 -7.5 -103.35 -7.5 -104.45 -6.6 -104.75 -5.0 -105.15 -3.5 -105.75 L-3.7 -106.15 -3.75 -107.25 Q-3.75 -108.8 -2.8 -109.0 0.25 -109.4 4.5 -110.5 L5.5 -109.5" fill="#669900" fill-opacity="0.3019608" fill-rule="evenodd" stroke="none"/>
    <path d="M1.5 -75.0 L1.3 -74.6 -0.65 -74.65 -3.0 -74.75 Q-4.35 -74.75 -5.1 -74.0 L-5.5 -73.85 Q-3.85 -72.25 -3.85 -67.6 -3.85 -66.3 -4.8 -66.2 -6.55 -66.15 -7.85 -65.0 -8.25 -67.95 -8.25 -70.6 -8.25 -74.35 -3.35 -76.65 -1.4 -77.55 0.0 -77.4 1.5 -77.2 1.5 -75.75 L1.5 -75.0" fill="#669900" fill-opacity="0.3019608" fill-rule="evenodd" stroke="none"/>
    <path d="M4.1 -79.2 Q4.3 -79.15 4.3 -78.35 4.3 -77.8 2.75 -76.1 1.05 -74.25 0.0 -74.25 -0.9 -74.25 -1.05 -74.65 L-1.2 -75.4 Q-1.65 -76.45 -6.6 -76.0 L-6.8 -76.1 Q-7.0 -76.25 -7.0 -77.0 L-5.7 -76.9 Q-3.35 -76.25 0.5 -77.6 1.45 -77.9 2.35 -78.55 L3.5 -79.35 4.1 -79.2" fill="#669900" fill-opacity="0.3019608" fill-rule="evenodd" stroke="none"/>
    <path d="M8.3 -35.0 Q8.3 -33.55 5.5 -33.35 L5.75 -33.05 5.8 -32.05 Q5.8 -31.05 4.75 -30.0 3.9 -29.1 3.5 -29.1 2.55 -29.1 0.05 -33.1 L-1.8 -32.6 -5.1 -32.5 -5.3 -32.6 Q-5.5 -32.75 -5.5 -33.5 -5.5 -34.55 -4.45 -34.9 -2.45 -35.55 -1.75 -36.0 L-2.7 -36.85 Q-3.0 -37.25 -3.0 -38.05 L-3.0 -38.85 -2.85 -39.25 -2.35 -39.25 Q-1.05 -36.85 3.9 -36.6 8.3 -36.4 8.3 -35.0" fill="#669900" fill-opacity="0.3019608" fill-rule="evenodd" stroke="none"/>
    <path d="M4.85 -33.25 L5.75 -32.1 Q4.6 -31.0 2.8 -30.85 L3.8 -29.0 3.3 -28.2 Q2.95 -27.6 2.5 -27.6 0.45 -27.6 0.0 -29.9 -0.2 -31.05 0.0 -32.5 0.0 -35.65 1.0 -36.5 2.0 -35.7 2.0 -34.0 3.95 -33.95 4.85 -33.25" fill="#669900" fill-opacity="0.3019608" fill-rule="evenodd" stroke="none"/>
    <path d="M6.15 -0.05 Q5.3 0.45 3.0 0.55 L4.2 2.3 Q4.75 3.15 4.75 4.0 4.75 6.25 1.0 6.25 -0.25 6.25 -0.25 4.25 -2.55 4.25 -3.1 3.55 -3.25 4.1 -3.25 2.85 L-2.15 0.95 Q-1.1 -0.8 -1.1 -1.55 -1.1 -2.65 2.85 -2.9 6.8 -3.2 6.8 -1.1 6.8 -0.4 6.15 -0.05" fill="#669900" fill-opacity="0.3019608" fill-rule="evenodd" stroke="none"/>
    <path d="M0.4 6.45 Q-0.2 7.15 -3.0 7.55 L-5.75 7.55 -5.9 7.35 -6.1 6.35 Q-6.1 5.5 -2.9 4.15 0.55 2.7 2.75 3.55 1.2 5.1 0.4 6.45" fill="#669900" fill-opacity="0.3019608" fill-rule="evenodd" stroke="none"/>
    <path d="M3.5 -124.35 L2.05 -123.2 1.85 -123.3 1.8 -123.8 Q1.8 -126.0 3.95 -125.95 6.0 -125.85 7.05 -124.05 L6.9 -123.8 5.95 -124.7 Q5.55 -125.15 4.65 -125.15 4.5 -125.15 3.5 -124.35 M7.3 -123.55 Q7.8 -118.3 7.8 -113.2 L7.7 -112.25 6.05 -111.05 4.85 -111.05 4.7 -110.8 7.95 -110.1 Q8.3 -109.9 8.3 -109.0 L8.15 -107.75 7.4 -107.05 7.55 -104.35 Q7.55 -101.95 3.8 -101.95 L2.1 -102.15 1.8 -102.35 0.6 -102.3 Q-0.85 -102.3 -1.7 -103.1 -1.9 -102.55 -3.15 -101.9 -4.8 -101.05 -6.45 -101.05 L-6.6 -101.05 -6.85 -100.15 -7.1 -99.2 -6.95 -97.85 Q-6.6 -97.05 -5.45 -97.05 L-3.6 -97.05 Q-2.5 -97.7 -1.85 -97.45 L-1.7 -97.4 -1.2 -97.7 Q-0.1 -97.7 0.15 -97.3 L-0.65 -97.15 0.9 -96.9 0.7 -98.05 1.15 -98.05 Q1.25 -97.95 1.3 -98.0 L1.3 -97.6 1.15 -96.9 2.55 -96.8 2.5 -98.15 Q2.55 -99.0 3.3 -99.55 L3.9 -99.3 Q3.4 -99.05 3.15 -98.1 L2.9 -96.8 3.05 -96.8 Q7.55 -96.8 7.55 -100.05 L7.3 -100.5 Q7.05 -100.6 7.05 -100.9 7.05 -101.95 7.65 -102.15 L8.45 -100.15 8.55 -98.55 Q8.55 -97.6 6.55 -96.55 4.45 -95.45 1.9 -95.4 L2.4 -95.05 2.55 -93.8 Q2.55 -92.7 2.05 -91.55 L1.95 -91.3 Q2.9 -90.6 5.95 -90.75 L6.25 -93.25 6.55 -96.05 6.55 -96.3 Q7.9 -95.9 7.55 -93.45 L7.45 -91.5 Q7.3 -90.75 6.8 -90.3 L6.6 -89.95 5.15 -89.8 Q2.65 -89.8 1.75 -90.8 L1.7 -90.9 Q1.1 -89.95 0.05 -89.95 L-1.45 -90.05 -2.1 -90.3 0.15 -92.35 Q1.45 -93.4 1.45 -93.75 L0.85 -94.7 0.25 -95.45 -1.4 -95.75 -3.3 -96.15 -3.95 -96.15 Q-5.9 -96.15 -6.85 -96.7 -7.45 -95.2 -7.45 -93.9 -7.45 -92.7 -6.85 -91.75 -6.0 -90.35 -4.1 -90.3 L-3.35 -90.05 -3.95 -89.85 -4.95 -89.7 Q-6.7 -89.7 -7.55 -91.8 -8.05 -93.05 -8.05 -94.05 L-7.95 -95.7 Q-7.7 -96.7 -6.95 -96.8 L-7.7 -97.55 -7.85 -99.2 -7.8 -100.5 -7.3 -101.25 -7.65 -101.6 -7.95 -102.25 -7.85 -102.75 Q-8.55 -103.5 -8.55 -105.55 -8.55 -107.4 -8.2 -108.3 L-7.6 -108.05 Q-8.0 -107.15 -8.0 -105.6 L-7.7 -103.25 -7.35 -104.3 -7.2 -104.4 -6.95 -103.2 Q-6.6 -102.65 -5.6 -102.65 -3.05 -102.65 -2.4 -104.35 L-2.6 -104.8 Q-2.6 -107.95 -1.45 -108.3 L-0.85 -108.05 -1.35 -107.35 -1.3 -106.55 -1.55 -104.35 -1.45 -104.2 Q-0.65 -103.05 1.25 -102.95 2.95 -103.75 5.85 -104.55 7.65 -105.35 7.35 -107.0 L6.4 -106.55 7.2 -108.85 Q7.2 -109.7 4.45 -109.85 L3.4 -109.2 Q2.2 -108.55 1.4 -108.55 L-0.65 -108.6 Q-1.0 -108.4 -1.35 -108.3 L-1.0 -108.6 -4.3 -108.65 Q-4.45 -108.4 -4.45 -109.05 L-3.2 -109.15 -0.2 -109.5 0.2 -110.0 Q1.3 -111.1 2.05 -110.8 L0.85 -109.75 2.45 -110.2 3.15 -110.5 Q2.55 -110.95 2.15 -112.2 1.7 -113.55 1.7 -114.3 L1.45 -114.9 1.2 -115.35 0.65 -115.8 1.25 -117.85 Q-0.2 -115.8 -1.1 -115.8 L-5.2 -116.0 -6.1 -115.8 Q-6.45 -115.8 -6.7 -116.05 -8.85 -115.25 -8.85 -111.9 -8.85 -111.1 -8.45 -110.8 L-4.95 -108.8 -5.95 -108.5 -7.35 -108.3 Q-9.05 -108.3 -9.55 -109.05 L-9.7 -109.9 Q-9.7 -112.6 -9.3 -113.85 -8.7 -115.9 -7.0 -116.4 L-7.45 -117.55 -7.6 -119.4 Q-7.6 -122.1 -7.25 -123.4 -6.35 -126.7 -3.7 -125.05 -4.4 -124.05 -4.95 -124.65 -5.5 -125.3 -6.35 -124.3 L-6.95 -123.55 -6.95 -121.8 -6.8 -119.05 Q-6.55 -117.7 -5.75 -117.3 L-5.2 -117.15 -4.95 -117.15 -4.75 -116.8 0.05 -116.8 -0.05 -118.15 0.1 -119.55 Q0.4 -120.15 1.4 -120.1 L1.4 -123.5 1.75 -122.6 2.2 -120.0 2.3 -119.55 2.25 -119.45 2.3 -116.75 2.25 -116.2 Q3.2 -114.2 4.1 -112.95 L4.85 -111.9 5.1 -111.95 Q6.65 -112.2 6.8 -113.15 L6.8 -117.65 6.75 -120.85 Q6.75 -122.95 7.3 -123.55 M0.2 -111.65 L-0.35 -111.1 -1.45 -110.15 -2.35 -110.3 -2.0 -110.4 Q-1.7 -110.5 -1.7 -110.9 L0.05 -112.4 0.2 -111.65 M4.05 -105.4 L4.05 -104.3 3.9 -104.3 3.9 -105.4 4.05 -105.4 M8.5 -87.55 Q8.55 -86.4 8.2 -85.2 8.2 -84.7 7.7 -84.1 7.15 -83.4 6.2 -83.2 L6.2 -83.05 6.2 -82.95 7.65 -83.05 8.05 -78.05 Q8.05 -77.65 6.95 -77.15 L7.3 -76.15 Q7.65 -74.85 7.65 -72.15 L7.5 -70.3 7.05 -69.15 Q8.75 -68.65 9.35 -66.6 9.75 -65.35 9.75 -62.65 L9.6 -61.8 Q9.1 -61.05 7.4 -61.05 L6.0 -61.25 5.0 -61.55 Q8.05 -63.15 8.5 -63.55 8.9 -63.85 8.9 -64.65 8.9 -68.0 6.75 -68.8 L6.15 -68.55 5.25 -68.75 1.15 -68.55 Q0.25 -68.55 -1.2 -70.6 L-0.6 -68.55 -1.15 -68.1 -1.4 -67.65 -1.65 -67.05 Q-1.65 -66.3 -2.1 -64.95 -2.5 -63.7 -3.1 -63.25 L-2.4 -62.95 -0.8 -62.5 -2.0 -63.55 Q-1.25 -63.85 -0.15 -62.75 L0.25 -62.25 3.25 -61.9 4.5 -61.8 Q4.5 -61.15 4.35 -61.4 L1.05 -61.35 1.4 -61.05 0.7 -61.35 -1.35 -61.3 Q-2.15 -61.3 -3.35 -61.95 L-4.4 -62.6 Q-7.15 -62.45 -7.15 -61.6 L-6.35 -59.3 -7.3 -59.75 Q-7.6 -58.1 -5.8 -57.3 -2.9 -56.5 -1.2 -55.7 0.7 -55.8 1.5 -56.95 L1.6 -57.1 1.35 -59.3 1.4 -59.8 1.4 -60.1 0.9 -60.8 1.5 -61.05 Q2.15 -60.85 2.45 -59.8 L2.65 -57.55 2.45 -57.1 Q3.1 -55.4 5.65 -55.4 6.65 -55.4 7.0 -55.95 L7.25 -57.15 7.4 -57.05 7.75 -56.0 8.05 -58.35 7.95 -59.8 7.65 -60.8 8.25 -61.05 8.55 -59.8 8.6 -58.3 Q8.6 -56.25 7.9 -55.5 L8.0 -55.0 7.7 -54.35 7.35 -54.0 7.85 -53.25 7.9 -51.95 7.75 -50.3 7.0 -49.55 Q7.75 -49.45 8.0 -48.45 L8.1 -46.8 Q8.1 -45.8 7.6 -44.55 6.75 -42.45 5.0 -42.45 L4.0 -42.6 3.4 -42.8 4.15 -43.05 Q6.05 -43.1 6.9 -44.5 7.5 -45.45 7.5 -46.65 7.5 -47.95 6.9 -49.45 5.95 -48.9 4.0 -48.9 L3.35 -48.9 1.45 -48.5 -0.2 -48.2 -0.8 -47.45 -1.4 -46.5 Q-1.4 -46.15 -0.1 -45.1 L2.15 -43.05 Q1.5 -42.9 1.5 -42.8 L0.0 -42.7 Q-1.05 -42.7 -1.65 -43.65 L-1.7 -43.55 Q-2.6 -42.55 -5.1 -42.55 L-6.55 -42.7 -6.75 -43.05 Q-7.25 -43.5 -7.4 -44.25 L-7.5 -46.2 Q-7.85 -48.65 -6.5 -49.05 L-6.5 -48.8 -6.2 -46.0 -5.9 -43.5 Q-2.85 -43.35 -1.9 -44.05 L-2.0 -44.3 Q-2.5 -45.45 -2.5 -46.55 L-2.35 -47.8 -1.85 -48.15 Q-4.4 -48.2 -6.5 -49.3 -8.5 -50.35 -8.5 -51.3 L-8.4 -52.9 -7.6 -54.9 Q-7.0 -54.7 -7.0 -53.65 L-7.25 -53.25 -7.5 -52.8 Q-7.5 -49.55 -3.0 -49.55 L-2.85 -49.55 -3.1 -50.85 Q-3.35 -51.8 -3.85 -52.05 L-3.25 -52.3 Q-2.5 -51.75 -2.45 -50.9 L-2.5 -49.55 -1.1 -49.65 -1.25 -50.35 -1.25 -50.75 -1.1 -50.8 -0.65 -50.8 -0.85 -49.65 0.7 -49.9 -0.1 -50.05 Q0.15 -50.45 1.25 -50.45 L1.75 -50.15 1.9 -50.2 Q2.55 -50.45 3.65 -49.8 L5.5 -49.8 Q6.65 -49.8 7.0 -50.6 L7.15 -51.95 6.9 -52.9 6.65 -53.8 6.5 -53.8 Q4.85 -53.8 3.2 -54.65 1.95 -55.3 1.75 -55.85 0.9 -55.05 -0.55 -55.05 L-1.75 -55.1 -2.05 -54.9 -3.75 -54.7 Q-7.5 -54.7 -7.5 -57.1 L-7.35 -59.8 -8.1 -60.5 -8.25 -61.75 Q-8.25 -62.65 -7.9 -62.85 L-4.65 -63.55 -4.8 -63.8 -6.0 -63.8 -7.65 -65.0 -7.75 -65.95 Q-7.75 -71.05 -7.25 -76.3 -6.7 -75.7 -6.7 -73.6 L-6.75 -70.4 -6.75 -65.9 Q-6.6 -64.95 -5.05 -64.7 L-4.8 -64.65 -4.05 -65.7 Q-3.15 -66.95 -2.2 -68.95 L-2.25 -69.5 -2.2 -72.2 -2.25 -72.3 -2.15 -72.75 -1.7 -75.35 -1.35 -76.25 -1.35 -72.85 Q-0.35 -72.9 -0.05 -72.3 L0.1 -70.9 0.0 -69.55 4.8 -69.55 5.0 -69.9 5.25 -69.9 5.8 -70.05 Q6.6 -70.45 6.85 -71.8 L7.0 -74.55 7.0 -76.3 6.45 -76.95 3.9 -76.55 2.55 -76.7 1.55 -76.95 1.6 -77.05 -1.25 -76.45 -0.55 -77.4 0.3 -78.3 0.45 -78.2 0.5 -78.2 0.05 -78.6 -0.7 -79.65 Q-0.7 -81.2 -0.1 -82.2 L-0.85 -82.15 -4.25 -82.25 Q-4.45 -81.55 -5.2 -81.55 L-6.1 -81.7 -7.35 -80.35 -8.2 -79.2 Q-8.2 -78.7 -6.95 -78.4 L-5.8 -78.1 Q-5.0 -78.65 -3.9 -78.7 -1.75 -78.75 -1.75 -76.55 L-1.8 -76.05 -2.0 -75.95 -2.8 -76.6 Q-3.75 -76.05 -5.2 -76.05 -7.35 -76.05 -8.55 -77.2 -9.35 -77.95 -9.35 -78.5 L-9.05 -80.85 Q-8.5 -82.05 -6.8 -82.15 -7.4 -82.7 -7.75 -83.7 L-8.2 -85.95 -7.75 -88.15 Q-7.25 -89.75 -6.85 -89.8 -6.55 -89.5 -6.55 -88.9 -6.55 -88.4 -6.9 -87.5 -7.3 -86.6 -7.3 -85.9 -7.3 -84.85 -6.55 -83.9 -5.9 -83.05 -4.95 -82.85 -4.95 -83.2 -5.15 -83.15 L-5.45 -83.15 -3.85 -82.95 0.95 -83.3 1.05 -83.4 1.05 -83.35 1.6 -83.6 Q2.0 -83.9 4.4 -83.6 L4.3 -83.7 Q6.05 -85.9 6.45 -87.0 6.8 -88.0 6.55 -89.55 8.45 -89.75 8.5 -87.55 M5.7 -82.7 L2.05 -82.55 0.65 -82.3 0.55 -81.55 0.3 -81.3 Q0.05 -81.35 0.05 -81.05 0.05 -80.05 0.4 -79.7 L2.1 -78.65 2.7 -78.65 2.7 -78.9 3.35 -79.3 4.3 -79.55 4.7 -79.05 4.05 -78.5 4.5 -78.4 2.95 -77.55 3.9 -77.6 3.75 -77.8 Q5.15 -78.65 6.05 -78.15 6.85 -78.55 7.15 -79.15 L7.2 -81.25 7.1 -82.1 Q6.9 -82.5 6.05 -82.8 L5.7 -82.7 M3.05 -84.55 L2.9 -84.55 Q2.85 -85.2 3.55 -85.65 L3.05 -84.55 M1.15 -85.0 L0.95 -84.8 0.65 -84.8 Q1.55 -85.7 1.3 -85.05 L1.15 -85.0 M1.75 -45.9 L1.9 -45.9 Q1.7 -45.4 2.25 -44.7 L2.9 -43.8 Q1.65 -43.95 1.6 -45.15 L1.75 -45.9 M2.45 -45.7 L2.5 -45.65 3.35 -44.95 Q4.0 -44.45 3.65 -43.8 L3.5 -43.8 2.7 -44.75 2.4 -45.25 2.45 -45.7 M2.05 -63.15 L2.4 -63.05 1.5 -62.9 0.4 -63.85 -0.15 -64.4 0.0 -65.15 1.75 -63.65 Q1.75 -63.25 2.05 -63.15 M1.15 -73.3 L2.1 -72.15 2.6 -70.9 Q2.6 -70.25 2.4 -70.05 1.55 -70.7 1.3 -71.5 1.15 -72.0 1.15 -73.3 M3.4 -72.45 L3.15 -72.55 Q3.05 -73.25 3.25 -73.45 L3.5 -73.4 3.4 -72.45 M6.95 -40.25 Q6.6 -41.15 6.6 -41.65 6.6 -42.25 6.9 -42.55 7.3 -42.5 7.8 -40.9 L8.25 -38.7 7.8 -36.45 6.85 -34.9 Q8.55 -34.8 9.1 -33.6 L9.4 -31.25 Q9.4 -30.7 8.6 -29.95 L7.05 -29.05 6.9 -28.8 6.7 -28.95 5.25 -28.8 3.25 -29.15 2.05 -28.2 1.85 -28.3 1.8 -28.8 Q1.8 -31.0 3.95 -30.95 L5.2 -30.7 7.0 -31.15 Q8.25 -31.45 8.25 -31.95 L7.4 -33.1 6.15 -34.45 5.25 -34.3 Q4.5 -34.3 4.3 -35.0 L0.9 -34.9 0.15 -34.95 Q0.75 -33.95 0.75 -32.4 0.75 -32.05 0.0 -31.35 -0.5 -30.9 -0.95 -30.7 L-0.65 -30.55 -0.25 -31.05 0.75 -29.95 0.5 -29.75 1.3 -28.7 -2.2 -29.5 -2.5 -29.45 -3.85 -29.3 -6.05 -29.6 -6.35 -29.3 -6.95 -28.55 -6.95 -26.8 -6.8 -24.05 Q-6.55 -22.7 -5.75 -22.3 L-5.2 -22.15 -4.95 -22.15 -4.75 -21.8 0.05 -21.8 -0.05 -23.15 0.1 -24.55 Q0.4 -25.15 1.4 -25.1 L1.4 -28.5 1.75 -27.6 2.2 -25.0 2.3 -24.55 2.25 -24.45 2.3 -21.75 2.25 -21.2 Q3.2 -19.2 4.1 -17.95 L4.85 -16.9 5.1 -16.95 Q6.65 -17.2 6.8 -18.15 L6.8 -22.65 6.75 -25.85 Q6.75 -27.95 7.3 -28.55 7.8 -23.3 7.8 -18.2 L7.7 -17.25 6.05 -16.05 4.85 -16.05 4.7 -15.8 7.95 -15.1 Q8.3 -14.9 8.3 -14.0 L8.15 -12.75 7.4 -12.05 7.55 -9.35 Q7.55 -6.95 3.8 -6.95 L2.1 -7.15 1.8 -7.35 0.6 -7.3 Q-0.85 -7.3 -1.7 -8.1 -1.9 -7.55 -3.15 -6.9 -4.8 -6.05 -6.45 -6.05 L-6.6 -6.05 -6.85 -5.15 -7.1 -4.2 -6.95 -2.85 Q-6.6 -2.05 -5.45 -2.05 L-3.6 -2.05 Q-2.5 -2.7 -1.85 -2.45 L-1.7 -2.4 -1.2 -2.7 Q-0.1 -2.7 0.15 -2.3 L-0.65 -2.15 0.9 -1.9 0.7 -3.05 1.15 -3.05 Q1.25 -2.95 1.3 -3.0 L1.3 -2.6 1.15 -1.9 2.55 -1.8 2.5 -3.15 Q2.55 -4.0 3.3 -4.55 L3.9 -4.3 Q3.4 -4.05 3.15 -3.1 L2.9 -1.8 3.05 -1.8 Q7.55 -1.8 7.55 -5.05 L7.3 -5.5 Q7.05 -5.6 7.05 -5.9 7.05 -6.95 7.65 -7.15 L8.45 -5.15 8.55 -3.55 Q8.55 -2.6 6.55 -1.55 4.45 -0.45 1.9 -0.4 L2.4 -0.05 2.55 1.2 Q2.55 2.3 2.05 3.45 L1.95 3.7 Q2.9 4.4 5.95 4.25 L6.25 1.75 6.55 -1.05 6.55 -1.3 Q7.9 -0.9 7.55 1.55 L7.45 3.5 Q7.3 4.25 6.8 4.7 L6.6 5.05 5.15 5.2 Q2.65 5.2 1.75 4.2 L1.7 4.1 Q1.1 5.05 0.05 5.05 L-1.45 4.95 -2.1 4.7 0.15 2.65 Q1.45 1.6 1.45 1.25 L0.85 0.3 0.25 -0.45 -1.4 -0.75 -3.3 -1.15 -3.95 -1.15 Q-5.9 -1.15 -6.85 -1.7 -7.45 -0.2 -7.45 1.1 -7.45 2.3 -6.85 3.25 -6.0 4.65 -4.1 4.7 L-3.35 4.95 -3.95 5.15 -4.95 5.3 Q-6.7 5.3 -7.55 3.2 -8.05 1.95 -8.05 0.95 L-7.95 -0.7 Q-7.7 -1.7 -6.95 -1.8 L-7.7 -2.55 -7.85 -4.2 -7.8 -5.5 -7.3 -6.25 -7.65 -6.6 -7.95 -7.25 -7.85 -7.75 Q-8.55 -8.5 -8.55 -10.55 -8.55 -12.4 -8.2 -13.3 L-7.6 -13.05 Q-8.0 -12.15 -8.0 -10.6 L-7.7 -8.25 -7.35 -9.3 -7.2 -9.4 -6.95 -8.2 Q-6.6 -7.65 -5.6 -7.65 -3.05 -7.65 -2.4 -9.35 L-2.6 -9.8 Q-2.6 -12.95 -1.45 -13.3 L-0.85 -13.05 -1.35 -12.35 -1.3 -11.55 -1.55 -9.35 -1.45 -9.2 Q-0.65 -8.05 1.25 -7.95 2.95 -8.75 5.85 -9.55 7.65 -10.35 7.35 -12.0 L6.4 -11.55 7.2 -13.85 Q7.2 -14.7 4.45 -14.85 L3.4 -14.2 Q2.2 -13.55 1.4 -13.55 L-0.65 -13.6 Q-1.0 -13.4 -1.35 -13.3 L-1.0 -13.6 -4.3 -13.65 Q-4.45 -13.4 -4.45 -14.05 L-3.2 -14.15 -0.2 -14.5 0.2 -15.0 Q1.3 -16.1 2.05 -15.8 L0.85 -14.75 2.45 -15.2 3.15 -15.5 Q2.55 -15.95 2.15 -17.2 1.7 -18.55 1.7 -19.3 L1.45 -19.9 1.2 -20.35 0.65 -20.8 1.25 -22.85 Q-0.2 -20.8 -1.1 -20.8 L-5.2 -21.0 -6.1 -20.8 Q-6.45 -20.8 -6.7 -21.05 -8.85 -20.25 -8.85 -16.9 -8.85 -16.1 -8.45 -15.8 L-4.95 -13.8 -5.95 -13.5 -7.35 -13.3 Q-9.05 -13.3 -9.55 -14.05 L-9.7 -14.9 Q-9.7 -17.6 -9.3 -18.85 -8.7 -20.9 -7.0 -21.4 L-7.45 -22.55 -7.6 -24.4 Q-7.6 -27.1 -7.25 -28.4 L-6.65 -29.8 -6.85 -29.9 Q-8.0 -30.4 -8.0 -30.8 L-7.6 -35.8 -6.15 -35.7 -6.15 -35.8 -6.15 -35.95 Q-7.1 -36.15 -7.65 -36.85 L-8.15 -37.95 Q-8.5 -39.15 -8.45 -40.3 -8.4 -42.5 -6.5 -42.3 -6.75 -40.75 -6.4 -39.75 -6.0 -38.65 -4.25 -36.45 L-4.35 -36.35 Q-1.95 -36.65 -1.55 -36.35 L-1.0 -36.1 -1.0 -36.15 -0.9 -36.05 3.9 -35.7 5.5 -35.9 5.2 -35.9 5.0 -35.6 Q5.95 -35.8 6.6 -36.65 7.35 -37.6 7.35 -38.65 7.35 -39.35 6.95 -40.25 M1.5 -31.2 L1.75 -31.15 1.65 -30.2 1.4 -30.3 Q1.3 -31.0 1.5 -31.2 M0.2 -16.65 L-0.35 -16.1 -1.45 -15.15 -2.35 -15.3 -2.0 -15.4 Q-1.7 -15.5 -1.7 -15.9 L0.05 -17.4 0.2 -16.65 M4.05 -10.4 L4.05 -9.3 3.9 -9.3 3.9 -10.4 4.05 -10.4 M0.95 10.2 L0.65 10.2 Q1.55 9.3 1.3 9.95 L1.15 10.0 0.95 10.2 M1.05 11.6 L1.05 11.65 1.6 11.4 Q2.0 11.1 4.4 11.4 L4.3 11.3 Q6.05 9.1 6.45 8.0 6.8 7.0 6.55 5.45 8.45 5.25 8.5 7.45 8.55 8.6 8.2 9.8 L7.7 10.9 Q7.15 11.6 6.2 11.8 L6.2 11.95 6.2 12.05 7.65 11.95 8.05 16.95 Q8.05 17.35 6.95 17.85 L7.3 18.85 Q7.65 20.15 7.65 22.85 L7.5 24.7 7.05 25.85 Q8.75 26.35 9.35 28.4 L9.7 30.2 8.9 30.2 Q8.85 27.0 6.75 26.2 L6.15 26.45 5.25 26.25 1.15 26.45 Q0.25 26.45 -1.2 24.4 L-0.6 26.45 -1.15 26.9 -1.4 27.35 -1.65 27.95 Q-1.65 28.7 -2.1 30.05 L-2.15 30.2 -4.7 30.2 -4.05 29.3 Q-3.15 28.05 -2.2 26.05 L-2.25 25.5 -2.2 22.8 -2.25 22.7 -2.15 22.25 -1.7 19.65 -1.35 18.75 -1.35 22.15 Q-0.35 22.1 -0.05 22.7 L0.1 24.1 0.0 25.45 4.8 25.45 5.0 25.1 5.25 25.1 5.8 24.95 Q6.6 24.55 6.85 23.2 L7.0 20.45 7.0 18.7 6.45 18.05 3.9 18.45 2.55 18.3 1.55 18.05 1.6 17.95 -1.25 18.55 -0.55 17.6 0.3 16.7 0.45 16.8 0.5 16.8 0.05 16.4 -0.7 15.35 Q-0.7 13.8 -0.1 12.8 L-0.85 12.85 -4.25 12.75 Q-4.45 13.45 -5.2 13.45 L-6.1 13.3 -7.35 14.65 -8.2 15.8 Q-8.2 16.3 -6.95 16.6 L-5.8 16.9 Q-5.0 16.35 -3.9 16.3 -1.75 16.25 -1.75 18.45 L-1.8 18.95 -2.0 19.05 -2.8 18.4 Q-3.75 18.95 -5.2 18.95 -7.35 18.95 -8.55 17.8 -9.35 17.05 -9.35 16.5 -9.35 14.8 -9.05 14.15 -8.5 12.95 -6.8 12.85 L-7.75 11.3 -8.2 9.05 -7.75 6.85 Q-7.25 5.25 -6.85 5.2 -6.55 5.5 -6.55 6.1 -6.55 6.6 -6.9 7.5 -7.3 8.4 -7.3 9.1 -7.3 10.15 -6.55 11.1 -5.9 11.95 -4.95 12.15 -4.95 11.8 -5.15 11.85 L-5.45 11.85 -3.85 12.05 0.95 11.7 1.05 11.6 M3.05 10.45 L2.9 10.45 Q2.85 9.8 3.55 9.35 L3.05 10.45 M5.7 12.3 L2.05 12.45 0.65 12.7 0.55 13.45 0.3 13.7 Q0.05 13.65 0.05 13.95 0.05 14.95 0.4 15.3 L2.1 16.35 2.7 16.35 2.7 16.1 3.35 15.7 Q4.0 15.4 4.3 15.45 L4.7 15.95 4.05 16.5 4.5 16.6 2.95 17.45 3.9 17.4 3.75 17.2 Q5.15 16.35 6.05 16.85 6.85 16.45 7.15 15.85 L7.2 13.75 7.1 12.9 Q6.9 12.5 6.05 12.2 L5.7 12.3 M0.0 29.85 L0.45 30.2 -0.1 30.2 0.0 29.85 M3.25 21.55 L3.5 21.6 3.4 22.55 3.15 22.45 Q3.05 21.75 3.25 21.55 M1.3 23.5 Q1.15 23.0 1.15 21.7 1.55 21.8 2.1 22.85 L2.6 24.1 2.4 24.95 Q1.55 24.3 1.3 23.5 M-4.45 -125.65 Q-0.35 -126.7 1.3 -123.7 -1.5 -124.15 -2.8 -124.75 L-4.45 -125.65 M-2.05 -119.4 L-1.1 -120.55 Q-1.1 -119.25 -1.25 -118.75 -1.5 -117.95 -2.35 -117.3 L-2.55 -118.15 -2.05 -119.4 M-3.1 -119.8 L-3.35 -119.7 -3.45 -120.65 -3.2 -120.7 Q-3.0 -120.5 -3.1 -119.8 M-1.7 -93.15 Q-1.55 -92.85 -1.55 -92.4 -1.6 -91.2 -2.85 -91.05 L-2.2 -91.95 Q-1.65 -92.65 -1.85 -93.15 L-1.7 -93.15 M-2.4 -92.95 L-2.35 -92.5 -2.65 -92.0 -3.45 -91.05 -3.6 -91.05 Q-3.95 -91.7 -3.3 -92.2 L-2.45 -92.9 -2.4 -92.95 M-1.7 -78.4 L-1.45 -78.45 Q-1.25 -78.25 -1.35 -77.55 L-1.6 -77.45 -1.7 -78.4 M-4.65 -31.8 L-4.25 -32.3 -3.3 -32.05 Q-2.65 -31.75 -2.65 -31.65 -2.65 -31.0 -2.75 -31.3 L-3.75 -31.15 Q-4.0 -31.15 -4.65 -31.8 M-0.6 -35.05 L-2.0 -35.3 -5.65 -35.45 -6.0 -35.55 Q-6.85 -35.25 -7.05 -34.85 L-7.15 -34.0 -7.1 -31.9 Q-6.6 -30.95 -5.0 -30.55 L-4.65 -30.5 -3.9 -30.4 -4.45 -30.65 -2.6 -30.9 -2.75 -31.05 Q-0.75 -32.05 -0.35 -32.45 0.0 -32.8 0.0 -33.8 0.0 -34.1 -0.25 -34.05 L-0.5 -34.3 -0.6 -35.05 M-2.85 -37.3 L-3.0 -37.3 -3.5 -38.4 Q-2.8 -37.95 -2.85 -37.3 M-0.6 -37.55 L-0.9 -37.55 -1.1 -37.75 -1.25 -37.8 Q-1.5 -38.45 -0.6 -37.55 M-4.0 -58.15 L-3.85 -58.15 -3.85 -57.05 -4.0 -57.05 -4.0 -58.15 M-4.2 -77.65 L-4.6 -77.9 -4.9 -77.85 -4.2 -77.65 M-3.1 -24.8 L-3.35 -24.7 -3.45 -25.65 -3.2 -25.7 Q-3.0 -25.5 -3.1 -24.8 M-2.05 -24.4 L-1.1 -25.55 Q-1.1 -24.25 -1.25 -23.75 -1.5 -22.95 -2.35 -22.3 L-2.55 -23.15 -2.05 -24.4 M-1.85 1.85 L-1.7 1.85 Q-1.55 2.15 -1.55 2.6 -1.6 3.8 -2.85 3.95 L-2.2 3.05 Q-1.65 2.35 -1.85 1.85 M-2.35 2.5 L-2.65 3.0 -3.45 3.95 -3.6 3.95 Q-3.95 3.3 -3.3 2.8 L-2.45 2.1 -2.4 2.05 -2.35 2.5 M-4.9 17.15 L-4.2 17.35 -4.6 17.1 -4.9 17.15 M-1.45 16.55 Q-1.25 16.75 -1.35 17.45 L-1.6 17.55 -1.7 16.6 -1.45 16.55 M-6.75 24.6 L-6.75 29.1 Q-6.6 29.9 -5.5 30.2 L-7.45 30.2 -7.65 30.0 -7.75 29.05 Q-7.75 23.95 -7.25 18.7 -6.7 19.3 -6.7 21.4 L-6.75 24.6" fill="#5b5546" fill-rule="evenodd" stroke="none"/>
  </g>
</svg>
