<?xml version="1.0" encoding="UTF-8" standalone="no"?>
<svg xmlns:xlink="http://www.w3.org/1999/xlink" height="24.25px" width="22.25px" xmlns="http://www.w3.org/2000/svg">
  <g transform="matrix(1.0, 0.0, 0.0, 1.0, 11.1, 12.1)">
    <path d="M7.7 -3.4 Q4.6 -6.6 -4.15 -7.15 L-4.8 -6.7 Q-2.3 -5.5 -0.15 -3.7 2.2 -1.75 2.2 -0.6 L1.95 0.05 Q1.7 0.4 1.3 0.4 0.45 0.4 -6.55 -6.4 -6.55 -7.3 -3.4 -9.7 -0.3 -12.0 0.8 -12.1 L0.9 -11.7 Q0.9 -10.8 -1.4 -9.15 L-3.15 -7.85 1.05 -8.1 Q8.45 -6.15 10.4 -2.15 11.15 -0.55 11.15 4.3 11.15 5.95 7.5 8.75 3.05 12.15 -2.2 12.15 -6.05 12.15 -8.85 9.65 -11.1 7.65 -11.1 6.1 L-10.45 2.55 -10.2 2.4 Q-9.95 2.7 -8.8 6.45 -6.8 10.0 -2.0 10.0 4.4 10.0 7.55 6.0 9.15 4.0 9.45 1.9 9.45 -1.6 7.7 -3.4" fill="#5b5546" fill-rule="evenodd" stroke="none"/>
  </g>
</svg>
