<?xml version="1.0" encoding="UTF-8" standalone="no"?>
<svg xmlns:xlink="http://www.w3.org/1999/xlink" height="24.6px" width="22.5px" xmlns="http://www.w3.org/2000/svg">
  <g transform="matrix(1.0, 0.0, 0.0, 1.0, 11.7, 12.8)">
    <path d="M1.6 -7.0 Q4.35 -6.75 6.5 -5.6 10.8 -3.3 10.8 1.45 10.8 6.45 5.2 9.5 0.95 11.8 -2.7 11.8 -6.05 11.8 -8.15 10.05 L-10.05 7.85 -11.15 6.5 Q-11.5 6.0 -11.45 5.4 L-11.55 4.05 -11.7 3.1 Q-11.7 2.1 -11.0 2.1 -9.8 2.1 -9.8 3.85 -9.85 5.95 -9.1 6.5 L-7.55 8.5 Q-5.85 10.1 -2.7 10.1 4.45 10.1 7.55 5.75 9.4 3.15 9.4 0.0 9.4 -1.45 7.05 -3.45 4.2 -5.85 -0.2 -6.1 L-3.2 -5.7 -2.5 -5.15 Q1.75 -1.65 1.75 -0.35 1.75 0.5 1.0 0.5 L-5.45 -5.75 -5.55 -5.85 -5.65 -5.95 -5.85 -5.95 Q-6.95 -5.95 -6.9 -6.65 L-6.65 -6.85 -6.8 -7.0 Q-6.8 -7.7 -6.0 -7.45 1.5 -14.2 1.5 -12.4 L-4.55 -6.9 -4.35 -7.0 -0.4 -7.45 1.55 -7.25 1.6 -7.0" fill="#5b5546" fill-rule="evenodd" stroke="none"/>
  </g>
</svg>
