<?xml version="1.0" encoding="UTF-8" standalone="no"?>
<svg xmlns:xlink="http://www.w3.org/1999/xlink" height="24.0px" width="21.15px" xmlns="http://www.w3.org/2000/svg">
  <g transform="matrix(1.0, 0.0, 0.0, 1.0, 10.95, 12.8)">
    <path d="M7.95 -5.3 L9.15 -3.75 Q10.2 -1.85 10.2 2.5 10.2 4.5 7.25 7.5 3.6 11.2 -1.1 11.2 -5.85 11.2 -8.85 8.1 -10.95 5.85 -10.95 4.45 -11.1 2.45 -10.1 2.45 -9.65 2.45 -9.6 2.75 L-9.65 3.05 Q-9.65 4.55 -7.95 6.7 -5.45 9.8 -1.05 9.8 4.1 9.8 6.95 5.65 8.85 2.85 8.85 0.7 8.85 -1.95 7.7 -3.35 5.5 -5.95 -0.95 -5.95 L-2.35 -5.75 -3.15 -5.6 Q0.2 -2.95 0.2 -2.45 L0.2 -2.2 1.35 -1.0 Q1.35 -0.4 0.75 -0.4 -0.4 -0.4 -3.4 -3.45 L-6.15 -6.45 Q-6.15 -7.2 -5.35 -6.9 1.6 -14.55 1.6 -12.25 L-0.75 -9.8 -3.65 -6.6 -0.8 -6.8 5.0 -6.45 Q6.95 -6.2 7.95 -5.3" fill="#5b5546" fill-rule="evenodd" stroke="none"/>
  </g>
</svg>
